<?xml version="1.0" standalone="no"?>
<!DOCTYPE svg PUBLIC "-//W3C//DTD SVG 20010904//EN"
 "http://www.w3.org/TR/2001/REC-SVG-20010904/DTD/svg10.dtd">
<svg version="1.0" xmlns="http://www.w3.org/2000/svg"
 width="156.000000pt" height="156.000000pt" viewBox="0 0 156.000000 156.000000"
 preserveAspectRatio="xMidYMid meet">
<metadata>
Created by potrace 1.11, written by Peter Selinger 2001-2013
</metadata>
<g transform="translate(0.000000,156.000000) scale(0.100000,-0.100000)"
fill="#000000" stroke="none">
<path d="M802 1470 c-99 -35 -192 -120 -285 -258 -56 -83 -137 -231 -137 -251
0 -18 80 -91 162 -147 61 -41 88 -49 88 -24 0 21 77 171 127 247 137 207 291
324 428 324 l50 0 -25 21 c-14 11 -50 33 -80 48 -122 62 -231 75 -328 40z"/>
<path d="M345 1344 c-72 -24 -110 -79 -107 -154 2 -36 67 -180 81 -180 5 0 25
31 44 69 37 71 113 188 150 228 l20 22 -27 11 c-43 16 -121 18 -161 4z"/>
<path d="M1096 1280 c-31 -16 -66 -36 -78 -44 l-21 -15 29 -11 c49 -19 182
-89 247 -131 69 -45 74 -43 84 37 7 59 -18 124 -63 164 -48 42 -119 42 -198 0z"/>
<path d="M164 1207 c-74 -111 -110 -224 -101 -321 15 -171 157 -313 485 -483
l52 -27 50 49 c28 28 73 83 101 122 l50 73 -43 17 c-156 61 -331 177 -436 288
-82 85 -124 166 -131 252 l-6 63 -21 -33z"/>
<path d="M895 1128 c-31 -35 -74 -90 -95 -122 l-39 -59 75 -33 c111 -48 215
-110 304 -181 145 -116 218 -226 229 -348 l6 -60 32 50 c97 152 117 300 56
425 -33 68 -142 179 -238 242 -67 44 -255 148 -267 148 -4 0 -32 -28 -63 -62z"/>
<path d="M925 733 c-86 -199 -236 -387 -376 -471 -44 -27 -134 -51 -172 -46
-42 5 -29 -15 31 -49 149 -84 287 -97 405 -39 117 58 234 194 348 406 l43 80
-50 44 c-50 45 -182 142 -193 142 -4 0 -20 -30 -36 -67z"/>
<path d="M209 518 c-6 -12 -13 -49 -16 -82 -3 -51 0 -68 19 -101 51 -87 129
-103 247 -49 63 28 96 54 69 54 -19 0 -174 97 -250 155 -57 44 -58 44 -69 23z"/>
<path d="M1209 498 c-13 -31 -124 -203 -168 -259 l-21 -27 33 -13 c51 -22 135
-17 181 11 76 46 89 130 39 242 -35 78 -47 87 -64 46z"/>
</g>
</svg>
