<svg xmlns="http://www.w3.org/2000/svg" width="43.638" height="43.606" viewBox="0 0 43.638 43.606">
  <g id="Grupo_3240" data-name="Grupo 3240" transform="translate(0.528 0.617)">
    <g id="Grupo_3239" data-name="Grupo 3239" transform="translate(0 0.018)">
      <g id="Grupo_3238" data-name="Grupo 3238" transform="translate(0 0)">
        <path id="Trazado_12388" data-name="Trazado 12388" d="M41.36,32.783l-8.6-5.733a2.509,2.509,0,0,0-3.36.546l-2.5,3.22a1.07,1.07,0,0,1-1.372.289l-.476-.263c-1.579-.861-3.544-1.932-7.5-5.892s-5.032-5.926-5.893-7.5l-.261-.476a1.072,1.072,0,0,1,.283-1.377l3.218-2.5a2.511,2.511,0,0,0,.546-3.36l-5.733-8.6A2.5,2.5,0,0,0,6.342.375L2.747,2.534a5.071,5.071,0,0,0-2.312,3C-.859,10.252.114,18.393,12.106,30.385c9.539,9.538,16.64,12.1,21.521,12.1a12.539,12.539,0,0,0,3.327-.435,5.066,5.066,0,0,0,3-2.312l2.162-3.593A2.5,2.5,0,0,0,41.36,32.783Zm-.463,2.64L38.74,39.018a3.658,3.658,0,0,1-2.159,1.673c-4.354,1.2-11.962.205-23.474-11.307S.6,10.265,1.8,5.91A3.664,3.664,0,0,1,3.476,3.748L7.071,1.592a1.083,1.083,0,0,1,1.46.328L11.645,6.6l2.614,3.92a1.089,1.089,0,0,1-.236,1.458l-3.218,2.5a2.477,2.477,0,0,0-.656,3.179l.256.464c.9,1.659,2.029,3.723,6.135,7.828s6.169,5.23,7.827,6.134l.465.256a2.477,2.477,0,0,0,3.179-.656l2.5-3.218a1.09,1.09,0,0,1,1.458-.236l8.6,5.733A1.082,1.082,0,0,1,40.9,35.423Z" transform="translate(0 -0.018)" fill="#fb5959" stroke="#f56767" stroke-width="1"/>
        <path id="Trazado_12389" data-name="Trazado 12389" d="M282.336,69.74a12.046,12.046,0,0,1,12.033,12.032.708.708,0,1,0,1.416,0,13.463,13.463,0,0,0-13.448-13.448.708.708,0,0,0,0,1.416Z" transform="translate(-258.269 -62.658)" fill="#fb5959" stroke="#f56767" stroke-width="1"/>
        <path id="Trazado_12390" data-name="Trazado 12390" d="M282.336,120.94a7.8,7.8,0,0,1,7.786,7.786.708.708,0,0,0,1.416,0,9.212,9.212,0,0,0-9.2-9.2.708.708,0,0,0,0,1.416Z" transform="translate(-258.269 -109.612)" fill="#fb5959" stroke="#f56767" stroke-width="1"/>
        <path id="Trazado_12391" data-name="Trazado 12391" d="M282.336,172.14a3.543,3.543,0,0,1,3.539,3.539.708.708,0,1,0,1.415,0,4.96,4.96,0,0,0-4.954-4.955.708.708,0,0,0,0,1.416Z" transform="translate(-258.269 -156.565)" fill="#fb5959" stroke="#f56767" stroke-width="1"/>
      </g>
    </g>
  </g>
</svg>
