<svg xmlns="http://www.w3.org/2000/svg" width="90.745" height="36" viewBox="0 0 90.745 36">
  <g id="Grupo_4009" data-name="Grupo 4009" transform="translate(-227.365 -1681.09)">
    <path id="Trazado_13788" data-name="Trazado 13788" d="M252.969,1815.052h-24.54a1.064,1.064,0,1,1,0-2.127h24.54a1.064,1.064,0,1,1,0,2.127Z" transform="translate(0 -114.9)" fill="#585858"/>
    <path id="Trazado_13789" data-name="Trazado 13789" d="M303.372,1758.631H282.565a1.064,1.064,0,1,1,0-2.127h20.808a1.064,1.064,0,0,1,0,2.127Z" transform="translate(-47.182 -65.727)" fill="#585858"/>
    <path id="Trazado_13790" data-name="Trazado 13790" d="M303.372,1871.472H282.565a1.064,1.064,0,1,1,0-2.127h20.808a1.064,1.064,0,0,1,0,2.127Z" transform="translate(-47.182 -164.073)" fill="#585858"/>
    <g id="Grupo_4008" data-name="Grupo 4008" transform="translate(268.614 1681.09)">
      <g id="Grupo_23" data-name="Grupo 23" transform="translate(0 0)">
        <g id="Grupo_22" data-name="Grupo 22">
          <path id="Trazado_1" data-name="Trazado 1" d="M596.852,1681.09H549.606a1.124,1.124,0,0,0-1.125,1.123v33.752a1.124,1.124,0,0,0,1.123,1.125h47.248a1.125,1.125,0,0,0,1.125-1.125h0v-33.75a1.125,1.125,0,0,0-1.125-1.125Zm-1.125,31.026-13.936-13.934-1.59,1.59,15.064,15.065H551.192l15.066-15.064-1.59-1.59-13.937,13.933V1683.34h45Z" transform="translate(-548.481 -1681.09)" fill="#fb5959"/>
        </g>
      </g>
      <g id="Grupo_25" data-name="Grupo 25" transform="translate(2.062 2.062)">
        <g id="Grupo_24" data-name="Grupo 24">
          <path id="Trazado_2" data-name="Trazado 2" d="M607.615,1697.145l-20.393,18.539-20.394-18.539h-2.293v.833l21.884,19.894a1.214,1.214,0,0,0,1.6,0l21.884-19.894v-.833Z" transform="translate(-564.536 -1697.145)" fill="#fb5959"/>
        </g>
      </g>
    </g>
  </g>
</svg>
