<svg xmlns="http://www.w3.org/2000/svg" width="74.482" height="103.033" viewBox="0 0 74.482 103.033">
  <g id="Grupo_3850" data-name="Grupo 3850" transform="translate(-2571.273 -164.896)">
    <path id="Trazado_12882" data-name="Trazado 12882" d="M2614.74,261.964l-8.512-6.384a49.975,49.975,0,0,1-19.862-39.724V190.319a3.417,3.417,0,0,1,2.66-3.369l25.714-6.562v-7.093l-29.792,6.029a6.883,6.883,0,0,0-5.675,6.916v32.453a52.779,52.779,0,0,0,20.039,41.5L2614.74,272.6Z" transform="translate(-6.227 -6.537)" fill="#fb5959"/>
    <g id="Grupo_3849" data-name="Grupo 3849" transform="translate(2592.997 198.147)">
      <g id="Grupo_3846" data-name="Grupo 3846" transform="translate(0)">
        <g id="Grupo_3845" data-name="Grupo 3845">
          <path id="Trazado_12883" data-name="Trazado 12883" d="M2684.79,314.9a15.517,15.517,0,1,0,15.517,15.517A15.535,15.535,0,0,0,2684.79,314.9Zm0,27.586a12.069,12.069,0,1,1,12.069-12.069A12.083,12.083,0,0,1,2684.79,342.482Z" transform="translate(-2669.273 -314.896)" fill="#585858"/>
        </g>
      </g>
      <g id="Grupo_3848" data-name="Grupo 3848" transform="translate(7.759 9.483)">
        <g id="Grupo_3847" data-name="Grupo 3847">
          <path id="Trazado_12884" data-name="Trazado 12884" d="M2719.285,358.178a1.725,1.725,0,0,0-2.438,0l-7.4,7.4-2.229-2.229a1.724,1.724,0,1,0-2.438,2.438l3.448,3.448a1.724,1.724,0,0,0,2.438,0l8.62-8.621A1.724,1.724,0,0,0,2719.285,358.178Z" transform="translate(-2704.273 -357.673)" fill="#585858"/>
        </g>
      </g>
    </g>
    <path id="Trazado_12885" data-name="Trazado 12885" d="M2638.661,170.925l-29.793-6.029h-.709l-29.793,6.029a8.92,8.92,0,0,0-7.093,8.69v32.453a54.47,54.47,0,0,0,20.571,42.916l15.428,12.414.177.177a.174.174,0,0,1,.177.177c.177,0,.355.177.709.177a1.34,1.34,0,0,0,.709-.177,323.952,323.952,0,0,1,.355-.355l15.428-12.414a53.753,53.753,0,0,0,20.926-42.916V179.615A8.92,8.92,0,0,0,2638.661,170.925Zm3.547,41.142a50.939,50.939,0,0,1-19.33,40.078l-12.591,10.108v-6.03l7.8-5.852a51.317,51.317,0,0,0,20.571-41.142V195.043a1.773,1.773,0,1,0-3.547,0V209.23a47.874,47.874,0,0,1-19.153,38.3l-8.512,6.384a1.613,1.613,0,0,0-.709,1.419v6.916l-12.591-10.108a51.2,51.2,0,0,1-19.33-40.078V179.615a5.156,5.156,0,0,1,4.256-5.143l27.665-5.675V171a5.232,5.232,0,0,0,.492,2.678,4.764,4.764,0,0,0,3.334,2.375l3.392.86,9.029,2.289,8.088,2.05,2.62.664a1.909,1.909,0,0,1,1.419,1.773v4.256a1.773,1.773,0,1,0,3.547,0v-4.256a5.141,5.141,0,0,0-4.079-5.143l-24.3-6.207V168.8l27.665,5.5a5.493,5.493,0,0,1,4.256,5.32Z" fill="#585858"/>
  </g>
</svg>
