<svg xmlns="http://www.w3.org/2000/svg" width="117.891" height="91.253" viewBox="0 0 117.891 91.253">
  <g id="Grupo_3283" data-name="Grupo 3283" transform="translate(817.668 -677.569)">
    <g id="Grupo_3279" data-name="Grupo 3279" transform="translate(-817.668 677.569)">
      <path id="Trazado_12452" data-name="Trazado 12452" d="M-786.563,744.032l-.093,0a33.414,33.414,0,0,1-4-.512,1.371,1.371,0,0,1-1.091-1.6,1.371,1.371,0,0,1,1.6-1.091,30.633,30.633,0,0,0,3.673.47,1.371,1.371,0,0,1,1.277,1.46A1.371,1.371,0,0,1-786.563,744.032Zm4.832-.039a1.371,1.371,0,0,1-1.365-1.258,1.371,1.371,0,0,1,1.253-1.48,30.588,30.588,0,0,0,3.664-.529,1.371,1.371,0,0,1,1.621,1.065,1.371,1.371,0,0,1-1.065,1.621,33.3,33.3,0,0,1-3.994.577Q-781.674,743.993-781.731,743.993Zm-13.338-1.715a1.368,1.368,0,0,1-.458-.079,33.164,33.164,0,0,1-3.717-1.58,1.371,1.371,0,0,1-.615-1.839,1.372,1.372,0,0,1,1.839-.615,30.43,30.43,0,0,0,3.409,1.449,1.371,1.371,0,0,1,.834,1.751A1.372,1.372,0,0,1-795.069,742.278Zm21.814-.177a1.372,1.372,0,0,1-1.285-.892,1.371,1.371,0,0,1,.805-1.764,30.422,30.422,0,0,0,3.383-1.5,1.371,1.371,0,0,1,1.849.585,1.371,1.371,0,0,1-.584,1.849,33.189,33.189,0,0,1-3.689,1.64A1.368,1.368,0,0,1-773.255,742.1Zm-29.529-3.82a1.365,1.365,0,0,1-.79-.251,33.562,33.562,0,0,1-3.15-2.523,1.372,1.372,0,0,1-.1-1.937,1.372,1.372,0,0,1,1.937-.1,30.818,30.818,0,0,0,2.891,2.316,1.371,1.371,0,0,1,.329,1.911A1.37,1.37,0,0,1-802.784,738.281Zm37.174-.3a1.369,1.369,0,0,1-1.109-.562,1.371,1.371,0,0,1,.3-1.916,30.793,30.793,0,0,0,2.853-2.361,1.371,1.371,0,0,1,1.938.066,1.371,1.371,0,0,1-.065,1.938,33.527,33.527,0,0,1-3.108,2.572A1.364,1.364,0,0,1-765.61,737.982Zm-43.522-5.626a1.368,1.368,0,0,1-1.063-.5,33.486,33.486,0,0,1-2.357-3.274,1.371,1.371,0,0,1,.427-1.892,1.371,1.371,0,0,1,1.892.427,30.748,30.748,0,0,0,2.163,3.005,1.371,1.371,0,0,1-.2,1.929A1.366,1.366,0,0,1-809.132,732.355Zm49.775-.4a1.366,1.366,0,0,1-.849-.3,1.371,1.371,0,0,1-.227-1.926,30.73,30.73,0,0,0,2.116-3.041,1.371,1.371,0,0,1,1.885-.458,1.371,1.371,0,0,1,.458,1.884,33.426,33.426,0,0,1-2.3,3.314A1.37,1.37,0,0,1-759.357,731.957Zm-54.3-7.011a1.371,1.371,0,0,1-1.258-.824,33.182,33.182,0,0,1-1.385-3.792,1.371,1.371,0,0,1,.924-1.705,1.372,1.372,0,0,1,1.705.924,30.439,30.439,0,0,0,1.27,3.477,1.371,1.371,0,0,1-.709,1.8A1.365,1.365,0,0,1-813.655,724.946Zm58.7-.476a1.366,1.366,0,0,1-.527-.106,1.372,1.372,0,0,1-.738-1.793,30.311,30.311,0,0,0,1.213-3.5,1.37,1.37,0,0,1,1.69-.951,1.371,1.371,0,0,1,.952,1.69,33.114,33.114,0,0,1-1.323,3.816A1.371,1.371,0,0,1-754.951,724.469ZM-816,716.585a1.372,1.372,0,0,1-1.357-1.185,33.636,33.636,0,0,1-.306-4.021,1.371,1.371,0,0,1,1.349-1.393,1.373,1.373,0,0,1,1.393,1.349,30.9,30.9,0,0,0,.281,3.692,1.371,1.371,0,0,1-1.172,1.545A1.359,1.359,0,0,1-816,716.585Zm63.267-.516a1.361,1.361,0,0,1-.166-.01,1.371,1.371,0,0,1-1.2-1.526,30.947,30.947,0,0,0,.222-3.7v-.066a1.371,1.371,0,0,1,1.366-1.377h.006a1.371,1.371,0,0,1,1.371,1.366v.077a33.743,33.743,0,0,1-.241,4.026A1.372,1.372,0,0,1-752.738,716.07Zm-63.273-8.168a1.378,1.378,0,0,1-.185-.012,1.372,1.372,0,0,1-1.176-1.543,33.285,33.285,0,0,1,.782-3.96,1.371,1.371,0,0,1,1.674-.979,1.371,1.371,0,0,1,.979,1.674,30.519,30.519,0,0,0-.717,3.632A1.372,1.372,0,0,1-816.011,707.9Zm63.128-.586a1.372,1.372,0,0,1-1.354-1.163,30.477,30.477,0,0,0-.785-3.618,1.371,1.371,0,0,1,.948-1.692,1.371,1.371,0,0,1,1.692.948,33.224,33.224,0,0,1,.856,3.945,1.371,1.371,0,0,1-1.147,1.564A1.394,1.394,0,0,1-752.883,707.316Zm-60.8-7.782a1.371,1.371,0,0,1-.545-.113,1.371,1.371,0,0,1-.713-1.8,33.271,33.271,0,0,1,1.829-3.6,1.371,1.371,0,0,1,1.877-.488,1.371,1.371,0,0,1,.488,1.877,30.535,30.535,0,0,0-1.677,3.3A1.372,1.372,0,0,1-813.684,699.533Zm58.32-.539a1.371,1.371,0,0,1-1.249-.8,30.562,30.562,0,0,0-1.737-3.268,1.372,1.372,0,0,1,.454-1.886,1.372,1.372,0,0,1,1.885.454,33.284,33.284,0,0,1,1.893,3.562,1.372,1.372,0,0,1-.679,1.817A1.366,1.366,0,0,1-755.365,698.995Zm-53.809-6.887a1.365,1.365,0,0,1-.864-.307,1.371,1.371,0,0,1-.2-1.929,33.582,33.582,0,0,1,2.729-2.973,1.371,1.371,0,0,1,1.939.034,1.371,1.371,0,0,1-.034,1.939,30.9,30.9,0,0,0-2.505,2.729A1.368,1.368,0,0,1-809.174,692.108Zm49.166-.449a1.368,1.368,0,0,1-1.049-.487,30.821,30.821,0,0,0-2.554-2.682,1.372,1.372,0,0,1-.069-1.938,1.371,1.371,0,0,1,1.938-.069,33.607,33.607,0,0,1,2.782,2.922,1.371,1.371,0,0,1-.165,1.932A1.366,1.366,0,0,1-760.008,691.659Zm-42.826-5.487a1.37,1.37,0,0,1-1.12-.578,1.372,1.372,0,0,1,.325-1.912,33.369,33.369,0,0,1,3.426-2.13,1.372,1.372,0,0,1,1.858.554,1.371,1.371,0,0,1-.554,1.858,30.613,30.613,0,0,0-3.143,1.954A1.367,1.367,0,0,1-802.834,686.172Zm36.378-.334a1.365,1.365,0,0,1-.771-.239,30.612,30.612,0,0,0-3.181-1.9,1.371,1.371,0,0,1-.588-1.848,1.371,1.371,0,0,1,1.848-.589,33.4,33.4,0,0,1,3.467,2.068,1.371,1.371,0,0,1,.36,1.906A1.37,1.37,0,0,1-766.456,685.838Zm-28.682-3.676a1.371,1.371,0,0,1-1.291-.91,1.371,1.371,0,0,1,.83-1.753,33.132,33.132,0,0,1,3.877-1.123,1.371,1.371,0,0,1,1.638,1.038,1.371,1.371,0,0,1-1.038,1.638,30.388,30.388,0,0,0-3.556,1.03A1.37,1.37,0,0,1-795.137,682.162Zm20.9-.194a1.367,1.367,0,0,1-.437-.072,30.455,30.455,0,0,0-3.577-.964,1.371,1.371,0,0,1-1.068-1.619,1.371,1.371,0,0,1,1.619-1.068,33.144,33.144,0,0,1,3.9,1.051,1.371,1.371,0,0,1,.863,1.737A1.372,1.372,0,0,1-774.232,681.968Zm-12.406-1.58A1.371,1.371,0,0,1-788,679.111a1.372,1.372,0,0,1,1.274-1.463,34.072,34.072,0,0,1,4.033-.037,1.371,1.371,0,0,1,1.3,1.439,1.373,1.373,0,0,1-1.439,1.3,31.21,31.21,0,0,0-3.706.034C-786.574,680.387-786.606,680.388-786.638,680.388Z" transform="translate(817.668 -677.569)" fill="#585858"/>
    </g>
    <g id="Grupo_3280" data-name="Grupo 3280" transform="translate(-809.641 685.691)">
      <path id="Trazado_12453" data-name="Trazado 12453" d="M-751.455,769.416c-.6,0-1.2-.021-1.8-.063a1.371,1.371,0,0,1-1.271-1.464,1.371,1.371,0,0,1,1.464-1.271,23,23,0,0,0,3.693-.04,1.374,1.374,0,0,1,1.491,1.24,1.371,1.371,0,0,1-1.24,1.491C-749.887,769.38-750.674,769.416-751.455,769.416Zm-6.518-.9a1.372,1.372,0,0,1-.375-.052,25.177,25.177,0,0,1-3.88-1.455,1.371,1.371,0,0,1-.654-1.826,1.372,1.372,0,0,1,1.826-.654,22.411,22.411,0,0,0,3.456,1.3,1.371,1.371,0,0,1,.945,1.693A1.372,1.372,0,0,1-757.973,768.516Zm13.531-.146a1.372,1.372,0,0,1-1.311-.97,1.371,1.371,0,0,1,.909-1.713,22.377,22.377,0,0,0,3.425-1.37,1.372,1.372,0,0,1,1.839.614,1.372,1.372,0,0,1-.614,1.839,25.133,25.133,0,0,1-3.846,1.538A1.369,1.369,0,0,1-744.442,768.37Zm-21.386-3.763a1.365,1.365,0,0,1-.825-.277,25.393,25.393,0,0,1-3.089-2.757,1.371,1.371,0,0,1,.048-1.939,1.371,1.371,0,0,1,1.939.049A22.682,22.682,0,0,0-765,762.141a1.371,1.371,0,0,1,.268,1.921A1.369,1.369,0,0,1-765.828,764.606Zm29.152-.313a1.369,1.369,0,0,1-1.077-.522,1.371,1.371,0,0,1,.227-1.926,22.7,22.7,0,0,0,2.7-2.516,1.371,1.371,0,0,1,1.937-.089,1.371,1.371,0,0,1,.089,1.937A25.427,25.427,0,0,1-735.827,764,1.364,1.364,0,0,1-736.676,764.293Zm-35.065-6.163a1.371,1.371,0,0,1-1.166-.647A25.231,25.231,0,0,1-774.8,753.8a1.372,1.372,0,0,1,.744-1.791,1.371,1.371,0,0,1,1.791.744,22.512,22.512,0,0,0,1.683,3.282,1.372,1.372,0,0,1-.441,1.889A1.366,1.366,0,0,1-771.741,758.13Zm40.838-.439a1.366,1.366,0,0,1-.7-.191,1.372,1.372,0,0,1-.481-1.879,22.452,22.452,0,0,0,1.613-3.32,1.372,1.372,0,0,1,1.774-.783,1.371,1.371,0,0,1,.783,1.774,25.2,25.2,0,0,1-1.81,3.727A1.37,1.37,0,0,1-730.9,757.692Zm-44.017-7.733a1.372,1.372,0,0,1-1.346-1.12,25.415,25.415,0,0,1-.424-4.118,1.371,1.371,0,0,1,1.342-1.4,1.375,1.375,0,0,1,1.4,1.342,22.692,22.692,0,0,0,.378,3.672,1.371,1.371,0,0,1-1.1,1.6A1.38,1.38,0,0,1-774.919,749.958Zm47.019-.509a1.364,1.364,0,0,1-.224-.018,1.371,1.371,0,0,1-1.131-1.576,22.736,22.736,0,0,0,.3-3.68v-.054a1.371,1.371,0,0,1,1.371-1.371,1.371,1.371,0,0,1,1.371,1.371v.047a25.53,25.53,0,0,1-.335,4.132A1.372,1.372,0,0,1-727.9,749.449Zm-47.026-8.261a1.377,1.377,0,0,1-.25-.023,1.371,1.371,0,0,1-1.1-1.6,25.149,25.149,0,0,1,1.085-4,1.372,1.372,0,0,1,1.757-.822,1.371,1.371,0,0,1,.822,1.757,22.418,22.418,0,0,0-.967,3.56A1.372,1.372,0,0,1-774.926,741.188Zm46.833-.56a1.372,1.372,0,0,1-1.341-1.091A22.367,22.367,0,0,0-730.487,736a1.371,1.371,0,0,1,.779-1.776,1.371,1.371,0,0,1,1.776.779,25.111,25.111,0,0,1,1.181,3.97,1.371,1.371,0,0,1-1.061,1.623A1.366,1.366,0,0,1-728.094,740.628Zm-43.677-7.621a1.364,1.364,0,0,1-.72-.205,1.371,1.371,0,0,1-.445-1.888,25.423,25.423,0,0,1,2.459-3.331,1.372,1.372,0,0,1,1.935-.131,1.371,1.371,0,0,1,.131,1.935,22.655,22.655,0,0,0-2.193,2.971A1.37,1.37,0,0,1-771.771,733.006Zm40.325-.482a1.37,1.37,0,0,1-1.15-.622,22.673,22.673,0,0,0-2.263-2.917,1.371,1.371,0,0,1,.085-1.937,1.371,1.371,0,0,1,1.937.085A25.384,25.384,0,0,1-730.3,730.4a1.371,1.371,0,0,1-.4,1.9A1.366,1.366,0,0,1-731.445,732.525Zm-34.421-6.008a1.369,1.369,0,0,1-1.094-.542,1.371,1.371,0,0,1,.264-1.921,25.317,25.317,0,0,1,3.492-2.223,1.371,1.371,0,0,1,1.852.574,1.371,1.371,0,0,1-.574,1.852,22.6,22.6,0,0,0-3.113,1.982A1.366,1.366,0,0,1-765.866,726.517Zm28.365-.339a1.365,1.365,0,0,1-.8-.26,22.566,22.566,0,0,0-3.16-1.908,1.371,1.371,0,0,1-.618-1.838,1.371,1.371,0,0,1,1.838-.619,25.3,25.3,0,0,1,3.546,2.141,1.371,1.371,0,0,1,.309,1.915A1.37,1.37,0,0,1-737.5,726.178Zm-20.525-3.586a1.372,1.372,0,0,1-1.318-.995,1.371,1.371,0,0,1,.942-1.7,25.155,25.155,0,0,1,4.062-.805,1.372,1.372,0,0,1,1.517,1.208,1.371,1.371,0,0,1-1.208,1.518,22.44,22.44,0,0,0-3.619.717A1.378,1.378,0,0,1-758.026,722.593Zm12.591-.15a1.38,1.38,0,0,1-.346-.044,22.522,22.522,0,0,0-3.635-.63,1.371,1.371,0,0,1-1.243-1.488,1.37,1.37,0,0,1,1.488-1.243,25.288,25.288,0,0,1,4.08.707,1.371,1.371,0,0,1,.982,1.672A1.372,1.372,0,0,1-745.435,722.442Z" transform="translate(776.691 -719.03)" fill="#585858"/>
    </g>
    <g id="Grupo_3281" data-name="Grupo 3281" transform="translate(-802.339 692.901)">
      <path id="Trazado_12454" data-name="Trazado 12454" d="M-721.477,791.706h-.009a18.018,18.018,0,0,1-4.124-.477,1.371,1.371,0,0,1-1.02-1.649,1.371,1.371,0,0,1,1.649-1.02,15.266,15.266,0,0,0,3.5.4,1.375,1.375,0,0,1,1.376,1.371A1.367,1.367,0,0,1-721.477,791.706Zm4.749-.693a1.372,1.372,0,0,1-1.313-.978,1.371,1.371,0,0,1,.921-1.707,15.107,15.107,0,0,0,3.235-1.4,1.371,1.371,0,0,1,1.874.5,1.371,1.371,0,0,1-.5,1.874,17.856,17.856,0,0,1-3.823,1.653A1.374,1.374,0,0,1-716.728,791.012Zm-13.031-1.517a1.365,1.365,0,0,1-.685-.184,18.03,18.03,0,0,1-3.339-2.485,1.371,1.371,0,0,1-.058-1.938,1.371,1.371,0,0,1,1.938-.058,15.289,15.289,0,0,0,2.83,2.107,1.372,1.372,0,0,1,.5,1.873A1.371,1.371,0,0,1-729.759,789.5Zm20.324-2.99a1.366,1.366,0,0,1-.941-.374,1.371,1.371,0,0,1-.056-1.939,15.259,15.259,0,0,0,2.108-2.829,1.371,1.371,0,0,1,1.874-.5,1.371,1.371,0,0,1,.5,1.874,18.023,18.023,0,0,1-2.487,3.338A1.368,1.368,0,0,1-709.436,786.505Zm-26.389-3.067a1.37,1.37,0,0,1-1.188-.684,17.86,17.86,0,0,1-1.655-3.822,1.371,1.371,0,0,1,.919-1.708,1.372,1.372,0,0,1,1.707.919,15.133,15.133,0,0,0,1.4,3.235,1.371,1.371,0,0,1-.5,1.874A1.365,1.365,0,0,1-735.825,783.438Zm30.46-4.477a1.369,1.369,0,0,1-.316-.037,1.371,1.371,0,0,1-1.02-1.65,15.268,15.268,0,0,0,.406-3.5v-.036a1.371,1.371,0,0,1,1.371-1.371,1.371,1.371,0,0,1,1.371,1.371v.026a18.045,18.045,0,0,1-.479,4.145A1.372,1.372,0,0,1-705.364,778.961Zm-32.686-3.81a1.363,1.363,0,0,1-1.371-1.362v-.018a18.028,18.028,0,0,1,.474-4.115,1.371,1.371,0,0,1,1.648-1.022,1.371,1.371,0,0,1,1.022,1.648,15.286,15.286,0,0,0-.4,3.488A1.379,1.379,0,0,1-738.05,775.151Zm32.425-4.793a1.372,1.372,0,0,1-1.313-.976,15.119,15.119,0,0,0-1.4-3.233,1.371,1.371,0,0,1,.5-1.875,1.371,1.371,0,0,1,1.875.5,17.875,17.875,0,0,1,1.659,3.82,1.371,1.371,0,0,1-.918,1.708A1.37,1.37,0,0,1-705.625,770.358Zm-30.22-3.48a1.364,1.364,0,0,1-.684-.184,1.371,1.371,0,0,1-.5-1.873,18,18,0,0,1,2.484-3.341,1.371,1.371,0,0,1,1.938-.059,1.371,1.371,0,0,1,.059,1.938,15.266,15.266,0,0,0-2.1,2.831A1.371,1.371,0,0,1-735.845,766.878Zm25.7-3.806a1.365,1.365,0,0,1-.939-.372,15.267,15.267,0,0,0-2.833-2.1,1.371,1.371,0,0,1-.5-1.873,1.371,1.371,0,0,1,1.873-.5A18,18,0,0,1-709.2,760.7a1.371,1.371,0,0,1,.06,1.938A1.369,1.369,0,0,1-710.143,763.072Zm-19.645-2.265a1.371,1.371,0,0,1-1.187-.683,1.371,1.371,0,0,1,.5-1.874,17.85,17.85,0,0,1,3.821-1.657,1.371,1.371,0,0,1,1.708.918,1.371,1.371,0,0,1-.918,1.708,15.117,15.117,0,0,0-3.234,1.4A1.365,1.365,0,0,1-729.789,760.807Zm12.1-1.792a1.373,1.373,0,0,1-.314-.037,15.293,15.293,0,0,0-3.48-.4h-.027a1.371,1.371,0,0,1-1.371-1.371,1.371,1.371,0,0,1,1.371-1.371h.027a18.036,18.036,0,0,1,4.105.472,1.371,1.371,0,0,1,1.022,1.648A1.372,1.372,0,0,1-717.693,759.015Z" transform="translate(739.421 -755.836)" fill="#585858"/>
    </g>
    <g id="Grupo_3282" data-name="Grupo 3282" transform="translate(-790.673 703)">
      <rect id="Rect치ngulo_712" data-name="Rect치ngulo 712" width="86.267" height="59.553" transform="translate(2.329 3.134)" fill="#fff"/>
      <rect id="Rect치ngulo_713" data-name="Rect치ngulo 713" width="87.762" height="12.537" transform="translate(1.567 20.373)" fill="#fb5959"/>
      <path id="Trazado_12455" data-name="Trazado 12455" d="M-320.033,999.387a7.76,7.76,0,0,0-7.836,7.836,7.76,7.76,0,0,0,7.836,7.836,7.76,7.76,0,0,0,7.836-7.836A7.76,7.76,0,0,0-320.033,999.387Zm0,12.537a4.618,4.618,0,0,1-4.7-4.7,4.618,4.618,0,0,1,4.7-4.7,4.618,4.618,0,0,1,4.7,4.7A4.618,4.618,0,0,1-320.033,1011.924Z" transform="translate(396.825 -961.775)" fill="#585858"/>
      <path id="Trazado_12456" data-name="Trazado 12456" d="M-640.033,1063.387H-646.3a1.481,1.481,0,0,0-1.567,1.567,1.481,1.481,0,0,0,1.567,1.567h6.269a1.481,1.481,0,0,0,1.567-1.567A1.481,1.481,0,0,0-640.033,1063.387Z" transform="translate(654.138 -1013.237)" fill="#585858"/>
      <path id="Trazado_12457" data-name="Trazado 12457" d="M-576.033,1063.387H-582.3a1.481,1.481,0,0,0-1.567,1.567,1.481,1.481,0,0,0,1.567,1.567h6.269a1.481,1.481,0,0,0,1.567-1.567A1.481,1.481,0,0,0-576.033,1063.387Z" transform="translate(602.675 -1013.237)" fill="#585858"/>
      <path id="Trazado_12458" data-name="Trazado 12458" d="M-512.033,1063.387H-518.3a1.481,1.481,0,0,0-1.567,1.567,1.481,1.481,0,0,0,1.567,1.567h6.269a1.481,1.481,0,0,0,1.567-1.567A1.481,1.481,0,0,0-512.033,1063.387Z" transform="translate(551.213 -1013.237)" fill="#585858"/>
      <path id="Trazado_12459" data-name="Trazado 12459" d="M-448.033,1063.387H-454.3a1.481,1.481,0,0,0-1.567,1.567,1.481,1.481,0,0,0,1.567,1.567h6.269a1.481,1.481,0,0,0,1.567-1.567A1.481,1.481,0,0,0-448.033,1063.387Z" transform="translate(499.75 -1013.237)" fill="#585858"/>
      <path id="Trazado_12460" data-name="Trazado 12460" d="M-646.3,1034.521h25.075a1.481,1.481,0,0,0,1.567-1.567,1.481,1.481,0,0,0-1.567-1.567H-646.3a1.481,1.481,0,0,0-1.567,1.567A1.481,1.481,0,0,0-646.3,1034.521Z" transform="translate(654.138 -987.506)" fill="#585858"/>
      <path id="Trazado_12461" data-name="Trazado 12461" d="M-596.808,807.387h-75.225a7.76,7.76,0,0,0-7.836,7.836v50.15a7.76,7.76,0,0,0,7.836,7.836h75.225a7.76,7.76,0,0,0,7.836-7.836v-50.15A7.76,7.76,0,0,0-596.808,807.387Zm4.7,23.561v34.425a4.618,4.618,0,0,1-4.7,4.7h-75.225a4.618,4.618,0,0,1-4.7-4.7V835.6h.063v-3.134h-.062v-9.4h84.628Zm0-11.023h-84.628v-4.7a4.618,4.618,0,0,1,4.7-4.7h75.225a4.618,4.618,0,0,1,4.7,4.7Z" transform="translate(679.869 -807.387)" fill="#585858"/>
    </g>
  </g>
</svg>
