<svg xmlns="http://www.w3.org/2000/svg" width="90.625" height="90.625" viewBox="0 0 90.625 90.625">
  <g id="Grupo_3231" data-name="Grupo 3231" transform="translate(2 2)">
    <path id="Trazado_12384" data-name="Trazado 12384" d="M43.323,0H43.3A43.286,43.286,0,0,0,8.246,68.7L2.848,84.79,19.5,79.468A43.305,43.305,0,1,0,43.323,0Z" fill="#4caf50" stroke="#fff" stroke-width="4"/>
    <path id="Trazado_12385" data-name="Trazado 12385" d="M157.642,158.441c-1.045,2.951-5.192,5.4-8.5,6.113-2.263.482-5.219.866-15.17-3.259-12.729-5.273-20.925-18.208-21.564-19.047-.612-.839-5.143-6.849-5.143-13.064a13.827,13.827,0,0,1,4.429-10.541,6.293,6.293,0,0,1,4.429-1.554c.536,0,1.018.027,1.451.049,1.272.054,1.911.13,2.75,2.139,1.045,2.518,3.59,8.733,3.893,9.372a2.578,2.578,0,0,1,.184,2.344,7.485,7.485,0,0,1-1.4,1.987c-.639.736-1.245,1.3-1.884,2.09-.585.688-1.245,1.424-.509,2.7a38.444,38.444,0,0,0,7.027,8.733,31.843,31.843,0,0,0,10.157,6.264,2.739,2.739,0,0,0,3.054-.482,52.41,52.41,0,0,0,3.384-4.483,2.417,2.417,0,0,1,3.108-.942c1.169.406,7.358,3.465,8.63,4.1s2.111.942,2.42,1.478S158.687,155.485,157.642,158.441Z" transform="translate(-89.116 -97.278)" fill="#fafafa" stroke="#fff" stroke-width="4"/>
  </g>
</svg>
