<svg xmlns="http://www.w3.org/2000/svg" width="111.851" height="72.506" viewBox="0 0 111.851 72.506">
  <g id="Grupo_3250" data-name="Grupo 3250" transform="translate(-946.726 -282.122)">
    <path id="Trazado_12403" data-name="Trazado 12403" d="M1213.373,282.122a36.1,36.1,0,0,0-22.592,7.9l6.955,6.955a26.513,26.513,0,1,1-.95,42.062l-6.926,6.926a36.252,36.252,0,1,0,23.513-63.845Z" transform="translate(-191.048)" fill="#fb5959"/>
    <g id="Grupo_3249" data-name="Grupo 3249" transform="translate(1012.311 298.12)">
      <path id="Trazado_12404" data-name="Trazado 12404" d="M1293.11,363.455a1.774,1.774,0,0,1-1.774-1.774v-3.108a1.774,1.774,0,0,1,3.548,0v3.108A1.774,1.774,0,0,1,1293.11,363.455Z" transform="translate(-1283.097 -356.799)" fill="#585858"/>
      <path id="Trazado_12405" data-name="Trazado 12405" d="M1262.89,405.6a9.76,9.76,0,0,1-10.013-9.461,1.774,1.774,0,1,1,3.548,0,6.491,6.491,0,1,0,6.465-5.913,9.475,9.475,0,1,1,10.013-9.461,1.774,1.774,0,0,1-3.547,0,6.491,6.491,0,1,0-6.465,5.913,9.476,9.476,0,1,1,0,18.921Z" transform="translate(-1252.877 -368.2)" fill="#585858"/>
      <path id="Trazado_12406" data-name="Trazado 12406" d="M1293.11,409.127a1.774,1.774,0,0,1-1.774-1.774V373.082a1.774,1.774,0,0,1,3.548,0v34.271A1.774,1.774,0,0,1,1293.11,409.127Z" transform="translate(-1283.097 -368.2)" fill="#585858"/>
    </g>
    <path id="Trazado_12407" data-name="Trazado 12407" d="M989.426,447.59H948.5a1.774,1.774,0,1,1,0-3.547h40.926a1.774,1.774,0,1,1,0,3.547Z" transform="translate(0 -127.233)" fill="#585858"/>
    <path id="Trazado_12408" data-name="Trazado 12408" d="M1037.337,391.17h-34.7a1.774,1.774,0,1,1,0-3.548h34.7a1.774,1.774,0,0,1,0,3.548Z" transform="translate(-42.539 -82.899)" fill="#585858"/>
    <path id="Trazado_12409" data-name="Trazado 12409" d="M1037.337,504.01h-34.7a1.774,1.774,0,1,1,0-3.548h34.7a1.774,1.774,0,0,1,0,3.548Z" transform="translate(-42.539 -171.566)" fill="#585858"/>
  </g>
</svg>
