<svg xmlns="http://www.w3.org/2000/svg" width="112.912" height="91.506" viewBox="0 0 112.912 91.506">
  <g id="Grupo_3251" data-name="Grupo 3251" transform="translate(-1791.152 -218.007)">
    <rect id="Rectángulo_711" data-name="Rectángulo 711" width="59.297" height="9.155" transform="translate(1841.169 273.447)" fill="#fb5959"/>
    <circle id="Elipse_399" data-name="Elipse 399" cx="9.729" cy="9.729" r="9.729" transform="translate(1802.108 218.007)" fill="#fb5959"/>
    <path id="Trazado_12410" data-name="Trazado 12410" d="M1830.723,349.838a1.8,1.8,0,0,1-1.8-1.8v-5.461a17.1,17.1,0,0,0-34.175.052v5.409a1.8,1.8,0,0,1-3.6,0v-5.461a20.692,20.692,0,0,1,41.369-.052v5.513A1.8,1.8,0,0,1,1830.723,349.838Z" transform="translate(0 -81.853)" fill="#585858"/>
    <path id="Trazado_12411" data-name="Trazado 12411" d="M2071.792,477.831h-50.174a7.268,7.268,0,0,1-7.26-7.26V439.966a7.268,7.268,0,0,1,7.26-7.26h50.174a7.268,7.268,0,0,1,7.26,7.26v30.605A7.268,7.268,0,0,1,2071.792,477.831ZM2021.619,436.3a3.667,3.667,0,0,0-3.662,3.663v30.605a3.667,3.667,0,0,0,3.662,3.662h50.174a3.666,3.666,0,0,0,3.662-3.662V439.966a3.666,3.666,0,0,0-3.662-3.663Z" transform="translate(-174.988 -168.318)" fill="#585858"/>
    <path id="Trazado_12412" data-name="Trazado 12412" d="M2121.026,548.3h-10.069a1.8,1.8,0,1,1,0-3.6h10.069a1.8,1.8,0,1,1,0,3.6Z" transform="translate(-249.308 -256.12)" fill="#585858"/>
    <path id="Trazado_12413" data-name="Trazado 12413" d="M2121.026,573.052h-10.069a1.8,1.8,0,0,1,0-3.6h10.069a1.8,1.8,0,0,1,0,3.6Z" transform="translate(-249.308 -275.525)" fill="#585858"/>
    <path id="Trazado_12414" data-name="Trazado 12414" d="M2121.026,597.8h-10.069a1.8,1.8,0,1,1,0-3.6h10.069a1.8,1.8,0,1,1,0,3.6Z" transform="translate(-249.308 -294.93)" fill="#585858"/>
    <path id="Trazado_12415" data-name="Trazado 12415" d="M2199.016,548.3h-6.428a1.8,1.8,0,1,1,0-3.6h6.428a1.8,1.8,0,1,1,0,3.6Z" transform="translate(-313.305 -256.12)" fill="#585858"/>
    <path id="Trazado_12416" data-name="Trazado 12416" d="M2199.016,573.052h-6.428a1.8,1.8,0,1,1,0-3.6h6.428a1.8,1.8,0,1,1,0,3.6Z" transform="translate(-313.305 -275.525)" fill="#585858"/>
    <path id="Trazado_12417" data-name="Trazado 12417" d="M2199.016,597.8h-6.428a1.8,1.8,0,1,1,0-3.6h6.428a1.8,1.8,0,1,1,0,3.6Z" transform="translate(-313.305 -294.93)" fill="#585858"/>
    <path id="Trazado_12418" data-name="Trazado 12418" d="M1847.115,500.138h-30.036a1.8,1.8,0,0,1-1.8-1.8v-13.88a1.8,1.8,0,1,1,3.6,0v12.082h28.237a1.8,1.8,0,1,1,0,3.6Z" transform="translate(-18.916 -207.481)" fill="#585858"/>
    <path id="Trazado_12419" data-name="Trazado 12419" d="M1933.738,538.843a1.8,1.8,0,0,1-1.091-3.231l3.949-3-3.949-3a1.8,1.8,0,0,1,2.178-2.864l5.831,4.437a1.8,1.8,0,0,1,0,2.864l-5.831,4.437A1.792,1.792,0,0,1,1933.738,538.843Z" transform="translate(-110.372 -241.749)" fill="#585858"/>
    <path id="Trazado_12420" data-name="Trazado 12420" d="M2030.919,349.514a1.8,1.8,0,0,1-1.8-1.8V335.634h-28.237a1.8,1.8,0,1,1,0-3.6h30.036a1.8,1.8,0,0,1,1.8,1.8v13.88A1.8,1.8,0,0,1,2030.919,349.514Z" transform="translate(-163.013 -89.396)" fill="#585858"/>
    <path id="Trazado_12421" data-name="Trazado 12421" d="M2002.1,323.965a1.792,1.792,0,0,1-1.088-.367l-5.832-4.437a1.8,1.8,0,0,1,0-2.864l5.832-4.438a1.8,1.8,0,0,1,2.178,2.864l-3.95,3.006,3.95,3a1.8,1.8,0,0,1-1.09,3.231Z" transform="translate(-159.4 -73.29)" fill="#585858"/>
  </g>
</svg>
