<svg xmlns="http://www.w3.org/2000/svg" width="49.435" height="56.076" viewBox="0 0 49.435 56.076">
  <g id="Grupo_4012" data-name="Grupo 4012" transform="translate(-1298.892 -1672.937)">
    <path id="Trazado_13791" data-name="Trazado 13791" d="M1334.222,1812.99a1.606,1.606,0,0,1-1.606-1.606v-4.876a15.263,15.263,0,0,0-30.512.047v4.829a1.606,1.606,0,1,1-3.212,0v-4.876a18.474,18.474,0,0,1,36.935-.047v4.923A1.606,1.606,0,0,1,1334.222,1812.99Z" transform="translate(0 -94.87)" fill="#585858"/>
    <circle id="Elipse_441" data-name="Elipse 441" cx="12.317" cy="12.317" r="12.317" transform="translate(1323.187 1702.929)" fill="#fff"/>
    <g id="Grupo_4010" data-name="Grupo 4010" transform="translate(1321.325 1702.011)">
      <path id="Trazado_13792" data-name="Trazado 13792" d="M1437.644,1835.268a13.5,13.5,0,1,0,13.5,13.5A13.517,13.517,0,0,0,1437.644,1835.268Zm0,24a10.5,10.5,0,1,1,10.5-10.5A10.513,10.513,0,0,1,1437.644,1859.27Z" transform="translate(-1424.143 -1835.268)" fill="#fb5959"/>
    </g>
    <path id="Trazado_13793" data-name="Trazado 13793" d="M1359.619,1691.431a9.247,9.247,0,1,1,9.248-9.247A9.258,9.258,0,0,1,1359.619,1691.431Zm0-15.282a6.035,6.035,0,1,0,6.036,6.035A6.042,6.042,0,0,0,1359.619,1676.149Z" transform="translate(-42.259 0)" fill="#585858"/>
    <g id="Grupo_4011" data-name="Grupo 4011" transform="translate(1329.269 1709.956)">
      <path id="Trazado_13794" data-name="Trazado 13794" d="M1479.329,1884.466a1,1,0,0,1-.717,1.719h-3.552v3.53a1.011,1.011,0,0,1-.285.729,1.017,1.017,0,0,1-1.434,0,1.01,1.01,0,0,1-.285-.729v-3.53H1469.5a1,1,0,1,1,0-2h3.552v-3.552a1,1,0,1,1,2,0v3.552h3.552A.974.974,0,0,1,1479.329,1884.466Z" transform="translate(-1468.501 -1879.627)" fill="#fb5959"/>
    </g>
  </g>
</svg>
