<svg xmlns="http://www.w3.org/2000/svg" width="34.818" height="49.52" viewBox="0 0 34.818 49.52">
  <g id="Grupo_3237" data-name="Grupo 3237" transform="translate(-76)">
    <g id="Grupo_3234" data-name="Grupo 3234" transform="translate(76)">
      <g id="Grupo_3233" data-name="Grupo 3233" transform="translate(0)">
        <path id="Trazado_12386" data-name="Trazado 12386" d="M93.409,0A17.412,17.412,0,0,0,78.6,26.564l13.82,22.27a1.451,1.451,0,0,0,1.233.686h.012a1.45,1.45,0,0,0,1.233-.705l13.467-22.486A17.413,17.413,0,0,0,93.409,0Zm12.464,24.839L93.629,45.282,81.065,25.035a14.517,14.517,0,1,1,24.808-.2Z" transform="translate(-76)" fill="#fb5959"/>
      </g>
    </g>
    <g id="Grupo_3236" data-name="Grupo 3236" transform="translate(84.705 8.705)">
      <g id="Grupo_3235" data-name="Grupo 3235">
        <path id="Trazado_12387" data-name="Trazado 12387" d="M174.7,90a8.7,8.7,0,1,0,8.7,8.7A8.714,8.714,0,0,0,174.7,90Zm0,14.527a5.822,5.822,0,1,1,5.813-5.822A5.827,5.827,0,0,1,174.7,104.527Z" transform="translate(-166 -90)" fill="#fb5959"/>
      </g>
    </g>
  </g>
</svg>
