<?xml version="1.0" encoding="utf-8"?>
<!-- Generator: Adobe Illustrator 24.0.0, SVG Export Plug-In . SVG Version: 6.00 Build 0)  -->
<svg version="1.1" id="Capa_1" xmlns="http://www.w3.org/2000/svg" xmlns:xlink="http://www.w3.org/1999/xlink" x="0px" y="0px"
	 viewBox="0 0 73 73" style="enable-background:new 0 0 73 73;" xml:space="preserve">
<style type="text/css">
	.st0{fill:#E0323E;}
	.st1{fill:#FFFFFF;}
</style>
<g id="Grupo_3247" transform="translate(-1201 -4492)">
	<circle id="Elipse_397" class="st0" cx="1237.5" cy="4528.5" r="36.5"/>
</g>
<g>
	<g>
		<g>
			<path class="st1" d="M35.3,21.8l-11,11c-0.3,0.3-0.5,0.7-0.5,1.2c0,0.4,0.2,0.9,0.5,1.2l1,1c0.3,0.3,0.7,0.5,1.2,0.5
				c0.4,0,0.9-0.2,1.2-0.5l6.4-6.4V50c0,0.9,0.7,1.6,1.6,1.6h1.4c0.9,0,1.7-0.7,1.7-1.6V29.6l6.4,6.5c0.3,0.3,0.7,0.5,1.2,0.5
				c0.4,0,0.9-0.2,1.2-0.5l1-1c0.3-0.3,0.5-0.7,0.5-1.2c0-0.4-0.2-0.9-0.5-1.2l-11-11c-0.3-0.3-0.7-0.5-1.2-0.5
				C36.1,21.3,35.6,21.5,35.3,21.8z"/>
		</g>
	</g>
</g>
</svg>
