<svg xmlns="http://www.w3.org/2000/svg" width="33" height="33" viewBox="0 0 33 33">
  <g id="Grupo_3229" data-name="Grupo 3229" transform="translate(-0.144 -0.107)">
    <circle id="Elipse_310" data-name="Elipse 310" cx="16.5" cy="16.5" r="16.5" transform="translate(0.144 0.107)" fill="#868686"/>
    <path id="instagram" d="M10.945,0H3.368A3.378,3.378,0,0,0,0,3.368v7.578a3.378,3.378,0,0,0,3.368,3.368h7.578a3.378,3.378,0,0,0,3.368-3.368V3.368A3.378,3.378,0,0,0,10.945,0Zm2.526,10.945a2.529,2.529,0,0,1-2.526,2.526H3.368A2.529,2.529,0,0,1,.842,10.945V5.894h2.7a3.95,3.95,0,0,0-.385,1.684,4,4,0,1,0,8,0,3.95,3.95,0,0,0-.385-1.684h2.7ZM10.314,7.578A3.157,3.157,0,1,1,7.157,4.42,3.161,3.161,0,0,1,10.314,7.578Zm-.083-2.526a3.945,3.945,0,0,0-6.15,0H.842V3.368A2.529,2.529,0,0,1,3.368.842h7.578a2.529,2.529,0,0,1,2.526,2.526V5.052Zm1.938-2.76V3.385a.458.458,0,0,1-.456.457H10.561a.459.459,0,0,1-.458-.457V2.292a.458.458,0,0,1,.458-.457h1.152a.458.458,0,0,1,.456.457Z" transform="translate(9.486 10.26)" fill="#fff"/>
  </g>
</svg>
