<svg xmlns="http://www.w3.org/2000/svg" width="106.24" height="104.751" viewBox="0 0 106.24 104.751">
  <g id="Grupo_3278" data-name="Grupo 3278" transform="translate(-3196.216 -193.136)">
    <g id="Grupo_3265" data-name="Grupo 3265" transform="translate(3240.522 205.768)">
      <path id="Trazado_12436" data-name="Trazado 12436" d="M3377.835,243.172a1.442,1.442,0,0,1-1.442-1.442V239.2a1.442,1.442,0,0,1,2.885,0v2.527A1.442,1.442,0,0,1,3377.835,243.172Z" transform="translate(-3369.695 -237.761)" fill="#585858"/>
      <path id="Trazado_12437" data-name="Trazado 12437" d="M3360.871,274.568a7.935,7.935,0,0,1-8.14-7.691,1.442,1.442,0,1,1,2.884,0,5.277,5.277,0,1,0,5.256-4.807,7.7,7.7,0,1,1,8.141-7.692,1.442,1.442,0,0,1-2.884,0,5.277,5.277,0,1,0-5.256,4.807,7.7,7.7,0,1,1,0,15.383Z" transform="translate(-3352.731 -244.161)" fill="#585858"/>
      <path id="Trazado_12438" data-name="Trazado 12438" d="M3377.835,277.434a1.442,1.442,0,0,1-1.442-1.442V248.13a1.442,1.442,0,0,1,2.885,0v27.862A1.442,1.442,0,0,1,3377.835,277.434Z" transform="translate(-3369.695 -244.161)" fill="#585858"/>
    </g>
    <path id="Trazado_12439" data-name="Trazado 12439" d="M3307.361,199.81a22.6,22.6,0,1,1-22.6,22.6,22.621,22.621,0,0,1,22.6-22.6m0-6.674A29.269,29.269,0,1,0,3336.63,222.4a29.269,29.269,0,0,0-29.269-29.269Z" transform="translate(-58.698 0)" fill="#fb5959"/>
    <g id="Grupo_3267" data-name="Grupo 3267" transform="translate(3210.649 246.7)">
      <g id="Grupo_3266" data-name="Grupo 3266" transform="translate(0 0)">
        <path id="Trazado_12440" data-name="Trazado 12440" d="M3278.123,422.925a1.524,1.524,0,0,1-1.523-1.523V405.784l-18.743-18.743a3.892,3.892,0,0,0-5.505,0l-.465.465a3.9,3.9,0,0,0,0,5.505l12.419,12.419a1.523,1.523,0,1,1-2.154,2.155l-12.419-12.419a6.947,6.947,0,0,1,0-9.814l.465-.465a6.94,6.94,0,0,1,9.814,0l19.189,19.189a1.524,1.524,0,0,1,.446,1.077V421.4A1.523,1.523,0,0,1,3278.123,422.925Z" transform="translate(-3247.561 -382.712)" fill="#585858"/>
        <path id="Trazado_12441" data-name="Trazado 12441" d="M3277.765,422.708a1.667,1.667,0,0,1-1.665-1.665V405.484l-18.7-18.7a3.752,3.752,0,0,0-5.305,0l-.465.465a3.756,3.756,0,0,0,0,5.305l12.419,12.419a1.665,1.665,0,1,1-2.354,2.354l-12.419-12.419a7.088,7.088,0,0,1,0-10.014l.464-.465a7.081,7.081,0,0,1,10.014,0l19.189,19.19a1.652,1.652,0,0,1,.488,1.177v16.249A1.667,1.667,0,0,1,3277.765,422.708Zm-23.02-37.308a4.008,4.008,0,0,1,2.853,1.182l18.785,18.785v15.677a1.382,1.382,0,0,0,2.764,0V404.795a1.372,1.372,0,0,0-.4-.977l-19.189-19.189a6.8,6.8,0,0,0-9.614,0l-.464.465a6.8,6.8,0,0,0,0,9.614l12.419,12.419a1.382,1.382,0,1,0,1.954-1.954l-12.419-12.419a4.039,4.039,0,0,1,0-5.706l.465-.465A4.006,4.006,0,0,1,3254.745,385.4Z" transform="translate(-3247.203 -382.354)" fill="#585858"/>
      </g>
    </g>
    <g id="Grupo_3269" data-name="Grupo 3269" transform="translate(3196.216 213.312)">
      <g id="Grupo_3268" data-name="Grupo 3268" transform="translate(0 0)">
        <path id="Trazado_12442" data-name="Trazado 12442" d="M3219.9,338.369a1.523,1.523,0,0,1-1.523-1.523v-2.077L3204.313,320.7a25.769,25.769,0,0,1-7.6-18.342V271.85a6.939,6.939,0,1,1,13.879,0v24.373a1.523,1.523,0,1,1-3.046,0V271.85a3.893,3.893,0,1,0-7.786,0v30.509a22.742,22.742,0,0,0,6.705,16.188l14.514,14.514a1.523,1.523,0,0,1,.446,1.077v2.708A1.523,1.523,0,0,1,3219.9,338.369Z" transform="translate(-3196.575 -264.768)" fill="#585858"/>
        <path id="Trazado_12443" data-name="Trazado 12443" d="M3219.546,338.152a1.667,1.667,0,0,1-1.665-1.665v-2.019l-14.027-14.027A25.909,25.909,0,0,1,3196.216,302V271.491a7.081,7.081,0,1,1,14.162,0v24.373a1.665,1.665,0,0,1-3.33,0V271.491a3.751,3.751,0,1,0-7.5,0V302a22.6,22.6,0,0,0,6.663,16.087l14.514,14.514a1.654,1.654,0,0,1,.488,1.177v2.708A1.666,1.666,0,0,1,3219.546,338.152ZM3203.3,264.693a6.806,6.806,0,0,0-6.8,6.8V302a25.628,25.628,0,0,0,7.555,18.241l14.11,14.109v2.136a1.382,1.382,0,0,0,2.764,0v-2.708a1.371,1.371,0,0,0-.405-.977l-14.514-14.514A22.881,22.881,0,0,1,3199.263,302V271.491a4.034,4.034,0,1,1,8.069,0v24.373a1.382,1.382,0,1,0,2.763,0V271.491A6.806,6.806,0,0,0,3203.3,264.693Z" transform="translate(-3196.216 -264.41)" fill="#585858"/>
      </g>
    </g>
    <g id="Grupo_3271" data-name="Grupo 3271" transform="translate(3255.796 246.7)">
      <g id="Grupo_3270" data-name="Grupo 3270" transform="translate(0 0)">
        <path id="Trazado_12444" data-name="Trazado 12444" d="M3408.709,422.925a1.523,1.523,0,0,1-1.523-1.523V405.153a1.525,1.525,0,0,1,.446-1.077l19.19-19.189a6.94,6.94,0,0,1,9.814,0l.465.465a6.947,6.947,0,0,1,0,9.814l-12.419,12.419a1.523,1.523,0,0,1-2.154-2.155l12.419-12.419a3.9,3.9,0,0,0,0-5.506l-.465-.465a3.893,3.893,0,0,0-5.505,0l-18.743,18.743V421.4A1.523,1.523,0,0,1,3408.709,422.925Z" transform="translate(-3407.044 -382.712)" fill="#585858"/>
        <path id="Trazado_12445" data-name="Trazado 12445" d="M3408.351,422.708a1.666,1.666,0,0,1-1.665-1.665V404.795a1.655,1.655,0,0,1,.487-1.177l19.19-19.19a7.081,7.081,0,0,1,10.014,0l.465.465a7.089,7.089,0,0,1,0,10.014l-12.419,12.419a1.665,1.665,0,0,1-2.354-2.354l12.419-12.419a3.757,3.757,0,0,0,0-5.305l-.465-.465a3.752,3.752,0,0,0-5.305,0l-18.7,18.7v15.559A1.667,1.667,0,0,1,3408.351,422.708Zm23.02-40.071a6.754,6.754,0,0,0-4.807,1.991l-19.189,19.189a1.372,1.372,0,0,0-.4.977v16.249a1.382,1.382,0,0,0,2.763,0V405.367l18.785-18.785a4.035,4.035,0,0,1,5.706,0l.465.465a4.04,4.04,0,0,1,0,5.706l-12.419,12.419a1.382,1.382,0,1,0,1.954,1.954l12.419-12.419a6.806,6.806,0,0,0,0-9.614l-.465-.465A6.753,6.753,0,0,0,3431.37,382.637Z" transform="translate(-3406.686 -382.354)" fill="#585858"/>
      </g>
    </g>
    <g id="Grupo_3273" data-name="Grupo 3273" transform="translate(3277.461 213.312)">
      <g id="Grupo_3272" data-name="Grupo 3272" transform="translate(0 0)">
        <path id="Trazado_12446" data-name="Trazado 12446" d="M3485.243,338.369a1.523,1.523,0,0,1-1.523-1.523v-2.708a1.521,1.521,0,0,1,.446-1.077l14.514-14.514a22.744,22.744,0,0,0,6.7-16.188V271.85a3.893,3.893,0,1,0-7.786,0v24.373a1.523,1.523,0,1,1-3.046,0V271.85a6.939,6.939,0,1,1,13.879,0v30.509a25.771,25.771,0,0,1-7.6,18.342l-14.068,14.068v2.077A1.523,1.523,0,0,1,3485.243,338.369Z" transform="translate(-3483.578 -264.768)" fill="#585858"/>
        <path id="Trazado_12447" data-name="Trazado 12447" d="M3484.885,338.152a1.667,1.667,0,0,1-1.665-1.665v-2.708a1.653,1.653,0,0,1,.488-1.177l14.514-14.514A22.6,22.6,0,0,0,3504.885,302V271.491a3.751,3.751,0,1,0-7.5,0v24.373a1.665,1.665,0,0,1-3.33,0V271.491a7.081,7.081,0,0,1,14.163,0V302a25.909,25.909,0,0,1-7.639,18.441l-14.027,14.027v2.019A1.666,1.666,0,0,1,3484.885,338.152Zm16.249-70.7a4.039,4.039,0,0,1,4.034,4.035V302a22.885,22.885,0,0,1-6.746,16.287L3483.908,332.8a1.373,1.373,0,0,0-.4.977v2.708a1.381,1.381,0,1,0,2.763,0v-2.136l14.11-14.109A25.628,25.628,0,0,0,3507.932,302V271.491a6.8,6.8,0,0,0-13.6,0v24.373a1.382,1.382,0,0,0,2.764,0V271.491A4.039,4.039,0,0,1,3501.134,267.457Z" transform="translate(-3483.22 -264.41)" fill="#585858"/>
      </g>
    </g>
    <g id="Grupo_3275" data-name="Grupo 3275" transform="translate(3215.173 289.141)">
      <g id="Grupo_3274" data-name="Grupo 3274" transform="translate(0 0)">
        <path id="Trazado_12448" data-name="Trazado 12448" d="M3292.288,541.244a1.523,1.523,0,0,1-1.523-1.523v-3.893H3266.73v3.893a1.523,1.523,0,0,1-3.047,0V534.3a1.524,1.524,0,0,1,1.523-1.523h27.082a1.523,1.523,0,0,1,1.523,1.523v5.416A1.523,1.523,0,0,1,3292.288,541.244Z" transform="translate(-3263.542 -532.639)" fill="#585858"/>
        <path id="Trazado_12449" data-name="Trazado 12449" d="M3291.93,541.027a1.666,1.666,0,0,1-1.664-1.665v-3.751h-23.752v3.751a1.665,1.665,0,1,1-3.329,0v-5.416a1.666,1.666,0,0,1,1.665-1.665h27.081a1.666,1.666,0,0,1,1.665,1.665v5.416A1.666,1.666,0,0,1,3291.93,541.027Zm-25.7-5.7h24.318v4.034a1.382,1.382,0,1,0,2.763,0v-5.416a1.383,1.383,0,0,0-1.382-1.382h-27.081a1.383,1.383,0,0,0-1.381,1.382v5.416a1.382,1.382,0,1,0,2.763,0Z" transform="translate(-3263.184 -532.281)" fill="#585858"/>
      </g>
    </g>
    <g id="Grupo_3277" data-name="Grupo 3277" transform="translate(3253.088 289.141)">
      <g id="Grupo_3276" data-name="Grupo 3276" transform="translate(0 0)">
        <path id="Trazado_12450" data-name="Trazado 12450" d="M3426.224,541.244a1.523,1.523,0,0,1-1.523-1.523v-3.893h-24.035v3.893a1.523,1.523,0,1,1-3.046,0V534.3a1.523,1.523,0,0,1,1.523-1.523h27.082a1.523,1.523,0,0,1,1.523,1.523v5.416A1.523,1.523,0,0,1,3426.224,541.244Z" transform="translate(-3397.478 -532.639)" fill="#585858"/>
        <path id="Trazado_12451" data-name="Trazado 12451" d="M3425.865,541.027a1.666,1.666,0,0,1-1.665-1.665v-3.751h-23.752v3.751a1.665,1.665,0,1,1-3.329,0v-5.416a1.667,1.667,0,0,1,1.665-1.665h27.082a1.667,1.667,0,0,1,1.665,1.665v5.416A1.667,1.667,0,0,1,3425.865,541.027Zm-25.7-5.7h24.318v4.034a1.382,1.382,0,0,0,2.764,0v-5.416a1.384,1.384,0,0,0-1.382-1.382h-27.082a1.383,1.383,0,0,0-1.382,1.382v5.416a1.382,1.382,0,1,0,2.763,0Z" transform="translate(-3397.119 -532.281)" fill="#585858"/>
      </g>
    </g>
  </g>
</svg>
