<svg xmlns="http://www.w3.org/2000/svg" width="140.233" height="104.607" viewBox="0 0 140.233 104.607">
  <g id="Grupo_3844" data-name="Grupo 3844" transform="translate(-3156.567 -183.403)">
    <path id="Trazado_12864" data-name="Trazado 12864" d="M3290.15,288.01h-38.11a10.724,10.724,0,0,1-10.712-10.712V194.115A10.724,10.724,0,0,1,3252.04,183.4h38.11a10.723,10.723,0,0,1,10.711,10.712V200.3a1.917,1.917,0,0,1-3.834,0v-6.183a6.885,6.885,0,0,0-6.877-6.878h-38.11a6.886,6.886,0,0,0-6.877,6.878V277.3a6.885,6.885,0,0,0,6.877,6.878h38.11a6.885,6.885,0,0,0,6.877-6.878v-7.559a1.917,1.917,0,0,1,3.834,0V277.3A10.724,10.724,0,0,1,3290.15,288.01Z" transform="translate(-64.122)" fill="#585858"/>
    <g id="Grupo_3838" data-name="Grupo 3838" transform="translate(3158.153 217.045)">
      <circle id="Elipse_415" data-name="Elipse 415" cx="19.114" cy="19.114" r="19.114" fill="#fff"/>
      <g id="Grupo_3837" data-name="Grupo 3837" transform="translate(10.531 13.04)">
        <g id="Grupo_3836" data-name="Grupo 3836">
          <path id="Trazado_12865" data-name="Trazado 12865" d="M3222.818,375.671a1.894,1.894,0,0,0-2.678,0l-8.13,8.13-2.448-2.448a1.894,1.894,0,1,0-2.679,2.678l3.788,3.788a1.894,1.894,0,0,0,2.679,0l9.469-9.469A1.894,1.894,0,0,0,3222.818,375.671Z" transform="translate(-3206.328 -375.116)" fill="#585858"/>
        </g>
      </g>
    </g>
    <g id="Grupo_3842" data-name="Grupo 3842" transform="translate(3203.341 227.064)">
      <g id="Grupo_3839" data-name="Grupo 3839" transform="translate(4.57)">
        <path id="Trazado_12866" data-name="Trazado 12866" d="M3369.91,367.9a.984.984,0,0,1-.984-.984v-1.724a.984.984,0,0,1,1.968,0v1.724A.984.984,0,0,1,3369.91,367.9Z" transform="translate(-3368.561 -363.844)" fill="#585858"/>
        <path id="Trazado_12867" data-name="Trazado 12867" d="M3368.775,367.131a1.351,1.351,0,0,1-1.349-1.349v-1.724a1.349,1.349,0,0,1,2.7,0v1.724A1.351,1.351,0,0,1,3368.775,367.131Zm0-3.692a.619.619,0,0,0-.619.618v1.724a.619.619,0,1,0,1.237,0v-1.724A.619.619,0,0,0,3368.775,363.44Z" transform="translate(-3367.426 -362.709)" fill="#585858"/>
      </g>
      <g id="Grupo_3840" data-name="Grupo 3840" transform="translate(0 1.724)">
        <path id="Trazado_12868" data-name="Trazado 12868" d="M3355.713,390.31a5.414,5.414,0,0,1-5.554-5.247.984.984,0,1,1,1.968,0,3.6,3.6,0,1,0,3.586-3.28,5.255,5.255,0,1,1,5.553-5.247.984.984,0,0,1-1.968,0,3.6,3.6,0,1,0-3.586,3.28,5.256,5.256,0,1,1,0,10.495Z" transform="translate(-3349.794 -370.924)" fill="#585858"/>
        <path id="Trazado_12869" data-name="Trazado 12869" d="M3354.578,389.541a5.778,5.778,0,0,1-5.919-5.613,1.349,1.349,0,1,1,2.7,0,3.237,3.237,0,1,0,3.221-2.914,5.62,5.62,0,1,1,5.919-5.613,1.349,1.349,0,0,1-2.7,0,3.237,3.237,0,1,0-3.22,2.914,5.621,5.621,0,1,1,0,11.225Zm-4.57-6.231a.619.619,0,0,0-.618.619,5.2,5.2,0,1,0,5.188-4.882,3.656,3.656,0,1,1,3.951-3.645.619.619,0,0,0,1.237,0,5.2,5.2,0,1,0-5.188,4.882,3.657,3.657,0,1,1-3.951,3.645A.619.619,0,0,0,3350.008,383.309Z" transform="translate(-3348.659 -369.789)" fill="#585858"/>
      </g>
      <g id="Grupo_3841" data-name="Grupo 3841" transform="translate(4.57 1.724)">
        <path id="Trazado_12870" data-name="Trazado 12870" d="M3369.91,392.265a.984.984,0,0,1-.984-.984V372.273a.984.984,0,1,1,1.968,0v19.009A.984.984,0,0,1,3369.91,392.265Z" transform="translate(-3368.561 -370.924)" fill="#585858"/>
        <path id="Trazado_12871" data-name="Trazado 12871" d="M3368.775,391.5a1.351,1.351,0,0,1-1.349-1.349V371.138a1.349,1.349,0,0,1,2.7,0v19.009A1.351,1.351,0,0,1,3368.775,391.5Zm0-20.976a.619.619,0,0,0-.619.618v19.009a.619.619,0,1,0,1.237,0V371.138A.619.619,0,0,0,3368.775,370.52Z" transform="translate(-3367.426 -369.789)" fill="#585858"/>
      </g>
    </g>
    <g id="Grupo_3843" data-name="Grupo 3843" transform="translate(3156.567 215.46)">
      <path id="Trazado_12872" data-name="Trazado 12872" d="M3179.159,322.135a15.51,15.51,0,1,1-15.51,15.51,15.527,15.527,0,0,1,15.51-15.51m0-4.581a20.091,20.091,0,1,0,20.091,20.091,20.091,20.091,0,0,0-20.091-20.091Z" transform="translate(-3158.459 -316.945)" fill="#fb5959"/>
      <path id="Trazado_12873" data-name="Trazado 12873" d="M3177.267,356.453a20.7,20.7,0,1,1,20.7-20.7A20.723,20.723,0,0,1,3177.267,356.453Zm0-40.181a19.482,19.482,0,1,0,19.482,19.482A19.5,19.5,0,0,0,3177.267,316.271Zm0,35.6a16.118,16.118,0,1,1,16.119-16.119A16.137,16.137,0,0,1,3177.267,351.872Zm0-31.019a14.9,14.9,0,1,0,14.9,14.9A14.918,14.918,0,0,0,3177.267,320.852Z" transform="translate(-3156.567 -315.054)" fill="#fb5959"/>
    </g>
    <path id="Trazado_12874" data-name="Trazado 12874" d="M3322.839,196.581H3298.47a4.854,4.854,0,0,1-4.849-4.848V185.32a1.917,1.917,0,0,1,1.917-1.917h30.232a1.917,1.917,0,0,1,1.917,1.917v6.413A4.854,4.854,0,0,1,3322.839,196.581Zm-25.383-9.344v4.5a1.015,1.015,0,0,0,1.014,1.014h24.369a1.016,1.016,0,0,0,1.015-1.014v-4.5Z" transform="translate(-103.682)" fill="#585858"/>
    <path id="Trazado_12875" data-name="Trazado 12875" d="M3322.1,570.987h-33.713a1.917,1.917,0,1,1,0-3.834H3322.1a1.917,1.917,0,1,1,0,3.834Z" transform="translate(-98.275 -290.308)" fill="#585858"/>
    <path id="Trazado_12876" data-name="Trazado 12876" d="M3425.1,372.888h-14.738a1.917,1.917,0,1,1,0-3.834h13.532a17.121,17.121,0,0,1,6.449-6.756V347.013a17.128,17.128,0,0,1-6.448-6.756h-13.533a1.917,1.917,0,0,1,0-3.834H3425.1a1.918,1.918,0,0,1,1.759,1.155,13.27,13.27,0,0,0,6.257,6.579,1.92,1.92,0,0,1,1.062,1.716v17.564a1.917,1.917,0,0,1-1.063,1.716,13.265,13.265,0,0,0-6.256,6.58A1.917,1.917,0,0,1,3425.1,372.888Z" transform="translate(-190.546 -115.76)" fill="#585858"/>
    <path id="Trazado_12877" data-name="Trazado 12877" d="M3346.241,360.2h-58.5a1.917,1.917,0,0,1,0-3.834h56.578V315.531H3288.4a1.917,1.917,0,0,1,0-3.834h57.843a1.917,1.917,0,0,1,1.917,1.917v44.671A1.917,1.917,0,0,1,3346.241,360.2Z" transform="translate(-97.787 -97.055)" fill="#585858"/>
    <path id="Trazado_12878" data-name="Trazado 12878" d="M3381.136,280.139h-90.714a1.917,1.917,0,1,1,0-3.834h90.714a1.917,1.917,0,0,1,0,3.834Z" transform="translate(-99.811 -70.281)" fill="#585858"/>
    <path id="Trazado_12879" data-name="Trazado 12879" d="M3625.863,407.258H3596a1.917,1.917,0,0,1,0-3.834h29.865a1.917,1.917,0,0,1,0,3.834Z" transform="translate(-330.979 -166.446)" fill="#585858"/>
    <path id="Trazado_12880" data-name="Trazado 12880" d="M3600.889,346.851h-28.216a1.917,1.917,0,1,1,0-3.834h28.216a1.917,1.917,0,0,1,0,3.834Z" transform="translate(-313.335 -120.748)" fill="#585858"/>
    <path id="Trazado_12881" data-name="Trazado 12881" d="M3600.889,467.672h-28.216a1.917,1.917,0,1,1,0-3.834h28.216a1.917,1.917,0,0,1,0,3.834Z" transform="translate(-313.335 -212.15)" fill="#585858"/>
  </g>
</svg>
