<svg id="contact" xmlns="http://www.w3.org/2000/svg" width="50.951" height="37.055" viewBox="0 0 50.951 37.055">
  <g id="Grupo_23" data-name="Grupo 23" transform="translate(0 0)">
    <g id="Grupo_22" data-name="Grupo 22">
      <path id="Trazado_1" data-name="Trazado 1" d="M49.793,6H1.158A1.157,1.157,0,0,0,0,7.158V41.9a1.157,1.157,0,0,0,1.158,1.158H49.793A1.158,1.158,0,0,0,50.951,41.9V7.158A1.158,1.158,0,0,0,49.793,6ZM48.635,37.938,34.29,23.594l-1.637,1.637L48.16,40.739H2.791L18.3,25.232l-1.637-1.637L2.316,37.938V8.316H48.635Z" transform="translate(0 -6)" fill="#fb5959"/>
    </g>
  </g>
  <g id="Grupo_25" data-name="Grupo 25" transform="translate(2.123 2.123)">
    <g id="Grupo_24" data-name="Grupo 24">
      <path id="Trazado_2" data-name="Trazado 2" d="M46.345,8,25.353,27.084,4.36,8H2v.857L24.527,29.336a1.25,1.25,0,0,0,1.651,0L48.705,8.857V8Z" transform="translate(-2 -8)" fill="#fb5959"/>
    </g>
  </g>
</svg>
