<svg xmlns="http://www.w3.org/2000/svg" width="271.071" height="234.5" viewBox="0 0 271.071 234.5">
  <g id="Grupo_3597" data-name="Grupo 3597" transform="translate(-1961.952 -104.152)">
    <g id="Background_Complete" data-name="Background Complete" transform="translate(1961.952 104.152)">
      <ellipse id="Elipse_407" data-name="Elipse 407" cx="129.598" cy="21.043" rx="129.598" ry="21.043" transform="translate(0 192.414)" fill="#e0e0e0"/>
      <g id="Grupo_3526" data-name="Grupo 3526" transform="translate(164.697)">
        <g id="Grupo_3523" data-name="Grupo 3523">
          <path id="Trazado_12628" data-name="Trazado 12628" d="M2200.46,131.134a23.286,23.286,0,1,1-19.247-26.675A23.26,23.26,0,0,1,2200.46,131.134Z" transform="translate(-2154.189 -104.152)" fill="#ebebeb"/>
          <path id="Trazado_12629" data-name="Trazado 12629" d="M2195.918,131.168a17.745,17.745,0,1,1-14.667-20.328A17.726,17.726,0,0,1,2195.918,131.168Z" transform="translate(-2155.116 -105.077)" fill="#f5f5f5"/>
          <g id="Grupo_3522" data-name="Grupo 3522" transform="translate(5.643 4.86)">
            <path id="Trazado_12630" data-name="Trazado 12630" d="M2196.021,130.507a10.464,10.464,0,0,1-.12-2.182,18.831,18.831,0,0,0-1.145-5.7,18.185,18.185,0,0,0-1.8-3.56,17.8,17.8,0,0,0-2.976-3.454,16.4,16.4,0,0,0-1.947-1.511,16.574,16.574,0,0,0-2.234-1.265,17.251,17.251,0,0,0-2.485-.947,17.294,17.294,0,0,0-5.415-.709,17.3,17.3,0,0,0-2.645.275,17.4,17.4,0,0,0-4.757,1.607,17.793,17.793,0,0,0-3.764,2.572,18.211,18.211,0,0,0-2.655,2.977,18.841,18.841,0,0,0-2.571,5.21,10.374,10.374,0,0,1-.677,2.077,5.21,5.21,0,0,1,.164-2.209,16.417,16.417,0,0,1,2.284-5.612,17.784,17.784,0,0,1,6.637-6.122,17.146,17.146,0,0,1,2.421-1.074,17.382,17.382,0,0,1,2.669-.732,18.025,18.025,0,0,1,2.853-.318,18.165,18.165,0,0,1,5.839.764,18.173,18.173,0,0,1,2.674,1.042,18.1,18.1,0,0,1,4.454,3.055,17.782,17.782,0,0,1,4.839,7.624,16.426,16.426,0,0,1,.765,6.012A5.215,5.215,0,0,1,2196.021,130.507Z" transform="translate(-2160.776 -109.825)" fill="#e0e0e0"/>
          </g>
        </g>
        <g id="Grupo_3525" data-name="Grupo 3525" transform="translate(14.351 10.997)">
          <g id="Grupo_3524" data-name="Grupo 3524">
            <path id="Trazado_12631" data-name="Trazado 12631" d="M2180.156,140l-.452,3.059-2.73-.405.441-2.975a13.081,13.081,0,0,1-6.475-3.191l1.995-3.108a11.158,11.158,0,0,0,5.009,2.724l.675-4.56c-2.921-1.185-6.157-2.7-5.578-6.6.428-2.894,2.9-5.067,7.285-4.919l.449-3.031,2.73.4-.441,2.977a12.477,12.477,0,0,1,5.295,2.485l-1.862,3.156a11.312,11.312,0,0,0-3.968-2.039l-.687,4.642c2.925,1.158,6.106,2.663,5.535,6.511C2186.958,137.964,2184.519,140.114,2180.156,140Zm-.942-12.472.573-3.876c-1.5.113-2.186.82-2.319,1.721C2177.327,126.326,2178.069,126.967,2179.214,127.526Zm3.721,7.276c.142-.956-.573-1.592-1.687-2.176l-.558,3.768C2182.1,136.3,2182.806,135.675,2182.935,134.8Z" transform="translate(-2170.94 -116.988)" fill="#e0e0e0"/>
          </g>
        </g>
      </g>
      <g id="Grupo_3580" data-name="Grupo 3580" transform="translate(23.623 22.457)">
        <g id="Grupo_3544" data-name="Grupo 3544" transform="translate(0 83.056)">
          <path id="Trazado_12632" data-name="Trazado 12632" d="M2040.669,286.3l-23.185-23.285,11.657-21.41c11.657-14.921,36.331-13.96,36.331-13.96a141.407,141.407,0,0,1,36.391,2.2c19.6,3.813,18.02,16.784,18.02,16.784l2.626,48.045,2.814,39.12-72.288,1.457L2040.669,286.3" transform="translate(-1993.531 -227.309)" fill="#e8505b"/>
          <path id="Trazado_12633" data-name="Trazado 12633" d="M2075.6,337.2l-64.747.793a21.047,21.047,0,0,1-19.282-30.049l27.684-51.343,25.217,17.047-17.2,35.7,52.415.935Z" transform="translate(-1989.526 -231.505)" fill="#e8505b"/>
          <path id="Trazado_12634" data-name="Trazado 12634" d="M2134.3,240.76l51.959,80.22-30.313,1.982s-18.1-28.527-17.693-27.937C2139,296.094,2134.3,240.76,2134.3,240.76Z" transform="translate(-2010.267 -229.236)" fill="#e8505b"/>
          <path id="Trazado_12635" data-name="Trazado 12635" d="M2042.147,300.194" transform="translate(-1997.064 -237.751)" fill="#e8505b"/>
          <g id="Grupo_3527" data-name="Grupo 3527" transform="translate(45.099 9.881)">
            <path id="Trazado_12636" data-name="Trazado 12636" d="M2050.718,275.71a1.664,1.664,0,0,1,.072-.412l.276-1.163c.24-1.008.589-2.467.955-4.284s.751-3.987,1.016-6.418a33.872,33.872,0,0,0,.028-7.912,20.841,20.841,0,0,0-2.682-7.384,29.716,29.716,0,0,0-3.857-5.192,36.654,36.654,0,0,0-3.146-3.043c-.785-.674-1.234-1.032-1.214-1.059a1.634,1.634,0,0,1,.354.224c.219.162.558.385.959.715a30.554,30.554,0,0,1,3.253,2.969,28.652,28.652,0,0,1,3.968,5.2,20.777,20.777,0,0,1,2.76,7.515,33.123,33.123,0,0,1-.057,8.008,64.871,64.871,0,0,1-1.107,6.437c-.4,1.815-.794,3.266-1.081,4.264-.143.5-.262.885-.348,1.145A1.708,1.708,0,0,1,2050.718,275.71Z" transform="translate(-2042.165 -238.843)" fill="#263238"/>
          </g>
          <g id="Grupo_3528" data-name="Grupo 3528" transform="translate(37.661 49.515)">
            <path id="Trazado_12637" data-name="Trazado 12637" d="M2047.391,285.1a7.38,7.38,0,0,1-.446,1.16c-.31.737-.775,1.8-1.362,3.1-1.173,2.605-2.843,6.183-4.764,10.1s-3.729,7.425-5.073,9.948c-.672,1.261-1.224,2.276-1.617,2.972a7.434,7.434,0,0,1-.645,1.062,7.41,7.41,0,0,1,.507-1.134l1.5-3.03,4.965-9.993,4.866-10.04,1.477-3.044A7.32,7.32,0,0,1,2047.391,285.1Z" transform="translate(-2033.483 -285.105)" fill="#263238"/>
          </g>
          <g id="Grupo_3529" data-name="Grupo 3529" transform="translate(22.967 77.499)">
            <path id="Trazado_12638" data-name="Trazado 12638" d="M2079.445,345.96a.469.469,0,0,1,0-.135l.031-.395q.057-.558.154-1.53c.15-1.364.364-3.311.634-5.761.573-4.962,1.38-11.955,2.332-20.192l.182.2-19.126.017-33.461-.058-10.14-.063-2.757-.038-.717-.02a.123.123,0,1,1,0-.041l.717-.02,2.757-.038,10.14-.063,33.461-.059,19.126.017h.207l-.025.2c-1.01,8.231-1.868,15.217-2.477,20.176-.313,2.444-.562,4.387-.737,5.748q-.134.969-.21,1.523l-.062.392A.444.444,0,0,1,2079.445,345.96Z" transform="translate(-2016.333 -317.768)" fill="#263238"/>
          </g>
          <g id="Grupo_3530" data-name="Grupo 3530" transform="translate(27.565 69.396)">
            <path id="Trazado_12639" data-name="Trazado 12639" d="M2032.341,317.3a18.567,18.567,0,0,1-1.292-1.618,25.228,25.228,0,0,0-7.538-6.366,18.363,18.363,0,0,1-1.811-1,7.537,7.537,0,0,1,1.942.751,20.754,20.754,0,0,1,7.632,6.445A7.558,7.558,0,0,1,2032.341,317.3Z" transform="translate(-2021.699 -308.309)" fill="#263238"/>
          </g>
          <g id="Grupo_3531" data-name="Grupo 3531" transform="translate(126.008 17.618)">
            <path id="Trazado_12640" data-name="Trazado 12640" d="M2140.647,313.722a4.251,4.251,0,0,1-.1-.663q-.081-.708-.217-1.911c-.177-1.66-.415-4.064-.672-7.039-.525-5.948-1.131-14.176-1.67-23.27s-.914-17.338-1.13-23.305c-.111-2.983-.182-5.4-.219-7.067l-.033-1.923a4.257,4.257,0,0,1,.016-.671,4.127,4.127,0,0,1,.064.668q.04.711.107,1.919c.084,1.706.2,4.108.346,7.061.288,5.963.708,14.2,1.247,23.294s1.1,17.318,1.553,23.27c.228,2.947.413,5.346.545,7.048q.089,1.207.141,1.917A4.122,4.122,0,0,1,2140.647,313.722Z" transform="translate(-2136.604 -247.873)" fill="#263238"/>
          </g>
          <g id="Grupo_3532" data-name="Grupo 3532" transform="translate(63.933 19.003)">
            <path id="Trazado_12641" data-name="Trazado 12641" d="M2072.47,270.3a6.474,6.474,0,0,1,.082-1.049c.089-.733.207-1.707.351-2.9.337-2.535.8-6.007,1.333-10.027l.3.182-4.968,3.478-5.054,3.515-.364.254.067-.437c.61-3.986,1.136-7.426,1.52-9.937.2-1.182.355-2.144.474-2.867a.523.523,0,1,1,.126.019c-.092.727-.214,1.693-.364,2.882-.349,2.516-.826,5.964-1.378,9.958l-.3-.183,5.043-3.531,4.979-3.463.361-.251-.063.434c-.591,4.011-1.1,7.477-1.474,10.007-.19,1.192-.344,2.161-.461,2.889A6.5,6.5,0,0,1,2072.47,270.3Z" transform="translate(-2064.149 -249.49)" fill="#e0e0e0"/>
          </g>
          <g id="Grupo_3533" data-name="Grupo 3533" transform="translate(81.276 32.053)">
            <path id="Trazado_12642" data-name="Trazado 12642" d="M2104.266,275.6a6.5,6.5,0,0,1-.754-.734l-2.009-2.126-6.859-7.435.331-.112c-.156,1.883-.325,3.925-.5,6.044-.185,2.153-.363,4.225-.528,6.133l-.038.442-.293-.331-6.671-7.521-1.9-2.2a6.509,6.509,0,0,1-.65-.818,6.412,6.412,0,0,1,.745.733c.5.535,1.165,1.247,1.983,2.122l6.777,7.426-.331.111c.157-1.909.329-3.982.507-6.135.182-2.12.358-4.16.519-6.043l.038-.44.294.327,6.754,7.531,1.927,2.2A6.516,6.516,0,0,1,2104.266,275.6Z" transform="translate(-2084.392 -264.722)" fill="#e0e0e0"/>
          </g>
          <g id="Grupo_3534" data-name="Grupo 3534" transform="translate(107.58 41.902)">
            <path id="Trazado_12643" data-name="Trazado 12643" d="M2123.21,276.219a6.513,6.513,0,0,1-.521.914l-1.555,2.478-5.477,8.5-.191-.292,5.976-1.031,6.07-1.028.438-.074-.247.367-5.608,8.344-1.649,2.391a6.433,6.433,0,0,1-.629.834,6.4,6.4,0,0,1,.523-.9l1.557-2.452,5.489-8.423.191.292-6.066,1.047-5.979,1.013-.435.074.243-.366,5.6-8.426,1.648-2.418A6.6,6.6,0,0,1,2123.21,276.219Z" transform="translate(-2115.095 -276.219)" fill="#e0e0e0"/>
          </g>
          <g id="Grupo_3535" data-name="Grupo 3535" transform="translate(88.24 56.781)">
            <path id="Trazado_12644" data-name="Trazado 12644" d="M2100.636,293.585a6.543,6.543,0,0,1-.521.914l-1.555,2.478-5.477,8.5-.191-.292,5.976-1.031,6.07-1.028.437-.074-.246.367-5.608,8.344-1.649,2.391a6.43,6.43,0,0,1-.629.834,6.4,6.4,0,0,1,.523-.9l1.557-2.452,5.489-8.423.191.292-6.066,1.047-5.979,1.013-.435.074.243-.366,5.6-8.426,1.648-2.418A6.516,6.516,0,0,1,2100.636,293.585Z" transform="translate(-2092.521 -293.585)" fill="#e0e0e0"/>
          </g>
          <g id="Grupo_3536" data-name="Grupo 3536" transform="translate(130.027 41.692)">
            <path id="Trazado_12645" data-name="Trazado 12645" d="M2149.41,275.973a6.467,6.467,0,0,1-.522.914c-.392.625-.913,1.456-1.555,2.479l-5.476,8.5-.192-.292,5.977-1.032,6.069-1.027.438-.074-.247.367-5.608,8.344-1.649,2.392a6.287,6.287,0,0,1-.629.834,6.57,6.57,0,0,1,.523-.9l1.557-2.453,5.489-8.423.19.293-6.067,1.046-5.979,1.013-.434.074.242-.366,5.6-8.426,1.646-2.417A6.493,6.493,0,0,1,2149.41,275.973Z" transform="translate(-2141.295 -275.973)" fill="#e0e0e0"/>
          </g>
          <g id="Grupo_3537" data-name="Grupo 3537" transform="translate(32.168 29.401)">
            <path id="Trazado_12646" data-name="Trazado 12646" d="M2035.188,261.627a6.409,6.409,0,0,1-.521.914l-1.555,2.479-5.477,8.5-.191-.292,5.976-1.031,6.07-1.028.437-.075-.246.368-5.609,8.343-1.648,2.392a6.508,6.508,0,0,1-.629.834,6.279,6.279,0,0,1,.523-.9l1.557-2.453,5.489-8.423.191.293-6.067,1.047-5.979,1.012-.435.074.243-.366,5.6-8.426,1.647-2.417A6.543,6.543,0,0,1,2035.188,261.627Z" transform="translate(-2027.073 -261.627)" fill="#e0e0e0"/>
          </g>
          <g id="Grupo_3538" data-name="Grupo 3538" transform="translate(9.927 85.253)">
            <path id="Trazado_12647" data-name="Trazado 12647" d="M2001.114,328.379a6.522,6.522,0,0,1,.707.78l1.872,2.248,6.382,7.848-.338.092c.273-1.869.57-3.9.877-6,.319-2.138.626-4.195.909-6.089l.066-.439.272.348c2.482,3.178,4.624,5.922,6.188,7.924l1.76,2.311a6.3,6.3,0,0,1,.6.857,6.562,6.562,0,0,1-.7-.778l-1.847-2.242-6.3-7.835.337-.09c-.278,1.9-.578,3.954-.89,6.091-.314,2.1-.617,4.13-.9,6l-.065.436-.272-.344c-2.514-3.183-4.685-5.931-6.271-7.938l-1.785-2.317A6.589,6.589,0,0,1,2001.114,328.379Z" transform="translate(-2001.113 -326.818)" fill="#e0e0e0"/>
          </g>
          <g id="Grupo_3539" data-name="Grupo 3539" transform="translate(60.126 49.626)">
            <path id="Trazado_12648" data-name="Trazado 12648" d="M2078.837,285.249a6.424,6.424,0,0,1-1.043.134l-2.915.253-10.087.751.118-.328,4.423,4.148,4.476,4.225.323.3-.441.024-10.038.55-2.9.124a6.555,6.555,0,0,1-1.044,0,6.363,6.363,0,0,1,1.037-.129l2.9-.235,10.029-.693-.118.329-4.49-4.212-4.41-4.162-.321-.3.438-.027,10.1-.61,2.923-.141A6.489,6.489,0,0,1,2078.837,285.249Z" transform="translate(-2059.706 -285.234)" fill="#e0e0e0"/>
          </g>
          <g id="Grupo_3540" data-name="Grupo 3540" transform="translate(62.243 86.575)">
            <path id="Trazado_12649" data-name="Trazado 12649" d="M2062.177,330.127a6.512,6.512,0,0,1,.722.765l1.916,2.211,6.533,7.722-.335.1c.237-1.874.494-3.907.759-6.017.277-2.143.545-4.206.79-6.105l.057-.439.278.343,6.342,7.8,1.806,2.276a6.461,6.461,0,0,1,.614.845,6.4,6.4,0,0,1-.713-.763l-1.891-2.206-6.452-7.709.336-.1c-.24,1.9-.5,3.964-.771,6.109-.272,2.109-.535,4.141-.778,6.014l-.057.437-.278-.339-6.425-7.813-1.831-2.281A6.611,6.611,0,0,1,2062.177,330.127Z" transform="translate(-2062.176 -328.361)" fill="#e0e0e0"/>
          </g>
          <g id="Grupo_3541" data-name="Grupo 3541" transform="translate(12.705 59.944)">
            <path id="Trazado_12650" data-name="Trazado 12650" d="M2023.486,297.292a6.526,6.526,0,0,1-1.044.134l-2.914.252-10.087.752.117-.329,4.423,4.148,4.477,4.225.322.3-.441.024-10.037.55-2.9.125a6.453,6.453,0,0,1-1.044,0,6.328,6.328,0,0,1,1.037-.129l2.895-.234,10.03-.693-.119.328-4.49-4.212-4.411-4.162-.32-.3.439-.027,10.1-.61,2.921-.141A6.508,6.508,0,0,1,2023.486,297.292Z" transform="translate(-2004.355 -297.277)" fill="#e0e0e0"/>
          </g>
          <g id="Grupo_3542" data-name="Grupo 3542" transform="translate(38.829 87.454)">
            <path id="Trazado_12651" data-name="Trazado 12651" d="M2053.978,329.4a6.479,6.479,0,0,1-1.044.135l-2.915.252-10.087.752.117-.329,4.423,4.149,4.477,4.225.323.3-.441.024-10.038.551-2.9.124a6.339,6.339,0,0,1-1.044,0,6.4,6.4,0,0,1,1.037-.128l2.9-.235,10.029-.693-.118.328-4.49-4.211-4.411-4.163-.321-.3.439-.027,10.1-.609,2.922-.142A6.5,6.5,0,0,1,2053.978,329.4Z" transform="translate(-2034.847 -329.387)" fill="#e0e0e0"/>
          </g>
          <g id="Grupo_3543" data-name="Grupo 3543" transform="translate(97.806 17.461)">
            <path id="Trazado_12652" data-name="Trazado 12652" d="M2122.817,247.7a6.533,6.533,0,0,1-1.044.135l-2.914.252-10.087.752.117-.329,4.423,4.149,4.477,4.225.322.3-.441.025-10.038.55-2.9.124a6.333,6.333,0,0,1-1.044,0,6.527,6.527,0,0,1,1.037-.128l2.9-.235,10.03-.693-.119.329-4.49-4.212-4.41-4.163-.321-.3.439-.027,10.1-.609,2.922-.141A6.466,6.466,0,0,1,2122.817,247.7Z" transform="translate(-2103.686 -247.69)" fill="#e0e0e0"/>
          </g>
        </g>
        <g id="Grupo_3548" data-name="Grupo 3548" transform="translate(86.506 165.68)">
          <path id="Trazado_12653" data-name="Trazado 12653" d="M2092.24,328.594s12.919-3.722,17.194-4.811c1.666-.425,8.8,3.339,13.73,6.468,0,0,6.788,4.024,6.239,5.265-.6,1.364-3.108,1.085-7.1-.792,0,0,1.392,4.045-1.342,3.957,0,0,1.356,4.37-1.206,4.823s-3.165-5.124-5.426-5.426-6.933-.6-6.933-.6-3.891,6.443-6.9,6.9-10-.362-10-.362Z" transform="translate(-2090.496 -323.749)" fill="#ffbe9d"/>
          <g id="Grupo_3545" data-name="Grupo 3545" transform="translate(23.792 5.729)">
            <path id="Trazado_12654" data-name="Trazado 12654" d="M2118.268,330.443a42.924,42.924,0,0,1,7,4.417,42.958,42.958,0,0,1-7-4.417Z" transform="translate(-2118.266 -330.436)" fill="#eb996e"/>
          </g>
          <g id="Grupo_3546" data-name="Grupo 3546" transform="translate(23.028 8.211)">
            <path id="Trazado_12655" data-name="Trazado 12655" d="M2117.376,333.343a53.716,53.716,0,0,1,8.4,3.877,53.634,53.634,0,0,1-8.4-3.877Z" transform="translate(-2117.375 -333.334)" fill="#eb996e"/>
          </g>
          <g id="Grupo_3547" data-name="Grupo 3547" transform="translate(24.412 14.197)">
            <path id="Trazado_12656" data-name="Trazado 12656" d="M2118.99,340.367a21.379,21.379,0,0,1,5.778.792,21.379,21.379,0,0,1-5.778-.792Z" transform="translate(-2118.99 -340.32)" fill="#eb996e"/>
          </g>
        </g>
        <g id="Grupo_3579" data-name="Grupo 3579" transform="translate(60.799)">
          <g id="Grupo_3573" data-name="Grupo 3573">
            <path id="Trazado_12657" data-name="Trazado 12657" d="M2071.137,167.631a2.655,2.655,0,0,1-3.74,3.14c-1.75-.888-1.972-3.3-1.629-5.235s1-3.994.191-5.782c-.62-1.367-1.963-2.234-3.01-3.31a8.47,8.47,0,0,1-2.353-7.186,7.12,7.12,0,0,1,4.9-5.6c2.572-.719,5.741.071,7.656-1.791,1.388-1.349,1.473-3.561,2.546-5.171,1.667-2.5,5.191-2.9,8.168-2.49s6.008,1.362,8.925.637c2.435-.606,4.434-2.307,6.716-3.351a13.152,13.152,0,0,1,17.125,18.057,8.4,8.4,0,0,1-4.081,4.037" transform="translate(-2060.49 -130.365)" fill="#263238"/>
            <g id="Grupo_3564" data-name="Grupo 3564" transform="translate(9.763 15.515)">
              <g id="Grupo_3563" data-name="Grupo 3563">
                <g id="Grupo_3562" data-name="Grupo 3562">
                  <g id="Grupo_3549" data-name="Grupo 3549">
                    <path id="Trazado_12658" data-name="Trazado 12658" d="M2087.586,233.648h0a14.8,14.8,0,0,0,14.785-15.007l-.2-14.116s11.858-1.187,12.644-12.936.219-38.855.219-38.855h0a40.919,40.919,0,0,0-41.336,2.924l-1.815,1.247.883,62.151A14.8,14.8,0,0,0,2087.586,233.648Z" transform="translate(-2071.886 -148.474)" fill="#ffbe9d"/>
                  </g>
                  <g id="Grupo_3553" data-name="Grupo 3553" transform="translate(36.397 19.949)">
                    <g id="Grupo_3550" data-name="Grupo 3550" transform="translate(2.082 2.082)">
                      <path id="Trazado_12659" data-name="Trazado 12659" d="M2118.355,177.7a1.759,1.759,0,0,1,.02-3.5.783.783,0,0,1,.286,0,1.759,1.759,0,0,1-.02,3.5A.784.784,0,0,1,2118.355,177.7Z" transform="translate(-2116.799 -174.189)" fill="#263238"/>
                    </g>
                    <g id="Grupo_3552" data-name="Grupo 3552">
                      <g id="Grupo_3551" data-name="Grupo 3551">
                        <path id="Trazado_12660" data-name="Trazado 12660" d="M2120.314,173.6c-.2.194-1.3-.757-2.92-.853-1.617-.12-2.84.676-3.007.458-.083-.1.121-.454.655-.816a4,4,0,0,1,4.731.315C2120.254,173.132,2120.408,173.513,2120.314,173.6Z" transform="translate(-2114.369 -171.759)" fill="#263238"/>
                      </g>
                    </g>
                  </g>
                  <g id="Grupo_3557" data-name="Grupo 3557" transform="translate(18.732 20.417)">
                    <g id="Grupo_3554" data-name="Grupo 3554" transform="translate(2.194 1.463)">
                      <path id="Trazado_12661" data-name="Trazado 12661" d="M2099,174.317a1.709,1.709,0,1,1-2.379.432A1.708,1.708,0,0,1,2099,174.317Z" transform="translate(-2096.312 -174.012)" fill="#263238"/>
                    </g>
                    <g id="Grupo_3556" data-name="Grupo 3556">
                      <g id="Grupo_3555" data-name="Grupo 3555">
                        <path id="Trazado_12662" data-name="Trazado 12662" d="M2099.695,174.144c-.2.194-1.3-.757-2.92-.853-1.617-.12-2.839.676-3.007.458-.082-.1.121-.454.655-.816a4,4,0,0,1,4.73.315C2099.635,173.678,2099.789,174.06,2099.695,174.144Z" transform="translate(-2093.75 -172.305)" fill="#263238"/>
                      </g>
                    </g>
                  </g>
                  <g id="Grupo_3559" data-name="Grupo 3559" transform="translate(30.223 21.839)">
                    <g id="Grupo_3558" data-name="Grupo 3558">
                      <path id="Trazado_12663" data-name="Trazado 12663" d="M2107.381,188.094a7.852,7.852,0,0,1,2.648-.413c.427-.022.764-.1.807-.326a2.3,2.3,0,0,0-.237-1.229c-.358-1.093-.72-2.2-1.1-3.359-1.514-4.784-2.544-8.723-2.3-8.8s1.666,3.738,3.18,8.522c.355,1.167.7,2.281,1.031,3.382a2.7,2.7,0,0,1,.135,1.773,1.106,1.106,0,0,1-.766.637,2.7,2.7,0,0,1-.729.056A7.9,7.9,0,0,1,2107.381,188.094Z" transform="translate(-2107.163 -173.965)" fill="#263238"/>
                    </g>
                  </g>
                  <g id="Grupo_3560" data-name="Grupo 3560" transform="translate(24.946 37.47)">
                    <path id="Trazado_12664" data-name="Trazado 12664" d="M2101.141,192.21a30.385,30.385,0,0,0,7.815,2.74,4.481,4.481,0,0,1-5.378,1.493C2100.13,194.964,2101.141,192.21,2101.141,192.21Z" transform="translate(-2101.003 -192.21)" fill="#fff"/>
                  </g>
                  <g id="Grupo_3561" data-name="Grupo 3561" transform="translate(15.228 50.691)">
                    <path id="Trazado_12665" data-name="Trazado 12665" d="M2104.75,212.833a27.379,27.379,0,0,1-15.09-5.191s3.162,8.658,14.951,8.238Z" transform="translate(-2089.661 -207.642)" fill="#eb996e"/>
                  </g>
                </g>
              </g>
            </g>
            <path id="Trazado_12666" data-name="Trazado 12666" d="M2114.62,155.188s-7.1,3.607-16.508-.864c-6.176-2.934-13.335-4.287-14.883-3.027s-1.757,7.57-7.781,9.528c0,0,.65,12.017-4.153,11.682s-2.169-19.019-2.169-19.019l11.618-5.957,12.753-2.667,12.094,1.466,9.381,2.374Z" transform="translate(-2061.625 -132.442)" fill="#263238"/>
            <g id="Grupo_3568" data-name="Grupo 3568" transform="translate(2.416 35.677)">
              <g id="Grupo_3565" data-name="Grupo 3565">
                <path id="Trazado_12667" data-name="Trazado 12667" d="M2071.442,172.532c-.2-.1-7.947-2.83-8.129,5.222s7.939,6.572,7.959,6.342S2071.442,172.532,2071.442,172.532Z" transform="translate(-2063.311 -172.008)" fill="#ffbe9d"/>
              </g>
              <g id="Grupo_3567" data-name="Grupo 3567" transform="translate(2.043 2.578)">
                <g id="Grupo_3566" data-name="Grupo 3566">
                  <path id="Trazado_12668" data-name="Trazado 12668" d="M2069.223,181.421c-.034-.027-.142.1-.382.2a1.4,1.4,0,0,1-1.049,0c-.843-.331-1.529-1.7-1.535-3.149a4.616,4.616,0,0,1,.438-2,1.62,1.62,0,0,1,1.079-1.053.714.714,0,0,1,.819.4c.1.227.048.387.091.4.022.021.176-.131.118-.465a.9.9,0,0,0-.3-.511,1.062,1.062,0,0,0-.771-.223,1.97,1.97,0,0,0-1.493,1.216,4.758,4.758,0,0,0-.537,2.233c.015,1.624.811,3.16,1.968,3.524a1.5,1.5,0,0,0,1.288-.185C2069.2,181.616,2069.251,181.437,2069.223,181.421Z" transform="translate(-2065.695 -175.017)" fill="#eb996e"/>
                </g>
              </g>
            </g>
            <g id="Grupo_3569" data-name="Grupo 3569" transform="translate(6.448 10.787)">
              <path id="Trazado_12669" data-name="Trazado 12669" d="M2068.018,143.164a4.441,4.441,0,0,1,4.972,1.854,7.572,7.572,0,0,0-4.972-1.854Z" transform="translate(-2068.017 -142.955)" fill="#263238"/>
            </g>
            <g id="Grupo_3570" data-name="Grupo 3570" transform="translate(10.995 6.173)">
              <path id="Trazado_12670" data-name="Trazado 12670" d="M2073.621,137.57c.142.009-.081,1.7.2,3.712a15.964,15.964,0,0,0,1.124,3.507c-.038.027-.333-.286-.675-.889a7.561,7.561,0,0,1-.845-2.559A8.374,8.374,0,0,1,2073.621,137.57Z" transform="translate(-2073.324 -137.57)" fill="#263238"/>
            </g>
            <g id="Grupo_3571" data-name="Grupo 3571" transform="translate(44.372 32.314)">
              <path id="Trazado_12671" data-name="Trazado 12671" d="M2112.285,169.205c-.042-.094.3-.372.955-.638a7.351,7.351,0,0,1,5.388.053c.648.279.987.564.942.657-.1.213-1.649-.392-3.639-.4C2113.942,168.845,2112.38,169.42,2112.285,169.205Z" transform="translate(-2112.282 -168.082)" fill="#263238"/>
            </g>
            <g id="Grupo_3572" data-name="Grupo 3572" transform="translate(26.418 30.62)">
              <path id="Trazado_12672" data-name="Trazado 12672" d="M2091.33,167.228c-.043-.094.3-.372.955-.638a7.353,7.353,0,0,1,5.389.053c.648.279.987.564.942.657-.1.213-1.65-.392-3.64-.4C2092.987,166.868,2091.424,167.443,2091.33,167.228Z" transform="translate(-2091.326 -166.105)" fill="#263238"/>
            </g>
          </g>
          <g id="Grupo_3578" data-name="Grupo 3578" transform="translate(9.483 34.118)">
            <g id="Grupo_3574" data-name="Grupo 3574" transform="translate(33.39 0.398)">
              <path id="Trazado_12673" data-name="Trazado 12673" d="M2110.648,170.839a3.5,3.5,0,0,1,.031.476c.01.341.023.771.039,1.3q.018.857.042,2.016a7.627,7.627,0,0,0,.383,2.611,6.986,6.986,0,0,0,1.7,2.683,6.833,6.833,0,0,0,3.174,1.743,6.47,6.47,0,0,0,1.964.172,6.346,6.346,0,0,0,2.009-.423,6.777,6.777,0,0,0,3.311-2.679,6.9,6.9,0,0,0,1.078-3.931c0-1.374.008-2.7.011-3.968l.185.186-9.964-.091-2.893-.05-.783-.023a1.613,1.613,0,0,1-.284-.022,8.22,8.22,0,0,1,.987-.045l2.851-.051,10.086-.09.186,0v.187c0,1.267.007,2.593.011,3.968a7.264,7.264,0,0,1-1.136,4.147,7.127,7.127,0,0,1-3.51,2.83,6.665,6.665,0,0,1-2.125.438,6.815,6.815,0,0,1-2.072-.2,7.137,7.137,0,0,1-3.32-1.864,7.222,7.222,0,0,1-1.733-2.831,7.7,7.7,0,0,1-.337-2.718c.016-.792.03-1.482.042-2.067.015-.521.028-.946.039-1.282A2.244,2.244,0,0,1,2110.648,170.839Z" transform="translate(-2110.532 -170.652)" fill="#263238"/>
            </g>
            <g id="Grupo_3575" data-name="Grupo 3575" transform="translate(14.565)">
              <path id="Trazado_12674" data-name="Trazado 12674" d="M2088.677,170.376a3.641,3.641,0,0,1,.031.475l.039,1.3c.012.571.025,1.244.042,2.015a7.647,7.647,0,0,0,.383,2.612,6.986,6.986,0,0,0,1.7,2.682,6.835,6.835,0,0,0,3.174,1.743,6.5,6.5,0,0,0,1.964.171,6.3,6.3,0,0,0,2.009-.423,6.769,6.769,0,0,0,3.311-2.679,6.892,6.892,0,0,0,1.08-3.931c0-1.373.008-2.7.011-3.967l.185.185-9.964-.09-2.894-.051-.783-.023a1.68,1.68,0,0,1-.285-.021,7.834,7.834,0,0,1,.987-.045l2.852-.05,10.086-.091.186,0v.188c0,1.266.007,2.593.01,3.967a7.261,7.261,0,0,1-1.135,4.147,7.131,7.131,0,0,1-3.51,2.829,6.643,6.643,0,0,1-2.126.438,6.814,6.814,0,0,1-2.071-.194,7.14,7.14,0,0,1-3.32-1.865,7.212,7.212,0,0,1-1.732-2.83,7.7,7.7,0,0,1-.338-2.718c.016-.792.03-1.483.042-2.068.015-.521.028-.945.039-1.282A2.215,2.215,0,0,1,2088.677,170.376Z" transform="translate(-2088.56 -170.188)" fill="#263238"/>
            </g>
            <g id="Grupo_3576" data-name="Grupo 3576" transform="translate(28.373 0.944)">
              <path id="Trazado_12675" data-name="Trazado 12675" d="M2109.979,171.49a17.63,17.63,0,0,1-5.3,0,17.706,17.706,0,0,1,5.3,0Z" transform="translate(-2104.677 -171.29)" fill="#263238"/>
            </g>
            <g id="Grupo_3577" data-name="Grupo 3577" transform="translate(0 1.026)">
              <path id="Trazado_12676" data-name="Trazado 12676" d="M2071.559,171.609a135.076,135.076,0,0,1,14.683-.045,134.523,134.523,0,0,1-14.683.045Z" transform="translate(-2071.559 -171.386)" fill="#263238"/>
            </g>
          </g>
        </g>
      </g>
      <g id="Grupo_3581" data-name="Grupo 3581" transform="translate(104.9 147.416)">
        <path id="Trazado_12677" data-name="Trazado 12677" d="M2155.838,276.219l-25.488,63.029h-45.957v2.845h136.884l28-65.875Z" transform="translate(-2084.393 -276.219)" fill="#263238"/>
        <path id="Trazado_12678" data-name="Trazado 12678" d="M2211.756,318.458c-.924,3.172-3.612,5.179-6.006,4.482s-3.586-3.834-2.663-7.006,3.613-5.179,6.007-4.482S2212.68,315.286,2211.756,318.458Z" transform="translate(-2101.353 -281.247)" fill="#fafafa"/>
      </g>
    </g>
    <g id="Device" transform="translate(2160.36 159.189)">
      <g id="Grupo_3596" data-name="Grupo 3596">
        <g id="Grupo_3595" data-name="Grupo 3595">
          <g id="Grupo_3585" data-name="Grupo 3585">
            <g id="Grupo_3582" data-name="Grupo 3582">
              <rect id="Rectángulo_714" data-name="Rectángulo 714" width="45.233" height="69.56" rx="3.779" transform="translate(0 45.114) rotate(-85.834)" fill="#e8505b"/>
            </g>
            <g id="Grupo_3584" data-name="Grupo 3584" transform="translate(0.122 0.115)">
              <g id="Grupo_3583" data-name="Grupo 3583">
                <path id="Trazado_12679" data-name="Trazado 12679" d="M2259.7,218.344a5.684,5.684,0,0,0,.576-.023,3.221,3.221,0,0,0,2.849-2.926c.077-1.089.166-2.344.267-3.757.4-5.658.987-13.837,1.708-23.944q.272-3.791.571-7.934.074-1.035.151-2.09a5.7,5.7,0,0,0-.05-2.089,3.117,3.117,0,0,0-1.206-1.689,3.21,3.21,0,0,0-.96-.461,5.429,5.429,0,0,0-1.083-.142l-18.976-1.372-43.48-3.16a3.12,3.12,0,0,0-3.209,2.174,5.826,5.826,0,0,0-.19,1.39l-.414,5.675q-.411,5.634-.81,11.093c-.532,7.274-1.045,14.289-1.534,20.972a3.216,3.216,0,0,0,.565,2.3,3.125,3.125,0,0,0,1.967,1.251c1.6.159,3.227.248,4.8.374l9.212.677,16.532,1.217,23.938,1.779,6.507.5,1.692.135c.381.032.576.053.576.053s-.2-.006-.577-.031l-1.694-.112-6.51-.453-23.942-1.708-16.535-1.191-9.212-.665c-1.588-.125-3.181-.208-4.826-.372a3.327,3.327,0,0,1-2.1-1.329,3.427,3.427,0,0,1-.6-2.435c.485-6.683.994-13.7,1.522-20.973q.4-5.455.806-11.094.206-2.817.413-5.675a6.035,6.035,0,0,1,.2-1.442,3.346,3.346,0,0,1,3.439-2.329l43.479,3.177,18.975,1.392a5.657,5.657,0,0,1,1.119.15,3.381,3.381,0,0,1,1.016.49,3.288,3.288,0,0,1,1.272,1.786,3.174,3.174,0,0,1,.128,1.09c-.018.36-.05.709-.074,1.062q-.078,1.055-.154,2.09-.3,4.138-.585,7.933c-.751,10.1-1.359,18.283-1.779,23.939-.108,1.413-.2,2.668-.286,3.757a3.26,3.26,0,0,1-1.336,2.346,3.181,3.181,0,0,1-1.577.6,2.513,2.513,0,0,1-.433.01C2259.753,218.349,2259.7,218.344,2259.7,218.344Z" transform="translate(-2193.68 -168.526)" fill="#263238"/>
              </g>
            </g>
          </g>
          <g id="Grupo_3586" data-name="Grupo 3586" transform="translate(52.088 9.653)">
            <path id="Trazado_12680" data-name="Trazado 12680" d="M2263.925,184.811a4.8,4.8,0,1,1-4.44-5.138A4.8,4.8,0,0,1,2263.925,184.811Z" transform="translate(-2254.335 -179.66)" fill="#fafafa"/>
          </g>
          <g id="Grupo_3587" data-name="Grupo 3587" transform="translate(57.643 9.859)">
            <path id="Trazado_12681" data-name="Trazado 12681" d="M2265.839,189.932c-.123,0-.245,0-.368-.014a5.01,5.01,0,1,1,.368.014Zm-.007-9.6a4.584,4.584,0,1,0,.337.012C2266.056,180.334,2265.943,180.33,2265.832,180.33Z" transform="translate(-2260.819 -179.9)" fill="#fafafa"/>
          </g>
          <g id="Grupo_3588" data-name="Grupo 3588" transform="translate(6.011 29.204)">
            <path id="Trazado_12682" data-name="Trazado 12682" d="M2201.883,202.575l-.28,3.85-.4-.029.255-3.5-.908-.066.026-.352Z" transform="translate(-2200.553 -202.48)" fill="#fafafa"/>
            <path id="Trazado_12683" data-name="Trazado 12683" d="M2205.975,206.4l-.027.352-2.7-.2.021-.281,1.714-1.45c.466-.4.567-.65.586-.914.033-.446-.26-.744-.849-.786a1.31,1.31,0,0,0-1.081.353l-.263-.263a1.736,1.736,0,0,1,1.4-.451c.781.057,1.247.489,1.2,1.133a1.589,1.589,0,0,1-.721,1.158l-1.4,1.193Z" transform="translate(-2200.939 -202.52)" fill="#fafafa"/>
            <path id="Trazado_12684" data-name="Trazado 12684" d="M2210.66,206.094l-.77-.057-.074,1.013-.4-.029.074-1.012-2.173-.158.021-.286,2.227-2.4.44.033-2.15,2.343,1.672.122.065-.891.385.027-.065.891.77.057Z" transform="translate(-2201.522 -202.578)" fill="#fafafa"/>
            <path id="Trazado_12685" data-name="Trazado 12685" d="M2217.549,206.6l-.77-.057-.074,1.013-.4-.029.074-1.012-2.173-.159.021-.286,2.227-2.4.44.033-2.15,2.343,1.673.122.065-.892.385.028-.065.891.77.057Z" transform="translate(-2202.51 -202.649)" fill="#fafafa"/>
            <path id="Trazado_12686" data-name="Trazado 12686" d="M2221.574,206.749c-.048.655-.542,1.133-1.482,1.064a1.994,1.994,0,0,1-1.345-.6l.216-.3a1.673,1.673,0,0,0,1.15.531c.655.047,1.025-.247,1.059-.714.036-.5-.25-.826-1.229-.9l-.819-.06.338-1.916,2.107.153-.026.351-1.76-.128-.22,1.217.494.036C2221.217,205.578,2221.624,206.068,2221.574,206.749Z" transform="translate(-2203.159 -202.678)" fill="#fafafa"/>
            <path id="Trazado_12687" data-name="Trazado 12687" d="M2226.015,207.064a1.2,1.2,0,0,1-1.4,1.087c-1.023-.075-1.528-.825-1.438-2.041.1-1.309.86-1.939,1.905-1.863a1.776,1.776,0,0,1,.9.276l-.183.308a1.346,1.346,0,0,0-.734-.236c-.831-.061-1.4.434-1.48,1.479-.006.088-.008.2-.006.315a1.232,1.232,0,0,1,1.225-.574A1.168,1.168,0,0,1,2226.015,207.064Zm-.392-.017c.037-.506-.314-.858-.907-.9a.893.893,0,0,0-1.051.769c-.032.423.291.851.957.9A.845.845,0,0,0,2225.623,207.047Z" transform="translate(-2203.792 -202.732)" fill="#fafafa"/>
            <path id="Trazado_12688" data-name="Trazado 12688" d="M2232.165,207.544c-.047.644-.55,1.105-1.48,1.038a2.011,2.011,0,0,1-1.349-.6l.215-.3a1.7,1.7,0,0,0,1.161.532c.638.046,1.012-.225,1.047-.7.033-.462-.269-.788-.984-.84l-.275-.02.021-.292,1.164-1.259-1.969-.144.026-.351,2.475.18-.021.28-1.188,1.291C2231.829,206.464,2232.209,206.929,2232.165,207.544Z" transform="translate(-2204.676 -202.785)" fill="#fafafa"/>
            <path id="Trazado_12689" data-name="Trazado 12689" d="M2236.672,207.84a1.2,1.2,0,0,1-1.4,1.087c-1.023-.075-1.528-.824-1.438-2.04.1-1.31.86-1.94,1.9-1.863a1.776,1.776,0,0,1,.9.275l-.183.308a1.354,1.354,0,0,0-.735-.236c-.83-.061-1.4.434-1.479,1.48a3.041,3.041,0,0,0-.006.314,1.232,1.232,0,0,1,1.225-.574A1.169,1.169,0,0,1,2236.672,207.84Zm-.391-.017c.037-.505-.314-.858-.907-.9a.9.9,0,0,0-1.052.77c-.031.423.292.85.958.9A.845.845,0,0,0,2236.281,207.823Z" transform="translate(-2205.319 -202.844)" fill="#fafafa"/>
            <path id="Trazado_12690" data-name="Trazado 12690" d="M2241.027,205.427l-.021.28-1.871,3.453-.429-.031,1.839-3.383-1.981-.144-.052.721-.39-.029.078-1.072Z" transform="translate(-2205.935 -202.873)" fill="#fafafa"/>
            <path id="Trazado_12691" data-name="Trazado 12691" d="M2247.454,205.895l-.021.281-1.872,3.453-.429-.032,1.839-3.383-1.981-.144-.052.721-.39-.028.078-1.073Z" transform="translate(-2206.856 -202.94)" fill="#fafafa"/>
            <path id="Trazado_12692" data-name="Trazado 12692" d="M2251.628,209c-.05.683-.658,1.064-1.576,1s-1.455-.531-1.405-1.214a.964.964,0,0,1,.811-.892.873.873,0,0,1-.543-.891c.046-.627.608-.979,1.422-.92s1.331.49,1.284,1.117a.874.874,0,0,1-.678.8A.971.971,0,0,1,2251.628,209Zm-.406-.034c.034-.473-.351-.8-1.033-.85s-1.105.218-1.14.691.345.805,1.027.855S2251.187,209.447,2251.222,208.969Zm-1.01-1.163c.6.044.977-.2,1.006-.618.032-.434-.328-.727-.906-.768s-.971.194-1,.624S2249.612,207.762,2250.212,207.806Z" transform="translate(-2207.442 -202.995)" fill="#fafafa"/>
            <path id="Trazado_12693" data-name="Trazado 12693" d="M2256.093,208.436c-.095,1.309-.86,1.94-1.9,1.863a1.778,1.778,0,0,1-.9-.276l.184-.308a1.358,1.358,0,0,0,.735.236c.83.06,1.4-.434,1.479-1.48.006-.088.009-.2.006-.314a1.233,1.233,0,0,1-1.225.574,1.168,1.168,0,0,1-1.213-1.25,1.2,1.2,0,0,1,1.4-1.086C2255.678,206.471,2256.181,207.22,2256.093,208.436Zm-.488-.8c.031-.423-.292-.851-.958-.9a.845.845,0,0,0-1,.768c-.037.506.313.858.907.9A.894.894,0,0,0,2255.6,207.632Z" transform="translate(-2208.103 -203.04)" fill="#fafafa"/>
            <path id="Trazado_12694" data-name="Trazado 12694" d="M2261.066,206.886l-.281,3.85-.4-.029.254-3.5-.907-.066.026-.353Z" transform="translate(-2209.032 -203.097)" fill="#fafafa"/>
            <path id="Trazado_12695" data-name="Trazado 12695" d="M2265.157,210.713l-.026.352-2.7-.2.021-.281,1.715-1.45c.466-.4.567-.65.586-.914.033-.445-.26-.744-.849-.786a1.311,1.311,0,0,0-1.082.353l-.263-.263a1.735,1.735,0,0,1,1.4-.451c.781.057,1.247.489,1.2,1.133a1.589,1.589,0,0,1-.719,1.159l-1.4,1.191Z" transform="translate(-2209.417 -203.137)" fill="#fafafa"/>
            <path id="Trazado_12696" data-name="Trazado 12696" d="M2269.236,210.245c-.047.643-.551,1.1-1.48,1.037a2.005,2.005,0,0,1-1.35-.6l.215-.3a1.688,1.688,0,0,0,1.161.532c.638.047,1.012-.224,1.047-.7.033-.462-.269-.788-.984-.84l-.275-.021.021-.292,1.165-1.259-1.969-.143.026-.352,2.475.181-.021.28-1.189,1.29C2268.9,209.164,2269.28,209.629,2269.236,210.245Z" transform="translate(-2209.987 -203.172)" fill="#fafafa"/>
          </g>
          <g id="Grupo_3589" data-name="Grupo 3589" transform="translate(35.262 38.092)">
            <rect id="Rectángulo_715" data-name="Rectángulo 715" width="1.677" height="30.93" transform="translate(0 1.672) rotate(-85.836)" fill="#fafafa"/>
          </g>
          <g id="Grupo_3590" data-name="Grupo 3590" transform="translate(50.046 42.526)">
            <rect id="Rectángulo_716" data-name="Rectángulo 716" width="1.677" height="15.863" transform="translate(0 1.673) rotate(-85.838)" fill="#fafafa"/>
          </g>
          <g id="Grupo_3591" data-name="Grupo 3591" transform="translate(5.222 16.151)">
            <path id="Rectángulo_717" data-name="Rectángulo 717" d="M4.848,0H8.131a4.847,4.847,0,0,1,4.847,4.847v0A4.847,4.847,0,0,1,8.131,9.695H4.847A4.847,4.847,0,0,1,0,4.848v0A4.848,4.848,0,0,1,4.848,0Z" transform="translate(0.704 0) rotate(4.167)" fill="#455a64"/>
          </g>
          <g id="Grupo_3592" data-name="Grupo 3592" transform="translate(5.416 19.113)">
            <path id="Trazado_12697" data-name="Trazado 12697" d="M2199.859,194.732l.045-.62,6.665.486a1.4,1.4,0,1,0,.2-2.79l-6.665-.486.045-.62,6.665.486a2.02,2.02,0,1,1-.294,4.03Z" transform="translate(-2199.859 -190.702)" fill="#e8505b"/>
          </g>
          <g id="Grupo_3593" data-name="Grupo 3593" transform="translate(13.91 21.426)">
            <rect id="Rectángulo_718" data-name="Rectángulo 718" width="0.622" height="4.586" transform="translate(0 0.62) rotate(-85.78)" fill="#e8505b"/>
          </g>
          <g id="Grupo_3594" data-name="Grupo 3594" transform="translate(7.826 8.306)">
            <rect id="Rectángulo_719" data-name="Rectángulo 719" width="33.376" height="2.864" transform="translate(0.208 0) rotate(4.169)" fill="#fafafa"/>
          </g>
        </g>
      </g>
    </g>
  </g>
</svg>
