<svg xmlns="http://www.w3.org/2000/svg" width="848.098" height="511.884" viewBox="0 0 848.098 511.884">
  <g id="Grupo_4013" data-name="Grupo 4013" transform="translate(-164 -320.625)">
    <g id="Grupo_3211" data-name="Grupo 3211" transform="translate(99.701 177.308)">
      <g id="Grupo_3054" data-name="Grupo 3054" transform="translate(454.948 143.317)">
        <path id="Trazado_12310" data-name="Trazado 12310" d="M366.219,143.317l-3.534,6.458-6.458,3.535,6.458,3.53,3.534,6.458,3.534-6.458,6.459-3.53-6.459-3.535Z" transform="translate(-356.228 -143.317)" fill="#fff"/>
      </g>
      <g id="Grupo_3057" data-name="Grupo 3057" transform="translate(876.889 404.424)">
        <g id="Grupo_3055" data-name="Grupo 3055">
          <path id="Trazado_12311" data-name="Trazado 12311" d="M605.264,293.628l-2.174,3.972-3.964,2.169,3.964,2.17,2.174,3.968,2.173-3.968,3.964-2.17-3.964-2.169Z" transform="translate(-599.126 -293.628)" fill="#fff"/>
        </g>
        <g id="Grupo_3056" data-name="Grupo 3056" transform="translate(15.524 37.142)">
          <path id="Trazado_12312" data-name="Trazado 12312" d="M618.054,315.01l-3.534,6.458L608.063,325l6.458,3.53,3.534,6.458,3.534-6.458,6.458-3.53-6.458-3.535Z" transform="translate(-608.063 -315.01)" fill="#fff"/>
        </g>
      </g>
      <g id="Grupo_3058" data-name="Grupo 3058" transform="translate(488.614 164.535)">
        <path id="Trazado_12313" data-name="Trazado 12313" d="M381.745,155.532l-2.173,3.972-3.964,2.169,3.964,2.17,2.173,3.968,2.174-3.968,3.964-2.17-3.964-2.169Z" transform="translate(-375.608 -155.532)" fill="#fff"/>
      </g>
      <g id="Grupo_3088" data-name="Grupo 3088" transform="translate(222.299 196.34)">
        <g id="Grupo_3067" data-name="Grupo 3067">
          <g id="Grupo_3060" data-name="Grupo 3060" transform="translate(25.266)">
            <g id="Grupo_3059" data-name="Grupo 3059">
              <rect id="Rectángulo_682" data-name="Rectángulo 682" width="604.187" height="399.543" rx="14.567" fill="#263238"/>
            </g>
          </g>
          <g id="Grupo_3062" data-name="Grupo 3062" transform="translate(0 369.993)">
            <g id="Grupo_3061" data-name="Grupo 3061">
              <path id="Rectángulo_683" data-name="Rectángulo 683" d="M0,0H654.591a0,0,0,0,1,0,0V17.162a17.8,17.8,0,0,1-17.8,17.8H17.8A17.8,17.8,0,0,1,0,17.162V0A0,0,0,0,1,0,0Z" fill="#263238"/>
            </g>
          </g>
          <g id="Grupo_3064" data-name="Grupo 3064" transform="translate(41.484 15.874)">
            <g id="Grupo_3063" data-name="Grupo 3063">
              <rect id="Rectángulo_684" data-name="Rectángulo 684" width="570.062" height="337.409" fill="#455a64"/>
            </g>
          </g>
          <g id="Grupo_3066" data-name="Grupo 3066" transform="translate(267.799 369.993)">
            <g id="Grupo_3065" data-name="Grupo 3065">
              <path id="Trazado_12314" data-name="Trazado 12314" d="M376.462,386.834l8.123,12.921h114.3l7.543-12.921Z" transform="translate(-376.462 -386.834)" fill="#455a64"/>
            </g>
          </g>
        </g>
        <g id="Grupo_3085" data-name="Grupo 3085" transform="translate(53.226 27.297)">
          <g id="Grupo_3084" data-name="Grupo 3084">
            <g id="Grupo_3083" data-name="Grupo 3083">
              <g id="Grupo_3070" data-name="Grupo 3070">
                <g id="Grupo_3069" data-name="Grupo 3069">
                  <g id="Grupo_3068" data-name="Grupo 3068">
                    <path id="Rectángulo_685" data-name="Rectángulo 685" d="M3.272,0H544.478a3.273,3.273,0,0,1,3.273,3.273v318.36a3.273,3.273,0,0,1-3.273,3.273H3.272A3.272,3.272,0,0,1,0,321.634V3.272A3.272,3.272,0,0,1,3.272,0Z" fill="#ebebeb"/>
                  </g>
                </g>
              </g>
              <g id="Grupo_3073" data-name="Grupo 3073" transform="translate(0 23.806)">
                <g id="Grupo_3072" data-name="Grupo 3072">
                  <g id="Grupo_3071" data-name="Grupo 3071">
                    <rect id="Rectángulo_686" data-name="Rectángulo 686" width="547.751" height="301.1" fill="#fafafa"/>
                  </g>
                </g>
              </g>
              <g id="Grupo_3076" data-name="Grupo 3076" transform="translate(36.175 8.173)">
                <g id="Grupo_3075" data-name="Grupo 3075">
                  <g id="Grupo_3074" data-name="Grupo 3074">
                    <path id="Trazado_12315" data-name="Trazado 12315" d="M282.512,198.634a4.374,4.374,0,1,1-4.374-4.374A4.373,4.373,0,0,1,282.512,198.634Z" transform="translate(-273.764 -194.26)" fill="#263238"/>
                  </g>
                </g>
              </g>
              <g id="Grupo_3079" data-name="Grupo 3079" transform="translate(9.662 8.173)">
                <g id="Grupo_3078" data-name="Grupo 3078">
                  <g id="Grupo_3077" data-name="Grupo 3077">
                    <path id="Trazado_12316" data-name="Trazado 12316" d="M267.251,198.634a4.375,4.375,0,1,1-4.376-4.374A4.374,4.374,0,0,1,267.251,198.634Z" transform="translate(-258.501 -194.26)" fill="#263238"/>
                  </g>
                </g>
              </g>
              <g id="Grupo_3082" data-name="Grupo 3082" transform="translate(22.388 8.173)">
                <g id="Grupo_3081" data-name="Grupo 3081">
                  <g id="Grupo_3080" data-name="Grupo 3080">
                    <path id="Trazado_12317" data-name="Trazado 12317" d="M274.577,198.634a4.375,4.375,0,1,1-4.376-4.374A4.374,4.374,0,0,1,274.577,198.634Z" transform="translate(-265.827 -194.26)" fill="#263238"/>
                  </g>
                </g>
              </g>
            </g>
          </g>
        </g>
        <g id="Grupo_3087" data-name="Grupo 3087" transform="translate(25.265 369.601)">
          <g id="Grupo_3086" data-name="Grupo 3086">
            <path id="Trazado_12318" data-name="Trazado 12318" d="M835.84,387c0,.217-134.1.393-299.485.393-165.441,0-299.512-.176-299.512-.393s134.072-.391,299.512-.391C701.739,386.609,835.84,386.784,835.84,387Z" transform="translate(-236.843 -386.609)" fill="#455a64"/>
          </g>
        </g>
      </g>
      <g id="Grupo_3196" data-name="Grupo 3196" transform="translate(313.485 283.032)">
        <g id="Grupo_3089" data-name="Grupo 3089" transform="translate(0 116.089)">
          <rect id="Rectángulo_687" data-name="Rectángulo 687" width="124.995" height="8.362" fill="#e0e0e0"/>
        </g>
        <g id="Grupo_3090" data-name="Grupo 3090" transform="translate(161.447)">
          <rect id="Rectángulo_688" data-name="Rectángulo 688" width="124.995" height="8.362" fill="#e0e0e0"/>
        </g>
        <g id="Grupo_3092" data-name="Grupo 3092" transform="translate(161.448 30.749)">
          <g id="Grupo_3091" data-name="Grupo 3091">
            <path id="Trazado_12319" data-name="Trazado 12319" d="M678.631,241.839c0,.217-69.6.393-155.442.393-85.87,0-155.457-.175-155.457-.393s69.587-.391,155.457-.391C609.029,241.448,678.631,241.623,678.631,241.839Z" transform="translate(-367.732 -241.448)" fill="#e0e0e0"/>
          </g>
        </g>
        <g id="Grupo_3094" data-name="Grupo 3094" transform="translate(161.448 49.007)">
          <g id="Grupo_3093" data-name="Grupo 3093">
            <path id="Trazado_12320" data-name="Trazado 12320" d="M678.631,252.35c0,.215-69.6.391-155.442.391-85.87,0-155.457-.175-155.457-.391s69.587-.391,155.457-.391C609.029,251.959,678.631,252.134,678.631,252.35Z" transform="translate(-367.732 -251.959)" fill="#e0e0e0"/>
          </g>
        </g>
        <g id="Grupo_3096" data-name="Grupo 3096" transform="translate(161.448 67.264)">
          <g id="Grupo_3095" data-name="Grupo 3095">
            <path id="Trazado_12321" data-name="Trazado 12321" d="M678.631,262.862c0,.215-69.6.391-155.442.391-85.87,0-155.457-.175-155.457-.391s69.587-.393,155.457-.393C609.029,262.469,678.631,262.644,678.631,262.862Z" transform="translate(-367.732 -262.469)" fill="#e0e0e0"/>
          </g>
        </g>
        <g id="Grupo_3098" data-name="Grupo 3098" transform="translate(161.448 85.523)">
          <g id="Grupo_3097" data-name="Grupo 3097">
            <path id="Trazado_12322" data-name="Trazado 12322" d="M678.631,273.373c0,.215-69.6.391-155.442.391-85.87,0-155.457-.175-155.457-.391s69.587-.393,155.457-.393C609.029,272.98,678.631,273.155,678.631,273.373Z" transform="translate(-367.732 -272.98)" fill="#e0e0e0"/>
          </g>
        </g>
        <g id="Grupo_3100" data-name="Grupo 3100" transform="translate(161.448 103.782)">
          <g id="Grupo_3099" data-name="Grupo 3099">
            <path id="Trazado_12323" data-name="Trazado 12323" d="M678.631,283.882c0,.217-69.6.393-155.442.393-85.87,0-155.457-.175-155.457-.393s69.587-.391,155.457-.391C609.029,283.491,678.631,283.666,678.631,283.882Z" transform="translate(-367.732 -283.491)" fill="#e0e0e0"/>
          </g>
        </g>
        <g id="Grupo_3102" data-name="Grupo 3102" transform="translate(161.448 122.041)">
          <g id="Grupo_3101" data-name="Grupo 3101">
            <path id="Trazado_12324" data-name="Trazado 12324" d="M489.092,294.393c0,.215-27.17.391-60.677.391s-60.682-.175-60.682-.391S394.9,294,428.414,294,489.092,294.177,489.092,294.393Z" transform="translate(-367.732 -294.002)" fill="#e0e0e0"/>
          </g>
        </g>
        <g id="Grupo_3104" data-name="Grupo 3104" transform="translate(3.496 155.621)">
          <g id="Grupo_3103" data-name="Grupo 3103">
            <path id="Trazado_12325" data-name="Trazado 12325" d="M398.619,313.724c0,.217-27.271.393-60.9.393s-60.91-.175-60.91-.393,27.266-.391,60.91-.391S398.619,313.508,398.619,313.724Z" transform="translate(-276.804 -313.333)" fill="#e0e0e0"/>
          </g>
        </g>
        <g id="Grupo_3106" data-name="Grupo 3106" transform="translate(3.496 170.841)">
          <g id="Grupo_3105" data-name="Grupo 3105">
            <path id="Trazado_12326" data-name="Trazado 12326" d="M398.619,322.488c0,.215-27.271.391-60.9.391s-60.91-.175-60.91-.391,27.266-.393,60.91-.393S398.619,322.27,398.619,322.488Z" transform="translate(-276.804 -322.095)" fill="#e0e0e0"/>
          </g>
        </g>
        <g id="Grupo_3108" data-name="Grupo 3108" transform="translate(3.496 186.064)">
          <g id="Grupo_3107" data-name="Grupo 3107">
            <path id="Trazado_12327" data-name="Trazado 12327" d="M398.619,331.249c0,.215-27.271.391-60.9.391s-60.91-.175-60.91-.391,27.266-.391,60.91-.391S398.619,331.034,398.619,331.249Z" transform="translate(-276.804 -330.858)" fill="#e0e0e0"/>
          </g>
        </g>
        <g id="Grupo_3110" data-name="Grupo 3110" transform="translate(3.496 201.284)">
          <g id="Grupo_3109" data-name="Grupo 3109">
            <path id="Trazado_12328" data-name="Trazado 12328" d="M398.619,340.011c0,.215-27.271.391-60.9.391s-60.91-.175-60.91-.391,27.266-.391,60.91-.391S398.619,339.8,398.619,340.011Z" transform="translate(-276.804 -339.62)" fill="#e0e0e0"/>
          </g>
        </g>
        <g id="Grupo_3112" data-name="Grupo 3112" transform="translate(3.496 216.505)">
          <g id="Grupo_3111" data-name="Grupo 3111">
            <path id="Trazado_12329" data-name="Trazado 12329" d="M398.619,348.773c0,.217-27.271.393-60.9.393s-60.91-.175-60.91-.393,27.266-.391,60.91-.391S398.619,348.557,398.619,348.773Z" transform="translate(-276.804 -348.382)" fill="#e0e0e0"/>
          </g>
        </g>
        <g id="Grupo_3195" data-name="Grupo 3195" transform="translate(161.448 141.583)">
          <g id="Grupo_3114" data-name="Grupo 3114" transform="translate(13.783 14.334)">
            <g id="Grupo_3113" data-name="Grupo 3113">
              <rect id="Rectángulo_689" data-name="Rectángulo 689" width="12.072" height="70.238" fill="#e0e0e0"/>
            </g>
          </g>
          <g id="Grupo_3116" data-name="Grupo 3116" transform="translate(37.088 38.189)">
            <g id="Grupo_3115" data-name="Grupo 3115">
              <rect id="Rectángulo_690" data-name="Rectángulo 690" width="12.072" height="46.383" fill="#e0e0e0"/>
            </g>
          </g>
          <g id="Grupo_3118" data-name="Grupo 3118" transform="translate(60.393 23.064)">
            <g id="Grupo_3117" data-name="Grupo 3117">
              <rect id="Rectángulo_691" data-name="Rectángulo 691" width="12.072" height="61.865" fill="#e0e0e0"/>
            </g>
          </g>
          <g id="Grupo_3120" data-name="Grupo 3120" transform="translate(83.697 17.046)">
            <g id="Grupo_3119" data-name="Grupo 3119">
              <rect id="Rectángulo_692" data-name="Rectángulo 692" width="12.072" height="67.526" fill="#e0e0e0"/>
            </g>
          </g>
          <g id="Grupo_3122" data-name="Grupo 3122" transform="translate(107.002 39.617)">
            <g id="Grupo_3121" data-name="Grupo 3121">
              <rect id="Rectángulo_693" data-name="Rectángulo 693" width="12.072" height="44.955" fill="#e0e0e0"/>
            </g>
          </g>
          <g id="Grupo_3124" data-name="Grupo 3124" transform="translate(130.307 48.433)">
            <g id="Grupo_3123" data-name="Grupo 3123">
              <rect id="Rectángulo_694" data-name="Rectángulo 694" width="12.072" height="36.138" fill="#e0e0e0"/>
            </g>
          </g>
          <g id="Grupo_3126" data-name="Grupo 3126" transform="translate(153.611 21.543)">
            <g id="Grupo_3125" data-name="Grupo 3125">
              <rect id="Rectángulo_695" data-name="Rectángulo 695" width="12.072" height="63.029" fill="#e0e0e0"/>
            </g>
          </g>
          <g id="Grupo_3128" data-name="Grupo 3128" transform="translate(176.916 32.906)">
            <g id="Grupo_3127" data-name="Grupo 3127">
              <rect id="Rectángulo_696" data-name="Rectángulo 696" width="12.072" height="51.666" fill="#e0e0e0"/>
            </g>
          </g>
          <g id="Grupo_3130" data-name="Grupo 3130" transform="translate(200.221 23.826)">
            <g id="Grupo_3129" data-name="Grupo 3129">
              <rect id="Rectángulo_697" data-name="Rectángulo 697" width="12.072" height="60.746" fill="#e0e0e0"/>
            </g>
          </g>
          <g id="Grupo_3132" data-name="Grupo 3132" transform="translate(223.526 43.187)">
            <g id="Grupo_3131" data-name="Grupo 3131">
              <rect id="Rectángulo_698" data-name="Rectángulo 698" width="12.072" height="41.385" fill="#e0e0e0"/>
            </g>
          </g>
          <g id="Grupo_3134" data-name="Grupo 3134" transform="translate(270.009 21.543)">
            <g id="Grupo_3133" data-name="Grupo 3133">
              <rect id="Rectángulo_699" data-name="Rectángulo 699" width="12.072" height="63.029" fill="#e0e0e0"/>
            </g>
          </g>
          <g id="Grupo_3136" data-name="Grupo 3136" transform="translate(319.503 62.094)">
            <g id="Grupo_3135" data-name="Grupo 3135">
              <rect id="Rectángulo_700" data-name="Rectángulo 700" width="12.072" height="21.566" fill="#e0e0e0"/>
            </g>
          </g>
          <g id="Grupo_3138" data-name="Grupo 3138" transform="translate(295.376 43.187)">
            <g id="Grupo_3137" data-name="Grupo 3137">
              <rect id="Rectángulo_701" data-name="Rectángulo 701" width="12.072" height="41.385" fill="#e0e0e0"/>
            </g>
          </g>
          <g id="Grupo_3140" data-name="Grupo 3140" transform="translate(246.83 35.312)">
            <g id="Grupo_3139" data-name="Grupo 3139">
              <rect id="Rectángulo_702" data-name="Rectángulo 702" width="12.072" height="49.26" fill="#e0e0e0"/>
            </g>
          </g>
          <g id="Grupo_3143" data-name="Grupo 3143" transform="translate(20.471 21.837)">
            <g id="Grupo_3142" data-name="Grupo 3142">
              <g id="Grupo_3141" data-name="Grupo 3141">
                <path id="Trazado_12330" data-name="Trazado 12330" d="M694.014,319.273c-.007.012-.365-.019-1.06-.089l-3.071-.328c-1.338-.175-3.029-.281-5.026-.415-1.985-.177-4.3-.233-6.914-.3a152.116,152.116,0,0,0-18.895.846,138.293,138.293,0,0,0-23.442,4.624,111.62,111.62,0,0,0-23.736,9.848c-7.4,4.223-13.635,9.441-20.008,14.964-6.441,5.487-12.992,11.451-22.482,16.556a71.346,71.346,0,0,1-16.567,6.455,60.407,60.407,0,0,1-10.209,1.626,63,63,0,0,1-10.827-.191,64.845,64.845,0,0,1-18.853-5.151,79,79,0,0,1-13.965-7.942c-8.1-5.684-13.862-11.811-20.022-17.39-6.082-5.6-12.339-10.834-20-14.922a63.746,63.746,0,0,0-12.366-5.067c-2.128-.721-4.485-1.155-6.681-1.69-2.312-.379-4.523-.848-6.818-1.053a93.832,93.832,0,0,0-24.785.361,85.115,85.115,0,0,0-17.012,4.263,65.361,65.361,0,0,0-8.932,4.172l-2.081,1.221a6.262,6.262,0,0,1-.745.4,4.557,4.557,0,0,1,.638-.446l1.984-1.272a59.179,59.179,0,0,1,8.828-4.3,83.8,83.8,0,0,1,17.112-4.419,94.77,94.77,0,0,1,25.2-.467,73.334,73.334,0,0,1,26.46,7.886c7.815,4.134,14.154,9.4,20.281,15.009,6.207,5.588,11.981,11.691,20,17.3a78.325,78.325,0,0,0,13.765,7.815,63.015,63.015,0,0,0,18.269,5,60.394,60.394,0,0,0,10.36.182,58.1,58.1,0,0,0,9.823-1.563,69.866,69.866,0,0,0,16.192-6.3c9.349-5.013,15.895-10.928,22.365-16.412,6.4-5.514,12.719-10.761,20.246-15.021a112.975,112.975,0,0,1,24.1-9.889A139.223,139.223,0,0,1,658.9,318.6a149.74,149.74,0,0,1,19.072-.735c2.623.09,4.953.169,6.945.367,2,.158,3.693.287,5.025.485l3.05.4A10.255,10.255,0,0,1,694.014,319.273Z" transform="translate(-379.516 -317.823)" fill="#e0e0e0"/>
              </g>
            </g>
          </g>
          <g id="Grupo_3146" data-name="Grupo 3146">
            <g id="Grupo_3145" data-name="Grupo 3145">
              <g id="Grupo_3144" data-name="Grupo 3144">
                <path id="Trazado_12331" data-name="Trazado 12331" d="M368.227,394.717c-.273,0-.5-20.029-.5-44.731s.222-44.734.5-44.734.5,20.025.5,44.734S368.5,394.717,368.227,394.717Z" transform="translate(-367.732 -305.252)" fill="#e0e0e0"/>
              </g>
            </g>
          </g>
          <g id="Grupo_3149" data-name="Grupo 3149" transform="translate(8.067 89.206)">
            <g id="Grupo_3148" data-name="Grupo 3148">
              <g id="Grupo_3147" data-name="Grupo 3147">
                <path id="Trazado_12332" data-name="Trazado 12332" d="M695.883,356.864c0,.142-72.425.257-161.746.257-89.352,0-161.761-.115-161.761-.257s72.41-.259,161.761-.259C623.458,356.6,695.883,356.72,695.883,356.864Z" transform="translate(-372.376 -356.605)" fill="#e0e0e0"/>
              </g>
            </g>
          </g>
          <g id="Grupo_3152" data-name="Grupo 3152" transform="translate(13.086 94.733)">
            <g id="Grupo_3151" data-name="Grupo 3151">
              <g id="Grupo_3150" data-name="Grupo 3150">
                <path id="Trazado_12333" data-name="Trazado 12333" d="M393.182,360.046a77.887,77.887,0,0,1-8.958.259,77.86,77.86,0,0,1-8.958-.259,77.855,77.855,0,0,1,8.958-.259A77.883,77.883,0,0,1,393.182,360.046Z" transform="translate(-375.265 -359.787)" fill="#e0e0e0"/>
              </g>
            </g>
          </g>
          <g id="Grupo_3155" data-name="Grupo 3155" transform="translate(39.304 95.016)">
            <g id="Grupo_3154" data-name="Grupo 3154">
              <g id="Grupo_3153" data-name="Grupo 3153">
                <path id="Trazado_12334" data-name="Trazado 12334" d="M411.771,360.207c0,.142-4.794.259-10.706.259s-10.708-.116-10.708-.259,4.793-.257,10.708-.257S411.771,360.065,411.771,360.207Z" transform="translate(-390.358 -359.95)" fill="#e0e0e0"/>
              </g>
            </g>
          </g>
          <g id="Grupo_3158" data-name="Grupo 3158" transform="translate(64.65 95.016)">
            <g id="Grupo_3157" data-name="Grupo 3157">
              <g id="Grupo_3156" data-name="Grupo 3156">
                <path id="Trazado_12335" data-name="Trazado 12335" d="M426.361,360.207c0,.142-4.793.259-10.706.259s-10.706-.116-10.706-.259,4.793-.257,10.706-.257S426.361,360.065,426.361,360.207Z" transform="translate(-404.949 -359.95)" fill="#e0e0e0"/>
              </g>
            </g>
          </g>
          <g id="Grupo_3161" data-name="Grupo 3161" transform="translate(89.994 95.016)">
            <g id="Grupo_3160" data-name="Grupo 3160">
              <g id="Grupo_3159" data-name="Grupo 3159">
                <path id="Trazado_12336" data-name="Trazado 12336" d="M440.951,360.207c0,.142-4.793.259-10.7.259s-10.708-.116-10.708-.259,4.793-.257,10.708-.257S440.951,360.065,440.951,360.207Z" transform="translate(-419.539 -359.95)" fill="#e0e0e0"/>
              </g>
            </g>
          </g>
          <g id="Grupo_3164" data-name="Grupo 3164" transform="translate(115.339 95.016)">
            <g id="Grupo_3163" data-name="Grupo 3163">
              <g id="Grupo_3162" data-name="Grupo 3162">
                <path id="Trazado_12337" data-name="Trazado 12337" d="M455.542,360.207c0,.142-4.794.259-10.706.259s-10.708-.116-10.708-.259,4.793-.257,10.708-.257S455.542,360.065,455.542,360.207Z" transform="translate(-434.129 -359.95)" fill="#e0e0e0"/>
              </g>
            </g>
          </g>
          <g id="Grupo_3167" data-name="Grupo 3167" transform="translate(140.685 95.016)">
            <g id="Grupo_3166" data-name="Grupo 3166">
              <g id="Grupo_3165" data-name="Grupo 3165">
                <path id="Trazado_12338" data-name="Trazado 12338" d="M470.132,360.207c0,.142-4.793.259-10.706.259s-10.706-.116-10.706-.259,4.793-.257,10.706-.257S470.132,360.065,470.132,360.207Z" transform="translate(-448.72 -359.95)" fill="#e0e0e0"/>
              </g>
            </g>
          </g>
          <g id="Grupo_3170" data-name="Grupo 3170" transform="translate(166.029 95.016)">
            <g id="Grupo_3169" data-name="Grupo 3169">
              <g id="Grupo_3168" data-name="Grupo 3168">
                <path id="Trazado_12339" data-name="Trazado 12339" d="M484.722,360.207c0,.142-4.793.259-10.7.259s-10.708-.116-10.708-.259,4.793-.257,10.708-.257S484.722,360.065,484.722,360.207Z" transform="translate(-463.31 -359.95)" fill="#e0e0e0"/>
              </g>
            </g>
          </g>
          <g id="Grupo_3173" data-name="Grupo 3173" transform="translate(191.376 95.016)">
            <g id="Grupo_3172" data-name="Grupo 3172">
              <g id="Grupo_3171" data-name="Grupo 3171">
                <path id="Trazado_12340" data-name="Trazado 12340" d="M499.313,360.207c0,.142-4.794.259-10.706.259s-10.706-.116-10.706-.259,4.793-.257,10.706-.257S499.313,360.065,499.313,360.207Z" transform="translate(-477.901 -359.95)" fill="#e0e0e0"/>
              </g>
            </g>
          </g>
          <g id="Grupo_3176" data-name="Grupo 3176" transform="translate(216.72 95.016)">
            <g id="Grupo_3175" data-name="Grupo 3175">
              <g id="Grupo_3174" data-name="Grupo 3174">
                <path id="Trazado_12341" data-name="Trazado 12341" d="M513.9,360.207c0,.142-4.793.259-10.706.259s-10.706-.116-10.706-.259,4.793-.257,10.706-.257S513.9,360.065,513.9,360.207Z" transform="translate(-492.491 -359.95)" fill="#e0e0e0"/>
              </g>
            </g>
          </g>
          <g id="Grupo_3179" data-name="Grupo 3179" transform="translate(242.064 95.016)">
            <g id="Grupo_3178" data-name="Grupo 3178">
              <g id="Grupo_3177" data-name="Grupo 3177">
                <path id="Trazado_12342" data-name="Trazado 12342" d="M528.494,360.207c0,.142-4.794.259-10.706.259s-10.708-.116-10.708-.259,4.793-.257,10.708-.257S528.494,360.065,528.494,360.207Z" transform="translate(-507.081 -359.95)" fill="#e0e0e0"/>
              </g>
            </g>
          </g>
          <g id="Grupo_3182" data-name="Grupo 3182" transform="translate(265.637 95.02)">
            <g id="Grupo_3181" data-name="Grupo 3181">
              <g id="Grupo_3180" data-name="Grupo 3180">
                <path id="Trazado_12343" data-name="Trazado 12343" d="M542.064,360.211c0,.142-4.794.259-10.706.259s-10.708-.116-10.708-.259,4.793-.259,10.708-.259S542.064,360.068,542.064,360.211Z" transform="translate(-520.651 -359.952)" fill="#e0e0e0"/>
              </g>
            </g>
          </g>
          <g id="Grupo_3185" data-name="Grupo 3185" transform="translate(289.211 95.025)">
            <g id="Grupo_3184" data-name="Grupo 3184">
              <g id="Grupo_3183" data-name="Grupo 3183">
                <path id="Trazado_12344" data-name="Trazado 12344" d="M555.634,360.212c0,.144-4.794.259-10.706.259s-10.706-.115-10.706-.259,4.793-.257,10.706-.257S555.634,360.07,555.634,360.212Z" transform="translate(-534.222 -359.955)" fill="#e0e0e0"/>
              </g>
            </g>
          </g>
          <g id="Grupo_3188" data-name="Grupo 3188" transform="translate(312.784 95.029)">
            <g id="Grupo_3187" data-name="Grupo 3187">
              <g id="Grupo_3186" data-name="Grupo 3186">
                <path id="Trazado_12345" data-name="Trazado 12345" d="M569.2,360.216c0,.142-4.793.259-10.706.259s-10.706-.116-10.706-.259,4.793-.259,10.706-.259S569.2,360.073,569.2,360.216Z" transform="translate(-547.792 -359.957)" fill="#e0e0e0"/>
              </g>
            </g>
          </g>
          <g id="Grupo_3191" data-name="Grupo 3191" transform="translate(118.963 46.731)">
            <g id="Grupo_3190" data-name="Grupo 3190">
              <g id="Grupo_3189" data-name="Grupo 3189">
                <path id="Trazado_12346" data-name="Trazado 12346" d="M440.959,332.456a2.289,2.289,0,0,1,1.953,1.216,1.508,1.508,0,0,1-.373,1.814,3.249,3.249,0,0,1-1.76.773,5.839,5.839,0,0,1-2.453-.151c-1.48-.42-2.218-1.277-2.1-2,.1-.737.867-1.3,1.682-1.621a4.848,4.848,0,0,1,2.307-.3c.559.087.752.228.712.259a5.556,5.556,0,0,0-2.406.419,1.673,1.673,0,0,0-1.051,1.265c-.03.516.528,1.081,1.5,1.358a2.793,2.793,0,0,0,2.493-.33,1.419,1.419,0,0,0,.511-1.4C441.815,332.877,440.854,332.542,440.959,332.456Z" transform="translate(-436.216 -332.154)" fill="#e0e0e0"/>
              </g>
            </g>
          </g>
          <g id="Grupo_3194" data-name="Grupo 3194" transform="translate(278.292 23.719)">
            <g id="Grupo_3193" data-name="Grupo 3193">
              <g id="Grupo_3192" data-name="Grupo 3192">
                <path id="Trazado_12347" data-name="Trazado 12347" d="M532.223,319.132a2.013,2.013,0,0,1,1.046,0,4.437,4.437,0,0,1,2.154.971,1.7,1.7,0,0,1,.533,2.206c-.469.813-1.909,1.718-4.129,1.72a5.091,5.091,0,0,1-2.63-.716,2.788,2.788,0,0,1-1.11-1.223,1.77,1.77,0,0,1,.681-2.187,4.84,4.84,0,0,1,3.254-.959,7.539,7.539,0,0,0-2.432,1.212,1.422,1.422,0,0,0-.294,1.779,2.91,2.91,0,0,0,2.573,1.39,3.614,3.614,0,0,0,2.906-1.22,1.39,1.39,0,0,0-.2-1.772A5.109,5.109,0,0,0,532.223,319.132Z" transform="translate(-527.936 -318.906)" fill="#e0e0e0"/>
              </g>
            </g>
          </g>
        </g>
      </g>
      <g id="Grupo_3209" data-name="Grupo 3209" transform="translate(491.671 294.982)">
        <g id="Grupo_3200" data-name="Grupo 3200">
          <g id="Grupo_3197" data-name="Grupo 3197" transform="translate(20.102)">
            <path id="Trazado_12348" data-name="Trazado 12348" d="M473.892,298.083l-9.151-.129.347-24.917a33.324,33.324,0,0,0-66.648.064l-.347,24.981-9.153-.129.349-24.917a42.476,42.476,0,0,1,84.952.064Z" transform="translate(-388.94 -230.626)" fill="#263238"/>
          </g>
          <g id="Grupo_3198" data-name="Grupo 3198" transform="translate(0 55.314)">
            <rect id="Rectángulo_703" data-name="Rectángulo 703" width="126.819" height="123.904" rx="18.285" fill="#e8505b"/>
          </g>
          <g id="Grupo_3199" data-name="Grupo 3199" transform="translate(50.767 98.091)" opacity="0.3">
            <path id="Trazado_12349" data-name="Trazado 12349" d="M431.878,299.735a12.643,12.643,0,1,0-19.3,10.735l-3.238,14.974h20.738s-2.331-9.406-3.8-15.212A12.629,12.629,0,0,0,431.878,299.735Z" transform="translate(-406.593 -287.094)"/>
          </g>
        </g>
        <g id="Grupo_3202" data-name="Grupo 3202" transform="translate(7.158 77.14)" opacity="0.2">
          <g id="Grupo_3201" data-name="Grupo 3201">
            <path id="Trazado_12350" data-name="Trazado 12350" d="M382.45,339.544c-.823-.017-1.188-14.474-.815-32.286s1.343-32.243,2.166-32.225,1.186,14.47.813,32.288S383.272,339.561,382.45,339.544Z" transform="translate(-381.489 -275.033)" fill="#fff"/>
          </g>
        </g>
        <g id="Grupo_3204" data-name="Grupo 3204" transform="translate(6.68 149.659)" opacity="0.2">
          <g id="Grupo_3203" data-name="Grupo 3203">
            <path id="Trazado_12351" data-name="Trazado 12351" d="M382.745,323.1c-.822.01-1.508-1.4-1.53-3.142s.625-3.172,1.449-3.182,1.508,1.4,1.53,3.142S383.568,323.093,382.745,323.1Z" transform="translate(-381.214 -316.78)" fill="#fff"/>
          </g>
        </g>
        <g id="Grupo_3206" data-name="Grupo 3206" transform="translate(44.658 100.548)" opacity="0.2">
          <g id="Grupo_3205" data-name="Grupo 3205">
            <path id="Trazado_12352" data-name="Trazado 12352" d="M406.415,326.429c-.657-.215.889-6.8,3.585-15.57l.332,1.45c-1.216-1.218-2.489-2.493-3.818-3.893A13.938,13.938,0,0,1,403.1,300a12.945,12.945,0,0,1,1.687-7.145A11.223,11.223,0,0,1,408,289.227c.941-.65,1.567-.822,1.68-.664.3.363-1.643,1.893-3,5.22a12.228,12.228,0,0,0,2.046,12.634l3.681,3.889.611.646-.278.8C409.722,320.42,407.071,326.644,406.415,326.429Z" transform="translate(-403.076 -288.508)" fill="#fff"/>
          </g>
        </g>
        <g id="Grupo_3208" data-name="Grupo 3208" transform="translate(11.835 62.051)" opacity="0.2">
          <g id="Grupo_3207" data-name="Grupo 3207">
            <path id="Trazado_12353" data-name="Trazado 12353" d="M472.692,268.218c0,.412-5.067.745-13.254.954s-19.49.288-31.977.193c-6.245-.047-12.195-.134-17.6-.25-5.416-.062-10.3-.448-14.206-.04a18.314,18.314,0,0,0-8.679,2.932c-1.815,1.244-2.566,2.29-2.765,2.149-.144-.075.285-1.388,2.036-3.052a17.333,17.333,0,0,1,9.12-4.117,45.818,45.818,0,0,1,6.825-.535l7.69-.082c5.411-.035,11.361-.031,17.606.016,12.486.1,23.79.347,31.971.679S472.7,267.808,472.692,268.218Z" transform="translate(-384.181 -266.347)" fill="#fff"/>
          </g>
        </g>
      </g>
      <g id="Grupo_3210" data-name="Grupo 3210" transform="translate(345.679 286.648)">
        <path id="Trazado_12354" data-name="Trazado 12354" d="M330.361,230.9a17.315,17.315,0,1,1-24.488,0,17.313,17.313,0,0,1,24.488,0" transform="translate(-287.814 -225.828)" fill="#e0e0e0"/>
        <path id="Trazado_12355" data-name="Trazado 12355" d="M350.189,256.342a48.1,48.1,0,0,0-53.123,0,8.586,8.586,0,0,0-3.742,7.148v15h60.6v-15a8.585,8.585,0,0,0-3.74-7.148Z" transform="translate(-293.325 -209.232)" fill="#e0e0e0"/>
      </g>
      <rect id="Rectángulo_704" data-name="Rectángulo 704" width="124.995" height="115.981" transform="translate(313.485 264.938)" fill="none" stroke="#e0e0e0" stroke-miterlimit="10" stroke-width="0.75"/>
    </g>
    <g id="Grupo_3053" data-name="Grupo 3053" transform="translate(-470.223 130.849)">
      <g id="Grupo_2831" data-name="Grupo 2831" transform="translate(676.368 604.363)">
        <g id="Grupo_2800" data-name="Grupo 2800">
          <g id="Grupo_2799" data-name="Grupo 2799">
            <g id="Grupo_2798" data-name="Grupo 2798">
              <g id="Grupo_2797" data-name="Grupo 2797">
                <path id="Trazado_12237" data-name="Trazado 12237" d="M683.855,528.281l10.786-8.481-15.756-20.3-15.91,12.24.9,1.322c4.037,5.846,20.938,29.432,24.981,32.3C693.358,548.549,683.855,528.281,683.855,528.281Z" transform="translate(-662.975 -499.495)" fill="#bcbcbc"/>
              </g>
            </g>
          </g>
        </g>
        <g id="Grupo_2805" data-name="Grupo 2805" transform="translate(0.69 11.802)">
          <g id="Grupo_2804" data-name="Grupo 2804">
            <g id="Grupo_2803" data-name="Grupo 2803">
              <g id="Grupo_2802" data-name="Grupo 2802">
                <g id="Grupo_2801" data-name="Grupo 2801">
                  <path id="Trazado_12238" data-name="Trazado 12238" d="M689.995,541.3c.19-.15-5.6-7.83-12.926-17.15S663.642,507.4,663.45,507.549s5.6,7.826,12.927,17.15S689.8,541.455,689.995,541.3Z" transform="translate(-663.446 -507.547)" fill="#263238"/>
                </g>
              </g>
            </g>
          </g>
        </g>
        <g id="Grupo_2810" data-name="Grupo 2810" transform="translate(18.957 30.317)">
          <g id="Grupo_2809" data-name="Grupo 2809">
            <g id="Grupo_2808" data-name="Grupo 2808">
              <g id="Grupo_2807" data-name="Grupo 2807">
                <g id="Grupo_2806" data-name="Grupo 2806">
                  <path id="Trazado_12239" data-name="Trazado 12239" d="M675.909,520.732c.04.243.737.331,1.57.324s1.529-.111,1.564-.353-.667-.535-1.573-.525S675.87,520.5,675.909,520.732Z" transform="translate(-675.908 -520.178)" fill="#263238"/>
                </g>
              </g>
            </g>
          </g>
        </g>
        <g id="Grupo_2815" data-name="Grupo 2815" transform="translate(19.258 31.9)">
          <g id="Grupo_2814" data-name="Grupo 2814">
            <g id="Grupo_2813" data-name="Grupo 2813">
              <g id="Grupo_2812" data-name="Grupo 2812">
                <g id="Grupo_2811" data-name="Grupo 2811">
                  <path id="Trazado_12240" data-name="Trazado 12240" d="M676.117,522.078c.07.236.844.214,1.758.092s1.665-.309,1.67-.554-.8-.452-1.788-.317S676.047,521.849,676.117,522.078Z" transform="translate(-676.113 -521.257)" fill="#263238"/>
                </g>
              </g>
            </g>
          </g>
        </g>
        <g id="Grupo_2820" data-name="Grupo 2820" transform="translate(4.364 9.309)">
          <g id="Grupo_2819" data-name="Grupo 2819">
            <g id="Grupo_2818" data-name="Grupo 2818">
              <g id="Grupo_2817" data-name="Grupo 2817">
                <g id="Grupo_2816" data-name="Grupo 2816">
                  <path id="Trazado_12241" data-name="Trazado 12241" d="M667.142,514.368c.114.034.369-.427.66-1.222a9.023,9.023,0,0,0,.57-3.313,5.189,5.189,0,0,0-1.192-3.22c-.608-.677-1.171-.837-1.219-.742-.073.113.324.444.721,1.113a6.129,6.129,0,0,1,.812,2.883,16.3,16.3,0,0,1-.293,3.124C667.067,513.808,667.022,514.338,667.142,514.368Z" transform="translate(-665.952 -505.846)" fill="#263238"/>
                </g>
              </g>
            </g>
          </g>
        </g>
        <g id="Grupo_2825" data-name="Grupo 2825" transform="translate(18.777 27.871)">
          <g id="Grupo_2824" data-name="Grupo 2824">
            <g id="Grupo_2823" data-name="Grupo 2823">
              <g id="Grupo_2822" data-name="Grupo 2822">
                <g id="Grupo_2821" data-name="Grupo 2821">
                  <path id="Trazado_12242" data-name="Trazado 12242" d="M678.042,519.978c.091-.229-.353-.617-.928-.985s-1.118-.6-1.287-.424.16.75.816,1.165S677.956,520.2,678.042,519.978Z" transform="translate(-675.785 -518.509)" fill="#263238"/>
                </g>
              </g>
            </g>
          </g>
        </g>
        <g id="Grupo_2830" data-name="Grupo 2830" transform="translate(19.834 25.787)">
          <g id="Grupo_2829" data-name="Grupo 2829">
            <g id="Grupo_2828" data-name="Grupo 2828">
              <g id="Grupo_2827" data-name="Grupo 2827">
                <g id="Grupo_2826" data-name="Grupo 2826">
                  <path id="Trazado_12243" data-name="Trazado 12243" d="M678.5,519.5c.176-.167-.1-.825-.624-1.47s-1.105-1.055-1.306-.919.078.8.623,1.472S678.323,519.671,678.5,519.5Z" transform="translate(-676.506 -517.087)" fill="#263238"/>
                </g>
              </g>
            </g>
          </g>
        </g>
      </g>
      <g id="Grupo_2840" data-name="Grupo 2840" transform="translate(681.862 458.672)">
        <g id="Grupo_2833" data-name="Grupo 2833">
          <g id="Grupo_2832" data-name="Grupo 2832">
            <path id="Trazado_12244" data-name="Trazado 12244" d="M753.579,400.1s32.186,85.519,27.851,101.5-91.14,79.417-91.14,79.417L666.723,547.1s67.7-53.581,67.916-56.541-26.877-74.006-26.877-74.006Z" transform="translate(-666.723 -400.103)" fill="#263238"/>
          </g>
        </g>
        <g id="Grupo_2836" data-name="Grupo 2836" transform="translate(25.052 56.309)">
          <g id="Grupo_2835" data-name="Grupo 2835">
            <g id="Grupo_2834" data-name="Grupo 2834">
              <path id="Trazado_12245" data-name="Trazado 12245" d="M683.814,537.039a1.109,1.109,0,0,0,.3-.169l.85-.558,3.225-2.209c2.779-1.95,6.788-4.789,11.666-8.4,9.767-7.21,23.028-17.5,37.1-29.552,3.525-3.006,6.93-5.985,10.2-8.881l4.795-4.286a18.105,18.105,0,0,0,4.138-4.694,8.632,8.632,0,0,0,.608-5.941c-.377-1.889-.854-3.666-1.307-5.4-.925-3.452-1.85-6.645-2.694-9.56-1.677-5.775-3.042-10.472-4.009-13.8q-.662-2.375-1.051-3.763c-.11-.391-.2-.712-.274-.978a1.224,1.224,0,0,0-.12-.328,1.18,1.18,0,0,0,.041.346c.054.271.12.6.2,1,.189.874.494,2.158.91,3.8.834,3.291,2.142,8.027,3.77,13.872.809,2.923,1.7,6.124,2.6,9.573.435,1.722.9,3.517,1.256,5.358a7.928,7.928,0,0,1-.567,5.478,17.543,17.543,0,0,1-4,4.474l-4.8,4.268c-3.273,2.886-6.68,5.856-10.2,8.859-14.06,12.039-27.25,22.387-36.925,29.706-4.817,3.6-8.736,6.524-11.513,8.6q-1.979,1.471-3.138,2.329l-.8.623C683.893,536.949,683.805,537.028,683.814,537.039Z" transform="translate(-683.813 -438.518)" fill="#455a64"/>
            </g>
          </g>
        </g>
        <g id="Grupo_2839" data-name="Grupo 2839" transform="translate(12.302 138.075)">
          <g id="Grupo_2838" data-name="Grupo 2838">
            <g id="Grupo_2837" data-name="Grupo 2837">
              <path id="Trazado_12246" data-name="Trazado 12246" d="M695.726,521.387c.173-.132-4.3-6.3-9.99-13.78S675.293,494.17,675.12,494.3s4.3,6.3,9.991,13.782S695.552,521.517,695.726,521.387Z" transform="translate(-675.116 -494.299)" fill="#455a64"/>
            </g>
          </g>
        </g>
      </g>
      <g id="Grupo_2842" data-name="Grupo 2842" transform="translate(660.717 296.044)">
        <g id="Grupo_2841" data-name="Grupo 2841">
          <path id="Trazado_12247" data-name="Trazado 12247" d="M703.457,289.156c-2.87,5.753-4.387,10.733-10.091,13.7-2.57,1.335-5.705,2.1-7.254,4.546-1.687,2.663-.891,6.523-3.024,8.846-3.1,3.379-9.435.642-12.915,3.626-3.107,2.665-2.106,8.382-5.459,10.731-1.884,1.321-4.453,1.026-6.6,1.857-3.516,1.363-5.183,5.421-5.646,9.164a16,16,0,0,0,1.107,8.865,9.064,9.064,0,0,0,6.889,5.265c3.991.421,8.51-2.334,11.741.045a15.956,15.956,0,0,1,2.691,3.289,10.072,10.072,0,0,0,16.55-1.045c2.228-3.713,2.083-8.836,5.347-11.681,1.708-1.488,4.015-2.02,6.136-2.813s4.314-2.109,4.951-4.282c.619-2.111,1.847-3.456,3.069-5.284,1.633-2.441,3.807.541,5.966-.661s1.338-3.555,1.52-6.019" transform="translate(-652.297 -289.156)" fill="#263238"/>
        </g>
      </g>
      <g id="Grupo_2846" data-name="Grupo 2846" transform="translate(749.778 369.82)">
        <g id="Grupo_2845" data-name="Grupo 2845">
          <g id="Grupo_2844" data-name="Grupo 2844">
            <g id="Grupo_2843" data-name="Grupo 2843">
              <path id="Trazado_12248" data-name="Trazado 12248" d="M713.063,348.789l27.818-9.3s12.294,35.417,16.062,35.76c20.876,1.9,43.211-5.017,51.043-7.753.8-.893,1.7-1.964,2.715-3.278a12.466,12.466,0,0,0,1.964-3.75,19.1,19.1,0,0,0,1.118-5.158c-.044-1.624,1.91-2.458,2.814-1.29s1.133,5.642-.926,10.454,5.232.984,7.915-.363,11.178-5.126,12.247-4.631c1.566.73,1.073,2.54-1.637,3.823-2.744,1.3-10.569,5.7-9.789,7.087.768,1.362,14.333-5.683,14.333-5.683s2.656-1.974,3.61-.407c1.721,2.828-13.251,9.255-14.69,9.831-1,.4-.207,1.933.846,1.445,1.082-.5,13.365-7.342,15.146-4.48,1.365,2.2-12.266,5.4-14.026,8.235s10.091-3.481,11.309-1.33c.453.8.682,1.461-6.647,4.106a155.917,155.917,0,0,1-16.335,4.17l.026.076s-73.21,32.739-89,1.179C712.223,354.044,713.063,348.789,713.063,348.789Z" transform="translate(-713.056 -339.487)" fill="#e5baab"/>
            </g>
          </g>
        </g>
      </g>
      <g id="Grupo_2871" data-name="Grupo 2871" transform="translate(696.17 349.8)">
        <g id="Grupo_2850" data-name="Grupo 2850" transform="translate(4.3)">
          <g id="Grupo_2849" data-name="Grupo 2849">
            <g id="Grupo_2848" data-name="Grupo 2848">
              <g id="Grupo_2847" data-name="Grupo 2847">
                <path id="Trazado_12249" data-name="Trazado 12249" d="M701.228,325.829h0l-12.153.218L679.423,353.7l7.86,31.69c2.3,9.26-8.126,27.78-7.86,38l68.162,11.039,1.435-45.515.035-1.526,23.587-11.771-7.782-19.067c-11.976-28.054-32.89-29.762-32.89-29.762Z" transform="translate(-679.418 -325.829)" fill="#a5a5a5"/>
              </g>
            </g>
          </g>
        </g>
        <g id="Grupo_2854" data-name="Grupo 2854" transform="translate(4.3)">
          <g id="Grupo_2853" data-name="Grupo 2853">
            <g id="Grupo_2852" data-name="Grupo 2852">
              <g id="Grupo_2851" data-name="Grupo 2851">
                <path id="Trazado_12250" data-name="Trazado 12250" d="M701.228,325.829h0l-12.153.218L679.423,353.7l7.86,31.69c2.3,9.26-8.126,27.78-7.86,38l68.162,11.039,1.435-45.515.035-1.526,23.587-11.771-7.782-19.067c-11.976-28.054-32.89-29.762-32.89-29.762Z" transform="translate(-679.418 -325.829)" fill="#c9c9c9"/>
              </g>
            </g>
          </g>
        </g>
        <g id="Grupo_2857" data-name="Grupo 2857" transform="translate(13.455 0.291)">
          <g id="Grupo_2856" data-name="Grupo 2856">
            <g id="Grupo_2855" data-name="Grupo 2855">
              <path id="Trazado_12251" data-name="Trazado 12251" d="M685.663,326.034a1.383,1.383,0,0,0,.394.16,12.193,12.193,0,0,0,1.2.328,27.964,27.964,0,0,0,4.716.471l-.142-.277c-1.265,2.049-2.833,4.589-4.658,7.543l-.312.507.591-.1a29.509,29.509,0,0,1,8.162-.264l-.286-.353c-.317,2.87-.277,6.057-1.31,9.177l-.207.62.632-.161a32.99,32.99,0,0,0,8.881-3.25l-.578-.246c.55,2.728,1.126,5.585,1.715,8.508l.126.629.5-.4a40.387,40.387,0,0,0,6.57-6.608l-.551.064,7.8,6.149.484.383.123-.6,1.605-7.876-.471.265q4.417,1.55,8.332,2.92l.579.2-.158-.591c-.888-3.319-1.7-6.338-2.417-9.031l-.215.33,7.241-1.246.3-.053-.17-.248q-2.014-2.944-3.169-4.632l-.843-1.184a1.79,1.79,0,0,0-.317-.384,1.816,1.816,0,0,0,.229.441c.2.331.452.739.759,1.24l3.015,4.735.13-.3L726.68,334l-.287.044.072.286c.689,2.7,1.46,5.731,2.307,9.062l.421-.387-8.308-2.986-.387-.139-.084.4c-.528,2.523-1.077,5.151-1.646,7.867l.607-.22-7.782-6.17-.308-.243-.243.309a40.226,40.226,0,0,1-6.442,6.48l.627.227c-.595-2.921-1.178-5.778-1.734-8.5l-.107-.526-.469.28a32.716,32.716,0,0,1-8.645,3.2l.425.459c1.057-3.269.981-6.52,1.266-9.33l.034-.321-.318-.032a29.616,29.616,0,0,0-8.324.371l.279.4c1.766-2.987,3.283-5.557,4.509-7.631l.158-.268-.3-.009a33.252,33.252,0,0,1-4.705-.295C686.227,326.153,685.675,325.994,685.663,326.034Z" transform="translate(-685.663 -326.028)" fill="#455a64"/>
            </g>
          </g>
        </g>
        <g id="Grupo_2860" data-name="Grupo 2860" transform="translate(0 10.862)">
          <g id="Grupo_2859" data-name="Grupo 2859">
            <g id="Grupo_2858" data-name="Grupo 2858">
              <path id="Trazado_12252" data-name="Trazado 12252" d="M676.484,334.3c.016.032.473-.227,1.428-.5a8.448,8.448,0,0,1,4.3-.069l-.11-.164c-.286,1.612-.724,3.549-1.325,5.765s-1.34,4.718-1.995,7.536l-.1.419.416-.12c3.477-1.006,7.565-1.775,11.869-3.231l-.406-.321c-.444,4.183-.419,8.862-.671,13.776l-.022.428.429-.063a71.562,71.562,0,0,0,11.514-3.036c.46-.135,1.016-.32,1.142-.117a3.161,3.161,0,0,1,.646,1.195q.6,1.458,1.212,2.938,1.223,2.964,2.483,6.014l.249.605.412-.512,7.794-9.676.581-.72-.529.078,12.539,8.616.416.286.166-.476q2.12-6.1,4.1-11.8l-.548.186a71.512,71.512,0,0,0,13.947,7.021l.522.195-.076-.55c-.9-6.353-1.7-12.045-2.394-16.979l-.359.28a26.291,26.291,0,0,0,11.212,1.81l.252-.015-.088-.235c-1.136-3.043-2.018-5.4-2.637-7.064l-.7-1.81a3.2,3.2,0,0,0-.27-.6,3.28,3.28,0,0,0,.176.635c.154.462.356,1.07.613,1.843.581,1.672,1.407,4.054,2.471,7.124l.166-.248a26.291,26.291,0,0,1-11-1.928l-.419-.17.06.45c.655,4.938,1.412,10.637,2.256,17l.446-.355a71.762,71.762,0,0,1-13.779-7.018l-.393-.258-.155.446q-2,5.69-4.137,11.794l.582-.191-12.53-8.629-.3-.207-.229.284-.579.72-7.788,9.682.661.1q-1.264-3.045-2.493-6.008-.613-1.48-1.22-2.936a3.581,3.581,0,0,0-.887-1.5,1.117,1.117,0,0,0-.534-.236,1.829,1.829,0,0,0-.5.026,6.144,6.144,0,0,0-.8.213,71.872,71.872,0,0,1-11.4,3.055l.408.363c.23-4.953.177-9.6.586-13.757l.047-.478-.454.157c-4.249,1.475-8.31,2.276-11.815,3.332l.318.3c.619-2.8,1.335-5.312,1.892-7.546s.972-4.189,1.221-5.819l.02-.136-.13-.029a8.313,8.313,0,0,0-4.414.208A5.428,5.428,0,0,0,676.484,334.3Z" transform="translate(-676.484 -333.239)" fill="#455a64"/>
            </g>
          </g>
        </g>
        <g id="Grupo_2865" data-name="Grupo 2865" transform="translate(70.227 24.541)">
          <g id="Grupo_2864" data-name="Grupo 2864">
            <g id="Grupo_2863" data-name="Grupo 2863">
              <g id="Grupo_2862" data-name="Grupo 2862">
                <g id="Grupo_2861" data-name="Grupo 2861">
                  <path id="Trazado_12253" data-name="Trazado 12253" d="M727.7,379.253a4.168,4.168,0,0,0,1.464-.772,11.769,11.769,0,0,0,3.151-3.248,10.38,10.38,0,0,0,1.605-6.51,14.411,14.411,0,0,0-2.647-7.775,14.257,14.257,0,0,0-4.834-4.32l.208.284c-.564-4.179-1.074-7.772-1.469-10.315a25.808,25.808,0,0,0-.752-4.027,26.106,26.106,0,0,0,.29,4.091c.264,2.561.677,6.167,1.19,10.355l.022.182.183.1a14.091,14.091,0,0,1,7.087,11.466,10.048,10.048,0,0,1-1.356,6.173,12.889,12.889,0,0,1-2.864,3.3C728.167,378.9,727.669,379.2,727.7,379.253Z" transform="translate(-724.393 -342.571)" fill="#455a64"/>
                </g>
              </g>
            </g>
          </g>
        </g>
        <g id="Grupo_2870" data-name="Grupo 2870" transform="translate(70.905 25.823)">
          <g id="Grupo_2869" data-name="Grupo 2869">
            <g id="Grupo_2868" data-name="Grupo 2868">
              <g id="Grupo_2867" data-name="Grupo 2867">
                <g id="Grupo_2866" data-name="Grupo 2866">
                  <path id="Trazado_12254" data-name="Trazado 12254" d="M724.909,348.141c.195.1.866-.878,1.5-2.172s.989-2.42.793-2.517-.865.878-1.5,2.172S724.715,348.046,724.909,348.141Z" transform="translate(-724.856 -343.446)" fill="#455a64"/>
                </g>
              </g>
            </g>
          </g>
        </g>
      </g>
      <g id="Grupo_2875" data-name="Grupo 2875" transform="translate(721.004 287.89)">
        <g id="Grupo_2874" data-name="Grupo 2874">
          <g id="Grupo_2873" data-name="Grupo 2873">
            <g id="Grupo_2872" data-name="Grupo 2872">
              <path id="Trazado_12255" data-name="Trazado 12255" d="M695.521,345.9,693.426,298l19.02-14.409,17.291,8.453s.577,21.71,0,31.124-10.069,10.419-10.069,10.419.221,5.517.438,11.315a12.3,12.3,0,0,1-12.41,12.763h0A12.305,12.305,0,0,1,695.521,345.9Z" transform="translate(-693.426 -283.593)" fill="#e5baab"/>
            </g>
          </g>
        </g>
      </g>
      <g id="Grupo_2885" data-name="Grupo 2885" transform="translate(751.836 309.394)">
        <g id="Grupo_2879" data-name="Grupo 2879" transform="translate(1.186 1.568)">
          <g id="Grupo_2878" data-name="Grupo 2878">
            <g id="Grupo_2877" data-name="Grupo 2877">
              <g id="Grupo_2876" data-name="Grupo 2876">
                <path id="Trazado_12256" data-name="Trazado 12256" d="M717.68,300.538a1.206,1.206,0,1,1-1.206-1.2A1.206,1.206,0,0,1,717.68,300.538Z" transform="translate(-715.269 -299.333)" fill="#263238"/>
              </g>
            </g>
          </g>
        </g>
        <g id="Grupo_2884" data-name="Grupo 2884">
          <g id="Grupo_2883" data-name="Grupo 2883">
            <g id="Grupo_2882" data-name="Grupo 2882">
              <g id="Grupo_2881" data-name="Grupo 2881">
                <g id="Grupo_2880" data-name="Grupo 2880">
                  <path id="Trazado_12257" data-name="Trazado 12257" d="M719.224,299.723c-.157.157-1.047-.6-2.344-.67-1.3-.089-2.271.554-2.405.381-.067-.078.094-.365.52-.657a3.2,3.2,0,0,1,3.791.23C719.173,299.351,719.3,299.654,719.224,299.723Z" transform="translate(-714.46 -298.263)" fill="#263238"/>
                </g>
              </g>
            </g>
          </g>
        </g>
      </g>
      <g id="Grupo_2895" data-name="Grupo 2895" transform="translate(737.455 309.394)">
        <g id="Grupo_2889" data-name="Grupo 2889" transform="translate(1.605 1.568)">
          <g id="Grupo_2888" data-name="Grupo 2888">
            <g id="Grupo_2887" data-name="Grupo 2887">
              <g id="Grupo_2886" data-name="Grupo 2886">
                <path id="Trazado_12258" data-name="Trazado 12258" d="M708.154,300.538a1.2,1.2,0,1,1-1.2-1.2A1.2,1.2,0,0,1,708.154,300.538Z" transform="translate(-705.744 -299.333)" fill="#263238"/>
              </g>
            </g>
          </g>
        </g>
        <g id="Grupo_2894" data-name="Grupo 2894">
          <g id="Grupo_2893" data-name="Grupo 2893">
            <g id="Grupo_2892" data-name="Grupo 2892">
              <g id="Grupo_2891" data-name="Grupo 2891">
                <g id="Grupo_2890" data-name="Grupo 2890">
                  <path id="Trazado_12259" data-name="Trazado 12259" d="M709.413,299.723c-.155.157-1.045-.6-2.342-.67-1.3-.089-2.272.554-2.407.381-.066-.078.094-.365.522-.657a3.2,3.2,0,0,1,3.791.23C709.363,299.351,709.488,299.654,709.413,299.723Z" transform="translate(-704.649 -298.263)" fill="#263238"/>
                </g>
              </g>
            </g>
          </g>
        </g>
      </g>
      <g id="Grupo_2899" data-name="Grupo 2899" transform="translate(742.499 323.039)">
        <g id="Grupo_2898" data-name="Grupo 2898">
          <g id="Grupo_2897" data-name="Grupo 2897">
            <g id="Grupo_2896" data-name="Grupo 2896">
              <path id="Trazado_12260" data-name="Trazado 12260" d="M708.2,307.572a23.821,23.821,0,0,0,6.272,2.159,3.652,3.652,0,0,1-4.3,1.221C707.379,309.851,708.2,307.572,708.2,307.572Z" transform="translate(-708.09 -307.572)" fill="#fff"/>
            </g>
          </g>
        </g>
      </g>
      <g id="Grupo_2903" data-name="Grupo 2903" transform="translate(734.778 333.673)">
        <g id="Grupo_2902" data-name="Grupo 2902">
          <g id="Grupo_2901" data-name="Grupo 2901">
            <g id="Grupo_2900" data-name="Grupo 2900">
              <path id="Trazado_12261" data-name="Trazado 12261" d="M715.3,319.04a23.511,23.511,0,0,1-12.474-4.213s2.828,6.913,12.267,6.523Z" transform="translate(-702.823 -314.827)" fill="#d78776"/>
            </g>
          </g>
        </g>
      </g>
      <g id="Grupo_2907" data-name="Grupo 2907" transform="translate(692.292 281.566)">
        <g id="Grupo_2906" data-name="Grupo 2906">
          <g id="Grupo_2905" data-name="Grupo 2905">
            <g id="Grupo_2904" data-name="Grupo 2904">
              <path id="Trazado_12262" data-name="Trazado 12262" d="M675.161,327.075a6.767,6.767,0,0,0,3.412-.771,9.484,9.484,0,0,0,3.719-3.607,38.865,38.865,0,0,0,2.782-5.964c1.759-4.375,3.086-8.437,3.984-11.4.141-.469.27-.9.391-1.306.079-.5.161-.954.248-1.284,5.136-19.633,22.392-23.293,25.806-23.293,3.66,0,10.066-2.013,19.4,7.688a21.119,21.119,0,0,1,3.543,4.889,21.07,21.07,0,0,1,4.16,8.865c.569,2.867.328,4.68.218,4.673-.177.007-.207-1.778-.938-4.5a22.774,22.774,0,0,0-1.806-4.635,17.892,17.892,0,0,1-.957,10.844l-3.349-.922-11.989-4.079c1.089-3.714-.515-8.324-1.42-10.475l-.091-.082a18.735,18.735,0,0,1-15.85,15.391l-2.215,30.833c-15.939-3.407-15.576-24.734-15.475-29.066-.721,2.442-1.662,5.246-2.844,8.185a35.445,35.445,0,0,1-2.915,6.076,9.745,9.745,0,0,1-4.137,3.731,6.5,6.5,0,0,1-3.716.55c-.885-.17-1.306-.454-1.284-.494C673.864,326.851,674.322,327.018,675.161,327.075Z" transform="translate(-673.838 -279.279)" fill="#263238"/>
            </g>
          </g>
        </g>
      </g>
      <g id="Grupo_2912" data-name="Grupo 2912" transform="translate(746.674 310.495)">
        <g id="Grupo_2911" data-name="Grupo 2911">
          <g id="Grupo_2910" data-name="Grupo 2910">
            <g id="Grupo_2909" data-name="Grupo 2909">
              <g id="Grupo_2908" data-name="Grupo 2908">
                <path id="Trazado_12263" data-name="Trazado 12263" d="M711.162,310.33a8.838,8.838,0,0,1,2.124-.265c.33-.016.655-.065.724-.308a1.845,1.845,0,0,0-.185-1.048l-.888-2.688c-.617-1.913-1.148-3.653-1.507-4.921a8.7,8.7,0,0,1-.478-2.084,8.831,8.831,0,0,1,.83,1.971c.449,1.239,1.035,2.961,1.652,4.872q.446,1.418.852,2.7a2.1,2.1,0,0,1,.128,1.356.81.81,0,0,1-.553.468,2.193,2.193,0,0,1-.561.05A8.65,8.65,0,0,1,711.162,310.33Z" transform="translate(-710.938 -299.015)" fill="#263238"/>
              </g>
            </g>
          </g>
        </g>
      </g>
      <g id="Grupo_2922" data-name="Grupo 2922" transform="translate(712.242 313.831)">
        <g id="Grupo_2916" data-name="Grupo 2916">
          <g id="Grupo_2915" data-name="Grupo 2915">
            <g id="Grupo_2914" data-name="Grupo 2914">
              <g id="Grupo_2913" data-name="Grupo 2913">
                <path id="Trazado_12264" data-name="Trazado 12264" d="M695.209,308.878a11.67,11.67,0,0,0-.5-4.648,4.385,4.385,0,0,0-3.386-2.924,3.71,3.71,0,0,0-3.823,3.09,4.569,4.569,0,0,0,2.328,4.526,5.99,5.99,0,0,0,5.23.147" transform="translate(-687.449 -301.29)" fill="#e5baab"/>
              </g>
            </g>
          </g>
        </g>
        <g id="Grupo_2921" data-name="Grupo 2921" transform="translate(1.64 1.975)">
          <g id="Grupo_2920" data-name="Grupo 2920">
            <g id="Grupo_2919" data-name="Grupo 2919">
              <g id="Grupo_2918" data-name="Grupo 2918">
                <g id="Grupo_2917" data-name="Grupo 2917">
                  <path id="Trazado_12265" data-name="Trazado 12265" d="M691.944,306.879c-.057-.1-.51.128-1.174-.075a2.111,2.111,0,0,1-1.41-2,1.593,1.593,0,0,1,.336-1.255,1.418,1.418,0,0,1,1.026-.306c.705.063,1.2.251,1.243.13.029-.079-.318-.44-1.161-.679a1.857,1.857,0,0,0-1.58.306,2.157,2.157,0,0,0-.648,1.854,2.938,2.938,0,0,0,.7,1.76,2.189,2.189,0,0,0,1.387.734C691.594,307.44,692.02,306.938,691.944,306.879Z" transform="translate(-688.568 -302.637)" fill="#d78776"/>
                </g>
              </g>
            </g>
          </g>
        </g>
      </g>
      <g id="Grupo_2957" data-name="Grupo 2957" transform="translate(705.77 680.509)">
        <g id="Grupo_2926" data-name="Grupo 2926">
          <g id="Grupo_2925" data-name="Grupo 2925">
            <g id="Grupo_2924" data-name="Grupo 2924">
              <g id="Grupo_2923" data-name="Grupo 2923">
                <path id="Trazado_12266" data-name="Trazado 12266" d="M708.946,565.329v-13.72l-25.7-.166-.211,20.073,1.592.113c7.09.44,36.078,1.734,40.83.325C730.751,570.386,708.946,565.329,708.946,565.329Z" transform="translate(-683.033 -551.443)" fill="#bcbcbc"/>
              </g>
            </g>
          </g>
        </g>
        <g id="Grupo_2931" data-name="Grupo 2931" transform="translate(0.086 18.817)">
          <g id="Grupo_2930" data-name="Grupo 2930">
            <g id="Grupo_2929" data-name="Grupo 2929">
              <g id="Grupo_2928" data-name="Grupo 2928">
                <g id="Grupo_2927" data-name="Grupo 2927">
                  <path id="Trazado_12267" data-name="Trazado 12267" d="M726.035,564.72c0-.242-9.614-.44-21.471-.44s-21.471.2-21.471.44,9.611.44,21.471.44S726.035,564.961,726.035,564.72Z" transform="translate(-683.092 -564.28)" fill="#263238"/>
                </g>
              </g>
            </g>
          </g>
        </g>
        <g id="Grupo_2936" data-name="Grupo 2936" transform="translate(26.281 14.161)">
          <g id="Grupo_2935" data-name="Grupo 2935">
            <g id="Grupo_2934" data-name="Grupo 2934">
              <g id="Grupo_2933" data-name="Grupo 2933">
                <g id="Grupo_2932" data-name="Grupo 2932">
                  <path id="Trazado_12268" data-name="Trazado 12268" d="M701.047,563.628c.214.12.715-.375,1.224-1.033s.858-1.271.689-1.448-.833.193-1.385.912S700.836,563.514,701.047,563.628Z" transform="translate(-700.962 -561.104)" fill="#263238"/>
                </g>
              </g>
            </g>
          </g>
        </g>
        <g id="Grupo_2941" data-name="Grupo 2941" transform="translate(27.897 14.584)">
          <g id="Grupo_2940" data-name="Grupo 2940">
            <g id="Grupo_2939" data-name="Grupo 2939">
              <g id="Grupo_2938" data-name="Grupo 2938">
                <g id="Grupo_2937" data-name="Grupo 2937">
                  <path id="Trazado_12269" data-name="Trazado 12269" d="M702.173,564.4c.229.091.689-.532,1.158-1.324s.787-1.5.6-1.655-.849.35-1.354,1.208S701.949,564.312,702.173,564.4Z" transform="translate(-702.065 -561.392)" fill="#263238"/>
                </g>
              </g>
            </g>
          </g>
        </g>
        <g id="Grupo_2946" data-name="Grupo 2946" transform="translate(0.415 14.331)">
          <g id="Grupo_2945" data-name="Grupo 2945">
            <g id="Grupo_2944" data-name="Grupo 2944">
              <g id="Grupo_2943" data-name="Grupo 2943">
                <g id="Grupo_2942" data-name="Grupo 2942">
                  <path id="Trazado_12270" data-name="Trazado 12270" d="M690.73,566.053c.1-.07-.109-.556-.554-1.275a9.067,9.067,0,0,0-2.251-2.5,5.2,5.2,0,0,0-3.269-1.052c-.907.059-1.381.4-1.337.5.042.129.55.021,1.321.122a6.137,6.137,0,0,1,2.769,1.143,16.289,16.289,0,0,1,2.273,2.162C690.243,565.764,690.63,566.126,690.73,566.053Z" transform="translate(-683.316 -561.22)" fill="#263238"/>
                </g>
              </g>
            </g>
          </g>
        </g>
        <g id="Grupo_2951" data-name="Grupo 2951" transform="translate(23.966 13.993)">
          <g id="Grupo_2950" data-name="Grupo 2950">
            <g id="Grupo_2949" data-name="Grupo 2949">
              <g id="Grupo_2948" data-name="Grupo 2948">
                <g id="Grupo_2947" data-name="Grupo 2947">
                  <path id="Trazado_12271" data-name="Trazado 12271" d="M701.86,561.1c-.125-.213-.7-.1-1.349.12s-1.164.507-1.127.751.688.339,1.419.079S701.982,561.31,701.86,561.1Z" transform="translate(-699.383 -560.989)" fill="#263238"/>
                </g>
              </g>
            </g>
          </g>
        </g>
        <g id="Grupo_2956" data-name="Grupo 2956" transform="translate(22.969 12.361)">
          <g id="Grupo_2955" data-name="Grupo 2955">
            <g id="Grupo_2954" data-name="Grupo 2954">
              <g id="Grupo_2953" data-name="Grupo 2953">
                <g id="Grupo_2952" data-name="Grupo 2952">
                  <path id="Trazado_12272" data-name="Trazado 12272" d="M701.772,560.3c-.022-.242-.711-.431-1.539-.419s-1.514.217-1.53.46.674.43,1.542.419S701.8,560.539,701.772,560.3Z" transform="translate(-698.703 -559.876)" fill="#263238"/>
                </g>
              </g>
            </g>
          </g>
        </g>
      </g>
      <g id="Grupo_2962" data-name="Grupo 2962" transform="translate(700.366 447.683)">
        <g id="Grupo_2961" data-name="Grupo 2961">
          <g id="Grupo_2960" data-name="Grupo 2960">
            <g id="Grupo_2959" data-name="Grupo 2959">
              <g id="Grupo_2958" data-name="Grupo 2958">
                <path id="Trazado_12273" data-name="Trazado 12273" d="M733.618,401.244,747.7,403.6l-8.1,9.972c-2.329,46.95-1.766,92.424-3.915,115.1-.327,3.44-14.865,111.456-13.421,108.928l-42.806,1.785,12.776-108.477-6.057-96.342a51.008,51.008,0,0,1-5.359-37.626l1.063-4.332" transform="translate(-679.346 -392.606)" fill="#455a64"/>
              </g>
            </g>
          </g>
        </g>
      </g>
      <g id="Grupo_2995" data-name="Grupo 2995" transform="translate(634.223 332.131)">
        <g id="Grupo_2964" data-name="Grupo 2964" transform="translate(0 0)">
          <g id="Grupo_2963" data-name="Grupo 2963">
            <path id="Rectángulo_677" data-name="Rectángulo 677" d="M7.759,0H214.474a7.759,7.759,0,0,1,7.759,7.759V136.753a7.759,7.759,0,0,1-7.759,7.759H7.758A7.758,7.758,0,0,1,0,136.754V7.759A7.759,7.759,0,0,1,7.759,0Z" transform="translate(0 106.901) rotate(-28.753)" fill="#e8505b"/>
          </g>
        </g>
        <g id="Grupo_2966" data-name="Grupo 2966" transform="translate(153.512 37.259)">
          <g id="Grupo_2965" data-name="Grupo 2965">
            <path id="Trazado_12274" data-name="Trazado 12274" d="M767.74,347.157a15.338,15.338,0,1,1-20.826-6.07A15.34,15.34,0,0,1,767.74,347.157Z" transform="translate(-738.951 -339.193)" fill="#fff"/>
          </g>
        </g>
        <g id="Grupo_2968" data-name="Grupo 2968" transform="translate(168.958 27.619)">
          <g id="Grupo_2967" data-name="Grupo 2967">
            <path id="Trazado_12275" data-name="Trazado 12275" d="M776.988,360.075a16.156,16.156,0,0,1-3.66,2.741,16,16,0,1,1,3.66-2.741ZM755.255,338.4a14.608,14.608,0,1,0,3.317-2.483A14.654,14.654,0,0,0,755.255,338.4Z" transform="translate(-749.488 -332.617)" fill="#fff"/>
          </g>
        </g>
        <g id="Grupo_2984" data-name="Grupo 2984" transform="translate(58.045 89.109)">
          <g id="Grupo_2969" data-name="Grupo 2969" transform="translate(0 89.327)">
            <path id="Trazado_12276" data-name="Trazado 12276" d="M677.484,435.506l5.934,10.815-1.111.611-5.391-9.827-2.549,1.4-.544-.988Z" transform="translate(-673.822 -435.506)" fill="#fff"/>
          </g>
          <g id="Grupo_2970" data-name="Grupo 2970" transform="translate(7.671 84.663)">
            <path id="Trazado_12277" data-name="Trazado 12277" d="M691.561,440.713l.544.988-7.587,4.161-.432-.786,2.081-6.87c.559-1.878.391-2.731-.016-3.471-.686-1.253-1.989-1.542-3.644-.636a4.182,4.182,0,0,0-2.291,2.826l-1.161-.248a5.555,5.555,0,0,1,2.984-3.648c2.194-1.2,4.2-.853,5.188.956.569,1.035.753,2.139.081,4.358l-1.695,5.635Z" transform="translate(-679.055 -432.324)" fill="#fff"/>
          </g>
          <g id="Grupo_2971" data-name="Grupo 2971" transform="translate(20.725 78.298)">
            <path id="Trazado_12278" data-name="Trazado 12278" d="M697.782,434.632l-2.164,1.187,1.561,2.844-1.115.61-1.56-2.842-6.1,3.348-.441-.8,1.8-10.315,1.237-.679L689.3,438l4.7-2.577-1.373-2.5,1.082-.594,1.375,2.5,2.165-1.186Z" transform="translate(-687.961 -427.982)" fill="#fff"/>
          </g>
          <g id="Grupo_2972" data-name="Grupo 2972" transform="translate(37.301 69.204)">
            <path id="Trazado_12279" data-name="Trazado 12279" d="M709.09,428.428l-2.165,1.187,1.561,2.842-1.114.611-1.56-2.842-6.1,3.348-.441-.8,1.8-10.316,1.237-.677-1.7,10.02,4.7-2.577-1.373-2.5,1.08-.594,1.375,2.5,2.164-1.187Z" transform="translate(-699.269 -421.778)" fill="#fff"/>
          </g>
          <g id="Grupo_2973" data-name="Grupo 2973" transform="translate(45.709 63.008)">
            <path id="Trazado_12280" data-name="Trazado 12280" d="M715.685,424.871c1.008,1.84.515,3.981-2.13,5.431a6.382,6.382,0,0,1-4.639.737l.056-1.179a5.35,5.35,0,0,0,4.009-.57c1.84-1.011,2.322-2.441,1.6-3.755-.762-1.39-2.1-1.781-4.853-.271l-2.3,1.264-2.42-5.73,5.919-3.247.544.989-4.946,2.713,1.519,3.65,1.391-.764C712.693,422.352,714.632,422.954,715.685,424.871Z" transform="translate(-705.005 -417.551)" fill="#fff"/>
          </g>
          <g id="Grupo_2974" data-name="Grupo 2974" transform="translate(56.71 57.66)">
            <path id="Trazado_12281" data-name="Trazado 12281" d="M722.851,420.659c1.111,2.024.233,4.2-1.869,5.35-2.874,1.577-5.529.438-7.4-2.976-2.018-3.678-1.061-6.7,1.873-8.308a5.679,5.679,0,0,1,2.888-.819l.044,1.142a4.356,4.356,0,0,0-2.381.642c-2.334,1.281-3.011,3.6-1.4,6.539.136.248.321.547.529.853a3.948,3.948,0,0,1,2.291-3.668C719.572,418.236,721.768,418.682,722.851,420.659Zm-1.08.632c-.78-1.422-2.331-1.756-4-.84s-2.224,2.546-1.486,3.89c.654,1.19,2.262,1.777,4.134.751A2.7,2.7,0,0,0,721.771,421.291Z" transform="translate(-712.51 -413.902)" fill="#fff"/>
          </g>
          <g id="Grupo_2975" data-name="Grupo 2975" transform="translate(70.317 48.938)">
            <path id="Trazado_12282" data-name="Trazado 12282" d="M733.395,415.435c.992,1.809.443,3.921-2.169,5.353a6.431,6.431,0,0,1-4.657.746l.056-1.178a5.4,5.4,0,0,0,4.04-.589c1.793-.982,2.325-2.36,1.586-3.7-.712-1.3-2.09-1.648-4.1-.545l-.772.424-.45-.821.938-5.4-5.532,3.036-.542-.989,6.952-3.817.432.789-.945,5.528C730.616,413.12,732.445,413.7,733.395,415.435Z" transform="translate(-721.793 -407.952)" fill="#fff"/>
          </g>
          <g id="Grupo_2976" data-name="Grupo 2976" transform="translate(82.351 43.591)">
            <path id="Trazado_12283" data-name="Trazado 12283" d="M740.346,411.061c1.111,2.023.232,4.2-1.87,5.35-2.875,1.576-5.531.438-7.4-2.976-2.018-3.679-1.058-6.7,1.876-8.308a5.66,5.66,0,0,1,2.888-.819l.044,1.14a4.341,4.341,0,0,0-2.382.643c-2.332,1.281-3.009,3.6-1.4,6.538.136.248.32.547.529.855a3.94,3.94,0,0,1,2.29-3.666C737.067,408.638,739.263,409.084,740.346,411.061Zm-1.082.632c-.78-1.422-2.33-1.756-4-.84s-2.223,2.546-1.486,3.889c.654,1.192,2.262,1.777,4.131.751C739.472,414.636,740.054,413.131,739.264,411.693Z" transform="translate(-730.003 -404.304)" fill="#fff"/>
          </g>
          <g id="Grupo_2977" data-name="Grupo 2977" transform="translate(90.538 37.301)">
            <path id="Trazado_12284" data-name="Trazado 12284" d="M743.531,400.013l.432.789.975,12.512-1.205.661-.942-12.269-5.563,3.053,1.111,2.023-1.1.6-1.652-3.012Z" transform="translate(-735.588 -400.013)" fill="#fff"/>
          </g>
          <g id="Grupo_2978" data-name="Grupo 2978" transform="translate(105.999 28.818)">
            <path id="Trazado_12285" data-name="Trazado 12285" d="M754.079,394.226l.432.789.973,12.511-1.2.661-.941-12.269-5.563,3.053,1.11,2.024-1.1.6-1.653-3.014Z" transform="translate(-746.136 -394.226)" fill="#fff"/>
          </g>
          <g id="Grupo_2979" data-name="Grupo 2979" transform="translate(117.73 24.41)">
            <path id="Trazado_12286" data-name="Trazado 12286" d="M765.276,397.589c1.051,1.916.082,4-2.5,5.413s-4.826,1.1-5.875-.818a3.079,3.079,0,0,1,.626-3.8,2.78,2.78,0,0,1-3-1.447c-.967-1.76-.072-3.682,2.215-4.935s4.419-1,5.387.764a2.794,2.794,0,0,1-.425,3.329A3.109,3.109,0,0,1,765.276,397.589Zm-1.152.611c-.729-1.328-2.331-1.535-4.246-.482s-2.587,2.5-1.859,3.833,2.325,1.56,4.241.509S764.863,399.545,764.124,398.2Zm-4.73-1.365c1.684-.925,2.275-2.232,1.63-3.408-.67-1.22-2.145-1.375-3.767-.485-1.639.9-2.265,2.209-1.6,3.414C756.3,397.545,757.708,397.761,759.394,396.836Z" transform="translate(-754.139 -391.219)" fill="#fff"/>
          </g>
          <g id="Grupo_2980" data-name="Grupo 2980" transform="translate(128.251 18.856)">
            <path id="Trazado_12287" data-name="Trazado 12287" d="M771.072,391.1c2.018,3.678,1.061,6.7-1.875,8.308a5.671,5.671,0,0,1-2.888.819l-.044-1.143a4.31,4.31,0,0,0,2.382-.642c2.332-1.28,3.009-3.6,1.4-6.538-.135-.248-.321-.548-.529-.855a3.95,3.95,0,0,1-2.291,3.669c-2.147,1.177-4.342.733-5.427-1.246-1.111-2.023-.231-4.2,1.87-5.349C766.543,386.552,769.2,387.688,771.072,391.1Zm-2.709-1.309c-.651-1.189-2.26-1.775-4.132-.748a2.7,2.7,0,0,0-1.353,3.795c.781,1.423,2.332,1.759,4,.844C768.532,392.779,769.1,391.14,768.364,389.794Z" transform="translate(-761.316 -387.43)" fill="#fff"/>
          </g>
          <g id="Grupo_2981" data-name="Grupo 2981" transform="translate(142.394 11.197)">
            <path id="Trazado_12288" data-name="Trazado 12288" d="M774.627,382.2l5.935,10.816-1.113.61-5.39-9.827-2.551,1.4-.544-.988Z" transform="translate(-770.965 -382.205)" fill="#fff"/>
          </g>
          <g id="Grupo_2982" data-name="Grupo 2982" transform="translate(150.063 6.534)">
            <path id="Trazado_12289" data-name="Trazado 12289" d="M788.7,387.411l.542.989-7.586,4.161-.432-.786,2.08-6.872c.558-1.876.391-2.729-.015-3.471-.686-1.252-1.992-1.542-3.646-.635a4.184,4.184,0,0,0-2.29,2.826l-1.162-.248a5.55,5.55,0,0,1,2.986-3.648c2.193-1.2,4.194-.855,5.186.954.569,1.035.752,2.14.081,4.358l-1.694,5.635Z" transform="translate(-776.197 -379.024)" fill="#fff"/>
          </g>
          <g id="Grupo_2983" data-name="Grupo 2983" transform="translate(159.51)">
            <path id="Trazado_12290" data-name="Trazado 12290" d="M794.244,382.047c.992,1.809.443,3.92-2.169,5.353a6.414,6.414,0,0,1-4.657.746l.056-1.18a5.4,5.4,0,0,0,4.041-.586c1.791-.984,2.323-2.36,1.586-3.7-.714-1.3-2.092-1.648-4.1-.545l-.772.424-.45-.821.94-5.4-5.533,3.036-.542-.991,6.952-3.814.432.789-.947,5.528C791.465,379.732,793.294,380.316,794.244,382.047Z" transform="translate(-782.642 -374.566)" fill="#fff"/>
          </g>
        </g>
        <g id="Grupo_2986" data-name="Grupo 2986" transform="translate(152.22 105.792)">
          <g id="Grupo_2985" data-name="Grupo 2985" transform="translate(0 0)">
            <rect id="Rectángulo_678" data-name="Rectángulo 678" width="98.815" height="5.357" transform="matrix(0.877, -0.481, 0.481, 0.877, 0, 47.54)" fill="#fff"/>
          </g>
        </g>
        <g id="Grupo_2988" data-name="Grupo 2988" transform="translate(199.564 115.172)">
          <g id="Grupo_2987" data-name="Grupo 2987" transform="translate(0 0)">
            <rect id="Rectángulo_679" data-name="Rectángulo 679" width="50.681" height="5.358" transform="translate(0 24.382) rotate(-28.756)" fill="#fff"/>
          </g>
        </g>
        <g id="Grupo_2990" data-name="Grupo 2990" transform="translate(35.121 125.688)">
          <g id="Grupo_2989" data-name="Grupo 2989" transform="translate(0 0)">
            <path id="Rectángulo_680" data-name="Rectángulo 680" d="M4.964,0H36.5a4.963,4.963,0,0,1,4.963,4.963V26.01A4.964,4.964,0,0,1,36.5,30.974H4.964A4.964,4.964,0,0,1,0,26.01V4.964A4.964,4.964,0,0,1,4.964,0Z" transform="translate(0 19.945) rotate(-28.752)" fill="#263238"/>
          </g>
        </g>
        <g id="Grupo_2992" data-name="Grupo 2992" transform="translate(39.686 142.889)">
          <g id="Grupo_2991" data-name="Grupo 2991">
            <path id="Trazado_12291" data-name="Trazado 12291" d="M667.506,433.638l-.954-1.743,18.716-10.268a4.468,4.468,0,0,0-4.3-7.835l-18.717,10.269-.954-1.743,18.716-10.268a6.455,6.455,0,1,1,6.211,11.318Z" transform="translate(-661.297 -411.256)" fill="#fff"/>
          </g>
        </g>
        <g id="Grupo_2994" data-name="Grupo 2994" transform="translate(27.154 69.644)">
          <g id="Grupo_2993" data-name="Grupo 2993" transform="translate(0 0)">
            <rect id="Rectángulo_681" data-name="Rectángulo 681" width="106.632" height="9.151" transform="translate(0 51.288) rotate(-28.75)" fill="#fff"/>
          </g>
        </g>
      </g>
      <g id="Grupo_2997" data-name="Grupo 2997" transform="translate(717.529 274.369)">
        <g id="Grupo_2996" data-name="Grupo 2996">
          <path id="Trazado_12292" data-name="Trazado 12292" d="M698.664,286.78a7.2,7.2,0,0,0,4.395-4.893,6.329,6.329,0,0,0-1.941-6.2,5.652,5.652,0,0,0-6.381-.6,8.086,8.086,0,0,0-3.171,4.45,6.463,6.463,0,0,0-.384,3.646,5.363,5.363,0,0,0,3.947,3.558,15.792,15.792,0,0,0,5.541.149" transform="translate(-691.055 -274.369)" fill="#263238"/>
        </g>
      </g>
      <g id="Grupo_3000" data-name="Grupo 3000" transform="translate(686.935 285.794)">
        <g id="Grupo_2999" data-name="Grupo 2999">
          <g id="Grupo_2998" data-name="Grupo 2998">
            <path id="Trazado_12293" data-name="Trazado 12293" d="M670.606,309.273a4.614,4.614,0,0,1-.088-1.917,4.349,4.349,0,0,1,1.022-1.96,5.189,5.189,0,0,1,2.521-1.453,10.847,10.847,0,0,1,3.621-.258c1.327.085,2.751.321,4.3.356a8.465,8.465,0,0,0,4.77-1.13c1.567-.957,2.325-2.775,2.851-4.408a23.423,23.423,0,0,1,4.694-8.42,24.933,24.933,0,0,1,6.071-5.069,34.575,34.575,0,0,1,6.776-2.838c-.006-.028-.183-.013-.519.038a12.157,12.157,0,0,0-1.454.3,21.142,21.142,0,0,0-5.079,2.021,24.236,24.236,0,0,0-6.34,5.073,23.5,23.5,0,0,0-4.893,8.645c-.532,1.642-1.2,3.2-2.526,4.013A7.846,7.846,0,0,1,682,303.319c-1.482-.013-2.911-.224-4.276-.284a11.132,11.132,0,0,0-3.813.375,5.539,5.539,0,0,0-2.7,1.7,4.52,4.52,0,0,0-.991,2.194,3.175,3.175,0,0,0,.138,1.508C670.47,309.14,670.59,309.282,670.606,309.273Z" transform="translate(-670.183 -282.163)" fill="#263238"/>
          </g>
        </g>
      </g>
      <g id="Grupo_3003" data-name="Grupo 3003" transform="translate(713.739 320.682)">
        <g id="Grupo_3002" data-name="Grupo 3002">
          <g id="Grupo_3001" data-name="Grupo 3001">
            <path id="Trazado_12294" data-name="Trazado 12294" d="M689.166,306.612c-.048-.073-.708.487-.7,1.753a2.778,2.778,0,0,0,.887,1.964,2.969,2.969,0,0,0,4.688-.77,2.787,2.787,0,0,0,.213-2.146c-.394-1.2-1.2-1.521-1.221-1.436-.088.089.5.551.68,1.567a2.366,2.366,0,0,1-.3,1.658,2.346,2.346,0,0,1-3.578.586,2.363,2.363,0,0,1-.815-1.473A6.772,6.772,0,0,1,689.166,306.612Z" transform="translate(-688.47 -305.964)" fill="#e0e0e0"/>
          </g>
        </g>
      </g>
      <g id="Grupo_3006" data-name="Grupo 3006" transform="translate(718.219 282.438)">
        <g id="Grupo_3005" data-name="Grupo 3005">
          <g id="Grupo_3004" data-name="Grupo 3004">
            <path id="Trazado_12295" data-name="Trazado 12295" d="M691.539,286.061c.183.16,2.07-2.218,5.3-3.9,3.2-1.724,6.23-1.944,6.2-2.186.034-.192-3.178-.324-6.57,1.492C693.059,283.251,691.36,285.982,691.539,286.061Z" transform="translate(-691.526 -279.874)" fill="#e8505b"/>
          </g>
        </g>
      </g>
      <g id="Grupo_3009" data-name="Grupo 3009" transform="translate(711.968 319.468)">
        <g id="Grupo_3008" data-name="Grupo 3008">
          <g id="Grupo_3007" data-name="Grupo 3007">
            <path id="Trazado_12296" data-name="Trazado 12296" d="M688.055,305.2c0-.1-.415-.136-.679.347a1.046,1.046,0,0,0-.013.928,1.143,1.143,0,0,0,1,.61,1.193,1.193,0,0,0,1.256-1.331c-.067-.494-.355-.67-.43-.608-.1.06-.044.3-.126.591a.667.667,0,0,1-.671.563.475.475,0,0,1-.488-.566C687.914,305.458,688.086,305.309,688.055,305.2Z" transform="translate(-687.261 -305.136)" fill="#e0e0e0"/>
          </g>
        </g>
      </g>
      <g id="Grupo_3012" data-name="Grupo 3012" transform="translate(722.629 348.726)">
        <g id="Grupo_3011" data-name="Grupo 3011">
          <g id="Grupo_3010" data-name="Grupo 3010">
            <path id="Trazado_12297" data-name="Trazado 12297" d="M694.7,325.1a4.348,4.348,0,0,0-.164,1.583,12.274,12.274,0,0,0,.854,4.264,13.088,13.088,0,0,0,3.778,5.245,13.015,13.015,0,0,0,15.039.907,13.108,13.108,0,0,0,4.38-4.754,12.23,12.23,0,0,0,1.36-4.131,4.338,4.338,0,0,0,.028-1.59,17.274,17.274,0,0,1-1.872,5.448,13.014,13.014,0,0,1-4.283,4.414,12.57,12.57,0,0,1-14.195-.856,13.016,13.016,0,0,1-3.722-4.9A17.3,17.3,0,0,1,694.7,325.1Z" transform="translate(-694.535 -325.096)" fill="#455a64"/>
          </g>
        </g>
      </g>
      <g id="Grupo_3015" data-name="Grupo 3015" transform="translate(725.858 529.354)">
        <g id="Grupo_3014" data-name="Grupo 3014">
          <g id="Grupo_3013" data-name="Grupo 3013">
            <path id="Trazado_12298" data-name="Trazado 12298" d="M696.747,603.615a1.628,1.628,0,0,0,.085-.394c.045-.309.1-.693.173-1.17.144-1.089.34-2.593.591-4.5.5-3.911,1.168-9.578,1.945-16.586,1.558-14.015,3.478-33.4,5.205-54.849s2.92-40.9,3.619-54.986c.353-7.042.6-12.742.729-16.682.059-1.923.1-3.44.136-4.538.006-.481.012-.869.016-1.181a1.575,1.575,0,0,0-.022-.4,1.552,1.552,0,0,0-.059.4c-.025.311-.056.7-.094,1.177-.069,1.1-.163,2.611-.283,4.531-.234,4-.567,9.676-.978,16.666-.84,14.073-2.128,33.507-3.848,54.954s-3.558,40.827-4.975,54.854c-.711,6.966-1.289,12.625-1.7,16.609-.188,1.916-.337,3.426-.444,4.519-.04.479-.07.866-.1,1.177A1.466,1.466,0,0,0,696.747,603.615Z" transform="translate(-696.738 -448.323)" fill="#263238"/>
          </g>
        </g>
      </g>
      <g id="Grupo_3018" data-name="Grupo 3018" transform="translate(701.945 684.484)">
        <g id="Grupo_3017" data-name="Grupo 3017">
          <g id="Grupo_3016" data-name="Grupo 3016">
            <path id="Trazado_12299" data-name="Trazado 12299" d="M680.424,554.422a6.8,6.8,0,0,0,1.64.229c1.057.1,2.591.2,4.488.287,3.794.186,9.043.273,14.834.183s11.032-.267,14.824-.412l4.488-.211a6.753,6.753,0,0,0,1.645-.182,6.744,6.744,0,0,0-1.651-.123c-1.061-.029-2.6-.041-4.494-.038-3.795,0-9.037.1-14.822.18s-11.019.091-14.808.048l-4.491-.04A6.722,6.722,0,0,0,680.424,554.422Z" transform="translate(-680.424 -554.155)" fill="#263238"/>
          </g>
        </g>
      </g>
      <g id="Grupo_3022" data-name="Grupo 3022" transform="translate(693.531 381.899)">
        <g id="Grupo_3021" data-name="Grupo 3021">
          <g id="Grupo_3020" data-name="Grupo 3020">
            <g id="Grupo_3019" data-name="Grupo 3019">
              <path id="Trazado_12300" data-name="Trazado 12300" d="M674.754,364.263,699.9,347.727s12.294,35.417,16.063,35.76c20.875,1.9,43.211-5.017,51.043-7.753.8-.893,1.7-1.966,2.715-3.278a12.524,12.524,0,0,0,1.964-3.751,19.059,19.059,0,0,0,1.117-5.157c-.044-1.624,1.91-2.458,2.814-1.29s1.135,5.642-.926,10.454,5.233.984,7.917-.364,11.178-5.126,12.245-4.631c1.565.73,1.074,2.54-1.637,3.823-2.743,1.3-10.567,5.7-9.787,7.087.768,1.362,14.333-5.683,14.333-5.683s2.655-1.974,3.609-.408c1.722,2.828-13.25,9.255-14.689,9.831-1,.4-.207,1.933.844,1.445,1.083-.5,13.367-7.342,15.146-4.48,1.366,2.2-12.266,5.4-14.025,8.235s10.091-3.481,11.309-1.329c.453.8.682,1.461-6.648,4.106a156.031,156.031,0,0,1-16.335,4.17l.026.076s-74.845,33.5-89,1.178C672.919,361.349,674.754,364.263,674.754,364.263Z" transform="translate(-674.684 -347.727)" fill="#e5baab"/>
            </g>
          </g>
        </g>
      </g>
      <g id="Grupo_3027" data-name="Grupo 3027" transform="translate(689.493 350.019)">
        <g id="Grupo_3026" data-name="Grupo 3026">
          <g id="Grupo_3025" data-name="Grupo 3025">
            <g id="Grupo_3024" data-name="Grupo 3024">
              <g id="Grupo_3023" data-name="Grupo 3023">
                <path id="Trazado_12301" data-name="Trazado 12301" d="M692.563,325.978s-22.874,2.7-20.455,29.9a132.854,132.854,0,0,0,13.933,48.244l29.985-15.744A185.723,185.723,0,0,1,700.9,345.953l-8.341-19.975Z" transform="translate(-671.929 -325.978)" fill="#c9c9c9"/>
              </g>
            </g>
          </g>
        </g>
      </g>
      <g id="Grupo_3030" data-name="Grupo 3030" transform="translate(709.624 350.071)">
        <g id="Grupo_3029" data-name="Grupo 3029">
          <g id="Grupo_3028" data-name="Grupo 3028">
            <path id="Trazado_12302" data-name="Trazado 12302" d="M685.663,326.04c-.051.183,2.489.86,6.3,1.126l-.277-.532c-.869,1.412-1.816,2.952-2.822,4.584-.622,1.042-1.221,2.046-1.787,2.993l-.428.718.816-.155c4.677-.891,8.166-.476,8.175-.686a6.628,6.628,0,0,0-2.325-.38,25.721,25.721,0,0,0-5.984.327l.387.563c.573-.938,1.183-1.936,1.816-2.971.976-1.646,1.9-3.2,2.742-4.626l.3-.507-.579-.025c-1.885-.078-3.473-.2-4.579-.3A8.431,8.431,0,0,0,685.663,326.04Z" transform="translate(-685.662 -326.014)" fill="#455a64"/>
          </g>
        </g>
      </g>
      <g id="Grupo_3033" data-name="Grupo 3033" transform="translate(696.17 360.756)">
        <g id="Grupo_3032" data-name="Grupo 3032">
          <g id="Grupo_3031" data-name="Grupo 3031">
            <path id="Trazado_12303" data-name="Trazado 12303" d="M676.484,334.267c.022.128,2.128-.39,5.775-.478l-.24-.281c-.866,3.442-2.018,8.017-3.345,13.289l-.155.617.605-.167,9.321-2.559,2.542-.705-.5-.391c-.205,5.056-.4,9.74-.561,13.771l-.019.444.412-.116c3.613-1.011,6.655-1.863,8.949-2.507l2.476-.746a3.211,3.211,0,0,0,.855-.327,3.331,3.331,0,0,0-.907.139l-2.518.573-8.99,2.232.391.33c.2-4.028.441-8.71.7-13.763l.026-.538-.529.147-2.537.7c-3.269.915-6.4,1.791-9.286,2.6l.452.45c1.224-5.308,2.287-9.913,3.087-13.377l.069-.3-.309.018a28.449,28.449,0,0,0-4.267.544A6.42,6.42,0,0,0,676.484,334.267Z" transform="translate(-676.484 -333.303)" fill="#455a64"/>
          </g>
        </g>
      </g>
      <g id="Grupo_3036" data-name="Grupo 3036" transform="translate(694.316 393.627)">
        <g id="Grupo_3035" data-name="Grupo 3035">
          <g id="Grupo_3034" data-name="Grupo 3034">
            <path id="Trazado_12304" data-name="Trazado 12304" d="M675.222,360.981a3.829,3.829,0,0,0,1.064-1.091c.62-.783,1.283-2.074,2.262-3.568l-.406-.015a88.953,88.953,0,0,0,8.3,13.184l.3.4.3-.394,4.461-5.812c1.154-1.511,2.279-2.987,3.367-4.415l-.56.056,5.4,4.713,2.426,2.1q.578.5,1.132.978l.545.469.133.114.069.06.067.053a.317.317,0,0,0,.094.043c.05.122.484-.183.377-.321-.015-.089-.007-.034-.012-.059l-.012-.031-.021-.043c-.01-.015,0-.016,0,.037.025.069-.1.245-.151.232-.079.015-.009,0,.016.013l.251.081.085-.28c.878-2.888,1.5-5.252,1.844-6.914a7.2,7.2,0,0,0,.281-2.622c-.054,0-.142.922-.6,2.546-.437,1.624-1.143,3.961-2.084,6.809l.334-.2a.628.628,0,0,0-.325.006.372.372,0,0,0-.243.361.519.519,0,0,0,.057.2c.032-.018-.056.064.073-.034a1.941,1.941,0,0,1,.207-.081.357.357,0,0,1,.085-.147c.026-.035.028-.01.083-.091h0l0,0-.01-.009-.063-.057-.131-.117-.534-.481q-.543-.488-1.113-1l-2.392-2.142-5.356-4.765-.309-.274-.252.33-3.379,4.406c-1.545,2.026-3.04,3.988-4.44,5.827h.6a104.824,104.824,0,0,1-8.487-12.948l-.2-.358-.207.342c-.946,1.565-1.53,2.87-2.071,3.678C675.556,360.564,675.184,360.945,675.222,360.981Z" transform="translate(-675.219 -355.728)" fill="#455a64"/>
          </g>
        </g>
      </g>
      <g id="Grupo_3039" data-name="Grupo 3039" transform="translate(720.21 377.979)">
        <g id="Grupo_3038" data-name="Grupo 3038">
          <g id="Grupo_3037" data-name="Grupo 3037">
            <path id="Trazado_12305" data-name="Trazado 12305" d="M692.9,345.053a5.21,5.21,0,0,0,.254,1.425c.211.9.557,2.2,1.02,3.8.925,3.188,2.359,7.547,4.213,12.263s3.78,8.884,5.277,11.845c.748,1.482,1.378,2.668,1.84,3.473a5.145,5.145,0,0,0,.786,1.215,43.962,43.962,0,0,0-2.124-4.927c-1.365-3.014-3.2-7.2-5.048-11.894s-3.357-9.006-4.412-12.141A43.793,43.793,0,0,0,692.9,345.053Z" transform="translate(-692.885 -345.053)" fill="#455a64"/>
          </g>
        </g>
      </g>
      <g id="Grupo_3052" data-name="Grupo 3052" transform="translate(694.316 350.071)">
        <g id="Grupo_3042" data-name="Grupo 3042" transform="translate(15.308)">
          <g id="Grupo_3041" data-name="Grupo 3041">
            <g id="Grupo_3040" data-name="Grupo 3040">
              <path id="Trazado_12306" data-name="Trazado 12306" d="M685.663,326.04c-.051.183,2.489.86,6.3,1.126l-.277-.532c-.869,1.412-1.816,2.952-2.822,4.584-.622,1.042-1.221,2.046-1.787,2.993l-.428.718.816-.155c4.677-.891,8.166-.476,8.175-.686a6.628,6.628,0,0,0-2.325-.38,25.721,25.721,0,0,0-5.984.327l.387.563c.573-.938,1.183-1.936,1.816-2.971.976-1.646,1.9-3.2,2.742-4.626l.3-.507-.579-.025c-1.885-.078-3.473-.2-4.579-.3A8.431,8.431,0,0,0,685.663,326.04Z" transform="translate(-685.662 -326.014)" fill="#455a64"/>
            </g>
          </g>
        </g>
        <g id="Grupo_3045" data-name="Grupo 3045" transform="translate(1.854 10.684)">
          <g id="Grupo_3044" data-name="Grupo 3044">
            <g id="Grupo_3043" data-name="Grupo 3043">
              <path id="Trazado_12307" data-name="Trazado 12307" d="M676.484,334.267c.022.128,2.128-.39,5.775-.478l-.24-.281c-.866,3.442-2.018,8.017-3.345,13.289l-.155.617.605-.167,9.321-2.559,2.542-.705-.5-.391c-.205,5.056-.4,9.74-.561,13.771l-.019.444.412-.116c3.613-1.011,6.655-1.863,8.949-2.507l2.476-.746a3.211,3.211,0,0,0,.855-.327,3.331,3.331,0,0,0-.907.139l-2.518.573-8.99,2.232.391.33c.2-4.028.441-8.71.7-13.763l.026-.538-.529.147-2.537.7c-3.269.915-6.4,1.791-9.286,2.6l.452.45c1.224-5.308,2.287-9.913,3.087-13.377l.069-.3-.309.018a28.449,28.449,0,0,0-4.267.544A6.42,6.42,0,0,0,676.484,334.267Z" transform="translate(-676.484 -333.303)" fill="#455a64"/>
            </g>
          </g>
        </g>
        <g id="Grupo_3048" data-name="Grupo 3048" transform="translate(0 43.555)">
          <g id="Grupo_3047" data-name="Grupo 3047">
            <g id="Grupo_3046" data-name="Grupo 3046">
              <path id="Trazado_12308" data-name="Trazado 12308" d="M675.222,360.981a3.829,3.829,0,0,0,1.064-1.091c.62-.783,1.283-2.074,2.262-3.568l-.406-.015a88.953,88.953,0,0,0,8.3,13.184l.3.4.3-.394,4.461-5.812c1.154-1.511,2.279-2.987,3.367-4.415l-.56.056,5.4,4.713,2.426,2.1q.578.5,1.132.978l.545.469.133.114.069.06.067.053a.317.317,0,0,0,.094.043c.05.122.484-.183.377-.321-.015-.089-.007-.034-.012-.059l-.012-.031-.021-.043c-.01-.015,0-.016,0,.037.025.069-.1.245-.151.232-.079.015-.009,0,.016.013l.251.081.085-.28c.878-2.888,1.5-5.252,1.844-6.914a7.2,7.2,0,0,0,.281-2.622c-.054,0-.142.922-.6,2.546-.437,1.624-1.143,3.961-2.084,6.809l.334-.2a.628.628,0,0,0-.325.006.372.372,0,0,0-.243.361.519.519,0,0,0,.057.2c.032-.018-.056.064.073-.034a1.941,1.941,0,0,1,.207-.081.357.357,0,0,1,.085-.147c.026-.035.028-.01.083-.091h0l0,0-.01-.009-.063-.057-.131-.117-.534-.481q-.543-.488-1.113-1l-2.392-2.142-5.356-4.765-.309-.274-.252.33-3.379,4.406c-1.545,2.026-3.04,3.988-4.44,5.827h.6a104.824,104.824,0,0,1-8.487-12.948l-.2-.358-.207.342c-.946,1.565-1.53,2.87-2.071,3.678C675.556,360.564,675.184,360.945,675.222,360.981Z" transform="translate(-675.219 -355.728)" fill="#455a64"/>
            </g>
          </g>
        </g>
        <g id="Grupo_3051" data-name="Grupo 3051" transform="translate(25.894 27.907)">
          <g id="Grupo_3050" data-name="Grupo 3050">
            <g id="Grupo_3049" data-name="Grupo 3049">
              <path id="Trazado_12309" data-name="Trazado 12309" d="M692.9,345.053a5.21,5.21,0,0,0,.254,1.425c.211.9.557,2.2,1.02,3.8.925,3.188,2.359,7.547,4.213,12.263s3.78,8.884,5.277,11.845c.748,1.482,1.378,2.668,1.84,3.473a5.145,5.145,0,0,0,.786,1.215,43.962,43.962,0,0,0-2.124-4.927c-1.365-3.014-3.2-7.2-5.048-11.894s-3.357-9.006-4.412-12.141A43.793,43.793,0,0,0,692.9,345.053Z" transform="translate(-692.885 -345.053)" fill="#455a64"/>
            </g>
          </g>
        </g>
      </g>
    </g>
  </g>
</svg>
