<?xml version="1.0" encoding="utf-8"?>
<!-- Generator: Adobe Illustrator 24.0.0, SVG Export Plug-In . SVG Version: 6.00 Build 0)  -->
<svg version="1.1" id="Capa_1" xmlns="http://www.w3.org/2000/svg" xmlns:xlink="http://www.w3.org/1999/xlink" x="0px" y="0px"
	 viewBox="0 0 360.4 271.7" style="enable-background:new 0 0 360.4 271.7;" xml:space="preserve">
<style type="text/css">
	.st0{fill:#E1E1E1;}
	.st1{fill:#E6505B;}
	.st2{fill:#B58676;}
	.st3{fill:#A86550;}
	.st4{fill:#263237;}
	.st5{fill:#F8F8F8;}
	.st6{opacity:0.2;}
	.st7{fill:#455A64;}
	.st8{fill:#FDBC9B;}
	.st9{fill:#E9976E;}
	.st10{fill:#F3F3F3;}
	.st11{opacity:0.5;}
</style>
<g>
	<ellipse class="st0" cx="178.1" cy="233.5" rx="147.6" ry="27.4"/>
	<g id="character-2--inject-1">
		<path class="st1" d="M200.9,140.6l-3.4,31.5c0,0-6.6-10-11.1-5.5c-4.3,4.2-11.8,35.2-11.8,35.2s-0.1,10.1,5.3,12.8
			c17.2,8.6,36.4-7.5,36.4-7.5l-2.7-90.3l0,0C206.4,122.8,201.9,131.3,200.9,140.6z"/>
		<path class="st2" d="M259,118.6l-29.8-2.4c-0.2-3.5,0.1-16.9,0.1-16.9s-12.4-1.9-12.5-14.3s2-40.9,2-40.9l0,0
			C233,38,249.6,40,262,49.6l1.8,1.4L259,118.6z"/>
		<path class="st3" d="M229.2,99.1c5.7,0.1,11.4-1.5,16.2-4.6c0,0-3.8,8.9-16.2,7.8L229.2,99.1z"/>
		<path class="st2" d="M262.3,63.8c0.2-0.1,8.5-2.5,8.2,6s-8.7,6.5-8.7,6.2C261.8,75.8,262.3,63.8,262.3,63.8z"/>
		<path class="st3" d="M264.5,72.9c0,0,0.1,0.1,0.4,0.2c0.3,0.2,0.7,0.2,1.1,0.1c0.9-0.3,1.7-1.7,1.8-3.2c0-0.7-0.1-1.4-0.4-2.1
			c-0.1-0.5-0.5-1-1.1-1.2c-0.3-0.1-0.7,0.1-0.9,0.4c-0.1,0.2-0.1,0.4-0.1,0.4c0,0-0.2-0.1-0.1-0.5c0.1-0.2,0.2-0.4,0.4-0.5
			c0.2-0.2,0.5-0.2,0.8-0.2c0.7,0.2,1.3,0.7,1.5,1.4c0.3,0.7,0.5,1.6,0.4,2.4c-0.1,1.7-1,3.3-2.3,3.6c-0.5,0.1-1,0-1.3-0.3
			C264.5,73.1,264.5,72.9,264.5,72.9z"/>
		<path class="st4" d="M221.4,63.3c0,1,0.8,1.8,1.7,1.8c0.9,0.1,1.7-0.6,1.8-1.5c0,0,0,0,0,0c0-1-0.7-1.7-1.7-1.8
			C222.3,61.7,221.5,62.4,221.4,63.3C221.4,63.3,221.4,63.3,221.4,63.3z"/>
		<path class="st4" d="M221,61.6c0.2,0.2,1.6-0.8,3.5-0.8c1.9,0,3.3,1,3.5,0.7c0.1-0.1-0.1-0.5-0.7-1c-0.8-0.6-1.8-0.9-2.8-0.9
			c-1,0-2,0.3-2.8,0.9C221.1,61.1,220.9,61.5,221,61.6z"/>
		<path class="st4" d="M240.1,64c0,1,0.7,1.7,1.7,1.8c0.9,0.1,1.8-0.6,1.8-1.6c0,0,0,0,0,0c0-1-0.8-1.7-1.7-1.8
			C241,62.4,240.1,63.1,240.1,64C240.1,64,240.1,64,240.1,64z"/>
		<path class="st4" d="M239.7,61.9c0.2,0.2,1.6-0.8,3.5-0.8c1.9,0,3.3,1,3.5,0.7c0.1-0.1-0.1-0.5-0.7-1c-0.8-0.6-1.8-0.9-2.8-0.9
			c-1,0-2,0.3-2.8,0.9C239.8,61.4,239.6,61.8,239.7,61.9z"/>
		<path class="st4" d="M232.8,76.1c0-0.1-1.2-0.3-3.1-0.6c-0.5,0-0.9-0.1-1-0.5c0-0.5,0.1-1,0.3-1.4c0.5-1.2,0.9-2.4,1.4-3.7
			c2-5.3,3.4-9.6,3.2-9.7s-2,4.1-4,9.4c-0.5,1.3-0.9,2.5-1.4,3.7c-0.3,0.6-0.4,1.3-0.3,1.9c0.1,0.3,0.4,0.6,0.8,0.7
			c0.3,0.1,0.5,0.1,0.8,0.1C231.6,76.2,232.8,76.2,232.8,76.1z"/>
		<path class="st4" d="M239.3,54.5c0.2,0.5,2.1,0.3,4.3,0.5s4,0.9,4.3,0.4c0.1-0.2-0.2-0.7-0.9-1.2c-2-1.2-4.4-1.5-6.6-0.7
			C239.6,53.8,239.2,54.2,239.3,54.5z"/>
		<path class="st4" d="M221.7,56.1c0.3,0.4,1.6,0,3.2,0c1.6,0,2.9,0.3,3.2-0.2c0.1-0.2-0.1-0.7-0.7-1.1c-1.6-1-3.7-0.9-5.2,0.2
			C221.8,55.4,221.6,55.8,221.7,56.1z"/>
		<path class="st4" d="M212.6,36.3c-0.2-1.6,0.5-3.1,1.7-4.1c1.3-0.9,3.1-0.8,4.2,0.3c-0.5-2,0.8-4.1,2.9-4.5c0.1,0,0.3-0.1,0.4-0.1
			c2-0.1,3.8,1.4,5.7,1.9c1.9,0.5,4,0.1,5.8-0.7c1.8-0.7,3.5-1.8,5.4-2.4c8.2-3,17.2,1.2,20.3,9.3c2.7-0.8,5.8,0.5,7.5,2.8
			s2.1,5.3,1.8,8.1c-0.3,1.9-0.7,3.8-1.4,5.6c0,0.2,0,0.3,0,0.5c-0.1,6.8-0.9,14.8-3.8,14.9c-5.1,0.1-3.9-9.5-3.9-9.5
			c-6.2-2.4-3.9-11.7-5.5-13.1s-4.8-4.7-17.8,2c-5.1,2.6-11.8,2.5-15.5,1.7l-0.3-0.1H220c0,0-0.1,0-0.1,0c-1.2-0.3-2.3-0.8-3.3-1.4
			c-1.2-0.7-2.2-1.8-2.7-3.1c-0.6-1.3-0.3-2.8,0.7-3.9C213.5,39.3,212.8,37.8,212.6,36.3z"/>
		<path class="st1" d="M283.3,196.4l0.9,17.6l2.1,25.2h-79.7l3.5-37.3l-6.8-59c0.6-20.8,8.6-29.5,25-31.5l-1.3,0.2
			c2.3-0.3,0,0,1.3-0.2c10.3,3.3,21.4,3.3,31.8,0l0,0c4.9,0.2,9,1.7,13.2,2.5c13.2,2.5,24,12.7,26.6,21.5
			c2.2,7.3,17.8,70.5,17.8,70.5h-31.2L283.3,196.4z"/>
		<path class="st3" d="M231.2,81.9c0.3,0.8,0.6,1.5,1.1,2.2c0.5,0.7,1.2,1.1,2,1.2c0.9,0,1.7-0.5,2.2-1.2c0.5-0.7,0.7-1.6,0.6-2.5
			c0-0.8-0.4-1.7-1.2-1.8c-0.3,0-0.7,0.1-0.9,0.2l-4.1,1.7"/>
		<path class="st4" d="M232.8,85.3c0.7,0,1.5,0,2.2-0.3c0.7-0.3,1.3-0.8,1.6-1.5c0.4-0.8,0.4-1.8,0-2.7c-0.1-0.2-0.2-0.4-0.4-0.6
			c-0.2-0.2-0.1-0.2-0.3-0.1c-0.2,0.1-0.4,0.2-0.7,0.3l-0.7,0.3c-0.9,0.4-1.7,0.7-2.3,0.9c-1.3,0.5-2.2,0.8-2.2,0.7
			c0-0.1,0.7-0.5,2-1.1c0.6-0.3,1.4-0.7,2.3-1.1l0.7-0.3c0.2-0.1,0.5-0.2,0.8-0.3c0.2-0.1,0.4-0.1,0.6,0c0.2,0.1,0.3,0.2,0.4,0.4
			c0.2,0.2,0.3,0.5,0.5,0.8c0.5,1.1,0.4,2.3-0.1,3.3c-0.4,0.8-1.2,1.4-2.1,1.7c-0.6,0.2-1.2,0.2-1.8,0.1
			C233,85.5,232.8,85.3,232.8,85.3z"/>
		<path class="st2" d="M203.3,192.9l-18.8-57.6l-1.7-9.7c0,0-5.1-21.6-5.3-23.7c-0.3-2.5-1.5-2.9-2.4-2.8c-1.4,0.3-2.2,2.1-2.1,4.2
			c0.1,0.7,1.4,12.3,1.4,12.3c-0.8-1-1.6-2-2.6-2.9c-1.9-2-6.1-2.8-10.2-2.2c-4.1,0.6-5.2,1.1-5,2.7c0.1,0.6,0.4,1.1,1,1.5
			c0.8,0.6,1.8,0.8,2.8,0.6c6.6-0.8,8.7,2.5,8.7,2.5l0.2,1.3c0,0-4.3-2.4-7.4-0.9c-0.5,0.2-0.9,0.5-1.2,0.9
			c-2.8,0.3-4.9,2.9-4.6,5.7c0.1,0.9,0.4,1.7,0.9,2.4c0.5,0.7,1.4,1.3,2.2,1.1c0.4-0.2,0.8-0.5,1.1-0.8c0.2-0.2,0.3-0.3,0.5-0.5
			l1.1,3.5c0,0,2.9,7.6,3.8,11.1l9.1,58c1.3,7.9,8.7,13.4,16.7,12.1c0.1,0,0.2,0,0.2,0l0,0c7.9-1.4,13.2-8.9,11.8-16.9
			C203.6,194.2,203.5,193.6,203.3,192.9z"/>
		<path class="st2" d="M182.5,134.7c-1.2,0.5-2.5-0.3-3.3-1.3c-0.8-1-1.2-2.2-1.9-3.3c-2.1-3.2-6.4-4.3-8.3-7.5
			c-0.3-0.5-0.5-1.1-0.1-1.5c0.4-0.4,0.9-0.2,1.4,0l11.5,4.8"/>
		<path class="st3" d="M181.9,126c-0.4-0.3-0.8-0.5-1.2-0.7c-0.8-0.4-1.9-0.9-3.4-1.5l-5-2.2l-1.5-0.6c-0.5-0.3-1.2-0.5-1.8-0.3
			c-0.4,0.2-0.6,0.6-0.6,1c0,0.3,0.1,0.7,0.3,1c0.3,0.5,0.7,1,1.1,1.5c1.7,1.8,3.8,2.8,5.3,4.1c0.8,0.6,1.4,1.3,2,2
			c0.5,0.7,0.8,1.5,1.2,2.2c0.5,1.2,1.6,2.1,2.8,2.4c0.9,0.2,1.4-0.2,1.4-0.2c-0.4,0.1-0.9,0-1.3-0.1c-1.1-0.4-2-1.3-2.4-2.4
			c-0.4-0.7-0.7-1.5-1.2-2.3c-0.6-0.8-1.2-1.6-2-2.2c-1.6-1.4-3.7-2.4-5.2-4.1c-0.4-0.4-0.7-0.8-1-1.3c-0.3-0.4-0.3-0.9,0-1
			c0.3-0.1,0.8,0.1,1.3,0.3l1.5,0.6l5.1,2.1c1.5,0.6,2.6,1,3.4,1.3C181,125.8,181.4,126,181.9,126z"/>
		<path class="st3" d="M169.5,119.2c-0.2-0.8-0.5-1.5-1-2.1c-0.6-0.6-1.3-1.1-2.2-1.2c-1-0.2-2.1-0.2-3.2-0.1
			c-1.1,0.1-2.2,0.2-3.3,0.1c-0.9-0.1-1.8-0.4-2.6-0.9c-0.5-0.4-0.8-1-0.8-1.6c0-0.2,0-0.5,0.2-0.7c0,0,0,0.2,0,0.6
			c0.1,0.6,0.4,1.1,0.9,1.4c0.7,0.5,1.6,0.7,2.4,0.8c1.1,0.1,2.1,0,3.2-0.1c1.1-0.1,2.2-0.1,3.3,0.2c0.9,0.2,1.7,0.7,2.3,1.4
			c0.4,0.5,0.6,1.1,0.7,1.7C169.5,118.8,169.5,119,169.5,119.2z"/>
		<path class="st3" d="M173,102.6c0.2,0.8,0.3,1.5,0.3,2.3c0.1,1.6,0.3,3.5,0.5,5.5s0.4,3.9,0.6,5.5c0.1,0.8,0.2,1.5,0.2,2.3
			c-0.3-0.7-0.4-1.5-0.5-2.3c-0.2-1.4-0.5-3.4-0.8-5.5c-0.2-2.2-0.4-4.1-0.4-5.6C172.8,104.1,172.8,103.3,173,102.6z"/>
		<path class="st3" d="M167.2,122.1c-0.2,0-0.5-0.1-0.7-0.2c-0.6-0.2-1.2-0.2-1.8,0.1c-0.3,0.2-0.5,0.6-0.5,1c0,0.5,0.1,1,0.3,1.5
			c0.2,0.6,0.2,1.3-0.1,1.8c-0.3,0.6-1,1-1.7,1.1c-0.7,0.1-1.4-0.1-1.9-0.6c-0.5-0.4-0.8-0.9-1-1.5c-0.2-1-0.3-2-0.3-3
			c0-0.7,0.1-1.3,0.4-2c0.1-0.2,0.2-0.5,0.4-0.6c0,0-0.1,0.2-0.2,0.7c-0.2,0.6-0.2,1.3-0.2,1.9c0,0.9,0.1,1.9,0.4,2.8
			c0.3,1.1,1.3,1.8,2.5,1.8c0.5-0.1,1-0.4,1.3-0.9c0.2-0.5,0.2-1,0.1-1.5c-0.1-0.5-0.2-1.1-0.2-1.6c0-0.5,0.3-1,0.7-1.3
			c0.6-0.3,1.4-0.3,2,0C167,121.9,167.2,122.1,167.2,122.1z"/>
		<path class="st3" d="M161,126.5c0,0,0.1,0.2,0,0.7c-0.2,0.6-0.6,1.1-1.2,1.3c-0.9,0.3-1.9,0.1-2.6-0.5c-0.8-0.7-1.4-1.8-1.5-2.9
			c-0.1-1.1,0.1-2.2,0.7-3.2c0.4-0.8,1.1-1.4,1.9-1.9c0.5-0.3,1.1-0.5,1.7-0.6c0.2-0.1,0.4-0.1,0.7,0c-0.8,0.2-1.5,0.5-2.2,0.9
			c-1.6,1-2.5,2.9-2.3,4.7c0.1,1,0.5,2,1.3,2.6c0.6,0.5,1.4,0.7,2.2,0.5c0.5-0.2,0.9-0.6,1.2-1.1C161,126.8,160.9,126.5,161,126.5z"
			/>
		<path class="st3" d="M169.8,133.4c0.3-0.1,0.7-0.2,1.1-0.1c1,0.1,1.9,0.5,2.6,1.2l-0.4,0.2c0-0.5,0-1,0.1-1.6
			c0.3-3,1.8-5.2,1.9-5.1s-1.1,2.2-1.4,5.1c-0.1,0.5-0.1,1-0.1,1.5v0.5l-0.4-0.4c-0.6-0.6-1.4-1.1-2.3-1.2
			C170.2,133.4,169.8,133.4,169.8,133.4z"/>
		<path class="st3" d="M167.4,113.7c0.1,0-0.2,0.9-1.2,1.5c-1,0.5-1.9,0.4-1.9,0.3c0-0.1,0.8-0.2,1.6-0.7S167.3,113.7,167.4,113.7z"
			/>
		<path class="st5" d="M218.1,113.7c0,0-0.3,0.3-0.7,0.8c-0.7,0.8-1.3,1.6-1.6,2.6c-0.1,0.3-0.2,0.7-0.2,1c0,0.4,0.1,0.7,0.3,1.1
			c0.5,0.7,1.2,1.3,2,1.5c2.1,0.7,4.2,1,6.4,0.9c1.2,0,2.5,0.1,3.8,0.1l2,0.2c0.7,0.1,1.4,0.3,2.1,0.4c3,0.6,5.9,1.9,8.4,3.7
			c1.4,1,2.5,2.3,3.5,3.7c0.2,0.4,0.5,0.7,0.7,1.1c0.2,0.4,0.3,0.8,0.5,1.2c0.3,0.8,0.5,1.7,0.7,2.6c0.7,3.7,0.1,7.5-1.6,10.8
			c-1.8,3.3-4.8,5.8-8.3,7.1c-1.7,0.6-3.4,1-5.2,1c-1.7,0-3.4-0.2-5-0.6c-1.5-0.4-3-0.7-4.6-0.8c-1.4-0.1-2.9,0.1-4.2,0.7
			c-1.2,0.6-2.2,1.5-3.1,2.5c-0.9,1-1.6,2-2.4,3c-1.5,2-3,3.7-4.8,4.6c-0.8,0.4-1.7,0.7-2.7,0.7c-0.8,0-1.6-0.1-2.3-0.4
			c-0.6-0.2-1.1-0.6-1.6-1c-0.3-0.3-0.6-0.7-0.8-1.1c-0.2-0.3-0.2-0.7-0.2-1.1c0,0,0.1,0.4,0.4,1c0.2,0.4,0.5,0.7,0.8,1
			c0.4,0.4,1,0.7,1.5,0.9c1.5,0.6,3.2,0.4,4.7-0.4c1.7-0.9,3.1-2.6,4.6-4.5c0.7-1,1.5-2,2.3-3.1c0.9-1.1,2-2,3.3-2.7
			c1.4-0.7,2.9-1,4.5-0.8c1.6,0.2,3.1,0.4,4.7,0.8c1.6,0.4,3.2,0.6,4.8,0.6c1.7-0.1,3.3-0.4,4.9-1c3.4-1.2,6.2-3.6,7.9-6.8
			c1.7-3.1,2.2-6.8,1.6-10.3c-0.2-0.8-0.4-1.7-0.7-2.4c-0.2-0.4-0.3-0.8-0.5-1.1c-0.2-0.4-0.4-0.7-0.6-1.1c-0.9-1.3-2-2.5-3.3-3.5
			c-2.4-1.8-5.2-3.1-8.1-3.7c-0.7-0.1-1.4-0.3-2.1-0.4l-2-0.3c-1.3-0.1-2.6-0.1-3.8-0.2c-2.2,0-4.4-0.3-6.5-1
			c-0.9-0.3-1.6-0.9-2.1-1.7c-0.2-0.4-0.3-0.8-0.3-1.2c0-0.4,0.1-0.7,0.2-1.1c0.4-1,1-1.9,1.8-2.6
			C217.6,114.2,217.8,113.9,218.1,113.7z"/>
		<path class="st5" d="M271.5,160.5c-0.2-0.5-0.3-1-0.3-1.6c-0.2-1.5-0.1-3,0.3-4.4c0.5-2.1,1.4-4.2,2.7-6c1.6-2.2,3.6-4,5.9-5.4
			c2.3-1.3,4.9-2.3,7.5-2.8c2.1-0.4,4.3-0.7,6.5-0.7c1.5,0,2.9,0.1,4.4,0.2c0.5,0,1.1,0.1,1.6,0.3c0,0.1-2.3-0.1-5.9,0
			c-2.1,0.1-4.3,0.4-6.4,0.8c-2.5,0.6-5,1.5-7.3,2.8c-2.2,1.3-4.2,3.1-5.7,5.2c-1.3,1.7-2.2,3.6-2.8,5.7c-0.4,1.4-0.6,2.8-0.5,4.2
			C271.5,159.4,271.5,160,271.5,160.5z"/>
		<path class="st5" d="M309.8,172.7c-0.2,0.4-0.5,0.9-0.8,1.2c-0.8,1.1-1.8,2-2.8,2.9c-1.5,1.3-3.2,2.4-5.1,3.3
			c-4.5,2.2-9.6,2.8-14.4,1.7c-2-0.4-3.9-1.1-5.7-2c-1.2-0.6-2.4-1.3-3.4-2.1c-0.4-0.3-0.8-0.6-1.1-1c0.1-0.1,1.7,1.3,4.7,2.7
			c8.1,3.8,17.6,2.6,24.6-3C308.4,174.3,309.7,172.6,309.8,172.7z"/>
		<path class="st5" d="M274.5,170.4c-0.2,0.1-0.4,0.2-0.6,0.3c-0.6,0.2-1.1,0.6-1.6,1.1c-0.7,0.7-1.3,1.6-1.6,2.6
			c-0.5,1.3-0.9,2.6-1.1,3.9c-0.3,1.7-0.7,3.3-1.1,4.9c-0.3,0.9-0.7,1.8-1.2,2.6c-0.6,0.9-1.3,1.6-2,2.3c-1.7,1.4-3.7,2.4-5.8,2.9
			c-2.2,0.6-4.4,1-6.7,1.4c-4.3,0.7-8.4,2.4-12,5c-1.5,1.1-2.9,2.5-4,4c-1,1.3-1.7,2.8-2.3,4.4c-0.8,2.3-1.1,4.7-0.7,7.1
			c0.3,1.7,0.6,2.6,0.6,2.6c-0.1-0.2-0.2-0.4-0.3-0.6c-0.1-0.3-0.2-0.5-0.3-0.8c-0.1-0.4-0.2-0.7-0.3-1.1c-0.4-2.4-0.3-5,0.5-7.3
			c0.5-1.6,1.3-3.2,2.3-4.6c1.1-1.6,2.5-3,4.1-4.2c3.6-2.7,7.8-4.4,12.3-5.2c2.3-0.5,4.6-0.8,6.7-1.4c2-0.5,3.9-1.5,5.6-2.8
			c0.7-0.6,1.4-1.3,1.9-2.1c0.5-0.8,0.9-1.6,1.2-2.5c0.5-1.6,0.9-3.2,1.2-4.9c0.3-1.4,0.7-2.7,1.3-4c0.4-1,1-1.9,1.8-2.6
			c0.5-0.5,1.1-0.8,1.7-1C274.1,170.5,274.3,170.4,274.5,170.4z"/>
		<path class="st5" d="M255.8,167.5c0.2,0.4,0.4,0.9,0.4,1.4c0.1,1.4-0.3,2.7-1.1,3.9c-0.5,0.8-1.3,1.5-2.1,1.9
			c-0.5,0.3-1,0.4-1.5,0.6c-0.6,0.1-1.1,0.1-1.7,0.1c-1.2-0.1-2.4-0.6-3.4-1.4c-1.1-0.8-1.8-2-2.2-3.3c-0.2-0.8-0.2-1.7,0-2.6
			c0.2-0.8,0.6-1.6,1.1-2.2c0.5-0.6,1-1.2,1.5-1.7c0.3-0.3,0.6-0.5,0.9-0.7c0.3-0.2,0.7-0.4,1.1-0.4l0.1,0.6l-0.3,0.1l-0.2-0.6
			c1.3-0.4,2.6-0.3,3.9,0.2c0.9,0.4,1.8,0.9,2.4,1.7c0.4,0.5,0.8,1,1,1.6C255.8,167.3,255.8,167.5,255.8,167.5
			c-0.4-0.7-0.8-1.4-1.4-2c-0.7-0.7-1.5-1.2-2.3-1.5c-1.1-0.4-2.4-0.4-3.5-0.1l-0.2-0.6l0.3-0.1l0.1,0.6c-0.6,0.1-1.1,0.5-1.6,0.9
			c-0.5,0.5-1,1-1.4,1.6c-1,1.2-1.3,2.7-0.9,4.2c0.3,1.1,1,2.1,1.9,2.9c0.9,0.7,1.9,1.1,3,1.3c0.5,0.1,1,0,1.5,0
			c0.5-0.1,0.9-0.2,1.4-0.5c0.8-0.4,1.5-1,2-1.7c0.8-1,1.2-2.3,1.3-3.6C255.9,168,255.7,167.5,255.8,167.5z"/>
		<path class="st4" d="M210.5,144.6c0,0.1,0,0.1,0,0.2c0,0.1,0,0.3,0,0.5c0,0.5-0.1,1.2-0.1,2.1c-0.1,1.8-0.2,4.5-0.4,7.8
			c-0.3,6.6-0.5,15.6-0.8,25.7c-0.2,10-0.3,19.1-0.4,25.7c0,3.3-0.1,5.9-0.1,7.8c0,0.9,0,1.6,0,2.1c0,0.2,0,0.4,0,0.6
			c0,0.1,0,0.1,0,0.2c0-0.1,0-0.1,0-0.2c0-0.1,0-0.3,0-0.6c0-0.5,0-1.2,0-2.1v-7.8c0-6.6,0.1-15.7,0.3-25.7
			c0.2-10,0.5-19.1,0.9-25.7c0.2-3.3,0.3-5.9,0.5-7.8c0.1-0.9,0.1-1.6,0.2-2.1c0-0.2,0-0.4,0.1-0.6
			C210.6,144.8,210.5,144.7,210.5,144.6z"/>
		<g class="st6">
			<path d="M197.1,209.8c3.9,1.9,9-1.7,11-5.6c0,0,1-8.5,0.9-12.8c-0.3-8,0.3-16,0-24c-0.6,4.8-2.6,9.3-5.7,13c-0.9,1-1.8,2-2.2,3.3
				c-0.6,2.3,1.2,6.5,2.3,8.6c3.5,6.4-4.1,17.5-6.2,17.3"/>
		</g>
		<g class="st6">
			<path d="M270.3,157.5c1.3,16,2.6,32,3.8,48c0,1.5,0.3,3,0.8,4.4c0.5,1.4,1.7,2.5,3.2,2.9c2.3,0.5,4.5-1.5,5.1-3.7
				s0.1-4.6-0.4-6.9c-1-3.8-2-7.6-3.1-11.4c-3.1-11-6.3-22.1-9.4-33.1"/>
		</g>
		<path class="st5" d="M226.4,239.3c0.5-0.8,0.8-1.6,1.1-2.5c0.4-1.7,0.1-4.4-1.2-7.3c-0.7-1.5-1.6-3-2.5-4.6
			c-1.1-1.8-1.9-3.7-2.4-5.7c-0.4-2.3-0.2-4.6,0.5-6.8c0.7-2.3,1.7-4.5,2.5-6.8c1.6-4.3,1.8-9,0.4-13.4c-0.6-1.9-1.5-3.7-2.7-5.3
			c-1-1.4-2.2-2.7-3.5-3.8c-2-1.6-4.2-2.9-6.6-3.7c-1.7-0.6-2.7-0.7-2.7-0.8c0.2,0,0.5,0,0.7,0.1c0.7,0.1,1.4,0.3,2,0.5
			c2.5,0.7,4.8,1.9,6.8,3.5c1.4,1.1,2.6,2.4,3.7,3.8c1.2,1.7,2.2,3.5,2.8,5.5c1.5,4.5,1.4,9.4-0.3,13.9c-0.8,2.3-1.9,4.5-2.5,6.7
			c-0.7,2.1-0.9,4.3-0.5,6.4c0.5,1.9,1.2,3.8,2.2,5.5c0.9,1.7,1.8,3.2,2.5,4.7c1.3,3,1.5,5.8,1,7.6c-0.2,0.7-0.5,1.3-0.9,1.9
			C226.6,239.2,226.4,239.3,226.4,239.3z"/>
		<path class="st5" d="M292.2,124c-0.1,0.5-0.4,1-0.7,1.4c-0.8,1.2-1.8,2.2-3,3c-1.8,1.1-3.9,1.8-6,2c-2.6,0.2-5.2-0.2-7.6-1
			c-2.5-0.7-4.8-2.1-6.7-3.9c-0.8-0.8-1.5-1.8-1.9-2.8c-0.4-0.9-0.7-1.9-0.8-2.9c-0.2-1.4,0.1-2.9,0.8-4.2c0.1-0.2,0.2-0.4,0.4-0.6
			c0.1-0.1,0.2-0.3,0.3-0.4c0.2-0.2,0.3-0.3,0.3-0.3c0,0-0.3,0.5-0.7,1.3c-0.5,1.3-0.7,2.6-0.5,4c0.1,0.9,0.4,1.8,0.8,2.7
			c0.5,1,1.1,1.8,1.9,2.6c1.8,1.7,4,3,6.4,3.6c2.4,0.8,4.9,1.1,7.4,1c2-0.1,4-0.7,5.8-1.7c1.2-0.7,2.2-1.6,3.1-2.7
			C291.6,124.8,291.9,124.4,292.2,124z"/>
		<path class="st4" d="M282.6,199.4c0,0,0-0.1-0.1-0.2c0-0.1-0.1-0.3-0.2-0.6c-0.2-0.5-0.4-1.3-0.7-2.3l-2.4-8.4
			c-2-7.1-4.7-16.8-7.7-27.6c-1.5-5.4-2.9-10.5-4.2-15.2c-0.6-2.2-1.1-4.5-1.5-6.7c-0.3-2-0.3-4,0-6c0.4-2.9,1.8-5.6,4-7.6
			c0.6-0.5,1.3-1,2-1.3l0.6-0.2c0.1,0,0.1-0.1,0.2-0.1c-1,0.5-1.8,1-2.6,1.7c-2.1,2-3.4,4.7-3.8,7.6c-0.3,2-0.2,4,0.1,5.9
			c0.4,2.3,0.9,4.5,1.5,6.7c1.3,4.7,2.7,9.8,4.2,15.2c3,10.8,5.7,20.6,7.6,27.6c1,3.5,1.7,6.4,2.3,8.4c0.3,1,0.5,1.7,0.6,2.3
			c0.1,0.2,0.1,0.4,0.1,0.6C282.6,199.3,282.6,199.4,282.6,199.4z"/>
		<path class="st7" d="M254.1,44.2c0.1-0.5,0.1-1,0-1.5c-0.2-1.4-0.9-2.6-1.9-3.5c-1.6-1.3-3.6-2-5.6-1.8c-2.3,0-4.7,0.8-7.3,1.6
			c-1.3,0.4-2.5,0.8-3.8,1.1c-1.2,0.3-2.4,0.4-3.6,0.4c-2.1,0.1-4.1-0.2-6.1-0.8c-1.3-0.4-2.6-0.9-3.8-1.6c-0.3-0.2-0.7-0.4-1-0.6
			c-0.1-0.1-0.2-0.1-0.3-0.2c0,0,0.5,0.3,1.3,0.7c1.2,0.6,2.5,1.1,3.8,1.5c2,0.5,4,0.8,6,0.7c1.2,0,2.4-0.2,3.6-0.4
			c1.2-0.3,2.4-0.7,3.7-1.1c2.5-0.8,5-1.6,7.4-1.6c2.1-0.1,4.2,0.6,5.8,2c1.1,0.9,1.7,2.2,1.9,3.7C254.3,43.1,254.2,43.7,254.1,44.2
			z"/>
		<path class="st7" d="M263.7,65.1c0,0-0.1-0.1-0.2-0.3s-0.2-0.4-0.4-0.8c-0.4-1-0.8-2-1-3.1c-0.3-1.6-0.4-3.2-0.3-4.8
			c0.2-1.9,0.6-3.9,1.1-5.8c0.5-1.9,0.5-3.8,0-5.7c-0.2-0.8-0.6-1.5-1.2-2.2c-0.5-0.5-1.1-0.9-1.8-1.2c-1-0.4-2.1-0.3-3.1,0.1
			c-0.3,0.2-0.7,0.4-0.9,0.7c0.2-0.3,0.5-0.6,0.9-0.8c1-0.5,2.2-0.6,3.2-0.2c0.7,0.2,1.4,0.7,1.9,1.2c0.6,0.7,1,1.4,1.3,2.3
			c0.5,1.9,0.5,3.9,0,5.9c-0.5,1.9-0.9,3.8-1.1,5.7c-0.1,1.6-0.1,3.2,0.2,4.7c0.2,1,0.5,2.1,0.9,3.1
			C263.6,64.7,263.7,65.1,263.7,65.1z"/>
		<path class="st7" d="M255.3,43.2c0-0.2,0-0.3,0-0.5c0-0.4,0-0.8,0.1-1.4c0.1-1.7-0.1-3.5-0.6-5.2c-0.3-1.1-0.9-2.2-1.7-3.1
			c-0.8-1.1-2-1.8-3.3-2.2c-1.5-0.3-3-0.3-4.4,0.2c-1.6,0.5-3,1.2-4.4,2c-1.4,0.9-2.9,1.6-4.4,2.3c-1.4,0.6-3,0.9-4.5,0.9
			c-1.4,0-2.8-0.1-4.2-0.5c-1.2-0.3-2.3-0.8-3.4-1.4c-1.5-0.9-2.9-2-4-3.4c-0.3-0.4-0.6-0.8-0.8-1.2c-0.1-0.1-0.2-0.3-0.2-0.4
			c0.1,0.1,0.2,0.3,0.3,0.4c0.3,0.4,0.5,0.8,0.9,1.1c1.1,1.3,2.5,2.4,4,3.3c1.1,0.6,2.2,1,3.3,1.3c1.3,0.3,2.7,0.5,4.1,0.5
			c1.5,0,3-0.4,4.4-0.9c1.5-0.7,3-1.4,4.4-2.3c1.4-0.9,2.9-1.5,4.5-2c1.5-0.5,3.1-0.5,4.6-0.2c1.4,0.4,2.6,1.2,3.5,2.3
			c0.8,1,1.3,2.1,1.7,3.2c0.5,1.7,0.6,3.5,0.5,5.2c0,0.6-0.1,1.1-0.1,1.4C255.3,42.8,255.3,43,255.3,43.2z"/>
		<path class="st2" d="M236.7,218.5l52.4-7.8l-0.8-4.7h28.2l0.8,7.2c2.3,11.8-5.4,23.1-17.2,25.4c-1.3,0.2-2.6,0.4-3.9,0.4
			l-61.1-0.7L236.7,218.5z"/>
		<path class="st2" d="M240.5,219.4c-0.3,0.1-3.8-1.5-7-3c-3.4-1.6-7-2.3-10.7-2.1l-14.6,0.7c0,0,0.9,2.4,2.4,3.3
			c1.5,0.9,10.6,1,10.6,1l-0.5,0.5c-1.9,2-4.5,3.1-7.2,3.2l-1.4,0c-1-0.1-2.1-0.3-3-0.6l-3.6-1.5c-1.1-0.5-2.2-0.4-2.7,0.7
			c-0.4,1-0.1,2.4,2.9,3.8c1.7,0.8,7.8,3,7.8,3c0,0.9,0.2,1.7,0.4,2.6c0.3,0.9,2.7,1.8,2.7,1.8c0.6,1.3,1.3,2.6,2.1,3.9
			c0.3,0.3,2.5,1,4.8,1.7c3.8,1.1,7.7,1,11.5-0.1l5.6-1.7v-16.9"/>
		<path class="st3" d="M220.6,230.4c-2.6-0.1-5.1-0.7-7.4-1.9c0-0.1,1.6,0.5,3.7,1C218.9,230.1,220.6,230.3,220.6,230.4z"/>
		<path class="st3" d="M220.1,233.8c-0.7,0.1-1.4,0.1-2-0.1c-0.7-0.1-1.3-0.4-1.8-0.9c0.7,0.1,1.3,0.3,1.9,0.6
			C218.8,233.5,219.4,233.6,220.1,233.8z"/>
		<path class="st3" d="M303,222.9c-0.1,0-0.4-1-1.3-2.6c-0.5-0.9-1.1-1.8-1.7-2.6c-0.8-1-1.6-1.9-2.5-2.8c-0.9-0.8-1.9-1.6-3-2.2
			c-0.9-0.5-1.8-1-2.7-1.4c-1.6-0.7-2.7-0.9-2.7-1c0.3,0,0.5,0.1,0.8,0.2c0.3,0.1,0.6,0.1,0.9,0.2c0.3,0.1,0.7,0.2,1.1,0.4
			c1,0.4,1.9,0.8,2.8,1.3c1.1,0.7,2.1,1.4,3.1,2.3c0.9,0.9,1.8,1.8,2.6,2.8c0.6,0.8,1.2,1.7,1.6,2.6c0.2,0.4,0.4,0.8,0.5,1.1
			c0.1,0.3,0.2,0.6,0.3,0.8C302.9,222.4,303,222.6,303,222.9z"/>
		<path class="st3" d="M222.7,218.1c-0.3,0.4-0.7,0.8-1.1,1.2c-1,0.9-2,1.7-3.2,2.4c-1.2,0.7-2.4,1.2-3.7,1.4
			c-0.5,0.1-1.1,0.2-1.6,0.2c0-0.1,2.5-0.4,5.2-1.9c1.1-0.7,2.2-1.4,3.2-2.3C221.8,218.7,222.3,218.3,222.7,218.1z"/>
	</g>
	<g id="character-1--inject-1">
		<path class="st1" d="M71.9,201.4c1.2,0-9.5,29-12.3,36.4c-0.3,0.8-0.5,1.5-0.5,1.5l75.6,0.1l-0.9-70.3c0,0,0-0.1,0-0.1l-6.3-50.3
			c-0.1-0.5-0.4-0.9-0.9-1c-3-0.8-13.8-3.6-22-3.9c-9.7-0.4-23.7,1.6-23.7,1.6s-12.6,1.2-19.5,3.8c-0.6,0.2-0.9,0.8-0.8,1.3
			L71.9,201.4z"/>
		<path class="st4" d="M106.8,170.2c-0.1,0.3-0.2,0.6-0.4,0.9c-0.2,0.4-0.3,0.7-0.5,1c-0.2,0.5-0.5,0.9-0.8,1.3
			c-0.3,0.5-0.7,1-1.1,1.5c-0.4,0.6-0.9,1.1-1.4,1.6c-1.2,1.2-2.4,2.2-3.8,3.1c-1.4,0.9-2.8,1.6-4.4,2.2c-0.7,0.2-1.4,0.5-2,0.7
			c-0.6,0.2-1.2,0.3-1.8,0.4c-0.5,0.1-1,0.2-1.5,0.2c-0.4,0.1-0.8,0.1-1.2,0.1c-0.3,0-0.7,0-1,0c0-0.1,1.4-0.1,3.6-0.5
			c0.6-0.1,1.2-0.3,1.8-0.4c0.6-0.2,1.3-0.4,2-0.7c1.5-0.6,2.9-1.3,4.3-2.2c1.3-0.9,2.6-1.9,3.8-3c0.5-0.5,1-1,1.4-1.6
			c0.4-0.5,0.8-1,1.1-1.5C106.2,171.5,106.8,170.2,106.8,170.2z"/>
		<g class="st6">
			<path d="M61.6,232.3c7.2,3,15.4,1.9,21.7-2.7c2.7-2,5-4.6,8-6.2c4.1-2.3,8.9-2.5,13.6-2.8c6.2-0.4,12.5-1.2,18.4-3.4
				c1.2-0.4,2.3-1,3.2-1.9c0.8-1,1.1-2.5,0.3-3.5c-0.8-1-2.3-1.1-3.6-1c-19.5,0.6-37.4,2.1-56.4,6.7"/>
		</g>
		<path class="st4" d="M82.7,41.4c6-6.2,15.6-9.8,23.5-6.3c5.3,2.3,8.9,7.3,13.6,10.8c3.4,2.5,7.6,4.5,9.4,8.3
			c1.6,3.4,0.8,7.3,0.4,11c-0.4,3.7-0.1,8,2.8,10.3c1.5,1.2,3.5,1.7,5.2,2.7c3.4,2,5.4,5.8,6.2,9.6c0.7,3.9,0.3,7.8-0.1,11.8
			l-16.3,3.1l-2.7-4.5l-0.9,7l-20.8,1.9L82.7,41.4z"/>
		<path class="st8" d="M80,48.1v4.5l-1.3,67.9c-0.1,7.9,7.4,14.6,15.8,14.6l0,0c8.5,0.1,12-6.3,12.2-14.3c0.3-8.3,0.7-17.1,0.7-17.1
			s10.8-1.5,13.4-15.4c1.3-6.9,1.3-18.4,0.9-27.7c-0.3-8.2-7.1-14.6-15.3-14.3c-0.2,0-0.4,0-0.6,0L80,48.1z"/>
		<path class="st4" d="M118.1,69.6c0,1-0.8,1.8-1.8,1.8c-0.9,0.1-1.8-0.7-1.8-1.6c0,0,0,0,0,0c0-1,0.8-1.8,1.8-1.8
			C117.2,67.9,118,68.6,118.1,69.6C118.1,69.6,118.1,69.6,118.1,69.6z"/>
		<path class="st4" d="M119.1,66.4c-0.2,0.2-1.6-0.8-3.5-0.9c-1.9,0-3.4,0.9-3.6,0.6c-0.1-0.1,0.1-0.5,0.8-1
			c0.9-0.6,1.9-0.8,2.9-0.8c1,0,2,0.4,2.8,1C119.1,65.9,119.2,66.3,119.1,66.4z"/>
		<path class="st4" d="M99,69.6c0,1-0.8,1.8-1.8,1.8c-0.9,0.1-1.8-0.7-1.8-1.6c0,0,0,0,0,0c0-1,0.8-1.8,1.8-1.8
			C98.2,67.9,99,68.6,99,69.6C99,69.6,99,69.6,99,69.6z"/>
		<path class="st4" d="M100.1,66.3c-0.2,0.2-1.6-0.8-3.5-0.9c-1.9,0-3.4,0.9-3.6,0.6c-0.1-0.1,0.1-0.5,0.8-1
			c0.9-0.6,1.9-0.8,2.9-0.8c1,0,2,0.4,2.8,1C100,65.8,100.2,66.2,100.1,66.3z"/>
		<path class="st4" d="M106.7,80.8c0-0.1,1.2-0.3,3.2-0.5c0.5,0,1-0.1,1.1-0.5c0.1-0.5,0-1-0.3-1.5c-0.4-1.2-0.9-2.5-1.4-3.8
			c-1.9-5.4-3.2-9.8-3-9.9c0.2-0.1,1.9,4.3,3.8,9.7c0.5,1.3,0.9,2.6,1.3,3.8c0.3,0.6,0.4,1.3,0.2,1.9c-0.2,0.4-0.5,0.6-0.8,0.7
			c-0.3,0.1-0.6,0.1-0.8,0.1C108,81,106.7,80.9,106.7,80.8z"/>
		<path class="st9" d="M107.4,103.8c-6.6-0.1-13.1-2-18.6-5.5c0,0,4.3,9.8,18.4,8.8L107.4,103.8z"/>
		<path class="st9" d="M105.8,85.5c-0.7-1-1.9-1.5-3.1-1.4c-0.9,0.1-1.7,0.5-2.2,1.1c-0.5,0.6-0.6,1.6-0.2,2.3
			c0.6,0.7,1.6,1,2.5,0.7c0.9-0.3,1.8-0.8,2.5-1.4c0.2-0.1,0.4-0.3,0.6-0.6C106,86,106,85.7,105.8,85.5"/>
		<path class="st4" d="M101,82c0.3,0,0.3,2.1,2,3.6s4,1.4,4,1.7c0,0.1-0.5,0.4-1.5,0.4c-1.2,0-2.4-0.5-3.3-1.3
			c-0.9-0.8-1.5-1.9-1.6-3C100.6,82.5,100.9,82,101,82z"/>
		<path class="st4" d="M100.7,60.7c-0.2,0.5-2.1,0.2-4.4,0.4c-2.3,0.2-4.1,0.8-4.4,0.3c-0.1-0.2,0.2-0.7,1-1.2
			c2-1.2,4.5-1.4,6.7-0.6C100.4,60,100.8,60.4,100.7,60.7z"/>
		<path class="st4" d="M119.2,62.5c-0.4,0.4-2-0.1-4-0.2c-2-0.1-3.6,0.2-4-0.3c-0.2-0.2,0.1-0.7,0.8-1.1c1-0.5,2.1-0.7,3.3-0.6
			c1.1,0,2.2,0.4,3.2,1C119.2,61.9,119.4,62.3,119.2,62.5z"/>
		<path class="st1" d="M65.6,117.8c0,0-22.5,5.3-26.9,26.6c-2,9.8-4.8,66.2,8.3,75c17,11.3,38.6,1,38.6,1l-2.8-27.3h-14l-1.9-29.9
			C67.3,165.7,65.6,117.8,65.6,117.8z"/>
		<path class="st1" d="M145.8,211.7c9.2-0.9,16-8.9,15.6-18.1l-9.2-39.1c0,0-6-33.6-24.9-36.6l6.4,51.2l-0.6,10.8
			c0,0,0.3,7.1,1,20.5L145.8,211.7z"/>
		<path class="st4" d="M148.2,187.3c-1.1,0-2.3,0.2-3.4,0.4c-5.5,1.1-9.8,5.5-10.8,11.1c-0.2,1.1-0.3,2.3-0.3,3.4
			c-0.1-0.3-0.1-0.6-0.1-0.9c0-0.8,0-1.7,0.2-2.5c0.9-5.7,5.4-10.2,11.1-11.2c0.8-0.2,1.7-0.2,2.5-0.2
			C147.6,187.2,147.9,187.2,148.2,187.3z"/>
		<path class="st4" d="M90,39.9c2.5,3.4,3.7,6,5.3,12.1c0.8,3-1.7,5.1-4.1,6.9c-0.8,0.6-2.1,0.5-2.7-0.4c-0.2-0.2-0.3-0.5-0.3-0.8
			l0,0c0,0,0.8,9.3-2.5,13.5c-1.6,2-1.6,4.5-1.3,6.6c0.4,2.1,1.5,4.1,3,5.7c3.9,4.1,5,10.8,2.3,15.8c-0.8,1.2-1.5,2.5-2.1,3.8
			c-0.3,0.8-0.5,1.6-0.4,2.5c0.1,1-0.6,1.9-1.7,2.1c-11.5,1.7-23.2,2-34.8,1c-0.8-0.1-1.5-0.6-1.7-1.4c-0.9-3.9,0.6-8.1,2.6-11.6
			c2.2-4,4.9-7.8,5.7-12.2c0.7-4.2-0.4-8.7,1.2-12.6c2.1-4.8,7.7-7.1,10.5-11.4c2.7-4.1,2.4-9.6,4.8-13.9
			C76.7,39.9,84.3,37.3,90,39.9"/>
		<path class="st4" d="M90.7,45c4.4,2.3,6.4,7.7,10.7,10.2c3.9,2.3,8.8,1.7,13.2,1c-0.2-1-0.3-2-0.5-3c0.4,0.9,1,1.7,1.7,2.4
			c0.7,0.7,1.8,0.9,2.7,0.6c1.5-0.6,1.7-2.7,1.3-4.2c-0.7-2.5-2-4.8-3.9-6.6c-6.9-7-17.9-7.9-25.8-2.1"/>
		<path class="st4" d="M132,144.8c0,0.2,0,0.4,0,0.6c0,0.4,0,0.9,0,1.6c0,1.4,0.1,3.4,0.2,5.8c0.2,4.9,0.7,11.7,1.2,19.1
			c0.6,7.5,1,14.2,1.1,19.1c0.1,2.5,0.1,4.4,0.1,5.8c0,0.7,0,1.2,0,1.6c0,0.2,0,0.4,0,0.6c0-0.2,0-0.4,0-0.6c0-0.4,0-0.9,0-1.6
			c0-1.4-0.1-3.4-0.2-5.8c-0.2-4.9-0.7-11.7-1.2-19.1c-0.5-7.5-1-14.2-1.1-19.1c-0.1-2.5-0.1-4.4-0.1-5.8c0-0.7,0-1.2,0-1.6
			C132,145.2,132,145,132,144.8z"/>
		<path class="st4" d="M68.7,193.2c0-0.1,0-0.3,0-0.4c0-0.3,0-0.7-0.1-1.1c-0.1-1-0.1-2.4-0.2-4.1c-0.2-3.5-0.5-8.3-0.9-13.7
			c-0.4-5.3-0.7-10.1-0.9-13.6c-0.1-1.7-0.2-3.1-0.3-4.1c0-0.5,0-0.8-0.1-1.1c0-0.1,0-0.3,0-0.4c0,0.1,0.1,0.3,0.1,0.4
			c0,0.3,0.1,0.7,0.1,1.1c0.1,1,0.2,2.4,0.4,4.1c0.3,3.5,0.7,8.3,1.1,13.6c0.4,5.3,0.6,10.2,0.8,13.7c0.1,1.8,0.1,3.2,0.1,4.1v1.1
			C68.7,193,68.7,193.1,68.7,193.2z"/>
		<path class="st4" d="M68.7,193.2c0,0.1-0.7,0.1-1.8,0.5c-2.9,1-5.1,3.5-5.5,6.6c-0.2,1.1-0.1,1.9-0.1,1.9s-0.1-0.2-0.1-0.5
			c-0.1-0.5-0.1-0.9,0-1.4c0.2-1.6,0.8-3.1,1.8-4.3c1-1.2,2.4-2.1,3.9-2.5c0.5-0.1,0.9-0.2,1.4-0.2
			C68.5,193.2,68.7,193.2,68.7,193.2z"/>
		<path class="st4" d="M85.5,220.5c0-0.1-0.1-0.3-0.1-0.4c0-0.3-0.1-0.7-0.2-1.2c-0.1-1.1-0.3-2.7-0.5-4.6c-0.4-3.9-1-9.2-1.6-15.1
			c-0.2-2-0.4-4-0.6-5.9l0.2,0.2l-11.2-0.1l-3.3,0h-0.9c-0.1,0-0.2,0-0.3,0c0.1,0,0.2,0,0.3,0h0.9l3.3,0l11.2-0.1h0.2v0.2l0.6,5.9
			c0.6,5.9,1.1,11.2,1.5,15.2c0.2,1.9,0.3,3.5,0.4,4.6c0,0.5,0.1,0.9,0.1,1.3C85.5,220.3,85.5,220.4,85.5,220.5z"/>
		<path class="st4" d="M85.5,220.5c-0.2,0.1-0.4,0.1-0.5,0.2l-1.5,0.5c-1.3,0.4-3.3,1-5.7,1.7c-2.8,0.8-5.7,1.4-8.6,1.8
			c-3.6,0.5-7.2,0.3-10.8-0.5c-1.8-0.4-3.6-0.9-5.4-1.5c-0.8-0.3-1.7-0.6-2.5-1c-0.4-0.2-0.8-0.3-1.2-0.5l-0.6-0.3l-0.5-0.3
			c-1.3-0.9-2.5-2-3.4-3.3c-0.8-1.1-1.5-2.3-2.1-3.6c-0.8-1.8-1.5-3.7-2.1-5.6c-0.2-0.7-0.4-1.2-0.5-1.5c-0.1-0.2-0.1-0.4-0.1-0.6
			c0.1,0.2,0.2,0.3,0.2,0.5l0.5,1.5c0.6,1.9,1.4,3.7,2.2,5.5c0.6,1.2,1.3,2.4,2.1,3.5c0.9,1.3,2,2.3,3.3,3.2l0.5,0.3l0.6,0.3
			c0.4,0.2,0.8,0.4,1.2,0.5c0.8,0.3,1.6,0.6,2.5,0.9c1.8,0.6,3.5,1.1,5.4,1.5c3.5,0.8,7.1,1,10.6,0.5c2.9-0.4,5.8-1,8.6-1.7
			c2.4-0.6,4.4-1.2,5.7-1.5l1.6-0.4C85.1,220.6,85.3,220.6,85.5,220.5z"/>
		<path class="st4" d="M73.6,56.5c1.4-3.4,0.6-7.3-2.1-9.8c-2.7-2.4-6.5-3.3-9.9-2.1c-1.5,0.5-2.9,1.4-3.9,2.7
			c-1.7,2.4-1.4,5.9,0.4,8.2c1.9,2.3,4.7,3.6,7.7,3.7c2.9,0.1,5.9-0.5,8.5-1.8"/>
		<path class="st7" d="M96.9,167.7c4.9,4,16.4,13.6,16.4,13.6l6.5-1.1l-19.6-16.5c-1.1-0.9-2.6-0.8-3.6,0.2l0,0c-1,1-1,2.7,0.1,3.7
			C96.8,167.6,96.8,167.6,96.9,167.7z"/>
		<path class="st7" d="M96.4,165.5l-2.5-2.3c-0.5-0.4-0.5-1.2-0.1-1.7l0,0c0.4-0.5,1.2-0.6,1.8-0.1c0,0,0,0,0,0l2.4,2.2L96.4,165.5z
			"/>
		<path class="st4" d="M103.9,166.8c-0.4,0.7-1,1.4-1.6,1.9c-0.5,0.6-1.1,1.2-1.8,1.7c0.4-0.7,1-1.4,1.6-1.9
			C102.6,167.8,103.2,167.2,103.9,166.8z"/>
		<path class="st4" d="M104.1,174.8c-0.7-0.4-1.3-0.8-2-1.3c-1.2-0.8-2.7-2.1-4.4-3.5c-0.9-0.6-1.6-1.4-2.1-2.4
			c-0.4-0.8-0.4-1.7-0.1-2.6c0.2-0.6,0.6-1,1-1.4c0.3-0.2,0.5-0.3,0.6-0.3c0,0-0.2,0.1-0.5,0.4c-0.4,0.4-0.7,0.9-0.9,1.4
			c-0.3,0.8-0.2,1.6,0.1,2.3c0.5,0.9,1.2,1.6,2,2.2c1.6,1.4,3.2,2.7,4.3,3.6C102.9,173.8,103.5,174.3,104.1,174.8z"/>
		<path class="st8" d="M82.9,195.4c4.7-1.6,9.6-0.5,14.2-2.1c1.6-0.4,3.1-1.2,4.4-2.2c1.5-1.3,2.2-3.2,3.4-4.8
			c3.5-4.7,10.1-5.7,16-6.3c1.4-0.2,2.8-0.2,4.1,0.1c1.4,0.3,2.5,1.3,3,2.6c0.4,1.3-0.5,3-1.9,3.1c1.3,0.1,2.2,1.4,2.4,2.6
			c0.2,1.3,0,2.6,0.2,3.8c0.2,1.8,1.2,3.5,1.2,5.3c-0.1,2.5-2.1,4.5-4.4,5.5c-2.3,1-4.8,1.1-7.3,1.4c-12.1,1.7-21.2,8.5-32.8,13.7"
			/>
		<path class="st8" d="M128.7,190.1c0.5,0.8,1.5,1,2.3,0.5c0,0,0.1,0,0.1-0.1c0.7-0.6,1.1-1.5,0.9-2.4c-0.2-0.9-0.6-1.8-1.2-2.5
			c-1-1.3-2.1-2.6-3.4-3.7l-3.7,3.1L128.7,190.1z"/>
		<path class="st9" d="M127.3,186c0,0.1-2.3-0.1-5,0.4c-2.8,0.4-4.9,1.3-4.9,1.1c0.4-0.3,0.9-0.5,1.4-0.6c1.1-0.4,2.3-0.7,3.5-0.9
			c1.2-0.2,2.4-0.2,3.6-0.2C126.4,185.8,126.8,185.9,127.3,186z"/>
		<path class="st9" d="M129,193.3c0,0.1-1.9-0.3-4.3-0.2s-4.2,0.5-4.3,0.4C123.2,192.5,126.2,192.5,129,193.3L129,193.3z"/>
		<path class="st9" d="M128.6,191.2c-0.1,0,0-0.5-0.1-1.4c-0.1-1.1-0.5-2.2-1.1-3.1c-0.1-0.2-0.3-0.4-0.5-0.7l-0.1-0.1l0.1-0.1
			c0.6-0.7,1-1.5,1-2.5c0-0.7-0.2-1.1-0.2-1.1c0.3,0.3,0.4,0.7,0.4,1.1c0.1,1-0.2,2-1,2.7v-0.2c0.2,0.2,0.4,0.5,0.5,0.7
			c0.6,1,1,2.1,1.1,3.3C128.8,190.2,128.7,190.7,128.6,191.2z"/>
		<path class="st7" d="M128.7,189.7l6.1,5.7l0.8,3.4l-5.7-1.3C129.1,194.7,128.5,191.9,128.7,189.7z"/>
		<path class="st10" d="M120.4,197c-0.1,0.2-33,16.4-33,16.4v3.5l33.6-17.5l41.6-1.5v-2.5L120.4,197z"/>
		<path class="st4" d="M87.4,217.4c0.2-0.2,36.3-3.4,36.3-3.4l38.9-16.1l-41.6,1.6l-33.6,17.5V217.4z"/>
		<path class="st8" d="M122,208.8c-0.3-1.9,1.5-3.5,3.4-4s3.8-0.3,5.7-0.7c1.2-0.3,2.3-0.7,3.5-1.2c5.7-2.2,12.1-2.3,18.2-2.4
			c0.7,1.7,0.2,3.7-1.4,4.8c0.5,1.5,0.4,3.2-0.2,4.6c-0.6,1.4-1.5,2.8-2.6,3.9c-0.8,1.1-1.8,1.9-3,2.5c-1.2,0.5-2.6,0.7-3.9,0.6
			c-4.1,0.1-8.6,0.1-12-2.2C127,212.9,125.1,209.8,122,208.8l0.8,0.1"/>
		<path class="st9" d="M149.5,206.5c-0.3,0.1-0.5,0.1-0.8,0.1l-2.2,0.1c-1.8,0-4.3,0.1-7.1,0.1h-3.9c-0.6,0-1.2-0.1-1.7-0.3
			c-0.5-0.2-0.9-0.5-1.3-0.9c-0.3-0.4-0.4-0.8-0.3-1.2c0.1-0.3,0.2-0.6,0.4-0.9c0.2-0.2,0.4-0.3,0.7-0.3c-0.2,0.1-0.5,0.2-0.6,0.4
			c-0.5,0.5-0.5,1.3,0,1.9c0.3,0.4,0.7,0.6,1.1,0.8c0.5,0.2,1.1,0.2,1.6,0.2h3.9c2.8,0,5.3,0,7.1,0l2.2,0
			C149,206.4,149.2,206.4,149.5,206.5z"/>
		<path class="st9" d="M147.4,210c-0.3,0.1-0.7,0.2-1,0.2c-0.6,0.1-1.6,0.2-2.7,0.4c-1.4,0.1-2.7,0.2-4.1,0.1
			c-1.7-0.1-3.3-0.4-4.9-0.8c-2.9-0.7-5.9-1.1-9-1.1c-1.2,0-2.1,0-2.7,0.1c-0.3,0-0.7,0-1,0c0.3-0.1,0.7-0.1,1-0.2
			c0.9-0.1,1.8-0.2,2.7-0.2c3-0.1,6.1,0.3,9,1c1.6,0.4,3.3,0.7,4.9,0.9c1.4,0.1,2.7,0.1,4.1,0c1.2-0.1,2.1-0.2,2.7-0.2
			C146.7,209.9,147.1,209.9,147.4,210z"/>
		<path class="st9" d="M144,213.7c-0.3,0.1-0.5,0.1-0.8,0.1c-0.5,0.1-1.2,0.2-2.1,0.2c-2.4,0.2-4.7,0.2-7.1-0.2
			c-2.8-0.5-4.9-1.9-6.6-2.6c-0.9-0.4-1.8-0.6-2.8-0.8c0.3,0,0.5,0,0.8,0c0.7,0.1,1.4,0.3,2.1,0.6c1.7,0.6,3.9,2,6.5,2.5
			c2.3,0.4,4.7,0.5,7,0.3l2.1-0.1C143.5,213.6,143.7,213.6,144,213.7z"/>
		<g class="st6">
			<path d="M134.6,194.8c0.3-2.6,1-5.1,2-7.4c1.1-2.3,3-4.2,5.3-5.4c2.4-1.1,5.2-1,7.4,0.4c0.7,0.4,1.2,1,1.5,1.8
				c0.3,0.7,0.2,1.6-0.4,2.2c-0.8,0.8-2.1,0.7-3.2,0.6c-5.3-0.1-10.2,2.8-12.5,7.5"/>
		</g>
		<g class="st6">
			<path d="M73.8,192.7c2.8-5,1.8-11.3-0.3-16.7s-5.3-10.2-7-15.7c-0.3,11.2,1.3,22.3,4.8,32.9"/>
		</g>
		<path class="st1" d="M78.7,115.8c0,0,3.4,8,15.7,7.5c12.3-0.5,12.7-10,12.7-10l8.2,8.7l-7.8,16.1L97,145.9L82.7,140l-11.8-9.1
			L78.7,115.8z"/>
		<g class="st11">
			<path class="st5" d="M50,150.1c0.1,0.2-1.5,1.7-3.6,3.3c-2.1,1.7-3.9,2.9-4,2.8s1.5-1.6,3.6-3.3C48,151.2,49.8,149.9,50,150.1z"
				/>
		</g>
		<path class="st5" d="M55.7,141.4c-0.1,0.2-2-0.4-4.1-1.7c-2.1-1.3-3.5-2.8-3.3-2.9c0.1-0.1,1.7,1,3.7,2.3S55.8,141.2,55.7,141.4z"
			/>
		<path class="st5" d="M66.3,142.4c0.2,0.1-1.4,2.4-3.1,5.2s-3.1,5.2-3.3,5.2c-0.2-0.1,0.9-2.6,2.7-5.5
			C64.3,144.3,66.1,142.2,66.3,142.4z"/>
		<path class="st5" d="M57.3,166.7c-0.1,0.1-1.8-1.5-3.2-4c-1.4-2.4-2.1-4.7-1.9-4.7c0.2-0.1,1.1,2,2.5,4.4
			C56.1,164.8,57.4,166.6,57.3,166.7z"/>
		<path class="st5" d="M47.8,178.5c-0.2,0-0.6-1.8-0.9-4c-0.3-2.2-0.4-4.1-0.2-4.1c0.2,0,0.6,1.8,0.9,4
			C48,176.7,48,178.5,47.8,178.5z"/>
		<g class="st11">
			<path class="st5" d="M56.7,181.7c-0.2-0.1,0.7-2,2-4.2c1.3-2.2,2.5-3.9,2.6-3.8c0.2,0.1-0.7,2-2,4.2
				C58,180.1,56.9,181.8,56.7,181.7z"/>
		</g>
		<path class="st5" d="M46.4,193.9c-0.1,0.1-1.7-1.4-3.2-3.6c-1.5-2.2-2.4-4.2-2.2-4.3c0.2-0.1,1.3,1.7,2.8,3.9
			C45.2,192.1,46.6,193.8,46.4,193.9z"/>
		<path class="st5" d="M60.4,191.9c0.1,0.1-1.5,2-3.6,4.1c-2.1,2.1-4,3.8-4.1,3.6s1.5-2,3.6-4.2C58.4,193.4,60.3,191.8,60.4,191.9z"
			/>
		<g class="st11">
			<path class="st5" d="M52.4,217.1c-0.1,0.1-1.7-1.1-3.1-3.2s-2.1-3.9-1.9-4c0.2-0.1,1.2,1.6,2.5,3.6
				C51.3,215.5,52.6,217,52.4,217.1z"/>
		</g>
		<path class="st5" d="M70.5,212c0.1,0.2-1.6,1.3-3.8,2.6s-4.1,2.2-4.2,2c-0.1-0.2,1.6-1.3,3.8-2.6S70.4,211.8,70.5,212z"/>
		<path class="st5" d="M77.5,206.2c-0.1,0.1-1.8-1.1-3.2-3.1s-2.2-4-2-4s1.1,1.7,2.6,3.6C76.3,204.6,77.7,206,77.5,206.2z"/>
		<path class="st5" d="M89.9,165.8c0.1,0.2-1.7,1.8-4.1,3.6c-2.4,1.8-4.5,3.1-4.6,3s1.7-1.8,4.2-3.6C87.8,167,89.8,165.7,89.9,165.8
			z"/>
		<path class="st5" d="M76.9,165c-0.2,0-0.2-1.9,0.1-4.3c0.2-2.3,0.6-4.2,0.8-4.2c0.2,0,0.2,1.9-0.1,4.3
			C77.4,163.1,77.1,165,76.9,165z"/>
		<g class="st11">
			<path class="st5" d="M88.9,148.6c-0.1,0.2-2.3-1.2-4.7-3.2c-2.4-2-4.1-4-3.9-4.1c0.1-0.1,2,1.5,4.4,3.5
				C87.1,146.8,89,148.4,88.9,148.6z"/>
		</g>
		<path class="st5" d="M79.9,128.1c0.2,0.1-1.4,2.2-3.4,4.6c-2,2.4-3.8,4.3-4,4.1c-0.2-0.1,1.4-2.2,3.4-4.6
			C77.9,129.8,79.7,128,79.9,128.1z"/>
		<g class="st11">
			<path class="st5" d="M69.5,125.9c-0.1,0.2-1.7-0.6-3.7-1.3s-3.7-1-3.7-1.2c0-0.2,1.9-0.2,4,0.5S69.6,125.7,69.5,125.9z"/>
		</g>
		<path class="st5" d="M95.8,135.3c-0.2-0.1,0.1-1.8,0.7-3.8c0.6-2,1.2-3.7,1.4-3.6c0.2,0.1-0.1,1.8-0.7,3.8
			C96.7,133.8,96,135.4,95.8,135.3z"/>
		<path class="st5" d="M102.1,151.5c-0.2,0-0.3-1.7-0.2-3.7c0.1-2,0.4-3.7,0.6-3.7c0.2,0,0.3,1.7,0.2,3.7S102.3,151.5,102.1,151.5z"
			/>
		<path class="st5" d="M112.5,163.6c-0.1,0.2-1.7-0.9-3.4-2.3c-1.8-1.4-3.1-2.7-3-2.9c0.1-0.2,1.7,0.9,3.4,2.3
			S112.6,163.4,112.5,163.6z"/>
		<path class="st5" d="M123.5,146.7c0.1,0.1-1.2,1.6-3.1,3.2c-1.8,1.6-3.4,2.8-3.5,2.6c-0.1-0.2,1.2-1.6,3.1-3.2
			C121.9,147.7,123.4,146.5,123.5,146.7z"/>
		<g class="st11">
			<path class="st5" d="M118.5,138.7c-0.1,0.2-1.8-0.8-3.7-2.3c-1.9-1.5-3.1-3.1-3-3.2c0.1-0.1,1.6,1.1,3.4,2.6
				C117.1,137.3,118.6,138.5,118.5,138.7z"/>
		</g>
		<path class="st5" d="M131.2,124.5c0.2,0.1-0.7,1.6-2.2,3c-1.5,1.4-3,2.2-3.1,2c-0.1-0.2,1.2-1.2,2.6-2.5
			C130,125.5,131,124.3,131.2,124.5z"/>
		<g class="st11">
			<path class="st5" d="M122.4,123.1c0,0.2-2.3,0-4.9-0.6s-4.7-1.6-4.6-1.8c0.1-0.2,2.2,0.4,4.8,1.1
				C120.4,122.4,122.5,122.9,122.4,123.1z"/>
		</g>
		<g class="st11">
			<path class="st5" d="M138.7,145.8c-0.2,0,0.2-2.8,1.2-6s2.2-5.8,2.3-5.7c0.2,0.1-0.7,2.7-1.6,5.9
				C139.7,143.2,138.9,145.8,138.7,145.8z"/>
		</g>
		<path class="st5" d="M142.3,161.2c-0.1,0.1-1.9-1.5-3.9-3.6c-2-2.1-3.5-3.9-3.3-4.1s1.9,1.5,3.9,3.6
			C141,159.3,142.5,161.1,142.3,161.2z"/>
		<g class="st11">
			<path class="st5" d="M147.9,170c-0.2,0-0.3-2.3-0.3-5.1s0.3-5.1,0.5-5.1c0.2,0,0.3,2.3,0.3,5.1C148.3,167.7,148.1,170,147.9,170z
				"/>
		</g>
		<path class="st5" d="M142.3,184.4c-0.2,0.1-1.7-1.7-3-4.3c-1.4-2.6-2.1-4.8-1.9-4.9s1.2,2,2.6,4.5
			C141.2,182.3,142.4,184.3,142.3,184.4z"/>
		<path class="st5" d="M156.7,187.1c0.1,0.1-0.8,1.3-2.2,2.6c-1.3,1.3-2.5,2.3-2.7,2.1s0.8-1.3,2.2-2.6
			C155.4,187.8,156.6,186.9,156.7,187.1z"/>
		<g class="st11">
			<path class="st5" d="M121.5,170.6c-0.2-0.1,0.5-2.4,2.1-4.8s3.6-3.8,3.7-3.7c0.1,0.2-1.5,1.8-3.1,4.1
				C122.6,168.6,121.7,170.7,121.5,170.6z"/>
		</g>
		<path class="st5" d="M80.6,189.9c-0.2,0,0.1-2.1,0.8-4.7c0.6-2.6,1.3-4.5,1.5-4.5c0.2,0-0.2,2.1-0.8,4.7
			C81.5,187.9,80.8,189.9,80.6,189.9z"/>
		<path class="st5" d="M97.8,191.6c-0.1,0.2-1.9-0.8-3.9-2.1c-2-1.3-3.6-2.5-3.5-2.7c0.1-0.2,1.9,0.8,3.9,2.1
			C96.3,190.2,97.9,191.4,97.8,191.6z"/>
		<path class="st5" d="M97,179.1c-0.2,0.1-1-0.8-1.8-2.1c-0.8-1.3-1.4-2.4-1.2-2.5s1,0.8,1.8,2.1C96.6,177.9,97.1,179,97,179.1z"/>
		<path class="st5" d="M104.6,182c0.1,0.2-0.6,0.9-1.6,1.6c-1,0.7-1.9,1.2-2.1,1c-0.1-0.2,0.6-0.9,1.6-1.6
			C103.5,182.3,104.4,181.8,104.6,182z"/>
		<g class="st11">
			<path class="st5" d="M84.7,232.4c-0.2-0.1,0.1-1.7,0.4-3.6s0.4-3.6,0.7-3.6c0.2,0,0.4,1.7,0.1,3.7
				C85.6,230.9,84.9,232.4,84.7,232.4z"/>
		</g>
		<g class="st11">
			<path class="st5" d="M102.2,226.7c-0.2,0.1-1.5-1.9-3-4.5c-1.5-2.6-2.5-4.8-2.3-4.9c0.2-0.1,1.5,1.9,3,4.5
				C101.3,224.4,102.4,226.6,102.2,226.7z"/>
		</g>
		<g class="st11">
			<path class="st5" d="M120.7,218.9c0.2,0.1-1.6,2.7-3.9,5.7c-2.3,3-4.3,5.4-4.5,5.3c-0.2-0.1,1.6-2.7,3.9-5.7
				C118.6,221.1,120.6,218.8,120.7,218.9z"/>
		</g>
		<g class="st11">
			<path class="st5" d="M125.9,233.8c0,0.2-2.3,0.7-5.2,1.1s-5.3,0.6-5.3,0.4c0-0.2,2.3-0.7,5.2-1.1
				C123.6,233.7,125.9,233.6,125.9,233.8z"/>
		</g>
		<path class="st5" d="M126.8,226.3c-0.2,0,0-1.5,0-3.4c0-1.8,0-3.3,0.2-3.4c0.2,0,0.6,1.5,0.5,3.4S126.9,226.3,126.8,226.3z"/>
		<path class="st5" d="M101.7,235c-0.1,0.2-2-0.4-3.9-1.9c-2-1.4-3.2-3-3-3.1s1.5,1.2,3.5,2.5S101.8,234.8,101.7,235z"/>
		<path class="st5" d="M72,233.9c-0.2,0,0-1.7,0.5-3.6c0.5-1.9,1-3.4,1.2-3.4c0.2,0,0,1.6-0.5,3.6C72.7,232.4,72.2,233.9,72,233.9z"
			/>
		<path class="st7" d="M68.8,56.6c0-0.1,0.8,0.6,2.3,1.4c0.9,0.5,1.8,0.9,2.7,1.2c1.1,0.4,2.3,0.6,3.5,0.8c1.2,0.1,2.4,0.1,3.6,0
			c1-0.1,1.9-0.3,2.9-0.5c1.6-0.4,2.5-0.9,2.6-0.9c-0.2,0.1-0.4,0.3-0.6,0.4c-0.3,0.1-0.5,0.3-0.8,0.4c-0.4,0.1-0.7,0.3-1.1,0.4
			c-1,0.3-1.9,0.5-2.9,0.6c-1.2,0.1-2.4,0.1-3.7,0c-1.2-0.2-2.4-0.4-3.6-0.8c-0.9-0.3-1.8-0.8-2.7-1.3c-0.4-0.2-0.7-0.4-1-0.6
			c-0.2-0.2-0.5-0.3-0.7-0.5C68.9,56.8,68.7,56.6,68.8,56.6z"/>
		<path class="st7" d="M86.9,64.6c-0.2,0.1-0.5,0.2-0.8,0.2c-0.5,0.1-1.2,0.3-2.1,0.4c-2.4,0.5-4.8,0.5-7.2,0
			c-2.4-0.5-4.6-1.7-6.2-3.5c-0.5-0.6-0.9-1.2-1.2-1.9c-0.1-0.2-0.2-0.5-0.3-0.8c0.4,0.9,1,1.7,1.6,2.4c1.6,1.7,3.8,2.9,6.1,3.3
			c2.3,0.4,4.7,0.4,7.1,0.1c0.9-0.1,1.6-0.3,2.1-0.3C86.3,64.7,86.6,64.6,86.9,64.6z"/>
		<path class="st7" d="M61.9,107.5C61.9,107.5,61.8,107.5,61.9,107.5c-0.1-0.2-0.2-0.3-0.3-0.4c-0.3-0.4-0.5-0.9-0.6-1.4
			c-0.3-1.9,0.3-3.8,1.5-5.2c0.9-1,1.8-1.8,2.9-2.5c1.1-0.8,2.4-1.5,3.7-2.3c1.3-0.9,2.5-2,3.4-3.3c0.4-0.7,0.7-1.5,0.8-2.3
			c0.1-0.9,0.1-1.7-0.1-2.6c-0.5-1.7-1.1-3.3-1.8-4.8c-0.7-1.5-1.1-3.1-1.2-4.7c-0.1-2.8,0.8-5.5,2.4-7.8c1.1-1.5,2.5-2.8,4.1-3.6
			l0.8-0.4l0.6-0.2c0.2-0.1,0.3-0.1,0.5-0.1c-0.2,0.1-0.3,0.2-0.5,0.2l-0.6,0.2l-0.8,0.4c-1.6,0.9-3,2.2-4,3.7
			c-1.6,2.2-2.4,4.9-2.3,7.6c0.1,1.6,0.5,3.2,1.2,4.6c0.7,1.6,1.3,3.2,1.8,4.9c0.2,0.9,0.2,1.8,0.1,2.7c-0.1,0.9-0.4,1.7-0.9,2.5
			C72,94,70.8,95.2,69.4,96c-1.3,0.9-2.6,1.5-3.7,2.3c-1.1,0.7-2.1,1.5-2.9,2.4c-1.2,1.4-1.8,3.2-1.6,5
			C61.3,106.4,61.5,107,61.9,107.5z"/>
		<path class="st7" d="M80.6,107.8c-0.1-0.1-0.3-0.1-0.4-0.2c-0.4-0.3-0.7-0.6-0.9-1c-0.4-0.6-0.6-1.3-0.6-2c-0.1-0.9,0-1.9,0.3-2.8
			c0.6-2.1,2.3-3.9,3.6-6.3c0.7-1.2,1.1-2.6,1.1-4c-0.1-1.5-0.5-3-1.1-4.3c-1.3-2.8-3.4-5.1-4.8-7.4c-0.7-1.1-1.3-2.3-1.7-3.5
			c-0.3-1.1-0.5-2.2-0.3-3.4c0.1-1.7,0.8-3.2,2-4.4c0.3-0.3,0.7-0.5,1.1-0.7c0.1-0.1,0.3-0.1,0.4-0.2c-0.5,0.3-1,0.6-1.5,1
			c-1.1,1.2-1.8,2.7-1.9,4.3c-0.1,1.1,0,2.2,0.4,3.3c0.4,1.2,1,2.4,1.6,3.4c0.7,1.1,1.6,2.3,2.4,3.5c0.9,1.2,1.7,2.6,2.4,3.9
			c0.7,1.4,1.1,2.9,1.2,4.5c0,1.5-0.4,2.9-1.1,4.2c-1.3,2.4-3.1,4.2-3.6,6.2c-0.3,0.9-0.4,1.8-0.4,2.7c0,0.7,0.2,1.4,0.5,2
			C79.7,107,80.1,107.5,80.6,107.8z"/>
		<path class="st7" d="M108.3,55.2c0,0-0.1,0-0.3-0.1c-0.2-0.1-0.5-0.3-0.7-0.4c-0.8-0.6-1.5-1.4-2-2.3c-0.8-1.3-1.4-2.6-1.9-4
			c-0.3-0.8-0.7-1.6-1.1-2.4c-0.4-0.8-1-1.6-1.5-2.3c-2.1-2.5-4.9-4.4-8.1-5.2c-1.3-0.3-2.7-0.5-4-0.6c0.4-0.1,0.7-0.1,1.1-0.1
			c1,0,2,0.2,3,0.4c3.3,0.8,6.2,2.6,8.3,5.2c0.6,0.7,1.1,1.5,1.6,2.4c0.4,0.8,0.8,1.6,1.1,2.4c0.5,1.4,1.1,2.7,1.9,4
			c0.5,0.9,1.1,1.6,1.9,2.3C107.9,55,108.3,55.1,108.3,55.2z"/>
		<path class="st7" d="M118,55.1c-0.1,0-0.3,0-0.4,0c-0.4-0.1-0.7-0.1-1.1-0.3c-1.3-0.5-2.4-1.2-3.3-2.2c-1.4-1.4-2.5-3-3.5-4.8
			c-1.1-1.9-2.2-4.1-3.8-6.1c-1.6-1.8-3.6-3.1-6-3.7c-1.9-0.5-3.8-0.8-5.8-0.8c-1.7,0-3,0-4,0.1l-1.1,0c-0.1,0-0.3,0-0.4,0
			c0.1,0,0.2-0.1,0.4-0.1l1.1-0.1c0.9-0.1,2.3-0.2,4-0.2c2,0,4,0.2,5.9,0.7c2.4,0.6,4.5,1.9,6.1,3.8c1.7,2,2.8,4.2,3.8,6.1
			c0.9,1.7,2,3.3,3.4,4.8c0.9,1,2,1.7,3.2,2.2C117.5,55,118,55.1,118,55.1z"/>
		<path class="st7" d="M134.6,100.6c0,0,0.2-0.5,0.4-1.4c0.3-1.3,0.5-2.6,0.4-4c-0.1-2-0.6-3.9-1.5-5.7c-0.5-1-1.2-2-2-2.8
			c-0.8-0.9-1.7-1.8-2.7-2.7c-0.9-0.9-1.8-1.8-2.6-2.8c-0.7-0.9-1.4-2-1.9-3c-0.9-1.8-1.4-3.8-1.7-5.8c-0.2-1.3-0.1-2.7,0-4
			c0-0.4,0.1-0.7,0.2-1.1c0-0.1,0.1-0.3,0.1-0.4c0,0-0.1,0.5-0.2,1.5c-0.1,1.3-0.1,2.7,0.1,4c0.3,2,0.8,3.9,1.7,5.7
			c0.5,1,1.1,2,1.9,3c0.8,1,1.6,1.9,2.6,2.7c0.9,0.9,1.9,1.8,2.7,2.7c0.8,0.9,1.5,1.9,2,2.9c0.9,1.8,1.4,3.8,1.5,5.8
			c0,1.4-0.1,2.7-0.5,4c-0.1,0.4-0.2,0.7-0.4,1C134.7,100.4,134.7,100.5,134.6,100.6z"/>
		<path class="st7" d="M57.8,54.6c0-0.2,0-0.5,0.1-0.7c0.1-0.6,0.4-1.2,0.7-1.7c2-3.6,6.5-5,10.2-3.1c0.3,0.1,0.5,0.3,0.7,0.5
			c0.5,0.3,1,0.8,1.4,1.3c0.2,0.2,0.3,0.4,0.4,0.6c-0.6-0.6-1.2-1.1-1.9-1.6c-3.4-2.2-8.1-1.3-10.3,2.2c-0.1,0.1-0.1,0.2-0.2,0.3
			C58.4,53,58,53.8,57.8,54.6z"/>
		<path class="st7" d="M64.6,57.5c0-0.5,0.1-1.1,0.2-1.6c0.2-1.3,0.8-2.5,1.7-3.5c1-1,2.4-1.3,3.7-0.9c0.4,0.1,0.7,0.4,1,0.7
			c0.2,0.2,0.2,0.4,0.2,0.4c-0.4-0.4-0.8-0.7-1.3-0.8c-1.2-0.3-2.5,0.1-3.4,1c-0.8,1-1.4,2.1-1.7,3.3C64.9,56.5,64.8,57,64.6,57.5z"
			/>
		<path class="st1" d="M73.5,47.2c-0.7,1.2-1.3,2.5-1.8,3.8c-0.4,1.4-0.7,2.7-1,4.1C70.5,52.3,71.5,49.4,73.5,47.2L73.5,47.2z"/>
	</g>
	<g id="speech-bubble--inject-1">
		<path class="st7" d="M185.6,64.3c0,1.2,1,2.2,2.2,2.2s2.2-1,2.2-2.2c0-1.2-1-2.2-2.2-2.2l0,0C186.6,62.1,185.6,63.1,185.6,64.3z"
			/>
		<circle class="st7" cx="179.1" cy="64.3" r="2.2"/>
		<path class="st7" d="M168.2,63.2c-0.6,1-0.2,2.4,0.8,3c1,0.6,2.4,0.2,3-0.8c0.6-1,0.2-2.4-0.8-3C170.1,61.8,168.8,62.2,168.2,63.2
			C168.2,63.2,168.2,63.2,168.2,63.2z"/>
		<path class="st7" d="M179,38.8c-0.1,0-0.3,0-0.4,0l-1.3,0c-0.3,0-0.6,0-1,0l-1.1,0.2l-1.3,0.2l-1.5,0.4c-2.6,0.6-5,1.7-7.2,3.1
			c-6.7,4.2-11,11.3-11.7,19.2c-0.1,1.2-0.1,2.3-0.1,3.5c0,0.6,0,1.2,0.1,1.8l0.3,1.8c0.5,2.5,1.3,4.9,2.4,7.1
			c1.2,2.3,2.8,4.5,4.6,6.4c2,1.9,4.2,3.6,6.7,4.8c2.5,1.3,5.3,2.1,8.1,2.5c0.7,0.1,1.5,0.2,2.2,0.2c0.7,0,1.5,0,2.2,0
			c1.5-0.1,3-0.2,4.4-0.6c3.1-0.7,6.1-1.9,8.7-3.7h-0.3l8.9,3.6l0.5,0.2l-0.2-0.5c-0.9-3.3-1.8-6.5-2.6-9.6l0,0.2
			c2.4-3.2,4.1-7,4.8-10.9c0.3-1.8,0.5-3.7,0.4-5.6c0-0.9-0.1-1.8-0.3-2.7c-0.1-0.4-0.1-0.9-0.2-1.3c-0.1-0.4-0.2-0.8-0.3-1.3
			c-1.5-5.9-5-11-10-14.5c-1.8-1.3-3.8-2.4-5.9-3.1l-1.3-0.5l-1.3-0.3l-1.2-0.3c-0.4-0.1-0.7-0.1-1.1-0.2c-0.7-0.1-1.3-0.2-1.8-0.2
			l-1.3,0h-0.8C179,38.8,179,38.8,179,38.8l0.3,0l0.8,0.1l1.3,0.1c0.5,0,1.1,0.2,1.8,0.3c9.9,1.7,17.9,9.1,20.3,18.8
			c0.1,0.4,0.2,0.8,0.3,1.2c0.1,0.4,0.1,0.9,0.2,1.3c0.1,0.9,0.2,1.8,0.2,2.6c0.1,1.8,0,3.7-0.4,5.5c-0.7,3.9-2.3,7.6-4.7,10.7
			l-0.1,0.1l0,0.1c0.8,3.1,1.7,6.3,2.6,9.6l0.4-0.3l-8.9-3.6l-0.1-0.1l-0.1,0.1c-2.6,1.7-5.5,2.9-8.6,3.6c-1.4,0.3-2.9,0.5-4.3,0.5
			c-0.7,0-1.4,0-2.2,0c-0.7,0-1.4-0.1-2.1-0.2c-2.8-0.3-5.5-1.2-8-2.4c-4.8-2.4-8.7-6.2-11.1-10.9c-1.1-2.2-2-4.5-2.4-7
			c-0.1-0.6-0.2-1.2-0.3-1.8c-0.1-0.6-0.1-1.2-0.1-1.8c-0.1-1.1,0-2.3,0.1-3.4c0.7-7.7,4.9-14.7,11.4-18.9c2.2-1.4,4.6-2.5,7.1-3.2
			l1.5-0.4l1.3-0.2l1.1-0.2c0.4,0,0.7,0,0.9-0.1l1.3-0.1C178.7,38.9,178.8,38.9,179,38.8z"/>
	</g>
</g>
</svg>
