<?xml version="1.0" encoding="utf-8"?>
<!-- Generator: Adobe Illustrator 24.0.0, SVG Export Plug-In . SVG Version: 6.00 Build 0)  -->
<svg version="1.1" id="Capa_1" xmlns="http://www.w3.org/2000/svg" xmlns:xlink="http://www.w3.org/1999/xlink" x="0px" y="0px"
	 viewBox="0 0 262.8 257.1" style="enable-background:new 0 0 262.8 257.1;" xml:space="preserve">
<style type="text/css">
	.st0{fill:#ECECEC;}
	.st1{fill:#F5F5F5;}
	.st2{fill:#E1E1E1;}
	.st3{fill:#FFBF9D;}
	.st4{fill:#FF9A6C;}
	.st5{opacity:0.4;}
	.st6{fill:#1A2E35;}
	.st7{fill:#375A64;}
	.st8{clip-path:url(#SVGID_2_);}
	.st9{fill:#FF4F5B;}
	.st10{fill:#FAFAFA;}
	.st11{opacity:0.2;fill:#FFFFFF;}
	.st12{opacity:0.3;}
</style>
<g>
	<g>
		<g>
			<path class="st0" d="M71.1,105.7c6.1,12.9,0.6,28.2-12.3,34.4c-12.9,6.1-28.3,0.7-34.4-12.2c-6.1-12.9-0.6-28.2,12.3-34.4
				C49.5,87.4,64.9,92.8,71.1,105.7z"/>
			<path class="st1" d="M65.5,108.3c4.7,9.8,0.5,21.5-9.3,26.2c-9.8,4.7-21.6,0.5-26.2-9.3c-4.7-9.8-0.5-21.5,9.3-26.2
				C49.1,94.4,60.9,98.5,65.5,108.3z"/>
			<g>
				<path class="st2" d="M65.2,107.8c-0.1,0.1-0.6-0.7-1.5-1.9c-0.9-1.2-2.4-2.9-4.6-4.5c-1.1-0.8-2.4-1.5-3.9-2.1
					c-1.5-0.6-3.1-1.1-4.9-1.3c-0.9-0.1-1.8-0.2-2.7-0.1c-0.9,0-1.9,0.1-2.8,0.3c-1,0.2-1.9,0.4-2.9,0.7c-0.9,0.3-1.9,0.7-2.8,1.2
					c-0.9,0.5-1.8,1-2.6,1.6c-0.8,0.6-1.6,1.2-2.2,1.9c-0.7,0.7-1.3,1.4-1.9,2.2c-0.6,0.7-1,1.5-1.5,2.3c-0.9,1.6-1.4,3.2-1.8,4.7
					c-0.4,1.5-0.5,3-0.5,4.4c0,2.7,0.5,4.9,0.9,6.4c0.5,1.5,0.8,2.3,0.7,2.3c-0.1,0-0.6-0.7-1.2-2.1c-0.6-1.4-1.4-3.7-1.5-6.6
					c-0.1-1.4,0-3,0.4-4.7c0.3-1.7,0.9-3.4,1.8-5.1c0.4-0.9,0.9-1.7,1.5-2.5c0.6-0.8,1.2-1.6,2-2.4c0.7-0.7,1.5-1.5,2.4-2.1
					c0.9-0.6,1.8-1.2,2.8-1.7c1-0.5,2-0.9,3-1.3c1-0.3,2.1-0.6,3.1-0.7c1-0.2,2.1-0.2,3.1-0.2c1,0,2,0.1,2.9,0.2
					c1.9,0.3,3.6,0.8,5.2,1.5c1.5,0.7,2.9,1.5,4,2.4c2.3,1.8,3.7,3.6,4.5,5C65.1,106.9,65.3,107.8,65.2,107.8z"/>
			</g>
		</g>
		<g>
			<g>
				<path class="st2" d="M54.8,126.5l1.5,3.1l-2.7,1.4l-1.5-3c-2.8,1.2-5.8,1.6-7.9,1.2L44,125c1.9,0.3,4.2,0.1,6.3-0.7l-2.3-4.6
					c-3.4,0.8-7.3,1.4-9.3-2.5c-1.4-2.9-0.6-6.5,3.5-9.1l-1.5-3l2.7-1.4l1.5,3c2.1-0.9,4.4-1.3,6.4-1.1l0.3,4.1
					c-1.8-0.1-3.5,0.1-4.9,0.6l2.3,4.7c3.4-0.8,7.3-1.4,9.2,2.4C59.7,120.3,58.8,123.8,54.8,126.5z M46.1,115.7l-1.9-3.9
					c-1.3,1-1.5,2.1-1,3C43.6,115.8,44.7,115.9,46.1,115.7z M54,120c-0.5-1-1.5-1.1-2.9-0.9l1.9,3.8C54.2,121.9,54.5,120.8,54,120z"
					/>
			</g>
		</g>
	</g>
	<ellipse class="st2" cx="138.4" cy="220" rx="93.7" ry="32.3"/>
	<g>
		<g>
			<g>
				<g>
					<path class="st3" d="M119.5,139.7c0,0,0,26.8-6.7,29.3c-18.3,6.9-40.1,5.3-47.8,4.6c-0.9-0.6-2-1.4-3.2-2.4
						c-1-0.8-1.9-1.9-2.6-3c-0.9-1.4-1.9-3.3-2.2-4.5c-0.3-1.5-2.3-1.8-2.8-0.5c-0.5,1.3-0.4,6,2.6,9.9c0,0,1,1.8-1.1,2.9
						c-3.1,1.5-13.9,6.1-15.7,7.1c-1.5,0.9-3,2.5-1.2,2.6c1.7,0.1,10.9-2.1,10.9-2.1s-12,2.7-11.6,4.5c0.3,1.2,3.7,1.5,11.4-1.1
						c0,0-9.9,2.3-10.8,3.5c-2.1,2.6,9.8-0.1,9.8-0.1c-8.3,1.9-8.3,1.5-8.3,2.7c0,0.9,2,1,6.6,0.6c3.8-0.3,7.7,0.1,13.5-0.1l0,0
						c0,0,74.5,13.3,81.3-19.6c3.7-17.7,3-24.3,3.8-35.7"/>
				</g>
			</g>
			<g>
				<g>
					<path class="st4" d="M53.5,189.2c0.1,0.2-2.5,0.9-5.7,1.6c-3.2,0.7-5.8,1-5.8,0.8c0-0.2,2.5-0.9,5.7-1.6
						C50.8,189.4,53.4,189,53.5,189.2z"/>
				</g>
			</g>
			<g>
				<g>
					<path class="st4" d="M53.1,185.9c0.1,0.2-2.6,1.1-5.9,2c-3.3,0.9-6.1,1.5-6.1,1.3c-0.1-0.2,2.6-1.1,5.9-2
						C50.3,186.3,53,185.7,53.1,185.9z"/>
				</g>
			</g>
			<g>
				<g>
					<path class="st4" d="M52.6,182.5c0.1,0.2-2.4,1.1-5.6,2c-3.1,0.9-5.7,1.5-5.8,1.2c-0.1-0.2,2.4-1.1,5.6-2
						C50,182.9,52.6,182.3,52.6,182.5z"/>
				</g>
			</g>
		</g>
		<g class="st5">
			<path d="M149.6,180.7c5.7-0.5,11.5-1.1,17-2.7c5.5-1.7,10.8-4.6,14.4-9.1c4.6-5.9,5.5-13.8,6-21.2c0.6-8.2,0.8-16.7,2.1-25.6
				l1.5,41l0,18.8l-20.1,8.5L149.6,180.7z"/>
		</g>
		<g>
			<g>
				<path class="st6" d="M147.2,30.2c-3.3,1.7-6.8,10.1-6.5,13.9c0.2,3.7,1.2,7.5,0.2,11.1c-0.8,2.6-2.6,4.9-3,7.6
					c-0.4,2.5,0.4,5.1,1.3,7.5c1,2.4,2.1,4.8,2.3,7.4c0.2,2.6-0.8,5.4-3.1,6.6c10.6,1.1,21.3,0.6,31.8-1.5"/>
				<g>
					<g>
						<g>
							<g>
								<g>
									<path class="st3" d="M153.8,97.1c0.7-7,1.2-14.3,1.2-14.3s-8.8-2.4-9.5-14.3c-0.7-11.4,3.7-37,3.7-37l0,0
										c13.4-4,28.4,1,36.6,12.3l0,0l-6.3,56.6c-0.7,6.6-7,11.2-14,10.3h0C158.4,109.8,153.1,103.8,153.8,97.1z"/>
								</g>
							</g>
							<g>
								<g>
									<g>
										<path class="st6" d="M148.2,51.8c-0.1,0.8,0.5,1.5,1.3,1.7c0.8,0.1,1.6-0.4,1.7-1.2c0.1-0.8-0.5-1.5-1.3-1.7
											C149.1,50.4,148.3,51,148.2,51.8z"/>
									</g>
								</g>
								<g>
									<g>
										<g>
											<path class="st6" d="M148.2,50.1c0.2,0.2,1.4-0.5,3-0.4c1.6,0.1,2.7,1.1,2.9,0.9c0.1-0.1-0.1-0.5-0.5-0.9
												c-0.5-0.4-1.3-0.9-2.3-1c-1-0.1-1.9,0.2-2.4,0.5C148.3,49.7,148.1,50,148.2,50.1z"/>
										</g>
									</g>
								</g>
							</g>
							<g>
								<g>
									<g>
										<path class="st6" d="M165,53.9c-0.1,0.8,0.5,1.5,1.3,1.7c0.8,0.1,1.6-0.4,1.7-1.2c0.1-0.8-0.5-1.5-1.3-1.7
											C165.9,52.6,165.1,53.1,165,53.9z"/>
									</g>
								</g>
								<g>
									<g>
										<g>
											<path class="st6" d="M165,52.3c0.2,0.2,1.4-0.5,3-0.4c1.6,0.1,2.7,1.1,2.9,0.9c0.1-0.1-0.1-0.5-0.5-0.9
												c-0.5-0.4-1.3-0.9-2.3-1c-1-0.1-1.9,0.2-2.4,0.5C165.2,51.9,165,52.3,165,52.3z"/>
										</g>
									</g>
								</g>
							</g>
							<g>
								<g>
									<g>
										<path class="st6" d="M158,63.8c0-0.1-1-0.4-2.6-0.7c-0.4-0.1-0.8-0.2-0.8-0.5c-0.1-0.3,0.1-0.7,0.4-1.2c0.5-1,1-2,1.5-3
											c2.1-4.3,3.7-7.9,3.6-8c-0.2-0.1-2,3.3-4.2,7.7c-0.5,1.1-1,2.1-1.5,3c-0.2,0.5-0.5,1-0.4,1.6c0.1,0.3,0.4,0.6,0.6,0.7
											c0.3,0.1,0.5,0.1,0.7,0.2C157,63.7,158,63.9,158,63.8z"/>
									</g>
								</g>
							</g>
							<g>
								<g>
									<path class="st4" d="M155,82.8c0,0,7.8,1.3,16.1-2.6c0,0-4.6,7.7-16.2,5.4L155,82.8z"/>
								</g>
							</g>
							<g>
								<g>
									<path class="st4" d="M158.3,67.7c0.7-0.7,1.7-1,2.7-0.8c0.7,0.1,1.4,0.6,1.7,1.2c0.4,0.6,0.4,1.4-0.1,1.9
										c-0.5,0.6-1.4,0.6-2.2,0.3c-0.8-0.3-1.4-0.9-1.9-1.4c-0.2-0.2-0.3-0.3-0.4-0.5C158.1,68.2,158.1,67.9,158.3,67.7"/>
								</g>
							</g>
							<g>
								<g>
									<g>
										<path class="st6" d="M162.6,65.4c-0.3,0-0.4,1.7-2.1,2.8c-1.6,1.1-3.5,0.7-3.5,1c0,0.1,0.4,0.4,1.2,0.5
											c0.8,0.1,1.9,0,2.9-0.7c1-0.7,1.5-1.7,1.6-2.4C162.9,65.8,162.8,65.4,162.6,65.4z"/>
									</g>
								</g>
							</g>
						</g>
						<g>
							<g>
								<path class="st3" d="M180.2,56.3c1.3-0.1,2.6,0,3.7,0.6c1.2,0.6,2.1,1.6,2.5,2.8c0.4,1.2,0.2,2.6-0.3,3.7
									c-0.6,1.2-1.4,2.1-2.4,2.9c-0.7,0.6-1.5,1.1-2.4,1.3c-0.9,0.2-1.9,0-2.6-0.7"/>
							</g>
						</g>
						<g>
							<g>
								<g>
									<path class="st4" d="M180.1,64c-0.1,0,0.3,0.8,1.5,0.6c0.6-0.1,1.2-0.5,1.5-1.1c0.4-0.6,0.7-1.2,0.8-2
										c0.2-0.8,0.1-1.6-0.3-2.3c-0.4-0.6-1-1.1-1.6-1.1c-1.2-0.1-1.6,0.6-1.5,0.7c0.1,0.1,0.6-0.3,1.3,0c0.7,0.2,1.4,1.3,1.1,2.5
										c-0.3,1.3-0.9,2.4-1.6,2.6C180.7,64.3,180.2,63.9,180.1,64z"/>
								</g>
							</g>
						</g>
					</g>
				</g>
				<path class="st6" d="M201,70.1c0.5-3.4,0.2-7-1.5-10c-1.2-2.2-3.2-4.1-4.2-6.4c-1.2-2.7-1.1-5.7-1.5-8.6
					c-1-7-5.4-13.4-11.5-16.8c-5.8-3.3-14.6-6.3-21.1-1.8c-1.2-0.7-2.7-1.1-4.3-1.2c-2.7-0.1-5.4,1-7.7,2.5c-2.8,2-5.1,4.8-6.2,8
					c-1.1,3.2-1,6.9,0.4,10c0.4,0.8,1,1.7,1.9,1.9c0.7,0.1,1.4-0.3,2-0.7c4-2.8,8.3-7,11.8-11.6c4.1,5.4,9.2,10,15.1,13.4
					c1.5,0.9,3.2,1.8,4.1,3.3c0.9,1.5,0.7,3.4,0.6,5.1c-0.7,8.3-1.3,16.7-2,25c2.8,1,5.9,1.5,8.9,1.5c0.7,0,1.4-0.1,1.9-0.5
					c1.3-1.1,0.5-3.7,2-4.3c-0.1,2,1.1,4,2.8,5c1.8,1,4.1,1,5.8-0.1c-0.3-0.8-0.7-1.6-1-2.3c0.4-0.4,0.6-1,0.8-1.5
					C199.3,76.7,200.5,73.5,201,70.1z"/>
				<g>
					<path class="st6" d="M185,47.6c0,0-0.4,0.3-1.2,0.6c-0.8,0.4-2.1,0.8-3.7,1.1c-3.1,0.6-7.9,0.4-12.3-2
						c-4.4-2.4-7.1-6.3-8.2-9.3c-0.6-1.5-0.9-2.8-1-3.7c-0.1-0.9-0.1-1.4-0.1-1.4c0.1,0,0.3,2,1.6,4.9c1.2,2.9,3.9,6.6,8.1,8.9
						c4.2,2.3,8.8,2.6,11.9,2.1C183.2,48.4,185,47.5,185,47.6z"/>
				</g>
				<g>
					<path class="st6" d="M140.5,76.5c0,0-0.4-0.6-1-1.7c-0.6-1.1-1.5-2.7-2.3-4.9c-0.8-2.1-1.3-5-0.6-8c0.2-0.7,0.5-1.5,0.9-2.2
						c0.4-0.7,0.9-1.4,1.3-2c0.4-0.7,0.8-1.4,0.9-2.2c0.2-0.8,0.2-1.6,0.1-2.5c-0.2-3.5-0.2-6.8,0.3-9.8c0.4-3,1.3-5.6,2.4-7.7
						c1.1-2,2.4-3.4,3.4-4.2c0.5-0.4,1-0.6,1.3-0.8c0.3-0.1,0.5-0.2,0.5-0.2c0,0.1-0.6,0.3-1.6,1.1c-1,0.8-2.2,2.2-3.2,4.2
						c-1,2-1.8,4.6-2.2,7.5c-0.4,3-0.4,6.2-0.2,9.7c0,0.9,0,1.8-0.2,2.6c-0.2,0.9-0.6,1.7-1,2.4c-0.4,0.7-0.9,1.3-1.3,2
						c-0.4,0.7-0.6,1.4-0.8,2.1c-0.8,2.9-0.2,5.6,0.4,7.7c0.7,2.1,1.6,3.8,2.1,4.9C140.2,75.8,140.5,76.5,140.5,76.5z"/>
				</g>
				<g>
					<path class="st7" d="M188.2,82.7c0,0-0.2-0.1-0.6-0.4c-0.3-0.3-0.8-0.8-1.3-1.6c-1-1.5-1.8-4.1-1.5-7.3
						c0.3-3.2,1.7-6.7,2.9-10.6c0.6-2,1.1-4.1,1-6.3c0-2.2-0.7-4.5-2.1-6.3c-1.4-1.9-3.2-3.3-5-4.7c-1.8-1.3-3.6-2.5-5.3-3.8
						c-3.3-2.5-6.1-5-8.4-7.2c-2.3-2.2-4-4.1-5.1-5.4c-0.6-0.7-1-1.2-1.3-1.6c-0.3-0.4-0.4-0.6-0.4-0.6c0,0,0.2,0.2,0.5,0.5
						c0.4,0.4,0.8,0.9,1.4,1.5c1.2,1.3,3,3.1,5.3,5.2c2.3,2.1,5.1,4.6,8.4,7.1c1.6,1.3,3.4,2.5,5.3,3.8c1.8,1.3,3.7,2.8,5.2,4.8
						c1.5,2,2.2,4.4,2.2,6.7c0,2.3-0.5,4.5-1.1,6.5c-1.3,4-2.8,7.4-3,10.5c-0.3,3.1,0.4,5.6,1.3,7.1
						C187.4,82.1,188.2,82.6,188.2,82.7z"/>
				</g>
				<g>
					<path class="st7" d="M192,47.3c0,0-0.5-0.1-1.3-0.4c-0.8-0.3-1.9-0.8-3.3-1.5c-2.7-1.3-6.4-3.4-10.2-6.2
						c-3.8-2.7-6.9-5.6-9-7.8c-1.1-1.1-1.9-2-2.4-2.7c-0.5-0.7-0.8-1-0.8-1.1c0.1-0.1,1.3,1.3,3.5,3.4c2.2,2.1,5.3,4.9,9,7.6
						c3.7,2.7,7.3,4.8,10,6.3C190.3,46.4,192.1,47.2,192,47.3z"/>
				</g>
				<g>
					<path class="st7" d="M144.1,44.1c-0.1-0.1,1-0.8,2.6-2.1c1.6-1.3,3.7-3.2,5.7-5.6c2-2.4,3.4-4.8,4.4-6.6c1-1.8,1.4-3,1.5-3
						c0.1,0-0.3,1.3-1.1,3.1c-0.9,1.9-2.3,4.4-4.3,6.8c-2,2.4-4.2,4.4-5.9,5.6C145.2,43.6,144.1,44.1,144.1,44.1z"/>
				</g>
			</g>
		</g>
		<g>
			<defs>
				<ellipse id="SVGID_1_" cx="134.9" cy="122.8" rx="122.1" ry="109.7"/>
			</defs>
			<clipPath id="SVGID_2_">
				<use xlink:href="#SVGID_1_"  style="overflow:visible;"/>
			</clipPath>
			<g class="st8">
				<g>
					<g>
						<path class="st9" d="M218,144.8c0,0-0.4-4-3.2-26.4c-1.2-9.7-8.8-15.3-15.9-19l0-0.1l-0.6-0.2c-9-4.5-18.6-5.4-18.6-5.4
							l-25.1-0.4c0,0-17.4-1.3-30.1,10.5c-4.2,3.9-8.4,38.4-8.4,38.4l12.6,4.5l-0.1-5.1c0,0-0.5,10.4,2.9,16.4
							c3.4,6,8.1,14.2,8.1,14.2l-5.4,25.1c-3.3,9.6-14.3,44.5-10,79.2c5.3,42.9,6.9,61.6,6.9,61.6l72.5,0.3c0,0,14.4-64.1,6.5-120.8
							c-3.5-25.2-13.3-28-14.7-33.3l1.6-38.6L218,144.8z"/>
					</g>
				</g>
				<g>
					<path class="st10" d="M213.3,114.1c0,0.2-20.7,0.3-46.1,0.3c-25.5,0-46.2-0.1-46.2-0.3c0-0.2,20.7-0.3,46.2-0.3
						C192.7,113.8,213.3,114,213.3,114.1z"/>
				</g>
				<g>
					<g>
						<path class="st10" d="M121.5,126.4c0,0.2-0.7,0.3-1.5,0.3c-0.8,0-1.5-0.1-1.5-0.3c0-0.2,0.7-0.3,1.5-0.3
							C120.9,126.1,121.5,126.2,121.5,126.4z"/>
					</g>
					<g>
						<path class="st10" d="M133.7,126.4c0,0.2-1.4,0.3-3,0.3c-1.7,0-3-0.1-3-0.3c0-0.2,1.4-0.3,3-0.3
							C132.3,126.1,133.7,126.2,133.7,126.4z"/>
					</g>
					<g>
						<path class="st10" d="M145.9,126.4c0,0.2-1.4,0.3-3,0.3c-1.7,0-3-0.1-3-0.3c0-0.2,1.4-0.3,3-0.3
							C144.5,126.1,145.9,126.2,145.9,126.4z"/>
					</g>
					<g>
						<path class="st10" d="M158,126.4c0,0.2-1.4,0.3-3,0.3c-1.7,0-3-0.1-3-0.3s1.4-0.3,3-0.3C156.7,126,158,126.2,158,126.4z"/>
					</g>
					<g>
						<path class="st10" d="M170.2,126.3c0,0.2-1.4,0.3-3,0.3c-1.7,0-3-0.1-3-0.3c0-0.2,1.4-0.3,3-0.3
							C168.8,126,170.2,126.2,170.2,126.3z"/>
					</g>
					<g>
						<path class="st10" d="M182.4,126.3c0,0.2-1.4,0.3-3,0.3c-1.7,0-3-0.1-3-0.3c0-0.2,1.4-0.3,3-0.3
							C181,126,182.4,126.2,182.4,126.3z"/>
					</g>
					<g>
						<path class="st10" d="M194.5,126.3c0,0.2-1.4,0.3-3,0.3c-1.7,0-3-0.1-3-0.3c0-0.2,1.4-0.3,3-0.3
							C193.2,126,194.5,126.2,194.5,126.3z"/>
					</g>
					<g>
						<path class="st10" d="M206.7,126.3c0,0.2-1.4,0.3-3,0.3c-1.7,0-3-0.1-3-0.3c0-0.2,1.4-0.3,3-0.3
							C205.3,126,206.7,126.1,206.7,126.3z"/>
					</g>
					<g>
						<path class="st10" d="M215.8,126.3c0,0.2-0.7,0.3-1.5,0.3c-0.8,0-1.5-0.1-1.5-0.3c0-0.2,0.7-0.3,1.5-0.3
							C215.1,126,215.8,126.1,215.8,126.3z"/>
					</g>
				</g>
				<g>
					<path class="st10" d="M187.4,136.5c0,0.2-15.8,0.3-35.2,0.3c-19.4,0-35.2-0.1-35.2-0.3c0-0.2,15.8-0.3,35.2-0.3
						C171.7,136.2,187.4,136.3,187.4,136.5z"/>
				</g>
				<g>
					<path class="st10" d="M216.1,137c0,0.2-6,0.3-13.3,0.3c-7.4,0-13.3-0.1-13.3-0.3c0-0.2,6-0.3,13.3-0.3
						C210.1,136.7,216.1,136.8,216.1,137z"/>
				</g>
				<g>
					<path class="st10" d="M188.4,159.8c0,0.2-10.5,0.1-23.4-0.2c-12.9-0.3-23.4-0.7-23.4-0.8c0-0.2,10.5-0.1,23.4,0.2
						C178,159.2,188.4,159.6,188.4,159.8z"/>
				</g>
				<g>
					<path class="st10" d="M208.3,209.7c0,0.2-14,0.3-31.2,0.3c-17.2,0-31.2-0.1-31.2-0.3c0-0.2,14-0.3,31.2-0.3
						C194.3,209.4,208.3,209.5,208.3,209.7z"/>
				</g>
				<g>
					<path class="st10" d="M210.6,237.1c0,0.2-19.4,0.3-43.3,0.3c-23.9,0-43.3-0.1-43.3-0.3s19.4-0.3,43.3-0.3
						C191.2,236.8,210.6,236.9,210.6,237.1z"/>
				</g>
				<g>
					<path class="st10" d="M211.3,269c0,0.2-19.6,0.3-43.8,0.3c-24.2,0-43.8-0.1-43.8-0.3c0-0.2,19.6-0.3,43.8-0.3
						C191.7,268.7,211.3,268.9,211.3,269z"/>
				</g>
				<g>
					<path class="st10" d="M209.8,299.5c0,0.2-18.5,0.3-41.2,0.3c-22.8,0-41.2-0.1-41.2-0.3c0-0.2,18.5-0.3,41.2-0.3
						C191.3,299.2,209.8,299.3,209.8,299.5z"/>
				</g>
				<g>
					<path class="st10" d="M206,325.9c0,0.2-16.9,0.3-37.8,0.3c-20.9,0-37.8-0.1-37.8-0.3c0-0.2,16.9-0.3,37.8-0.3
						C189,325.6,206,325.7,206,325.9z"/>
				</g>
				<g>
					<g>
						<path class="st10" d="M137.8,150.4c0,0.2-0.7,0.3-1.5,0.3c-0.8,0-1.5-0.1-1.5-0.3c0-0.2,0.7-0.3,1.5-0.3
							C137.1,150.1,137.8,150.3,137.8,150.4z"/>
					</g>
					<g>
						<path class="st10" d="M148.6,150.4c0,0.2-1.2,0.3-2.7,0.3c-1.5,0-2.7-0.1-2.7-0.3c0-0.2,1.2-0.3,2.7-0.3
							C147.4,150.1,148.6,150.3,148.6,150.4z"/>
					</g>
					<g>
						<path class="st10" d="M159.4,150.4c0,0.2-1.2,0.3-2.7,0.3c-1.5,0-2.7-0.1-2.7-0.3c0-0.2,1.2-0.3,2.7-0.3
							C158.2,150.1,159.4,150.3,159.4,150.4z"/>
					</g>
					<g>
						<path class="st10" d="M170.2,150.4c0,0.2-1.2,0.3-2.7,0.3c-1.5,0-2.7-0.1-2.7-0.3c0-0.2,1.2-0.3,2.7-0.3
							C168.9,150.1,170.2,150.3,170.2,150.4z"/>
					</g>
					<g>
						<path class="st10" d="M180.9,150.4c0,0.2-1.2,0.3-2.7,0.3c-1.5,0-2.7-0.1-2.7-0.3c0-0.2,1.2-0.3,2.7-0.3
							C179.7,150.1,180.9,150.3,180.9,150.4z"/>
					</g>
					<g>
						<path class="st10" d="M189.3,150.4c0,0.2-0.7,0.3-1.5,0.3c-0.8,0-1.5-0.1-1.5-0.3c0-0.2,0.7-0.3,1.5-0.3
							C188.6,150.1,189.3,150.3,189.3,150.4z"/>
					</g>
				</g>
				<g>
					<g>
						<path class="st10" d="M151.7,172c0,0.2-0.7,0.3-1.5,0.3c-0.8,0-1.5-0.1-1.5-0.3c0-0.2,0.7-0.3,1.5-0.3
							C151.1,171.7,151.7,171.8,151.7,172z"/>
					</g>
					<g>
						<path class="st10" d="M164.6,171.9c0,0.2-1.4,0.3-3.2,0.3c-1.8,0-3.2-0.1-3.2-0.3c0-0.2,1.4-0.3,3.2-0.3
							C163.2,171.6,164.6,171.7,164.6,171.9z"/>
					</g>
					<g>
						<path class="st10" d="M177.5,171.9c0,0.2-1.4,0.3-3.2,0.3c-1.8,0-3.2-0.1-3.2-0.3c0-0.2,1.4-0.3,3.2-0.3
							C176.1,171.6,177.5,171.7,177.5,171.9z"/>
					</g>
					<g>
						<path class="st10" d="M186.9,171.8c0,0.2-0.7,0.3-1.5,0.3c-0.8,0-1.5-0.1-1.5-0.3c0-0.2,0.7-0.3,1.5-0.3
							C186.2,171.5,186.9,171.7,186.9,171.8z"/>
					</g>
				</g>
				<g>
					<g>
						<path class="st10" d="M137.5,223.9c0,0.2-0.7,0.3-1.5,0.3c-0.8,0-1.5-0.1-1.5-0.3c0-0.2,0.7-0.3,1.5-0.3
							C136.8,223.6,137.5,223.8,137.5,223.9z"/>
					</g>
					<g>
						<path class="st10" d="M150.1,223.9c0,0.2-1.4,0.3-3.2,0.3c-1.7,0-3.2-0.1-3.2-0.3c0-0.2,1.4-0.3,3.2-0.3
							C148.7,223.6,150.1,223.8,150.1,223.9z"/>
					</g>
					<g>
						<path class="st10" d="M162.8,223.9c0,0.2-1.4,0.3-3.2,0.3c-1.7,0-3.2-0.1-3.2-0.3c0-0.2,1.4-0.3,3.2-0.3
							C161.4,223.6,162.8,223.8,162.8,223.9z"/>
					</g>
					<g>
						<path class="st10" d="M175.4,223.9c0,0.2-1.4,0.3-3.2,0.3c-1.7,0-3.2-0.1-3.2-0.3c0-0.2,1.4-0.3,3.2-0.3
							C174,223.6,175.4,223.8,175.4,223.9z"/>
					</g>
					<g>
						<path class="st10" d="M188.1,223.9c0,0.2-1.4,0.3-3.2,0.3c-1.7,0-3.2-0.1-3.2-0.3c0-0.2,1.4-0.3,3.2-0.3
							C186.7,223.6,188.1,223.8,188.1,223.9z"/>
					</g>
					<g>
						<path class="st10" d="M200.8,223.9c0,0.2-1.4,0.3-3.2,0.3c-1.7,0-3.2-0.1-3.2-0.3c0-0.2,1.4-0.3,3.2-0.3
							C199.3,223.6,200.8,223.8,200.8,223.9z"/>
					</g>
					<g>
						<path class="st10" d="M210,223.9c0,0.2-0.7,0.3-1.5,0.3c-0.8,0-1.5-0.1-1.5-0.3c0-0.2,0.7-0.3,1.5-0.3
							C209.4,223.6,210,223.8,210,223.9z"/>
					</g>
				</g>
				<g>
					<g>
						<path class="st10" d="M126.2,254.5c0,0.2-0.7,0.3-1.5,0.3c-0.8,0-1.5-0.1-1.5-0.3s0.7-0.3,1.5-0.3
							C125.6,254.2,126.2,254.4,126.2,254.5z"/>
					</g>
					<g>
						<path class="st10" d="M138.9,254.5c0,0.2-1.4,0.3-3.2,0.3c-1.7,0-3.2-0.1-3.2-0.3s1.4-0.3,3.2-0.3
							C137.5,254.2,138.9,254.4,138.9,254.5z"/>
					</g>
					<g>
						<path class="st10" d="M151.5,254.5c0,0.2-1.4,0.3-3.2,0.3c-1.7,0-3.2-0.1-3.2-0.3s1.4-0.3,3.2-0.3
							C150.1,254.2,151.5,254.4,151.5,254.5z"/>
					</g>
					<g>
						<path class="st10" d="M164.2,254.5c0,0.2-1.4,0.3-3.2,0.3c-1.7,0-3.2-0.1-3.2-0.3s1.4-0.3,3.2-0.3
							C162.8,254.2,164.2,254.4,164.2,254.5z"/>
					</g>
					<g>
						<path class="st10" d="M176.8,254.5c0,0.2-1.4,0.3-3.2,0.3c-1.7,0-3.2-0.1-3.2-0.3s1.4-0.3,3.2-0.3
							C175.4,254.2,176.8,254.4,176.8,254.5z"/>
					</g>
					<g>
						<path class="st10" d="M189.5,254.5c0,0.2-1.4,0.3-3.2,0.3c-1.7,0-3.2-0.1-3.2-0.3s1.4-0.3,3.2-0.3
							C188.1,254.2,189.5,254.4,189.5,254.5z"/>
					</g>
					<g>
						<path class="st10" d="M202.1,254.5c0,0.2-1.4,0.3-3.2,0.3c-1.7,0-3.2-0.1-3.2-0.3s1.4-0.3,3.2-0.3
							C200.7,254.2,202.1,254.4,202.1,254.5z"/>
					</g>
					<g>
						<ellipse class="st10" cx="209.9" cy="254.5" rx="1.5" ry="0.3"/>
					</g>
				</g>
				<g>
					<g>
						<path class="st10" d="M127.9,286.9c0,0.2-0.7,0.3-1.5,0.3c-0.8,0-1.5-0.1-1.5-0.3c0-0.2,0.7-0.3,1.5-0.3
							C127.3,286.6,127.9,286.7,127.9,286.9z"/>
					</g>
					<g>
						<path class="st10" d="M140.2,286.9c0,0.2-1.4,0.3-3.1,0.3c-1.7,0-3.1-0.1-3.1-0.3c0-0.2,1.4-0.3,3.1-0.3
							C138.8,286.6,140.2,286.7,140.2,286.9z"/>
					</g>
					<g>
						<path class="st10" d="M152.4,286.9c0,0.2-1.4,0.3-3.1,0.3c-1.7,0-3.1-0.1-3.1-0.3c0-0.2,1.4-0.3,3.1-0.3
							C151,286.6,152.4,286.7,152.4,286.9z"/>
					</g>
					<g>
						<path class="st10" d="M164.6,286.9c0,0.2-1.4,0.3-3.1,0.3c-1.7,0-3.1-0.1-3.1-0.3c0-0.2,1.4-0.3,3.1-0.3
							C163.2,286.6,164.6,286.7,164.6,286.9z"/>
					</g>
					<g>
						<path class="st10" d="M176.8,286.9c0,0.2-1.4,0.3-3.1,0.3c-1.7,0-3.1-0.1-3.1-0.3c0-0.2,1.4-0.3,3.1-0.3
							C175.5,286.6,176.8,286.7,176.8,286.9z"/>
					</g>
					<g>
						<path class="st10" d="M189.1,286.9c0,0.2-1.4,0.3-3.1,0.3c-1.7,0-3.1-0.1-3.1-0.3c0-0.2,1.4-0.3,3.1-0.3
							C187.7,286.6,189.1,286.7,189.1,286.9z"/>
					</g>
					<g>
						<path class="st10" d="M201.3,286.9c0,0.2-1.4,0.3-3.1,0.3c-1.7,0-3.1-0.1-3.1-0.3c0-0.2,1.4-0.3,3.1-0.3
							C199.9,286.6,201.3,286.7,201.3,286.9z"/>
					</g>
					<g>
						<path class="st10" d="M210.4,286.9c0,0.2-0.7,0.3-1.5,0.3c-0.8,0-1.5-0.1-1.5-0.3c0-0.2,0.7-0.3,1.5-0.3
							C209.7,286.6,210.4,286.7,210.4,286.9z"/>
					</g>
				</g>
				<g>
					<g>
						<path class="st10" d="M132,314.1c0,0.2-0.7,0.3-1.5,0.3c-0.8,0-1.5-0.1-1.5-0.3c0-0.2,0.7-0.3,1.5-0.3
							C131.3,313.8,132,313.9,132,314.1z"/>
					</g>
					<g>
						<path class="st10" d="M144.4,314.1c0,0.2-1.4,0.3-3.1,0.3c-1.7,0-3.1-0.1-3.1-0.3c0-0.2,1.4-0.3,3.1-0.3
							C143,313.8,144.4,313.9,144.4,314.1z"/>
					</g>
					<g>
						<path class="st10" d="M156.7,314.1c0,0.2-1.4,0.3-3.1,0.3c-1.7,0-3.1-0.1-3.1-0.3c0-0.2,1.4-0.3,3.1-0.3
							C155.3,313.8,156.7,313.9,156.7,314.1z"/>
					</g>
					<g>
						<path class="st10" d="M169.1,314.1c0,0.2-1.4,0.3-3.1,0.3c-1.7,0-3.1-0.1-3.1-0.3c0-0.2,1.4-0.3,3.1-0.3
							C167.7,313.8,169.1,313.9,169.1,314.1z"/>
					</g>
					<g>
						<path class="st10" d="M181.4,314.1c0,0.2-1.4,0.3-3.1,0.3c-1.7,0-3.1-0.1-3.1-0.3c0-0.2,1.4-0.3,3.1-0.3
							C180,313.8,181.4,313.9,181.4,314.1z"/>
					</g>
					<g>
						<path class="st10" d="M193.8,314.1c0,0.2-1.4,0.3-3.1,0.3c-1.7,0-3.1-0.1-3.1-0.3c0-0.2,1.4-0.3,3.1-0.3
							C192.4,313.8,193.8,313.9,193.8,314.1z"/>
					</g>
					<g>
						<path class="st10" d="M202.9,314.1c0,0.2-0.7,0.3-1.5,0.3c-0.8,0-1.5-0.1-1.5-0.3c0-0.2,0.7-0.3,1.5-0.3
							C202.2,313.8,202.9,313.9,202.9,314.1z"/>
					</g>
				</g>
				<g>
					<g>
						<g>
							<path class="st6" d="M187.6,180c0,0.1-0.7,0.2-1.9,0.4c-1.3,0.2-3.1,0.4-5.3,0.7c-4.5,0.5-10.8,0.8-17.7,0.7
								c-6.9-0.1-13.2-0.7-17.7-1.4c-2.2-0.3-4.1-0.6-5.3-0.9c-1.2-0.2-1.9-0.4-1.9-0.5c0-0.1,0.7,0,2,0.2c1.4,0.2,3.2,0.4,5.3,0.6
								c4.5,0.5,10.7,1,17.6,1.1c6.9,0.1,13.1-0.2,17.6-0.5c2.1-0.2,3.9-0.3,5.3-0.4C186.9,180,187.6,180,187.6,180z"/>
						</g>
					</g>
				</g>
				<g>
					<g>
						<g>
							<path class="st6" d="M190.5,164.8c-0.1,0-0.1-0.6-0.2-1.8c-0.1-1.3-0.1-2.9-0.2-4.9c-0.2-4.3-0.5-9.9-0.8-16.1
								c-0.3-6.3-0.5-12-0.6-16.1c0-2.1,0-3.7,0-4.9c0-1.2,0.1-1.8,0.1-1.8c0.1,0,0.1,0.6,0.2,1.8c0.1,1.3,0.1,2.9,0.2,4.9
								c0.2,4.3,0.5,9.9,0.8,16.1c0.3,6.3,0.5,12,0.5,16.1c0,2.1,0,3.7,0,4.9C190.6,164.2,190.6,164.8,190.5,164.8z"/>
						</g>
					</g>
				</g>
			</g>
		</g>
	</g>
	<g>
		<g>
			<ellipse class="st6" cx="89.1" cy="64.1" rx="18.4" ry="18"/>
		</g>
		<ellipse class="st7" cx="87.9" cy="62.3" rx="18.4" ry="18"/>
		
			<ellipse transform="matrix(0.9987 -5.145644e-02 5.145644e-02 0.9987 -3.0778 4.6021)" class="st11" cx="87.8" cy="62.1" rx="14" ry="13.4"/>
		<path class="st10" d="M89.2,75.3c-7.6,0.7-14.3-4.6-15.3-11.9c0,0.1,0,0.3,0,0.4c0.7,7.5,7.6,13.1,15.3,12.3
			c7.7-0.7,13.4-7.4,12.6-15c0-0.1,0-0.3,0-0.4C102.3,68.1,96.7,74.6,89.2,75.3z"/>
		<path class="st12" d="M86.5,48.8c7.6-0.7,14.3,4.6,15.3,11.9c0-0.1,0-0.3,0-0.4C101,52.8,94.2,47.3,86.4,48
			c-7.7,0.7-13.4,7.4-12.6,15c0,0.1,0,0.3,0,0.4C73.4,56,78.9,49.5,86.5,48.8z"/>
		<g>
			<path class="st10" d="M104.6,54.5c0,0,0,0-0.1-0.1c-0.1-0.1-0.1-0.2-0.2-0.4c-0.1-0.2-0.2-0.4-0.4-0.6c-0.1-0.2-0.3-0.5-0.5-0.8
				c-0.2-0.3-0.4-0.6-0.7-1c-0.3-0.4-0.6-0.7-0.9-1.1c-0.3-0.4-0.7-0.8-1.1-1.2c-0.2-0.2-0.4-0.4-0.7-0.6c-0.2-0.2-0.5-0.4-0.7-0.6
				c-1-0.8-2.2-1.5-3.6-2.2c-0.4-0.1-0.7-0.3-1.1-0.4c-0.2-0.1-0.4-0.1-0.6-0.2c-0.2-0.1-0.4-0.1-0.6-0.2c-0.4-0.1-0.8-0.2-1.2-0.3
				c-0.4-0.1-0.8-0.2-1.2-0.2c-0.4-0.1-0.8-0.1-1.3-0.2c-0.4,0-0.9-0.1-1.3-0.1c-0.4,0-0.9,0-1.3,0c-0.5,0-0.9,0.1-1.4,0.1
				c-1.8,0.2-3.7,0.7-5.5,1.5c-1.8,0.8-3.4,1.9-4.8,3.1c-1.4,1.3-2.5,2.7-3.4,4.1c-0.2,0.4-0.4,0.7-0.6,1.1l-0.1,0.3L71.2,55
				c-0.1,0.2-0.2,0.4-0.2,0.6c-0.3,0.7-0.5,1.5-0.8,2.2c-0.1,0.4-0.2,0.7-0.2,1.1c-0.1,0.4-0.2,0.7-0.2,1.1c-0.1,0.7-0.2,1.4-0.2,2
				c0,0.6,0,1.3,0.1,1.8c0.1,0.6,0.1,1.1,0.2,1.6c0.1,0.5,0.2,1,0.3,1.4c0.1,0.4,0.2,0.8,0.3,1.2c0.1,0.4,0.2,0.6,0.3,0.9
				c0.1,0.3,0.2,0.5,0.3,0.7c0.1,0.2,0.1,0.3,0.2,0.4c0,0.1,0.1,0.1,0,0.1c0,0,0,0-0.1-0.1c0-0.1-0.1-0.2-0.2-0.4
				c-0.1-0.2-0.2-0.4-0.3-0.6c-0.1-0.3-0.3-0.5-0.3-0.9c-0.1-0.3-0.2-0.7-0.4-1.2c-0.1-0.4-0.2-0.9-0.3-1.4
				c-0.1-0.5-0.2-1.1-0.2-1.6c-0.1-0.6-0.1-1.2-0.1-1.9c0-0.7,0.1-1.3,0.1-2c0-0.4,0.1-0.7,0.2-1.1c0.1-0.4,0.1-0.7,0.2-1.1
				c0.2-0.7,0.4-1.5,0.8-2.2c0.1-0.2,0.2-0.4,0.2-0.6l0.1-0.3l0.1-0.3c0.2-0.4,0.4-0.7,0.6-1.1c0.9-1.5,2-2.9,3.4-4.2
				c1.4-1.2,3-2.3,4.8-3.2c1.8-0.8,3.7-1.3,5.6-1.6c0.5,0,0.9-0.1,1.4-0.1c0.5,0,0.9,0,1.4,0c0.5,0,0.9,0,1.3,0.1
				c0.4,0.1,0.9,0.1,1.3,0.2c0.4,0.1,0.8,0.2,1.3,0.2c0.4,0.1,0.8,0.2,1.2,0.3c0.2,0.1,0.4,0.1,0.6,0.2c0.2,0.1,0.4,0.1,0.6,0.2
				c0.4,0.1,0.7,0.3,1.1,0.4c1.4,0.7,2.6,1.4,3.6,2.2c0.3,0.2,0.5,0.4,0.7,0.6c0.2,0.2,0.4,0.4,0.7,0.6c0.4,0.4,0.8,0.8,1.1,1.2
				c0.3,0.4,0.7,0.7,0.9,1.1c0.2,0.4,0.5,0.7,0.7,1c0.2,0.3,0.4,0.6,0.5,0.8c0.1,0.2,0.2,0.5,0.3,0.6c0.1,0.2,0.1,0.3,0.2,0.4
				C104.6,54.5,104.6,54.5,104.6,54.5z"/>
		</g>
		<g>
			<path class="st6" d="M99.6,79c-0.1,0-0.3-0.4-0.6-0.9c-0.3-0.5-0.5-1-0.5-1c0.1,0,0.3,0.4,0.6,0.9C99.5,78.5,99.7,78.9,99.6,79z"
				/>
		</g>
		<g>
			<g>
				<path class="st10" d="M89.4,68.7l0.3,2L87.9,71L87.6,69c-1.8,0.2-3.5-0.1-4.6-0.7l0.6-2.3c1,0.5,2.3,0.8,3.6,0.7l-0.4-2.9
					c-2-0.2-4.3-0.5-4.7-3c-0.3-1.9,0.8-3.7,3.6-4.4l-0.3-2l1.8-0.3l0.3,1.9c1.3-0.1,2.7,0.1,3.7,0.5l-0.5,2.3
					c-1-0.4-1.9-0.5-2.8-0.5l0.5,3c2,0.2,4.3,0.5,4.6,3C93.2,66.2,92.1,68,89.4,68.7z M86.5,61.2l-0.4-2.5c-0.9,0.4-1.2,0.9-1.1,1.5
					C85.1,60.8,85.6,61.1,86.5,61.2z M90.1,65c-0.1-0.6-0.7-0.9-1.5-1l0.4,2.4C89.9,66.1,90.2,65.6,90.1,65z"/>
			</g>
		</g>
		<g>
			<g>
				<path class="st7" d="M89.4,68.2l0.3,2l-1.8,0.3l-0.3-1.9c-1.8,0.2-3.5-0.1-4.6-0.7l0.6-2.3c1,0.5,2.3,0.8,3.6,0.7l-0.4-2.9
					c-2-0.2-4.3-0.5-4.7-3c-0.3-1.9,0.8-3.7,3.6-4.4l-0.3-2l1.8-0.3l0.3,1.9c1.3-0.1,2.7,0.1,3.7,0.5l-0.5,2.3
					c-1-0.4-1.9-0.5-2.8-0.5l0.5,3c2,0.2,4.3,0.5,4.6,3C93.2,65.6,92.1,67.4,89.4,68.2z M86.5,60.7l-0.4-2.5
					c-0.9,0.4-1.2,0.9-1.1,1.5C85.1,60.3,85.6,60.5,86.5,60.7z M90.1,64.4c-0.1-0.6-0.7-0.9-1.5-1l0.4,2.4
					C89.9,65.5,90.2,65,90.1,64.4z"/>
			</g>
		</g>
	</g>
	<g>
		<g>
			<g>
				<path class="st3" d="M190.2,144.8c0,0,0.4,28.5-6.3,31c-18.3,6.9-40.1,5.3-47.8,4.6c-0.9-0.6-2-1.4-3.2-2.4
					c-1-0.8-1.9-1.9-2.6-3c-0.9-1.4-1.9-3.3-2.2-4.5c-0.3-1.5-2.3-1.8-2.8-0.5c-0.5,1.3-0.4,6,2.6,9.9c0,0,1,1.8-1.1,2.9
					c-3.1,1.5-13.9,6.1-15.7,7.1c-1.5,0.9-3,2.5-1.2,2.6c1.7,0.1,10.9-2.1,10.9-2.1s-12,2.7-11.6,4.5c0.3,1.2,3.7,1.5,11.4-1.1
					c0,0-9.9,2.3-10.8,3.5c-2.1,2.6,9.8-0.1,9.8-0.1c-8.3,1.9-8.3,1.5-8.3,2.7c0,0.9,2,1,6.6,0.6c3.8-0.3,7.7,0.1,13.5-0.1l0,0
					c0,0,74.5,13.3,81.3-19.6c3.7-17.7,3-24.3,3.8-35.7"/>
			</g>
		</g>
		<g>
			<g>
				<path class="st4" d="M124.7,195.9c0.1,0.2-2.5,0.9-5.7,1.6c-3.2,0.7-5.8,1-5.8,0.8c0-0.2,2.5-0.9,5.7-1.6
					C122,196,124.6,195.7,124.7,195.9z"/>
			</g>
		</g>
		<g>
			<g>
				<path class="st4" d="M124.3,192.6c0.1,0.2-2.6,1.1-5.9,2c-3.3,0.9-6.1,1.5-6.1,1.3c-0.1-0.2,2.6-1.1,5.9-2
					C121.5,193,124.2,192.4,124.3,192.6z"/>
			</g>
		</g>
		<g>
			<g>
				<path class="st4" d="M123.8,189.2c0.1,0.2-2.4,1.1-5.6,2c-3.1,0.9-5.7,1.5-5.8,1.2c-0.1-0.2,2.4-1.1,5.6-2
					C121.2,189.5,123.8,189,123.8,189.2z"/>
			</g>
		</g>
	</g>
</g>
</svg>
