<svg xmlns="http://www.w3.org/2000/svg" width="162.909" height="25.7" viewBox="0 0 162.909 25.7">
  <g id="Grupo_424" data-name="Grupo 424" transform="translate(0.009)">
    <g id="Grupo_247" data-name="Grupo 247">
      <g id="XMLID_81_">
        <g id="Grupo_233" data-name="Grupo 233">
          <rect id="XMLID_86_" width="5.4" height="1.7" transform="translate(104.6 12)" fill="#585858"/>
        </g>
      </g>
      <g id="XMLID_71_">
        <g id="Grupo_234" data-name="Grupo 234">
          <rect id="XMLID_76_" width="5.4" height="1.7" transform="translate(104.6 7.7)" fill="#585858"/>
        </g>
      </g>
      <g id="Grupo_246" data-name="Grupo 246">
        <g id="XMLID_64_">
          <g id="Grupo_235" data-name="Grupo 235">
            <path id="XMLID_66_" d="M39,7.9V9.6H35.5V12h3.2v1.7H35.5v2.8h3.6v1.7H33.7V7.9Z" fill="#585858"/>
          </g>
        </g>
        <g id="XMLID_58_">
          <g id="Grupo_236" data-name="Grupo 236">
            <path id="XMLID_60_" d="M45.6,7.9v8.6h4v1.7H43.9V7.9Z" fill="#585858"/>
          </g>
        </g>
        <g id="XMLID_54_">
          <g id="Grupo_237" data-name="Grupo 237">
            <rect id="XMLID_56_" width="5.4" height="1.7" transform="translate(104.6 16.3)" fill="#585858"/>
          </g>
        </g>
        <g id="XMLID_50_">
          <g id="Grupo_238" data-name="Grupo 238">
            <path id="XMLID_52_" d="M59.5,7.7h6.1V9.5H63.5v8.6H61.7V9.5H59.5Z" fill="#585858"/>
          </g>
        </g>
        <g id="XMLID_44_">
          <g id="Grupo_239" data-name="Grupo 239">
            <path id="XMLID_47_" d="M75.5,7.7V9.5H72v2.3h3.2v1.7H72v2.8h3.6v1.8H70.2V7.7Z" fill="#585858"/>
          </g>
        </g>
        <g id="XMLID_34_">
          <g id="Grupo_240" data-name="Grupo 240">
            <path id="XMLID_36_" d="M83.9,14.6H83v3.5H81.2V7.7h3.1a2.476,2.476,0,0,1,2.5,2.5V12a2.438,2.438,0,0,1-1.2,2.1L87.2,18H85.3ZM85,10.2a.684.684,0,0,0-.7-.7H83v3.4h1.3a.684.684,0,0,0,.7-.7Z" fill="#585858"/>
          </g>
        </g>
        <g id="XMLID_30_">
          <g id="Grupo_241" data-name="Grupo 241">
            <path id="XMLID_32_" d="M98.5,15.3a2.84,2.84,0,0,1-2.9,2.9h-.1a2.9,2.9,0,0,1-2.9-2.9V10.5a2.9,2.9,0,0,1,2.9-2.9h.1a2.893,2.893,0,0,1,2.9,3.1H96.7a1.168,1.168,0,0,0-1.1-1.3,1.11,1.11,0,0,0-1.1,1.1v5a1.1,1.1,0,1,0,2.2,0v-.6h1.8Z" fill="#585858"/>
          </g>
        </g>
        <g id="XMLID_22_">
          <g id="Grupo_242" data-name="Grupo 242">
            <path id="XMLID_24_" d="M118.6,14.6h-.9v3.5h-1.8V7.7H119a2.476,2.476,0,0,1,2.5,2.5V12a2.438,2.438,0,0,1-1.2,2.1l1.6,3.9H120Zm1.1-4.4a.684.684,0,0,0-.7-.7h-1.3v3.4H119a.684.684,0,0,0,.7-.7Z" fill="#585858"/>
          </g>
        </g>
        <g id="XMLID_14_">
          <g id="Grupo_243" data-name="Grupo 243">
            <path id="XMLID_16_" d="M139.6,15.3a2.9,2.9,0,0,1-2.9,2.9h-.2a2.9,2.9,0,0,1-2.9-2.9V10.5a2.9,2.9,0,0,1,2.9-2.9h.2a2.9,2.9,0,0,1,2.9,2.9Zm-1.8-4.9a1.11,1.11,0,0,0-1.1-1.1h-.2a1.2,1.2,0,0,0-1.2,1.1v5a1.135,1.135,0,0,0,1.2,1.1h.1a1.2,1.2,0,0,0,1.2-1.1Z" fill="#585858"/>
          </g>
        </g>
        <g id="XMLID_10_">
          <g id="Grupo_244" data-name="Grupo 244">
            <path id="XMLID_12_" d="M145.8,7.7h5.4v7.6a2.818,2.818,0,0,1-2.9,2.8h-.2a2.862,2.862,0,0,1-2.8-2.8v-.8h1.8v.8a1.2,1.2,0,1,0,2.4,0v-6h-3.6V7.7Z" fill="#585858"/>
          </g>
        </g>
        <g id="XMLID_2_">
          <g id="Grupo_245" data-name="Grupo 245">
            <path id="XMLID_4_" d="M162.9,15.3a2.9,2.9,0,0,1-2.9,2.9h-.2a2.9,2.9,0,0,1-2.9-2.9V10.5a2.9,2.9,0,0,1,2.9-2.9h.2a2.9,2.9,0,0,1,2.9,2.9Zm-1.7-4.9a1.11,1.11,0,0,0-1.1-1.1h-.2a1.2,1.2,0,0,0-1.2,1.1v5a1.135,1.135,0,0,0,1.2,1.1h.1a1.2,1.2,0,0,0,1.2-1.1Z" fill="#585858"/>
          </g>
        </g>
      </g>
    </g>
    <path id="Trazado_879" data-name="Trazado 879" d="M20.5,15,17.7,6.9l-.3-.6L14,1.1A2.305,2.305,0,0,0,12,0H8.6a2.305,2.305,0,0,0-2,1.1L3.2,6.2a.908.908,0,0,0-.3.7L.1,15a2.524,2.524,0,0,0,.1,1.7l1.9,5.1a2.94,2.94,0,0,0,1,1.2l3.7,2.3a2.843,2.843,0,0,0,1.2.4h4.5a1.922,1.922,0,0,0,1.2-.4L17.4,23a2.335,2.335,0,0,0,1-1.2l1.9-5.1A2.016,2.016,0,0,0,20.5,15ZM16.8,8.4l1.4,4.1-.1.1L15.3,9.8a.187.187,0,0,1,0-.3l1.1-1.1A.3.3,0,0,1,16.8,8.4ZM9.2,13.2a.349.349,0,0,1,.1.2c0,.1,0,.1-.1.2L6.6,16.2a.349.349,0,0,1-.2.1c-.1,0-.1,0-.2-.1L3.6,13.6a.349.349,0,0,1-.1-.2c0-.1,0-.1.1-.2l2.6-2.5a.187.187,0,0,1,.3,0ZM7.6,9.5c0-.1,0-.1.1-.2L10.1,7a.188.188,0,0,1,.3,0l2.5,2.5h0a.349.349,0,0,1,.1.2c0,.1,0,.1-.1.2l-2.4,2.4a.349.349,0,0,1-.2.1c-.1,0-.1,0-.2-.1L7.7,9.7C7.6,9.7,7.6,9.6,7.6,9.5Zm0,7.5,2.6-2.6a.349.349,0,0,1,.2-.1h0c.1,0,.1,0,.2.1L13.2,17a.187.187,0,0,1,0,.3l-2.6,2.6a.349.349,0,0,1-.2.1c-.1,0-.1,0-.2-.1L7.6,17.3C7.5,17.3,7.5,17.1,7.6,17Zm3.8-3.5a.187.187,0,0,1,0-.3l2.4-2.4a.187.187,0,0,1,.3,0l2.6,2.6a.349.349,0,0,1,.1.2c0,.1,0,.1-.1.2l-2.4,2.4a.349.349,0,0,1-.2.1c-.1,0-.1,0-.2-.1Zm2.4-9.9c.1,0,.1,0,.2.1l1.9,2.9c.1.1,0,.2,0,.3L14.3,8.5a.349.349,0,0,1-.2.1c-.1,0-.1,0-.2-.1L11.5,6.1a.349.349,0,0,1-.1-.2c0-.1,0-.1.1-.2l2.2-2.1ZM7.7,2.1l.2-.4a.822.822,0,0,1,.6-.4H12a.675.675,0,0,1,.6.4l.3.4c.1.1,0,.2,0,.3L10.5,4.7c-.1.1-.1.1-.2.1s-.2,0-.2-.1c0,0-1.9-1.9-2.4-2.3A.187.187,0,0,1,7.7,2.1ZM4.8,6.5,6.7,3.6c0-.1.1-.1.2-.1s.1,0,.2.1L9.2,5.7a.349.349,0,0,1,.1.2c0,.1,0,.1-.1.2L6.7,8.4a.349.349,0,0,1-.2.1c-.1,0-.1,0-.2-.1L4.8,6.8C4.7,6.8,4.7,6.6,4.8,6.5Zm-1,1.9a.192.192,0,0,1,.3-.1L5.2,9.4a.188.188,0,0,1,0,.3L2.4,12.5l-.1-.1ZM3,19.6a.349.349,0,0,1-.2.1h0c-.1,0-.1-.1-.2-.1L1.4,16.4a.454.454,0,0,1,0-.5l.1-.1a.1.1,0,0,1,.1-.1,9.322,9.322,0,0,0,1-1,.187.187,0,0,1,.3,0L5.3,17a.349.349,0,0,1,.1.2c0,.1,0,.1-.1.2Zm4.1,3.8-.1.1c0,.1-.1.1-.2.1H6.7L4,21.9l-.3-.3-.1-.3a.367.367,0,0,1,.1-.3l.1-.1,2.8-2.8a.187.187,0,0,1,.3,0l2.6,2.6a.349.349,0,0,1,.1.2c0,.1,0,.1-.1.2Zm5.3.8c0,.1-.1.1-.2.1H8.5a.349.349,0,0,1-.2-.1v-.3l1.8-1.8a.349.349,0,0,1,.2-.1h0c.1,0,.1,0,.2.1l1.8,1.8A.774.774,0,0,1,12.4,24.2Zm4.8-2.8-.1.3c-.1.1-.2.3-.3.3h-.1L14,23.6h-.1c-.1,0-.1,0-.2-.1l-.1-.1-2.3-2.3a.187.187,0,0,1,0-.3l2.6-2.6a.187.187,0,0,1,.3,0L17,21l.1.1C17.2,21.2,17.3,21.3,17.2,21.4Zm1.9-5.1-1.2,3.2c0,.1-.1.1-.2.1h0c-.1,0-.1,0-.2-.1l-2.3-2.3a.187.187,0,0,1,0-.3l2.4-2.4a.187.187,0,0,1,.3,0l1,1,.1.1v.1C19.2,16,19.2,16.1,19.1,16.3Z" fill="#585858"/>
  </g>
</svg>
