<?xml version="1.0" encoding="utf-8"?>
<!-- Generator: Adobe Illustrator 24.0.0, SVG Export Plug-In . SVG Version: 6.00 Build 0)  -->
<svg version="1.1" id="Capa_1" xmlns="http://www.w3.org/2000/svg" xmlns:xlink="http://www.w3.org/1999/xlink" x="0px" y="0px"
	 viewBox="0 0 172.1 29.6" style="enable-background:new 0 0 172.1 29.6;" xml:space="preserve">
<style type="text/css">
	.st0{fill:#E94B50;}
	.st1{fill:#424241;}
</style>
<g>
	<g>
		<path class="st0" d="M56.6,5.1c3.6,0,5.6,1.5,6.5,4.1c0.1,0.5,0,0.7-0.4,0.8l-1,0.3c-0.5,0.1-0.7,0.1-0.8-0.4
			c-0.6-1.8-1.9-2.7-4.3-2.7c-2.9,0-4.4,1.5-4.4,4v5.6c0,2.5,1.6,4,4.4,4c2.5,0,3.7-0.9,4.3-2.8c0.2-0.5,0.4-0.6,0.8-0.4l1,0.4
			c0.5,0.1,0.6,0.4,0.4,0.8c-0.9,2.7-2.9,4.2-6.5,4.2c-4.4,0-6.8-2.4-6.8-6.2v-5.5C49.8,7.5,52.2,5.1,56.6,5.1z"/>
		<path class="st0" d="M70,9.8c3.5,0,5.4,1.8,5.4,4.6v3.9c0,2.9-2,4.6-5.4,4.6c-3.4,0-5.4-1.8-5.4-4.6v-3.9
			C64.6,11.6,66.6,9.8,70,9.8z M70,11.8c-2,0-3.3,1-3.3,2.7v4c0,1.7,1.2,2.7,3.3,2.7c2.1,0,3.3-1,3.3-2.7v-4
			C73.3,12.8,72,11.8,70,11.8z"/>
		<path class="st0" d="M79.7,5.3v5.1c0.7-0.2,1.9-0.6,3.4-0.6c3.4,0,4.9,1.8,4.9,4.8V18c0,3.2-1.7,5-5.3,5c-1.9,0-3.4-0.4-4.2-0.8
			c-0.8-0.4-0.9-0.6-0.9-1.3V5.3c0-0.4,0.1-0.6,0.6-0.6h1C79.5,4.8,79.7,4.9,79.7,5.3z M82.8,11.8c-1.4,0-2.5,0.4-3.1,0.6v7.8
			c0,0.2,0,0.3,0.3,0.5c0.6,0.2,1.5,0.4,2.5,0.4c2.3,0,3.3-1,3.3-3.1v-3.2C85.8,12.9,84.8,11.8,82.8,11.8z"/>
		<path class="st0" d="M96.1,9.8c0.4,0,0.6,0.1,0.6,0.6v0.8c0,0.4-0.1,0.6-0.6,0.6h-0.8c-1.2,0-2.1,0.2-2.8,0.4
			c-0.3,0.1-0.3,0.3-0.3,0.5v9.4c0,0.4-0.1,0.6-0.6,0.6h-1c-0.4,0-0.6-0.1-0.6-0.6V11.9c0-0.8,0.2-1,0.9-1.4
			c0.9-0.3,2.3-0.7,4.4-0.8H96.1z"/>
		<path class="st0" d="M102.5,9.8c3.5,0,5.4,1.8,5.4,4.6v3.9c0,2.9-2,4.6-5.4,4.6c-3.4,0-5.4-1.8-5.4-4.6v-3.9
			C97.1,11.6,99.1,9.8,102.5,9.8z M102.5,11.8c-2,0-3.3,1-3.3,2.7v4c0,1.7,1.2,2.7,3.3,2.7c2.1,0,3.3-1,3.3-2.7v-4
			C105.8,12.8,104.5,11.8,102.5,11.8z"/>
		<path class="st1" d="M123.1,11.9v4.4c0,3.9-2.5,6.4-7,6.4h-5.3c-0.5,0-0.6-0.2-0.6-0.6V6.1c0-0.5,0.2-0.6,0.6-0.6h5.3
			C120.6,5.5,123.1,7.9,123.1,11.9z M116.1,7.7h-3.6v12.8h3.6c3,0,4.7-1.5,4.7-4.2v-4.5C120.7,9.2,119.1,7.7,116.1,7.7z"/>
		<path class="st1" d="M127.6,6.8V7c0,0.9-0.3,1.2-1.2,1.2h-0.1c-0.9,0-1.2-0.3-1.2-1.2V6.8c0-0.9,0.3-1.2,1.2-1.2h0.1
			C127.4,5.6,127.6,5.9,127.6,6.8z M127.5,10.8v11.3c0,0.4-0.1,0.6-0.6,0.6h-1c-0.4,0-0.6-0.1-0.6-0.6V10.8c0-0.4,0.1-0.6,0.6-0.6h1
			C127.3,10.2,127.5,10.3,127.5,10.8z"/>
		<path class="st1" d="M134.9,9.8c1.9,0,3.4,0.4,4.2,0.8c0.8,0.3,0.9,0.5,0.9,1.3v11.4c0,3.1-1.5,5.2-5.2,5.2c-2.6,0-4.1-1-4.9-2.5
			c-0.3-0.4-0.2-0.7,0.2-0.9l0.7-0.4c0.5-0.2,0.7-0.2,0.9,0.2c0.6,1,1.4,1.6,3,1.6c2.1,0,3.1-1.2,3.1-3.2V22
			c-0.7,0.2-1.9,0.6-3.4,0.6c-3.4,0-4.9-1.8-4.9-4.8v-3C129.6,11.6,131.3,9.8,134.9,9.8z M135,11.8c-2.3,0-3.3,1-3.3,3.1v2.9
			c0,1.8,1,2.9,3,2.9c1.4,0,2.5-0.4,3.1-0.5v-7.4c0-0.3,0-0.3-0.3-0.5C136.9,12,136.1,11.8,135,11.8z"/>
		<path class="st1" d="M144.8,6.8V7c0,0.9-0.3,1.2-1.2,1.2h-0.1c-0.9,0-1.2-0.3-1.2-1.2V6.8c0-0.9,0.3-1.2,1.2-1.2h0.1
			C144.5,5.6,144.8,5.9,144.8,6.8z M144.6,10.8v11.3c0,0.4-0.1,0.6-0.6,0.6h-1c-0.4,0-0.6-0.1-0.6-0.6V10.8c0-0.4,0.1-0.6,0.6-0.6h1
			C144.5,10.2,144.6,10.3,144.6,10.8z"/>
		<path class="st1" d="M150.5,7.9v2.3h3.2c0.4,0,0.6,0.1,0.6,0.6v0.8c0,0.4-0.1,0.6-0.6,0.6h-3.2v5.6c0,2.6,0.8,3.1,3.1,3.1
			c0.5,0,0.6,0.1,0.6,0.6v0.9c0,0.4-0.1,0.6-0.6,0.6c-3.9,0.1-5.3-1.1-5.3-5.1v-5.7h-2c-0.4,0-0.6-0.1-0.6-0.6v-0.8
			c0-0.4,0.1-0.6,0.6-0.6h2V7.9c0-0.4,0.1-0.6,0.6-0.6h1C150.4,7.3,150.5,7.4,150.5,7.9z"/>
		<path class="st1" d="M160.2,9.8c3.9,0,5,2.2,5,4.9V21c0,0.8-0.2,1.1-0.9,1.4c-0.9,0.4-2.3,0.6-4.2,0.6c-4.3,0-5.3-1.4-5.3-3.9
			c0-2.8,1.5-3.8,5.4-3.8c1.2,0,2.3,0.1,2.8,0.2v-0.9c0-1.7-0.6-2.9-2.9-2.9c-1.5,0-2.4,0.5-3,1.5c-0.3,0.4-0.4,0.5-0.8,0.3
			l-0.8-0.3c-0.4-0.2-0.5-0.4-0.3-0.8C156.2,10.8,157.8,9.8,160.2,9.8z M160.1,17.2c-2.3,0-3,0.7-3,2c0,1.3,0.5,2,2.9,2
			c1.3,0,2.1-0.1,2.7-0.3c0.3-0.1,0.4-0.2,0.4-0.5v-3.1C162.6,17.3,161.3,17.2,160.1,17.2z"/>
		<path class="st1" d="M169.2,22.7h-1c-0.4,0-0.6-0.1-0.6-0.6V5.3c0-0.4,0.1-0.6,0.6-0.6h1c0.4,0,0.6,0.1,0.6,0.6v16.8
			C169.8,22.5,169.6,22.7,169.2,22.7z"/>
	</g>
	<path class="st0" d="M10.4,7.6h11.2l1.6-6.5H8.8H5.5c-3.2,0-3.2,3.3-3.2,3.3v19.1c0,0,0,3.2,3.2,3.2h3.2h8l1.6-6.5h-8
		c-1.6,0-1.6-1.6-1.6-1.6V9.2C8.8,7.5,10.4,7.6,10.4,7.6z"/>
	<path class="st1" d="M43.1,23.4v-3.2V7.6V4.3c0-3.2-3.2-3.3-3.2-3.3h-3.2h-8l-1.6,6.5h8c0,0,1.6,0,1.6,1.6v9.4c0,0,0,1.6-1.6,1.6
		H23.9l-1.6,6.5h14.4h3.2C43.1,26.7,43.1,23.4,43.1,23.4z"/>
</g>
</svg>
