<svg xmlns="http://www.w3.org/2000/svg" width="731.099" height="265.497" viewBox="0 0 731.099 265.497">
  <g id="Grupo_4014" data-name="Grupo 4014" transform="translate(-296 -244.491)">
    <g id="Grupo_3216" data-name="Grupo 3216" transform="translate(-172.508 217.988)" style="mix-blend-mode: multiply;isolation: isolate">
      <g id="Grupo_3213" data-name="Grupo 3213" transform="translate(468.507 26.503)">
        <path id="Trazado_12356" data-name="Trazado 12356" d="M542.451,92.11A41.075,41.075,0,1,1,534.085,34.7,41.03,41.03,0,0,1,542.451,92.11Z" transform="translate(-468.507 -26.503)" fill="#ebebeb"/>
        <path id="Trazado_12357" data-name="Trazado 12357" d="M535.514,87.151A31.3,31.3,0,1,1,529.139,43.4,31.266,31.266,0,0,1,535.514,87.151Z" transform="translate(-469.399 -27.395)" fill="#f5f5f5"/>
        <g id="Grupo_3212" data-name="Grupo 3212" transform="translate(15.389 8.667)">
          <path id="Trazado_12358" data-name="Trazado 12358" d="M536.609,86.261c-.157-.108.559-1.288,1.591-3.51a33.22,33.22,0,0,0,2.852-9.846,32.052,32.052,0,0,0,.086-7.037A31.342,31.342,0,0,0,539.3,58.04a30.71,30.71,0,0,0-4.278-7.752,30.433,30.433,0,0,0-3.115-3.507,30.607,30.607,0,0,0-7.891-5.523,30.591,30.591,0,0,0-4.363-1.725,30.721,30.721,0,0,0-8.751-1.362,31.342,31.342,0,0,0-7.983.955,32.092,32.092,0,0,0-6.581,2.493,33.225,33.225,0,0,0-8.269,6.054c-1.733,1.732-2.6,2.809-2.751,2.7-.116-.078.488-1.341,2.057-3.322a28.948,28.948,0,0,1,8.149-6.918,31.362,31.362,0,0,1,15.372-4.167,30.178,30.178,0,0,1,4.663.293,30.642,30.642,0,0,1,4.771,1.031,31.743,31.743,0,0,1,4.721,1.827,32.066,32.066,0,0,1,8.513,5.956A31.9,31.9,0,0,1,536.9,48.88a31.94,31.94,0,0,1,4.478,8.409,31.356,31.356,0,0,1,1.355,15.871,28.985,28.985,0,0,1-3.7,10.029C537.7,85.341,536.723,86.343,536.609,86.261Z" transform="translate(-485.302 -35.962)" fill="#e0e0e0"/>
        </g>
      </g>
      <g id="Grupo_3215" data-name="Grupo 3215" transform="translate(489.657 49.104)">
        <g id="Grupo_3214" data-name="Grupo 3214">
          <path id="Trazado_12359" data-name="Trazado 12359" d="M503.141,86.658l-3.2,4.415L496,88.214l3.115-4.3c-3.729-3.066-6.588-7-7.527-10.268l5.654-3.237a19.677,19.677,0,0,0,5.617,8.343l4.773-6.583c-3.6-4.234-7.433-9.236-3.345-14.873,3.029-4.177,8.664-5.563,15.4-1.757l3.173-4.375,3.941,2.858-3.115,4.3a22.019,22.019,0,0,1,6.257,8.2l-5.485,3.42a19.958,19.958,0,0,0-4.544-6.423l-4.858,6.7c3.631,4.2,7.382,9.142,3.353,14.7C515.438,89.021,509.871,90.4,503.141,86.658Zm8.692-20.277,4.057-5.6c-2.431-1.042-4.088-.5-5.032.8C509.859,62.966,510.5,64.573,511.833,66.381Zm-.11,14.415c1-1.381.4-2.957-.865-4.779l-3.944,5.438C509.2,82.452,510.809,82.056,511.723,80.8Z" transform="translate(-491.588 -51.168)" fill="#e0e0e0"/>
        </g>
      </g>
    </g>
    <g id="Grupo_3221" data-name="Grupo 3221" transform="translate(831.874 366.716)" style="mix-blend-mode: multiply;isolation: isolate">
      <g id="Grupo_3218" data-name="Grupo 3218">
        <path id="Trazado_12360" data-name="Trazado 12360" d="M194.792,122.443a25.547,25.547,0,1,1-20.463-29.724A25.519,25.519,0,0,1,194.792,122.443Z" fill="#ebebeb"/>
        <path id="Trazado_12361" data-name="Trazado 12361" d="M188.816,121.334a19.468,19.468,0,1,1-15.594-22.652A19.447,19.447,0,0,1,188.816,121.334Z" fill="#f5f5f5"/>
        <g id="Grupo_3217" data-name="Grupo 3217">
          <path id="Trazado_12362" data-name="Trazado 12362" d="M188.923,120.733a11.467,11.467,0,0,1-.079-2.4,20.635,20.635,0,0,0-1.118-6.277,19.965,19.965,0,0,0-1.888-3.949,19.537,19.537,0,0,0-3.18-3.859,19.113,19.113,0,0,0-4.52-3.147,18.861,18.861,0,0,0-2.7-1.1,19.072,19.072,0,0,0-5.922-.91,19.046,19.046,0,0,0-2.907.238,19.043,19.043,0,0,0-5.256,1.648,19.5,19.5,0,0,0-4.191,2.729,19.942,19.942,0,0,0-2.985,3.2,20.654,20.654,0,0,0-2.946,5.652,11.415,11.415,0,0,1-.792,2.261,5.71,5.71,0,0,1,.233-2.419,18.011,18.011,0,0,1,2.642-6.1,19.5,19.5,0,0,1,7.428-6.555,18.77,18.77,0,0,1,2.682-1.119,19.162,19.162,0,0,1,2.945-.738,19.851,19.851,0,0,1,3.136-.28,19.931,19.931,0,0,1,6.387.981A19.812,19.812,0,0,1,178.8,99.8a19.1,19.1,0,0,1,2.588,1.587,18.868,18.868,0,0,1,2.223,1.872,19.5,19.5,0,0,1,5.123,8.48,18.01,18.01,0,0,1,.693,6.612A5.731,5.731,0,0,1,188.923,120.733Z" fill="#e0e0e0"/>
        </g>
      </g>
      <g id="Grupo_3220" data-name="Grupo 3220">
        <g id="Grupo_3219" data-name="Grupo 3219">
          <path id="Trazado_12363" data-name="Trazado 12363" d="M169.72,129.6l-.571,3.344-2.985-.511.556-3.253a14.348,14.348,0,0,1-7.023-3.657l2.263-3.361a12.23,12.23,0,0,0,5.428,3.108l.851-4.985c-3.175-1.37-6.687-3.107-5.958-7.375.541-3.164,3.3-5.487,8.11-5.218l.566-3.314,2.985.51-.556,3.254a13.692,13.692,0,0,1,5.747,2.855l-2.119,3.416a12.428,12.428,0,0,0-4.3-2.333l-.867,5.075c3.18,1.341,6.633,3.069,5.914,7.276C177.229,127.532,174.5,129.831,169.72,129.6Zm-.731-13.7.723-4.238c-1.642.087-2.417.846-2.585,1.831C166.949,114.533,167.747,115.254,168.989,115.9Zm3.9,8.07c.178-1.045-.59-1.759-1.8-2.427l-.7,4.119C171.942,125.585,172.731,124.921,172.894,123.966Z" fill="#e0e0e0"/>
        </g>
      </g>
    </g>
    <g id="Grupo_3226" data-name="Grupo 3226" transform="translate(398.257 696.163) rotate(-50)" style="mix-blend-mode: multiply;isolation: isolate">
      <g id="Grupo_3223" data-name="Grupo 3223">
        <path id="Trazado_12364" data-name="Trazado 12364" d="M549.2,98.1a44.826,44.826,0,1,1-9.13-62.658A44.777,44.777,0,0,1,549.2,98.1Z" fill="#ebebeb"/>
        <path id="Trazado_12365" data-name="Trazado 12365" d="M540.66,91.717a34.16,34.16,0,1,1-6.957-47.75A34.121,34.121,0,0,1,540.66,91.717Z" fill="#f5f5f5"/>
        <g id="Grupo_3222" data-name="Grupo 3222">
          <path id="Trazado_12366" data-name="Trazado 12366" d="M541.295,90.854c-.171-.118.61-1.406,1.736-3.831a36.258,36.258,0,0,0,3.112-10.745,34.979,34.979,0,0,0,.094-7.68,34.2,34.2,0,0,0-2.009-8.542,33.512,33.512,0,0,0-4.669-8.46,33.217,33.217,0,0,0-3.4-3.827,33.406,33.406,0,0,0-8.612-6.027,33.388,33.388,0,0,0-4.761-1.883,33.527,33.527,0,0,0-9.55-1.486,34.2,34.2,0,0,0-8.712,1.042,35.023,35.023,0,0,0-7.182,2.721,36.259,36.259,0,0,0-9.024,6.607c-1.891,1.89-2.833,3.065-3,2.944-.127-.085.533-1.464,2.245-3.625a31.592,31.592,0,0,1,8.893-7.55,34.227,34.227,0,0,1,16.776-4.548,32.934,32.934,0,0,1,5.089.32,33.438,33.438,0,0,1,5.207,1.125,34.645,34.645,0,0,1,5.152,1.994,35,35,0,0,1,9.29,6.5,34.817,34.817,0,0,1,3.638,4.157,34.859,34.859,0,0,1,4.887,9.177,34.22,34.22,0,0,1,1.479,17.32A31.632,31.632,0,0,1,543.932,87.5C542.489,89.851,541.419,90.944,541.295,90.854Z" fill="#e0e0e0"/>
        </g>
      </g>
      <g id="Grupo_3225" data-name="Grupo 3225">
        <g id="Grupo_3224" data-name="Grupo 3224">
          <path id="Trazado_12367" data-name="Trazado 12367" d="M504.2,89.9,500.7,94.717l-4.3-3.12,3.4-4.688c-4.07-3.346-7.19-7.641-8.214-11.206l6.17-3.533a21.475,21.475,0,0,0,6.13,9.105l5.209-7.184c-3.933-4.621-8.112-10.08-3.651-16.231,3.306-4.559,9.455-6.071,16.811-1.917l3.463-4.775,4.3,3.119-3.4,4.689a24.03,24.03,0,0,1,6.828,8.954l-5.986,3.732a21.781,21.781,0,0,0-4.959-7.01l-5.3,7.313c3.963,4.579,8.056,9.977,3.659,16.04C517.616,92.478,511.541,93.978,504.2,89.9Zm9.486-22.129,4.427-6.107c-2.653-1.137-4.461-.544-5.491.875C511.528,64.043,512.225,65.8,513.682,67.77Zm-.12,15.731c1.092-1.507.437-3.227-.944-5.215l-4.3,5.935C510.807,85.309,512.564,84.877,513.562,83.5Z" fill="#e0e0e0"/>
        </g>
      </g>
    </g>
  </g>
</svg>
