<?xml version="1.0" encoding="utf-8"?>
<!-- Generator: Adobe Illustrator 25.0.0, SVG Export Plug-In . SVG Version: 6.00 Build 0)  -->
<svg version="1.1" id="Capa_1" xmlns="http://www.w3.org/2000/svg" xmlns:xlink="http://www.w3.org/1999/xlink" x="0px" y="0px"
	 viewBox="0 0 27.8 27.8" style="enable-background:new 0 0 27.8 27.8;" xml:space="preserve">
<style type="text/css">
	.st0{fill:none;stroke:#EF0911;stroke-width:2;}
	.st1{fill:#EF0911;}
</style>
<g id="Grupo_1849" transform="translate(-1401.24 -14.479)">
	<g id="Grupo_218" transform="translate(1402.24 15.479)">
		<path id="Trazado_192" class="st0" d="M12.9,25.8c7.1,0,12.9-5.8,12.9-12.9S20.1,0,12.9,0S0,5.8,0,12.9c0,0,0,0,0,0
			C0,20.1,5.8,25.8,12.9,25.8z"/>
	</g>
	<g id="logo" transform="translate(1410.224 21.14)">
		<path id="Trazado_235" class="st1" d="M12,12L12,12V7.6c0-2.2-0.5-3.8-3-3.8c-1,0-1.9,0.5-2.3,1.3h0V4H4.2v8h2.5V8
			C6.7,7,6.9,6,8.2,6c1.3,0,1.3,1.2,1.3,2.1V12L12,12z"/>
		<path id="Trazado_236" class="st1" d="M0.2,4h2.5v8H0.2V4z"/>
		<path id="Trazado_237" class="st1" d="M1.4,0C0.6,0,0,0.6,0,1.4s0.6,1.4,1.4,1.5s1.4-0.6,1.5-1.4c0,0,0,0,0,0C2.9,0.6,2.2,0,1.4,0
			C1.4,0,1.4,0,1.4,0z"/>
	</g>
</g>
</svg>
