<?xml version="1.0" encoding="utf-8"?>
<!-- Generator: Adobe Illustrator 25.0.0, SVG Export Plug-In . SVG Version: 6.00 Build 0)  -->
<svg version="1.1" id="Capa_1" xmlns="http://www.w3.org/2000/svg" xmlns:xlink="http://www.w3.org/1999/xlink" x="0px" y="0px"
	 viewBox="0 0 27.4 27.4" style="enable-background:new 0 0 27.4 27.4;" xml:space="preserve">
<style type="text/css">
	.st0{fill:none;stroke:#EF0911;stroke-width:2;}
	.st1{fill:#EF0911;}
</style>
<g id="Grupo_1848" transform="translate(-1438.558 -14.635)">
	<g id="Grupo_219" transform="translate(1439.558 15.635)">
		<path id="Trazado_192" class="st0" d="M12.7,25.4c7,0,12.7-5.7,12.7-12.7S19.7,0,12.7,0C5.7,0,0,5.7,0,12.7
			C0,19.7,5.7,25.4,12.7,25.4C12.7,25.4,12.7,25.4,12.7,25.4z"/>
	</g>
	<g id="brands-and-logotypes-2" transform="translate(1446.656 22.674)">
		<g id="Grupo_213">
			<g id="Grupo_212">
				<path id="Trazado_238" class="st1" d="M8.2,0H3.7C1.7,0,0,1.7,0,3.7c0,0,0,0,0,0v4.5C0,10.3,1.7,12,3.7,12l0,0h4.5
					c2.1,0,3.7-1.7,3.7-3.7l0,0V3.7C12,1.7,10.3,0,8.2,0C8.2,0,8.2,0,8.2,0z M10.8,8.2c0,1.4-1.2,2.6-2.6,2.6H3.7
					c-1.4,0-2.6-1.2-2.6-2.6V3.7c0-1.4,1.2-2.6,2.6-2.6h4.5c1.4,0,2.6,1.2,2.6,2.6V8.2z"/>
			</g>
		</g>
		<g id="Grupo_215" transform="translate(2.99 2.99)">
			<g id="Grupo_214">
				<path id="Trazado_239" class="st1" d="M3,0C1.3,0,0,1.3,0,3s1.3,3,3,3c1.7,0,3-1.3,3-3C6,1.3,4.6,0,3,0C3,0,3,0,3,0z M3,4.9
					C2,4.9,1.1,4,1.1,3C1.1,2,2,1.1,3,1.1C4,1.1,4.9,2,4.9,3C4.9,4,4,4.9,3,4.9z"/>
			</g>
		</g>
		<g id="Grupo_217" transform="translate(8.797 2.368)">
			<g id="Grupo_216">
				<ellipse id="Elipse_2" class="st1" cx="0.4" cy="0.4" rx="0.4" ry="0.4"/>
			</g>
		</g>
	</g>
</g>
</svg>
