<svg id="social" xmlns="http://www.w3.org/2000/svg" width="14.455" height="17.326" viewBox="0 0 14.455 17.326">
  <path id="Trazado_1038" data-name="Trazado 1038" d="M91.2,8.346a4.038,4.038,0,0,0,2.951-1.223,4.038,4.038,0,0,0,1.222-2.95,4.038,4.038,0,0,0-1.223-2.95,4.172,4.172,0,0,0-5.9,0,4.038,4.038,0,0,0-1.223,2.95,4.038,4.038,0,0,0,1.223,2.951A4.039,4.039,0,0,0,91.2,8.346Zm0,0" transform="translate(-84.086)" fill="#fff"/>
  <path id="Trazado_1039" data-name="Trazado 1039" d="M14.42,252.27a10.307,10.307,0,0,0-.14-1.095,8.625,8.625,0,0,0-.269-1.1,5.437,5.437,0,0,0-.452-1.027,3.874,3.874,0,0,0-.682-.889,3.008,3.008,0,0,0-.98-.616,3.387,3.387,0,0,0-1.251-.226,1.27,1.27,0,0,0-.678.288c-.2.133-.441.286-.707.456a4.049,4.049,0,0,1-.914.4,3.55,3.55,0,0,1-2.236,0,4.039,4.039,0,0,1-.914-.4c-.263-.168-.5-.321-.707-.456a1.268,1.268,0,0,0-.678-.288,3.383,3.383,0,0,0-1.251.227,3.006,3.006,0,0,0-.98.616,3.874,3.874,0,0,0-.682.889,5.447,5.447,0,0,0-.452,1.027,8.646,8.646,0,0,0-.269,1.1,10.271,10.271,0,0,0-.14,1.1c-.023.332-.035.676-.035,1.023a2.877,2.877,0,0,0,.854,2.176,3.076,3.076,0,0,0,2.2.8H11.4a3.075,3.075,0,0,0,2.2-.8,2.876,2.876,0,0,0,.855-2.177C14.455,252.944,14.443,252.6,14.42,252.27Zm0,0" transform="translate(0 -238.948)" fill="#fff"/>
</svg>
