<?xml version="1.0" encoding="utf-8"?>
<!-- Generator: Adobe Illustrator 25.0.0, SVG Export Plug-In . SVG Version: 6.00 Build 0)  -->
<svg version="1.1" id="Capa_1" xmlns="http://www.w3.org/2000/svg" xmlns:xlink="http://www.w3.org/1999/xlink" x="0px" y="0px"
	 viewBox="0 0 19.5 19.5" style="enable-background:new 0 0 19.5 19.5;" xml:space="preserve">
<style type="text/css">
	.st0{fill:#EF0911;}
</style>
<path class="st0" d="M19.4,15.6l-0.1-0.3c-0.3-0.7-0.9-1.3-1.7-1.6L15.1,13c-0.8-0.2-1.6,0-2.2,0.6L12,14.5C8.6,13.6,6,10.9,5,7.6
	L6,6.6C6.5,6,6.7,5.2,6.5,4.4L5.8,1.9C5.6,1.1,5,0.5,4.3,0.2L4,0.1c-0.8-0.2-1.6,0-2.2,0.5L0.4,2C0.2,2.3,0.1,2.6,0,2.9
	c0,4.4,1.7,8.7,4.8,11.8c3.1,3.1,7.3,4.8,11.7,4.8c0.4-0.1,0.7-0.2,1-0.4l1.4-1.4C19.5,17.1,19.7,16.3,19.4,15.6z"/>
</svg>
