<?xml version="1.0" encoding="utf-8"?>
<!-- Generator: Adobe Illustrator 25.0.0, SVG Export Plug-In . SVG Version: 6.00 Build 0)  -->
<svg version="1.1" id="Capa_1" xmlns="http://www.w3.org/2000/svg" xmlns:xlink="http://www.w3.org/1999/xlink" x="0px" y="0px"
	 viewBox="0 0 280 48.9" style="enable-background:new 0 0 280 48.9;" xml:space="preserve">
<style type="text/css">
	.st0{fill:#E94C51;}
	.st1{fill:#424141;}
</style>
<g>
	<g>
		<path class="st0" d="M92.9,9c5.8,0,9,2.3,10.4,6.6c0.2,0.7,0.1,1-0.7,1.3l-1.6,0.5c-0.7,0.2-1,0.1-1.3-0.6c-1-2.9-3-4.3-6.9-4.3
			c-4.6,0-7.1,2.3-7.1,6.4v8.9c0,4,2.5,6.4,7.1,6.4c3.9,0,5.9-1.5,6.9-4.4c0.3-0.8,0.6-0.9,1.3-0.7l1.6,0.6c0.7,0.2,0.9,0.6,0.7,1.3
			c-1.4,4.3-4.6,6.7-10.5,6.7c-7,0-10.8-3.8-10.8-9.9v-8.8C82.1,12.7,85.9,9,92.9,9z"/>
		<path class="st0" d="M114.3,16.5c5.6,0,8.7,2.8,8.7,7.4v6.3c0,4.6-3.1,7.4-8.7,7.4c-5.5,0-8.7-2.8-8.7-7.4v-6.3
			C105.7,19.3,108.9,16.5,114.3,16.5z M114.3,19.6c-3.3,0-5.2,1.6-5.2,4.3v6.3c0,2.7,2,4.3,5.2,4.3c3.3,0,5.3-1.6,5.3-4.3v-6.3
			C119.6,21.2,117.6,19.6,114.3,19.6z"/>
		<path class="st0" d="M129.8,9.3v8.1c1.1-0.3,3.1-1,5.5-1c5.4,0,7.8,2.9,7.8,7.7v5.4c0,5.2-2.7,8.1-8.5,8.1c-3,0-5.4-0.6-6.8-1.2
			c-1.2-0.6-1.4-0.9-1.4-2.1v-25c0-0.7,0.2-0.9,0.9-0.9h1.6C129.6,8.4,129.8,8.6,129.8,9.3z M134.7,19.6c-2.2,0-4,0.7-5,1v12.4
			c0,0.4,0,0.5,0.5,0.7c1,0.3,2.4,0.6,4,0.6c3.6,0,5.3-1.7,5.3-5v-5.2C139.6,21.3,138,19.6,134.7,19.6z"/>
		<path class="st0" d="M156.2,16.5c0.7,0,0.9,0.2,0.9,0.9v1.3c0,0.7-0.2,0.9-0.9,0.9h-1.4c-1.9,0-3.3,0.3-4.5,0.7
			c-0.5,0.2-0.5,0.4-0.5,0.8v15c0,0.7-0.2,0.9-0.9,0.9h-1.6c-0.7,0-0.9-0.2-0.9-0.9V19.8c0-1.2,0.3-1.7,1.5-2.2
			c1.4-0.5,3.7-1.1,7.1-1.2H156.2z"/>
		<path class="st0" d="M166.3,16.5c5.6,0,8.7,2.8,8.7,7.4v6.3c0,4.6-3.1,7.4-8.7,7.4c-5.5,0-8.7-2.8-8.7-7.4v-6.3
			C157.6,19.3,160.8,16.5,166.3,16.5z M166.3,19.6c-3.3,0-5.2,1.6-5.2,4.3v6.3c0,2.7,2,4.3,5.2,4.3c3.3,0,5.3-1.6,5.3-4.3v-6.3
			C171.6,21.2,169.6,19.6,166.3,19.6z"/>
		<path class="st1" d="M199.3,19.8v7c0,6.3-4,10.2-11.2,10.2h-8.4c-0.7,0-1-0.3-1-1V10.5c0-0.7,0.3-1,1-1h8.4
			C195.2,9.5,199.3,13.4,199.3,19.8z M188,13h-5.7v20.5h5.7c4.8,0,7.5-2.4,7.5-6.7v-7.1C195.5,15.5,192.9,13,188,13z"/>
		<path class="st1" d="M206.5,11.6v0.3c0,1.4-0.4,1.9-1.9,1.9h-0.2c-1.4,0-1.9-0.4-1.9-1.9v-0.3c0-1.4,0.5-1.9,1.9-1.9h0.2
			C206.1,9.7,206.5,10.2,206.5,11.6z M206.3,18v18.1c0,0.7-0.2,0.9-0.9,0.9h-1.6c-0.7,0-0.9-0.2-0.9-0.9V18c0-0.7,0.2-0.9,0.9-0.9
			h1.6C206,17,206.3,17.3,206.3,18z"/>
		<path class="st1" d="M218.1,16.5c3,0,5.4,0.6,6.7,1.2c1.2,0.5,1.5,0.9,1.5,2.1V38c0,5-2.4,8.4-8.3,8.4c-4.2,0-6.5-1.5-7.8-3.9
			c-0.5-0.7-0.3-1.1,0.3-1.5l1.1-0.6c0.7-0.4,1.1-0.3,1.5,0.3c0.9,1.6,2.2,2.6,4.8,2.6c3.4,0,4.9-1.9,4.9-5.1v-2.2
			c-1.1,0.3-3.1,1-5.4,1c-5.4,0-7.8-2.9-7.8-7.7v-4.8C209.6,19.3,212.3,16.5,218.1,16.5z M218.3,19.6c-3.6,0-5.3,1.6-5.3,5v4.6
			c0,2.9,1.6,4.6,4.8,4.6c2.3,0,4-0.6,5-0.9V21c0-0.5,0-0.5-0.5-0.8C221.3,19.9,220,19.6,218.3,19.6z"/>
		<path class="st1" d="M233.9,11.6v0.3c0,1.4-0.4,1.9-1.9,1.9h-0.2c-1.4,0-1.9-0.4-1.9-1.9v-0.3c0-1.4,0.5-1.9,1.9-1.9h0.2
			C233.5,9.7,233.9,10.2,233.9,11.6z M233.7,18v18.1c0,0.7-0.2,0.9-0.9,0.9h-1.6c-0.7,0-0.9-0.2-0.9-0.9V18c0-0.7,0.2-0.9,0.9-0.9
			h1.6C233.5,17,233.7,17.3,233.7,18z"/>
		<path class="st1" d="M243.1,13.3V17h5.1c0.7,0,0.9,0.2,0.9,0.9v1.4c0,0.7-0.2,0.9-0.9,0.9h-5.1v9c0,4.2,1.2,5,5,5
			c0.7,0,1,0.2,1,0.9v1.4c0,0.7-0.2,0.9-1,0.9c-6.2,0.2-8.4-1.7-8.4-8.2v-9.1h-3.2c-0.7,0-0.9-0.2-0.9-0.9V18c0-0.7,0.2-0.9,0.9-0.9
			h3.2v-3.7c0-0.7,0.2-0.9,0.9-0.9h1.6C242.9,12.4,243.1,12.6,243.1,13.3z"/>
		<path class="st1" d="M258.7,16.5c6.3,0,8,3.4,8,7.8v10.1c0,1.4-0.3,1.7-1.4,2.2c-1.4,0.6-3.6,1-6.7,1c-6.8,0-8.5-2.2-8.5-6.2
			c0-4.5,2.5-6.1,8.6-6.1c1.9,0,3.8,0.2,4.4,0.3v-1.5c0-2.7-1-4.6-4.6-4.6c-2.3,0-3.9,0.8-4.8,2.4c-0.4,0.6-0.6,0.7-1.3,0.5
			l-1.2-0.5c-0.7-0.3-0.9-0.6-0.5-1.3C252.1,18,254.7,16.5,258.7,16.5z M258.4,28.2c-3.6,0-4.8,1-4.8,3.3c0,2,0.8,3.3,4.7,3.3
			c2.1,0,3.4-0.2,4.3-0.5c0.5-0.2,0.6-0.3,0.6-0.9v-4.9C262.4,28.4,260.3,28.2,258.4,28.2z"/>
		<path class="st1" d="M273,37h-1.6c-0.7,0-0.9-0.2-0.9-0.9V9.3c0-0.7,0.2-0.9,0.9-0.9h1.6c0.7,0,0.9,0.2,0.9,0.9v26.8
			C273.9,36.8,273.7,37,273,37z"/>
	</g>
	<path class="st0" d="M19,12.8h17.9l2.6-10.3H16.4h-5.2c-5.2,0-5.2,5.2-5.2,5.2v30.5c0,0,0,5.2,5.2,5.2h5.2h12.8L31.8,33H19
		c-2.5,0-2.6-2.5-2.6-2.5v-15C16.4,12.8,19,12.8,19,12.8z"/>
	<path class="st1" d="M71.4,38.2V33V12.8V7.7c0-5.1-5.2-5.2-5.2-5.2H61H48.3l-2.6,10.3h12.8c0,0,2.6,0,2.6,2.6v15c0,0,0,2.5-2.6,2.5
		H40.6L38,43.4h23h5.2C71.4,43.4,71.4,38.2,71.4,38.2z"/>
</g>
</svg>
