<?xml version="1.0" encoding="utf-8"?>
<!-- Generator: Adobe Illustrator 24.0.0, SVG Export Plug-In . SVG Version: 6.00 Build 0)  -->
<svg version="1.1" id="Capa_1" xmlns="http://www.w3.org/2000/svg" xmlns:xlink="http://www.w3.org/1999/xlink" x="0px" y="0px"
	 viewBox="0 0 33 33" style="enable-background:new 0 0 33 33;" xml:space="preserve">
<style type="text/css">
	.st0{fill:#AEAEAE;}
</style>
<g>
	<path class="st0" d="M20.5,17.7C20.5,17.7,20.5,17.7,20.5,17.7c0,2.2-1.8,4-4,4c-2.2,0-4-1.8-4-4c0-0.6,0.1-1.2,0.4-1.7h-2.7v5.1
		c0,1.4,1.1,2.5,2.5,2.5h7.6c1.4,0,2.5-1.1,2.5-2.5l0-5.1h-2.7C20.4,16.6,20.5,17.1,20.5,17.7z"/>
	<path class="st0" d="M16.5,20.9c1.7,0,3.2-1.4,3.2-3.2c0-1.7-1.4-3.2-3.2-3.2c-1.7,0-3.2,1.4-3.2,3.2
		C13.3,19.5,14.8,20.9,16.5,20.9z"/>
	<path class="st0" d="M16.5,0C7.4,0,0,7.4,0,16.5S7.4,33,16.5,33S33,25.6,33,16.5S25.6,0,16.5,0z M23.7,21.1c0,1.9-1.5,3.4-3.4,3.4
		h-7.6c-1.9,0-3.4-1.5-3.4-3.4v-7.6c0-1.9,1.5-3.4,3.4-3.4h7.6c1.9,0,3.4,1.5,3.4,3.4V21.1z"/>
	<path class="st0" d="M20.3,11h-7.6c-1.4,0-2.5,1.1-2.5,2.5v1.7h3.2c0.2-0.2,0.4-0.4,0.6-0.6c1.7-1.4,4.2-1.1,5.5,0.6h3.2v-1.7
		C22.8,12.1,21.7,11,20.3,11z M21.5,13.5c0,0.3-0.2,0.5-0.5,0.5h-1.2c-0.3,0-0.5-0.2-0.5-0.5v-1.1c0-0.3,0.2-0.5,0.5-0.5h1.2
		c0.3,0,0.5,0.2,0.5,0.5V13.5z"/>
</g>
</svg>
