<svg xmlns="http://www.w3.org/2000/svg" viewBox="0 0 92 92">
  <defs>
    <style>
      .cls-1, .cls-2 {
        fill: none;
      }

      .cls-2 {
        stroke: #ff4545;
        stroke-linecap: round;
        stroke-width: 3px;
      }

      .cls-3, .cls-4 {
        stroke: none;
      }

      .cls-4 {
        fill: #ff4545;
      }
    </style>
  </defs>
  <g id="Group_702" data-name="Group 702" transform="translate(-228 -48)">
    <g id="Path_766" data-name="Path 766" class="cls-1" transform="translate(228 48)">
      <path class="cls-3" d="M46,0A46,46,0,1,1,0,46,46,46,0,0,1,46,0Z"/>
      <path class="cls-4" d="M 46 3 C 40.1937141418457 3 34.56269836425781 4.136497497558594 29.26338577270508 6.377914428710938 C 24.14332580566406 8.54351806640625 19.54441070556641 11.64440155029297 15.59441375732422 15.59441375732422 C 11.64440155029297 19.54441070556641 8.54351806640625 24.14332580566406 6.377914428710938 29.26338577270508 C 4.136497497558594 34.56269836425781 3 40.1937141418457 3 46 C 3 51.8062858581543 4.136497497558594 57.43730163574219 6.377914428710938 62.73661422729492 C 8.54351806640625 67.85667419433594 11.64440155029297 72.45558166503906 15.59441375732422 76.40558624267578 C 19.54441070556641 80.35559844970703 24.14332580566406 83.45648193359375 29.26338577270508 85.62208557128906 C 34.56269836425781 87.86350250244141 40.1937141418457 89 46 89 C 51.8062858581543 89 57.43730163574219 87.86350250244141 62.73661422729492 85.62208557128906 C 67.85667419433594 83.45648193359375 72.45558166503906 80.35559844970703 76.40558624267578 76.40558624267578 C 80.35559844970703 72.45558166503906 83.45648193359375 67.85667419433594 85.62208557128906 62.73661422729492 C 87.86350250244141 57.43730163574219 89 51.8062858581543 89 46 C 89 40.1937141418457 87.86350250244141 34.56269836425781 85.62208557128906 29.26338577270508 C 83.45648193359375 24.14332580566406 80.35559844970703 19.54441070556641 76.40558624267578 15.59441375732422 C 72.45558166503906 11.64440155029297 67.85667419433594 8.54351806640625 62.73661422729492 6.377914428710938 C 57.43730163574219 4.136497497558594 51.8062858581543 3 46 3 M 46 0 C 71.40509796142578 0 92 20.59490203857422 92 46 C 92 71.40509796142578 71.40509796142578 92 46 92 C 20.59490203857422 92 0 71.40509796142578 0 46 C 0 20.59490203857422 20.59490203857422 0 46 0 Z"/>
    </g>
    <line id="Line_664" data-name="Line 664" class="cls-2" x2="20" y2="20" transform="translate(264.5 84.5)"/>
    <line id="Line_665" data-name="Line 665" class="cls-2" x2="20" y2="20" transform="translate(284.5 84.5) rotate(90)"/>
  </g>
</svg>
