<?xml version="1.0" encoding="utf-8"?>
<!-- Generator: Adobe Illustrator 24.0.0, SVG Export Plug-In . SVG Version: 6.00 Build 0)  -->
<svg version="1.1" id="Capa_1" xmlns="http://www.w3.org/2000/svg" xmlns:xlink="http://www.w3.org/1999/xlink" x="0px" y="0px"
	 viewBox="0 0 245 391" style="enable-background:new 0 0 245 391;" xml:space="preserve">
<style type="text/css">
	.st0{opacity:0.3;}
	.st1{fill:#E1E1E1;}
	.st2{fill:#FFFFFF;}
	.st3{opacity:0.5;}
	.st4{fill:#ECECEC;}
	.st5{display:none;}
	.st6{display:inline;opacity:0.4;fill:#E0E0E0;enable-background:new    ;}
	.st7{fill:#F0F0F0;}
	.st8{fill:#375A64;}
	.st9{fill:#FF4F5B;}
	.st10{fill:#1A2E35;}
	.st11{fill:#FAFAFA;}
	.st12{fill:#FFBF9D;}
	.st13{fill:#FF9A6C;}
	.st14{opacity:0.78;}
	.st15{opacity:0.6;}
	.st16{opacity:0.2;}
</style>
<g class="st0">
	<g>
		<g>
			<g>
				<g>
					<g>
						<path class="st1" d="M145.5,201.7l-131.8-41c-3.4-1.1-5.3-4.7-4.2-8l25.3-81.4c1.1-3.4,4.7-5.3,8-4.2l131.8,41
							c3.4,1.1,5.3,4.7,4.2,8l-25.3,81.4C152.5,200.8,148.9,202.7,145.5,201.7z"/>
					</g>
				</g>
				<g>
					<g>
						<path class="st2" d="M152.8,125.1c-1.7,5.5-7.5,8.6-13,6.8c-5.5-1.7-8.6-7.5-6.8-13c1.7-5.5,7.5-8.6,13-6.8
							C151.4,113.7,154.5,119.6,152.8,125.1z"/>
					</g>
				</g>
				<g>
					<g>
						<path class="st2" d="M153.5,136.5c-0.6-0.1-1.3-0.2-1.9-0.4c-5.7-1.8-8.9-7.9-7.1-13.6c1.8-5.7,7.9-8.9,13.6-7.1
							c5.7,1.8,8.9,7.9,7.1,13.6c-0.9,2.8-2.7,5-5.3,6.4C157.9,136.3,155.7,136.7,153.5,136.5z M156.1,115.8
							c-4.7-0.6-9.3,2.3-10.8,6.9c-1.6,5.3,1.3,10.9,6.6,12.5c2.5,0.8,5.3,0.5,7.6-0.7c2.4-1.2,4.1-3.3,4.9-5.9l0,0
							c1.6-5.3-1.3-10.9-6.6-12.5C157.2,116,156.7,115.9,156.1,115.8z"/>
					</g>
				</g>
				<g>
					<g>
						<path class="st2" d="M30.8,129l-2.5,8l-0.8-0.3l2.3-7.3l-1.9-0.6l0.2-0.7L30.8,129z"/>
					</g>
					<g>
						<path class="st2" d="M36.8,138.8l-0.2,0.7l-5.6-1.7l0.2-0.6l4.3-2.2c1.2-0.6,1.5-1.1,1.7-1.6c0.3-0.9-0.2-1.7-1.4-2.1
							c-0.9-0.3-1.7-0.2-2.5,0.2l-0.4-0.7c0.8-0.5,2-0.6,3.2-0.3c1.6,0.5,2.4,1.6,2,3c-0.2,0.8-0.7,1.4-2.1,2.1l-3.6,1.8L36.8,138.8
							z"/>
					</g>
					<g>
						<path class="st2" d="M45.6,140l-1.6-0.5l-0.7,2.1l-0.8-0.3l0.7-2.1l-4.5-1.4l0.2-0.6l5.9-4l0.9,0.3l-5.7,3.9l3.5,1.1l0.6-1.9
							l0.8,0.2l-0.6,1.9l1.6,0.5L45.6,140z"/>
					</g>
					<g>
						<path class="st2" d="M57.9,143.8l-1.6-0.5l-0.7,2.1l-0.8-0.3l0.7-2.1l-4.5-1.4l0.2-0.6l5.9-4l0.9,0.3l-5.7,3.9l3.5,1.1
							l0.6-1.9l0.8,0.2l-0.6,1.9l1.6,0.5L57.9,143.8z"/>
					</g>
					<g>
						<path class="st2" d="M65,145.8c-0.4,1.4-1.7,2.1-3.7,1.5c-1.2-0.4-2.1-1.1-2.5-1.9l0.6-0.5c0.3,0.7,1.1,1.4,2.2,1.7
							c1.4,0.4,2.3,0,2.6-1c0.3-1-0.1-1.9-2.2-2.5l-1.7-0.5l1.7-3.9l4.4,1.4l-0.2,0.7l-3.7-1.1l-1.1,2.5l1,0.3
							C64.8,143.1,65.4,144.4,65,145.8z"/>
					</g>
					<g>
						<path class="st2" d="M72.9,148.2c-0.5,1.5-1.9,2.1-3.5,1.6c-2.1-0.7-2.8-2.5-2-5c0.8-2.7,2.8-3.7,4.9-3c0.7,0.2,1.4,0.6,1.8,1
							l-0.5,0.6c-0.3-0.4-0.8-0.7-1.4-0.9c-1.7-0.5-3.2,0.2-3.9,2.4c-0.1,0.2-0.1,0.4-0.2,0.7c0.7-0.8,1.8-1,2.9-0.6
							C72.5,145.5,73.3,146.7,72.9,148.2z M72.1,148c0.3-1.1-0.2-2-1.5-2.4c-1.2-0.4-2.3,0.1-2.6,1.1c-0.3,0.9,0.2,1.9,1.6,2.4
							C70.7,149.5,71.7,149,72.1,148z"/>
					</g>
					<g>
						<path class="st2" d="M83.8,151.7c-0.4,1.3-1.7,2.1-3.6,1.5c-1.2-0.4-2.1-1.1-2.6-1.9l0.6-0.5c0.3,0.7,1.2,1.4,2.2,1.7
							c1.3,0.4,2.2,0,2.6-1c0.3-1-0.2-1.8-1.7-2.3l-0.6-0.2l0.2-0.6l3.1-2.1l-4.1-1.3l0.2-0.7l5.1,1.6l-0.2,0.6l-3.1,2.1
							C83.6,149.2,84.2,150.4,83.8,151.7z"/>
					</g>
					<g>
						<path class="st2" d="M91.8,154.1c-0.5,1.5-1.9,2.1-3.5,1.6c-2.1-0.7-2.8-2.5-2-5c0.8-2.7,2.8-3.7,4.9-3c0.7,0.2,1.4,0.6,1.8,1
							l-0.5,0.6c-0.3-0.4-0.8-0.7-1.4-0.9c-1.7-0.5-3.2,0.2-3.9,2.4c-0.1,0.2-0.1,0.4-0.2,0.7c0.7-0.8,1.8-1,2.9-0.6
							C91.5,151.4,92.3,152.6,91.8,154.1z M91,153.9c0.3-1.1-0.2-2-1.5-2.4c-1.2-0.4-2.3,0.1-2.6,1.1c-0.3,0.9,0.2,1.9,1.6,2.4
							C89.7,155.4,90.7,154.9,91,153.9z"/>
					</g>
					<g>
						<path class="st2" d="M101,150.8l-0.2,0.6l-5.7,6.4l-0.9-0.3l5.6-6.2l-4.1-1.3l-0.5,1.5l-0.8-0.3l0.7-2.2L101,150.8z"/>
					</g>
					<g>
						<path class="st2" d="M112.4,154.3l-0.2,0.6l-5.7,6.4l-0.9-0.3l5.6-6.2l-4.1-1.3l-0.5,1.5l-0.8-0.3l0.7-2.2L112.4,154.3z"/>
					</g>
					<g>
						<path class="st2" d="M118.5,162.6c-0.4,1.4-1.9,1.9-3.8,1.3c-1.9-0.6-2.8-1.8-2.4-3.3c0.3-1,1.1-1.5,2.2-1.5
							c-0.7-0.6-1-1.3-0.7-2.2c0.4-1.3,1.8-1.8,3.5-1.2c1.7,0.5,2.6,1.7,2.2,3c-0.3,0.8-0.9,1.3-1.8,1.4
							C118.4,160.7,118.8,161.6,118.5,162.6z M117.6,162.3c0.3-1-0.3-1.9-1.8-2.3c-1.4-0.4-2.4-0.1-2.7,0.9c-0.3,1,0.3,1.9,1.7,2.3
							C116.3,163.6,117.3,163.3,117.6,162.3z M116.1,159.3c1.2,0.4,2.2,0.1,2.4-0.8c0.3-0.9-0.3-1.7-1.5-2.1
							c-1.2-0.4-2.1-0.1-2.4,0.8C114.3,158.2,114.8,158.9,116.1,159.3z"/>
					</g>
					<g>
						<path class="st2" d="M126.8,163.1c-0.8,2.7-2.8,3.7-4.9,3c-0.7-0.2-1.4-0.6-1.8-1l0.5-0.6c0.3,0.4,0.8,0.7,1.4,0.9
							c1.7,0.5,3.2-0.2,3.9-2.4c0.1-0.2,0.1-0.4,0.2-0.7c-0.7,0.8-1.8,1-2.9,0.6c-1.6-0.5-2.4-1.8-1.9-3.2c0.5-1.5,1.9-2.1,3.5-1.6
							C126.9,158.8,127.6,160.6,126.8,163.1z M126.2,161.2c0.3-0.9-0.2-1.9-1.6-2.4c-1.2-0.4-2.2,0.1-2.5,1.1
							c-0.3,1.1,0.2,2,1.5,2.4C124.8,162.7,125.8,162.2,126.2,161.2z"/>
					</g>
					<g>
						<path class="st2" d="M136.1,161.7l-2.5,8l-0.8-0.3l2.3-7.3l-1.9-0.6l0.2-0.7L136.1,161.7z"/>
					</g>
					<g>
						<path class="st2" d="M142.1,171.6l-0.2,0.7l-5.6-1.7l0.2-0.6l4.3-2.2c1.2-0.6,1.5-1.1,1.7-1.6c0.3-0.9-0.2-1.7-1.4-2.1
							c-0.9-0.3-1.7-0.2-2.5,0.2l-0.4-0.7c0.8-0.5,2-0.6,3.2-0.3c1.6,0.5,2.4,1.6,2,3c-0.2,0.8-0.7,1.4-2.1,2.1l-3.6,1.8
							L142.1,171.6z"/>
					</g>
					<g>
						<path class="st2" d="M149.8,172.2c-0.4,1.3-1.7,2.1-3.6,1.5c-1.2-0.4-2.1-1.1-2.6-1.9l0.6-0.5c0.3,0.7,1.2,1.4,2.2,1.7
							c1.3,0.4,2.2,0,2.6-1c0.3-1-0.2-1.8-1.7-2.3l-0.6-0.2l0.2-0.6l3.1-2.1l-4.1-1.3l0.2-0.7l5.1,1.6L151,167l-3.1,2.1
							C149.6,169.8,150.2,170.9,149.8,172.2z"/>
					</g>
				</g>
				<g>
					<g>
						
							<rect x="115.4" y="139.5" transform="matrix(0.2972 -0.9548 0.9548 0.2972 -82.7887 233.5785)" class="st2" width="3.6" height="67.1"/>
					</g>
				</g>
				<g>
					<g>
						
							<rect x="128.9" y="167.6" transform="matrix(0.2972 -0.9548 0.9548 0.2972 -84.5975 254.7045)" class="st2" width="3.6" height="34.4"/>
					</g>
				</g>
				<g class="st3">
					<g>
						<path class="st4" d="M50.2,127.4L32.8,122c-2.6-0.8-4.1-3.6-3.3-6.2l3.3-10.6c0.8-2.6,3.6-4.1,6.2-3.3l17.4,5.4
							c2.6,0.8,4.1,3.6,3.3,6.2l-3.3,10.6C55.6,126.8,52.9,128.2,50.2,127.4z"/>
					</g>
				</g>
				<g>
					<g>
						<path class="st1" d="M29.8,115l0.4-1.3l13.8,4.3c1.6,0.5,3.3-0.4,3.8-2c0.5-1.6-0.4-3.3-2-3.8L32,107.9l0.4-1.3l13.8,4.3
							c2.3,0.7,3.6,3.2,2.9,5.5c-0.7,2.3-3.2,3.6-5.5,2.9L29.8,115z"/>
					</g>
				</g>
				<g>
					<g>
						
							<rect x="52.6" y="112.7" transform="matrix(0.2981 -0.9545 0.9545 0.2981 -74.9463 133.4515)" class="st1" width="1.3" height="9.9"/>
					</g>
				</g>
				<g>
					<g>
						
							<rect x="40.1" y="95.5" transform="matrix(0.9548 0.2973 -0.2973 0.9548 32.7758 -18.2252)" class="st2" width="72.4" height="6.2"/>
					</g>
				</g>
			</g>
		</g>
	</g>
</g>
<g id="Background_2">
</g>
<g id="Background_1" class="st5">
	<path class="st6" d="M-150.2,113.2c11.2,88.2,55.3,151,184.5,175.1c71.9,13.4,203-29.4,194.3-107.7
		c-9.6-86.9-100.1-50.5-174.8-78.5C9.2,85.4-14.6-5.8-87.1-0.4C-144.4,3.9-156.2,66-150.2,113.2z"/>
</g>
<g id="Floor">
</g>
<g id="Plant">
</g>
<g id="Device">
</g>
<g id="Character">
	<g>
		<g>
			<g>
				<g>
					<g>
						<g>
							<g>
								<g>
									<path class="st7" d="M211.4,277.3l-79.6-0.4c-9.5-0.1-17.3-7.8-17.3-17.4l0.9-199.6c0-9.6,7.8-17.3,17.4-17.3l79.6,0.4
										c9.5,0.1,17.3,7.8,17.3,17.4l-0.9,199.7C228.8,269.7,221,277.4,211.4,277.3z"/>
								</g>
							</g>
							<g>
								<g>
									<path class="st2" d="M212.3,49.9l-15.4-0.1c-2.1,0-3.7,1.7-3.7,3.9v2.8c0,2.2-1.7,3.9-3.7,3.9l-30.2-0.1
										c-2.1,0-3.7-1.8-3.7-3.9v-2.8c0-2.2-1.7-3.9-3.7-3.9h-5.5l-13.5-0.1c-6.7,0-12.2,5.4-12.2,12.1l-0.8,194.9
										c0,6.7,5.4,12.2,12.1,12.2l79.5,0.4c6.7,0,12.2-5.4,12.2-12.1l0.8-194.9C224.4,55.4,219,50,212.3,49.9z"/>
								</g>
							</g>
						</g>
					</g>
				</g>
			</g>
			<g>
				<polygon class="st8" points="233.1,111.7 231.1,115.4 227.4,117.4 231.1,119.5 233.1,123.2 235.2,119.5 238.9,117.4 
					235.2,115.4 				"/>
			</g>
			<g>
				<g>
					<polygon class="st8" points="17.2,20 15.2,23.7 11.5,25.7 15.2,27.8 17.2,31.5 19.3,27.8 23,25.7 19.3,23.7 					"/>
				</g>
				<g>
					<polygon class="st8" points="32,35.8 30.8,38 28.5,39.3 30.8,40.5 32,42.8 33.3,40.5 35.6,39.3 33.3,38 					"/>
				</g>
			</g>
			<g>
				<polygon class="st8" points="222,90.3 220.7,92.6 218.5,93.8 220.7,95.1 222,97.4 223.2,95.1 225.5,93.8 223.2,92.6 				"/>
			</g>
		</g>
	</g>
</g>
<g>
	<g>
		<g>
			<g>
				<g>
					<path class="st9" d="M136.4,316.3l103.8-109.8c1.1-1.2,1-3-0.1-4.1L171.9,138c-1.2-1.1-3-1-4.1,0.1L64,248
						c-1.1,1.2-1,3,0.1,4.1l68.1,64.4C133.4,317.5,135.3,317.5,136.4,316.3z"/>
				</g>
			</g>
			<g class="st0">
				<g>
					<path d="M136.4,316.3l103.8-109.8c1.1-1.2,1-3-0.1-4.1L171.9,138c-1.2-1.1-3-1-4.1,0.1L64,248c-1.1,1.2-1,3,0.1,4.1l68.1,64.4
						C133.4,317.5,135.3,317.5,136.4,316.3z"/>
				</g>
			</g>
			<g>
				<g>
					<g>
						<path class="st9" d="M64.8,247.1l102.3-108.2c1.5-1.6,4-1.7,5.6-0.2l19.4,18.3c0.4,0.4,0.6,0.9,0.5,1.4
							c-1.9,10.8-9.7,20.5-18.9,26.9c-11.2,7.8-24.4,11.8-36.9,17c-12.6,5.2-25.2,12-32.7,23.3c-7.1,10.7-8.8,23.9-12.4,36.2
							c-1,3.3-2.2,6.6-3.7,9.8c-0.5,1-1.8,1.2-2.5,0.5l-20.5-19.4C63.3,251.3,63.3,248.7,64.8,247.1z"/>
					</g>
				</g>
			</g>
			<g>
				<g>
					<path class="st2" d="M117.2,268.7l-0.9,1l1.3,1.2l-0.5,0.5l-1.3-1.2l-2.6,2.8l-0.4-0.3L112,267l0.5-0.6l0.8,5.5l2-2.1l-1.1-1.1
						l0.5-0.5l1.1,1.1l0.9-1L117.2,268.7z"/>
				</g>
				<g>
					<path class="st2" d="M120.5,265c0.8,0.8,0.9,2-0.2,3.2c-0.7,0.7-1.6,1.2-2.3,1.2l-0.2-0.6c0.6,0,1.4-0.3,2-1
						c0.8-0.8,0.8-1.6,0.2-2.2c-0.6-0.6-1.4-0.5-2.2,0.4l-0.3,0.3l-0.4-0.4l-0.4-3l-2.4,2.5l-0.4-0.4l3-3.1l0.4,0.3l0.4,3
						C118.7,264.3,119.7,264.3,120.5,265z"/>
				</g>
				<g>
					<path class="st2" d="M124.2,261c0.8,0.8,0.9,2-0.2,3.2c-0.7,0.7-1.6,1.1-2.3,1.2l-0.2-0.6c0.6,0,1.4-0.3,2-1
						c0.8-0.8,0.8-1.7,0.2-2.2c-0.6-0.6-1.4-0.6-2.6,0.7l-1,1l-2.2-2.6l2.6-2.7l0.4,0.4l-2.1,2.2l1.4,1.7l0.6-0.6
						C122.2,260.2,123.4,260.2,124.2,261z"/>
				</g>
				<g>
					<path class="st2" d="M128.3,256.7c0.9,0.9,0.8,2.2-0.1,3.1c-1.2,1.3-2.8,1.1-4.4-0.3c-1.7-1.6-1.7-3.3-0.4-4.6
						c0.4-0.4,0.9-0.8,1.4-0.9l0.2,0.6c-0.4,0.1-0.8,0.4-1.1,0.7c-1,1.1-1,2.4,0.4,3.6c0.1,0.1,0.3,0.2,0.4,0.4
						c-0.3-0.8-0.1-1.6,0.6-2.3C126.2,256,127.4,255.9,128.3,256.7z M127.9,257.2c-0.6-0.6-1.5-0.5-2.2,0.2
						c-0.7,0.7-0.7,1.7-0.1,2.3c0.5,0.5,1.5,0.6,2.3-0.3C128.4,258.7,128.5,257.8,127.9,257.2z"/>
				</g>
				<g>
					<path class="st2" d="M139.8,247.5l-2.7-0.3l0.4,2.6l-0.5,0.6l-0.5-3.3l-3.1-0.3l0.5-0.6l2.5,0.3l-0.4-2.5l0.5-0.5l0.5,3.1
						l3.3,0.3L139.8,247.5z"/>
				</g>
				<g>
					<path class="st2" d="M143.4,243.8l-2.7-0.3l0.4,2.6l-0.5,0.6l-0.5-3.3l-3.1-0.3l0.5-0.6l2.5,0.3l-0.4-2.5l0.5-0.5l0.5,3.1
						l3.3,0.3L143.4,243.8z"/>
				</g>
				<g>
					<path class="st2" d="M147,240l-2.7-0.3l0.4,2.6l-0.5,0.6l-0.5-3.3l-3.1-0.3l0.5-0.6l2.5,0.3l-0.4-2.5l0.5-0.5l0.5,3.1l3.3,0.3
						L147,240z"/>
				</g>
				<g>
					<path class="st2" d="M150.5,236.3l-2.7-0.3l0.4,2.6l-0.5,0.6l-0.5-3.3l-3.1-0.3l0.5-0.6l2.5,0.3l-0.4-2.5l0.5-0.5l0.5,3.1
						l3.3,0.3L150.5,236.3z"/>
				</g>
				<g>
					<path class="st2" d="M162.8,223.4l-2.7-0.3l0.4,2.6l-0.5,0.6l-0.5-3.3l-3.1-0.3l0.5-0.6l2.5,0.3l-0.4-2.5l0.5-0.5l0.5,3.1
						l3.3,0.3L162.8,223.4z"/>
				</g>
				<g>
					<path class="st2" d="M166.4,219.7l-2.7-0.3l0.4,2.6l-0.5,0.6l-0.5-3.3L160,219l0.5-0.6l2.5,0.3l-0.4-2.5l0.5-0.5l0.5,3.1
						l3.3,0.3L166.4,219.7z"/>
				</g>
				<g>
					<path class="st2" d="M169.9,215.9l-2.7-0.3l0.4,2.6l-0.5,0.6l-0.5-3.3l-3.1-0.3l0.5-0.6l2.5,0.3l-0.4-2.5l0.5-0.5l0.5,3.1
						l3.3,0.3L169.9,215.9z"/>
				</g>
				<g>
					<path class="st2" d="M173.5,212.2l-2.7-0.3l0.4,2.6l-0.5,0.6l-0.5-3.3l-3.1-0.3l0.5-0.6l2.5,0.3l-0.4-2.5l0.5-0.5l0.5,3.1
						l3.3,0.3L173.5,212.2z"/>
				</g>
				<g>
					<path class="st2" d="M179.6,196l4.9,4.7l-0.5,0.5l-4.4-4.2l-1.1,1.2l-0.4-0.4L179.6,196z"/>
				</g>
				<g>
					<path class="st2" d="M187.3,194.9c0.8,0.8,0.9,2-0.2,3.2c-0.7,0.7-1.6,1.2-2.3,1.2l-0.2-0.6c0.6,0,1.4-0.3,2-1
						c0.8-0.8,0.8-1.6,0.2-2.2c-0.6-0.6-1.4-0.5-2.2,0.4l-0.3,0.3l-0.4-0.4l-0.4-3l-2.4,2.5l-0.4-0.4l3-3.1l0.4,0.3l0.4,3
						C185.5,194.1,186.5,194.1,187.3,194.9z"/>
				</g>
				<g>
					<path class="st2" d="M192,190.1l-0.9,1l1.3,1.2l-0.5,0.5l-1.3-1.2l-2.6,2.8l-0.4-0.3l-0.8-5.7l0.5-0.6l0.8,5.5l2-2.1l-1.1-1.1
						l0.5-0.5l1.1,1.1l0.9-1L192,190.1z"/>
				</g>
				<g>
					<path class="st2" d="M196.5,187.1l0.4,0.4l-3.3,3.4l-0.4-0.3l-0.1-3.9c0-1.1-0.2-1.5-0.6-1.8c-0.6-0.5-1.3-0.5-2,0.3
						c-0.5,0.6-0.8,1.2-0.7,1.9l-0.6,0.1c-0.1-0.8,0.2-1.7,1-2.4c0.9-1,2-1.1,2.9-0.4c0.5,0.4,0.7,1,0.8,2.3l0.1,3.2L196.5,187.1z"
						/>
				</g>
			</g>
			<g>
				<g>
					<path class="st2" d="M131.7,291.7c-1.4-1.5-1.4-3.1-0.3-4.2c1.1-1.1,2.7-1,4.2,0.4c1.4,1.5,1.4,3.1,0.3,4.2
						C134.8,293.2,133.2,293.1,131.7,291.7z M134.5,289c-1-1-1.7-1.1-2.3-0.6c-0.5,0.5-0.5,1.3,0.5,2.3c1,1,1.8,1.1,2.3,0.6
						C135.5,290.7,135.5,290,134.5,289z"/>
				</g>
				<g>
					<path class="st2" d="M140.5,284.7c0.9,0.9,0.7,2.2-0.2,3.1c-1.2,1.2-2.7,1.2-4.1-0.3c-1.5-1.5-1.4-3.3-0.1-4.6
						c0.5-0.5,1-0.8,1.5-0.9l0.4,1.1c-0.4,0.1-0.8,0.3-1.1,0.6c-0.7,0.7-0.8,1.6,0,2.5c0-0.5,0.3-1,0.7-1.5
						C138.5,284,139.7,283.9,140.5,284.7z M139.6,285.7c-0.4-0.4-0.9-0.4-1.4,0.1c-0.5,0.4-0.5,1-0.1,1.4c0.4,0.4,0.9,0.4,1.4-0.1
						C139.9,286.7,140,286.1,139.6,285.7z"/>
				</g>
				<g>
					<path class="st2" d="M138.7,278.7l0.9-0.9l3.7,8l-0.9,0.9L138.7,278.7z"/>
				</g>
				<g>
					<path class="st2" d="M147.3,279.2l0.8,0.8l-3.4,3.3l-0.7-0.7l0.1-3.3c0-0.8-0.1-1.1-0.3-1.3c-0.3-0.4-0.8-0.3-1.3,0.1
						c-0.4,0.4-0.6,0.8-0.5,1.3l-1.2,0.2c-0.1-0.8,0.2-1.8,1-2.5c1-1,2.1-1.1,2.9-0.3c0.4,0.4,0.7,0.9,0.6,2.1l-0.1,2L147.3,279.2z"
						/>
				</g>
				<g>
					<path class="st2" d="M151.7,274.8l-0.7,0.7l0.9,0.9l-1,1l-0.9-0.9l-2.4,2.3l-0.7-0.7l-0.7-4.9l1.1-1.1l0.7,4.6l1.2-1.2
						l-0.8-0.8l1-0.9l0.8,0.8l0.7-0.7L151.7,274.8z"/>
				</g>
			</g>
			<g>
				<g>
					<g>
						<path class="st9" d="M112.1,237.4c-2.5-3.9-1.5-9.1,1.9-12.3c1.1-1,2.3-1.8,3.6-2.3c3.3-1.4,7.6-0.4,9.3,2.7
							c1.4,2.5,0.8,5.7-0.1,8.4c-1,2.9-2.7,5.8-5.5,6.9c-2.7,1.1-6,0.1-8-2C112.8,238.3,112.4,237.9,112.1,237.4z"/>
					</g>
				</g>
			</g>
			<g>
				<g>
					<g>
						
							<rect x="156.7" y="218.7" transform="matrix(0.6636 -0.7481 0.7481 0.6636 -100.9551 216.6821)" class="st2" width="67.4" height="3.7"/>
					</g>
				</g>
				<g>
					<g>
						
							<rect x="189.4" y="211.3" transform="matrix(0.6636 -0.7481 0.7481 0.6636 -89.8825 226.3539)" class="st2" width="34.6" height="3.7"/>
					</g>
				</g>
			</g>
		</g>
	</g>
	<g>
		<g>
			<g>
				<path class="st9" d="M39.3,250.7v118.1c0,6.5,5.2,11.7,11.7,11.7h171.5c6.5,0,11.7-5.2,11.7-11.7V250.7
					c0-6.5-5.2-11.7-11.7-11.7H51C44.5,239,39.3,244.3,39.3,250.7z"/>
			</g>
			<g>
				<g>
					<path class="st10" d="M39.3,250.7c0,0,0-0.1,0-0.4c0-0.3,0-0.7,0.1-1.3c0.2-1.1,0.6-2.7,1.7-4.6c0.6-0.9,1.4-1.9,2.4-2.7
						c1-0.8,2.3-1.6,3.8-2.1c0.4-0.1,0.8-0.2,1.2-0.3c0.4-0.1,0.8-0.1,1.2-0.2c0.4,0,0.9,0,1.3-0.1c0.4,0,0.9,0,1.4,0
						c1.8,0,3.8,0,5.8,0c16.5,0,40.4,0,69.9,0.1c14.8,0,30.9,0,48.3,0c8.7,0,17.7,0,26.9,0c4.6,0,9.3,0,14.1,0c1.2,0,2.4,0,3.6,0
						c1.2,0,2.4,0,3.6,0.2c1.2,0.2,2.3,0.6,3.4,1.2c1,0.6,2,1.3,2.8,2.2c0.9,0.9,1.5,1.9,2.1,3c0.5,1.1,0.9,2.3,1,3.5
						c0.2,1.2,0.1,2.4,0.1,3.7c0,1.2,0,2.5,0,3.7c0,5,0,10.1,0,15.2c0,10.2,0,20.7,0,31.3c0,21.2,0,43.2,0,65.8c0,2.8-1,5.5-2.9,7.6
						c-1.8,2.1-4.4,3.5-7.1,3.8c-1.4,0.2-2.8,0.1-4.1,0.1c-1.4,0-2.8,0-4.2,0c-2.8,0-5.5,0-8.3,0c-11,0-21.8,0-32.4,0
						c-21.2,0-41.7,0-61.3,0c-19.5,0-38.1,0-55.4,0c-2.2,0-4.3,0-6.5,0c-1.1,0-2.1,0-3.1-0.2c-1-0.2-2-0.5-2.9-1
						c-0.5-0.2-0.9-0.5-1.3-0.8c-0.4-0.3-0.8-0.6-1.2-1c-0.8-0.7-1.4-1.5-2-2.3c-1.1-1.7-1.8-3.7-1.9-5.7c-0.1-8,0-15.8,0-23.2
						c0-29.5,0-53.4-0.1-69.9c0-8.3,0-14.7,0-19c0-2.2,0-3.8,0-4.9C39.3,251.3,39.3,250.7,39.3,250.7s0,0.6,0,1.7c0,1.1,0,2.8,0,4.9
						c0,4.4,0,10.8,0,19c0,16.5,0,40.4-0.1,69.9c0,7.4,0,15.1,0,23.2c0.1,2,0.8,4.1,1.9,5.8c0.6,0.9,1.2,1.7,2,2.4
						c0.4,0.4,0.8,0.7,1.2,1c0.5,0.3,0.9,0.6,1.4,0.8c0.9,0.5,2,0.8,3,1c1.1,0.2,2.1,0.2,3.2,0.2c2.1,0,4.3,0,6.5,0
						c17.4,0,35.9,0,55.4,0c19.5,0,40,0,61.3,0c10.6,0,21.4,0,32.4,0c2.7,0,5.5,0,8.3,0c1.4,0,2.8,0,4.2,0c1.4,0,2.8,0.1,4.2-0.1
						c2.8-0.4,5.5-1.8,7.3-3.9c1.9-2.1,2.9-5,2.9-7.8c0-22.5,0-44.5,0-65.8c0-10.6,0-21.1,0-31.3c0-5.1,0-10.2,0-15.2
						c0-1.2,0-2.5,0-3.7c0-1.2,0-2.5-0.1-3.7c-0.1-1.2-0.5-2.5-1.1-3.6c-0.5-1.1-1.2-2.2-2.1-3c-0.9-0.9-1.9-1.6-2.9-2.2
						c-1.1-0.6-2.3-1-3.5-1.2l-0.9-0.1l-0.9-0.1c-0.6,0-1.2,0-1.8,0c-1.2,0-2.4,0-3.6,0c-4.8,0-9.4,0-14.1,0c-9.2,0-18.2,0-26.9,0
						c-17.4,0-33.5,0-48.3,0c-29.5,0-53.4,0-69.9,0.1c-2.1,0-4,0-5.8,0c-0.5,0-0.9,0-1.4,0c-0.4,0-0.9,0-1.3,0.1
						c-0.4,0.1-0.8,0.1-1.2,0.2c-0.4,0.1-0.8,0.2-1.2,0.3c-1.5,0.5-2.8,1.3-3.8,2.1c-1,0.9-1.8,1.8-2.4,2.7
						c-1.2,1.9-1.5,3.5-1.7,4.6c-0.1,0.5-0.1,1-0.1,1.3C39.3,250.6,39.3,250.7,39.3,250.7z"/>
				</g>
			</g>
		</g>
		<g>
			<g>
				<g>
					<path class="st10" d="M46.1,247.7c0-0.1-0.9-0.2-2-0.2c-1.1,0-2,0.1-2,0.2s0.9,0.2,2,0.2C45.2,247.9,46.1,247.8,46.1,247.7z"/>
				</g>
			</g>
			<g>
				<g>
					<path class="st10" d="M62.5,247.7c0-0.1-1.8-0.2-4.1-0.2c-2.3,0-4.1,0.1-4.1,0.2s1.8,0.2,4.1,0.2
						C60.7,247.9,62.5,247.8,62.5,247.7z"/>
				</g>
			</g>
			<g>
				<g>
					<path class="st10" d="M79,247.7c0-0.1-1.8-0.2-4.1-0.2c-2.3,0-4.1,0.1-4.1,0.2s1.8,0.2,4.1,0.2C77.1,247.9,79,247.8,79,247.7z"
						/>
				</g>
			</g>
			<g>
				<g>
					<path class="st10" d="M95.4,247.7c0-0.1-1.8-0.2-4.1-0.2c-2.3,0-4.1,0.1-4.1,0.2s1.8,0.2,4.1,0.2
						C93.5,247.9,95.4,247.8,95.4,247.7z"/>
				</g>
			</g>
			<g>
				<g>
					<path class="st10" d="M111.8,247.7c0-0.1-1.8-0.2-4.1-0.2c-2.3,0-4.1,0.1-4.1,0.2s1.8,0.2,4.1,0.2
						C110,247.9,111.8,247.8,111.8,247.7z"/>
				</g>
			</g>
			<g>
				<g>
					<path class="st10" d="M128.2,247.7c0-0.1-1.8-0.2-4.1-0.2c-2.3,0-4.1,0.1-4.1,0.2s1.8,0.2,4.1,0.2
						C126.4,247.9,128.2,247.8,128.2,247.7z"/>
				</g>
			</g>
			<g>
				<g>
					<path class="st10" d="M144.6,247.7c0-0.1-1.8-0.2-4.1-0.2c-2.3,0-4.1,0.1-4.1,0.2s1.8,0.2,4.1,0.2
						C142.8,247.9,144.6,247.8,144.6,247.7z"/>
				</g>
			</g>
			<g>
				<g>
					<path class="st10" d="M161.1,247.7c0-0.1-1.8-0.2-4.1-0.2c-2.3,0-4.1,0.1-4.1,0.2s1.8,0.2,4.1,0.2
						C159.2,247.9,161.1,247.8,161.1,247.7z"/>
				</g>
			</g>
			<g>
				<g>
					<path class="st10" d="M177.5,247.7c0-0.1-1.8-0.2-4.1-0.2c-2.3,0-4.1,0.1-4.1,0.2s1.8,0.2,4.1,0.2
						C175.6,247.9,177.5,247.8,177.5,247.7z"/>
				</g>
			</g>
			<g>
				<g>
					<path class="st10" d="M193.9,247.7c0-0.1-1.8-0.2-4.1-0.2c-2.3,0-4.1,0.1-4.1,0.2s1.8,0.2,4.1,0.2
						C192.1,247.9,193.9,247.8,193.9,247.7z"/>
				</g>
			</g>
			<g>
				<g>
					<path class="st10" d="M210.3,247.7c0-0.1-1.8-0.2-4.1-0.2c-2.3,0-4.1,0.1-4.1,0.2s1.8,0.2,4.1,0.2
						C208.5,247.9,210.3,247.8,210.3,247.7z"/>
				</g>
			</g>
			<g>
				<g>
					<path class="st10" d="M222.6,251.8c0.1,0,0.2-1.8,0.2-4c-0.3-0.3-0.1-0.1-0.2-0.2h0h0h0h0h0l-0.1,0l-0.1,0l-0.2,0
						c-0.1,0-0.3,0-0.4,0c-0.3,0-0.5,0-0.8,0c-0.4,0-0.9,0-1.3,0c-0.7,0-1.2,0.1-1.2,0.1s0.5,0.1,1.2,0.1c0.4,0,0.8,0,1.3,0
						c0.2,0,0.5,0,0.8,0c0.1,0,0.3,0,0.4,0l0.2,0l0.1,0h0.1h0h0h0h0h0c-0.1-0.1,0.2,0.2-0.2-0.2C222.4,250,222.5,251.8,222.6,251.8z
						"/>
				</g>
			</g>
			<g>
				<g>
					<path class="st10" d="M222.6,266.8c0.1,0,0.2-1.7,0.2-3.8c0-2.1-0.1-3.8-0.2-3.8c-0.1,0-0.2,1.7-0.2,3.8
						C222.4,265.1,222.5,266.8,222.6,266.8z"/>
				</g>
			</g>
			<g>
				<g>
					<path class="st10" d="M222.6,281.9c0.1,0,0.2-1.7,0.2-3.8c0-2.1-0.1-3.8-0.2-3.8c-0.1,0-0.2,1.7-0.2,3.8
						C222.4,280.2,222.5,281.9,222.6,281.9z"/>
				</g>
			</g>
			<g>
				<g>
					<path class="st10" d="M222.6,296.9c0.1,0,0.2-1.7,0.2-3.8c0-2.1-0.1-3.8-0.2-3.8c-0.1,0-0.2,1.7-0.2,3.8
						C222.4,295.2,222.5,296.9,222.6,296.9z"/>
				</g>
			</g>
			<g>
				<g>
					<path class="st10" d="M222.6,311.9c0.1,0,0.2-1.7,0.2-3.8c0-2.1-0.1-3.8-0.2-3.8c-0.1,0-0.2,1.7-0.2,3.8
						C222.4,310.3,222.5,311.9,222.6,311.9z"/>
				</g>
			</g>
			<g>
				<g>
					<path class="st10" d="M222.6,327c0.1,0,0.2-1.7,0.2-3.8c0-2.1-0.1-3.8-0.2-3.8c-0.1,0-0.2,1.7-0.2,3.8
						C222.4,325.3,222.5,327,222.6,327z"/>
				</g>
			</g>
			<g>
				<g>
					<path class="st10" d="M222.6,342c0.1,0,0.2-1.7,0.2-3.8c0-2.1-0.1-3.8-0.2-3.8c-0.1,0-0.2,1.7-0.2,3.8
						C222.4,340.4,222.5,342,222.6,342z"/>
				</g>
			</g>
			<g>
				<g>
					<path class="st10" d="M222.6,357.1c0.1,0,0.2-1.7,0.2-3.8c0-2.1-0.1-3.8-0.2-3.8c-0.1,0-0.2,1.7-0.2,3.8
						C222.4,355.4,222.5,357.1,222.6,357.1z"/>
				</g>
			</g>
			<g>
				<g>
					<path class="st10" d="M218.5,368.6c0,0.1,1.8,0.2,4,0.2c0.3-0.3,0.1-0.1,0.2-0.2v0v0v0v0l0,0v-0.1l0-0.1l0-0.2
						c0-0.1,0-0.3,0-0.4c0-0.3,0-0.5,0-0.8c0-0.4,0-0.9,0-1.3c0-0.7-0.1-1.2-0.1-1.2c0,0-0.1,0.5-0.1,1.2c0,0.4,0,0.8,0,1.3
						c0,0.2,0,0.5,0,0.8c0,0.1,0,0.3,0,0.4l0,0.2l0,0.1l0,0.1v0v0v0v0v0c0.1-0.1-0.2,0.2,0.2-0.2
						C220.3,368.5,218.5,368.5,218.5,368.6z"/>
				</g>
			</g>
			<g>
				<g>
					<path class="st10" d="M202.3,368.6c0,0.1,1.8,0.2,4,0.2c2.2,0,4-0.1,4-0.2s-1.8-0.2-4-0.2C204.2,368.5,202.3,368.5,202.3,368.6
						z"/>
				</g>
			</g>
			<g>
				<g>
					<path class="st10" d="M186.2,368.6c0,0.1,1.8,0.2,4,0.2c2.2,0,4-0.1,4-0.2s-1.8-0.2-4-0.2C188,368.5,186.2,368.5,186.2,368.6z"
						/>
				</g>
			</g>
			<g>
				<g>
					<path class="st10" d="M170,368.6c0,0.1,1.8,0.2,4,0.2c2.2,0,4-0.1,4-0.2s-1.8-0.2-4-0.2C171.8,368.5,170,368.5,170,368.6z"/>
				</g>
			</g>
			<g>
				<g>
					<path class="st10" d="M153.8,368.6c0,0.1,1.8,0.2,4,0.2c2.2,0,4-0.1,4-0.2s-1.8-0.2-4-0.2C155.6,368.5,153.8,368.5,153.8,368.6
						z"/>
				</g>
			</g>
			<g>
				<g>
					<path class="st10" d="M137.6,368.6c0,0.1,1.8,0.2,4,0.2c2.2,0,4-0.1,4-0.2s-1.8-0.2-4-0.2C139.4,368.5,137.6,368.5,137.6,368.6
						z"/>
				</g>
			</g>
			<g>
				<g>
					<path class="st10" d="M121.4,368.6c0,0.1,1.8,0.2,4,0.2c2.2,0,4-0.1,4-0.2s-1.8-0.2-4-0.2C123.3,368.5,121.4,368.5,121.4,368.6
						z"/>
				</g>
			</g>
			<g>
				<g>
					<path class="st10" d="M105.3,368.6c0,0.1,1.8,0.2,4,0.2c2.2,0,4-0.1,4-0.2s-1.8-0.2-4-0.2C107.1,368.5,105.3,368.5,105.3,368.6
						z"/>
				</g>
			</g>
			<g>
				<g>
					<path class="st10" d="M89.1,368.6c0,0.1,1.8,0.2,4,0.2c2.2,0,4-0.1,4-0.2s-1.8-0.2-4-0.2C90.9,368.5,89.1,368.5,89.1,368.6z"/>
				</g>
			</g>
			<g>
				<g>
					<path class="st10" d="M72.9,368.6c0,0.1,1.8,0.2,4,0.2c2.2,0,4-0.1,4-0.2s-1.8-0.2-4-0.2C74.7,368.5,72.9,368.5,72.9,368.6z"/>
				</g>
			</g>
			<g>
				<g>
					<path class="st10" d="M56.7,368.6c0,0.1,1.8,0.2,4,0.2c2.2,0,4-0.1,4-0.2s-1.8-0.2-4-0.2C58.5,368.5,56.7,368.5,56.7,368.6z"/>
				</g>
			</g>
			<g>
				<g>
					<path class="st10" d="M44.6,368.6c0,0.1,0.9,0.2,2,0.2c1.1,0,2-0.1,2-0.2s-0.9-0.2-2-0.2C45.5,368.5,44.6,368.5,44.6,368.6z"/>
				</g>
			</g>
		</g>
		<g class="st0">
			<path d="M167,317.5c0,0,0,6.7,2,10.8c2,4.1,2.7,5.6,7,7.2c4.3,1.6,58.3,7.5,58.3,7.5v-18.3L167,317.5z"/>
		</g>
		<g class="st0">
			<path d="M167.9,292.2c0,0-0.6-6.8,16.6-9.4c19.7-2.9,49.7-6.5,49.7-6.5v13L167.9,292.2z"/>
		</g>
		<g>
			<g>
				<g>
					<path class="st9" d="M232.5,330.2h-55.9c-5.3,0-9.6-4.3-9.6-9.6v-25c0-5.3,4.3-9.6,9.6-9.6h55.9c5.3,0,9.6,4.3,9.6,9.6v25
						C242.1,325.9,237.8,330.2,232.5,330.2z"/>
				</g>
				<g>
					<g>
						<path class="st10" d="M232.5,330.2c0,0,0.2,0,0.6,0c0.4,0,0.9-0.1,1.7-0.2c0.7-0.1,1.6-0.5,2.6-1c0.9-0.5,2-1.3,2.8-2.4
							c0.9-1.1,1.6-2.5,1.9-4.3c0.2-0.8,0.2-1.8,0.2-2.7c0-0.9,0-1.9,0-2.9c0-4,0-8.5,0-13.6c0-2.5,0-5.1,0-7.9
							c-0.1-2.8-1.4-5.7-3.9-7.4c-1.2-0.9-2.6-1.6-4.1-1.8c-0.8-0.1-1.6-0.2-2.3-0.2c-0.8,0-1.6,0-2.3,0c-3.1,0-6.4,0-9.7,0
							c-13.3,0-27.9,0-43.2,0c-1,0-1.9,0.2-2.9,0.4c-0.9,0.3-1.8,0.7-2.6,1.2c-0.8,0.6-1.5,1.2-2.1,1.9c-0.6,0.7-1.1,1.6-1.5,2.5
							c-0.4,0.9-0.6,1.8-0.7,2.7c-0.1,0.9,0,1.9,0,2.8c0,1.8,0,3.7,0,5.5c0,3.6,0,7.2,0,10.6c0,1.7,0,3.5,0,5.2c0,0.9,0,1.7,0,2.5
							c0,0.4,0.1,0.8,0.2,1.3c0.1,0.4,0.2,0.8,0.3,1.2c1.1,3.2,3.9,5.7,7,6.4c0.4,0.1,0.8,0.1,1.2,0.2c0.4,0,0.8,0,1.2,0.1
							c0.8,0,1.5,0,2.3,0c1.5,0,3,0,4.5,0c5.9,0,11.4,0,16.4,0c10,0,18.2,0,23.8-0.1c2.8,0,5,0,6.5,0c0.7,0,1.3,0,1.7,0
							C232.3,330.2,232.5,330.2,232.5,330.2s-0.2,0-0.6,0c-0.4,0-0.9,0-1.7,0c-1.5,0-3.7,0-6.5,0c-5.6,0-13.8,0-23.8-0.1
							c-5,0-10.5,0-16.4,0c-1.5,0-3,0-4.5,0c-1.5,0-3.1,0.1-4.6-0.3c-3-0.7-5.7-3-6.8-6.2c-0.6-1.5-0.5-3.2-0.5-4.9
							c0-1.7,0-3.4,0-5.2c0-3.5,0-7,0-10.6c0-1.8,0-3.6,0-5.5c0-0.9,0-1.8,0-2.8c0.1-0.9,0.3-1.8,0.7-2.6c0.4-0.8,0.8-1.6,1.4-2.4
							c0.6-0.7,1.3-1.3,2-1.9c0.8-0.5,1.6-0.9,2.5-1.2c0.9-0.3,1.8-0.4,2.8-0.4c15.3,0,29.9,0,43.2,0c3.3,0,6.6,0,9.7,0
							c0.8,0,1.6,0,2.3,0c0.8,0,1.5,0,2.3,0.2c1.5,0.2,2.9,0.9,4,1.8c2.4,1.7,3.7,4.5,3.8,7.2c0,2.7,0,5.4,0,7.9c0,5,0,9.6,0,13.6
							c0,1,0,2,0,2.9c0,0.9,0,1.8-0.1,2.7c-0.3,1.7-1,3.1-1.9,4.2c-0.9,1.1-1.8,1.9-2.8,2.4c-0.9,0.5-1.8,0.9-2.5,1
							c-0.7,0.2-1.3,0.2-1.7,0.3C232.7,330.2,232.5,330.2,232.5,330.2z"/>
					</g>
				</g>
			</g>
			<g>
				<g>
					<circle class="st10" cx="189.6" cy="309.8" r="16.1"/>
				</g>
				<g>
					<g>
						<path class="st11" d="M185.5,322.9c0-0.1-1.7-0.4-3.8-2c-1.1-0.8-2.2-1.9-3.2-3.4c-1-1.4-1.8-3.3-2.1-5.3
							c-0.3-2-0.1-4,0.4-5.7c0.5-1.7,1.3-3.1,2-4.2c1.6-2.2,3.1-3,3-3.1c0,0-0.1,0-0.3,0.2c-0.2,0.1-0.4,0.3-0.7,0.5
							c-0.6,0.5-1.4,1.2-2.2,2.3c-0.8,1.1-1.6,2.5-2.2,4.2c-0.5,1.7-0.7,3.7-0.4,5.8c0.3,2.1,1.2,3.9,2.2,5.4c1,1.5,2.2,2.6,3.4,3.4
							c1.1,0.8,2.1,1.2,2.8,1.5c0.4,0.1,0.6,0.2,0.8,0.3C185.4,322.9,185.5,322.9,185.5,322.9z"/>
					</g>
				</g>
			</g>
		</g>
	</g>
	<g>
		<g>
			<g>
				<g>
					<g>
						<path class="st12" d="M13.6,254.5c0,0,0.1-4.5,0.2-4.5l9.2,2c0.1,0.6,1.3,7.9,1.1,8.6l-10.3,2.9
							C13.8,263.5,13.6,254.8,13.6,254.5z"/>
					</g>
				</g>
				<g>
					<g>
						<g>
							<g>
								<g>
									<g>
										<g>
											<path class="st12" d="M13.6,262.8c0,0,0-0.1,0-0.2c-0.1-1,0-5.4,0.5-5.5c0.6-0.2,2.1,0.1,2.2,0.7
												c0.1,0.6-0.2,5.5-0.2,5.5s-0.1,0.8-1.4,1C13.8,264.4,13.6,262.8,13.6,262.8z"/>
										</g>
									</g>
								</g>
								<g>
									<g>
										<g>
											<path class="st12" d="M16.2,264.4c0,0,0-0.1,0-0.2c-0.1-1,0-5.4,0.5-5.5c0.6-0.2,2.1,0.1,2.2,0.7
												c0.1,0.6-0.2,5.5-0.2,5.5s-0.1,0.8-1.4,1C16.4,265.9,16.2,264.4,16.2,264.4z"/>
										</g>
									</g>
								</g>
								<g>
									<g>
										<g>
											<path class="st12" d="M18.8,265.2c0,0,0-0.1,0-0.2c-0.1-1,0-5.4,0.5-5.5c0.6-0.2,2.1,0.1,2.2,0.7
												c0.1,0.6-0.2,5.5-0.2,5.5s-0.1,0.8-1.4,1C18.9,266.7,18.8,265.2,18.8,265.2z"/>
										</g>
									</g>
								</g>
								<g>
									<g>
										<g>
											<path class="st12" d="M21.3,265.9c0,0,0-0.1,0-0.2c-0.1-1,0-5.4,0.5-5.5c0.6-0.2,2.1,0.1,2.2,0.7
												c0.1,0.6-0.2,5.5-0.2,5.5s-0.1,0.8-1.4,1C21.5,267.5,21.3,265.9,21.3,265.9z"/>
										</g>
									</g>
								</g>
								<g>
									<g>
										<g>
											<g>
												<path class="st13" d="M16.2,259.1c-0.1,0-0.2,1-0.2,2.1c0,1.2,0,2.1,0.1,2.1c0.1,0,0.2-1,0.2-2.1
													C16.4,260,16.3,259.1,16.2,259.1z"/>
											</g>
										</g>
									</g>
								</g>
								<g>
									<g>
										<g>
											<g>
												<path class="st13" d="M18.8,259.1c-0.1,0-0.2,1.3-0.2,3c-0.1,1.7,0,3,0,3c0.1,0,0.2-1.3,0.2-3
													C18.9,260.4,18.9,259.1,18.8,259.1z"/>
											</g>
										</g>
									</g>
								</g>
								<g class="st14">
									<g>
										<g>
											<g>
												<path class="st13" d="M21.4,259.3c-0.1,0-0.2,1.3-0.2,3c-0.1,1.7,0,3,0,3c0.1,0,0.2-1.3,0.2-3
													C21.5,260.6,21.5,259.3,21.4,259.3z"/>
											</g>
										</g>
									</g>
								</g>
							</g>
						</g>
						<g>
							<g>
								<path class="st12" d="M23.1,252.3c0,0,3.6,8.3,3.1,8.8c-0.5,0.5-2.2,1.3-2.2,1.3L23.1,252.3z"/>
							</g>
						</g>
					</g>
				</g>
			</g>
		</g>
		<g>
			<g>
				<g>
					<g>
						<g>
							<g>
								<g>
									<g>
										<g>
											<g>
												<g>
													<g>
														<g>
															<g>
																<g>
																	<g>
																		<g>
																			<path class="st12" d="M43.2,141.6l2.7,30.9l15.5-1.2c0.1-1.8,0-8.8,0-8.8s6.4-1,6.5-7.4c0-3.1-0.4-9.6-0.9-15.4
																				c-0.5-6.4-6.1-11.3-12.6-10.9h0C47.6,129.1,42.6,135,43.2,141.6z"/>
																		</g>
																	</g>
																</g>
															</g>
														</g>
													</g>
												</g>
											</g>
										</g>
									</g>
								</g>
							</g>
							<g>
								<g>
									<g>
										<g>
											<g>
												<g>
													<g>
														<g>
															<g>
																<g>
																	<g>
																		<g>
																			<path class="st13" d="M61.2,162.4c0,0-4.1,0.3-8.4-2.4c0,0,2,4.6,8.4,4L61.2,162.4z"/>
																		</g>
																	</g>
																</g>
															</g>
														</g>
													</g>
												</g>
											</g>
										</g>
									</g>
								</g>
							</g>
						</g>
					</g>
				</g>
				<g>
					<g>
						<g>
							<g>
								<g>
									<g>
										<g>
											<g>
												<g>
													<g>
														<g>
															<g>
																<g>
																	<g>
																		<g>
																			<g>
																				<g>
																					<g>
																						<path class="st10" d="M65.2,144.2c0,0.5-0.4,0.9-0.9,0.9c-0.5,0-0.9-0.3-0.9-0.8c0-0.5,0.4-0.9,0.9-0.9
																							C64.7,143.3,65.1,143.7,65.2,144.2z"/>
																					</g>
																				</g>
																			</g>
																		</g>
																	</g>
																</g>
															</g>
														</g>
													</g>
												</g>
											</g>
										</g>
										<g>
											<g>
												<g>
													<g>
														<g>
															<g>
																<g>
																	<g>
																		<g>
																			<g>
																				<g>
																					<g>
																						<g>
																							<path class="st10" d="M65.5,142.9c-0.1,0.1-0.8-0.4-1.8-0.4c-1,0-1.7,0.5-1.8,0.4c-0.1-0.1,0.1-0.3,0.4-0.5
																								c0.3-0.2,0.8-0.5,1.5-0.4c0.6,0,1.1,0.2,1.4,0.5C65.4,142.6,65.5,142.8,65.5,142.9z"/>
																						</g>
																					</g>
																				</g>
																			</g>
																		</g>
																	</g>
																</g>
															</g>
														</g>
													</g>
												</g>
											</g>
										</g>
									</g>
									<g>
										<g>
											<g>
												<g>
													<g>
														<g>
															<g>
																<g>
																	<g>
																		<g>
																			<g>
																				<g>
																					<g>
																						<path class="st10" d="M55.4,144.2c0,0.5-0.4,0.9-0.9,0.9c-0.5,0-0.9-0.3-0.9-0.8c0-0.5,0.4-0.9,0.9-0.9
																							C55,143.3,55.4,143.7,55.4,144.2z"/>
																					</g>
																				</g>
																			</g>
																		</g>
																	</g>
																</g>
															</g>
														</g>
													</g>
												</g>
											</g>
										</g>
										<g>
											<g>
												<g>
													<g>
														<g>
															<g>
																<g>
																	<g>
																		<g>
																			<g>
																				<g>
																					<g>
																						<g>
																							<path class="st10" d="M55.8,143.1c-0.1,0.1-0.8-0.4-1.8-0.4c-1,0-1.7,0.5-1.8,0.4c-0.1-0.1,0.1-0.3,0.4-0.5
																								c0.3-0.2,0.8-0.5,1.5-0.4c0.6,0,1.1,0.2,1.4,0.5C55.7,142.8,55.8,143,55.8,143.1z"/>
																						</g>
																					</g>
																				</g>
																			</g>
																		</g>
																	</g>
																</g>
															</g>
														</g>
													</g>
												</g>
											</g>
										</g>
									</g>
									<g>
										<g>
											<g>
												<g>
													<g>
														<g>
															<g>
																<g>
																	<g>
																		<g>
																			<g>
																				<g>
																					<g>
																						<path class="st10" d="M59.4,150.4c0-0.1,0.6-0.2,1.6-0.3c0.3,0,0.5-0.1,0.5-0.2c0.1-0.2,0-0.5-0.2-0.7
																							c-0.2-0.6-0.5-1.3-0.7-1.9c-1-2.7-1.8-5-1.7-5c0.1,0,1,2.1,2.1,4.9c0.2,0.7,0.5,1.3,0.7,1.9
																							c0.1,0.3,0.3,0.6,0.1,1c-0.1,0.2-0.3,0.3-0.4,0.4c-0.2,0-0.3,0.1-0.4,0.1C60,150.5,59.4,150.5,59.4,150.4z"/>
																					</g>
																				</g>
																			</g>
																		</g>
																	</g>
																</g>
															</g>
														</g>
													</g>
												</g>
											</g>
										</g>
									</g>
									<g>
										<g>
											<g>
												<g>
													<g>
														<g>
															<g>
																<g>
																	<g>
																		<g>
																			<g>
																				<g>
																					<g>
																						<path class="st10" d="M56.5,151.1c0.2,0,0.2,1.1,1.1,1.8c0.9,0.8,2.1,0.6,2.1,0.8c0,0.1-0.3,0.2-0.7,0.2
																							c-0.5,0-1.2-0.1-1.7-0.6c-0.6-0.5-0.8-1.1-0.8-1.5C56.3,151.3,56.4,151.1,56.5,151.1z"/>
																					</g>
																				</g>
																			</g>
																		</g>
																	</g>
																</g>
															</g>
														</g>
													</g>
												</g>
											</g>
										</g>
									</g>
								</g>
							</g>
						</g>
						<g>
							<g>
								<g>
									<g>
										<g>
											<g>
												<g>
													<g>
														<g>
															<g>
																<g>
																	<g>
																		<path class="st10" d="M56,139.2c-0.1,0.3-1.1,0.1-2.2,0.3c-1.2,0.1-2.1,0.5-2.3,0.2c-0.1-0.1,0.1-0.4,0.5-0.6
																			c0.4-0.3,1-0.5,1.7-0.6c0.7-0.1,1.3,0,1.8,0.2C55.9,138.9,56.1,139.1,56,139.2z"/>
																	</g>
																</g>
															</g>
														</g>
													</g>
												</g>
											</g>
										</g>
									</g>
								</g>
							</g>
						</g>
						<g>
							<g>
								<g>
									<g>
										<g>
											<g>
												<g>
													<g>
														<g>
															<g>
																<g>
																	<g>
																		<path class="st10" d="M65.1,140c-0.2,0.2-0.9,0-1.7,0c-0.8,0-1.5,0.2-1.7-0.1c-0.1-0.1,0-0.3,0.3-0.6
																			c0.3-0.2,0.8-0.4,1.4-0.4c0.6,0,1,0.2,1.3,0.5C65.1,139.7,65.2,139.9,65.1,140z"/>
																	</g>
																</g>
															</g>
														</g>
													</g>
												</g>
											</g>
										</g>
									</g>
								</g>
							</g>
						</g>
					</g>
				</g>
			</g>
			<g>
				<g>
					<g>
						<path class="st10" d="M41.8,137.7c0.4,3.1,1.2,7.1,1.5,10.3c0,0.3,0.1,0.6,0.2,0.8c0.5,0.6,1.5,1.9,2.1,1.4
							c1.4-1.3,1.9-4.8,2.2-6.6c0.3-1.8,0.2-3.7,0.5-5.5c0,0,0-0.1,0-0.1c0.2-1.3,0.9-2.5,1.9-3.3c0.2-0.2,0.5-0.3,0.8-0.4
							c1.9-0.7,5,0.6,6.9,1.3c1,0.4,1.9,0.8,2.9,1.2c2.2,1,4.7,0.8,6.6-0.6c1.1-0.8,1.2-3.5,0.7-5.1c-1.4-4.5-7-6-14.2-4.3
							C46.6,128.4,41,131.2,41.8,137.7z"/>
					</g>
				</g>
			</g>
			<g>
				<g>
					<g>
						<g>
							<g>
								<g>
									<g>
										<g>
											<g>
												<g>
													<g>
														<g>
															<g>
																<path class="st12" d="M45.3,144.5c-0.1,0-4.4-1.3-4.3,3.1c0.1,4.4,4.5,3.3,4.5,3.2
																	C45.6,150.7,45.3,144.5,45.3,144.5z"/>
															</g>
														</g>
													</g>
												</g>
											</g>
										</g>
									</g>
								</g>
							</g>
						</g>
					</g>
				</g>
				<g>
					<g>
						<g>
							<g>
								<g>
									<g>
										<g>
											<g>
												<g>
													<g>
														<g>
															<g>
																<g>
																	<path class="st13" d="M44.2,149.2c0,0-0.1,0.1-0.2,0.1c-0.1,0.1-0.3,0.1-0.6,0c-0.5-0.2-0.9-0.9-0.9-1.7
																		c0-0.4,0-0.8,0.2-1.1c0.1-0.3,0.3-0.6,0.6-0.6c0.2-0.1,0.4,0.1,0.5,0.2c0.1,0.1,0,0.2,0.1,0.2c0,0,0.1-0.1,0.1-0.3
																		c0-0.1-0.1-0.2-0.2-0.3c-0.1-0.1-0.3-0.1-0.4-0.1c-0.3,0-0.6,0.4-0.8,0.7c-0.2,0.4-0.3,0.8-0.2,1.2
																		c0.1,0.9,0.5,1.7,1.2,1.9c0.3,0.1,0.6,0,0.7-0.1C44.2,149.3,44.2,149.2,44.2,149.2z"/>
																</g>
															</g>
														</g>
													</g>
												</g>
											</g>
										</g>
									</g>
								</g>
							</g>
						</g>
					</g>
				</g>
			</g>
			<g>
				<g>
					<path class="st8" d="M41.8,138c-0.1,0.1,1.3,0.8,3.1,0.8c1.8,0,3.2-0.7,3.2-0.7c0-0.1-1.4,0.4-3.2,0.4
						C43.2,138.4,41.9,137.8,41.8,138z"/>
				</g>
			</g>
			<g>
				<g>
					<path class="st8" d="M42,139.2c-0.1,0.1,1.2,0.8,3,0.8c1.8,0,3.1-0.7,3-0.7c0-0.1-1.3,0.4-3,0.4C43.3,139.7,42,139.1,42,139.2z
						"/>
				</g>
			</g>
		</g>
		<g>
			<g>
				<g>
					<g>
						<g>
							<g>
								<g>
									<g>
										<path class="st10" d="M72.6,358.2l-2.9,13.2c0,0,12.4,7.3,12.1,9.8l-25.7-4.6l3.6-20.7L72.6,358.2z"/>
									</g>
								</g>
							</g>
						</g>
					</g>
				</g>
				<g>
					<g>
						<g>
							<g>
								<g>
									<g>
										<path class="st8" d="M56.1,376.5l0.4-2.1l24.5,5.2c0,0,1.1,0.7,0.8,1.5L56.1,376.5z"/>
									</g>
								</g>
							</g>
						</g>
					</g>
				</g>
			</g>
		</g>
		<g>
			<g>
				<g>
					<g>
						<g>
							<g>
								<g>
									<g>
										<path class="st10" d="M43.4,359.6l-0.4,13.4c0,0,13.5,4.9,13.7,7.4l-26.1,0.1l-0.2-21L43.4,359.6z"/>
									</g>
								</g>
							</g>
						</g>
					</g>
				</g>
				<g class="st15">
					<g>
						<g>
							<g>
								<g>
									<g>
										<path class="st8" d="M30.5,380.6l0.1-2.1l25,0.7c0,0,1.2,0.5,1,1.3L30.5,380.6z"/>
									</g>
								</g>
							</g>
						</g>
					</g>
				</g>
			</g>
		</g>
		<g>
			<g>
				<g>
					<g>
						<path class="st10" d="M74,369.4c0,0,13.4-65.7,13.4-67l-23.9-12.6l-9.3,77L74,369.4z"/>
					</g>
				</g>
			</g>
			<g>
				<g>
					<g>
						<path class="st10" d="M43.9,371.6l18.5-113.8v-24.5l-25.3,2.3c-0.3,1-8.6,136.1-8.6,136.1l2.6-0.2H43.9"/>
					</g>
				</g>
			</g>
			<g>
				<g>
					<g>
						<polygon class="st10" points="76.9,231.6 87.4,302.5 64,296.8 54.4,233.9 						"/>
					</g>
				</g>
			</g>
			<g>
				<g>
					<g>
						<g>
							<path class="st8" d="M55.2,237.6c0,0,0,0.1,0,0.3c0,0.2-0.1,0.6-0.1,1c-0.1,0.9-0.3,2.2-0.4,3.9c-0.4,3.4-1,8.3-1.8,14.4
								c-1.6,12.1-3.9,28.8-6.5,47.3c-1.3,9.2-2.4,18-3.4,26c-0.3,2-0.5,4-0.7,5.9c-0.3,1.9-0.6,3.7-0.8,5.5c-0.5,3.5-1,6.9-1.5,9.9
								c-0.9,6-1.6,10.9-2.1,14.3c-0.2,1.7-0.4,3-0.5,3.9c-0.1,0.4-0.1,0.8-0.1,1c0,0.1,0,0.2,0,0.3c0,0.1,0,0,0,0c0,0,0,0,0,0
								c0,0,0,0,0,0c0-0.1,0-0.1,0-0.3c0-0.2,0-0.6,0.1-1c0.1-0.9,0.2-2.2,0.5-3.9c0.4-3.4,1.1-8.3,2-14.3c0.4-3,0.9-6.3,1.5-9.9
								c0.3-1.8,0.5-3.6,0.8-5.5c0.3-1.9,0.5-3.8,0.7-5.9c1-8,2.1-16.8,3.4-26.1c2.5-18.5,5-35.2,6.6-47.3c0.8-6,1.4-10.9,1.9-14.3
								c0.2-1.7,0.4-3,0.5-3.9c0.1-0.4,0.1-0.8,0.1-1C55.2,237.7,55.2,237.6,55.2,237.6z"/>
						</g>
					</g>
				</g>
			</g>
			<g>
				<g>
					<g>
						<g>
							<path class="st8" d="M69.3,368.8c0,0,0-0.1,0-0.3c0-0.2,0.1-0.6,0.2-1c0.1-0.9,0.4-2.1,0.6-3.8c0.6-3.3,1.4-8,2.4-13.9
								c2.1-11.7,5-27.9,8.1-45.8c0.2-1.1,0.3-2.2,0.2-3.3c-0.1-1.1-0.3-2.2-0.5-3.3c-0.3-2.2-0.7-4.3-1-6.5
								c-0.7-4.2-1.3-8.3-2-12.2c-1.3-7.8-2.5-14.7-3.6-20.6c-1.1-5.8-2.1-10.6-2.8-13.8c-0.4-1.6-0.7-2.9-0.9-3.7
								c-0.1-0.4-0.2-0.7-0.2-1c0-0.2-0.1-0.3-0.1-0.3s0,0.1,0.1,0.3c0.1,0.2,0.1,0.5,0.3,1c0.2,0.8,0.6,2.1,0.9,3.7
								c0.8,3.2,1.8,7.9,2.9,13.8c1.1,5.8,2.4,12.8,3.7,20.6c0.7,3.9,1.3,8,2,12.2c0.3,2.1,0.7,4.3,1,6.5c0.2,1.1,0.3,2.2,0.5,3.3
								c0.1,1.1,0,2.3-0.2,3.4c-3.2,17.9-6.1,34-8.2,45.7c-1.1,5.8-1.9,10.6-2.5,13.9c-0.3,1.6-0.5,2.9-0.7,3.8
								c-0.1,0.4-0.1,0.7-0.2,1C69.4,368.7,69.3,368.8,69.3,368.8z"/>
						</g>
					</g>
				</g>
			</g>
			<g>
				<g>
					<g>
						<g>
							<path class="st8" d="M62.4,257c0.1,0-1,7.4-2.4,16.4c-1.4,9.1-2.7,16.4-2.8,16.4c-0.1,0,1-7.4,2.4-16.4
								C61,264.4,62.3,257,62.4,257z"/>
						</g>
					</g>
				</g>
			</g>
			<g>
				<g>
					<g>
						<g>
							<path class="st8" d="M44.1,371.4c0,0-0.2,0.1-0.6,0.1c-0.4,0-1,0.1-1.7,0.2c-1.4,0.1-3.3,0.2-5.5,0.2c-2.2,0-4.1,0-5.5-0.1
								c-0.7,0-1.3-0.1-1.7-0.1c-0.4,0-0.6-0.1-0.6-0.1c0,0,0.9,0,2.3,0c1.4,0,3.3,0,5.5,0c2.1,0,4.1-0.1,5.5-0.2
								C43.2,371.4,44.1,371.4,44.1,371.4z"/>
						</g>
					</g>
				</g>
			</g>
			<g>
				<g>
					<g>
						<g>
							<path class="st8" d="M74,369.4c0,0-0.3,0-0.8,0c-0.6-0.1-1.3-0.1-2.1-0.2c-1.8-0.2-4.3-0.5-7-0.9c-2.7-0.4-5.2-0.7-7-1
								c-0.8-0.1-1.5-0.2-2.1-0.3c-0.5-0.1-0.8-0.1-0.8-0.2c0,0,0.3,0,0.8,0c0.5,0,1.2,0.1,2.1,0.2c1.8,0.2,4.3,0.5,7,0.9
								c2.7,0.4,5.2,0.7,7,1c0.8,0.1,1.5,0.2,2.1,0.3C73.7,369.4,74,369.4,74,369.4z"/>
						</g>
					</g>
				</g>
			</g>
		</g>
		<g>
			<g>
				<g>
					<g>
						<path class="st8" d="M109.2,189.7l-15.1,11.5c0,0-14-23.9-15.3-25.4c-1.2-1.5-4.4-3.1-4.4-3.1l1.7,30.7c0,0,7.6,19.4,18,18.3
							c8-0.8,21.8-21.8,21.8-21.8L109.2,189.7z"/>
					</g>
				</g>
				<g class="st16">
					<g>
						<g>
							<path d="M94.4,200.8c2.1,3.2,2.7,7.4,1.5,11c-0.1,0.4-0.3,0.8-0.6,1c-0.5,0.3-1.2,0-1.5-0.5c-0.3-0.5-0.4-1.1-0.4-1.7
								c-0.3,0.5-0.6,1.1-1.1,1.5c-0.5,0.3-1.3,0.4-1.7-0.1c-0.5-0.6-0.2-1.4,0.1-2.1c1.3-2.9,2.6-5.8,3.9-8.7"/>
						</g>
					</g>
				</g>
				<g>
					<g>
						<g>
							<path class="st10" d="M105.4,193.1c-0.1,0.1,1.5,2.6,3.5,5.8c2,3.1,3.7,5.6,3.8,5.6c0.1-0.1-1.4-2.6-3.5-5.8
								C107.2,195.5,105.5,193,105.4,193.1z"/>
						</g>
					</g>
				</g>
				<g>
					<g>
						<g>
							<path class="st10" d="M109.2,192.7c0,0-0.2-0.2-0.5-0.1c-0.2,0.1-0.3,0.2-0.4,0.5c-0.1,0.3,0.1,0.6,0.4,0.7
								c0.2,0.1,0.6,0.1,0.8-0.1c0.2-0.2,0.2-0.4,0.2-0.6C109.5,192.7,109.3,192.6,109.2,192.7c0,0.1,0.1,0.2,0.1,0.4
								c0,0.2-0.2,0.4-0.5,0.3c-0.3-0.1-0.2-0.4,0-0.5C109,192.7,109.2,192.7,109.2,192.7z"/>
						</g>
					</g>
				</g>
				<g>
					<g>
						<g>
							<path class="st10" d="M94.1,208.4c0.1,0,0.7-1.6,0.7-3.6c0-2.1-0.5-3.7-0.6-3.6c-0.1,0,0.2,1.6,0.2,3.6
								C94.3,206.8,94,208.4,94.1,208.4z"/>
						</g>
					</g>
				</g>
				<g>
					<g>
						<g>
							<path class="st10" d="M91.2,208.3c0.1,0.1,1.1-1.4,1.9-3.4c0.9-2,1.2-3.7,1.1-3.7c-0.1,0-0.7,1.6-1.5,3.6
								C91.9,206.7,91.1,208.2,91.2,208.3z"/>
						</g>
					</g>
				</g>
			</g>
			<g>
				<g>
					<g>
						<path class="st8" d="M42.9,169.7l2.3-4.5h16.5l2.6,5.1l10.2,2.3l4.4,65.7c0,0.8-0.2,1.7-0.6,2.4l0,0l-40,1.5l-1.6,0.7
							c-1.4-0.9-0.5-4.5-0.6-6.3l-0.5-32.5l-7.9-26L42.9,169.7z"/>
					</g>
				</g>
				<g class="st16">
					<g>
						<g>
							<path d="M60,172c-1-1-1.9-1.9-2.9-2.9c-1.1,2.6-2.2,5.3-3.3,7.9c-3.8-2.2-7.4-4.7-10.7-7.5c3.7,1.2,7.4,2.4,11.1,3.6
								c0.9-2.5,1.9-5,2.8-7.5c0.7,2.3,1.6,4.4,2.8,6.5"/>
						</g>
					</g>
				</g>
				<g>
					<g>
						<g>
							<path class="st8" d="M13.5,252.1l10.8,0.6l0-31l11.2-17.5l-7.9-26c-1.6,0.6-13.9,31.5-17.1,39.9c-0.5,1.2-0.6,2.5-0.6,3.8
								L13.5,252.1z"/>
						</g>
					</g>
				</g>
				<g>
					<g>
						<g>
							<path class="st10" d="M74.4,186.2c-0.1,0,0.4,6.4,1.2,14.2c0.8,7.8,1.5,14.2,1.6,14.1c0.1,0-0.4-6.4-1.2-14.2
								C75.3,192.5,74.6,186.2,74.4,186.2z"/>
						</g>
					</g>
				</g>
				<g>
					<g>
						<g>
							<path class="st10" d="M57,165.6c-0.1,0,0.8,2.4,2,5.3c0.1,0.2,0.1,0.4,0.2,0.5c0.1,0.2,0.2,0.4,0.4,0.5
								c0.2,0.2,0.5,0.1,0.7,0c0.2-0.1,0.3-0.2,0.5-0.3c0.5-0.4,1-0.7,1.5-1c0.8-0.6,1.3-1,1.3-1c0,0-0.6,0.2-1.5,0.8
								c-0.5,0.3-1,0.6-1.5,0.9c-0.3,0.2-0.6,0.4-0.7,0.2c-0.2-0.1-0.3-0.6-0.5-0.9C58.1,167.8,57.1,165.6,57,165.6z"/>
						</g>
					</g>
				</g>
				<g>
					<g>
						<g>
							<path class="st10" d="M43.9,169.6c0,0.1,0.9,0.4,2.5,1c1.6,0.6,3.8,1.3,6.2,2.2c0.5,0.2,0.9,0.3,1.3,0.4l0.2,0.1l0.1-0.2
								c0.9-2.1,1.6-3.9,2.1-5.2c0.5-1.3,0.8-2.1,0.7-2.1c0,0-0.4,0.7-1,2c-0.6,1.3-1.4,3.1-2.2,5.1l0.3-0.1
								c-0.4-0.1-0.9-0.3-1.3-0.5c-2.4-0.8-4.6-1.6-6.2-2.1C44.9,169.8,43.9,169.6,43.9,169.6z"/>
						</g>
					</g>
				</g>
				<g>
					<g>
						<g>
							<path class="st10" d="M29.3,179c0,0.1,2.3,0.7,5,2c2.7,1.2,4.7,2.5,4.8,2.4c0,0-0.4-0.4-1.3-1c-0.8-0.5-2-1.2-3.4-1.8
								c-1.4-0.6-2.6-1-3.6-1.3C29.9,179.1,29.3,179,29.3,179z"/>
						</g>
					</g>
				</g>
				<g>
					<g>
						<g>
							<path class="st10" d="M57,165.6c0,0,0,0.1,0,0.2c0,0.2,0,0.3,0,0.6c0,0.5,0,1.3-0.1,2.2c0,1.9,0,4.7,0.1,8.2
								c0.2,6.9,1.1,16.4,2.5,26.8c0.7,5.2,1.4,10.2,1.9,14.7c0.5,4.5,0.7,8.6,0.7,12.1c0,3.4-0.4,6.2-0.6,8.1
								c-0.1,1-0.3,1.7-0.3,2.2c0,0.2-0.1,0.4-0.1,0.6c0,0.1,0,0.2,0,0.2c0,0,0-0.1,0.1-0.2c0-0.2,0.1-0.3,0.1-0.6
								c0.1-0.5,0.3-1.2,0.4-2.2c0.3-1.9,0.7-4.7,0.8-8.1c0.1-3.5-0.1-7.6-0.6-12.1c-0.5-4.5-1.2-9.5-1.9-14.7
								c-1.4-10.4-2.3-19.9-2.6-26.8c-0.2-3.4-0.2-6.2-0.3-8.1c0-0.9,0-1.7,0-2.2c0-0.2,0-0.4,0-0.6C57,165.7,57,165.6,57,165.6z"/>
						</g>
					</g>
				</g>
				<g>
					<g>
						<g>
							<path class="st10" d="M12.9,247.3c0,0.1,2.6,0.1,5.7-0.1c3.2-0.2,5.7-0.4,5.7-0.5c0-0.1-2.6-0.1-5.7,0.1
								C15.5,247,12.9,247.2,12.9,247.3z"/>
						</g>
					</g>
				</g>
				<g>
					<g>
						<g>
							<path class="st10" d="M22.5,248.5c0,0,0,0.2,0,0.3c-0.1,0.2-0.2,0.2-0.3,0.1c-0.1-0.1-0.1-0.2,0-0.3
								C22.3,248.5,22.5,248.6,22.5,248.5c0-0.1-0.1-0.2-0.4-0.2c-0.1,0-0.3,0.1-0.4,0.3c-0.1,0.2,0,0.5,0.2,0.6
								c0.2,0.1,0.5,0.2,0.6,0c0.2-0.1,0.2-0.3,0.2-0.5C22.8,248.6,22.5,248.5,22.5,248.5z"/>
						</g>
					</g>
				</g>
				<g class="st16">
					<g>
						<g>
							<path d="M35.3,204c1.2-2.1,2.3-4.2,3.5-6.4c1.4,11.2,0.6,22.6-2.3,33.5c-0.4-9-0.7-18-1.1-27"/>
						</g>
					</g>
				</g>
				<g>
					<g>
						<g>
							<path class="st10" d="M53.2,192.3c0,0-0.2,0-0.6,0c-0.5,0-1.1,0-1.9,0c-1.6,0-4-0.1-6.8-0.1l-0.2,0l0,0.2
								c0.2,2.5,0.4,5.3,0.6,8.4l0,0.1l0.1,0.1c0.1,0.1,0.3,0.1,0.4,0.2c1.6,0.8,3.1,1.6,4.6,2.4l0.1,0.1l0.1-0.1
								c1.5-1.3,3-2.4,4.2-3.5l0.1-0.1l0-0.1c-0.2-2.3-0.4-4.2-0.5-5.6c-0.1-0.6-0.1-1.1-0.2-1.5C53.2,192.5,53.2,192.3,53.2,192.3
								c0,0,0,0.2,0,0.6c0,0.4,0,0.9,0.1,1.6c0.1,1.4,0.2,3.2,0.3,5.5l0.1-0.1c-1.3,1-2.7,2.2-4.3,3.4l0.2,0c-1.4-0.8-3-1.6-4.6-2.4
								c-0.1-0.1-0.3-0.2-0.4-0.2l0.1,0.2c-0.2-3.1-0.5-5.9-0.7-8.4l-0.2,0.2c2.8,0,5.1-0.1,6.7-0.1c0.8,0,1.4,0,1.9,0
								C53,192.4,53.2,192.4,53.2,192.3z"/>
						</g>
					</g>
				</g>
				<g>
					<g>
						<g>
							<path class="st10" d="M73,241c0,0.1,0.8,0,1.4-0.9c0.5-0.8,0.4-1.6,0.3-1.6c-0.1,0-0.1,0.7-0.6,1.4
								C73.6,240.6,73,240.9,73,241z"/>
						</g>
					</g>
				</g>
				<g>
					<g>
						<g>
							<path class="st10" d="M72,240.6c0.1,0.1,0.8-0.6,1.1-1.9c0.3-1.2,0-2.2-0.1-2.2c-0.1,0,0,1-0.3,2.1
								C72.4,239.7,71.9,240.5,72,240.6z"/>
						</g>
					</g>
				</g>
				<g>
					<g>
						<g>
							<path class="st10" d="M41.7,236.1c-0.1,0-0.2,1.6,0.6,3.3c0.8,1.7,2.1,2.7,2.1,2.6c0.1-0.1-1-1.1-1.8-2.8
								C42,237.6,41.9,236.1,41.7,236.1z"/>
						</g>
					</g>
				</g>
			</g>
		</g>
		<g>
			<path class="st12" d="M110,190.9c0,0,12.2-9.2,13.9-9.9c2.8-1,3.5-0.8,3.5-0.8l-6.7,7.2c0,0,7.1,2.4,7.6,2.7
				c0.6,0.3,0.8,1.8-1,1.8c-1.4,0-8.2,0.2-8.2,0.2l-5.6,4.1L110,190.9z"/>
		</g>
	</g>
</g>
</svg>
