<svg xmlns="http://www.w3.org/2000/svg" width="467.882" height="330.491" viewBox="0 0 467.882 330.491">
  <g id="Grupo_5" data-name="Grupo 5" transform="translate(-737.059 -196.562)">
    <path id="Trazado_3235" data-name="Trazado 3235" d="M296.56,4.993C268.107-5.732,233.739,1.209,211.768,22.2c-25.435,24.255-35.333,64.812-67.187,79.674-23.718,11.078-51.9,3.846-77.437,9.592C30.294,119.74,3.557,156.007.37,193.638c-2.452,28.9,7.37,57.641,23.6,81.3,15.169,22.094,42.4,34.321,67.417,41.553,37.095,10.725,78.816,14.035,117.321,14,28.56,0,57.274-2.191,85.206-8.335,23.136-5.087,47.391-11.185,66.375-26.047,8.887-6.987,18.953-17.36,22.585-28.361,4.6-13.79,2.881-31.134-.812-44.832-6.129-22.631-18.785-42.9-28.223-64.352-5.991-13.621-5.96-26.814-7.784-41.293-1.992-15.812-2.972-31.763-5.807-47.5-2.528-14.035-6.726-28.024-13.974-40.389C318.7,16.393,310.365,10.218,296.56,4.993Z" transform="translate(737.063 196.559)" fill="#81fff1"/>
    <g id="Grupo_4" data-name="Grupo 4" transform="translate(579.819 173.544)">
      <path id="Trazado_22" data-name="Trazado 22" d="M1045.943,226l-.842-.561c-.213-.274-.489-.531-.728-.784a105.383,105.383,0,0,1-21.74-27.814A87.592,87.592,0,0,1,1013,170.576c-.255-.859-.456-1.738-.776-2.577-1.1-2.432-2.9.443-2.851,1.949-.385-2.325-1.752-7.624-3.714-3.016-.612-2.825-2.9-1.246-3.18.756-1.144-4.529-4.144-1.524-3.8,1.576a.432.432,0,0,0-.406-.047,3.684,3.684,0,0,0-1.212-3.283c-.1.12-.2.244-.293.368-.208.961-.414,1.92-.6,2.882.76,3,1.412,6.015,2,9.049a1.377,1.377,0,0,1,.473.952q.185,2.181.511,4.348.086.479.172.958.225,1.263.451,2.527a60.762,60.762,0,0,0,2.448,8.628c1.491,4.061,3.766,7.777,5.058,11.9,2.814,5.982,5.545,12.313,8.806,18.016,2.566,4.841,6.2,9.068,9.435,13.475a67.875,67.875,0,0,0,4.895,5.807c.454.607,1.244,1.418,1.751,1.144l.073.056Z" transform="translate(-604.918 -81.922)" fill="#fff"/>
      <g id="Grupo_3" data-name="Grupo 3" transform="translate(170.702 52.888)">
        <path id="Trazado_23" data-name="Trazado 23" d="M622.588,423.564a2.843,2.843,0,0,1-2.422-1.912c1.581-.242,3.176-.851,4.643-1.129C625.151,422.66,624.759,423.256,622.588,423.564Z" transform="translate(-503.203 -319.862)" fill="#fff"/>
        <path id="Trazado_24" data-name="Trazado 24" d="M521.2,335.906c3.319,4.5,9.526.942,11.655-2.966a4.538,4.538,0,0,0,4.517,2.842c2.587.06,4.892-1.456,6.623-3.246a3.78,3.78,0,0,0,1.611,2.613c-.654.109-1.674.2-2.069.866a.71.71,0,0,0,.543,1.143,11.6,11.6,0,0,0,6.287-.011.98.98,0,0,0-.215-1.911.318.318,0,0,0,.03-.228,5.481,5.481,0,0,0,.841-.618,116.171,116.171,0,0,0,2.444,16.067l-.034,0c-3.936.967-8.093,1.644-12.04,2.57a20.18,20.18,0,0,1-3.309.442c-1.878.262-3.578.485-5.317.6l.05.041c-10.8.833-18.816-.394-18.833-13.17C517.376,342.778,520.614,339.094,521.2,335.906Z" transform="translate(-426.269 -256.114)" fill="#fff"/>
        <path id="Trazado_25" data-name="Trazado 25" d="M512.137,446.8c2.263,2.1,5.539,2.718,8.407,3.669a40.583,40.583,0,0,0,12.771,1.835,26.171,26.171,0,0,0,5.673-.318c-.009,3.536.123,7.131.422,10.678a61.462,61.462,0,0,1-8.339.752c-6.172-.2-12.557.034-18.552-1.914a.581.581,0,0,0-.219-.445c.045-4.646-.375-9.21-.443-13.811A1.324,1.324,0,0,0,512.137,446.8Z" transform="translate(-424.729 -338.899)" fill="#fff"/>
        <path id="Trazado_26" data-name="Trazado 26" d="M495.307,410.5c-2.754-.824-2.379-4.367-.074-5.482,1.3-.511,1.39.827,2.17.286a20.8,20.8,0,0,1,.4,5.723c-.121-.051-.224-.052-.332-.094l-.02.011v0A19.28,19.28,0,0,0,495.307,410.5Z" transform="translate(-411.338 -308.54)" fill="#fff"/>
        <path id="Trazado_27" data-name="Trazado 27" d="M227.127,195.262a66.57,66.57,0,0,1-8.044-6.569c-4.081-3.7-7.228-8.131-10.6-12.419a34.066,34.066,0,0,1-2.68-4.533,61.474,61.474,0,0,1-3.572-7.251,107.269,107.269,0,0,1-6.642-39.459c-.026-9.812.607-19.251,3.134-28.913l-.057.071c1.3-4.468,2.04-9.08,3.36-13.551l-.062.085c1.164-5,2.7-10.492,4.075-15.34.986-4.009,2.48-8.212,5.87-10.823a2.25,2.25,0,0,1,1.053,1.721c-.228.444-.919,1.968.207,1.812a.351.351,0,0,0,.492.275c.767-.353.452-1.36.431-2.039a17.065,17.065,0,0,1,1.6-3.145c1.016,1.193.132,4.734,1.3,5.18.707-.054.977-1.518,1.316-2.1.566-1.225,2.991-5.309,3.008-1.669.349,1.113-.417,4.71.645,4.972,1.183-.043,2.174-5.583,3.744-6.026,2.1-.342-1.092,12.2-1.32,13.8-1.664,8.65-3.342,17.483-4.988,26.134-1.058,5.312-1.194,10.311-1.732,15.737a102.138,102.138,0,0,0,.248,19.834c1.25,9.8,5.982,21.333,13.231,28.164,6.123,5.412,13.3,8.981,20.417,12.748-4.558,10.378-11.2,19.778-14.584,30.656C233.8,200.13,230.089,198.08,227.127,195.262Z" transform="translate(-195.587 -55.123)" fill="#fff"/>
        <path id="Trazado_28" data-name="Trazado 28" d="M459.607,519.967c-2.444.576-4.867,1.183-7.332,1.728-1.282.251-1.746,2.909.189,2.2.311,8.439-.209,16.882.51,25.285.432,3.455.435,7.068,1.137,10.4l-.553,27.654c-5.6.048-63.476.859-69.086.744-2.9-.089-5.78-.3-8.721-.361a45.8,45.8,0,0,1-11.837-1.363,194.716,194.716,0,0,0,1.24-24.739c.608-12.68.89-25.29,1.256-37.991.666-.326.928-1.658.055-1.892a.488.488,0,0,0-.876-.347c-5.672-2.318-10.622-5.561-15.682-8.854a120.633,120.633,0,0,1,8.256-17.3c2.473-4.318,4.529-8.926,6.786-13.4,2.6,1,5.159,2.192,7.82,3.061,2.316.606,4.835,1.1,7.181,1.711a69.457,69.457,0,0,0,7.775,1.5c2,.441,4.095.022,6.114.133,3.832,2.488,9.686,2.817,14.15,3.011a52.65,52.65,0,0,0,10.524-.2c1.637-.228,3.436-.252,4.742-1.426a30.939,30.939,0,0,0,6.165.252c3.948-.184,7.96.108,11.932.175,4.524-.056,9.083-.592,13.558-.942,4.226-.343,8.458-.528,12.674-1.148,1.028,4.293,2.338,8.431,3.147,12.722,1.086,4.869,1.585,9.866,3.046,14.629A84.483,84.483,0,0,1,459.607,519.967Z" transform="translate(-307.396 -364.204)" fill="#fff"/>
        <path id="Trazado_29" data-name="Trazado 29" d="M845.373,188.522c1.635,6.346,3.027,12.849,6.04,18.784a3.73,3.73,0,0,0-1.083,2.622,47.773,47.773,0,0,1-2.517,9.737c-3.769,10.979-8.242,21.824-14.318,31.725a67.79,67.79,0,0,1-16.7,20.263,86.628,86.628,0,0,1-26.636,15.836,259.65,259.65,0,0,0-6.107-26.954c23.272-2.283,40.721-22.264,47.869-43.468a89.687,89.687,0,0,0,5.055-24.938,212.368,212.368,0,0,1,3.73-23.668c1.635.647.724,3.592,1.782,4.686C842.668,178.432,844.007,183.419,845.373,188.522Z" transform="translate(-621.945 -137.238)" fill="#fff"/>
      </g>
      <path id="Trazado_30" data-name="Trazado 30" d="M1133.994,379.074a1.025,1.025,0,0,0-.706.376c-1.011.093-1.4,1.171-2,1.826l.032-.039c-2.148,2.837-11.688,16.149-10.375,18.967,2.219,3.355,5.911,5.785,8.953,8.358a165.648,165.648,0,0,0,16,11.423,204.538,204.538,0,0,0,31.434,15.894c-.193,4.485.132,9.3,1.822,13.486,1.247,1.821,3.315,2.981,5.2,4.026,5.059,1.337,4.979,6.166,5.113,10.453l.005-.055c.068,5.867.866,11.754-.129,17.57-.536,4.129-1.321,8.351-1.51,12.525.734,1.4,2.9,1.847,4.324,2.486,6.316,3.089,13.234,3.438,20.1,3.924a80.191,80.191,0,0,0,13.869,1.454c3.66.153,7.491.313,10.992-.871,1.9-.955,6.012.028,5.781-3.046l-.005.047c-.28-6.545.24-13.156.253-19.724l-.005.287c.289-6.39-.239-12.863.01-19.23,1.2,2.275,1.629,4.831,2.6,7.192,1.088,2.6,2,5.308,2.947,7.994,1.835,4.824,3.176,9.849,6.538,13.931,6.937,9.882,26.176,7.439,30.732-3.8a44.2,44.2,0,0,0,4.678-14.114c.8-3.861-1.385-3.866-4.358-4.546-4.251-.626-8.6-.5-12.735-1.8-1.922-2.623-4.178,9.629-4.629,10.8-1.564-10.741-3.259-21.546-5.77-32.1-1.474-7.231-.992-15.637-6.3-21.369h0c-1.94-2.031-3.75-4.27-6.372-5.465a28.99,28.99,0,0,0-11.395-1.761h0c-1.542-.028-3.04.13-4.563,0-.138-2.083-2.12.107-2.338,1.068-1.138,1.747-2.362,3.437-3.4,5.253-4.05,5.453-8.445,10.638-12.9,15.751-3.6-7.422-6.878-14.779-10.687-22.044.464-.753.065-1.909-1.039-1.472a34.428,34.428,0,0,1-4.476-.1,63.149,63.149,0,0,1-12.944-4.256h0a1.808,1.808,0,0,0-.2-.088l.026.014c-7.909-3.545-16.311-6.081-23.617-10.924-9.54-6.354-19.66-11.888-28.959-18.312Z" transform="translate(-695.235 -236.944)" fill="#ff7280"/>
      <path id="Trazado_31" data-name="Trazado 31" d="M989.844,840.57a1.123,1.123,0,0,0-.324,2.14c.749.485.806,2.475,1.917,1.862,1.528-.884-.531-3.607-1.593-4Zm-.435,2.006.034.041-.034-.041Z" transform="translate(-599.623 -571.306)" fill="#161616"/>
      <path id="Trazado_32" data-name="Trazado 32" d="M1003.509,831.995c-.723.729-.516,1.787-.537,2.716.175.77-.524,2.847.844,2.525,1.368-.569.828-2.275.939-3.435.065-.8-.026-2.817-1.245-1.806Z" transform="translate(-609.831 -564.892)" fill="#161616"/>
      <path id="Trazado_33" data-name="Trazado 33" d="M1014.234,835.145c-.676.427-.709,1.306-1.1,1.939-.275.526-1.084,1.28-.5,1.854,1.106.859,4.02-4.942,1.6-3.792Z" transform="translate(-616.7 -567.266)" fill="#161616"/>
      <path id="Trazado_34" data-name="Trazado 34" d="M842.306,798.833c-2.1.675-.2,2.763.4,3.907.462.691,1.377-.021,1.594-.584.462-.753-1.17-3.274-2-3.323Z" transform="translate(-492.748 -541.067)" fill="#161616"/>
      <path id="Trazado_35" data-name="Trazado 35" d="M856.952,794.772c-.925.385-1.019,1.485-.958,2.362.008.647-.7,1.975.377,2.031,1.34.181,2.179-4.913.581-4.394Z" transform="translate(-503.202 -538.098)" fill="#161616"/>
      <path id="Trazado_36" data-name="Trazado 36" d="M867.3,797.575c-.21.8-1.355,2.2-.235,2.728.623.163,1.283-.493,1.491-1.013.219-.795,1.333-2.2.224-2.72-.629-.159-1.271.492-1.481,1Z" transform="translate(-511.036 -539.41)" fill="#161616"/>
      <path id="Trazado_37" data-name="Trazado 37" d="M1178.284,778.335c-1.4.295-.958,1.855-.511,2.784.3.552.258,1.471.841,1.782a1.209,1.209,0,0,0,1.173-1.532c-.525-.908-.39-2.7-1.5-3.033Z" transform="translate(-736.18 -526.216)" fill="#161616"/>
      <path id="Trazado_38" data-name="Trazado 38" d="M1191.573,776.794c-.275.753-1.594,2.884-.631,3.358,1.416.054,1.38-1.9,1.912-2.825.51-1.093-.76-1.414-1.281-.534Z" transform="translate(-745.788 -524.732)" fill="#161616"/>
      <path id="Trazado_39" data-name="Trazado 39" d="M1204.039,777.772c-.476.96-2.288,2.1-1.381,3.234,1.289.5,1.987-1.483,2.769-2.209,1.02-1.372-.392-2.4-1.388-1.025Z" transform="translate(-754.346 -525.336)" fill="#161616"/>
      <path id="Trazado_40" data-name="Trazado 40" d="M1788.606,984.428c-1.272,1.1.132,2.155,1.007,2.908.637.469,1.054,1.488,1.865,1.6.818-.1,1.64-1.308.987-2-1.12-.72-2.38-3.746-3.859-2.51Z" transform="translate(-1178.688 -675.322)" fill="#161616"/>
      <path id="Trazado_41" data-name="Trazado 41" d="M1812.014,977.484c-1.432.274-1.326,2.029-1.208,3.151.147.777-.314,1.783.207,2.422,1.857.507,1.717-2.147,1.7-3.335-.144-.692.336-2.192-.7-2.238Z" transform="translate(-1195.096 -670.503)" fill="#161616"/>
      <path id="Trazado_42" data-name="Trazado 42" d="M1833.333,973.807c-.45,1.172-3.214,4.975-1.856,5.782.552.143,1.177-.441,1.348-.916a30.823,30.823,0,0,1,2-4.244c.612-1.26-.9-1.656-1.495-.622Z" transform="translate(-1209.849 -667.411)" fill="#161616"/>
      <path id="Trazado_43" data-name="Trazado 43" d="M1702.382,370.283c-3.856,1.035-3.854,6.218-3.767,9.482.161.65-.231,2.426.854,2.156,1.362-1.006,1.553-3.022,2.456-4.424.77-1.809,4.158-6.881.457-7.214Zm-.236,1.763c1.582.95-1.808,5.07-2.173,6.545.178-2.078-.193-5.716,2.173-6.545Zm-1.266,4.736-.054.1.054-.1Zm-1.851-2.491.072-.274c-.025.092-.048.182-.072.274Z" transform="translate(-1113.842 -230.575)" fill="#161616"/>
      <path id="Trazado_44" data-name="Trazado 44" d="M1721.208,384.9a7.8,7.8,0,0,0-5.287,2.886c-.862,1.077-5.98,6.518-4.159,7.388-.292,3.083,2.6.139,3.773-.389l-.044.025c3.143-1.717,7.064-2.918,8.761-6.377a2.606,2.606,0,0,0-3.043-3.533Zm-1.655,1.787c2.444-.985,5.1.7,2.322,2.782-1.791,1.776-4.319,2.226-6.418,3.485l.218-.123c-.7.388-1.394.8-2.081,1.221a14.56,14.56,0,0,1,3.543-5.51c.454-.391,1.085-.684,1.2-1.341a7.078,7.078,0,0,1,1.218-.515l-.065.018.065-.018Zm2.237,2.856-.057.049.057-.049Zm-9.121,2.838c-.027.052-.054.1-.081.157l.081-.157Z" transform="translate(-1123.101 -241.112)" fill="#161616"/>
      <path id="Trazado_45" data-name="Trazado 45" d="M1730.44,427.316c-2.736.565-5.028,2.241-7.611,3.205a1.342,1.342,0,0,0-1.192.685c-.339.452-.512,1.447.209,1.616,2.177.187,4.3.893,6.511.558,4.449.1,8.546-7.013,2.082-6.065Zm-.121,1.754c4.812-.111-.859,3.088-4.748,1.877a15.686,15.686,0,0,1,4.748-1.877Z" transform="translate(-1130.325 -271.833)" fill="#161616"/>
      <path id="Trazado_46" data-name="Trazado 46" d="M349.418,352.423c-8.283,3.366,5.926,15.428,6.83,11.961,1.785-.861-.8-3.462-.905-4.936-.928-2.793-1.946-8.012-5.925-7.024Zm.564,1.449c3.794,1.095,3.221,6.5,5.049,9.373-1.942-.967-10.122-8.488-5.049-9.373Z" transform="translate(-134.467 -217.546)" fill="#161616"/>
      <path id="Trazado_47" data-name="Trazado 47" d="M378.808,324.906c-6.36,2.405-1.05,13.132,1.59,16.929.49.58,1.056,2.143,1.982,1.533,1.832-1.665.869-4.67,1.265-6.918.341-3.952.866-11.728-4.837-11.543Zm.4,1.794c5.428,1.472,2.906,10.128,2.835,14.286-1.4-2.168-7.127-13.692-2.835-14.286Z" transform="translate(-155.456 -197.695)" fill="#161616"/>
      <path id="Trazado_48" data-name="Trazado 48" d="M423.245,341.962c-4.045.968-4.521,6.02-4.582,9.491.074,1.566-.464,3.872.727,5.018,1.46,1.423,2.386-2.787,3.37-3.5a24.527,24.527,0,0,0,3.158-5.246c.684-2.215.643-6.341-2.673-5.758Zm.218,1.833c4.211,1.614-1.731,8.118-3.121,10.252.086-2.98-.791-9.618,3.121-10.252Z" transform="translate(-186.465 -210.015)" fill="#161616"/>
      <path id="Trazado_49" data-name="Trazado 49" d="M921.03,164.072c-.311.42-.47,1.321.192,1.485,1.741.251,3.432.772,5.176,1.016.891.111,1.8-1.326,1.079-1.991-1.191-.642-2.666-.53-3.957-.906-.853-.151-1.962-.557-2.49.4Z" transform="translate(-550.287 -80.727)" fill="#161616"/>
      <path id="Trazado_50" data-name="Trazado 50" d="M946.511,123.567c-.4.406-.73,1.24-.2,1.671,1.4.744,2.387,1.981,3.659,2.873.856.393,1.783-.929,1.4-1.686-.916-.934-3.575-4.167-4.856-2.858Z" transform="translate(-568.599 -51.601)" fill="#161616"/>
      <path id="Trazado_51" data-name="Trazado 51" d="M993.695,75.1c-1.406.67-.453,2.353-.4,3.5.348,2.278.008,4.88.771,7,2.771.2.938-4.169,1.053-5.767-.263-.925-.088-5.166-1.425-4.734Z" transform="translate(-602.576 -16.687)" fill="#161616"/>
      <path id="Trazado_52" data-name="Trazado 52" d="M1048.629,94.928c-1.065,1.07-1.28,2.759-2.082,4.032-.339,1.056-2.391,3.443-1.01,4.205,1.794-.177,1.875-2.761,2.762-4,.344-.941,3-5.242.331-4.24Z" transform="translate(-640.347 -30.966)" fill="#161616"/>
      <path id="Trazado_53" data-name="Trazado 53" d="M1091.4,132.807c-1.337,1.612-3.249,2.607-4.628,4.156-1.464,4.071,3.636-.3,4.564-1.249l-.28.243c.837-.863,2.528-1.9,1.951-3.3-.389-.643-1.222-.268-1.608.152Z" transform="translate(-670.378 -58.158)" fill="#161616"/>
      <path id="Trazado_54" data-name="Trazado 54" d="M1096.92,189.94c-1.225,2.033,1.979,1.56,3.139,1.835,1.348.017,3.472.927,4.121-.76.687-1.951-2.516-.99-3.583-1.41-1.2.08-2.867-.893-3.676.335Z" transform="translate(-677.719 -99.46)" fill="#161616"/>
      <path id="Trazado_55" data-name="Trazado 55" d="M935.756,216.808c-1.52.132-6.137.758-4.929,3.058.531.252,1.1-.227,1.623-.346,1.03-.566,2.266-.4,3.3-.812.65-.365,1.114-1.923,0-1.9Z" transform="translate(-557.436 -119.379)" fill="#161616"/>
      <path id="Trazado_56" data-name="Trazado 56" d="M1198.494,782.68a68.818,68.818,0,0,0-30.153,9.581l.222-.141c-6.017,3.724-10.94,9.5-12.23,16.589-1.152,3.748-1.381,7.994.979,11.336,3.507,5.386,10.19,6.614,15.759,8.871a147.644,147.644,0,0,0,33.586,7.587c17.9,1.951,35.985,1.662,53.96,1.464a1.887,1.887,0,0,0,2.151-2.484.744.744,0,0,0-.768-.3,44.9,44.9,0,0,1-6.308.181c-10.258.024-20.526.021-30.781-.219-18-.513-36.2-2.931-53.112-9.271l.174.059-1.062-.363.022.007-.082-.028.048.017c-5.9-1.739-13.3-4.926-13.719-11.983a23.5,23.5,0,0,1,11.694-19.645l-.009.006c10.03-5.725,25.775-11.2,37.316-9.081-.778.507-.333,1.661.434.737,3.815-3.512-6.326-3.2-8.122-2.918Zm8.092,1.738a.357.357,0,0,1-.015.034l.015-.034Zm-22.117,2.8-.128.045.128-.045Zm-12.464,38.727-.011,0,.011,0Zm-.011,0-.021-.007.021.007Zm-1.032-.353.094.032-.123-.042.029.01Z" transform="translate(-720.353 -529.25)" fill="#161616"/>
      <path id="Trazado_57" data-name="Trazado 57" d="M1541.6,917.435c-1.607,1.661-.891,4.426-1.541,6.531-.486,4.955-1.575,9.793-1.927,14.742-.212,2.575-.233,15.5,3.772,7.994,1.889-4.844,2.579-10.064,3.75-15.111l-.013.061c.748-3.971,1.259-7.984,1.935-11.967a2.176,2.176,0,0,0-.041-1.649c-.586-.825-5.155-1.249-5.935-.6Zm2.825,10.808q-.026.13-.053.261c.018-.087.036-.174.053-.261Z" transform="translate(-997.529 -626.768)" fill="#161616"/>
      <path id="Trazado_58" data-name="Trazado 58" d="M1310.838,850.646c-3.7.707-22.49,4.278-21.02,9.161,4.683,2.556,10.549,2.051,15.739,2.932q16.207,1.738,32.218,4.823a149.911,149.911,0,0,1,23.218,3.772c1.186.083,2.358.575,3.532.546.9-.216,1.66-1.651.859-2.326-7.468-1.753-15.069-3.5-22.775-4.045-7.932-.864-15.76-2.578-23.682-3.582-9.21-1.336-18.68-1.121-27.722-3.363,5.2-3.535,11.45-4.779,17.482-6.128a12.513,12.513,0,0,1,3.995-.49c.562.048,1.283.369,1.595-.3.778-1.623-2.569-1.041-3.44-1Zm-19.829,7.722,0,.053a.288.288,0,0,1,0-.053Z" transform="translate(-817.617 -578.509)" fill="#161616"/>
      <path id="Trazado_59" data-name="Trazado 59" d="M1418.642,903.233a1.987,1.987,0,0,0-1.107,2.13c-1.043,5.648-2.721,11.167-3.415,16.879v-.005a10.541,10.541,0,0,0-.233,1.851c.3,1.066,1.559.185,1.684-.529.969-4.72,1.661-9.5,2.794-14.191-.023.111-.046.222-.069.331-.022-1.025,1.869-6.706.343-6.466Zm-4.451,18.663-.016.08.016-.08Z" transform="translate(-907.566 -616.701)" fill="#161616"/>
      <path id="Trazado_60" data-name="Trazado 60" d="M1526.215,805.677c-1.259.057-3.768.408-3.193,2.173a.491.491,0,0,0,.53.208c2.981-1.021,6.248-.333,9.3.059,6.13.855,12.241,1.808,18.276,3.2,6.426,1.015,12.918,1.963,18.769,5,13.721,5.924,19.485,27.615,2.96,34.023-9.293,4.44-19.955,5.114-30.1,4.6-9.071-.4-18.169-.743-27.169-2.011-1.723-.452-3.685-.128-5.279-.907-.632-.3-1.241.411-1.418.962-2.059,2.559,18.912,3.178,20.908,3.684,12.757.592,25.921,1.849,38.239-2.327,7.067-2.3,14.505-6.765,16.28-14.5a24.136,24.136,0,0,0-10.5-24.2c-6.508-3.834-13.912-5.407-21.319-6.364-8.657-1.644-17.44-3.6-26.279-3.585Zm56.647,33.345,0,.007,0-.007Z" transform="translate(-976.289 -546.026)" fill="#161616"/>
      <path id="Trazado_61" data-name="Trazado 61" d="M1477.763,866.536c-.807-.1-1.579,1.5-.654,1.787,4.5-.139,8.9.994,13.372,1.283,5.475.836,27.429,4.022,26.969,11.128-5.844,2.442-12.819.96-18.94.189-7.818-1.028-15.7-1.6-23.494-2.79-3.716-.47-7.437-1.135-11.154-1.479-2.131.622-1.977,3.527-2.642,5.234-.615.95.307,1.837,1.08.839.875-1.152.643-2.725,1.272-3.991,9.81,1.476,19.654,2.685,29.521,3.7,7.224.715,14.525,2.381,21.784,1.06,3.779-.233,5.636-4.136,3.155-7.1-2.254-2.448-5.592-3.8-8.672-4.923a81.111,81.111,0,0,0-16.417-3.519c-5.055-.476-10.1-1.424-15.182-1.42Zm-16.391,15.128-.006.014.006-.014Z" transform="translate(-941.715 -590.116)" fill="#161616"/>
      <path id="Trazado_62" data-name="Trazado 62" d="M1467.413,907.379c-2.062-1.593-3.258,7.822-.767,5.668,2.106,1.121,1.53-3.352,1.717-4.48.3-.749,0-1.956-.949-1.188Z" transform="translate(-944.777 -619.533)" fill="#161616"/>
      <path id="Trazado_63" data-name="Trazado 63" d="M1459.291,901.658c-1.8,1.588-2.114,4.505-2.24,6.776h0c.183.8,1.125.351,1.367-.171.6-1.5.474-3.223,1.155-4.716,1.292.143,3.681,2.118,4.056-.052-.032-1.09-2.606-1.253-3.462-1.852l.024.008-.177-.06.027.009a.812.812,0,0,0-.75.058Zm.5,1.528-.052.05c.016-.018.034-.034.052-.05Z" transform="translate(-938.84 -615.475)" fill="#161616"/>
      <path id="Trazado_64" data-name="Trazado 64" d="M1471.712,906.526c-.559.772-2.743,4.97-1.151,5.177.88-.2.85-1.244.956-1.953,0-.773,2.193-3.981.2-3.224Z" transform="translate(-948.214 -619.01)" fill="#161616"/>
      <path id="Trazado_65" data-name="Trazado 65" d="M1584.427,923.1c-.7,3.933-1.525,7.823-2.484,11.7l.039-.192c-.248,1.7-.957,3.569-.555,5.26.829.972,2.135-.51,2.116-1.42a10.946,10.946,0,0,1,.212-1.741l-.087.426c.141-.685.239-1.376.374-2.062-.008.039-.015.077-.023.115.067-1.2,4.816-18.256.408-12.091Zm-2.5,11.8q-.032.157-.064.315.032-.158.064-.315Zm2.231-10.565c.027-.133.054-.266.081-.4-.027.132-.054.266-.081.4Z" transform="translate(-1028.865 -630.133)" fill="#161616"/>
      <path id="Trazado_66" data-name="Trazado 66" d="M1442.991,989.75a5.6,5.6,0,0,0-1.079,1.169c-2.371-3.987-5.008,5.915-2.964,6.789,1.789.653,2.754-1.354,3.484-2.641.835-1.589,2.4-3.072,2.216-4.992-.129-.834-1.166-.8-1.656-.325Z" transform="translate(-925.193 -679.146)" fill="#161616"/>
      <path id="Trazado_67" data-name="Trazado 67" d="M1680.929,513.1c-4.244,1.2-4.82,20.375-5.119,24.867-.6,7.907-1.485,15.807-1.937,23.722.01.754.805.1.8-.35.987-4.772,1.414-9.628,2.092-14.448,1.12-7.348,1.439-14.76,2.159-22.145.634-3.29.023-7.019,1.839-9.966.967,2.144-.381,4.855.454,6.9,2.54-.207,1.145-5.948,4.307-6.651.941,1.162-.8,6.951,1.044,6.5,1.313-.547.256-4.761.432-6.206-.139-3.955-4.2-.385-4.685,1.592-.122-1.192.282-3.7-1.386-3.812Zm-.288,1.584h0Zm4.843.319h0Zm.067.028a.416.416,0,0,1,.044.042l-.044-.042Z" transform="translate(-1095.93 -334.05)" fill="#161616"/>
      <path id="Trazado_68" data-name="Trazado 68" d="M1721.434,515.273c-2.1,1.572-2.217,4.351-3.213,6.583-.46,1.057.779,1.116,1.02.2.9-1.782.854-4.112,2.459-5.464.7,1.052-1.405,7.552.6,6.247,1.143-1.552.914-3.866,2.194-5.421.482,6.614-1.157,13.364-1.357,20.023-.721,9.435-.809,18.914-1.5,28.355.032,3.24,3.247.278,2.68-2.1.441-10.562.376-21.141,1.06-31.689-.211-1.964,2.8-22.254-2.3-14.64.074-1.041-.178-3.211-1.648-2.09Zm.18,1.2a.31.31,0,0,1,.047.016l-.047-.016Zm.076.065h0l-.008,0,.008,0Zm0,.042-.038.037.038-.037Zm2.963.681-.035.012a.3.3,0,0,1,.035-.012Zm-.148.073h0Zm.03.012h0Zm-.016.041.008.008-.009-.008Z" transform="translate(-1127.989 -335.396)" fill="#161616"/>
      <path id="Trazado_69" data-name="Trazado 69" d="M1676.458,548.327c-.855-.332-.977,6.885-1.293,7.916-1.17,10.1-1.24,20.326-3.115,30.33-.1,1.887,2.171.983,2.389-.32,1.3-6.747,1.4-13.67,1.5-20.52-.017-4.042.215-8.09.563-12.118-.091-1.092.963-4.971-.042-5.288Z" transform="translate(-1094.608 -359.563)" fill="#161616"/>
      <path id="Trazado_70" data-name="Trazado 70" d="M1357.859,296.253a1.45,1.45,0,0,0-.817.2c-8.554-.07-16.508,6-20.293,13.47-3.975,9.375-2.56,10.194-12.411,14.788a9.286,9.286,0,0,0-5.521,9.165c-.063,2.048,1.433,4.571.518,6.554-.584.6-1.186,1.17-1.815,1.73-.674.578-2.085,1.026-1.794,2.19-.5,1.5,1.852,1.788,2.677,2.581,1.74,1.064,3.521,2.1,5.349,3.006a29.07,29.07,0,0,0,14.344,3.1c2.912-.09,5.807.775,8.7.343l-.116.011c2.078-.048,1.595-2.632,1.716-4.055,0-1.958.279-4.213.359-6.26-.162-1.491.89-3.741-.059-4.889-3.867-1.7-8.193-4.356-8.288-9.106.065-6.734,2.029-13.326,2.811-19.989a64.5,64.5,0,0,0,14.313-5.739c.591,2.768,3.4,4.542,5.184,6.6,3.158,3.181,6.518,6.441,10.7,8.324-.129,1.288-1.12,7.393-.109,7.83-.182,1.03,1.339.694,1.963,1,1.242.183,4.083,1.172,2.414,2.644-1.115.973-2.736,1-3.795,1.893-1.249,5.686-1.146,11.878-1.235,17.684.268,1.044-.623,4.613.474,4.818.19.636,1.122.655,1.661.794,2.224.49,4.53.36,6.746.694,9.085.617,17.082,5.327,19.553,14.513.423.938.437,3.173,1.9,1.88,3.411-2.168,6.115-5.808,4.618-10.005-.487-1.5-1.263-2.9-1.158-4.537.534-7.776-4.223-11.088-11.159-12.611-7.739-1.956,1.16-11.767-6.5-16.9a27.961,27.961,0,0,0-4.559-2.461c-5.749-1.808-4.171-8.955-6.075-13.523a22.9,22.9,0,0,0-10.392-13.155,18.578,18.578,0,0,0-6.611-2.348c-1.12-.155-2.224-.017-3.287-.242Z" transform="translate(-836.396 -176.938)" fill="#161616"/>
      <path id="Trazado_71" data-name="Trazado 71" d="M1280.424,560.557a.948.948,0,0,0-.722.422c-.717.141-.954,4.23-1.241,5.111-.759,4.747-.122,10.891,5.126,12.609a17.005,17.005,0,0,0,5.8,1.034c1.726.393,3.693.18,3.565-2.048-.109-3.685,2.037-8.188.621-11.595-3.185-2.365-7.413-2.6-10.869-4.375-.79-.308-1.5-.891-2.284-1.158Z" transform="translate(-809.256 -368.432)" fill="#161616"/>
      <path id="Trazado_72" data-name="Trazado 72" d="M1426.84,367.039c-.869,2.609-3.375,4.1-4.785,6.335-1.087,2.55,1.975,2.83,3.45,1.484,1.409-.69,1.662-2.568-.206-1.067-6.082,2.648.661-3.219,1.452-4.815.216-.676,1.165-1.653.654-2.294-.242-.11-.477.167-.565.358Z" transform="translate(-913.318 -227.946)" fill="#161616"/>
      <path id="Trazado_73" data-name="Trazado 73" d="M1423.545,409.126a.728.728,0,0,0-.111.621c-.1,1.673-.285,3.926.91,5.24a2.625,2.625,0,0,0,3.688-.145c.971-1,1.928-3.909,1.166-5.106-1.662-.6-3.551-.233-5.169-.834-.183-.1-.39.089-.484.225Zm.877,2c-.022-.3-.053-.6-.064-.9,1.451.22,2.917.372,4.373.552.075,4.5-4.463,5.38-4.309.352Zm4.428-.358h0Zm.027,0,.009,0-.009,0Zm-.156.29c0,.011,0,.021,0,.032l0-.032Z" transform="translate(-914.43 -258.535)" fill="#161616"/>
      <path id="Trazado_74" data-name="Trazado 74" d="M1412.808,366.977c-.726.472-.375,1.712.008,2.332,1.274,1.891,4.117.353,4.7-1.41.24-.424-.221-.855-.523-.377-.647,1.826-4.175,2.237-3.864-.257a.261.261,0,0,0-.323-.288Z" transform="translate(-906.479 -228.171)" fill="#161616"/>
      <path id="Trazado_75" data-name="Trazado 75" d="M1413.387,375.271c-.207.478-.681.839-.731,1.374-.015.292.346.293.453.069.262-.459.949-1,.725-1.561-.135-.158-.366-.026-.448.118Z" transform="translate(-906.674 -234.051)" fill="#161616"/>
      <path id="Trazado_76" data-name="Trazado 76" d="M1417.829,375.919c-.166.54-1.1,1.118-.8,1.668.136.052.245-.081.3-.188.1-.178,1.408-1.945.5-1.48Z" transform="translate(-909.801 -234.602)" fill="#161616"/>
      <path id="Trazado_77" data-name="Trazado 77" d="M1462.653,370.174c-.718.349-.532,1.407-.385,2.048a3.4,3.4,0,0,0,3.7,2.372c1.312.2,4.182-2.155,3.678-3.4-.16-.072-.307.07-.4.183a3.665,3.665,0,0,1-5.362,1.282c-1.139-.7-.5-2.654-1.231-2.486Z" transform="translate(-942.521 -230.488)" fill="#161616"/>
      <path id="Trazado_78" data-name="Trazado 78" d="M1470.829,383c-.068.469-1.185,1.646-.469,1.855.446-.393.441-1.192.789-1.711.158-.293-.2-.458-.32-.144Z" transform="translate(-948.309 -239.664)" fill="#161616"/>
      <path id="Trazado_79" data-name="Trazado 79" d="M1474.973,381.878c-.256.384-1.564,2.668-.325,2.146.338-.51.364-1.188.751-1.692.32-.37-.083-.963-.426-.454Zm.287.7-.033.057.033-.057Z" transform="translate(-951.209 -238.832)" fill="#161616"/>
      <path id="Trazado_80" data-name="Trazado 80" d="M1460.648,396.526a2.487,2.487,0,0,0-1.017,1.437c.007.458.526.293.625-.031l-.039.07c.221-.526,1.055-.779.911-1.419-.066-.233-.342-.214-.48-.056Z" transform="translate(-940.709 -249.502)" fill="#161616"/>
      <path id="Trazado_81" data-name="Trazado 81" d="M1467.194,396.654c-.18.53-1.157,1.522-.514,1.944.593-.173.543-1.076.919-1.511.306-.353-.079-.919-.406-.433Zm.335.557-.023.04.023-.04Z" transform="translate(-945.66 -249.544)" fill="#161616"/>
      <path id="Trazado_82" data-name="Trazado 82" d="M1473.759,397.143c-.023.134-.052.266-.086.4l0-.01c-.154.276-.879,1.5-.025,1.082.3-.231.881-2.571.108-1.469Zm-.1.454-.009.028.009-.028Z" transform="translate(-950.571 -249.822)" fill="#161616"/>
      <path id="Trazado_83" data-name="Trazado 83" d="M1409.762,392.821c-.355.392-1.515,1.674-.569,1.892.361-.291.518-.839.9-1.161.391-.3.2-1.209-.33-.731Z" transform="translate(-903.902 -246.805)" fill="#161616"/>
      <path id="Trazado_84" data-name="Trazado 84" d="M1414.4,393.058c-.078.537-.865,1.19-.462,1.68.6.233,1.549-2.937.462-1.68Z" transform="translate(-907.523 -246.861)" fill="#161616"/>
      <path id="Trazado_85" data-name="Trazado 85" d="M1416.679,348.968c-1.191.11-2.417.207-3.581.2-.5.355-.305,1,.332.929,1.592.066,3.184-.318,4.762.026a.65.65,0,0,0,.512-.676c-.154-.645-1.471-.456-2.024-.48Z" transform="translate(-906.791 -215.125)" fill="#161616"/>
      <path id="Trazado_86" data-name="Trazado 86" d="M1461.12,349.888c-.814.062-2.6-.37-2.428.949.036.1.135.234.262.217a21.53,21.53,0,0,1,5.682.3c.888-.191,3.97,1.551,3.993.577-1.376-1.984-5.206-1.951-7.509-2.039Zm4.376,1.58.069.015-.069-.015Z" transform="translate(-940.021 -215.783)" fill="#161616"/>
      <path id="Trazado_87" data-name="Trazado 87" d="M438.284,142.113a105.387,105.387,0,0,1-21.74-27.814,87.591,87.591,0,0,1-9.637-26.259c-.255-.859-.456-1.738-.776-2.577-1.1-2.432-2.9.443-2.852,1.949-.384-2.325-1.752-7.624-3.714-3.016-.612-2.825-2.9-1.246-3.18.756-1.144-4.529-4.144-1.525-3.8,1.576a.432.432,0,0,0-.406-.047c.255-3.7-3.336-5.384-4.044-.892a56.9,56.9,0,0,0-1.85,8.916c-.623,4.134-1.493,8.235-1.858,12.408-.59,8.54-1.923,17.484-4.858,25.554A72.261,72.261,0,0,1,360.8,162.489c-5.914,4.87-12.675,9.411-20.252,11.088-10.262,2.565-20.853,2.718-31.342,3.583-5.244.222-10.145-.567-15.377-.331-1.183-.01-2.351.025-3.528-.024-1.115.106-2.192-.435-3.247-.1-.146-3.178-.2-6.357-.349-9.576-.007-.155-.025-.529-.031-.683-.139-.542.357-1.042-.07-1.516,0-.2-.019-.476-.031-.687a25.227,25.227,0,0,0,6.643-2.14c4.713-1.765,7.8-6.984,7.5-12.038a64.66,64.66,0,0,0-1.491-7.8c-.714-3.788-1.607-7.563-2.243-11.344,2.582,3.1,6.433-.4,7.171-3.354,1.047-2.952-1.04-7.491-4.635-6.631,2.512-9.077-6.305-13.547-13.009-7.361-3.949-6.5-13.132-6.539-16.7.223-4.805-2.756-9.854,1.578-10.513,6.525-2.3-1.115-5.012-.095-6.769,1.577a9.823,9.823,0,0,0-2.093,10.425c-3.685,3.069-3.743,9.784-.443,13.181-3.386,2.035-3.954,9.021-.67,11.306-1.874,4.161,4.239,5.718,7.256,5.55-.106,4.52.6,8.783.541,13.312a36.661,36.661,0,0,1-4.479-.017,103.079,103.079,0,0,1-10.708-2.275c-7.939-1.508-15.2-5.536-22.241-9.261-9.9-5.824-15.748-9.964-20.345-20.743-7.327-14.8-4.988-34.095-2.726-50.046.98-4.5,1.582-9.118,2.541-13.437.662-2.907,1.212-5.839,1.674-8.814.924-5.322,2.3-10.021,2.567-15.284.157-6.506-4.194-2.967-5.355.942-.1-1.3.39-4.328-1.358-4.7-1.982.412-2.946,2.712-3.814,4.306-.052-4.388-1.641-6.121-3.669-1.215-.616-1.655-1.908-2.1-3.136-.371a19.26,19.26,0,0,0-4.7,7.8c-3.041,10.019-5.628,20.084-7.962,30.3a104.039,104.039,0,0,0-3.581,29.374,108.974,108.974,0,0,0,6.434,41.049,74.62,74.62,0,0,0,19.321,27.317,36.148,36.148,0,0,0,4.776,3.759A69.679,69.679,0,0,0,207.5,199.9l-.02-.054c6.669,4.905,13.6,9.563,21.246,12.776-1.259,12.55-1.351,25.39-1.873,37.971l.037-.043c-.332,5.737.121,11.317-.29,17.036-.08,3.1-.805,5.915-.6,8.919-7.81,1.24-15.516,4.823-22.91,7.767-9.345,3.984-18.324,8.318-26.425,14.709a53.293,53.293,0,0,0-10.2,9.611c-5.724,7.255-8.281,19.493.452,25.393,3.735,3.109,8.248,4.312,12.767,5.4a97.6,97.6,0,0,0,13.69,2.888c21.3,2.216,42.7-.049,64.11-.443,9.983-.332,19.992-.773,29.946-1.766,6.655-.674,13.507-.923,19.914-3.029a24.453,24.453,0,0,0,2,7.191c1.247,2.515,4.023.929,4.414-1.216,1.188-3.5.866-7.68,1.457-11.262a199.387,199.387,0,0,0,37.556,1.663c11.951-1.173,25.668-1.419,35.529-9.216,6.433-4.786,7.906-13.9,6.754-21.462a26.106,26.106,0,0,0-7.612-14.257c-6.112-4.892-13.138-9.076-21.04-10.653-8.283-2.578-17-1.015-25.4-3.074-9.666-2.368-21.021,4.4-20.924.2l-.656-32.319c-.148-2.464-.294-5.035-.5-7.455-.432-7.4-.329-14.935-.606-22.362,8.857-1.629,17.163-4.981,25.444-8.448,17.292-7.608,32.563-20.337,41.376-37.177a135.936,135.936,0,0,0,9.941-21.069A81.153,81.153,0,0,0,401,124.6c2.881,6.1,5.661,12.589,8.995,18.42,2.566,4.841,6.2,9.068,9.434,13.475a67.856,67.856,0,0,0,4.9,5.807c.628.839,1.9,2.071,2.174.28.046-.679-.725-1.037-1.08-1.53-1.082-1.166-2.037-2.327-3.1-3.566a148.924,148.924,0,0,1-10.446-15.107l.068.142c-2.3-3.766-3.956-8.128-5.964-12.11-2.652-5.612-5.448-11.047-7.255-16.958-2.008-7.7-4.782-15.438-5.6-23.334,1.143-.7-.468-4.532,1.083-5.679,1.69.573,1.494,10.212,3.406,7.766.789-2.111-1.329-6.159.363-7.982,1.486.228.911,11.182,2.981,6.889.1-2.236-.809-4.7-.033-6.876a17.849,17.849,0,0,1,1.3,6.645c-.01.891,1.024.739,1.29.165.749-1.454.366-3.391,1-4.872.638-.8.875,2.187,1.056,2.539.735,3.651,1.27,7.4,2.3,10.882a81.187,81.187,0,0,0,7.8,17.731,99.2,99.2,0,0,0,21.4,26.517c.562.543,1.42,1.669,2.042.576C439.791,143.455,438.908,142.773,438.284,142.113Z" transform="translate(0 0)" fill="#161616"/>
      <path id="Trazado_88" data-name="Trazado 88" d="M522.507,338.464c3.318,4.5,9.526.942,11.655-2.966a4.538,4.538,0,0,0,4.517,2.842c2.587.06,4.892-1.456,6.623-3.246a3.78,3.78,0,0,0,1.611,2.613c-.654.109-1.675.2-2.069.866a.71.71,0,0,0,.543,1.143,11.6,11.6,0,0,0,6.287-.011.981.981,0,0,0-.215-1.911.317.317,0,0,0,.03-.228,5.483,5.483,0,0,0,.841-.618,116.216,116.216,0,0,0,2.443,16.067l-.034,0c-3.935.967-8.093,1.644-12.04,2.57a20.183,20.183,0,0,1-3.309.442c-1.878.262-3.579.485-5.317.6l.05.04c-10.8.833-18.815-.394-18.833-13.17C518.687,345.336,521.925,341.652,522.507,338.464Z" transform="translate(-256.517 -205.079)" fill="#fff"/>
      <path id="Trazado_89" data-name="Trazado 89" d="M513.448,449.356c2.263,2.1,5.539,2.718,8.407,3.669a40.582,40.582,0,0,0,12.771,1.835,26.174,26.174,0,0,0,5.673-.318c-.009,3.536.123,7.131.422,10.678a61.457,61.457,0,0,1-8.339.752c-6.172-.2-12.558.034-18.552-1.914a.583.583,0,0,0-.22-.445c.045-4.646-.375-9.21-.443-13.811A1.324,1.324,0,0,0,513.448,449.356Z" transform="translate(-254.977 -287.864)" fill="#fff"/>
      <path id="Trazado_90" data-name="Trazado 90" d="M228.438,197.82a66.563,66.563,0,0,1-8.043-6.569c-4.081-3.7-7.228-8.131-10.6-12.419a34.066,34.066,0,0,1-2.68-4.533,61.422,61.422,0,0,1-3.572-7.251,107.269,107.269,0,0,1-6.642-39.459c-.026-9.812.607-19.251,3.134-28.913l-.057.071c1.3-4.468,2.04-9.08,3.36-13.551l-.062.085c1.164-5,2.7-10.492,4.075-15.34.986-4.009,2.48-8.212,5.87-10.823a2.25,2.25,0,0,1,1.053,1.721c-.228.444-.919,1.968.207,1.812a.351.351,0,0,0,.491.275c.767-.353.452-1.36.431-2.039a17.068,17.068,0,0,1,1.6-3.146c1.016,1.193.132,4.734,1.3,5.18.707-.054.977-1.518,1.317-2.1.566-1.225,2.991-5.309,3.008-1.669.349,1.113-.417,4.71.645,4.972,1.183-.043,2.174-5.583,3.744-6.026,2.1-.342-1.092,12.2-1.321,13.8-1.664,8.65-3.342,17.483-4.988,26.134-1.058,5.312-1.194,10.311-1.732,15.737a102.137,102.137,0,0,0,.249,19.834c1.25,9.8,5.982,21.333,13.231,28.164,6.122,5.412,13.3,8.981,20.417,12.748-4.558,10.378-11.2,19.778-14.584,30.656C235.116,202.688,231.4,200.638,228.438,197.82Z" transform="translate(-25.835 -4.089)" fill="#fff"/>
      <path id="Trazado_91" data-name="Trazado 91" d="M589.9,997.257c.021-.067.041-.137.056-.207.046.013.1.023.151.032C590.045,997.122,589.957,997.211,589.9,997.257Z" transform="translate(-310.571 -684.679)" fill="#161616"/>
      <path id="Trazado_92" data-name="Trazado 92" d="M602.22,999.055c-.654.018-1.3.055-1.964.073.229-.479.639-.79.729-1.31.579.012,1.16.011,1.738.038A7.714,7.714,0,0,0,602.22,999.055Z" transform="translate(-318.075 -685.236)" fill="#161616"/>
      <path id="Trazado_93" data-name="Trazado 93" d="M688.679,1018.8a77.557,77.557,0,0,0-1.07,11.022c-.486.073-1,.315-1.489.409.29-6.5,1.753-12.817,2.639-19.219.249,0,.982,0,1.221,0A64.626,64.626,0,0,0,688.679,1018.8Z" transform="translate(-380.285 -694.796)" fill="#fff"/>
      <path id="Trazado_94" data-name="Trazado 94" d="M647.206,1001.267c-.184,1.128-.226,2.293-.332,3.431a98,98,0,0,0-1.121,9.766c-.4-.044-.758-.094-1.1-.153.478-3.624.857-7.237,1.388-10.881-.029-.91.668-2.922-.246-3.445.317-1.356-1.523-.9-2.322-1.007-2.186,0-4.365.074-6.549.062-7.063.253-14.27-.385-21.419-.165a8.546,8.546,0,0,1,.433-1.061c10.612-.454,21.273.57,31.905.108C646.988,998.758,647.5,1000.264,647.206,1001.267Z" transform="translate(-329.121 -685.145)" fill="#161616"/>
      <path id="Trazado_95" data-name="Trazado 95" d="M438.722,949.385c6.044-1.275,12.128-2.357,18.263-3.09a1.217,1.217,0,0,1,.724.114,109.944,109.944,0,0,1,11.347,1.569c6.171,1.527,9.785,7.628.791,8.088-7.481.493-15.084,1.952-22.515,2.214-13.94.724-27.423-.109-41.349.08v0c-2.984.366-6.012-.212-8.949.361-1.268-.519-2.568-.163-3.887-.215-1.835.391-1.955,2.173-2.542,3.578-15.631.74-31.485,1.35-47.121,2.071-4.454.3-8.949.209-13.415.312-3.083.131-14.113-1.345-5.791-3.8a148.741,148.741,0,0,1,37.008-5.622,43.712,43.712,0,0,1,5.177.13c6.165.025,12.329.154,18.494.206,12,.1,24.113-.027,35.967-2.076C426.908,952.266,432.781,950.638,438.722,949.385Z" transform="translate(-115.917 -647.897)" fill="#fff"/>
      <path id="Trazado_96" data-name="Trazado 96" d="M460.918,522.525c-2.444.576-4.867,1.183-7.331,1.728-1.283.251-1.746,2.909.188,2.2.311,8.438-.209,16.882.51,25.285.432,3.455.435,7.068,1.137,10.4l-.553,27.654c-5.6.048-63.476.859-69.086.744-2.9-.089-5.78-.3-8.721-.361a45.793,45.793,0,0,1-11.837-1.363,194.675,194.675,0,0,0,1.24-24.739c.609-12.68.89-25.29,1.256-37.991.666-.326.928-1.658.055-1.892a.488.488,0,0,0-.875-.347c-5.672-2.318-10.622-5.56-15.682-8.854a120.675,120.675,0,0,1,8.256-17.3c2.473-4.318,4.529-8.926,6.787-13.4,2.6,1,5.159,2.192,7.82,3.061,2.316.606,4.834,1.1,7.181,1.711a69.489,69.489,0,0,0,7.775,1.5c2,.441,4.1.022,6.114.133,3.832,2.488,9.686,2.817,14.151,3.011a52.646,52.646,0,0,0,10.524-.2c1.637-.228,3.436-.252,4.742-1.426a30.937,30.937,0,0,0,6.165.252c3.948-.184,7.96.108,11.932.175,4.524-.056,9.083-.592,13.558-.942,4.226-.343,8.458-.528,12.674-1.148,1.028,4.293,2.338,8.431,3.146,12.722,1.086,4.869,1.585,9.866,3.045,14.629A84.478,84.478,0,0,1,460.918,522.525Z" transform="translate(-137.644 -313.17)" fill="#fff"/>
      <path id="Trazado_97" data-name="Trazado 97" d="M846.685,191.08c1.635,6.346,3.027,12.849,6.04,18.784a3.731,3.731,0,0,0-1.083,2.622,47.8,47.8,0,0,1-2.517,9.737c-3.769,10.979-8.241,21.824-14.318,31.725a67.789,67.789,0,0,1-16.7,20.263c-7.783,6.967-16.8,11.98-26.636,15.836a259.725,259.725,0,0,0-6.107-26.954c23.272-2.283,40.721-22.264,47.869-43.468a89.692,89.692,0,0,0,5.055-24.938,212.313,212.313,0,0,1,3.73-23.669c1.635.647.724,3.592,1.782,4.686C843.98,180.99,845.319,185.977,846.685,191.08Z" transform="translate(-452.193 -86.203)" fill="#fff"/>
      <path id="Trazado_98" data-name="Trazado 98" d="M774.807,679.687c-.2.961-2.474,8.341.164,6.3,1.01-1.829.578-4.187,1.4-6.139.507-1.495-1.295-1.3-1.566-.158Z" transform="translate(-443.742 -454.083)" fill="#161616"/>
      <path id="Trazado_99" data-name="Trazado 99" d="M812.653,679.383a31.13,31.13,0,0,1-1.818,4.708c-.573,1.5,1.116,1.822,1.758.6.513-1.118,3.129-5.893,1.553-6.474-.67-.122-1.317.61-1.494,1.17Z" transform="translate(-470.559 -453.666)" fill="#161616"/>
      <path id="Trazado_100" data-name="Trazado 100" d="M848.347,707.559c-1.407.772-2.385,2.275-3.726,3.207-.833.859-2.519,1.429-2.392,2.842.725,1.822,3.351-1.82,4.228-2.351l-.032.028c.645-.763,4.049-3.1,1.921-3.725Z" transform="translate(-493.384 -474.938)" fill="#161616"/>
      <path id="Trazado_101" data-name="Trazado 101" d="M870.66,748.964c-1.929.588-6.879.957-7.715,2.774-.248.523-.049,1.418.677,1.288,2.234-.567,4.294-1.723,6.618-1.994.916-.074,1.709-2.062.419-2.069Z" transform="translate(-508.325 -504.936)" fill="#161616"/>
      <path id="Trazado_102" data-name="Trazado 102" d="M1178.435,695.043c-.374.391-.692,1.228-.166,1.617,2.2,1.061,4.161,2.585,6.515,3.32.632.295,1.354.788,1.9.067.382-.409.693-1.219.169-1.642-1.435-.971-3.245-1.235-4.684-2.244-1.151-.375-2.607-2.186-3.737-1.119Z" transform="translate(-736.656 -465.628)" fill="#161616"/>
      <path id="Trazado_103" data-name="Trazado 103" d="M1200.053,647.425c-1.562,1.16.133,2.458,1.032,3.377a40.764,40.764,0,0,1,4.61,5.242c.445.5.761,1.258,1.373,1.552a1.3,1.3,0,0,0,1.145-1.727c-.294-1.094-7.387-9.842-8.16-8.443Zm2.2,4.524.066.07-.066-.07Z" transform="translate(-752.179 -431.26)" fill="#161616"/>
      <path id="Trazado_104" data-name="Trazado 104" d="M1247.485,638.188c-1.934.721,1.38,6.42,1.3,8.406.145,1.878,1.5,2.2,2.051.325-.229-.887-2.438-9.8-3.35-8.731Z" transform="translate(-786.566 -424.613)" fill="#161616"/>
      <path id="Trazado_105" data-name="Trazado 105" d="M1298.115,647.153c-1.761.515-1.3,2.889-1.748,4.291.006,1.051-1.247,3.561.4,3.708,1.77-.475,1.32-2.789,1.682-4.18-.1-1.089,1.326-3.63-.332-3.82Z" transform="translate(-822.094 -431.172)" fill="#161616"/>
      <path id="Trazado_106" data-name="Trazado 106" d="M500.4,323.539c-.978.474-.058,2.242.777,1.421.7-.49-.024-1.906-.777-1.421Z" transform="translate(-245.426 -196.635)" fill="#fefefe"/>
      <path id="Trazado_107" data-name="Trazado 107" d="M534.388,315.405c-1.286.933.481,2.262,1.12,3.062.875.319,1.451-1.1.666-1.59l.018.02c-.573-.436-.926-2.007-1.8-1.492Z" transform="translate(-270.021 -190.74)" fill="#fefefe"/>
      <path id="Trazado_108" data-name="Trazado 108" d="M572.076,297.05c-1.185.441-1.28,2.822-1.3,3.928.393.533,1.091-.173,1.137-.636-.091-.834,1.279-3.065.165-3.292Z" transform="translate(-296.716 -177.516)" fill="#fefefe"/>
      <path id="Trazado_109" data-name="Trazado 109" d="M619.7,300.283c-1.784,1.318.765,3.264,1.775,4.26.873.449,1.96-1.1,1.25-1.782-1.078-.513-1.76-3.213-3.025-2.478Z" transform="translate(-331.716 -179.767)" fill="#fefefe"/>
      <path id="Trazado_110" data-name="Trazado 110" d="M264.426,993.655c-.882.391-3.49.414-2.787,1.887a8.079,8.079,0,0,0,3.04-.834c.409-.3.459-1.3-.253-1.053Z" transform="translate(-72.655 -682.192)" fill="#fefefe"/>
      <path id="Trazado_111" data-name="Trazado 111" d="M271.486,1015.526c-.144.808-1.688,2.649-1.016,3.211,1.1-.3,1.223-2.2,1.828-3.093.3-.743-.651-.71-.812-.118Z" transform="translate(-79.017 -697.745)" fill="#fefefe"/>
      <path id="Trazado_112" data-name="Trazado 112" d="M890.167,915.865c-.639.607-2.4,4.047-1.2,4.4,1.232-.469.758-2.35,1.563-3.289.537-.524.7-1.869-.358-1.109Z" transform="translate(-526.954 -625.694)" fill="#fefefe"/>
      <path id="Trazado_113" data-name="Trazado 113" d="M903.134,918.883c-.895.395-1.481,1.336-2.281,1.9-.485.32-1.582,1.186-.739,1.685.615.031,4.754-3.323,3.021-3.589Z" transform="translate(-535.104 -628.046)" fill="#fefefe"/>
      <path id="Trazado_114" data-name="Trazado 114" d="M1360.668,359.076c-1.42,2.615-1.818,5.74-3.9,8.006-4.051,3.736-9.861,3.951-11.135,10.827-.08.331.137.729.514.67,1.152-.293,1.056-1.85,1.619-2.7a11.106,11.106,0,0,1,4.516-4.013l-.23.123.532-.281-.024.013c4.854-1.782,7.065-6.574,7.9-11.364l0,.015c-.006-.28,1.1-1.9.208-1.3Zm-.22,1.338-.008.028.008-.028Z" transform="translate(-858.106 -222.358)" fill="#fefefe"/>
      <path id="Trazado_115" data-name="Trazado 115" d="M1358.682,421.238c-3.4,2.3-2.779,6.745-3.395,10.278-.091,1.274-2.27,3.266-1.469,4.2.784.374,1.353-.669,1.706-1.217,2.226-3.093,1.233-6.865,1.936-10.347a3.655,3.655,0,0,1,1.436-2.013c.51-.243.484-1.33-.215-.9Z" transform="translate(-863.917 -267.421)" fill="#fefefe"/>
      <path id="Trazado_116" data-name="Trazado 116" d="M1380.265,415.526c-4.483,5.516,1.786,14.047-3.224,18.3-.3.2-.624.841-.147,1.025,6.036-3.433,2.157-11.675,3.662-17.155a14.572,14.572,0,0,1,.759-1.759c.386-.88-.624-1.141-1.049-.408Z" transform="translate(-880.587 -263.045)" fill="#fefefe"/>
      <path id="Trazado_117" data-name="Trazado 117" d="M1405.627,454.476c-.877.468-.225,1.672-.324,2.453.042.758-.428,1.512-.312,2.236,1.583,1.433,1.54-5.214.636-4.69Z" transform="translate(-901.107 -291.553)" fill="#fefefe"/>
      <path id="Trazado_118" data-name="Trazado 118" d="M1490.041,328.865c-1.251,1.087.852,2.552,1.586,3.355.45.243.931-.318.995-.734.076-.5-.5-.753-.78-1.09-.744-.3-.921-1.969-1.8-1.531Z" transform="translate(-962.46 -200.513)" fill="#fefefe"/>
      <path id="Trazado_119" data-name="Trazado 119" d="M1498.422,323.084c-.295.29-.578.917-.182,1.245.676.415,1.288,1.442,2.151,1.3.492-.2.972-.986.512-1.426-.757-.393-1.613-1.969-2.481-1.119Z" transform="translate(-968.541 -196.198)" fill="#fefefe"/>
      <path id="Trazado_120" data-name="Trazado 120" d="M1507.575,317.263c-.963.566-.092,2.061.665,2.315a.921.921,0,0,0,.7-1.156c-.394-.411-.612-1.649-1.363-1.159Z" transform="translate(-975.137 -192.078)" fill="#fefefe"/>
      <path id="Trazado_121" data-name="Trazado 121" d="M1431.279,311.456c-1.008.658-3.054,1.3-2.935,2.727.757.583,2.018-1.193,2.9-1.368.647-.171,1.02-1.628.038-1.358Z" transform="translate(-918.037 -187.929)" fill="#fefefe"/>
      <path id="Trazado_122" data-name="Trazado 122" d="M1437.415,318.441c-.637.67-2.266,1.107-2,2.231.614.612,1.628-.92,2.256-1.174.6-.288.574-1.56-.253-1.057Z" transform="translate(-923.141 -192.93)" fill="#fefefe"/>
      <path id="Trazado_123" data-name="Trazado 123" d="M1531.143,378.229c-1.495.561.068,1.657.632,2.313,7.335,7.463,1.406,11.247.706,19.377-.271,1.175.349,5.446,1.7,2.632-2-7.439,6.74-14.238.277-21.022l.107.122a20.668,20.668,0,0,0-3.423-3.421Z" transform="translate(-992.065 -236.332)" fill="#fefefe"/>
      <path id="Trazado_124" data-name="Trazado 124" d="M1557.14,422.706c-1.935,5.543-2.8,13.332,2.823,17.011,2.141,1.256,4.557,2.271,6.225,4.075,1.669-.029,1.639-2.162.444-2.929-1.934-1.444-4.294-2.241-6.257-3.655-4.025-3.077-4.271-8.931-2.891-13.434.022-.438.609-1.128.166-1.432-.217-.049-.45.182-.509.364Zm-.47,5.952c0,.031,0,.061,0,.091,0-.03,0-.06,0-.091Z" transform="translate(-1010.289 -268.288)" fill="#fefefe"/>
      <path id="Trazado_125" data-name="Trazado 125" d="M1607.766,484.863c-.494.171-.991,1.117-.349,1.394,3.152.96,3.5,5.085,3.389,7.889.2.937-.921,3.217.336,3.449,1.605-.485,1.092-2.719,1.27-4.016.2-3.236-.8-8.294-4.647-8.715Z" transform="translate(-1047.562 -313.59)" fill="#fefefe"/>
      <path id="Trazado_126" data-name="Trazado 126" d="M1548.162,482.956c-1.752.412,1.313,6.288,2.486,4.867,1.117-1.121-.941-1.884-1.281-2.927-.574-.484-.3-2.107-1.2-1.94Z" transform="translate(-1004.469 -312.2)" fill="#fefefe"/>
      <path id="Trazado_127" data-name="Trazado 127" d="M1576.022,427.385c-1.327.251-.949,3.782-.5,4.681,1.3.311,1.154-1.409.955-2.223-.28-.709.484-2.267-.453-2.458Z" transform="translate(-1024.372 -271.946)" fill="#fefefe"/>
      <path id="Trazado_128" data-name="Trazado 128" d="M1293.165,573.416c-1.327.795-2.209,9.918.35,6.827-.019-1.739-.714-3.566-.009-5.336.1-.6,1.05-1.24.508-1.827-.3-.206-.69.1-.849.336Z" transform="translate(-819.167 -377.455)" fill="#fefefe"/>
      <path id="Trazado_129" data-name="Trazado 129" d="M1313.2,581.478a.889.889,0,0,0-.4,1.022c1.094,2.086.3,4.509-.176,6.658-.155.9.933.8,1.252.192.778-1.25,1.405-8.17-.681-7.872Z" transform="translate(-834.194 -383.583)" fill="#fefefe"/>
      <path id="Trazado_130" data-name="Trazado 130" d="M1350.954,785.674a.931.931,0,0,0-.147.06c-3.346-.115-3.281,6.38.834,5.874,3.51-.311,2.93-6.913-.688-5.934Zm.221,1.5-.006.008a.039.039,0,0,1,.006-.008Zm-.017.185.053.007c-.064.048-.125.1-.181.151.018-.051.036-.1.055-.152l.074-.007Zm.892,1.285-.028.033a.2.2,0,0,1,.028-.033Z" transform="translate(-860.132 -531.462)" fill="#fefefe"/>
      <path id="Trazado_131" data-name="Trazado 131" d="M1396.862,505.188a11.539,11.539,0,0,0-2.7,5.628c.279,1.3,2.231.179,3.122.161,1.315-.751,4.234-.175,4.616-1.294.557-2.159-5.4.737-6.541.529.587-1.432.9-3.061,2.051-4.171.613-.525.188-1.565-.55-.852Z" transform="translate(-893.276 -328.14)" fill="#fefefe"/>
      <path id="Trazado_132" data-name="Trazado 132" d="M1522.389,519.648a38.884,38.884,0,0,1-1.739,5.154c-1.423-.905-4.3-3.125-5.842-1.746-.238.306-.366.986.125,1.109,2.188-.11,3.713,2.095,5.741,2.215,1.466-1.49,1.946-4.6,2.789-6.586.369-1.022-.852-.929-1.074-.146Z" transform="translate(-980.533 -338.354)" fill="#fefefe"/>
      <path id="Trazado_133" data-name="Trazado 133" d="M1455.87,594.334c-1.1-.221-5.585,35.338-2.427,28.782a165.783,165.783,0,0,1,1.718-21.462c.265-2.336.58-4.666.973-6.983a.259.259,0,0,0-.264-.338Z" transform="translate(-935.423 -392.902)" fill="#fefefe"/>
      <path id="Trazado_134" data-name="Trazado 134" d="M1564.809,641.468c-1.114.361-.865,1.954-1.113,2.882.078.754-.9,2.406.085,2.67,1.15-.36.757-2,1.08-2.932-.108-.709.922-2.437-.052-2.619Z" transform="translate(-1015.847 -427.053)" fill="#fefefe"/>
      <path id="Trazado_135" data-name="Trazado 135" d="M1651.5,739.778c-1.1.362-3.347,1.575-2.619,2.939,1,.228,1.519-1.295,2.591-1.335.773-.179,1.179-1.942.029-1.6Z" transform="translate(-1077.722 -498.25)" fill="#fefefe"/>
      <path id="Trazado_136" data-name="Trazado 136" d="M1663.683,742.05c-.817-.1-1.52,3.1-.575,2.988.817.148,1.49-3.149.575-2.988Z" transform="translate(-1087.804 -499.923)" fill="#fefefe"/>
      <path id="Trazado_137" data-name="Trazado 137" d="M1664.144,710.968c-.787,1.227,6.377,1.341,7.4,2.055a54.6,54.6,0,0,0,9.7,1.366c.613-.047,1.258-1.236.52-1.518-5.852-.122-12-1.811-17.626-1.9Z" transform="translate(-1088.839 -477.407)" fill="#fefefe"/>
      <path id="Trazado_138" data-name="Trazado 138" d="M1150.326,394.641a137.1,137.1,0,0,0-9.717,17.455l.035-.064c-.337.522-1.419,2.481,0,1.942,2.324-3.7,4-7.851,6.339-11.582-.045.085-.092.169-.137.253,1.388-2.5,2.933-4.911,4.427-7.351.661-.908-.355-1.6-.952-.653Z" transform="translate(-709.081 -247.894)" fill="#fefefe"/>
      <path id="Trazado_139" data-name="Trazado 139" d="M1232.021,490.24c-1.125.431-4.758.369-3.984,2.24,1.165-.1,2.421-.805,3.672-.933.583-.039,1.135-1.271.312-1.308Zm-3.349,2.121a.179.179,0,0,1-.032.024l.032-.024Z" transform="translate(-772.837 -317.486)" fill="#fefefe"/>
      <path id="Trazado_140" data-name="Trazado 140" d="M1239.176,498c-.8.479-3.748,1.018-2.6,2.307.872-.216,1.7-.8,2.574-1.1.581-.149.893-1.462.022-1.212Z" transform="translate(-778.913 -323.083)" fill="#fefefe"/>
      <path id="Trazado_141" data-name="Trazado 141" d="M1334.5,534.749c-.735-.065-1.615,3.154-.711,3.1,1-.325.765-1.763,1.12-2.577a.4.4,0,0,0-.409-.523Z" transform="translate(-849.253 -349.732)" fill="#fefefe"/>
      <path id="Trazado_142" data-name="Trazado 142" d="M1342.886,542.478c-.078.667-1.116,1.766-.607,2.281.849-.188.8-1.545,1.215-2.2.219-.558-.494-.525-.608-.082Z" transform="translate(-855.584 -355.091)" fill="#fefefe"/>
      <path id="Trazado_143" data-name="Trazado 143" d="M1335.833,563.482c-.758-.223-1.422,3.727-.6,3.47a.9.9,0,0,0,.687-.754c-.1-.72.809-2.486-.086-2.716Z" transform="translate(-850.306 -370.544)" fill="#fefefe"/>
      <path id="Trazado_144" data-name="Trazado 144" d="M1488.578,662.221c-1.656,1.183.37,1.551,1.373,1.857,1.627.277,5.052,1.758,6.175.206.417-1.123-1.14-.641-1.753-.8-1.982-.148-3.9-.953-5.795-1.26Z" transform="translate(-961.226 -442.089)" fill="#fefefe"/>
      <path id="Trazado_145" data-name="Trazado 145" d="M1515.219,673.543a28.471,28.471,0,0,1-5.336,1.056.689.689,0,0,0-.5.447c-.332,1.312,3.554-.085,4.289-.134.606-.228,1.534-.1,1.834-.784.118-.226.041-.637-.283-.585Z" transform="translate(-976.738 -450.289)" fill="#fefefe"/>
      <path id="Trazado_146" data-name="Trazado 146" d="M1376.159,654.257c-.785,1.265,1.236.986,1.966,1.085.814-.082,2.087.309,2.492-.628.37-.914-.767-.677-1.307-.685-1.007.219-2.4-.6-3.151.228Z" transform="translate(-880.102 -436.044)" fill="#fefefe"/>
      <path id="Trazado_147" data-name="Trazado 147" d="M1394.37,665.045c-.767.315-3-.454-3.084.489.094.424,4.311.336,3.084-.489Z" transform="translate(-891.192 -444.135)" fill="#fefefe"/>
      <path id="Trazado_148" data-name="Trazado 148" d="M419.805,655.563c-3.954.025-7.852,1.229-11.691,1.734-3.67,4.152,6.945.524,8.446.7,7.953-.884,15.646,1.125,23.383,2.634,6.508,1.222,13.244.841,19.769-.059A52.43,52.43,0,0,1,475.96,659c4.222-.32,16.929,2.308,19.013-1.488.809-2.535-5.126.007-6.537-.644-8.72-.482-17.648-1.893-26.208.5a62.878,62.878,0,0,1-18.582,1.052c-7.937-1.079-15.753-3.6-23.841-2.86Z" transform="translate(-178.31 -437.168)" fill="#ff7280"/>
      <path id="Trazado_149" data-name="Trazado 149" d="M492.116,683.763c-6.855,1.1-13.777-.593-20.658.14-9.008.444-17.716,4.119-26.807,3.4-7.667-.033-15.169-1.849-22.755-2.775-5.085-.655-10.14.4-15.212.506-1.094-.479-2.8,1.358-1.551,2.075a14.9,14.9,0,0,0,1.966.084c4.207-.231,8.391-.826,12.615-.5,7.174.773,14.246,2.606,21.459,2.92,8.759.9,17.265-1.436,25.834-2.893,7.948-1.222,15.948.506,23.9-.334,2.307.323,4.1-3.323,1.21-2.621Z" transform="translate(-176.387 -457.631)" fill="#ff7280"/>
      <path id="Trazado_150" data-name="Trazado 150" d="M416.638,714.751c-2.194.245-13.265-.4-12.695,2.473,1.112.966,4.757-.719,6.494-.332a74.064,74.064,0,0,1,18.992,1.8c7.335,1.546,14.779,2.672,22.3,2.328,7.256-.336,14.444-1.562,21.666-2.3,6.6-.71,13.6,1.822,20.025-.086,2.056-1.843,1-3.377-1.636-2.327l.211-.053c-5.423.548-10.908-.537-16.334-.449-9.57.886-19.05,2.954-28.7,2.706-10.221-.167-20.094-3.58-30.32-3.759Z" transform="translate(-175.827 -480.148)" fill="#ff7280"/>
      <path id="Trazado_151" data-name="Trazado 151" d="M614.453,358.376c-.146,1.774-.626,4.48.9,5.764.97.814,5.22,2.072,2.981,3.565-1.056.553-2.323-.283-3.323.189-1.64,1.807,2.544,1.467,3.41,1.071a2.6,2.6,0,0,0,.17-4.83c-2.572-1.025-3.7-1.809-3.7-4.764.017-.232-.02-1.609-.441-1Z" transform="translate(-328.226 -221.834)" fill="#161616"/>
      <path id="Trazado_152" data-name="Trazado 152" d="M631.956,360.448c-3.972,1.2-2.374,6.431,1.577,4.453,1.582-.885,1.705-4.369-.531-4.359a2.085,2.085,0,0,0-1.045-.094Zm.556.725c.026,1.1,2.048-.108,1.292,2.527a2.25,2.25,0,0,1-3.369-.3,1.834,1.834,0,0,1,2.078-2.226Zm-.973.084-.023.009.023-.009Zm-.06,2.924.024.007-.024-.007Z" transform="translate(-339.377 -223.428)" fill="#161616"/>
      <path id="Trazado_153" data-name="Trazado 153" d="M567.36,366.2a2.724,2.724,0,0,0-1.569,3.874,3.829,3.829,0,0,0,4.933.314c2.664-2.365-.789-4.94-3.364-4.188Zm1.106,1c.149.006.3.012.447.026.157.438.838.361,1.219.531,1.839.911-.1,2.624-1.52,2.146-2.624.2-3-3.036-.146-2.7Zm-1.718,2.054.031.028-.031-.028Z" transform="translate(-292.854 -227.519)" fill="#161616"/>
      <path id="Trazado_154" data-name="Trazado 154" d="M577.955,371.37a.408.408,0,0,0-.054.031c-.9.152-.9,1.9.153,1.739.925-.131,1.044-2.207-.1-1.77Z" transform="translate(-301.401 -231.319)" fill="#161616"/>
      <path id="Trazado_155" data-name="Trazado 155" d="M639.169,364.306c-.549.323-1.15,1.566-.292,1.834,1.556,1.121,2.154-2.637.292-1.834Z" transform="translate(-345.745 -226.162)" fill="#161616"/>
      <path id="Trazado_156" data-name="Trazado 156" d="M637.747,363.162a1.54,1.54,0,0,0-.434,2.378c1.1.885,2.38-.7,1.87-1.788.18-.719-.973-.835-1.436-.59Zm.095.949-.015.015h0l.015-.015Zm.068.016a1.052,1.052,0,0,1,.418.094c.016.149.146.269.12.426-.29.014-.639-.172-.622-.5a.322.322,0,0,1,.084-.022Zm-.115.054-.019.047c.006-.016.012-.032.019-.047Zm-.018.008-.02.031.02-.031Zm.672.32.009.021-.009-.021Zm.064.108-.01.016h0l.01-.016Zm-.027.006-.006.016h0l.006-.016Zm-.013.036h0Zm-.028.046h0l0,0,0,0Z" transform="translate(-344.635 -225.331)" fill="#161616"/>
      <path id="Trazado_157" data-name="Trazado 157" d="M576.675,368.666c-1.264.315-1.286,2.753.173,2.688,1.759-.013,1.723-3.088-.173-2.688Zm.25,1.39a.6.6,0,0,0,.126-.09.425.425,0,0,1,.163.187.63.63,0,0,1-.339-.076.354.354,0,0,0,.05-.022Z" transform="translate(-300.313 -229.377)" fill="#161616"/>
      <path id="Trazado_158" data-name="Trazado 158" d="M585.168,377.031c-.039,1.218-1.46,1.305-2.051,2,.053.987,2.077-.68,2.227-1.17.282-.346.446-1.766-.175-.832Z" transform="translate(-305.658 -235.237)" fill="#161616"/>
      <path id="Trazado_159" data-name="Trazado 159" d="M630.662,376c-1.021,1.188,4.043,2.5,3.1.956-.991-.057-2.166-.081-2.8-.964a.2.2,0,0,0-.295.009Z" transform="translate(-340.006 -234.662)" fill="#161616"/>
      <path id="Trazado_160" data-name="Trazado 160" d="M562.451,397.721c-.119.492-.421.9-.582,1.376-.165.63.588.5.665.014.132-.505.948-1.436.38-1.816-.23-.025-.4.237-.463.426Z" transform="translate(-290.246 -250.144)" fill="#161616"/>
      <path id="Trazado_161" data-name="Trazado 161" d="M571.294,396.84c-.235.407-1.368,1.731-.551,1.928.508-.278.53-1.033.955-1.436.355-.354-.018-.988-.4-.493Z" transform="translate(-296.482 -249.683)" fill="#161616"/>
      <path id="Trazado_162" data-name="Trazado 162" d="M580.588,394.824a9.022,9.022,0,0,0-.75,1.756c-.158.634.588.482.662-.007v0c.083-.377,1.1-2.207.089-1.752Zm-.079,1.726-.009.022.009-.022Zm-.011.028-.036.087.037-.09v0Z" transform="translate(-303.266 -248.303)" fill="#161616"/>
      <path id="Trazado_163" data-name="Trazado 163" d="M640.7,386.058c.023.607-.9,1.572-.423,2,.593.067,1.455-3.452.423-2Z" transform="translate(-346.976 -241.749)" fill="#161616"/>
      <path id="Trazado_164" data-name="Trazado 164" d="M648.035,385.17c.032.493-.716,1.633-.022,1.777.6-.3.5-1.2.7-1.763.171-.642-.614-.518-.679-.014Z" transform="translate(-352.462 -241.054)" fill="#161616"/>
      <path id="Trazado_165" data-name="Trazado 165" d="M558.637,357.67c-.253.4.25.67.444.234.253-.4-.25-.67-.444-.234Z" transform="translate(-287.871 -221.274)" fill="#161616"/>
      <path id="Trazado_166" data-name="Trazado 166" d="M562.478,358.93c-.123.008-.335-.024-.313.16.073.126.51-.01.313-.16Z" transform="translate(-290.477 -222.349)" fill="#161616"/>
      <path id="Trazado_167" data-name="Trazado 167" d="M561.584,350.688c-1.615.462-3.517.643-4.753,1.879-.665-.014-1.5,1.351-.523,1.409l0,0a.878.878,0,0,0,.109-.019c.212.182.514.011.688-.175a35.123,35.123,0,0,0,7.675-2.048c.9-1.715-2.282-1.1-3.2-1.051Z" transform="translate(-285.912 -216.272)" fill="#161616"/>
      <path id="Trazado_168" data-name="Trazado 168" d="M623.9,426.122a2.842,2.842,0,0,1-2.422-1.912c1.581-.242,3.176-.851,4.643-1.129C626.463,425.218,626.071,425.814,623.9,426.122Z" transform="translate(-333.451 -268.828)" fill="#fff"/>
      <path id="Trazado_169" data-name="Trazado 169" d="M496.619,413.055c-2.754-.824-2.378-4.367-.073-5.482,1.3-.511,1.39.827,2.169.286a20.784,20.784,0,0,1,.4,5.723c-.121-.05-.224-.051-.332-.094l-.02.011v0A19.283,19.283,0,0,0,496.619,413.055Z" transform="translate(-241.586 -257.506)" fill="#fff"/>
    </g>
  </g>
</svg>
