<svg xmlns="http://www.w3.org/2000/svg" xmlns:xlink="http://www.w3.org/1999/xlink" viewBox="0 0 16.731 16.747">
  <defs>
    <style>
      .cls-1, .cls-3 {
        fill: #4d4d4d;
      }

      .cls-2 {
        clip-path: url(#clip-path);
      }

      .cls-3 {
        fill-rule: evenodd;
      }
    </style>
    <clipPath id="clip-path">
      <rect id="Rectangle_16" data-name="Rectangle 16" class="cls-1" width="16.731" height="16.747"/>
    </clipPath>
  </defs>
  <g id="Group_2" data-name="Group 2" transform="translate(-20 13)">
    <g id="Group_1" data-name="Group 1" class="cls-2" transform="translate(20 -13)">
      <path id="Path_1" data-name="Path 1" class="cls-3" d="M16.6,7.479a.544.544,0,0,0-.535-.411,1.84,1.84,0,0,1-1.264-3.2.467.467,0,0,0,.054-.628A8.252,8.252,0,0,0,13.541,1.9a.462.462,0,0,0-.636.054,1.92,1.92,0,0,1-2.078.465A1.843,1.843,0,0,1,9.7.618.462.462,0,0,0,9.292.129,8.433,8.433,0,0,0,7.416.122.461.461,0,0,0,7,.6a1.856,1.856,0,0,1-1.14,1.775A1.915,1.915,0,0,1,3.8,1.9a.466.466,0,0,0-.628-.054A8.442,8.442,0,0,0,1.826,3.184a.468.468,0,0,0,.047.636A1.843,1.843,0,0,1,2.337,5.9,1.93,1.93,0,0,1,.523,7.022a.456.456,0,0,0-.481.411,8.126,8.126,0,0,0,0,1.892.556.556,0,0,0,.55.411,1.836,1.836,0,0,1,1.713,1.14,1.857,1.857,0,0,1-.465,2.062.466.466,0,0,0-.054.628A7.946,7.946,0,0,0,3.1,14.9a.468.468,0,0,0,.636-.047,1.92,1.92,0,0,1,2.078-.465,1.843,1.843,0,0,1,1.124,1.807.462.462,0,0,0,.411.488,7.9,7.9,0,0,0,.961.054,7.243,7.243,0,0,0,.915-.054.461.461,0,0,0,.411-.481,1.845,1.845,0,0,1,1.14-1.775,1.915,1.915,0,0,1,2.062.473.466.466,0,0,0,.628.054A8.129,8.129,0,0,0,14.82,13.62a.468.468,0,0,0-.047-.636,1.843,1.843,0,0,1-.465-2.078,1.875,1.875,0,0,1,1.706-1.132h.1a.461.461,0,0,0,.488-.411,8.5,8.5,0,0,0,0-1.884ZM8.338,11.2a2.783,2.783,0,1,1,2.783-2.783A2.786,2.786,0,0,1,8.338,11.2Zm0,0" transform="translate(0.012 -0.067)"/>
    </g>
  </g>
</svg>
