<?xml version="1.0" encoding="utf-8"?>
<!-- Generator: Adobe Illustrator 22.1.0, SVG Export Plug-In . SVG Version: 6.00 Build 0)  -->
<svg version="1.1" id="Capa_1" xmlns="http://www.w3.org/2000/svg" xmlns:xlink="http://www.w3.org/1999/xlink" x="0px" y="0px"
	 viewBox="0 0 17.6 16.6" style="enable-background:new 0 0 17.6 16.6;" xml:space="preserve">
<style type="text/css">
	.st0{fill:#FC2525;}
</style>
<title>icono</title>
<g>
	<path class="st0" d="M8.8,6.5c0.2,0,0.4,0.1,0.5,0.2c0.1,0.1,0.2,0.4,0.2,0.7h1.1c0-0.5-0.1-0.9-0.4-1.2C9.9,6,9.6,5.8,9.2,5.7V4.9
		H8.6v0.8c-0.4,0-0.8,0.2-1,0.5c-0.3,0.3-0.4,0.6-0.4,1c0,0.2,0,0.4,0.1,0.6C7.4,8,7.5,8.1,7.6,8.2c0.1,0.1,0.3,0.2,0.5,0.3
		c0.2,0.1,0.4,0.2,0.7,0.3C9,9,9.2,9.1,9.3,9.2c0.1,0.1,0.2,0.3,0.2,0.5c0,0.2-0.1,0.3-0.2,0.5c-0.1,0.1-0.3,0.2-0.5,0.2
		c-0.3,0-0.5-0.1-0.6-0.2C8.1,9.9,8,9.7,8,9.4H7c0,0.5,0.1,0.9,0.4,1.2c0.3,0.3,0.7,0.5,1.2,0.5v0.7h0.6v-0.7c0.5,0,0.8-0.2,1.1-0.5
		c0.3-0.3,0.4-0.6,0.4-1c0-0.2,0-0.4-0.1-0.6c-0.1-0.2-0.2-0.3-0.3-0.4C10,8.5,9.9,8.4,9.7,8.3C9.5,8.2,9.3,8.1,9,8
		C8.7,7.8,8.5,7.7,8.4,7.6C8.3,7.5,8.2,7.4,8.2,7.2c0-0.2,0.1-0.4,0.2-0.5C8.5,6.6,8.6,6.5,8.8,6.5z"/>
	<path class="st0" d="M16.8,9.8V6.9l-1.6-0.1c-0.2-0.6-0.4-1.2-0.7-1.8l1.1-1.3l-2.1-2l-1.3,1.1c-0.6-0.3-1.2-0.6-1.8-0.7l-0.1-1.6
		H7.3L7.2,1.9C6.6,2.1,6,2.4,5.4,2.7L4.1,1.6l-2,2l1.1,1.3C2.8,5.5,2.6,6.1,2.4,6.7L0.8,6.9v2.9l1.6,0.1c0.2,0.6,0.4,1.2,0.7,1.8
		L2.1,13l2,2L5.4,14c0.6,0.3,1.2,0.6,1.8,0.7l0.1,1.6h2.9l0.1-1.6c0.6-0.2,1.2-0.4,1.8-0.7l1.3,1.1l2-2l-1.1-1.3
		c0.3-0.6,0.6-1.2,0.7-1.8L16.8,9.8z M13.9,8.3c0,2.8-2.3,5.1-5.1,5.1c-2.8,0-5.1-2.3-5.1-5.1s2.3-5.1,5.1-5.1
		C11.6,3.2,13.9,5.5,13.9,8.3C13.9,8.3,13.9,8.3,13.9,8.3z"/>
</g>
</svg>
