<?xml version="1.0" encoding="utf-8"?>
<!-- Generator: Adobe Illustrator 22.1.0, SVG Export Plug-In . SVG Version: 6.00 Build 0)  -->
<svg version="1.1" id="Group_530" xmlns="http://www.w3.org/2000/svg" xmlns:xlink="http://www.w3.org/1999/xlink" x="0px" y="0px"
	 viewBox="0 0 39 25.2" style="enable-background:new 0 0 39 25.2;" xml:space="preserve">
<style type="text/css">
	.st0{fill:#FFFFFF;}
</style>
<path id="Path_684" class="st0" d="M7.4,6h10.3l1.5-6H2.9C0,0,0,3,0,3v17.5c0,1.6,1.2,2.9,2.8,2.9c0,0,0.1,0,0.1,0h10.3l1.5-6H7.3
	c-0.8,0-1.5-0.6-1.5-1.4c0,0,0,0,0-0.1V7.4C5.9,6.6,6.6,6,7.4,6z"/>
<path id="Path_685" class="st0" d="M37.5,20.5V3c0.1-1.6-1.2-3-2.8-3c-0.1,0-0.1,0-0.2,0H24.2l-1.5,6h7.3c0.8,0,1.5,0.6,1.5,1.4
	c0,0,0,0,0,0.1v8.6c0,0.8-0.6,1.5-1.4,1.5c0,0,0,0-0.1,0H19.8l-1.5,6h16.2C37.5,23.5,37.5,20.5,37.5,20.5z"/>
</svg>
