<svg id="next" xmlns="http://www.w3.org/2000/svg" width="24.975" height="20.777" viewBox="0 0 24.975 20.777">
  <g id="Grupo_1658" data-name="Grupo 1658" transform="translate(0 0)">
    <path id="Trazado_1415" data-name="Trazado 1415" d="M.4,50.764l9.019-9.02a1.371,1.371,0,0,1,1.933,0l.819.819a1.357,1.357,0,0,1,.4.966,1.384,1.384,0,0,1-.4.978L6.909,49.782H23.626a1.334,1.334,0,0,1,1.349,1.344v1.158a1.385,1.385,0,0,1-1.349,1.4H6.849l5.321,5.3a1.354,1.354,0,0,1,0,1.919l-.819.816a1.371,1.371,0,0,1-1.933,0L.4,52.7a1.378,1.378,0,0,1,0-1.94Z" transform="translate(0 -41.346)" fill="#ef0911"/>
  </g>
</svg>
