<svg xmlns="http://www.w3.org/2000/svg" viewBox="0 0 74 74">
  <defs>
    <style>
      .cls-1 {
        fill: #fff;
      }

      .cls-2 {
        fill: #4caf50;
      }

      .cls-3 {
        fill: #fafafa;
      }
    </style>
  </defs>
  <g id="Group_409" data-name="Group 409" transform="translate(-1751 -9556)">
    <circle id="Ellipse_35" data-name="Ellipse 35" class="cls-1" cx="37" cy="37" r="37" transform="translate(1751 9556)"/>
    <g id="Group_292" data-name="Group 292" transform="translate(1763 9566.908)">
      <path id="Path_880" data-name="Path 880" class="cls-2" d="M25.634,0h-.01C11.491,0,0,11.232,0,25.046A24.451,24.451,0,0,0,4.875,39.721l-3.193,9.3,9.849-3.082a25.781,25.781,0,0,0,14.1,4.148c14.123,0,25.614-11.232,25.614-25.046S39.758,0,25.634,0Z"/>
      <path id="Path_881" data-name="Path 881" class="cls-3" d="M137.008,140.921c-.621,1.7-3.073,3.121-5.025,3.532-1.341.274-3.083.5-8.979-1.888-7.527-3.052-12.382-10.527-12.762-11.016-.36-.489-3.043-3.962-3.043-7.553a7.939,7.939,0,0,1,2.622-6.1,3.787,3.787,0,0,1,2.622-.9c.32,0,.6.02.861.029.751.029,1.131.078,1.632,1.233.621,1.458,2.122,5.048,2.3,5.42a1.5,1.5,0,0,1,.11,1.36,4.213,4.213,0,0,1-.831,1.145c-.38.43-.741.753-1.111,1.213-.35.4-.741.822-.3,1.556A22.423,22.423,0,0,0,119.261,134a18.891,18.891,0,0,0,6.006,3.62,1.632,1.632,0,0,0,1.8-.274,31.049,31.049,0,0,0,2-2.593,1.462,1.462,0,0,1,1.842-.548c.691.235,4.354,2.006,5.1,2.368s1.251.548,1.431.851A6.134,6.134,0,0,1,137.008,140.921Z" transform="translate(-96.47 -105.553)"/>
    </g>
  </g>
</svg>
