<?xml version="1.0" encoding="utf-8"?>
<!-- Generator: Adobe Illustrator 23.0.1, SVG Export Plug-In . SVG Version: 6.00 Build 0)  -->
<svg version="1.1" id="Grupo_700" xmlns="http://www.w3.org/2000/svg" xmlns:xlink="http://www.w3.org/1999/xlink" x="0px" y="0px"
	 viewBox="0 0 15.9 14.9" style="enable-background:new 0 0 15.9 14.9;" xml:space="preserve">
<style type="text/css">
	.st0{fill:#FF5151;}
</style>
<path id="Trazado_957" class="st0" d="M4,12v3h8v-5H4V12z M5,11h6v1H5V11z M5,12.9h6v1H5V12.9z"/>
<path id="Trazado_958" class="st0" d="M12,3V0H4v5h8V3z"/>
<path id="Trazado_959" class="st0" d="M13.9,3h-1v3H3V3H2C0.9,3.1,0.1,3.9,0,5v5c0.1,1.1,0.9,1.9,2,2h1V9h10v3h1
	c1.1-0.1,1.9-0.9,2-2V5C15.9,3.9,15,3.1,13.9,3z"/>
</svg>
