<?xml version="1.0" encoding="UTF-8" standalone="no"?>
<svg
   xmlns:dc="http://purl.org/dc/elements/1.1/"
   xmlns:cc="http://creativecommons.org/ns#"
   xmlns:rdf="http://www.w3.org/1999/02/22-rdf-syntax-ns#"
   xmlns:svg="http://www.w3.org/2000/svg"
   xmlns="http://www.w3.org/2000/svg"
   xmlns:sodipodi="http://sodipodi.sourceforge.net/DTD/sodipodi-0.dtd"
   xmlns:inkscape="http://www.inkscape.org/namespaces/inkscape"
   viewBox="0 0 23.117 23.117"
   version="1.1"
   id="svg899"
   sodipodi:docname="icono-permisos_1.svg"
   inkscape:version="0.92.5 (2060ec1f9f, 2020-04-08)">
  <metadata
     id="metadata903">
    <rdf:RDF>
      <cc:Work
         rdf:about="">
        <dc:format>image/svg+xml</dc:format>
        <dc:type
           rdf:resource="http://purl.org/dc/dcmitype/StillImage" />
      </cc:Work>
    </rdf:RDF>
  </metadata>
  <sodipodi:namedview
     pagecolor="#ffffff"
     bordercolor="#666666"
     borderopacity="1"
     objecttolerance="10"
     gridtolerance="10"
     guidetolerance="10"
     inkscape:pageopacity="0"
     inkscape:pageshadow="2"
     inkscape:window-width="1920"
     inkscape:window-height="1043"
     id="namedview901"
     showgrid="false"
     inkscape:zoom="2.8442271"
     inkscape:cx="56.242882"
     inkscape:cy="-25.876571"
     inkscape:window-x="0"
     inkscape:window-y="0"
     inkscape:window-maximized="1"
     inkscape:current-layer="svg899" />
  <defs
     id="defs894">
    <style
       id="style892">
      .cls-1 {
        fill: #616161;
      }

      .cls-2 {
        fill: #fff;
      }
    </style>
  </defs>
  <g
     id="Group_664"
     data-name="Group 664"
     transform="translate(-1014.8682,-470.9709)"
     style="fill:#008000">
    <circle
       id="Ellipse_129"
       data-name="Ellipse 129"
       class="cls-1"
       cx="11.559"
       cy="11.559"
       r="11.559"
       transform="translate(1015,470.883)"
       style="fill:#008000" />
    <path
       style="opacity:0.98400005;fill:#008000;fill-opacity:1;stroke:none;stroke-width:0.04394867;stroke-opacity:1"
       d="M 10.978378,22.983541 C 9.4280542,22.888769 7.9847065,22.500384 6.5648067,21.795909 3.5551821,20.302701 1.3501344,17.585483 0.51661609,14.342894 0.25479341,13.32434 0.17377852,12.645597 0.17377852,11.470603 c 0,-1.174995 0.0810149,-1.8537369 0.34283757,-2.8722909 C 1.7672712,3.7329594 6.0597073,0.21757318 11.066275,-0.04156575 c 3.248712,-0.16815265 6.306266,0.97022946 8.609165,3.20534645 2.321006,2.2526912 3.542643,5.1171965 3.542643,8.3068223 0,3.189626 -1.221637,6.054131 -3.542643,8.306822 -1.688186,1.638497 -3.733525,2.670722 -6.090126,3.073515 -0.421745,0.07209 -1.873435,0.194088 -2.035603,0.171077 -0.02417,-0.0034 -0.281272,-0.02075 -0.571333,-0.03848 z"
       id="path912"
       inkscape:connector-curvature="0"
       transform="translate(1014.8682,470.9709)" />
  </g>
  <g
     inkscape:groupmode="layer"
     id="layer1"
     inkscape:label="Layer 1">
    <path
       id="Path_753"
       data-name="Path 753"
       class="cls-2"
       d="m 15.458465,9.2928914 h -0.691 v -0.922 a 3.225,3.225 0 1 0 -6.4500004,0 v 0.922 h -0.691 a 0.231,0.231 0 0 0 -0.231,0.231 v 5.7609996 a 0.921,0.921 0 0 0 0.922,0.92 h 6.4520004 a 0.923,0.923 0 0 0 0.922,-0.922 V 9.5238914 a 0.235,0.235 0 0 0 -0.233,-0.231 z m -3.371,3.5059996 0.144,1.307 a 0.23,0.23 0 0 1 -0.058,0.179 0.227,0.227 0 0 1 -0.171,0.078 h -0.922 a 0.227,0.227 0 0 1 -0.171,-0.078 0.238,0.238 0 0 1 -0.058,-0.179 l 0.144,-1.307 a 0.912,0.912 0 0 1 -0.378,-0.741 0.9225,0.9225 0 1 1 1.845,0 0.9,0.9 0 0 1 -0.375,0.741 z m 1.3,-3.5059996 H 9.6954646 v -0.922 a 1.843,1.843 0 1 1 3.6850004,0 z"
       inkscape:connector-curvature="0"
       style="fill:#ffffff" />
  </g>
</svg>
