<svg xmlns="http://www.w3.org/2000/svg" viewBox="0 0 23.117 23.117">
  <defs>
    <style>
      .cls-1 {
        fill: #616161;
      }

      .cls-2 {
        fill: #fff;
      }
    </style>
  </defs>
  <g id="Group_665" data-name="Group 665" transform="translate(-981 -470.883)">
    <circle id="Ellipse_130" data-name="Ellipse 130" class="cls-1" cx="11.559" cy="11.559" r="11.559" transform="translate(981 470.883)"/>
    <path id="Path_754" data-name="Path 754" class="cls-2" d="M7.637,1.292l.3-.3A4.822,4.822,0,0,0,5.286-.1V.315a.439.439,0,0,1-.878,0V-.1A4.981,4.981,0,0,0,1.72,1.041l.3.3a.439.439,0,0,1-.62.62l-.3-.3A4.779,4.779,0,0,0,0,4.308H.415a.439.439,0,0,1,0,.878H0A4.779,4.779,0,0,0,1.1,7.833l.3-.3a.439.439,0,0,1,.62.62l-.3.3A5,5,0,0,0,4.405,9.591V9.175a.439.439,0,0,1,.878,0v.415a4.779,4.779,0,0,0,2.647-1.1l-.3-.3a.439.439,0,0,1,.62-.62l.3.3A5,5,0,0,0,9.688,5.186H9.272a.439.439,0,0,1,0-.878h.415A4.981,4.981,0,0,0,8.55,1.62l-.3.3A.439.439,0,0,1,7.637,1.292Zm-.31,2.975a.439.439,0,0,1,0,.878H4.844a.438.438,0,0,1-.439-.439V2.225a.439.439,0,0,1,.878,0V4.27Z" transform="translate(987.49 477.59)"/>
  </g>
</svg>
