<?xml version="1.0" encoding="utf-8"?>
<!-- Generator: Adobe Illustrator 22.1.0, SVG Export Plug-In . SVG Version: 6.00 Build 0)  -->
<svg version="1.1" id="Capa_1" xmlns="http://www.w3.org/2000/svg" xmlns:xlink="http://www.w3.org/1999/xlink" x="0px" y="0px"
	 viewBox="0 0 16.7 16.7" style="enable-background:new 0 0 16.7 16.7;" xml:space="preserve">
<style type="text/css">
	.st0{fill:#FC2525;}
</style>
<path id="Path_1" class="st0" d="M16.6,7.4C16.6,7.2,16.3,7,16.1,7c-1,0-1.9-0.8-1.9-1.8c0-0.5,0.2-1,0.6-1.4
	C15,3.6,15,3.4,14.9,3.2c-0.4-0.5-0.8-0.9-1.3-1.3c-0.2-0.2-0.5-0.1-0.6,0.1c-0.5,0.6-1.4,0.7-2.1,0.5c-0.7-0.3-1.2-1-1.1-1.8
	c0-0.2-0.2-0.5-0.4-0.5C8.7,0,8.1,0,7.4,0.1C7.2,0.1,7,0.3,7,0.5C7,1.3,6.6,2,5.9,2.3C5.2,2.6,4.3,2.4,3.8,1.8
	C3.6,1.7,3.4,1.6,3.2,1.8C2.7,2.2,2.2,2.6,1.8,3.1c-0.2,0.2-0.1,0.5,0,0.6c0.6,0.5,0.8,1.4,0.5,2.1C2,6.5,1.3,7,0.5,7
	c-0.2,0-0.5,0.2-0.5,0.4C0,8,0,8.6,0.1,9.3c0.1,0.2,0.3,0.4,0.6,0.4c0.8,0,1.4,0.4,1.7,1.1c0.3,0.7,0.1,1.5-0.5,2.1
	c-0.2,0.2-0.2,0.4-0.1,0.6c0.4,0.5,0.8,0.9,1.3,1.3c0.2,0.2,0.5,0.1,0.6,0c0.5-0.6,1.4-0.7,2.1-0.5c0.7,0.3,1.2,1,1.1,1.8
	c0,0.2,0.2,0.5,0.4,0.5c0.3,0,0.6,0.1,1,0.1c0.3,0,0.6,0,0.9-0.1c0.2,0,0.4-0.2,0.4-0.5c0-0.8,0.4-1.5,1.1-1.8
	c0.7-0.3,1.5-0.1,2.1,0.5c0.2,0.2,0.4,0.2,0.6,0.1c0.5-0.4,1-0.8,1.4-1.3c0.2-0.2,0.1-0.5,0-0.6c-0.6-0.5-0.8-1.4-0.5-2.1
	c0.3-0.7,1-1.1,1.7-1.1h0.1c0.2,0,0.5-0.2,0.5-0.4C16.7,8.7,16.7,8,16.6,7.4L16.6,7.4z M8.4,11.1c-1.5,0-2.8-1.2-2.8-2.8
	s1.2-2.8,2.8-2.8s2.8,1.2,2.8,2.8l0,0C11.1,9.9,9.9,11.1,8.4,11.1z"/>
</svg>
