<svg xmlns="http://www.w3.org/2000/svg" width="16.411" height="12.309" viewBox="0 0 16.411 12.309">
  <g id="eye-19" transform="translate(0 -2)">
    <path id="Trazado_1002" data-name="Trazado 1002" d="M8.206,14.308c4.828,0,7.943-5.42,8.073-5.65a1.026,1.026,0,0,0,0-1.005C16.151,7.423,13.058,2,8.206,2,3.328,2,.257,7.425.129,7.656a1.024,1.024,0,0,0,0,1C.261,8.885,3.353,14.308,8.206,14.308Zm0-10.257c2.912,0,5.165,2.908,5.967,4.1-.8,1.2-3.058,4.1-5.967,4.1s-5.167-2.911-5.969-4.1C3.034,6.959,5.278,4.051,8.206,4.051Z" fill="#b7b7b7"/>
    <circle id="Elipse_243" data-name="Elipse 243" cx="2.051" cy="2.051" r="2.051" transform="translate(6.154 6.103)" fill="#b7b7b7"/>
  </g>
</svg>
