<svg xmlns="http://www.w3.org/2000/svg" xmlns:xlink="http://www.w3.org/1999/xlink" width="11.894" height="15.629" viewBox="0 0 11.894 15.629">
  <defs>
    <clipPath id="clip-path">
      <rect id="Rectángulo_879" data-name="Rectángulo 879" width="11.889" height="15.628" fill="#ff4545"/>
    </clipPath>
  </defs>
  <g id="Grupo_560" data-name="Grupo 560" transform="translate(0.1)">
    <g id="Grupo_559" data-name="Grupo 559" transform="translate(-0.094)">
      <g id="Grupo_557" data-name="Grupo 557" clip-path="url(#clip-path)">
        <path id="Trazado_730" data-name="Trazado 730" d="M53.248,7.547c1.736,0,3.148-1.714,3.148-3.823S55.933-.1,53.248-.1,50.1,1.619,50.1,3.729s1.412,3.818,3.148,3.818Zm0,0" transform="translate(-47.304 0.094)" fill="#ff4545"/>
      </g>
      <g id="Grupo_558" data-name="Grupo 558" clip-path="url(#clip-path)">
        <path id="Trazado_731" data-name="Trazado 731" d="M0,240.371Zm0,0" transform="translate(0 -226.891)" fill="#ff4545"/>
      </g>
    </g>
    <path id="Trazado_732" data-name="Trazado 732" d="M11.783,147.586c-.056-3.678-.536-4.722-4.214-5.386a2.21,2.21,0,0,1-1.725.659A2.21,2.21,0,0,1,4.12,142.2c-3.634.659-4.141,1.686-4.208,5.269-.006.29-.006.307-.011.273v.385s.876,1.764,5.944,1.764,5.944-1.764,5.944-1.764v-.285c0,.022,0-.022-.006-.257Zm0,0" transform="translate(0 -134.263)" fill="#ff4545"/>
  </g>
</svg>
