<?xml version="1.0" encoding="utf-8"?>
<!-- Generator: Adobe Illustrator 25.0.0, SVG Export Plug-In . SVG Version: 6.00 Build 0)  -->
<svg version="1.1" id="Capa_1" xmlns="http://www.w3.org/2000/svg" xmlns:xlink="http://www.w3.org/1999/xlink" x="0px" y="0px"
	 viewBox="0 0 27.5 27.5" style="enable-background:new 0 0 27.5 27.5;" xml:space="preserve">
<style type="text/css">
	.st0{fill:#EF0911;}
	.st1{fill:none;stroke:#EF0911;stroke-width:2;}
</style>
<g id="Grupo_171" transform="translate(-18 10)">
	<path class="st0" d="M35.5,3.4h-2.1v7.2h-3.2V3.4h-1.5V0.8h1.5v-1.6c-0.1-1.6,1.1-2.9,2.7-3c0.2,0,0.3,0,0.5,0l2.4,0v2.5H34
		c-0.3,0-0.6,0.2-0.7,0.6c0,0,0,0.1,0,0.1v1.5h2.4L35.5,3.4z"/>
	<g id="Grupo_170" transform="translate(19 -9)">
		<path id="Trazado_192" class="st1" d="M12.8,25.5c7,0,12.8-5.7,12.8-12.8S19.8,0,12.8,0C5.7,0,0,5.7,0,12.8
			C0,19.8,5.7,25.5,12.8,25.5C12.8,25.5,12.8,25.5,12.8,25.5z"/>
	</g>
</g>
</svg>
