<?xml version="1.0" encoding="utf-8"?>
<!-- Generator: Adobe Illustrator 22.1.0, SVG Export Plug-In . SVG Version: 6.00 Build 0)  -->
<svg version="1.1" id="Capa_1" xmlns="http://www.w3.org/2000/svg" xmlns:xlink="http://www.w3.org/1999/xlink" x="0px" y="0px"
	 viewBox="0 0 17.6 17.5" style="enable-background:new 0 0 17.6 17.5;" xml:space="preserve">
<style type="text/css">
	.st0{fill:#FF4545;}
</style>
<title>icono</title>
<g>
	<path class="st0" d="M1.7,3.8H11c0.4,0,0.7-0.3,0.7-0.7v0c0-0.4-0.3-0.7-0.7-0.7H1.7C1.3,2.4,1,2.7,1,3.1v0C1,3.5,1.3,3.8,1.7,3.8z
		"/>
	<path class="st0" d="M14.2,11.6c0.4-0.6,0.6-1.3,0.6-2.1c0-1.9-1.4-3.5-3.2-3.9c-0.1-0.3-0.4-0.4-0.6-0.4H1.7C1.3,5.3,1,5.6,1,6v0
		c0,0.4,0.3,0.7,0.7,0.7h6.5c-0.4,0.4-0.8,0.9-1,1.5H1.7C1.3,8.1,1,8.5,1,8.8c0,0.4,0.3,0.7,0.7,0.7H7c0,0,0,0,0,0
		c0,2.2,1.8,3.9,3.9,3.9c0.8,0,1.6-0.3,2.2-0.7l2.3,2.3l0.1-0.1l0.8-0.8l0.1-0.1L14.2,11.6z M10.9,12.5C9.3,12.5,8,11.1,8,9.5
		C8,8,9.2,6.8,10.7,6.7H11c0,0,0,0,0,0c1.5,0.1,2.8,1.3,2.8,2.9C13.8,11.1,12.5,12.5,10.9,12.5z"/>
</g>
</svg>
