<?xml version="1.0" encoding="utf-8"?>
<!-- Generator: Adobe Illustrator 23.0.2, SVG Export Plug-In . SVG Version: 6.00 Build 0)  -->
<svg version="1.1" id="Capa_1" xmlns="http://www.w3.org/2000/svg" xmlns:xlink="http://www.w3.org/1999/xlink" x="0px" y="0px"
	 viewBox="0 0 92 92" style="enable-background:new 0 0 92 92;" xml:space="preserve">
<style type="text/css">
	.st0{fill:#FF4545;}
</style>
<g>
	<path class="st0" d="M46,0C20.6,0,0,20.6,0,46s20.6,46,46,46s46-20.6,46-46S71.4,0,46,0z M76.4,76.4c-4,4-8.5,7.1-13.7,9.2
		C57.4,87.9,51.8,89,46,89s-11.4-1.1-16.7-3.4c-5.1-2.2-9.7-5.3-13.7-9.2s-7.1-8.5-9.2-13.7C4.1,57.4,3,51.8,3,46s1.1-11.4,3.4-16.7
		c2.2-5.1,5.3-9.7,9.2-13.7s8.5-7.1,13.7-9.2C34.6,4.1,40.2,3,46,3s11.4,1.1,16.7,3.4c5.1,2.2,9.7,5.3,13.7,9.2s7.1,8.5,9.2,13.7
		C87.9,34.6,89,40.2,89,46s-1.1,11.4-3.4,16.7C83.5,67.9,80.4,72.5,76.4,76.4z"/>
	<g>
		<path class="st0" d="M58.5,38.4v-3.8c0-6.3-5.6-11.4-12.5-11.4s-12.5,5.1-12.5,11.4v3.8c-2.6,0.6-4.5,3-4.5,5.8v14.7
			c0,3.3,2.7,5.9,5.9,5.9h22.2c3.3,0,5.9-2.7,5.9-5.9V44.2C63,41.4,61.1,39.1,58.5,38.4z M46,25.7c5.5,0,10,4,10,8.9v3.6H36v-3.6
			C36,29.7,40.5,25.7,46,25.7z M60.5,44.2v14.7c0,1.9-1.5,3.4-3.4,3.4H34.9c-1.9,0-3.4-1.5-3.4-3.4V44.2c0-1.9,1.5-3.4,3.4-3.4h22.2
			C59,40.7,60.5,42.3,60.5,44.2z"/>
		<path class="st0" d="M46,44.3c-1.9,0-3.5,1.6-3.5,3.5v4.5c0,1.9,1.6,3.5,3.5,3.5s3.5-1.6,3.5-3.5v-4.5
			C49.5,45.8,47.9,44.3,46,44.3z M47,52.3c0,0.6-0.4,1-1,1s-1-0.4-1-1v-4.5c0-0.6,0.4-1,1-1s1,0.4,1,1V52.3z"/>
	</g>
</g>
</svg>
