<?xml version="1.0" encoding="utf-8"?>
<!-- Generator: Adobe Illustrator 23.0.2, SVG Export Plug-In . SVG Version: 6.00 Build 0)  -->
<svg version="1.1" id="Grupo_707" xmlns="http://www.w3.org/2000/svg" xmlns:xlink="http://www.w3.org/1999/xlink" x="0px" y="0px"
	 viewBox="0 0 16.1 17.2" style="enable-background:new 0 0 16.1 17.2;" xml:space="preserve">
<style type="text/css">
	.st0{fill:#FC2525;}
</style>
<path id="Trazado_395" class="st0" d="M7.6,12.7c0.2,0.2,0.5,0.2,0.7,0.1c0,0,0,0,0.1-0.1l3.8-4.3c0.2-0.2,0.2-0.6-0.1-0.8
	c-0.1-0.1-0.2-0.1-0.4-0.1H9.7v-7C9.6,0.2,9.4,0,9.1,0H7C6.7,0,6.4,0.2,6.4,0.5v7H4.3C4,7.5,3.7,7.8,3.8,8.1c0,0.1,0,0.3,0.1,0.3
	L7.6,12.7z"/>
<path id="Trazado_396" class="st0" d="M13.9,11.8V15H2.1v-3.2H0v4.3c0,0.6,0.5,1.1,1.1,1.1c0,0,0,0,0,0H15c0.6,0,1.1-0.5,1.1-1.1
	c0,0,0,0,0,0v-4.3H13.9z"/>
</svg>
