<?xml version="1.0" encoding="utf-8"?>
<!-- Generator: Adobe Illustrator 23.0.2, SVG Export Plug-In . SVG Version: 6.00 Build 0)  -->
<svg version="1.1" id="Capa_1" xmlns="http://www.w3.org/2000/svg" xmlns:xlink="http://www.w3.org/1999/xlink" x="0px" y="0px"
	 viewBox="0 0 16.4 12.3" style="enable-background:new 0 0 16.4 12.3;" xml:space="preserve">
<style type="text/css">
	.st0{fill:#FF5151;}
</style>
<g id="eye-19" transform="translate(0 -2)">
	<path id="Trazado_1002" class="st0" d="M8.2,14.3c4.8,0,7.9-5.4,8.1-5.7c0.2-0.3,0.2-0.7,0-1C16.2,7.4,13.1,2,8.2,2
		C3.3,2,0.3,7.4,0.1,7.7C0,8,0,8.3,0.1,8.7C0.3,8.9,3.4,14.3,8.2,14.3z M8.2,4.1c2.9,0,5.2,2.9,6,4.1c-0.8,1.2-3.1,4.1-6,4.1
		S3,9.3,2.2,8.2C3,7,5.3,4.1,8.2,4.1z"/>
	<circle id="Elipse_243" class="st0" cx="8.2" cy="8.2" r="2.1"/>
</g>
</svg>
