<svg xmlns="http://www.w3.org/2000/svg" xmlns:xlink="http://www.w3.org/1999/xlink" viewBox="0 0 15.376 13.877">
  <defs>
    <style>
      .cls-1 {
        fill: none;
      }

      .cls-2 {
        clip-path: url(#clip-path);
      }

      .cls-3 {
        fill: #ff5151;
      }
    </style>
    <clipPath id="clip-path">
      <rect class="cls-1" width="15.376" height="13.878"/>
    </clipPath>
  </defs>
  <g id="Repeat_Grid_62" data-name="Repeat Grid 62" class="cls-2">
    <g id="Group_181" data-name="Group 181">
      <path id="Path_305" data-name="Path 305" class="cls-3" d="M4.675,15.4c-.064,0-.128.032-.128.1L1.6,22.832v.256c0,.192,0,.256.128.256H13.2a.7.7,0,0,0,.641-.448l2.627-7.24V15.4Zm0,0" transform="translate(-1.087 -10.467)"/>
      <path id="Path_306" data-name="Path 306" class="cls-3" d="M3.267,4.1H13.839V2.5a.711.711,0,0,0-.7-.7H6.791L5.51,0H.7A.711.711,0,0,0,0,.7V11.4L2.627,4.549A.665.665,0,0,1,3.267,4.1Zm0,0" transform="translate(0 0)"/>
    </g>
  </g>
</svg>
