<svg id="user" xmlns="http://www.w3.org/2000/svg" width="23.66" height="23.66" viewBox="0 0 23.66 23.66">
  <path id="Trazado_1040" data-name="Trazado 1040" d="M20.44,317.191l-3.547-2.225a5.083,5.083,0,0,1-10.125,0L3.22,317.191A6.872,6.872,0,0,0,0,323.013v1.058H23.66v-1.058A6.872,6.872,0,0,0,20.44,317.191Zm-1.216,5.031h-3.7a.693.693,0,1,1,0-1.386h3.7a.693.693,0,1,1,0,1.386Z" transform="translate(0 -300.411)" fill="#ef0911"/>
  <path id="Trazado_1041" data-name="Trazado 1041" d="M180.361,318.624a3.7,3.7,0,0,0,3.665-3.216,6.477,6.477,0,0,1-7.329,0A3.7,3.7,0,0,0,180.361,318.624Z" transform="translate(-168.531 -300.833)" fill="#ef0911"/>
  <path id="Trazado_1042" data-name="Trazado 1042" d="M156.351,3.835h-.185a.7.7,0,0,0-.15.017A5.084,5.084,0,0,0,146,5.083v.124h1.658a3.018,3.018,0,0,0,2.168-.924l.757-.789a.693.693,0,0,1,.5-.213h0a.693.693,0,0,1,.5.215l.756.794a3.017,3.017,0,0,0,2.175.932h1.835a1.157,1.157,0,0,1,1.155,1.155V9.612a1.157,1.157,0,0,1-1.155,1.155h-.418a5.081,5.081,0,0,0,.233-1.525V6.608h-1.65a4.41,4.41,0,0,1-3.179-1.362l-.256-.268-.255.266a4.411,4.411,0,0,1-3.168,1.351H146V9.242a5.084,5.084,0,0,0,7.8,4.3h-1.745a.693.693,0,1,1,0-1.386h4.3a2.543,2.543,0,0,0,2.542-2.542V6.377a2.544,2.544,0,0,0-2.542-2.542Z" transform="translate(-139.253)" fill="#ef0911"/>
</svg>
