<svg id="Capa_1" data-name="Capa 1" xmlns="http://www.w3.org/2000/svg" viewBox="0 0 17.56 13.11"><defs><style>.cls-1{fill:#ff4545;}</style></defs><title>icono</title><path class="cls-1" d="M5.91,3.87a.71.71,0,0,1-.21-.66.09.09,0,0,1,0,0,.24.24,0,0,1,0-.08.08.08,0,0,0,0-.05L5.8,3a.05.05,0,0,1,0,0l.09-.11L8.24.59A.8.8,0,0,1,8.79.37h0a.77.77,0,0,1,.55.22l2.33,2.22a.44.44,0,0,1,.09.11l0,0,0,.07s0,0,0,.05a.19.19,0,0,1,0,.08l0,0a.74.74,0,0,1-.22.66.8.8,0,0,1-1.1,0l-1-.94v4A.78.78,0,0,1,8,6.88H8v-4l-1,1a.8.8,0,0,1-.55.22A.82.82,0,0,1,5.91,3.87Zm9.18,1.59a2.08,2.08,0,0,0-1.82-1.9,2,2,0,0,1-.58,1.21l-.32.31h.24c.57,0,.88.28.88.37v5.31c0,.1-.31.38-.88.38H5c-.57,0-.87-.28-.87-.38V5.46c0-.1.3-.37.87-.37h.28l-.32-.32a2,2,0,0,1-.58-1.22,2.09,2.09,0,0,0-1.86,1.9v5.31a2.24,2.24,0,0,0,2.48,2h7.66a2.24,2.24,0,0,0,2.48-2Z"/></svg>