<?xml version="1.0" encoding="utf-8"?>
<!-- Generator: Adobe Illustrator 23.0.1, SVG Export Plug-In . SVG Version: 6.00 Build 0)  -->
<svg version="1.1" id="Capa_1" xmlns="http://www.w3.org/2000/svg" xmlns:xlink="http://www.w3.org/1999/xlink" x="0px" y="0px"
	 viewBox="0 0 17.1 17" style="enable-background:new 0 0 17.1 17;" xml:space="preserve">
<style type="text/css">
	.st0{fill:#FF5151;}
</style>
<path id="Trazado_975" class="st0" d="M10.6,2.9l3.5,3.5l-8.8,8.8l-3.5-3.5L10.6,2.9z M16.7,2l-1.5-1.5c-0.6-0.6-1.6-0.6-2.2,0
	L11.5,2L15,5.4l1.7-1.7C17.2,3.2,17.2,2.5,16.7,2C16.7,2,16.7,2,16.7,2z M0,16.5c0,0.2,0.1,0.4,0.3,0.5c0.1,0,0.1,0,0.2,0l3.9-0.9
	l-3.5-3.5L0,16.5z"/>
</svg>
