<?xml version="1.0" encoding="utf-8"?>
<!-- Generator: Adobe Illustrator 24.0.0, SVG Export Plug-In . SVG Version: 6.00 Build 0)  -->
<svg version="1.1" id="Capa_1" xmlns="http://www.w3.org/2000/svg" xmlns:xlink="http://www.w3.org/1999/xlink" x="0px" y="0px"
	 viewBox="0 0 250 147.6" style="enable-background:new 0 0 250 147.6;" xml:space="preserve">
<style type="text/css">
	.st0{fill:#6A6A6A;}
	.st1{fill:none;stroke:#E9484A;stroke-width:7;stroke-miterlimit:10;}
</style>
<g>
	<path class="st0" d="M209,7.7H40.6c-10.6,0-19.1,8.6-19.1,19.1v16.8h206.6V26.8C228.1,16.3,219.5,7.7,209,7.7z"/>
	<path class="st0" d="M80.6,63.9H21.5v58c0,10.6,8.6,19.1,19.1,19.1h70.3h50.5H209c10.6,0,19.1-8.6,19.1-19.1v-58h-36.5H80.6z
		 M94.3,115.2c0,1.4-1.2,2.6-2.6,2.6H51.9c-1.4,0-2.6-1.2-2.6-2.6v-7.9c0-1.4,1.2-2.6,2.6-2.6h39.8c1.4,0,2.6,1.2,2.6,2.6V115.2z"/>
</g>
<g>
	<circle cx="179.6" cy="54.6" r="5.1"/>
	<circle cx="194.8" cy="54.6" r="5.1"/>
	<circle cx="210.1" cy="54.6" r="5.1"/>
</g>
<circle class="st1" cx="194.2" cy="53.7" r="44.2"/>
</svg>
