<?xml version="1.0" encoding="utf-8"?>
<!-- Generator: Adobe Illustrator 25.0.0, SVG Export Plug-In . SVG Version: 6.00 Build 0)  -->
<svg version="1.1" id="Capa_1" xmlns="http://www.w3.org/2000/svg" xmlns:xlink="http://www.w3.org/1999/xlink" x="0px" y="0px"
	 viewBox="0 0 24.8 17" style="enable-background:new 0 0 24.8 17;" xml:space="preserve">
<style type="text/css">
	.st0{fill:#EF0911;}
</style>
<g id="envelopes" transform="translate(0 -80)">
	<g id="Grupo_157" transform="translate(16.413 83.138)">
		<g id="Grupo_156">
			<path id="Trazado_183" class="st0" d="M0,5.5l8.3,5.3V0L0,5.5z"/>
		</g>
	</g>
	<g id="Grupo_159" transform="translate(0 83.138)">
		<g id="Grupo_158">
			<path id="Trazado_184" class="st0" d="M0,0v10.8l8.3-5.3L0,0z"/>
		</g>
	</g>
	<g id="Grupo_161" transform="translate(0.046 80)">
		<g id="Grupo_160" transform="translate(0 0)">
			<path id="Trazado_185" class="st0" d="M23.2,0H1.5C0.7,0,0.1,0.6,0,1.3l12.3,8.1l12.3-8.1C24.6,0.6,23.9,0,23.2,0z"/>
		</g>
	</g>
	<g id="Grupo_163" transform="translate(0.05 89.571)">
		<g id="Grupo_162">
			<path id="Trazado_186" class="st0" d="M14.9,0l-2.2,1.4c-0.3,0.2-0.6,0.2-0.9,0L9.7,0L0,6.1c0.1,0.7,0.7,1.3,1.5,1.3h21.7
				c0.8,0,1.4-0.6,1.5-1.3L14.9,0z"/>
		</g>
	</g>
</g>
</svg>
