<?xml version="1.0" encoding="UTF-8" standalone="no"?>
<svg
   xmlns:dc="http://purl.org/dc/elements/1.1/"
   xmlns:cc="http://creativecommons.org/ns#"
   xmlns:rdf="http://www.w3.org/1999/02/22-rdf-syntax-ns#"
   xmlns:svg="http://www.w3.org/2000/svg"
   xmlns="http://www.w3.org/2000/svg"
   xmlns:sodipodi="http://sodipodi.sourceforge.net/DTD/sodipodi-0.dtd"
   xmlns:inkscape="http://www.inkscape.org/namespaces/inkscape"
   viewBox="0 0 15.674 14.778"
   version="1.1"
   id="svg949"
   sodipodi:docname="icono-estrella.svg"
   inkscape:version="0.92.5 (2060ec1f9f, 2020-04-08)">
  <metadata
     id="metadata953">
    <rdf:RDF>
      <cc:Work
         rdf:about="">
        <dc:format>image/svg+xml</dc:format>
        <dc:type
           rdf:resource="http://purl.org/dc/dcmitype/StillImage" />
        <dc:title></dc:title>
      </cc:Work>
    </rdf:RDF>
  </metadata>
  <sodipodi:namedview
     pagecolor="#ffffff"
     bordercolor="#666666"
     borderopacity="1"
     objecttolerance="10"
     gridtolerance="10"
     guidetolerance="10"
     inkscape:pageopacity="0"
     inkscape:pageshadow="2"
     inkscape:window-width="1920"
     inkscape:window-height="1043"
     id="namedview951"
     showgrid="false"
     inkscape:zoom="35.59345"
     inkscape:cx="8.0336653"
     inkscape:cy="7.3889999"
     inkscape:window-x="0"
     inkscape:window-y="0"
     inkscape:window-maximized="1"
     inkscape:current-layer="svg949" />
  <defs
     id="defs946">
    <style
       id="style944">
      .cls-1 {
        fill: #ff4545;
      }
    </style>
  </defs>
  <path
     id="Path_798"
     data-name="Path 798"
     class="cls-1"
     d="M8.2.2l2,4.7,5.1.4a.379.379,0,0,1,.2.7L11.7,9.3l1.2,5a.391.391,0,0,1-.6.4L7.9,12.1,3.5,14.7a.391.391,0,0,1-.6-.4l1.2-5L.1,6.1c-.2-.3-.1-.7.3-.7L5.5,5,7.5.3c.1-.4.5-.4.7-.1Zm0,0"
     transform="translate(0 0.014)" />
  <path
     style="opacity:0.98400005;fill:#f9f9f9;fill-opacity:0.4879227;stroke:none;stroke-width:0.02809506;stroke-opacity:1"
     d="M 3.1657166,14.747457 C 3.0556795,14.715246 2.939405,14.581404 2.9169486,14.461103 2.9048284,14.396175 3.0711334,13.657817 3.5058269,11.846616 3.8389997,10.458413 4.1115954,9.3186429 4.1115954,9.313794 4.1115954,9.308945 3.2089259,8.5828893 2.105663,7.7003367 0.3538909,6.2990106 0.09402799,6.0814436 0.0547238,5.9832126 0.0299701,5.921347 0.00971707,5.8389726 0.00971707,5.8001582 c 0,-0.1110809 0.07258891,-0.2564731 0.15500984,-0.3104774 C 0.24635445,5.4361965 0.03345954,5.4556175 3.6752915,5.1694337 4.6792332,5.0905417 5.5039785,5.022655 5.508059,5.0185745 5.5121396,5.014494 5.9714367,3.9373772 6.5287196,2.6249816 7.0860027,1.3125861 7.5560726,0.21044527 7.5733199,0.17577973 7.6294937,0.06287555 7.739405,0.01586929 7.925912,0.02498519 c 0.034994,0.0017104 0.1077522,0.04419889 0.1616837,0.0944188 0.084041,0.0782567 0.2404541,0.42616209 1.0942159,2.43382631 0.5478874,1.2883847 1.0028844,2.3492436 1.0111054,2.3574642 0.0082,0.00822 1.183607,0.106827 2.611969,0.2191243 1.428362,0.1122974 2.620024,0.2165736 2.648138,0.231725 0.162853,0.087764 0.248014,0.3121004 0.180422,0.4752807 -0.01786,0.043119 -0.09851,0.1347121 -0.179222,0.2035405 -0.829994,0.7077898 -3.736458,3.2461869 -3.746325,3.2718995 -0.0071,0.018447 0.253208,1.1451585 0.578414,2.5038055 0.325206,1.358646 0.597896,2.499219 0.605977,2.534604 0.0197,0.08628 -0.07865,0.301908 -0.156785,0.343722 -0.11183,0.05985 -0.221705,0.08019 -0.304647,0.0564 -0.04464,-0.0128 -1.05922,-0.601499 -2.254628,-1.308217 C 8.9808219,12.735867 7.97707,12.145918 7.9456702,12.131587 7.8982519,12.109945 7.510333,12.328956 5.655923,13.424333 4.427962,14.149675 3.3853381,14.749969 3.3389813,14.75832 c -0.046357,0.0084 -0.124326,0.0035 -0.1732647,-0.01086 z"
     id="path955"
     inkscape:connector-curvature="0" />
  <path
     style="opacity:0.98400005;fill:#f9f9f9;fill-opacity:0.4879227;stroke:none;stroke-width:0.02809506;stroke-opacity:1"
     d="m 3.162907,14.747457 c -0.1103281,-0.0323 -0.2265585,-0.166392 -0.2482035,-0.286354 -0.011563,-0.06409 0.1602236,-0.826267 0.5888783,-2.612724 0.3328621,-1.387233 0.6052041,-2.5270033 0.6052041,-2.5328218 0,-0.00582 -0.9026695,-0.7326679 -2.0059325,-1.6152205 C 0.35108139,6.2990106 0.09121848,6.0814436 0.0519143,5.9832126 -0.00483542,5.8413812 -0.00494979,5.7508235 0.05147062,5.6319264 0.10409241,5.5210341 0.18755433,5.4606145 0.31886948,5.4383514 0.37134852,5.429454 1.5579381,5.333179 2.9557352,5.2244067 4.3535326,5.1156345 5.5013783,5.0224454 5.5065037,5.01732 5.5116294,5.0121944 5.9832206,3.9096469 6.5544842,2.5672143 7.2595307,0.91040068 7.6130652,0.1113717 7.6551628,0.07955291 7.7867834,-0.01993045 7.9823331,0.00478627 8.1089109,0.13690484 c 0.054606,0.0569971 0.3845525,0.80021668 1.0760884,2.42394196 0.5485341,1.2879574 1.0024467,2.3469278 1.0086947,2.3532677 0.0062,0.00634 1.180643,0.1034559 2.609765,0.2158131 2.800377,0.2201649 2.705792,0.2074311 2.806445,0.3778226 0.05993,0.1014512 0.05835,0.2743853 -0.0034,0.3691314 -0.02696,0.041389 -0.592658,0.5462561 -1.257106,1.1219274 -2.032052,1.7605507 -2.654983,2.3058774 -2.654983,2.3242296 0,0.00968 0.272191,1.1519834 0.604869,2.5384584 0.427645,1.782261 0.599311,2.543839 0.585899,2.599279 -0.04846,0.200312 -0.263642,0.343134 -0.442557,0.293734 -0.04953,-0.01368 -1.082051,-0.610897 -2.294482,-1.327155 -1.2124302,-0.716258 -2.2233831,-1.302291 -2.2465615,-1.302296 -0.023178,-5e-6 -1.0409218,0.589175 -2.261652,1.309287 -1.2207303,0.720114 -2.2574379,1.316016 -2.3037947,1.324228 -0.046357,0.0082 -0.124326,0.0032 -0.1732648,-0.01112 z"
     id="path957"
     inkscape:connector-curvature="0" />
  <path
     style="opacity:0.98400005;fill:#f9f9f9;fill-opacity:0.4879227;stroke:none;stroke-width:0.02809506;stroke-opacity:1"
     d="M 3.162907,14.747457 C 3.0526632,14.715186 2.9364196,14.581163 2.9145397,14.461103 2.9028148,14.396765 3.0729652,13.641866 3.503418,11.848452 3.8363703,10.461259 4.1087859,9.3214889 4.1087859,9.3156303 c 0,-0.00586 -0.903135,-0.7331133 -2.0069669,-1.616121 C 0.24330547,6.2127956 0.09132463,6.0848038 0.04716185,5.9691651 -0.039369,5.7425875 0.05544422,5.5056037 0.25415041,5.4518017 0.31132037,5.4363221 1.4390531,5.3403615 2.7602231,5.238556 4.0813932,5.1367504 5.2403269,5.0462251 5.3356318,5.0373883 L 5.5089128,5.0213219 6.5437192,2.5879544 C 7.1785428,1.0951538 7.6032633,0.13132853 7.6425256,0.09441439 c 0.1230746,-0.1157142 0.3330599,-0.09667112 0.4661805,0.04227687 0.054307,0.0566839 0.3865728,0.8047846 1.0765848,2.42394194 0.5489196,1.2880749 1.0021771,2.3463938 1.0072381,2.3518198 0.01,0.010681 0.717705,0.068879 3.447175,0.2834659 1.896599,0.1491078 1.871753,0.1451753 1.9702,0.3118313 0.05993,0.1014476 0.05835,0.2743294 -0.0034,0.3693519 -0.02696,0.04151 -0.883442,0.7985084 -1.903292,1.6822185 -1.019851,0.8837098 -1.889985,1.6411073 -1.933633,1.6831055 l -0.07936,0.07636 0.606937,2.5319009 c 0.428472,1.787417 0.601368,2.554925 0.587996,2.610203 -0.0484,0.200105 -0.263668,0.343005 -0.44237,0.293663 C 12.393372,14.7409 11.360856,14.14464 10.148338,13.429531 8.9358209,12.714422 7.933798,12.123708 7.9216208,12.116832 7.9094438,12.109957 7.6755525,12.236 7.4018622,12.396928 7.1281723,12.557856 6.1203919,13.151703 5.1623505,13.716589 4.204309,14.281474 3.3825286,14.75037 3.3361718,14.758579 c -0.046357,0.0082 -0.124326,0.0032 -0.1732648,-0.01112 z"
     id="path959"
     inkscape:connector-curvature="0" />
  <path
     style="opacity:0.98400005;fill:#f9f9f9;fill-opacity:0.4879227;stroke:none;stroke-width:0.02809506;stroke-opacity:1"
     d="M 3.162907,14.747457 C 3.0526432,14.71518 2.9364025,14.58114 2.9145788,14.461103 2.9028952,14.39684 3.0738238,13.637925 3.5044584,11.842066 L 4.1107885,9.3135113 4.0465733,9.2601987 C 4.011255,9.2308767 3.1076033,8.5063232 2.0384588,7.65008 0.2426354,6.2118634 0.09093782,6.083791 0.04701547,5.9687819 -0.04057716,5.739424 0.04485288,5.5224116 0.24826068,5.4575718 0.30866997,5.4383152 1.5148312,5.3330374 2.9286187,5.2236209 4.3424066,5.1142044 5.5017952,5.0220288 5.505038,5.0187858 c 0.00324,-0.00324 0.4744288,-1.10535 1.0470803,-2.449127 0.7082755,-1.66203116 1.0610938,-2.45829803 1.1034516,-2.49035359 0.1710969,-0.12948296 0.4257424,-0.04775483 0.5407413,0.1735503 0.020074,0.0386307 0.4754577,1.10062389 1.011964,2.35998479 0.5365063,1.2593609 0.9790048,2.2936773 0.9833298,2.298481 0.0089,0.00988 0.533114,0.053137 3.279873,0.2706341 2.077822,0.1645283 2.039735,0.1587255 2.138426,0.3257948 0.05992,0.1014456 0.05835,0.2743013 -0.0034,0.3694626 -0.02696,0.041571 -0.889763,0.8047163 -1.91734,1.6958789 -1.027576,0.8911623 -1.897587,1.6484297 -1.933355,1.6828163 l -0.06503,0.062521 0.606736,2.53178 c 0.42975,1.793255 0.601189,2.554707 0.58772,2.610381 -0.04856,0.200705 -0.263596,0.343346 -0.442954,0.293823 -0.04973,-0.01373 -1.091536,-0.615721 -2.315131,-1.337756 l -2.2247185,-1.312792 -0.091731,0.05502 c -1.3326612,0.799375 -4.412704,2.588941 -4.4745598,2.599809 -0.046357,0.0081 -0.124326,0.0031 -0.1732648,-0.01124 z"
     id="path961"
     inkscape:connector-curvature="0" />
  <path
     style="opacity:0.98400005;fill:#f9f9f9;fill-opacity:0.4879227;stroke:none;stroke-width:0.02809506;stroke-opacity:1"
     d="M 3.162907,14.747457 C 3.0527682,14.715216 2.9365084,14.581285 2.9143366,14.461103 2.902415,14.396483 3.0709241,13.647911 3.5039007,11.842066 l 0.6062568,-2.5285547 -0.0639,-0.052394 C 4.0111131,9.2322998 3.1074483,8.5073403 2.0381139,7.6500952 0.24819861,6.2151876 0.09012317,6.0816577 0.04667059,5.9678789 -0.04055472,5.7394827 0.04516235,5.522436 0.24826068,5.4574269 0.30866997,5.4380904 1.5149097,5.3327267 2.9287935,5.2232846 4.3426772,5.1138426 5.5017371,5.0220608 5.504482,5.0193249 5.5072269,5.0165884 5.7140037,4.5340643 5.9639859,3.9470473 7.2912121,0.830407 7.5719208,0.17722369 7.6083356,0.12079792 c 0.090866,-0.14079971 0.3575543,-0.13317462 0.4988075,0.0142618 0.082847,0.0864734 0.104855,0.13626034 1.2753771,2.88515888 0.4408474,1.0353028 0.8045768,1.8858689 0.8082888,1.8901466 0.0097,0.011193 0.395874,0.043358 2.430779,0.2024707 2.488604,0.1945881 2.766749,0.2197494 2.850367,0.2578483 0.164208,0.074818 0.236937,0.3485981 0.134585,0.5066289 -0.02696,0.041626 -0.889763,0.8048883 -1.91734,1.6961388 -1.027576,0.8912502 -1.897335,1.6482215 -1.932798,1.6821583 l -0.06448,0.061703 0.607083,2.5357528 c 0.435775,1.820211 0.601885,2.55942 0.588662,2.619624 -0.04166,0.189684 -0.30178,0.343756 -0.471452,0.279246 -0.03951,-0.01502 -1.071381,-0.616644 -2.293057,-1.336942 L 7.9019323,12.10536 5.7454797,13.374861 c -1.1860489,0.698225 -2.1943807,1.291884 -2.2407376,1.319242 -0.1122139,0.06622 -0.2333095,0.08512 -0.3418351,0.05335 z"
     id="path963"
     inkscape:connector-curvature="0" />
  <path
     style="opacity:0.98400005;fill:#f9f9f9;fill-opacity:0.4879227;stroke:none;stroke-width:0.02809506;stroke-opacity:1"
     d="M 3.162907,14.747457 C 3.0527432,14.715209 2.9364873,14.581256 2.9143849,14.461103 2.8985567,14.375059 3.0267772,13.81939 3.9106221,10.143715 4.0694806,9.4830658 4.1024204,9.30978 4.0740632,9.2839087 4.0545298,9.2660877 3.151147,8.5408945 2.0665454,7.6723684 0.24428042,6.2131367 0.09093304,6.0837783 0.04700699,5.9687597 -0.04054973,5.7394956 0.04475341,5.5226976 0.24826068,5.4572735 0.30866997,5.4378527 1.5149097,5.3322075 2.9287935,5.2225061 4.3426772,5.1128047 5.5015522,5.0212306 5.5040715,5.0190083 5.5065908,5.016786 5.9718469,3.9276889 6.5379741,2.5987928 7.1041013,1.2698966 7.5855067,0.15479889 7.6077639,0.12079792 c 0.052432,-0.08009621 0.2115035,-0.1243784 0.3273976,-0.0911404 0.193369,0.05545751 0.2040743,0.07699387 1.2201815,2.45468498 0.5353732,1.2527732 0.985172,2.3113932 0.999552,2.3524887 0.03238,0.092518 -0.1953344,0.067085 2.480741,0.2770687 2.70614,0.2123427 2.756408,0.2170534 2.853806,0.2674194 0.157072,0.081225 0.218062,0.3397406 0.117098,0.4963394 -0.02696,0.041816 -0.896084,0.8111029 -1.931387,1.7095263 -1.035303,0.8984234 -1.905006,1.655247 -1.932673,1.6818297 -0.04821,0.046322 -0.0258,0.1506369 0.53873,2.5073473 0.323968,1.352458 0.597476,2.504019 0.607795,2.559025 0.04721,0.251667 -0.241589,0.50445 -0.47496,0.415723 -0.04226,-0.01607 -1.073925,-0.617454 -2.292598,-1.336419 l -2.2157685,-1.307207 -0.472622,0.276521 c -0.2599422,0.152088 -1.2691172,0.745378 -2.242611,1.318424 -0.9734937,0.573045 -1.8079169,1.048465 -1.8542737,1.056488 -0.046357,0.008 -0.124326,0.0029 -0.1732648,-0.01146 z"
     id="path965"
     inkscape:connector-curvature="0" />
  <path
     style="opacity:0.98400005;fill:#f9f9f9;fill-opacity:0.4879227;stroke:none;stroke-width:0.02809506;stroke-opacity:1"
     d="M 3.162907,14.748187 C 3.0524024,14.714933 2.9363735,14.580839 2.9144995,14.461103 2.8986059,14.374104 3.0003867,13.931805 3.8823316,10.255289 4.059608,9.5162868 4.1005273,9.3079235 4.0732571,9.2830875 4.0541674,9.2657014 3.1517741,8.5416556 2.0679389,7.6740965 0.34427983,6.2943887 0.09166391,6.0825568 0.05211858,5.9837231 0.02725252,5.9215769 0.00690756,5.8389726 0.00690756,5.8001582 c 0,-0.1102596 0.07237309,-0.2563315 0.15326255,-0.3093325 C 0.24852483,5.4329336 0.09811247,5.4472295 3.1114113,5.2103244 4.4248552,5.1070618 5.5013058,5.0208625 5.5035237,5.0187709 5.5057404,5.0166806 5.9709287,3.9277676 6.5372734,2.5989673 7.103618,1.2701672 7.5852702,0.15506947 7.6076113,0.12097249 c 0.091912,-0.1402753 0.3581162,-0.13351879 0.4981484,0.0126435 0.087284,0.091105 0.072602,0.0580223 1.2044801,2.71401051 0.4816591,1.1302284 0.8773132,2.0574271 0.8792322,2.0604411 0.0058,0.00918 0.924732,0.085294 2.811399,0.2328648 2.240353,0.175235 2.390716,0.1897841 2.489542,0.2408893 0.156126,0.080736 0.216823,0.3398181 0.116127,0.4956805 -0.02696,0.04173 -0.896084,0.8113243 -1.931387,1.7102087 -1.035303,0.8988845 -1.904711,1.6554833 -1.932017,1.6813302 -0.04729,0.04476 -0.02087,0.1671352 0.555677,2.5742869 0.430017,1.795364 0.600634,2.553857 0.589127,2.619017 -0.03475,0.196778 -0.297535,0.355817 -0.475886,0.288008 -0.04179,-0.01589 -1.072942,-0.616759 -2.291436,-1.335264 L 7.905174,12.108717 7.3625665,12.426383 C 7.0641321,12.6011 6.0544008,13.195185 5.1187191,13.746573 4.1830372,14.29796 3.3802209,14.754916 3.334683,14.76203 3.289145,14.76913 3.2118458,14.762915 3.162907,14.74819 Z"
     id="path967"
     inkscape:connector-curvature="0" />
  <path
     style="opacity:0.98400005;fill:#f9f9f9;fill-opacity:0.4879227;stroke:none;stroke-width:0.02809506;stroke-opacity:1"
     d="M 3.1371237,14.739405 C 3.0278269,14.690128 2.9350463,14.573548 2.9140261,14.45908 2.8984092,14.374037 2.9937667,13.959275 3.867732,10.310886 4.0529186,9.5378209 4.0989933,9.3065291 4.0726,9.2824654 4.0538715,9.2653901 3.1513642,8.5413957 2.0670283,7.6735891 0.23707499,6.2090562 0.09206043,6.0867306 0.04748995,5.9700243 -0.03434388,5.7557455 0.03732289,5.5370699 0.21278199,5.4656713 0.26739661,5.4434473 1.3081686,5.3505791 2.9006984,5.2258283 4.3300344,5.1138614 5.501187,5.0206131 5.5032598,5.0186099 5.5053333,5.0166067 5.9702174,3.9282298 6.5363367,2.5999944 7.1024563,1.2717592 7.584227,0.15666149 7.6069385,0.1219996 7.7046224,-0.02708531 7.9767666,-0.01158398 8.1196983,0.15120642 8.1733927,0.21236082 8.4384027,0.79950103 8.8834149,1.8432512 9.2582341,2.7223675 9.7058583,3.7723011 9.878135,4.176437 l 0.313231,0.7347922 0.16857,0.017406 c 0.09271,0.00957 1.205278,0.098973 2.472365,0.1986663 2.547782,0.2004568 2.552687,0.2009297 2.661531,0.2566717 0.152625,0.078163 0.212603,0.3401555 0.112708,0.4923262 -0.05332,0.081222 -0.04572,0.074507 -2.282576,2.0166059 -0.842149,0.7311767 -1.552861,1.3499307 -1.57936,1.3750089 -0.05406,0.051158 -0.111779,-0.2103772 0.750836,3.4019808 0.375709,1.57335 0.409556,1.736258 0.380732,1.832464 -0.05505,0.183744 -0.295082,0.312261 -0.463567,0.248204 -0.04305,-0.01637 -1.075286,-0.617589 -2.293861,-1.336048 L 7.903152,12.108226 5.6570187,13.430469 c -1.3632348,0.802502 -2.282904,1.327306 -2.3396801,1.335126 -0.051451,0.0071 -0.1325477,-0.0047 -0.1802149,-0.02619 z"
     id="path969"
     inkscape:connector-curvature="0" />
  <path
     style="opacity:0.98400005;fill:#808080;fill-opacity:0.4879227;stroke:none;stroke-width:0.02809506;stroke-opacity:1"
     d="M 3.1273337,14.72921 C 3.0152948,14.67133 2.9020133,14.517759 2.9020133,14.423756 c 0,-0.03521 0.2030312,-0.915173 0.4511805,-1.955476 C 3.6013431,11.427977 3.8668414,10.314838 3.94319,9.994636 4.0195386,9.6744344 4.0815739,9.3836505 4.0810463,9.3484497 4.080288,9.2978625 3.6643156,8.9517472 2.0963747,7.6970776 0.00572114,6.0241321 0.01059004,6.0285411 0.00883949,5.8067826 0.00791377,5.6895138 0.07836835,5.544318 0.16315406,5.4887642 0.25055854,5.4314947 0.15452818,5.4405523 3.2672491,5.1959789 4.6856215,5.0845342 5.4836001,5.0111134 5.5032231,4.9902503 5.5200048,4.9724077 5.9614209,3.9527089 6.4841477,2.7242525 7.6980207,-0.12846102 7.5970468,0.09086893 7.7201754,0.03942248 7.7985774,0.00666401 7.844646,0.00386666 7.9294894,0.02671263 c 0.2199661,0.05923068 0.105005,-0.18560217 1.9822971,4.22171047 0.1497415,0.351547 0.2824045,0.645448 0.2948075,0.6531134 0.02677,0.016547 0.397296,0.047835 2.992258,0.2526749 2.160673,0.1705583 2.18579,0.1730647 2.296295,0.2291478 0.14282,0.072483 0.210284,0.3284211 0.125908,0.4776544 -0.03984,0.070469 -0.03496,0.066147 -2.21149,1.9597437 -1.196254,1.0407525 -1.674122,1.4730095 -1.680325,1.519946 -0.009,0.067778 0.04022,0.2806527 0.752943,3.2589617 0.29558,1.235169 0.418695,1.797328 0.407452,1.86047 -0.03627,0.203713 -0.280308,0.356837 -0.465694,0.292211 -0.04465,-0.01557 -1.079646,-0.616752 -2.299979,-1.335966 l -2.218788,-1.307663 -2.2462214,1.32147 c -1.3223388,0.777942 -2.2848072,1.327242 -2.3400339,1.335502 -0.059501,0.0089 -0.1295716,-0.0044 -0.191585,-0.03648 z"
     id="path971"
     inkscape:connector-curvature="0"
     inkscape:transform-center-x="-0.028095057"
     inkscape:transform-center-y="-0.11238023" />
</svg>
