<?xml version="1.0" encoding="utf-8"?>
<!-- Generator: Adobe Illustrator 23.0.2, SVG Export Plug-In . SVG Version: 6.00 Build 0)  -->
<svg version="1.1" id="Capa_1" xmlns="http://www.w3.org/2000/svg" xmlns:xlink="http://www.w3.org/1999/xlink" x="0px" y="0px"
	 viewBox="0 0 17.6 16.6" style="enable-background:new 0 0 17.6 16.6;" xml:space="preserve">
<style type="text/css">
	.st0{fill:#FC2525;}
</style>
<g id="Grupo_706" transform="translate(-92 -241.89)">
	<rect id="Rectángulo_1500" x="99.6" y="250.6" class="st0" width="2.5" height="0.8"/>
	<path id="Trazado_976" class="st0" d="M105.2,251.4h-2.3v0.4c0,0.2-0.2,0.4-0.4,0.4l0,0h-3.3c-0.2,0-0.4-0.2-0.4-0.4l0,0v-0.4h-2.3
		c-0.5,0-1-0.3-1.2-0.9l-1.5-4.5v9.1c0,0.7,0.6,1.2,1.2,1.2h11.7c0.7,0,1.2-0.6,1.2-1.2v-9.1l-1.5,4.5
		C106.2,251.1,105.8,251.4,105.2,251.4L105.2,251.4z"/>
	<path id="Trazado_977" class="st0" d="M102.5,243.9h-3.3c-0.7,0-1.2,0.6-1.2,1.2v0.4h-3.5l1.6,4.7c0.1,0.2,0.2,0.3,0.4,0.3h2.3
		v-0.4c0-0.2,0.2-0.4,0.4-0.4l0,0h3.3c0.2,0,0.4,0.2,0.4,0.4l0,0v0.4h2.3c0.2,0,0.3-0.1,0.4-0.3l1.6-4.7h-3.5v-0.4
		C103.7,244.5,103.2,244,102.5,243.9L102.5,243.9z M98.7,245.6v-0.4c0-0.2,0.2-0.4,0.4-0.4l0,0h3.3c0.2,0,0.4,0.2,0.4,0.4l0,0v0.4
		H98.7z"/>
</g>
</svg>
