<svg id="Grupo_552" data-name="Grupo 552" xmlns="http://www.w3.org/2000/svg" width="53.086" height="53.017" viewBox="0 0 53.086 53.017">
  <g id="Grupo_353" data-name="Grupo 353">
    <path id="Trazado_411" data-name="Trazado 411" d="M50.766,4.519h-19.2V0L0,4.865V47.58l31.564,5.437v-6.7h19.2a2.212,2.212,0,0,0,2.32-2.078V6.6A2.212,2.212,0,0,0,50.766,4.519Zm.312,40.066H31.512L31.478,41h4.71V36.828H31.443l-.017-2.459h4.761V30.2H31.374l-.017-2.459h4.831v-4.19H31.339V21.089h4.848V16.916H31.339V14.458h4.848V10.285H31.339V6.493H51.078Z" fill="#cfced0" fill-rule="evenodd"/>
    <rect id="Rectángulo_271" data-name="Rectángulo 271" width="8.19" height="4.173" transform="translate(38.836 10.285)" fill="#cfced0"/>
    <rect id="Rectángulo_272" data-name="Rectángulo 272" width="8.19" height="4.173" transform="translate(38.836 16.916)" fill="#cfced0"/>
    <rect id="Rectángulo_273" data-name="Rectángulo 273" width="8.19" height="4.173" transform="translate(38.836 23.548)" fill="#cfced0"/>
    <rect id="Rectángulo_274" data-name="Rectángulo 274" width="8.19" height="4.173" transform="translate(38.836 30.196)" fill="#cfced0"/>
    <rect id="Rectángulo_275" data-name="Rectángulo 275" width="8.19" height="4.173" transform="translate(38.836 36.828)" fill="#cfced0"/>
  </g>
  <path id="Trazado_412" data-name="Trazado 412" d="M45.946,91.162l4.069-.242,2.563,7.03,3.013-7.307,4.069-.242-4.935,9.99L59.659,110.4l-4.294-.294-2.909-7.636-2.909,7.341-3.948-.346,4.588-8.848Z" transform="translate(-37.705 -74.748)" fill="#fff" fill-rule="evenodd"/>
</svg>
