<svg id="Group_572" data-name="Group 572" xmlns="http://www.w3.org/2000/svg" xmlns:xlink="http://www.w3.org/1999/xlink" viewBox="0 0 16.511 16.909">
  <defs>
    <style>
      .cls-1 {
        fill: #696969;
      }

      .cls-2 {
        clip-path: url(#clip-path);
      }
    </style>
    <clipPath id="clip-path">
      <rect id="Rectangle_316" data-name="Rectangle 316" class="cls-1" width="16.511" height="16.909"/>
    </clipPath>
  </defs>
  <path id="Path_437" data-name="Path 437" class="cls-1" d="M91.406,206.885a.386.386,0,0,0-.385-.385H89.685a.386.386,0,0,0-.385.385v1.336a.386.386,0,0,0,.385.385h1.336a.386.386,0,0,0,.385-.385Zm0,0" transform="translate(-85.438 -197.57)"/>
  <path id="Path_438" data-name="Path 438" class="cls-1" d="M168.706,206.885a.386.386,0,0,0-.385-.385h-1.336a.386.386,0,0,0-.385.385v1.336a.386.386,0,0,0,.385.385h1.336a.386.386,0,0,0,.385-.385Zm0,0" transform="translate(-159.395 -197.57)"/>
  <path id="Path_439" data-name="Path 439" class="cls-1" d="M246.006,206.885a.386.386,0,0,0-.385-.385h-1.336a.386.386,0,0,0-.385.385v1.336a.386.386,0,0,0,.385.385h1.336a.386.386,0,0,0,.385-.385Zm0,0" transform="translate(-233.352 -197.57)"/>
  <path id="Path_440" data-name="Path 440" class="cls-1" d="M91.406,284.285a.386.386,0,0,0-.385-.385H89.685a.386.386,0,0,0-.385.385v1.336a.386.386,0,0,0,.385.385h1.336a.386.386,0,0,0,.385-.385Zm0,0" transform="translate(-85.438 -271.622)"/>
  <path id="Path_441" data-name="Path 441" class="cls-1" d="M168.706,284.285a.386.386,0,0,0-.385-.385h-1.336a.386.386,0,0,0-.385.385v1.336a.386.386,0,0,0,.385.385h1.336a.386.386,0,0,0,.385-.385Zm0,0" transform="translate(-159.395 -271.622)"/>
  <g id="Group_359" data-name="Group 359" transform="translate(0 0)">
    <g id="Group_357" data-name="Group 357" class="cls-2">
      <path id="Path_442" data-name="Path 442" class="cls-1" d="M246.006,284.285a.386.386,0,0,0-.385-.385h-1.336a.386.386,0,0,0-.385.385v1.336a.386.386,0,0,0,.385.385h1.336a.386.386,0,0,0,.385-.385Zm0,0" transform="translate(-233.352 -271.622)"/>
    </g>
    <g id="Group_358" data-name="Group 358" class="cls-2">
      <path id="Path_443" data-name="Path 443" class="cls-1" d="M15.045,43.309V45.35a1.668,1.668,0,0,1-1.674,1.669H12.316a1.676,1.676,0,0,1-1.682-1.669V43.3H5.881v2.05A1.679,1.679,0,0,1,4.2,47.019H3.144A1.671,1.671,0,0,1,1.47,45.35V43.309A1.521,1.521,0,0,0,0,44.822v11.97a1.523,1.523,0,0,0,1.514,1.522H15a1.523,1.523,0,0,0,1.514-1.522V44.822a1.521,1.521,0,0,0-1.47-1.514Zm-.493,12.74a.652.652,0,0,1-.653.653H2.586a.652.652,0,0,1-.653-.653V49.865a.652.652,0,0,1,.653-.653H13.9a.652.652,0,0,1,.653.653Zm0,0" transform="translate(0 -41.427)"/>
    </g>
  </g>
  <path id="Path_444" data-name="Path 444" class="cls-1" d="M59.875,4.5h1.042a.578.578,0,0,0,.575-.575V.575A.575.575,0,0,0,60.917,0H59.875A.575.575,0,0,0,59.3.575V3.922a.575.575,0,0,0,.575.575Zm0,0" transform="translate(-56.736 0)"/>
  <path id="Path_445" data-name="Path 445" class="cls-1" d="M271.775,4.5h1.042a.575.575,0,0,0,.575-.575V.575A.575.575,0,0,0,272.817,0h-1.042a.575.575,0,0,0-.575.575V3.922a.578.578,0,0,0,.575.575Zm0,0" transform="translate(-259.472 0)"/>
</svg>
