<?xml version="1.0" encoding="utf-8"?>
<!-- Generator: Adobe Illustrator 22.1.0, SVG Export Plug-In . SVG Version: 6.00 Build 0)  -->
<svg version="1.1" id="Capa_1" xmlns="http://www.w3.org/2000/svg" xmlns:xlink="http://www.w3.org/1999/xlink" x="0px" y="0px"
	 viewBox="0 0 475.1 475.1" style="enable-background:new 0 0 475.1 475.1;" xml:space="preserve">
<style type="text/css">
	.st0{fill:#54DB7C;}
</style>
<g>
	<g>
		<g>
			<path class="st0" d="M237.5,255.1c9.5,0,17.7-3.5,24.7-10.4c6.9-6.9,10.4-15.2,10.4-24.7V44.5c0-9.5-3.5-17.7-10.4-24.7
				c-6.9-6.9-15.2-10.4-24.7-10.4c-9.5,0-17.7,3.5-24.7,10.4c-6.9,6.9-10.4,15.2-10.4,24.7V220c0,9.5,3.5,17.7,10.4,24.7
				C219.8,251.6,228,255.1,237.5,255.1z"/>
			<path class="st0" d="M426,161.1c-14.7-29.4-35.4-54.1-62.1-74c-7.7-5.8-16.4-8.1-26-6.9c-9.7,1.3-17.4,5.8-23,13.7
				c-5.8,7.7-8.1,16.3-6.7,25.9c1.4,9.6,5.9,17.3,13.6,23.2c17.9,13.5,31.8,30.1,41.5,49.6c9.8,19.6,14.7,40.4,14.7,62.5
				c0,19-3.7,37.1-11.1,54.4c-7.4,17.3-17.4,32.2-30,44.8c-12.6,12.6-27.5,22.6-44.8,30c-17.3,7.4-35.4,11.1-54.4,11.1
				c-19,0-37.1-3.7-54.4-11.1c-17.3-7.4-32.2-17.4-44.8-30c-12.6-12.6-22.6-27.5-30-44.8c-7.4-17.3-11.1-35.4-11.1-54.4
				c0-22.1,4.9-42.9,14.7-62.5c9.8-19.6,23.6-36.1,41.5-49.6c7.7-5.9,12.2-13.6,13.6-23.2c1.4-9.6-0.9-18.2-6.7-25.9
				c-5.7-7.9-13.3-12.4-22.9-13.7c-9.6-1.3-18.3,1-26.2,6.9c-26.7,19.9-47.4,44.6-62.1,74c-14.7,29.4-22.1,60.8-22.1,94
				c0,28.5,5.6,55.7,16.7,81.7c11.2,26,26.1,48.3,45,67.2c18.8,18.8,41.2,33.8,67.2,45c26,11.2,53.2,16.7,81.7,16.7
				c28.5,0,55.7-5.6,81.7-16.7c26-11.1,48.3-26.1,67.2-45c18.8-18.8,33.8-41.2,45-67.2c11.1-26,16.7-53.2,16.7-81.7
				C448.1,221.8,440.7,190.5,426,161.1z"/>
		</g>
	</g>
</g>
</svg>
