<svg xmlns="http://www.w3.org/2000/svg" viewBox="0 0 23.117 23.117">
  <defs>
    <style>
      .cls-1 {
        fill: #616161;
      }

      .cls-2 {
        fill: #fff;
      }
    </style>
  </defs>
  <g id="Group_664" data-name="Group 664" transform="translate(-1015 -470.883)">
    <circle id="Ellipse_129" data-name="Ellipse 129" class="cls-1" cx="11.559" cy="11.559" r="11.559" transform="translate(1015 470.883)"/>
    <path id="Path_753" data-name="Path 753" class="cls-2" d="M8.063,4.147H7.372V3.225a3.225,3.225,0,1,0-6.45,0v.922H.231A.231.231,0,0,0,0,4.378v5.761a.921.921,0,0,0,.922.92H7.374a.923.923,0,0,0,.922-.922V4.378A.235.235,0,0,0,8.063,4.147ZM4.692,7.653,4.836,8.96a.23.23,0,0,1-.058.179.227.227,0,0,1-.171.078H3.685a.227.227,0,0,1-.171-.078.238.238,0,0,1-.058-.179L3.6,7.653a.912.912,0,0,1-.378-.741.922.922,0,1,1,1.845,0A.9.9,0,0,1,4.692,7.653Zm1.3-3.506H2.3V3.225a1.843,1.843,0,1,1,3.685,0Z" transform="translate(1022 475.941)"/>
  </g>
</svg>
