<svg xmlns="http://www.w3.org/2000/svg" xmlns:xlink="http://www.w3.org/1999/xlink" width="431.914" height="235.184" viewBox="0 0 431.914 235.184">
  <defs>
    <linearGradient id="linear-gradient" x1="0.5" y1="1.719" x2="0.5" y2="0.109" gradientUnits="objectBoundingBox">
      <stop offset="0" stop-color="#fff"/>
      <stop offset="0.118" stop-color="#fff" stop-opacity="0.824"/>
      <stop offset="0.3" stop-color="#fff" stop-opacity="0.576"/>
      <stop offset="0.475" stop-color="#fff" stop-opacity="0.373"/>
      <stop offset="0.636" stop-color="#fff" stop-opacity="0.212"/>
      <stop offset="0.783" stop-color="#fff" stop-opacity="0.094"/>
      <stop offset="0.909" stop-color="#fff" stop-opacity="0.024"/>
      <stop offset="1" stop-color="#fff" stop-opacity="0"/>
    </linearGradient>
  </defs>
  <g id="Grupo_1080" data-name="Grupo 1080" transform="translate(-39.602 -47.304)">
    <path id="Trazado_1129" data-name="Trazado 1129" d="M458.617,282.488a12.726,12.726,0,0,0,12.731-12.523c.533-34.645,3.323-85.747-61.921-99.88-52.8-11.437-21.495-105.268-163.689-99.205-102.073,4.352-74.956,90.387-154.32,97.552C38.608,173.2,38.152,239.991,40.181,270.6a12.73,12.73,0,0,0,12.706,11.893Z" fill="#eaeaea"/>
    <g id="Grupo_1068" data-name="Grupo 1068">
      <path id="Trazado_1130" data-name="Trazado 1130" d="M331.051,66.879,164.1,47.393A13.006,13.006,0,0,0,149.678,58.8L137.217,165.558a13.006,13.006,0,0,0,11.411,14.426l166.947,19.487A13.006,13.006,0,0,0,330,188.06L342.462,81.306A13.007,13.007,0,0,0,331.051,66.879Z" fill="#aeb7ba"/>
      <path id="Trazado_1131" data-name="Trazado 1131" d="M341.228,91.872l1.234-10.566a13.007,13.007,0,0,0-11.411-14.427L164.1,47.393A13.006,13.006,0,0,0,149.678,58.8l-1.233,10.567Z" fill="#0c232b"/>
      <g id="Grupo_1067" data-name="Grupo 1067">
        <path id="Trazado_1132" data-name="Trazado 1132" d="M168.125,62.146a3.5,3.5,0,1,1-3.066-3.877A3.495,3.495,0,0,1,168.125,62.146Z" fill="#fff"/>
        <path id="Trazado_1133" data-name="Trazado 1133" d="M184.871,64.1a3.5,3.5,0,1,1-3.066-3.877A3.495,3.495,0,0,1,184.871,64.1Z" fill="#79c9e8"/>
        <path id="Trazado_1134" data-name="Trazado 1134" d="M202.23,66.126a3.5,3.5,0,1,1-3.067-3.877A3.5,3.5,0,0,1,202.23,66.126Z" fill="#ffbf4d"/>
      </g>
    </g>
    <g id="Grupo_1071" data-name="Grupo 1071">
      <path id="Trazado_1135" data-name="Trazado 1135" d="M135.07,187.725a89.826,89.826,0,0,0-1.879,20.22c.337,9.152-.752,69.311-.752,69.311h7.348s10.46-47.117,10.851-50.838,5.653-40.93,5.653-40.93Z" fill="#00668e"/>
      <path id="Trazado_1136" data-name="Trazado 1136" d="M139.956,184.981s1.692,12.854,4.567,21.987,17.007,70.288,17.007,70.288h7.348s-1.353-47.117-1.86-50.838-4.229-40.93-4.229-40.93Z" fill="#0582c1"/>
      <path id="Trazado_1137" data-name="Trazado 1137" d="M162.13,277.244v5.128h13.988a.8.8,0,0,0,.443-1.471c-2.045-1.362-5.322-3.239-8.367-3.657Z" fill="#0582c1"/>
      <path id="Trazado_1138" data-name="Trazado 1138" d="M132.814,277.244v5.128H146.8a.8.8,0,0,0,.444-1.471c-2.046-1.362-5.322-3.239-8.368-3.657Z" fill="#0582c1"/>
      <g id="Grupo_1069" data-name="Grupo 1069">
        <path id="Trazado_1139" data-name="Trazado 1139" d="M158.051,125.188s4.811-7.305-.712-8.018c-4.241-.547-5.986.716-5.986.716s-4.883-.538-7.556,1.778c-1.831,1.588-8.553,13.9,2.316,18.353s8.553-6.949,8.553-6.949Z" fill="#00668e"/>
        <path id="Trazado_1140" data-name="Trazado 1140" d="M157.339,117.17c-4.241-.547-5.986.716-5.986.716s-4.883-.538-7.556,1.778c-1.831,1.588-8.553,13.9,2.316,18.353,5.109,2.094,7.3.683,8.2-1.4-10.313,2.9-11.431-9.528-9.73-13.065,1.727-3.594,5.874-1.935,5.874-1.935,1.622-4.082,6.907-3.639,9.086-3.322A2.981,2.981,0,0,0,157.339,117.17Z" fill="#05556d"/>
        <path id="Trazado_1141" data-name="Trazado 1141" d="M151.281,128.752s-1.426-1.426-2.5,0-.356,4.632,1.425,4.81c0,0-.534,4.633-4.1,4.455v3.742h8.375v-2.851s5.167-2.138,4.989-6.415a23.616,23.616,0,0,0-1.426-7.3A11.643,11.643,0,0,1,151.281,128.752Z" fill="#f0a5a6"/>
        <path id="Trazado_1142" data-name="Trazado 1142" d="M152.562,140.106c.829.345.684.868.721,1.653h1.205v-2.851s-2.03.645-5-1.049A13.141,13.141,0,0,0,152.562,140.106Z" fill="#db7b80"/>
      </g>
      <path id="Trazado_1143" data-name="Trazado 1143" d="M154.276,121.932s-4.341-1.729-4.848-.432c-.332.848.512,1.58,1.671,2.319l-1.022.168a.269.269,0,0,0-.13.472,5.743,5.743,0,0,0,2.713.442Z" fill="#f0a5a6"/>
      <g id="Grupo_1070" data-name="Grupo 1070">
        <path id="Trazado_1144" data-name="Trazado 1144" d="M128.455,169.007l5.817,18.742-.1-.946.1.946,1.964-27.293Z" fill="#e95f5c"/>
        <path id="Trazado_1145" data-name="Trazado 1145" d="M185.272,132.8c-8.277-6.134-30.883-11.038-30.883-11.038l-1.864,3.4s20.523,7.953,19.168,9.138c-.795.7-10.824,5.295-14.219,6.841a5.394,5.394,0,0,1-2.334.479l-10.391-.059a16.4,16.4,0,0,0-13.394,5.884c-5.273,6.067-14.235,20.117-14.235,20.117l15.1,22.2,1.672,2.452.014-.029-.014.206s.537.059,1.487.147c4.853.45,20.4,1.679,28.638-.066l.228-.052L163.851,156a141.17,141.17,0,0,0,21.664-20.965A1.521,1.521,0,0,0,185.272,132.8Zm-50.655,49.669-1.473-3.218-4.691-10.25,7.784-8.719-1.4,19.131Z" fill="#e95f5c"/>
      </g>
      <path id="Trazado_1146" data-name="Trazado 1146" d="M133.144,179.255l1.473,3.218-.714,9.713-.015.029-1.672-2.452Z" fill="#f0a5a6"/>
      <path id="Trazado_1147" data-name="Trazado 1147" d="M160.339,154.691c-1.4,1.015-1.044,10.023-1.389,15.655-.578,9.431-1.141,17.592-.726,22.853a41.959,41.959,0,0,0,5.789-.726l.228-.052L163.851,156a141.17,141.17,0,0,0,21.664-20.965,1.521,1.521,0,0,0-.243-2.231A185.412,185.412,0,0,1,160.339,154.691Z" fill="#c94545" opacity="0.5" style="isolation: isolate"/>
      <path id="Trazado_1148" data-name="Trazado 1148" d="M167.018,226.418c-.367-2.685-2.406-22.8-3.513-33.8l-5.281.581s7.7,63.333,8.21,84.057h2.444S167.525,230.139,167.018,226.418Z" fill="#00668e"/>
    </g>
    <g id="Grupo_1076" data-name="Grupo 1076">
      <rect id="Rectángulo_1979" data-name="Rectángulo 1979" width="146.863" height="29.86" transform="translate(187.479 211.68)" fill="#ffbf4d"/>
      <rect id="Rectángulo_1980" data-name="Rectángulo 1980" width="146.863" height="7.248" transform="translate(187.479 211.68)" fill="#f98d2b" opacity="0.29" style="mix-blend-mode: multiply;isolation: isolate"/>
      <path id="Trazado_1149" data-name="Trazado 1149" d="M200.249,211.68h13.4l-3.593,7.25H196.649Z" fill="#f77e2d"/>
      <path id="Trazado_1150" data-name="Trazado 1150" d="M230.448,211.68h13.4l-3.593,7.25h-13.4Z" fill="#f77e2d"/>
      <path id="Trazado_1151" data-name="Trazado 1151" d="M260.647,211.68h13.4l-3.593,7.25h-13.4Z" fill="#f77e2d"/>
      <path id="Trazado_1152" data-name="Trazado 1152" d="M290.847,211.68h13.4l-3.593,7.25h-13.4Z" fill="#f77e2d"/>
      <path id="Trazado_1153" data-name="Trazado 1153" d="M334.342,211.68v.2l-3.5,7.048h-13.39l3.593-7.25Z" fill="#f77e2d"/>
      <rect id="Rectángulo_1981" data-name="Rectángulo 1981" width="10.353" height="40.829" transform="translate(205.761 241.543)" fill="#79c9e8"/>
      <rect id="Rectángulo_1982" data-name="Rectángulo 1982" width="2.352" height="40.829" transform="translate(213.762 241.543)" fill="#49b4d6"/>
      <rect id="Rectángulo_1983" data-name="Rectángulo 1983" width="10.353" height="40.829" transform="translate(306.512 241.543)" fill="#79c9e8"/>
      <rect id="Rectángulo_1984" data-name="Rectángulo 1984" width="3.061" height="40.829" transform="translate(313.805 241.543)" fill="#49b4d6"/>
      <rect id="Rectángulo_1985" data-name="Rectángulo 1985" width="10.353" height="5.142" transform="translate(205.761 241.511)" fill="#49b4d6"/>
      <rect id="Rectángulo_1986" data-name="Rectángulo 1986" width="10.353" height="5.142" transform="translate(306.512 241.511)" fill="#49b4d6"/>
      <rect id="Rectángulo_1987" data-name="Rectángulo 1987" width="10.353" height="4.636" transform="translate(205.761 207.015)" fill="#79c9e8"/>
      <rect id="Rectángulo_1988" data-name="Rectángulo 1988" width="2.352" height="4.636" transform="translate(213.762 207.015)" fill="#49b4d6"/>
      <rect id="Rectángulo_1989" data-name="Rectángulo 1989" width="10.353" height="4.636" transform="translate(306.512 207.015)" fill="#79c9e8"/>
      <rect id="Rectángulo_1990" data-name="Rectángulo 1990" width="3.061" height="4.636" transform="translate(313.805 207.015)" fill="#49b4d6"/>
      <rect id="Rectángulo_1991" data-name="Rectángulo 1991" width="10.353" height="0.584" transform="translate(205.761 211.071)" fill="#49b4d6"/>
      <rect id="Rectángulo_1992" data-name="Rectángulo 1992" width="10.353" height="0.584" transform="translate(306.512 211.071)" fill="#49b4d6"/>
      <g id="Grupo_1073" data-name="Grupo 1073">
        <g id="Grupo_1072" data-name="Grupo 1072">
          <path id="Trazado_1154" data-name="Trazado 1154" d="M213.653,211.68l-14.811,29.86H187.479v-4.119l12.769-25.741Z" fill="#0582c1"/>
          <path id="Trazado_1155" data-name="Trazado 1155" d="M230.448,211.68l-14.811,29.86h13.4l14.811-29.86Z" fill="#0582c1"/>
          <path id="Trazado_1156" data-name="Trazado 1156" d="M274.052,211.68l-14.811,29.86h-13.4l14.811-29.86Z" fill="#0582c1"/>
          <path id="Trazado_1157" data-name="Trazado 1157" d="M304.244,211.68l-14.8,29.86h-13.4l14.811-29.86Z" fill="#0582c1"/>
          <path id="Trazado_1158" data-name="Trazado 1158" d="M321.046,211.68l-14.811,29.86h13.4l14.71-29.658Z" fill="#0582c1"/>
        </g>
      </g>
      <g id="Grupo_1075" data-name="Grupo 1075">
        <g id="Grupo_1074" data-name="Grupo 1074">
          <path id="Trazado_1159" data-name="Trazado 1159" d="M213.653,211.68l-3.593,7.25H196.649l3.6-7.25Z" fill="#00668e"/>
          <path id="Trazado_1160" data-name="Trazado 1160" d="M243.852,211.68l-3.593,7.25h-13.4l3.593-7.25Z" fill="#00668e"/>
          <path id="Trazado_1161" data-name="Trazado 1161" d="M274.052,211.68l-3.593,7.25h-13.4l3.593-7.25Z" fill="#00668e"/>
          <path id="Trazado_1162" data-name="Trazado 1162" d="M304.244,211.68l-3.593,7.25h-13.4l3.593-7.25Z" fill="#00668e"/>
          <path id="Trazado_1163" data-name="Trazado 1163" d="M334.342,211.882l-3.5,7.048h-13.39l3.593-7.25Z" fill="#00668e"/>
        </g>
      </g>
      <rect id="Rectángulo_1993" data-name="Rectángulo 1993" width="140.24" height="14.936" transform="translate(191.572 224.599)" opacity="0.55" fill="url(#linear-gradient)" style="mix-blend-mode: overlay;isolation: isolate"/>
      <circle id="Elipse_208" data-name="Elipse 208" cx="9.231" cy="9.231" r="9.231" transform="translate(200.095 192.878) rotate(-9.087)" fill="#ffbf4d"/>
      <path id="Trazado_1164" data-name="Trazado 1164" d="M214.851,200.535a4.184,4.184,0,1,0-4.184,4.183A4.183,4.183,0,0,0,214.851,200.535Z" fill="#0582c1"/>
      <circle id="Elipse_209" data-name="Elipse 209" cx="9.231" cy="9.231" r="9.231" transform="matrix(0.987, -0.161, 0.161, 0.987, 301.034, 192.907)" fill="#ffbf4d"/>
      <path id="Trazado_1165" data-name="Trazado 1165" d="M315.811,200.535a4.183,4.183,0,1,0-4.183,4.183A4.183,4.183,0,0,0,315.811,200.535Z" fill="#0582c1"/>
    </g>
    <g id="Grupo_1079" data-name="Grupo 1079">
      <path id="Trazado_1166" data-name="Trazado 1166" d="M389.982,279.207H343.209l7.154-17.343v-.01l2.878-7,.793-1.919,1.292-3.122.264-.636,2.877-7L359,240.91l5.1-12.381a2.7,2.7,0,0,1,5,0l5.1,12.381.529,1.272,2.877,7,.265.636,1.292,3.122.792,1.919,2.878,7v.01Z" fill="#ffbf4d"/>
      <path id="Trazado_1167" data-name="Trazado 1167" d="M346.275,271.771l-3.065,7.435h46.776l-3.065-7.435Z" fill="#f98d2b" opacity="0.29" style="mix-blend-mode: multiply;isolation: isolate"/>
      <rect id="Rectángulo_1994" data-name="Rectángulo 1994" width="53.571" height="7.573" transform="translate(339.472 274.761)" fill="#79c9e8"/>
      <rect id="Rectángulo_1995" data-name="Rectángulo 1995" width="11.574" height="7.573" transform="translate(381.468 274.761)" fill="#49b4d6"/>
      <g id="Grupo_1078" data-name="Grupo 1078">
        <path id="Trazado_1168" data-name="Trazado 1168" d="M388.142,274.758h-6.616l-5.314-12.89v-.009l-2.878-7-.793-1.918-1.292-3.123-.264-.636-2.877-7-.529-1.272-4.287-10.424.8-1.957a2.7,2.7,0,0,1,5,0l5.1,12.381.529,1.272,2.877,7,.265.636,1.292,3.123.792,1.918,2.878,7v.009Z" fill="#f98d2b" opacity="0.29" style="mix-blend-mode: multiply;isolation: isolate"/>
        <g id="Grupo_1077" data-name="Grupo 1077">
          <path id="Trazado_1169" data-name="Trazado 1169" d="M377.6,249.18H355.59l2.878-7h16.257Z" fill="#0582c1"/>
          <path id="Trazado_1170" data-name="Trazado 1170" d="M382.828,261.854v.01H350.363v-.01l2.878-7H379.95Z" fill="#0582c1"/>
          <path id="Trazado_1171" data-name="Trazado 1171" d="M377.6,249.18h-6.616l-2.877-7h6.616Z" fill="#00668e"/>
          <path id="Trazado_1172" data-name="Trazado 1172" d="M382.828,261.854v.01h-6.616v-.01l-2.877-7h6.616Z" fill="#00668e"/>
        </g>
      </g>
    </g>
    <circle id="Elipse_210" data-name="Elipse 210" cx="37.995" cy="37.995" r="37.995" transform="matrix(0.342, -0.94, 0.94, 0.342, 191.141, 156.183)" fill="#e85f5c"/>
    <path id="Trazado_1173" data-name="Trazado 1173" d="M233.567,174.364a41.252,41.252,0,1,1,16.41-.773A41.107,41.107,0,0,1,233.567,174.364Zm11.522-75.113a34.623,34.623,0,1,0,28.973,39.472A34.662,34.662,0,0,0,245.089,99.251Z" fill="#fff"/>
    <path id="Trazado_1174" data-name="Trazado 1174" d="M250.553,136.681h-.013l-.771,5.03a.619.619,0,0,1-1.224-.188l3.981-25.952v0a2.815,2.815,0,1,0-5.565-.854h0l-2.523,16.442a.619.619,0,0,1-1.223-.192l3.375-22a2.816,2.816,0,1,0-5.566-.854l-3.376,22a.619.619,0,1,1-1.223-.188l2.786-18.163a2.815,2.815,0,1,0-5.566-.853l-2.786,18.162a.619.619,0,1,1-1.224-.188l1.873-12.207a2.816,2.816,0,0,0-5.566-.854l-4.771,31.1c-.774,5.04,3.675,9.906,9.934,10.867l5.692.873v0a15.769,15.769,0,0,0,17.728-12.714h.005l.443-2.892.854-5.558.852-5.558A5.631,5.631,0,0,0,250.553,136.681Zm-2.47,7.853.006,0-.007,0Z" fill="#fff"/>
  </g>
</svg>
