<?xml version="1.0" encoding="utf-8"?>
<!-- Generator: Adobe Illustrator 24.0.0, SVG Export Plug-In . SVG Version: 6.00 Build 0)  -->
<svg version="1.1" id="Capa_1" xmlns="http://www.w3.org/2000/svg" xmlns:xlink="http://www.w3.org/1999/xlink" x="0px" y="0px"
	 viewBox="0 0 344.5 414.7" style="enable-background:new 0 0 344.5 414.7;" xml:space="preserve">
<style type="text/css">
	.st0{fill:#F0F0F0;}
	.st1{fill:#F5F5F5;}
	.st2{fill:#E1E1E1;}
	.st3{opacity:0.53;}
	.st4{fill:#E0E0E0;}
	.st5{fill:#FFFFFF;}
	.st6{opacity:0.5;}
	.st7{fill:#EBEBEB;}
	.st8{fill:#263238;}
	.st9{fill:#455A64;}
	.st10{fill:#FAFAFA;}
	.st11{fill:#FF4545;}
	.st12{fill:#E84B50;}
	.st13{fill:#414140;}
	.st14{fill:#553B38;}
	.st15{fill:#DAB1AC;}
	.st16{opacity:0.2;}
	.st17{opacity:0.3;}
	.st18{fill:#995037;}
	.st19{fill:#1D1D1B;}
	.st20{opacity:0.4;}
</style>
<g>
	<g>
		<path class="st0" d="M112.1,89c4.1,28.3-15.6,54.6-43.9,58.7c-28.4,4.1-54.7-15.5-58.8-43.8C5.1,75.6,24.8,49.3,53.2,45.2
			C81.6,41,107.9,60.7,112.1,89z"/>
		<path class="st1" d="M99.8,90.8c3.1,21.6-11.9,41.6-33.5,44.8c-21.6,3.1-41.7-11.8-44.8-33.4C18.4,80.6,33.3,60.5,55,57.4
			C76.6,54.2,96.7,69.2,99.8,90.8z"/>
		<g>
			<path class="st2" d="M99.6,89.5c-0.2,0-0.7-1.7-1.7-4.6c-1.1-2.9-2.9-7-6.3-11.3c-1.7-2.1-3.7-4.3-6.2-6.4
				c-2.5-2-5.4-3.9-8.6-5.3c-1.6-0.7-3.4-1.4-5.2-1.9c-1.8-0.5-3.7-0.9-5.6-1.2c-1.9-0.2-3.9-0.4-5.9-0.3c-2,0-4,0.2-6.1,0.6
				c-2,0.4-4,0.9-5.9,1.5c-1.9,0.6-3.7,1.5-5.4,2.4c-1.7,0.9-3.3,1.9-4.9,3c-1.5,1.1-2.9,2.3-4.2,3.6c-2.6,2.5-4.6,5.3-6.3,8
				c-1.6,2.8-2.8,5.5-3.6,8.1c-1.7,5.2-2,9.7-2,12.8c0,3.1,0.2,4.8,0,4.9c-0.2,0-0.8-1.6-1.1-4.8c-0.3-3.2-0.4-7.9,1.1-13.5
				c0.8-2.8,1.9-5.8,3.5-8.8c1.7-3,3.8-6,6.5-8.7c1.3-1.4,2.8-2.7,4.4-3.9c1.6-1.2,3.3-2.4,5.2-3.3c1.9-1,3.8-1.9,5.9-2.6
				c2.1-0.7,4.2-1.3,6.4-1.7c2.2-0.4,4.4-0.6,6.6-0.6c2.2,0,4.3,0.1,6.4,0.4c2.1,0.3,4.1,0.8,6,1.4c1.9,0.6,3.8,1.3,5.5,2.1
				c3.5,1.6,6.5,3.7,9.1,6c2.6,2.2,4.7,4.7,6.3,7c3.3,4.7,4.9,9.2,5.7,12.3C99.8,87.7,99.8,89.5,99.6,89.5z"/>
		</g>
	</g>
	<g>
		<g>
			<path class="st2" d="M68.5,119.2l1.1,6.8l-6.1,1l-1.1-6.6c-6.1,0.6-12.2-0.4-15.9-2.4l2.2-8c3.4,1.8,8,2.7,12.5,2.4l-1.6-10.2
				c-7-0.6-14.9-1.6-16.3-10.3c-1-6.4,2.8-12.7,12.2-15.4l-1.1-6.7l6.1-1l1.1,6.6c4.6-0.4,9.2,0.1,12.9,1.7l-1.8,8
				c-3.4-1.3-6.7-1.8-9.8-1.7l1.7,10.3c7,0.5,14.8,1.6,16.1,10.1C81.6,110.3,77.8,116.5,68.5,119.2z M58.1,93.3l-1.4-8.6
				c-3.1,1.2-4.1,3.2-3.8,5.2C53.3,92,55.3,92.9,58.1,93.3z M70.9,106.2c-0.3-2.1-2.3-3-5-3.5l1.3,8.4
				C70.1,110,71.2,108.2,70.9,106.2z"/>
		</g>
	</g>
</g>
<g id="background-complete--inject-2" class="st3">
	<path class="st4" d="M301.5,259.5l-155.3-46.5c-4-1.2-6.3-5.4-5.1-9.4c0,0,0,0,0,0l28.7-95.9c1.2-4,5.4-6.2,9.4-5.1l155.3,46.5
		c4,1.2,6.3,5.4,5.1,9.4c0,0,0,0,0,0l-28.8,95.9C309.8,258.4,305.6,260.7,301.5,259.5C301.6,259.5,301.5,259.5,301.5,259.5z"/>
	<path class="st5" d="M309.1,169.5c-1.9,6.5-8.8,10.1-15.2,8.2c-6.5-1.9-10.1-8.8-8.2-15.2c1.9-6.5,8.8-10.1,15.2-8.2
		C307.4,156.2,311.1,163,309.1,169.5C309.2,169.4,309.1,169.4,309.1,169.5z"/>
	<path class="st5" d="M310.1,182.8c-0.8-0.1-1.5-0.2-2.2-0.5c-6.7-2-10.5-9.1-8.5-15.8c2-6.7,9.1-10.5,15.8-8.5
		c6.7,2,10.5,9.1,8.5,15.8C321.9,179.8,316.2,183.5,310.1,182.8z M312.9,158.5c-6.4-0.7-12.3,3.9-13,10.3c-0.7,6.4,3.9,12.3,10.3,13
		c5.7,0.7,11-2.8,12.6-8.3l0,0c1.9-6.2-1.7-12.7-7.9-14.6C314.3,158.7,313.6,158.6,312.9,158.5L312.9,158.5z"/>
	<path class="st5" d="M166,175.5l-2.8,9.4l-1-0.3l2.6-8.6l-2.2-0.7l0.3-0.9L166,175.5z"/>
	<path class="st5" d="M173.1,187l-0.3,0.9l-6.6-2l0.2-0.7l5.1-2.7c1.4-0.7,1.8-1.3,2-1.9c0.3-1.1-0.2-2-1.7-2.4
		c-1-0.4-2-0.3-2.9,0.3l-0.5-0.8c1.1-0.7,2.5-0.8,3.7-0.3c1.9,0.6,2.8,1.9,2.4,3.5c-0.3,0.9-0.8,1.6-2.4,2.5l-4.1,2.2L173.1,187z"/>
	<path class="st5" d="M183.5,188.3l-1.9-0.6l-0.7,2.5l-1-0.3l0.7-2.5l-5.3-1.6l0.2-0.7l6.9-4.7l1.1,0.3l-6.6,4.6l4.1,1.2l0.7-2.2
		l1,0.3l-0.6,2.2l1.9,0.6L183.5,188.3z"/>
	<path class="st5" d="M197.9,192.7l-1.9-0.6l-0.7,2.5l-1-0.3l0.7-2.5l-5.3-1.6l0.2-0.7l6.9-4.8l1.1,0.3l-6.6,4.7l4.1,1.2l0.7-2.2
		l1,0.3l-0.7,2.2l1.9,0.6L197.9,192.7z"/>
	<path class="st5" d="M206.3,194.8c-0.5,1.6-2,2.5-4.2,1.8c-1.3-0.3-2.3-1.1-3-2.2l0.7-0.6c0.6,1,1.5,1.7,2.6,2c1.6,0.5,2.7,0,3-1.2
		c0.3-1.1-0.2-2.2-2.6-2.9l-2-0.6l1.9-4.6l5.2,1.5l-0.3,0.9l-4.3-1.3l-1.2,2.9l1.2,0.4C206,191.7,206.8,193.2,206.3,194.8z"/>
	<path class="st5" d="M215.6,197.6c-0.5,1.6-2.2,2.5-3.8,2c-0.1,0-0.2-0.1-0.2-0.1c-2.5-0.8-3.3-2.9-2.5-5.9c1-3.2,3.2-4.4,5.8-3.6
		c0.8,0.2,1.5,0.6,2.1,1.2l-0.6,0.7c-0.5-0.5-1-0.8-1.7-1c-2-0.6-3.7,0.3-4.5,2.9c0,0.2-0.1,0.5-0.2,0.8c0.9-0.9,2.2-1.2,3.4-0.7
		C215.1,194.4,216.1,195.9,215.6,197.6z M214.6,197.3c0.4-1.2-0.3-2.3-1.8-2.7c-1.2-0.5-2.5,0.1-3,1.2c0,0,0,0.1,0,0.1
		c-0.3,1,0.3,2.3,1.9,2.8c1.1,0.5,2.4,0,2.8-1.1C214.6,197.5,214.6,197.4,214.6,197.3L214.6,197.3z"/>
	<path class="st5" d="M228.5,201.6c-0.5,1.6-2,2.4-4.2,1.8c-1.3-0.3-2.3-1.1-3-2.2l0.7-0.6c0.6,1,1.5,1.7,2.6,2c1.6,0.5,2.6,0,3-1.2
		c0.3-1.2-0.2-2.1-2-2.6l-0.7-0.2l0.2-0.7l3.6-2.5l-4.8-1.4l0.3-0.9l6.1,1.8l-0.2,0.7l-3.7,2.6C228.2,198.7,228.9,200.1,228.5,201.6
		z"/>
	<path class="st5" d="M237.9,204.3c-0.5,1.6-2.2,2.5-3.8,2c-0.1,0-0.2-0.1-0.2-0.1c-2.5-0.8-3.3-2.9-2.5-5.9c1-3.2,3.2-4.4,5.8-3.6
		c0.8,0.2,1.5,0.6,2.1,1.2l-0.6,0.7c-0.5-0.5-1-0.8-1.7-1c-2-0.6-3.7,0.3-4.5,2.9c0,0.2-0.1,0.5-0.2,0.8c0.9-0.9,2.2-1.2,3.4-0.7
		C237.5,201.1,238.4,202.6,237.9,204.3z M237,204c0.4-1.2-0.3-2.3-1.8-2.7c-1.2-0.5-2.5,0-3,1.2c0,0,0,0.1-0.1,0.1
		c-0.3,1,0.3,2.3,1.9,2.8c1.1,0.5,2.4,0,2.8-1.1C236.9,204.2,236.9,204.2,237,204L237,204z"/>
	<path class="st5" d="M248.6,200.3l-0.2,0.7l-6.6,7.5l-1.1-0.3l6.4-7.4l-4.9-1.5l-0.5,1.8l-1-0.3l0.8-2.6L248.6,200.3z"/>
	<path class="st5" d="M262,204.3l-0.2,0.7l-6.6,7.5l-1.1-0.3l6.5-7.4l-4.9-1.5l-0.5,1.8l-1-0.3l0.8-2.6L262,204.3z"/>
	<path class="st5" d="M269.3,213.9c-0.5,1.7-2.3,2.3-4.5,1.6c-2.2-0.7-3.3-2.1-2.8-3.8c0.3-1.1,1.4-1.8,2.5-1.8
		c-0.8-0.6-1.2-1.6-0.9-2.5c0.5-1.5,2.1-2.1,4-1.5s3,2,2.6,3.5c-0.3,1-1.1,1.6-2.1,1.6C269.2,211.6,269.6,212.8,269.3,213.9z
		 M268.3,213.6c0.3-1.2-0.4-2.2-2.1-2.7s-2.9-0.1-3.2,1.1c-0.3,1.2,0.4,2.2,2.1,2.7C266.8,215.2,267.9,214.8,268.3,213.6
		L268.3,213.6z M266.4,210.1c1.5,0.4,2.5,0,2.9-1c0.3-1-0.4-2-1.8-2.4c-1.4-0.4-2.5,0-2.8,1C264.3,208.8,265,209.7,266.4,210.1
		L266.4,210.1z"/>
	<path class="st5" d="M279.1,214.5c-1,3.2-3.2,4.3-5.8,3.6c-0.8-0.2-1.5-0.6-2.1-1.2l0.6-0.7c0.5,0.5,1,0.8,1.7,1
		c2,0.6,3.7-0.3,4.5-2.9c0.1-0.3,0.1-0.5,0.2-0.8c-0.9,0.9-2.2,1.2-3.4,0.7c-1.9-0.6-2.8-2.1-2.3-3.8c0.5-1.6,2.2-2.5,3.8-2
		c0.1,0,0.2,0.1,0.2,0.1C279.1,209.4,280,211.5,279.1,214.5z M278.3,212.2c0.3-1-0.3-2.3-1.9-2.8c-1.1-0.5-2.4,0-2.8,1.1
		c0,0.1-0.1,0.2-0.1,0.2c-0.4,1.2,0.3,2.3,1.8,2.7C276.5,214,277.8,213.5,278.3,212.2C278.3,212.3,278.3,212.2,278.3,212.2
		L278.3,212.2z"/>
	<path class="st5" d="M290,212.7l-2.8,9.4l-1-0.3l2.6-8.6l-2.2-0.7l0.3-0.9L290,212.7z"/>
	<path class="st5" d="M297.2,224.2l-0.3,0.9l-6.6-2l0.2-0.7l5.1-2.7c1.4-0.7,1.8-1.3,2-1.9c0.3-1.1-0.2-2-1.7-2.4
		c-1-0.4-2-0.3-2.9,0.3l-0.5-0.8c1.1-0.7,2.5-0.8,3.7-0.3c1.9,0.6,2.8,1.9,2.4,3.5c-0.3,0.9-0.8,1.6-2.4,2.5l-4.1,2.2L297.2,224.2z"
		/>
	<path class="st5" d="M306.2,224.9c-0.5,1.6-2,2.4-4.2,1.8c-1.3-0.3-2.3-1.1-3-2.2l0.7-0.6c0.6,1,1.5,1.7,2.6,2c1.6,0.5,2.6,0,3-1.2
		c0.3-1.2-0.2-2.1-2-2.6l-0.7-0.2l0.2-0.7l3.6-2.5l-4.8-1.4l0.3-0.9l6.1,1.8l-0.2,0.7l-3.7,2.6C305.9,222,306.6,223.4,306.2,224.9z"
		/>
	
		<rect x="265.9" y="186.8" transform="matrix(0.2872 -0.9579 0.9579 0.2872 -25.6308 418.0477)" class="st5" width="4.3" height="78.8"/>
	
		<rect x="281.9" y="219.7" transform="matrix(0.2872 -0.9579 0.9579 0.2872 -27.3767 443.0632)" class="st5" width="4.3" height="40.4"/>
	<g class="st6">
		<path class="st7" d="M174.5,143.5l22.2,6.6c2.6,0.8,4.1,3.6,3.3,6.2l-4.2,14.2c-0.8,2.6-3.6,4.1-6.2,3.3l-22.2-6.6
			c-2.6-0.8-4.1-3.6-3.3-6.2l4.2-14.2C169.1,144.2,171.9,142.7,174.5,143.5z"/>
	</g>
	<path class="st4" d="M164.6,159.1l0.5-1.5l16.3,4.9c1.9,0.4,3.8-0.9,4.2-2.8c0.3-1.7-0.6-3.4-2.2-4l-16.3-4.9l0.5-1.5l16.3,4.9
		c2.7,0.8,4.3,3.7,3.5,6.4c-0.8,2.7-3.7,4.3-6.4,3.5L164.6,159.1z"/>
	
		<rect x="191.4" y="156.2" transform="matrix(0.288 -0.9576 0.9576 0.288 -18.323 299.3739)" class="st4" width="1.6" height="11.7"/>
	
		<rect x="215.4" y="96.9" transform="matrix(0.2872 -0.9579 0.9579 0.2872 22.6192 309.1259)" class="st5" width="7.3" height="85"/>
</g>
<g id="Floor--inject-2">
	<path class="st8" d="M299.5,400.6c0,0.1-65.8,0.3-147,0.3S5.4,400.7,5.4,400.6s65.8-0.3,147.1-0.3S299.5,400.4,299.5,400.6z"/>
</g>
<g id="Device--inject-2">
	<path class="st9" d="M228.2,400.8l-132.9-0.6c-16-0.1-28.9-13.1-28.8-29.1L67.9,38C68,22,81,9.1,97,9.2l132.8,0.6
		c16,0.1,28.8,13.1,28.8,29.1L257.2,372C257.1,388,244.1,400.8,228.2,400.8z"/>
	<path class="st10" d="M229.6,21.3l-25.8-0.1c-3.5,0.1-6.3,3-6.3,6.5v4.7c0.1,3.5-2.7,6.4-6.3,6.5c0,0,0,0,0,0l-50.2-0.2
		c-3.5-0.1-6.3-3-6.2-6.6c0,0,0,0,0,0v-4.7c0.1-3.5-2.7-6.5-6.2-6.6h-9.1L97,20.7c-11.2,0-20.3,9-20.4,20.2c0,0,0,0,0,0L75.3,366
		c0,11.2,9,20.3,20.2,20.4l132.6,0.6c11.2,0,20.3-9,20.4-20.2c0,0,0,0,0,0l1.4-325.1C249.8,30.5,240.8,21.4,229.6,21.3z"/>
	<g>
		<path class="st8" d="M233.4,54.8c-3.3,0.3-6.6,0.3-9.9,0.3c-3.3,0.1-6.6,0-9.9-0.3c3.3-0.3,6.6-0.4,9.9-0.3
			C226.8,54.5,230.1,54.6,233.4,54.8z"/>
		<path class="st8" d="M233.4,51.1c-3.3,0.3-6.6,0.4-9.9,0.3c-3.3,0.1-6.6,0-9.9-0.3c3.3-0.3,6.6-0.3,9.9-0.3
			C226.8,50.7,230.1,50.8,233.4,51.1z"/>
		<path class="st8" d="M233.4,47.3c-3.3,0.3-6.6,0.3-9.9,0.3c-3.3,0.1-6.6,0-9.9-0.3c3.3-0.3,6.6-0.3,9.9-0.3
			C226.8,47,230.1,47,233.4,47.3z"/>
	</g>
	<path class="st8" d="M202.8,355.1c0,0.1-16.9,0.3-37.7,0.3s-37.7-0.1-37.7-0.3s16.9-0.3,37.7-0.3S202.8,355,202.8,355.1z"/>
	<path class="st8" d="M202.8,80.5c0,0.1-16.9,0.3-37.7,0.3s-37.7-0.1-37.7-0.3s16.9-0.3,37.7-0.3S202.8,80.4,202.8,80.5z"/>
	<path class="st8" d="M202.8,361.4c0,0.1-16.9,0.3-37.7,0.3s-37.7-0.1-37.7-0.3s16.9-0.3,37.7-0.3S202.8,361.2,202.8,361.4z"/>
	<path class="st11" d="M186.7,347.2c0,0.1-9.4,0.3-20.9,0.3s-20.9-0.1-20.9-0.3s9.4-0.3,20.9-0.3S186.7,347,186.7,347.2z"/>
	<rect x="136.3" y="70" class="st11" width="56.2" height="3.2"/>
</g>
<g>
	<g>
		<path class="st12" d="M137.7,172.5c3.1,0,4.8,1.2,5.6,3.5c0.1,0.4,0,0.6-0.4,0.7L142,177c-0.4,0.1-0.6,0.1-0.7-0.3
			c-0.5-1.5-1.6-2.3-3.7-2.3c-2.5,0-3.8,1.2-3.8,3.4v4.7c0,2.1,1.3,3.4,3.8,3.4c2.1,0,3.2-0.8,3.7-2.4c0.1-0.4,0.3-0.5,0.7-0.4
			l0.8,0.3c0.4,0.1,0.5,0.3,0.4,0.7c-0.7,2.3-2.4,3.6-5.6,3.6c-3.7,0-5.8-2-5.8-5.3v-4.7C131.9,174.5,133.9,172.5,137.7,172.5z"/>
		<path class="st12" d="M149.1,176.5c3,0,4.6,1.5,4.6,4v3.4c0,2.4-1.7,3.9-4.6,3.9c-2.9,0-4.6-1.5-4.6-3.9v-3.4
			C144.5,178,146.2,176.5,149.1,176.5z M149.1,178.2c-1.7,0-2.8,0.8-2.8,2.3v3.4c0,1.4,1.1,2.3,2.8,2.3c1.8,0,2.8-0.8,2.8-2.3v-3.4
			C151.9,179,150.8,178.2,149.1,178.2z"/>
		<path class="st12" d="M157.3,172.7v4.3c0.6-0.2,1.6-0.5,2.9-0.5c2.9,0,4.2,1.5,4.2,4.1v2.9c0,2.8-1.5,4.3-4.5,4.3
			c-1.6,0-2.9-0.3-3.6-0.6c-0.7-0.3-0.8-0.5-0.8-1.1v-13.3c0-0.4,0.1-0.5,0.5-0.5h0.9C157.2,172.2,157.3,172.3,157.3,172.7z
			 M160,178.2c-1.2,0-2.1,0.4-2.6,0.5v6.6c0,0.2,0,0.3,0.3,0.4c0.5,0.2,1.3,0.3,2.1,0.3c1.9,0,2.8-0.9,2.8-2.7v-2.8
			C162.5,179.1,161.7,178.2,160,178.2z"/>
		<path class="st12" d="M171.4,176.5c0.4,0,0.5,0.1,0.5,0.5v0.7c0,0.4-0.1,0.5-0.5,0.5h-0.7c-1,0-1.8,0.2-2.4,0.4
			c-0.3,0.1-0.3,0.2-0.3,0.4v8c0,0.4-0.1,0.5-0.5,0.5h-0.9c-0.4,0-0.5-0.1-0.5-0.5v-8.7c0-0.6,0.1-0.9,0.8-1.2
			c0.8-0.3,2-0.6,3.8-0.6H171.4z"/>
		<path class="st12" d="M176.8,176.5c3,0,4.6,1.5,4.6,4v3.4c0,2.4-1.7,3.9-4.6,3.9c-2.9,0-4.6-1.5-4.6-3.9v-3.4
			C172.2,178,173.9,176.5,176.8,176.5z M176.8,178.2c-1.7,0-2.8,0.8-2.8,2.3v3.4c0,1.4,1.1,2.3,2.8,2.3c1.8,0,2.8-0.8,2.8-2.3v-3.4
			C179.6,179,178.5,178.2,176.8,178.2z"/>
		<path class="st13" d="M194.4,178.3v3.8c0,3.4-2.1,5.5-6,5.5h-4.5c-0.4,0-0.5-0.1-0.5-0.5v-13.6c0-0.4,0.1-0.5,0.5-0.5h4.5
			C192.2,172.8,194.4,174.9,194.4,178.3z M188.4,174.7h-3v10.9h3c2.6,0,4-1.3,4-3.6v-3.8C192.4,176,191,174.7,188.4,174.7z"/>
		<path class="st13" d="M198.2,173.9v0.2c0,0.7-0.2,1-1,1h-0.1c-0.7,0-1-0.2-1-1v-0.2c0-0.7,0.2-1,1-1h0.1
			C198,172.9,198.2,173.2,198.2,173.9z M198.1,177.3v9.7c0,0.4-0.1,0.5-0.5,0.5h-0.9c-0.4,0-0.5-0.1-0.5-0.5v-9.7
			c0-0.4,0.1-0.5,0.5-0.5h0.9C198,176.8,198.1,176.9,198.1,177.3z"/>
		<path class="st13" d="M204.4,176.5c1.6,0,2.9,0.3,3.6,0.6c0.7,0.3,0.8,0.5,0.8,1.1v9.7c0,2.7-1.3,4.5-4.4,4.5
			c-2.2,0-3.5-0.8-4.2-2.1c-0.2-0.4-0.2-0.6,0.2-0.8l0.6-0.3c0.4-0.2,0.6-0.1,0.8,0.2c0.5,0.8,1.2,1.4,2.5,1.4c1.8,0,2.6-1,2.6-2.7
			v-1.2c-0.6,0.2-1.6,0.5-2.9,0.5c-2.9,0-4.2-1.5-4.2-4.1v-2.5C199.9,178,201.3,176.5,204.4,176.5z M204.5,178.2
			c-1.9,0-2.8,0.9-2.8,2.6v2.4c0,1.6,0.9,2.4,2.6,2.4c1.2,0,2.1-0.3,2.6-0.5v-6.3c0-0.2,0-0.3-0.3-0.4
			C206.1,178.3,205.4,178.2,204.5,178.2z"/>
		<path class="st13" d="M212.8,173.9v0.2c0,0.7-0.2,1-1,1h-0.1c-0.7,0-1-0.2-1-1v-0.2c0-0.7,0.2-1,1-1h0.1
			C212.6,172.9,212.8,173.2,212.8,173.9z M212.7,177.3v9.7c0,0.4-0.1,0.5-0.5,0.5h-0.9c-0.4,0-0.5-0.1-0.5-0.5v-9.7
			c0-0.4,0.1-0.5,0.5-0.5h0.9C212.6,176.8,212.7,176.9,212.7,177.3z"/>
		<path class="st13" d="M217.7,174.8v2h2.7c0.4,0,0.5,0.1,0.5,0.5v0.7c0,0.4-0.1,0.5-0.5,0.5h-2.7v4.8c0,2.3,0.7,2.7,2.7,2.7
			c0.4,0,0.5,0.1,0.5,0.5v0.7c0,0.4-0.1,0.5-0.5,0.5c-3.3,0.1-4.5-0.9-4.5-4.4v-4.9h-1.7c-0.4,0-0.5-0.1-0.5-0.5v-0.7
			c0-0.4,0.1-0.5,0.5-0.5h1.7v-2c0-0.4,0.1-0.5,0.5-0.5h0.9C217.6,174.3,217.7,174.5,217.7,174.8z"/>
		<path class="st13" d="M226,176.5c3.3,0,4.3,1.8,4.3,4.2v5.4c0,0.7-0.2,0.9-0.7,1.2c-0.8,0.3-1.9,0.5-3.6,0.5
			c-3.6,0-4.5-1.2-4.5-3.3c0-2.4,1.3-3.2,4.6-3.2c1,0,2,0.1,2.4,0.1v-0.8c0-1.5-0.5-2.5-2.5-2.5c-1.2,0-2.1,0.4-2.6,1.3
			c-0.2,0.3-0.3,0.4-0.7,0.2l-0.6-0.3c-0.4-0.1-0.5-0.3-0.3-0.7C222.6,177.3,223.9,176.5,226,176.5z M225.9,182.8
			c-1.9,0-2.5,0.6-2.5,1.7c0,1.1,0.4,1.7,2.5,1.7c1.1,0,1.8-0.1,2.3-0.2c0.2-0.1,0.3-0.2,0.3-0.5v-2.6
			C228,182.9,226.9,182.8,225.9,182.8z"/>
		<path class="st13" d="M233.7,187.5h-0.8c-0.4,0-0.5-0.1-0.5-0.5v-14.3c0-0.4,0.1-0.5,0.5-0.5h0.8c0.4,0,0.5,0.1,0.5,0.5V187
			C234.2,187.3,234.1,187.5,233.7,187.5z"/>
	</g>
	<path class="st12" d="M98.2,174.6h9.5l1.4-5.5H96.9h-2.8c-2.8,0-2.8,2.8-2.8,2.8v16.3c0,0,0,2.8,2.8,2.8h2.8h6.8l1.4-5.5h-6.8
		c-1.4,0-1.4-1.4-1.4-1.4v-8C96.9,174.6,98.2,174.6,98.2,174.6z"/>
	<path class="st13" d="M126.2,188.1v-2.8v-10.8v-2.7c0-2.7-2.8-2.8-2.8-2.8h-2.8h-6.8l-1.4,5.5h6.8c0,0,1.4,0,1.4,1.4v8
		c0,0,0,1.4-1.4,1.4h-9.5l-1.4,5.5h12.3h2.8C126.2,190.8,126.2,188.1,126.2,188.1z"/>
</g>
<g id="Character--inject-2">
	<path class="st14" d="M209.1,245.8c-2.1,6.1-2.2,12.6-0.3,18.8c1.1,3.8,3,7.5,2.4,11.4c-0.5,3.2-2.5,5.9-2.9,9.1
		c-0.8,6.4,5.3,12.5,3.7,18.8c-0.9,2.9-3.1,5.2-5.9,6.4c-2.8,1.1-5.8,1.5-8.8,1.1c-4.4-0.4-9.1-2-11.2-6c-1.6-3.1-1.1-6.9-0.5-10.3
		c2.5-15.3,5.3-30.8,11.5-45"/>
	<path class="st8" d="M211,293.1c-0.2,0.1-0.3,0.1-0.5,0.2c-0.5,0.1-1,0.2-1.5,0.1c-0.8-0.1-1.6-0.3-2.4-0.7c-1-0.5-1.8-1.3-2.3-2.3
		c-0.6-1.2-0.8-2.6-0.5-3.9c0.2-0.7,0.5-1.4,0.9-2c0.5-0.6,1-1.2,1.7-1.6c1.4-0.9,2.7-1.9,4-3c1.2-1.3,2-2.9,2.2-4.6
		c0.2-1.7,0.1-3.5-0.4-5.2c-0.5-1.6-1-3.1-1.7-4.6c-1.3-2.5-2.3-5.1-3-7.9c-0.5-1.9-0.5-3.8,0-5.7c0.2-0.7,0.4-1.3,0.8-1.9
		c-0.3,0.6-0.5,1.3-0.7,1.9c-0.4,1.8-0.4,3.8,0.1,5.6c0.7,2.7,1.8,5.3,3.1,7.8c0.7,1.5,1.3,3.1,1.8,4.7c0.5,1.7,0.6,3.6,0.4,5.3
		c-0.2,1.8-1,3.5-2.3,4.8c-1.3,1.1-2.6,2.1-4,3c-1.2,0.8-2.1,2.1-2.5,3.5c-0.3,1.3-0.2,2.6,0.4,3.7c0.5,1,1.2,1.7,2.1,2.3
		c0.7,0.4,1.5,0.6,2.3,0.7C209.7,293.3,210.4,293.3,211,293.1z"/>
	<path class="st15" d="M150.5,391.8l-2.5,9.6l-25.8-0.2c0,0,1.9-4.5,16-4.3l1-5L150.5,391.8z"/>
	<path class="st9" d="M244.3,248.1c-0.3,0.5-6.8,34.1-6.8,34.1l15.4,0.7l6-28.9L244.3,248.1z"/>
	<polygon class="st8" points="237.5,282.2 235.7,281.5 242.4,248.3 244.5,248.2 	"/>
	<path class="st8" d="M250.5,255.5c-0.1,0.4,0.3,0.8,0.7,0.9s0.8-0.3,0.9-0.7c0.1-0.4-0.3-0.8-0.7-0.9c0,0,0,0,0,0
		C250.9,254.7,250.5,255,250.5,255.5C250.5,255.4,250.5,255.5,250.5,255.5z"/>
	<path class="st15" d="M253.7,279l0.2-4.4l-6.6-2.7l2.6-6.1c1.2-2.7,4.3-3.9,7-2.7c0.1,0.1,0.3,0.1,0.4,0.2l2.7,1.4
		c1.9,1,3.2,2.8,3.8,4.9c0.7,3.6,1.2,7.1,1.5,10.8"/>
	<path class="st11" d="M271.3,391c0,0,27.1,7.5,28.2,7.9c1.6,0.6,1.4,6.5-1.2,6.5c-1.2,0-20.8,0.7-23.3,0.6s-10-3.1-10-3.1
		L271.3,391z"/>
	<path class="st8" d="M282.6,401.4c0.3-1,0.7-2,1.2-2.9c0.6-0.9,1.2-1.7,1.9-2.5C283.7,397.1,282.5,399.1,282.6,401.4z"/>
	<path class="st8" d="M279.7,400.1c0.1,0,0.4-1.3,1.1-2.7s1.6-2.4,1.5-2.5c-0.8,0.6-1.5,1.4-1.9,2.3
		C279.9,398.1,279.7,399.1,279.7,400.1z"/>
	<path class="st8" d="M277.1,399.4c0.1-1,0.4-1.9,0.6-2.9c0.4-0.9,0.9-1.7,1.5-2.5C277.4,395.2,276.6,397.3,277.1,399.4z"/>
	<path class="st8" d="M277.6,395.9c0.2-0.6,0.3-1.3,0.3-2c0-0.7-0.1-1.5-0.3-2.2c-0.1-0.4-0.2-0.8-0.4-1.3c-0.1-0.3-0.2-0.5-0.4-0.7
		c-0.3-0.2-0.7-0.2-0.9,0c-0.2,0.2-0.3,0.5-0.4,0.8c0,0.2,0,0.5,0,0.7c0,0.4,0.1,0.9,0.2,1.3c0.2,0.7,0.5,1.4,0.8,2.1
		c0.3,0.6,0.7,1.2,1.2,1.6c0.1,0-0.4-0.7-0.9-1.8c-0.3-0.6-0.5-1.3-0.7-2c-0.1-0.4-0.1-0.8-0.1-1.2c0-0.4,0-0.9,0.3-1.1
		c0.1-0.1,0.3-0.1,0.4,0c0.1,0.1,0.2,0.3,0.3,0.5c0.2,0.4,0.3,0.8,0.4,1.2c0.2,0.7,0.3,1.4,0.3,2.1
		C277.6,395.1,277.5,395.9,277.6,395.9z"/>
	<path class="st8" d="M277.5,395.6c-0.6-0.2-1.2-0.3-1.8-0.3c-0.6,0-1.3,0.1-1.9,0.2c-0.4,0.1-0.8,0.2-1.1,0.4
		c-0.5,0.2-0.7,0.7-0.6,1.2c0.1,0.5,0.5,0.9,1,1c0.4,0.1,0.8,0.1,1.2,0c0.6-0.2,1.2-0.5,1.8-0.9c0.5-0.3,0.9-0.8,1.3-1.2
		c-0.5,0.3-1,0.6-1.4,1c-0.5,0.3-1.1,0.6-1.7,0.7c-0.3,0.1-0.7,0.1-1,0c-0.3-0.1-0.6-0.3-0.7-0.6c0-0.3,0.1-0.6,0.4-0.8
		c0.3-0.2,0.7-0.3,1-0.4c0.6-0.2,1.2-0.3,1.8-0.3C276.9,395.6,277.5,395.7,277.5,395.6z"/>
	<path class="st8" d="M286.7,401.7c0.1-0.8,0.3-1.6,0.5-2.4c0.4-0.7,0.8-1.5,1.3-2.1c0-0.1-1.2,0.5-1.8,1.9
		C286.4,399.9,286.4,400.8,286.7,401.7z"/>
	<path class="st8" d="M267.8,402.9c0.3,0.2,0.7,0.4,1,0.5c1,0.4,2,0.7,3,0.9c3.4,0.8,6.9,1.1,10.3,1c4.1,0,7.7-0.2,10.4-0.3l3.1-0.2
		c0.4,0,0.8,0,1.1-0.1c-0.4-0.1-0.8-0.1-1.2,0h-3.1l-10.4,0.2c-3.4,0.1-6.9-0.2-10.3-0.8C269.4,403.5,267.9,402.8,267.8,402.9z"/>
	<path class="st8" d="M267,403.5c0.7-0.3,1.3-0.6,2-0.9c1.6-0.8,3.4-1.1,5.1-0.9c1.7,0.4,3.3,1.3,4.4,2.6c0.5,0.6,1,1.1,1.6,1.6
		c-0.4-0.7-0.8-1.3-1.3-1.8c-0.5-0.6-1.1-1.2-1.8-1.7c-0.8-0.6-1.8-1-2.8-1.2c-1.8-0.2-3.7,0.1-5.3,1
		C268.2,402.6,267.6,403,267,403.5z"/>
	<path class="st11" d="M242.5,383.6c0,0-25.6,16.8-26.6,17.5c-1.4,1,0.2,6,2.6,5.1c1.1-0.4,22.6-6.4,24.9-7.3s8.5-6,8.5-6
		L242.5,383.6z"/>
	<path class="st8" d="M235,396.8c-0.2-1.1-0.9-2-1.7-2.7c-0.8-0.8-1.8-1.3-2.9-1.5c0.9,0.5,1.8,1.1,2.6,1.8
		C233.6,395.2,234.3,396,235,396.8z"/>
	<path class="st8" d="M237.2,394.8c-0.7-1.9-2.1-3.4-4-4.1c-0.1,0.1,1.1,0.8,2.2,1.9S237.1,394.8,237.2,394.8z"/>
	<path class="st8" d="M239.5,393.3c-0.2-2.1-1.6-3.9-3.7-4.5c0.8,0.6,1.5,1.3,2.2,2C238.6,391.6,239.1,392.4,239.5,393.3z"/>
	<path class="st8" d="M238,390.1c0.1,0-0.3-0.7-0.6-1.9c-0.2-0.7-0.3-1.4-0.3-2.1c0-0.4,0-0.8,0-1.3c0-0.2,0.1-0.4,0.1-0.5
		c0.1-0.1,0.2-0.2,0.3-0.1c0.3,0.1,0.5,0.6,0.6,1c0.1,0.4,0.2,0.8,0.3,1.2c0.1,0.7,0,1.4-0.1,2.1c-0.2,1.2-0.4,2-0.3,2
		c0.3-0.6,0.6-1.3,0.7-1.9c0.2-0.7,0.2-1.5,0.2-2.2c0-0.4-0.1-0.9-0.2-1.3c-0.1-0.2-0.2-0.5-0.3-0.7c-0.1-0.3-0.3-0.5-0.6-0.6
		c-0.3-0.1-0.7,0-0.9,0.2c-0.1,0.2-0.2,0.5-0.2,0.8c0,0.4,0,0.9,0,1.3c0.1,0.7,0.2,1.5,0.4,2.2C237.3,388.9,237.6,389.6,238,390.1z"
		/>
	<path class="st8" d="M238,389.8c0,0.1,0.6-0.2,1.7-0.5c0.6-0.1,1.2-0.2,1.8-0.3c0.4,0,0.7,0,1,0.1c0.3,0,0.6,0.3,0.6,0.6
		c0,0.3-0.2,0.6-0.4,0.8c-0.3,0.2-0.6,0.3-1,0.3c-0.6,0.1-1.2,0-1.8-0.2c-0.5-0.2-1.1-0.4-1.7-0.5c0.5,0.4,1,0.6,1.6,0.8
		c0.6,0.2,1.3,0.3,1.9,0.3c0.4,0,0.8-0.1,1.2-0.4c0.4-0.3,0.7-0.7,0.6-1.2c-0.1-0.5-0.5-0.9-1-1c-0.4-0.1-0.8-0.1-1.2-0.1
		c-0.6,0-1.3,0.2-1.9,0.4C238.9,389.2,238.4,389.4,238,389.8z"/>
	<path class="st8" d="M221.9,405.2c0,0,0.4-0.3,0.6-1c0.2-1,0-1.9-0.5-2.8c-0.3-0.4-0.5-0.9-0.9-1.3c-0.2-0.3-0.5-0.7-0.9-0.9
		c-0.2-0.2-0.5-0.3-0.8-0.4c-0.2,0-0.3,0-0.3,0.1c0.3,0.1,0.7,0.3,0.9,0.5c0.3,0.3,0.5,0.6,0.7,0.9c0.3,0.4,0.5,0.8,0.8,1.3
		c0.5,0.7,0.7,1.6,0.6,2.5C222.1,404.5,222,404.9,221.9,405.2z"/>
	<path class="st8" d="M231.1,398.4c0-1.9-1.3-3.4-3.2-3.8c0.7,0.5,1.3,1,1.9,1.6C230.3,396.9,230.7,397.6,231.1,398.4z"/>
	<path class="st8" d="M249.4,393.8c-0.4,0.2-0.8,0.5-1.1,0.8c-1,0.7-2.1,1.4-3.2,1.9c-1.6,0.9-3.3,1.6-5,2.2
		c-1.9,0.7-4.1,1.4-6.4,2.1c-4.6,1.3-8.8,2.5-11.8,3.4l-3.6,1.1c-0.4,0.1-0.9,0.3-1.3,0.5c0.5-0.1,0.9-0.2,1.3-0.3l3.6-1
		c3-0.8,7.2-2,11.8-3.3c2.3-0.7,4.5-1.4,6.4-2.1c1.7-0.7,3.4-1.4,5-2.3c1.1-0.6,2.1-1.3,3.1-2.1
		C248.8,394.4,249.1,394.2,249.4,393.8z"/>
	<path class="st8" d="M250.4,394.2c-0.7-0.3-1.4-0.5-2.2-0.6c-1.8-0.3-3.7-0.1-5.4,0.7c-0.9,0.5-1.7,1.2-2.3,2
		c-0.5,0.7-0.9,1.4-1.2,2.1c-0.3,0.7-0.6,1.4-0.7,2.1c0.4-0.6,0.7-1.3,1-2c0.7-1.6,1.9-3,3.4-3.9c1.6-0.7,3.4-1,5.1-0.7
		C249.5,394.1,250.4,394.2,250.4,394.2z"/>
	<path class="st11" d="M181.1,283.6l21,2l8.5,2.4c3.6,1,7,2.9,9.7,5.6l27.5,26.4l5-41l13.8,1.2l-2.3,52.8c-2.1,6.5-8.1,11-15,11
		c-4.1-0.1-8.1-1.7-11.1-4.5L218.6,321l-0.6,26.3l13.6,11l-52.4,29.2c0,0-2.8-11.2-1.5-36c0.2-4.6-8.1-18.4-8.8-22.5
		c-2.5-15.6-2.1-38.5-2.1-38.5L181.1,283.6z"/>
	<path class="st11" d="M168.2,290c0,0-10.6,4-13.2,12.3c-2.3,7.4-9.9,48.9-9.9,48.9l-7.5,44l15.8,0.6l18.2-74.9L168.2,290z"/>
	<path class="st8" d="M167.5,338.5c0.1-0.3,0.2-0.6,0.3-0.9c0.2-0.6,0.4-1.4,0.7-2.5c0.6-2.1,1.3-5,2-8.3s1.3-6.2,1.7-8.3
		c0.2-1.1,0.3-1.9,0.4-2.5c0.1-0.3,0.1-0.6,0.1-1c-0.1,0.3-0.2,0.6-0.3,0.9c-0.1,0.7-0.3,1.5-0.6,2.5c-0.5,2.2-1.1,5.1-1.8,8.3
		l-1.9,8.3c-0.2,1-0.4,1.8-0.6,2.5C167.5,337.9,167.5,338.2,167.5,338.5z"/>
	<path class="st8" d="M264.2,284.1c0.3-0.7,0.4-1.4,0.4-2.1c0.1-0.7,0.1-1.4,0-2.1c-0.3,0.7-0.4,1.4-0.4,2.1
		C264.1,282.7,264.1,283.4,264.2,284.1z"/>
	<path class="st8" d="M260.2,284.2c0.3-0.7,0.4-1.5,0.3-2.2c0.1-0.7,0.1-1.5-0.1-2.2c-0.3,0.7-0.4,1.5-0.3,2.2
		C260,282.7,260,283.5,260.2,284.2z"/>
	<path class="st8" d="M256.2,284c0.3-0.8,0.4-1.6,0.4-2.5c0.1-0.8,0.1-1.7-0.1-2.5c-0.3,0.8-0.4,1.6-0.4,2.5
		C256,282.3,256,283.2,256.2,284z"/>
	<path class="st8" d="M248.5,326.3c0.1-1.2,0-2.4-0.2-3.6c0-1.2-0.2-2.4-0.6-3.6c-0.1,1.2,0,2.4,0.2,3.6
		C247.9,323.9,248.1,325.1,248.5,326.3z"/>
	<path class="st8" d="M150.7,391.1c-0.4,0.7-0.6,1.4-0.6,2.2c-0.2,0.7-0.3,1.5-0.2,2.3c0.4-0.7,0.6-1.4,0.6-2.2
		C150.8,392.7,150.8,391.9,150.7,391.1z"/>
	<path class="st8" d="M145.5,391.1c-0.3,0.6-0.5,1.3-0.6,2c-0.2,0.7-0.2,1.4-0.1,2.1c0.3-0.6,0.5-1.3,0.6-2
		C145.6,392.5,145.6,391.8,145.5,391.1z"/>
	<path class="st8" d="M140.6,390.6c-0.3,0.7-0.5,1.5-0.5,2.3c-0.2,0.7-0.3,1.5-0.3,2.3c0.4-0.7,0.6-1.4,0.7-2.2
		C140.7,392.2,140.8,391.4,140.6,390.6z"/>
	<path class="st8" d="M159.6,295.1c0,0.1,1.1,0,2.8,0.4c2.2,0.5,4.3,1.5,6,3c1.7,1.5,3,3.4,3.8,5.6c0.6,1.6,0.7,2.8,0.8,2.7
		c0-0.3,0-0.5,0-0.8c-0.1-0.7-0.2-1.4-0.4-2.1c-0.7-2.3-2-4.3-3.8-5.8c-1.8-1.6-3.9-2.6-6.3-3c-0.7-0.1-1.4-0.2-2.1-0.1
		C160.1,295,159.9,295,159.6,295.1z"/>
	<path class="st8" d="M216.4,332.2c-0.1,0,0.4-1.3,0.9-3.4c1.3-5.5,1-11.3-0.9-16.7c-0.7-2-1.3-3.3-1.3-3.3s0.2,0.3,0.5,0.8
		c0.4,0.8,0.8,1.6,1.1,2.4c2.1,5.4,2.4,11.3,0.9,16.9c-0.2,0.8-0.5,1.7-0.8,2.5C216.7,331.6,216.6,331.9,216.4,332.2z"/>
	<path class="st8" d="M217.8,346.7c-0.3,0.1-0.6,0.1-0.9,0.1c-0.6,0-1.4,0-2.5-0.1c-5.5-0.5-10.8-2-15.6-4.5
		c-0.9-0.5-1.7-0.9-2.2-1.2c-0.3-0.1-0.5-0.3-0.7-0.5c0-0.1,1.2,0.5,3.1,1.4c4.9,2.3,10.2,3.8,15.5,4.4
		C215.5,346.4,216.6,346.5,217.8,346.7z"/>
	<g class="st16">
		<path d="M194.6,339.4c1.6,1.5,4.2,1.7,6.4,1.6s4.4-0.5,6.6-0.4c2.2-0.1,4.4,0.7,6,2.3c0.5,0.5,0.8,1.1,0.9,1.8
			c0,0.7-0.4,1.3-1,1.6c-0.4,0.1-0.8,0.1-1.3,0C206,345,199.3,343.5,194.6,339.4"/>
	</g>
	<g class="st16">
		<path d="M174.3,341.3c1.6-0.5,1.9-2.4,2-4.1c0.7-7-0.7-14-3.9-20.3c-0.8,4.6-2,9.4-3,14.1L174.3,341.3z"/>
	</g>
	<path class="st10" d="M171.5,322.2c-0.4-0.3-0.9-0.5-1.3-0.6c-1.3-0.2-2.7,0.2-3.7,1.1c-1.3,1-2.1,3-2.5,5.3s-0.7,4.9-2.4,7.1
		c-0.8,1.1-2.1,1.8-3.4,2c-1.2,0.2-2.4,0.3-3.6,0.3c-2,0-3.9,0.8-5.4,2.2c-1,0.9-1.7,2.1-2.1,3.4c-0.3,0.9-0.3,1.5-0.4,1.5
		c0-0.1,0-0.3,0-0.4c0-0.4,0.1-0.7,0.2-1.1c0.6-2.3,2.2-4.2,4.4-5.3c1-0.5,2.1-0.7,3.2-0.8c1.2,0,2.4-0.1,3.5-0.3
		c1.2-0.2,2.3-0.9,3.1-1.9c0.7-1,1.3-2.2,1.6-3.4c0.3-1.2,0.5-2.4,0.7-3.5c0.4-2.2,1.2-4.4,2.7-5.5c1.1-0.9,2.6-1.3,4-1
		c0.4,0.1,0.7,0.3,1,0.5C171.4,322.1,171.5,322.2,171.5,322.2z"/>
	<path class="st10" d="M230.9,302.8c-0.3,0.7-0.8,1.4-1.3,2c-1.5,1.7-3.6,2.7-5.8,3.1c-1.5,0.3-3.1,0.1-4.6-0.4
		c-1.6-0.7-3.1-1.6-4.5-2.8c-1.4-1.3-2.9-2.4-4.6-3.3c-0.9-0.4-1.8-0.7-2.8-0.8c-1,0-2,0.1-3,0.4c-1.9,0.7-3.7,1.6-5.4,2.8
		c-1.6,1.1-3.2,2.1-5,3c-1.6,0.7-3.4,1.1-5.1,1.1c-1.5,0-3.1-0.3-4.5-0.8c-2.1-0.7-4-1.9-5.5-3.5c-0.4-0.4-0.8-0.9-1.1-1.4
		c-0.1-0.2-0.2-0.3-0.3-0.5c0,0,0.5,0.7,1.6,1.8c1.5,1.5,3.4,2.7,5.5,3.3c3.1,1,6.4,0.9,9.4-0.4c1.7-0.9,3.3-1.9,4.9-3
		c1.7-1.2,3.5-2.2,5.5-2.9c1-0.3,2.1-0.5,3.2-0.4c1,0.1,2.1,0.4,3,0.8c1.7,1,3.3,2.1,4.7,3.4c1.3,1.2,2.7,2.1,4.3,2.7
		c1.4,0.5,2.9,0.6,4.4,0.4c2.2-0.3,4.1-1.3,5.7-2.9C229.9,304.1,230.4,303.5,230.9,302.8z"/>
	<path class="st10" d="M256.7,342.5c-0.2-0.6-0.3-1.2-0.4-1.8c-0.3-1.7-0.7-3.3-1.4-4.9c-0.5-1.1-1.1-2.1-1.9-2.9
		c-0.9-1-2-1.7-3.3-2.2c-1.4-0.4-2.9-0.5-4.4-0.4c-1.6,0.1-3.3,0-4.9-0.4c-1.6-0.5-3.1-1.3-4.3-2.5c-1.2-1-2.2-2.2-3.2-3.2
		c-1.9-2.1-4-3.8-6-4.3c-1.6-0.4-3.4-0.2-4.8,0.7c-0.5,0.4-0.9,0.8-1.3,1.3c0.1-0.2,0.1-0.3,0.2-0.4c0.3-0.4,0.6-0.7,1-1
		c1.5-1,3.3-1.3,5-0.9c2.2,0.5,4.3,2.2,6.3,4.3c1,1,2,2.2,3.2,3.2c1.2,1.1,2.6,1.9,4.1,2.3c3.1,0.8,6.4-0.1,9.3,0.8
		c1.3,0.5,2.5,1.3,3.4,2.3c0.8,0.9,1.4,1.9,1.9,3.1c0.6,1.6,1.1,3.3,1.3,5c0.1,0.6,0.2,1.1,0.2,1.4
		C256.8,342.2,256.8,342.3,256.7,342.5z"/>
	<path class="st10" d="M217.7,327.3c-0.2,0-0.3,0.1-0.5,0.1c-0.5,0-1,0-1.5,0c-1.8-0.4-3.5-1-5.1-1.9c-1.1-0.5-2.3-1-3.5-1.3
		c-1.4-0.4-2.8-0.4-4.2-0.1c-2.9,0.6-5.8,2.5-8.3,4.8s-4.7,5-7.1,6.8c-2.1,1.7-4.7,2.9-7.4,3.3c-1.8,0.3-3.6,0.3-5.4-0.1
		c-0.5-0.1-1-0.2-1.4-0.4c-0.2,0-0.3-0.1-0.5-0.2c0,0,0.7,0.2,2,0.4c4.5,0.7,9-0.6,12.5-3.4c2.4-1.9,4.5-4.4,7.1-6.8
		s5.5-4.3,8.5-4.9c1.4-0.3,2.9-0.2,4.4,0.2c1.2,0.4,2.4,0.8,3.5,1.4c1.6,0.9,3.3,1.6,5,2C216.4,327.2,217.1,327.3,217.7,327.3z"/>
	<path class="st10" d="M208.5,344.9c-0.7,0.2-1.4,0.4-2,0.8c-1,0.7-1.2,1.7-1.3,1.7s-0.1-0.3,0-0.7c0.2-0.6,0.5-1.1,1-1.4
		c0.5-0.4,1-0.6,1.6-0.6C208.3,344.8,208.6,344.9,208.5,344.9z"/>
	<path class="st10" d="M217.1,340.9c-0.2,1.1-0.6,2.1-1.3,3c-0.5,1-1.3,1.8-2.3,2.4c0.6-0.9,1.2-1.8,1.9-2.6
		C215.9,342.6,216.5,341.7,217.1,340.9z"/>
	<path class="st10" d="M182.2,355c0,0.1-1.1-0.2-2.5-0.2s-2.4,0.3-2.5,0.1c0.7-0.5,1.6-0.7,2.5-0.6
		C180.6,354.2,181.5,354.5,182.2,355z"/>
	<path class="st10" d="M153.5,306.4c0,0,0.2,0.1,0.6,0.2c0.6,0.1,1.2,0.1,1.8-0.2c0.8-0.4,1.6-1,2.1-1.8c0.7-1,1.4-1.9,2.2-2.8
		c1.6-1.5,3.5-2.6,5.7-3.1c0.6-0.1,1.3-0.2,2-0.3c0.5,0,0.7,0,0.7,0.1s-1,0.1-2.6,0.5c-2,0.6-3.9,1.6-5.4,3.1
		c-0.8,0.9-1.5,1.8-2.2,2.7c-0.6,0.8-1.4,1.4-2.4,1.8c-0.6,0.2-1.4,0.2-2,0C153.6,306.7,153.5,306.5,153.5,306.4z"/>
	<path class="st10" d="M207,286.8c0,0-0.3,0.6-1.1,1.3c-1.1,0.9-2.4,1.6-3.7,1.9c-1.4,0.4-2.8,0.4-4.2,0.1c-0.6-0.1-1.1-0.3-1.6-0.6
		c0.6,0,1.1,0.1,1.7,0.2c1.3,0.1,2.7,0.1,4-0.3c1.3-0.3,2.5-0.9,3.6-1.7C206,287.4,206.5,287.1,207,286.8z"/>
	<path class="st10" d="M162.1,361.3c0,0-0.4,0-1.1,0.2c-1,0.3-2,0.7-2.8,1.4c-1.2,1-2.3,2.2-3,3.5c-0.9,1.5-1.6,3.4-2.6,5.2
		c-0.8,1.8-2.1,3.4-3.6,4.7c-1.3,1.1-2.9,1.6-4.5,1.5c-1.1,0-2.1-0.4-3-1.1c-0.2-0.2-0.4-0.4-0.6-0.6c-0.1-0.2-0.2-0.3-0.1-0.3
		s0.3,0.3,0.9,0.8c0.9,0.6,1.9,0.9,2.9,0.9c1.6,0,3.1-0.5,4.2-1.5c1.4-1.3,2.6-2.8,3.4-4.5c0.9-1.8,1.7-3.6,2.6-5.2
		c0.8-1.4,1.9-2.6,3.2-3.6c0.9-0.6,1.9-1.1,3-1.3c0.3,0,0.6,0,0.9,0C162,361.2,162.1,361.3,162.1,361.3z"/>
	<g class="st17">
		<path d="M247.4,319.4c-1.8,2.2-2.5,5.1-1.8,7.8c0.1,0.5,0.3,0.9,0.8,1.1c0.4,0.1,0.8-0.1,1-0.4c0.2-0.3,0.4-0.6,0.4-1
			c0.6-2.5,0.5-5.2-0.1-7.7"/>
	</g>
	<path class="st10" d="M266.2,296.3c-1,0.9-1.8,1.9-2.5,3c-0.7,1.2-1.3,2.5-1.8,3.9c-0.6,1.5-1.1,3.2-1.9,5
		c-0.7,1.7-1.8,3.2-3.1,4.4c-1.1,1-2.5,1.6-4,1.8c-1,0.1-2,0-2.9-0.4c-0.2-0.1-0.5-0.3-0.7-0.4c-0.2-0.1-0.2-0.2-0.2-0.2
		s0.3,0.2,1,0.4c0.9,0.3,1.9,0.4,2.8,0.2c1.4-0.2,2.7-0.9,3.8-1.8c1.3-1.2,2.3-2.6,3-4.2c0.8-1.7,1.3-3.4,2-4.9
		c0.5-1.4,1.2-2.7,2-3.9c0.5-0.8,1.2-1.6,1.9-2.2C265.6,296.7,265.9,296.5,266.2,296.3z"/>
	<path class="st10" d="M267,285.2c-0.5,0.6-1.1,1.1-1.8,1.5c-3.2,2.1-7.1,2.9-10.8,2.1c-0.8-0.1-1.5-0.4-2.2-0.8
		c0-0.1,0.9,0.2,2.3,0.4c3.7,0.5,7.4-0.2,10.6-2.1C266.3,285.8,267,285.1,267,285.2z"/>
	<path class="st8" d="M274.4,390.8c0,0-62.8-41.3-65.4-42.1s-8.8-4.9-15-3.2s-11.8,7.3-14.6,15.4s-3,26.4-3,26.4s4.9,14.4,14.6,17.4
		c0.8,0.3,1.7,0.5,2.5,0.6c11.8,2.2,23.8-3,30.3-13.1l1.4-2.1c0,0,41.1,15.1,41.8,14.9L274.4,390.8z"/>
	<path class="st8" d="M295.8,342.6c4.7,1.9,7.7,6.4,7.7,11.4c0.1,16.5-33.4,34.8-33.4,34.8l-44.5-29.5v-3.1
		C225.7,356.2,283,335.6,295.8,342.6z"/>
	<path class="st9" d="M196.6,379.4l0.4,0.2l1,0.4l4,1.5l14.8,5.6c6.3,2.3,13.8,5.1,22.3,8.2s17.8,6.5,27.8,9.8l0.2,0.1l0.1-0.2
		l4.9-9.4l2.5-4.8l0.1-0.2l-0.2-0.1l-47.9-30.4l-14.4-9.1l-3.9-2.4l-1-0.6l-0.4-0.2l0.3,0.2l1,0.7l3.9,2.5l14.3,9.2l47.9,30.5
		l-0.1-0.3l-2.5,4.8l-4.9,9.4l0.3-0.1c-10-3.4-19.4-6.7-27.8-9.8l-22.3-8.1l-14.9-5.4l-4-1.5l-1-0.4L196.6,379.4z"/>
	<path class="st9" d="M248.2,374.1c0.4-0.2,0.8-0.5,1.2-0.8c0.7-0.5,1.8-1.3,3-2.3c2.5-2,6-4.8,9.7-8s7-6.2,9.3-8.4
		c1.2-1.1,2.1-2,2.7-2.7c0.4-0.3,0.7-0.6,1-1c-0.4,0.3-0.7,0.6-1.1,0.9l-2.8,2.5c-2.4,2.2-5.7,5.1-9.4,8.3s-7.2,6-9.7,8.1l-3,2.4
		C248.8,373.5,248.5,373.8,248.2,374.1z"/>
	<path class="st9" d="M283.2,348.8c-1.4-0.2-2.9-0.1-4.3,0.4c-1.4,0.3-2.7,1-3.8,2c0.1,0.1,1.7-0.9,3.9-1.6S283.2,349,283.2,348.8z"
		/>
	<path class="st9" d="M279.4,346.2c-2.1,0.9-3.6,2.8-4,5c0.1,0,0.6-1.4,1.7-2.7S279.5,346.3,279.4,346.2z"/>
	<path class="st8" d="M298.2,398.5c0,0-0.5-0.2-1.2,0.4c-0.7,0.7-1.2,1.6-1.3,2.6c-0.1,1,0,2,0.4,2.9c0.3,0.7,0.7,1,0.7,1
		s-0.2-0.4-0.4-1.1c-0.3-0.9-0.4-1.8-0.3-2.7c0.1-0.9,0.5-1.7,1-2.4C297.8,398.6,298.3,398.6,298.2,398.5z"/>
	<path class="st14" d="M169.5,251.3c-2.5-2.4-6.5-2.4-8.9,0.1c-0.1,0.1-0.2,0.2-0.3,0.3c-1.2,1.6-2,3.6-2.1,5.6
		c-0.2,2-0.6,4-1.2,5.9c-0.6,2-2.2,3.5-4.2,4c-1.5,0.3-3.3-0.2-4.4,0.8c-0.9,1-1,2.5-0.3,3.6c0.8,1.1,1.8,1.9,3.1,2.3
		c0.5,0.2,1,0.5,1,1c0,0.7-0.9,0.9-1.5,1.2c-1.9,0.8-2.4,3.4-1.4,5.2c1.2,1.7,3.1,2.7,5.2,2.6c2-0.1,4-0.6,5.9-1.4
		c-0.7,0.8-0.7,2-0.1,2.9c0.7,0.8,1.8,1.2,2.8,1.1c1-0.2,2-0.7,2.8-1.4c1.5-1.5,2.4-3.4,2.7-5.5c0.3-2,0.4-4.1,0.4-6.2
		c0-7.4,0.6-14.7,1.6-22"/>
	<path class="st15" d="M190.7,237.1c8.1,0.4,14.5,7.1,14.5,15.2c0,6.3-0.1,13.1-0.5,17.2c-0.9,9.4-8,11-8,11s0.2,5.9,0.5,11.4
		c0.3,5.3-4,10-9.7,10.4l0,0c-5.6,0.5-10.4-3.4-10.8-8.6l-1.9-40.7c-0.4-8.4,6.1-15.5,14.5-15.9
		C189.8,237.1,190.3,237.1,190.7,237.1L190.7,237.1z"/>
	<path class="st8" d="M203.1,256.4c0.1,0.7-0.4,1.2-1.1,1.3c0,0,0,0,0,0c-0.6,0.1-1.2-0.3-1.3-1c0,0,0,0,0,0c0-0.7,0.4-1.2,1.1-1.3
		C202.4,255.4,202.9,255.8,203.1,256.4C203,256.4,203,256.4,203.1,256.4z"/>
	<path class="st8" d="M203,254.6c-0.1,0.2-1.1-0.5-2.4-0.4s-2.2,0.8-2.3,0.6s0.1-0.4,0.5-0.7c0.5-0.4,1.2-0.7,1.9-0.7
		c0.7,0,1.3,0.1,1.9,0.5C203,254.2,203.1,254.5,203,254.6z"/>
	<path class="st8" d="M189.6,257.1c0,0.6-0.4,1.2-1.1,1.3c-0.6,0.1-1.2-0.4-1.3-1c0,0,0,0,0,0c0-0.6,0.4-1.2,1.1-1.3
		C188.9,256.1,189.5,256.5,189.6,257.1C189.6,257.1,189.6,257.1,189.6,257.1z"/>
	<path class="st8" d="M189.6,255.8c-0.1,0.2-1.1-0.5-2.4-0.4s-2.2,0.8-2.4,0.6s0.1-0.4,0.5-0.7c0.5-0.4,1.2-0.7,1.9-0.7
		c0.7,0,1.3,0.1,1.9,0.5C189.5,255.5,189.7,255.8,189.6,255.8z"/>
	<path class="st8" d="M194.8,265.1c0.7-0.3,1.4-0.4,2.1-0.5c0.3,0,0.6-0.1,0.7-0.4c0-0.4-0.1-0.7-0.3-1l-1.1-2.5
		c-1-2.1-1.9-4.2-2.6-6.4c1.2,2,2.2,4.1,3.1,6.2c0.4,0.9,0.7,1.7,1.1,2.5c0.2,0.4,0.3,0.8,0.3,1.3c-0.1,0.2-0.3,0.4-0.5,0.5
		c-0.2,0.1-0.4,0.1-0.5,0.1C196.3,265.1,195.6,265.2,194.8,265.1z"/>
	<path class="st18" d="M196.7,280.6c-4.4,0.2-8.8-0.8-12.8-2.8c0,0,3.5,6.7,12.9,5.5L196.7,280.6z"/>
	<path class="st8" d="M185.3,252.3c0.1,0.2,1.1-0.2,2.3-0.4s2.2-0.3,2.2-0.6s-1.1-0.7-2.4-0.4S185.2,252.1,185.3,252.3z"/>
	<path class="st8" d="M198.1,249.9c0.1,0.3,1.1,0.2,2.4,0.3s2.3,0.1,2.4-0.2s-1-0.8-2.4-0.8S198,249.7,198.1,249.9z"/>
	<path class="st14" d="M177.2,288.9c-0.1-1.9,2.1-10.4,3-15.5s-2.5-6-3.1-9.1c-0.3-2,0.1-4.1,1-6c4.9,1.8,6.9-1.8,9.6-3.8
		c2.9-2.2,3.5-4.9,4.7-8.4s2.5-5.6,6.1-5.9c2.2,1.2,3.9,3.2,4.8,5.5c1.1,3.2,2,15.7,2,15.7c0.5-6,5.4-8.5,4-17.4
		c-0.6-3.8-3.7-9-8.6-9.8c-1.4-0.2-4.1-0.4-4.1-0.4c-2.9-2.6-4.3-2.5-7.1-3.8c-6-2.7-13.3,2.1-17.3,7.3c-3.1,4-4.6,9.5-5.4,14.6
		c-0.5,3.6-0.6,7.2-0.2,10.7c0.2,2.1-0.1,4.8-2.2,6.5c-3,2.3-3.8,6.8-1.7,12.7s-5.6,16-5.6,16c2.1-1.7,4.4-3.3,6.8-4.6
		C167.1,291.8,177.2,288.9,177.2,288.9z"/>
	<path class="st18" d="M193.3,268.2c-0.5-0.5-1.1-0.7-1.8-0.6c-0.5,0.1-0.9,0.4-1.2,0.8c-0.3,0.4-0.3,0.9,0,1.3
		c0.4,0.4,0.9,0.5,1.4,0.3c0.5-0.2,0.9-0.5,1.3-0.9c0.1-0.1,0.2-0.2,0.3-0.3C193.4,268.5,193.4,268.4,193.3,268.2"/>
	<path class="st8" d="M190.5,266.6c0.2,0,0.3,1.1,1.3,1.9s2.3,0.5,2.3,0.7s-0.3,0.3-0.8,0.3c-0.7,0.1-1.4-0.1-1.9-0.5
		c-0.5-0.4-0.9-1-1-1.6C190.3,266.9,190.4,266.6,190.5,266.6z"/>
	<path class="st8" d="M149.7,263.9c0,0.4,0,0.9,0.1,1.3c0.1,0.5,0.3,1,0.5,1.4c0.3,0.6,0.8,1.1,1.4,1.4c0.7,0.4,1.6,0.4,2.3,0.1
		c0.8-0.4,1.4-1.2,1.5-2.1c0.2-1,0.2-2.1,0.2-3.1c0-1.1-0.1-2.2-0.1-3.4c-0.1-2.2,0.3-4.4,1.3-6.4c0.8-1.7,2.2-2.9,4-3.4
		c1.2-0.3,2.4-0.2,3.6,0.3c0.4,0.2,0.7,0.5,1,0.8c-0.3-0.3-0.7-0.5-1.1-0.7c-1.1-0.5-2.3-0.5-3.5-0.2c-1.7,0.5-3.1,1.8-3.8,3.4
		c-0.9,2-1.3,4.1-1.2,6.3c0,1.2,0.1,2.3,0.1,3.4c0.1,1.1,0,2.1-0.2,3.2c-0.2,1-0.8,1.8-1.7,2.3c-0.8,0.3-1.7,0.3-2.5-0.1
		c-0.6-0.3-1.1-0.8-1.5-1.5c-0.2-0.5-0.4-1-0.5-1.5C149.5,264.8,149.6,264.4,149.7,263.9z"/>
	<path class="st19" d="M163.5,284.2c-0.2-0.1-0.4-0.3-0.5-0.5c-0.4-0.5-0.6-1.2-0.7-1.9c-0.1-1.1,0.1-2.1,0.5-3.1
		c0.7-1.2,1.5-2.3,2.6-3.3c1.3-1.1,2.4-2.3,3.4-3.7c1-1.6,1.4-3.6,1.2-5.5c-0.3-2.1-0.4-4.3-0.5-6.4c0-1.2,0.3-2.3,0.8-3.3
		c0.5-1.1,1.4-2,2.4-2.5c2.1-1.2,4.5-1.5,6.4-2.6c1.8-1.1,3.3-2.7,4.1-4.6c0.9-1.8,1.6-3.6,2.4-5.3c0.7-1.6,1.8-2.9,3.1-4
		c1.1-0.9,2.5-1.4,3.9-1.3c1.1,0.1,2.1,0.5,2.9,1.2c0.5,0.4,0.9,1,1.1,1.6c0.1,0.2,0.1,0.3,0.1,0.5c0,0.1,0,0.2,0,0.2s0-0.2-0.2-0.7
		c-0.2-0.6-0.6-1.2-1.1-1.6c-0.8-0.7-1.8-1-2.8-1.1c-1.4,0-2.7,0.5-3.8,1.4c-1.3,1.1-2.3,2.4-3.1,3.9c-0.8,1.6-1.5,3.4-2.4,5.3
		c-0.9,2-2.4,3.7-4.2,4.8c-2,1.1-4.3,1.4-6.4,2.6c-1,0.5-1.8,1.4-2.3,2.4c-0.5,1-0.7,2.1-0.8,3.2c0,2.1,0.2,4.3,0.5,6.4
		c0.2,2-0.2,3.9-1.2,5.6c-1,1.4-2.2,2.6-3.5,3.7c-1,0.9-1.9,2-2.6,3.2c-0.5,0.9-0.7,2-0.6,3C162.4,282.7,162.8,283.6,163.5,284.2z"
		/>
	<path class="st10" d="M166,255.8c-0.9-1.9-0.4-4.3,1.2-5.7c-0.4,0.9-0.7,1.8-1,2.8C166,253.9,165.9,254.9,166,255.8z"/>
	<path class="st14" d="M169.2,284.7c-0.7,5,0.3,10.1,2.9,14.5c0.9,1.6,2.1,2.9,3.6,3.9c1.5,1,3.4,1.3,5.1,0.7
		c1.7-0.6,2.8-2.3,2.6-4.2c-0.4-2.5-3.5-4.1-3.5-6.6c1.1,0.7,2.6,1.3,3.6,0.5c0.6-0.7,0.8-1.6,0.4-2.5c-0.4-0.8-0.9-1.5-1.5-2.2
		c-2.3-2.9-3.3-6.7-2.7-10.4c0.1-1,0.4-4.1,0.4-5.2s-0.3,0-1-0.7c-0.8-0.6-1.9-0.8-2.9-0.5c-1,0.3-1.8,0.9-2.5,1.6
		c-2.4,2.3-3.6,5.6-3.5,8.9"/>
</g>
<g id="Plant--inject-2">
	<path class="st4" d="M118.6,331.2c0-0.1,0-0.1-0.1-0.2c-0.1-0.2-0.2-0.4-0.3-0.6c-0.3-0.5-0.8-1.3-1.4-2.2
		c-1.8-2.6-4.2-4.8-6.9-6.5c-1.9-1.1-4-1.9-6.2-2.3c-2.5-0.4-5.1-0.1-7.5,0.8c-2.7,0.9-5,2.8-6.4,5.2c-1.5,2.6-2,5.6-2.8,8.5
		c-0.4,1.4-1,2.8-1.8,4c-0.8,1.2-1.8,2.2-3,3c-1.1,0.8-2.4,1.6-3.4,2.5c-1.1,0.9-2,1.9-2.8,3c-1.4,2.1-2.4,4.5-2.9,7
		c-0.4,2.2-0.5,4.4-0.4,6.6c0.3,3.2,0.8,6.3,1.7,9.3c0.3,1.1,0.5,1.9,0.7,2.5c0.1,0.3,0.2,0.6,0.3,0.9c0,0,0-0.3-0.2-0.9
		s-0.4-1.5-0.6-2.5c-0.8-3.1-1.3-6.2-1.5-9.3c-0.1-2.2,0-4.3,0.4-6.4c0.5-2.4,1.4-4.7,2.8-6.8c0.8-1.1,1.7-2.1,2.7-2.9
		c1.1-0.9,2.3-1.6,3.4-2.5c1.2-0.8,2.3-1.9,3.2-3.1c0.8-1.3,1.4-2.7,1.9-4.2c0.9-2.9,1.3-5.9,2.8-8.4c1.4-2.3,3.6-4.1,6.1-5.1
		c2.3-0.9,4.8-1.1,7.3-0.8c2.1,0.3,4.2,1.1,6,2.1c2.7,1.6,5,3.8,6.9,6.3c0.7,0.9,1.1,1.6,1.5,2.1
		C118.3,330.7,118.4,330.9,118.6,331.2z"/>
	<path class="st4" d="M80.9,341.8c0.8-0.7,1.2-0.2,2.3,0c1.1,0.2,2.1,0.7,2.9,1.4c3.7,3.1,5.3,8.1,3.9,12.7c-5.2,0.3-9.7-3.7-10-9
		c-0.1-1.8,0.3-3.7,1.3-5.3"/>
	<path class="st4" d="M113.5,326.9c0.4-1,1-0.7,2-1c1.1-0.3,2.2-0.2,3.2,0.1c4.7,1.2,8.2,5,9,9.8c-4.6,2.5-10.4,0.8-12.9-3.8
		c-0.9-1.6-1.3-3.5-1.1-5.3"/>
	<path class="st4" d="M73.7,361.9c4-4.6,11-5,15.5-1c0.6,0.6,1.2,1.2,1.7,1.9c-2.4,2.2-5.6,3.5-8.9,3.5c-3.3-0.1-6.5-1.4-9-3.6"/>
	<path class="st4" d="M76.4,346.8c-6.1,0.2-11.2-4.6-11.4-10.8c0-0.8,0-1.7,0.2-2.5c5.4-1.2,10.7,2.2,11.9,7.6
		c0.4,1.8,0.3,3.7-0.3,5.5"/>
	<path class="st4" d="M87.9,329.2c-5.7,2.2-12.1-0.6-14.4-6.3c-0.3-0.8-0.5-1.6-0.6-2.4c4.7-2.9,10.9-1.5,13.8,3.2
		c1,1.6,1.5,3.4,1.5,5.3"/>
	<path class="st4" d="M91.7,323.4c5.7-2.2,12.1,0.6,14.4,6.3c0.3,0.8,0.5,1.6,0.6,2.5c-4.7,2.9-10.9,1.5-13.8-3.2
		c-1-1.6-1.5-3.4-1.5-5.3"/>
	<path class="st4" d="M96.3,320.3c-5.8-2-8.9-8.2-7-14c0.3-0.8,0.6-1.5,1.1-2.3c5.5,0.8,9.3,5.8,8.5,11.3c-0.3,1.9-1,3.6-2.2,5"/>
	<path class="st4" d="M108.1,320.9c-2.1-5.8,0.9-12.1,6.6-14.2c0.8-0.3,1.6-0.5,2.4-0.6c2.8,4.7,1.3,10.9-3.5,13.7
		c-1.6,1-3.5,1.4-5.3,1.4"/>
	<polyline class="st8" points="60.7,400.4 54.4,361.1 102.4,361.7 97.7,399.9 	"/>
	<path class="st11" d="M81.4,353.9c2.4,1.6,5.4,1.9,8,0.7c2.5-1.4,4.2-4,4.4-6.9c-2.5-1.3-5.4-1.4-8-0.4c-2.5,1.1-4.5,3.3-5.3,5.9"
		/>
	<path class="st11" d="M103.3,362.4c2.4,1.6,5.4,1.9,8,0.7c2.5-1.4,4.2-4,4.4-6.9c-2.5-1.3-5.4-1.4-8-0.4c-2.5,1.1-4.5,3.3-5.3,5.9"
		/>
	<path class="st11" d="M91,343.4c1.1,2.6,3.5,4.5,6.3,5c2.9,0.2,5.7-1.1,7.4-3.4c-2.4-4.5-8-6.2-12.5-3.8c-0.6,0.3-1.1,0.7-1.6,1.1"
		/>
	<path class="st11" d="M99,353.2c-2.8-0.1-5.6,1.2-7.2,3.5c-1.4,2.5-1.5,5.6-0.2,8.1c5.1-0.2,9-4.5,8.8-9.6c0-0.7-0.1-1.3-0.3-1.9"
		/>
	<path class="st11" d="M106.8,368.7c-1.3,2.5-1.3,5.5,0.2,8c1.7,2.4,4.4,3.7,7.3,3.6c1-2.6,0.8-5.5-0.5-8c-1.3-2.3-3.5-3.4-6.4-4.1"
		/>
	<path class="st11" d="M119.5,370.5c-0.5-0.5-1.2-0.9-1.9-1.2c-0.8-0.3-1.7-0.4-2.6-0.5c-1.2,0-2.4,0.1-3.6,0.2
		c-1.5,0.2-3,0.1-4.4-0.4c-1.6-0.6-2.9-1.9-3.6-3.5c-0.8-1.7-1.3-3.5-1.6-5.3c-0.3-1.9-0.9-3.8-1.9-5.5c-1.1-1.6-2.5-3-4.1-4.1
		c-1.5-1.1-2.8-2.5-3.9-3.9c-1.7-2.7-2.4-5.9-1.9-9c0.3-2.1,1.1-4.1,2.4-5.8c0.3-0.5,0.7-0.9,1.1-1.3c0.1-0.1,0.3-0.3,0.5-0.4
		c-0.1,0.2-0.2,0.3-0.4,0.5c-0.4,0.4-0.7,0.9-1.1,1.3c-2.9,4.3-3,10-0.2,14.5c1.1,1.4,2.4,2.7,3.8,3.8c1.6,1.2,3,2.6,4.2,4.2
		c1,1.7,1.6,3.6,1.9,5.6c0.3,1.8,0.8,3.5,1.5,5.2c0.6,1.5,1.8,2.7,3.3,3.3c1.4,0.4,2.8,0.6,4.2,0.4c1.2-0.1,2.4-0.2,3.6-0.1
		c0.9,0,1.8,0.2,2.7,0.6c0.5,0.2,1,0.5,1.4,0.9C119.3,370.2,119.4,370.3,119.5,370.5C119.5,370.5,119.5,370.5,119.5,370.5z"/>
	<path class="st11" d="M119.5,370.5c-0.5-0.5-1.2-0.9-1.9-1.2c-0.8-0.3-1.7-0.4-2.6-0.5c-1.2,0-2.4,0.1-3.6,0.2
		c-1.5,0.2-3,0.1-4.4-0.4c-1.6-0.6-2.9-1.9-3.6-3.5c-0.8-1.7-1.3-3.5-1.6-5.3c-0.3-1.9-0.9-3.8-1.9-5.5c-1.1-1.6-2.5-3-4.1-4.1
		c-1.5-1.1-2.8-2.5-3.9-3.9c-1.7-2.7-2.4-5.9-1.9-9c0.3-2.1,1.1-4.1,2.4-5.8c0.3-0.5,0.7-0.9,1.1-1.3c0.1-0.1,0.3-0.3,0.5-0.4
		c-0.1,0.2-0.2,0.3-0.4,0.5c-0.4,0.4-0.7,0.9-1.1,1.3c-2.9,4.3-3,10-0.2,14.5c1.1,1.4,2.4,2.7,3.8,3.8c1.6,1.2,3,2.6,4.2,4.2
		c1,1.7,1.6,3.6,1.9,5.6c0.3,1.8,0.8,3.5,1.5,5.2c0.6,1.5,1.8,2.7,3.3,3.3c1.4,0.4,2.8,0.6,4.2,0.4c1.2-0.1,2.4-0.2,3.6-0.1
		c0.9,0,1.8,0.2,2.7,0.6c0.5,0.2,1,0.5,1.4,0.9C119.3,370.2,119.4,370.3,119.5,370.5C119.5,370.5,119.5,370.5,119.5,370.5z"/>
	<path class="st11" d="M27.9,374.6c0.4-6.7-4.8-12.4-11.5-12.8c-1.7-0.1-3.4,0.2-4.9,0.8c2.9,6.5,9,10.9,16,11.8"/>
	<path class="st11" d="M24.7,376.2c-2.3,2.6-2.2,6.7-0.5,9.8s4.6,5.2,7.5,7.2c2-6.8-0.7-14.1-6.8-17.9"/>
	<path class="st11" d="M36.1,364.2c0.8,7.7,7.6,13.3,15.3,12.6c0.2,0,0.4,0,0.6-0.1c-0.9-3.8-2.4-7.6-5.3-10.1s-7.5-3.5-10.7-1.4"/>
	<path class="st11" d="M36,360.3c-0.6-3.4-4-5.9-7.4-6.3s-6.9,1.2-9.7,3.3c4.4,5,11.9,5.8,17.2,1.7"/>
	<path class="st11" d="M18.1,389.5c-3.3,2.8-4.1,7.8-2.8,11.9s4.6,7.4,8.2,9.8c1.4-4.1,2.3-8.5,1.5-12.7s-3.3-8.3-7.2-10.1"/>
	<path class="st11" d="M35.5,350.7c3.2-4.6,9.5-5.8,14.1-2.6c0.7,0.5,1.4,1.1,1.9,1.7c-2,4.4-7.1,6.4-11.6,4.4
		c-1.8-0.8-3.3-2.2-4.2-4"/>
	<path class="st11" d="M39.5,340.8c-7,2.1-14.3-1.8-16.4-8.8c-0.2-0.5-0.3-1-0.4-1.5c2.6-0.3,5.3-0.3,7.9,0.1c2.6,0.4,5.1,1.6,7,3.5
		C39.4,335.8,40.1,338.3,39.5,340.8"/>
	<path class="st11" d="M47.1,338.2c-4.6-3.8-5.3-10.6-1.5-15.2c0.4-0.5,0.9-1,1.4-1.4c2.4,2.9,4,6.4,4.7,10c0.3,1.4,0.3,2.8,0,4.1
		c-0.4,1.4-1.5,2.4-2.9,2.7"/>
	<g class="st20">
		<path d="M27.9,374.6c0.4-6.7-4.8-12.4-11.5-12.8c-1.7-0.1-3.4,0.2-4.9,0.8c2.9,6.5,9,10.9,16,11.8"/>
	</g>
	<g class="st20">
		<path d="M24.7,376.2c-2.3,2.6-2.2,6.7-0.5,9.8s4.6,5.2,7.5,7.2c2-6.8-0.7-14.1-6.8-17.9"/>
	</g>
	<g class="st20">
		<path d="M36.1,364.2c0.8,7.7,7.6,13.3,15.3,12.6c0.2,0,0.4,0,0.6-0.1c-0.9-3.8-2.4-7.6-5.3-10.1s-7.5-3.5-10.7-1.4"/>
	</g>
	<g class="st20">
		<path d="M36,360.3c-0.6-3.4-4-5.9-7.4-6.3s-6.9,1.2-9.7,3.3c4.4,5,11.9,5.8,17.2,1.7"/>
	</g>
	<g class="st20">
		<path d="M18.1,389.5c-3.3,2.8-4.1,7.8-2.8,11.9s4.6,7.4,8.2,9.8c1.4-4.1,2.3-8.5,1.5-12.7s-3.3-8.3-7.2-10.1"/>
	</g>
	<g class="st20">
		<path d="M35.5,350.7c3.2-4.6,9.5-5.8,14.1-2.6c0.7,0.5,1.4,1.1,1.9,1.7c-2,4.4-7.1,6.4-11.6,4.4c-1.8-0.8-3.3-2.2-4.2-4"/>
	</g>
	<g class="st20">
		<path d="M39.5,340.8c-7,2.1-14.3-1.8-16.4-8.8c-0.2-0.5-0.3-1-0.4-1.5c2.6-0.3,5.3-0.3,7.9,0.1c2.6,0.4,5.1,1.6,7,3.5
			C39.4,335.8,40.1,338.3,39.5,340.8"/>
	</g>
	<g class="st20">
		<path d="M47.1,338.2c-4.6-3.8-5.3-10.6-1.5-15.2c0.4-0.5,0.9-1,1.4-1.4c2.4,2.9,4,6.4,4.7,10c0.3,1.4,0.3,2.8,0,4.1
			c-0.4,1.4-1.5,2.4-2.9,2.7"/>
	</g>
	<path class="st11" d="M60.3,362.3c0-0.1,0-0.2,0-0.3c0-0.2,0-0.5,0.1-0.8c0-0.7,0.1-1.7,0.1-3c0.2-3.7-0.4-7.4-1.8-10.9
		c-1-2.4-2.5-4.5-4.4-6.2c-2.2-1.9-5.1-3-8-2.9c-1.6,0-3.1,0.4-4.5,1.1c-1.4,0.8-2.6,1.9-3.5,3.3c-1.7,2.9-2.2,6.5-2,10
		s0.6,7.1,0.2,10.6c-0.2,1.7-0.6,3.3-1.3,4.9c-0.7,1.5-1.7,2.8-3,3.9c-1.3,0.9-2.6,1.6-4.1,2.1c-1.3,0.5-2.6,1-3.9,1.8
		c-2.2,1.4-3.9,3.3-5.1,5.5c-1,1.9-1.5,4-1.5,6.1c0,1.6,0.3,3.2,0.8,4.7c0.5,1.3,1.1,2.5,1.8,3.6c0,0-0.1-0.1-0.2-0.2
		c-0.2-0.2-0.3-0.4-0.5-0.6c-0.6-0.8-1-1.8-1.4-2.7c-0.6-1.5-0.9-3.1-0.9-4.8c0-2.2,0.5-4.3,1.4-6.2c1.2-2.4,3-4.3,5.2-5.8
		c2.4-1.6,5.5-2,7.9-3.9s3.7-5.1,4.1-8.5s-0.1-6.9-0.3-10.5s0.3-7.3,2.1-10.3c0.9-1.5,2.2-2.7,3.7-3.5c1.5-0.8,3.1-1.2,4.7-1.2
		c3.1,0,6,1.1,8.3,3.1c2,1.7,3.5,3.9,4.4,6.4c0.8,2,1.3,4.1,1.5,6.2c0.2,1.6,0.2,3.2,0.1,4.8c0,1.3-0.1,2.4-0.2,3
		c0,0.3-0.1,0.6-0.1,0.8C60.3,362.2,60.3,362.3,60.3,362.3z"/>
	<g class="st20">
		<path d="M60.3,362.3c0-0.1,0-0.2,0-0.3c0-0.2,0-0.5,0.1-0.8c0-0.7,0.1-1.7,0.1-3c0.2-3.7-0.4-7.4-1.8-10.9c-1-2.4-2.5-4.5-4.4-6.2
			c-2.2-1.9-5.1-3-8-2.9c-1.6,0-3.1,0.4-4.5,1.1c-1.4,0.8-2.6,1.9-3.5,3.3c-1.7,2.9-2.2,6.5-2,10s0.6,7.1,0.2,10.6
			c-0.2,1.7-0.6,3.3-1.3,4.9c-0.7,1.5-1.7,2.8-3,3.9c-1.3,0.9-2.6,1.6-4.1,2.1c-1.3,0.5-2.6,1-3.9,1.8c-2.2,1.4-3.9,3.3-5.1,5.5
			c-1,1.9-1.5,4-1.5,6.1c0,1.6,0.3,3.2,0.8,4.7c0.5,1.3,1.1,2.5,1.8,3.6c0,0-0.1-0.1-0.2-0.2c-0.2-0.2-0.3-0.4-0.5-0.6
			c-0.6-0.8-1-1.8-1.4-2.7c-0.6-1.5-0.9-3.1-0.9-4.8c0-2.2,0.5-4.3,1.4-6.2c1.2-2.4,3-4.3,5.2-5.8c2.4-1.6,5.5-2,7.9-3.9
			s3.7-5.1,4.1-8.5s-0.1-6.9-0.3-10.5s0.3-7.3,2.1-10.3c0.9-1.5,2.2-2.7,3.7-3.5c1.5-0.8,3.1-1.2,4.7-1.2c3.1,0,6,1.1,8.3,3.1
			c2,1.7,3.5,3.9,4.4,6.4c0.8,2,1.3,4.1,1.5,6.2c0.2,1.6,0.2,3.2,0.1,4.8c0,1.3-0.1,2.4-0.2,3c0,0.3-0.1,0.6-0.1,0.8
			C60.3,362.2,60.3,362.3,60.3,362.3z"/>
	</g>
	<path class="st11" d="M130.2,353.8c0.4-1.1,0.7-2.3,0.7-3.5c0-1.4-0.3-2.8-0.9-4.1c-0.9-1.7-2.2-3-3.9-3.8c-1-0.5-2-0.7-3.1-0.8
		c-1.2-0.1-2.3,0.1-3.4,0.4c-2.4,0.6-4.7,2-7.5,2.5c-1.4,0.3-2.9,0.3-4.3-0.1c-1.5-0.5-2.7-1.5-3.5-2.8c-1.7-2.6-2.1-5.9-4.2-8.3
		c-1-1.2-2.3-2-3.8-2.5c-1.4-0.5-2.9-0.6-4.4-0.5c-2.9,0.3-5.5,1.7-7.4,3.8c-1.7,2-3,4.3-3.7,6.8c-0.6,2.2-0.9,4.4-0.8,6.7
		c0.2,3.3,0.6,6.6,1.3,9.8l0.4,2.7c0,0.3,0.1,0.5,0.1,0.7c0,0.1,0,0.2,0,0.2c0,0,0-0.1-0.1-0.2l-0.2-0.7c-0.1-0.6-0.3-1.5-0.6-2.6
		c-0.7-3.2-1.2-6.5-1.4-9.8c-0.1-2.3,0.1-4.6,0.8-6.8c0.7-2.6,2-5,3.7-7c1-1.1,2.1-2,3.4-2.7c2.7-1.5,6-1.8,8.9-0.9
		c1.6,0.5,2.9,1.4,4,2.6c2.1,2.6,2.6,5.9,4.2,8.3c0.7,1.2,1.9,2.2,3.3,2.6c1.3,0.4,2.7,0.4,4.1,0.1c2.7-0.5,5-1.8,7.4-2.5
		c1.2-0.3,2.4-0.5,3.6-0.4c1.1,0.1,2.2,0.4,3.2,0.9c3.1,1.5,5,4.7,4.9,8.2c0,0.9-0.2,1.8-0.5,2.7
		C130.5,353.2,130.4,353.5,130.2,353.8z"/>
	<path class="st11" d="M102.1,336.3c2.6,1.6,5.8,1.8,8.6,0.6c2.5-1.4,4.1-4,4.4-6.9c-2.5-1.3-5.4-1.4-8-0.4
		c-2.5,1.1-4.5,3.3-5.3,5.9"/>
	<path class="st11" d="M111.2,344.6c0,3,1.5,5.9,4,7.6c2.5,1.4,5.6,1.5,8.2,0.1c-0.2-2.8-1.6-5.3-3.8-7c-2.3-1.6-5.1-2.1-7.8-1.4"/>
	<path class="st11" d="M127,342.8c2.7,1.3,5.9,1.1,8.6-0.4c2.3-1.7,3.7-4.4,3.6-7.3c-4.7-1.9-10.1,0.3-12,5
		c-0.3,0.6-0.4,1.3-0.6,1.9"/>
	<path class="st11" d="M88.9,330.9c-2.3-2-3.9-5.5-3.4-8.1c0.6-2.8,2.6-5.2,5.3-6.2c1.9,2,2.9,4.7,2.7,7.5c-0.3,2.7-1.8,5.2-4.1,6.8
		"/>
	<path class="st11" d="M27.2,319.5c0-0.1,0-0.1,0.1-0.2l0.3-0.6c0.3-0.5,0.7-1.3,1.4-2.2c1.8-2.6,4.2-4.8,6.9-6.5
		c1.9-1.1,4-1.9,6.2-2.3c2.5-0.4,5.1-0.1,7.5,0.8c2.7,0.9,4.9,2.8,6.4,5.2c1.5,2.6,1.9,5.6,2.8,8.5c0.4,1.4,1,2.8,1.8,4
		c0.8,1.2,1.9,2.2,3.1,3c1.1,0.8,2.3,1.6,3.4,2.5c1.1,0.9,2,1.9,2.8,3c1.4,2.1,2.4,4.5,2.9,7c0.4,2.2,0.5,4.4,0.4,6.6
		c-0.3,3.2-0.8,6.3-1.7,9.3c-0.3,1.1-0.5,1.9-0.7,2.5c-0.1,0.3-0.2,0.6-0.3,0.9c0-0.3,0.1-0.6,0.2-0.9c0.1-0.6,0.3-1.5,0.6-2.5
		c0.8-3.1,1.3-6.2,1.5-9.3c0.1-2.2,0-4.3-0.4-6.4c-0.5-2.4-1.4-4.7-2.8-6.8c-0.8-1.1-1.7-2.1-2.7-2.9c-1.1-0.9-2.3-1.6-3.4-2.5
		c-1.2-0.8-2.3-1.9-3.2-3.1c-0.8-1.3-1.4-2.7-1.9-4.2c-0.9-2.9-1.4-5.9-2.8-8.4c-1.4-2.3-3.6-4.1-6.1-5.1c-2.3-0.9-4.8-1.1-7.3-0.8
		c-2.1,0.3-4.2,1-6,2.1c-2.7,1.6-5,3.8-6.9,6.3c-0.7,0.9-1.1,1.6-1.5,2.1C27.6,319,27.4,319.3,27.2,319.5z"/>
	<path class="st11" d="M65,330.1c-0.8-0.7-1.2-0.2-2.3,0c-1.1,0.2-2.1,0.7-2.9,1.4c-3.7,3.1-5.3,8.1-3.9,12.8c5.2,0.3,9.7-3.8,9.9-9
		c0.1-1.8-0.4-3.7-1.3-5.3"/>
	<path class="st11" d="M32.3,315.3c-0.4-1-1-0.7-2-1c-1.1-0.2-2.2-0.2-3.2,0.1c-4.7,1.2-8.2,5-9,9.8c4.6,2.4,10.4,0.7,12.8-4
		c0.8-1.6,1.2-3.3,1.1-5.1"/>
	<path class="st11" d="M72.1,350.2c-4-4.6-11-5-15.5-1c-0.6,0.6-1.2,1.2-1.7,1.8c2.4,2.2,5.6,3.5,8.9,3.5c3.3-0.1,6.5-1.4,9-3.6"/>
	<path class="st11" d="M69.4,335.2c6.1,0.2,11.2-4.6,11.4-10.7c0-0.8,0-1.7-0.2-2.5c-5.4-1.2-10.7,2.2-11.9,7.6
		c-0.4,1.8-0.3,3.7,0.3,5.5"/>
	<path class="st11" d="M58,317.6c5.7,2.2,12.1-0.6,14.4-6.3c0.3-0.8,0.5-1.6,0.6-2.4c-4.6-2.9-10.8-1.6-13.7,3.1
		c-1,1.6-1.6,3.5-1.5,5.4"/>
	<path class="st11" d="M54.1,311.8c-5.7-2.2-12.1,0.6-14.4,6.3c-0.3,0.8-0.5,1.6-0.6,2.4c4.7,2.9,10.8,1.5,13.8-3.1
		c1-1.6,1.5-3.5,1.5-5.4"/>
	<path class="st11" d="M49.5,308.7c5.8-2,8.9-8.3,6.9-14.1c-0.3-0.8-0.6-1.5-1-2.2c-5.5,0.8-9.3,5.8-8.5,11.3c0.3,1.9,1,3.6,2.2,5.1
		"/>
	<path class="st11" d="M37.7,309.3c2.1-5.8-0.9-12.1-6.6-14.2c-0.8-0.3-1.6-0.5-2.4-0.6c-2.8,4.7-1.3,10.8,3.4,13.7
		c1.6,1,3.5,1.5,5.5,1.4"/>
	<polygon class="st8" points="53.8,395.8 57.5,400.4 102.7,400.4 105.7,395.8 	"/>
	<path class="st9" d="M104.7,395.8c0,0.1-11.1,0.3-24.8,0.3s-24.8-0.1-24.8-0.3s11.1-0.3,24.8-0.3S104.7,395.7,104.7,395.8z"/>
	<path class="st9" d="M99.7,378.6c0,0-0.1,0.1-0.3,0.4c-0.3,0.4-0.6,0.7-0.9,1c-1.2,1.1-2.5,2.1-4,2.8c-2.2,1.1-4.6,1.7-7.1,1.8
		c-1.4,0.1-2.9-0.1-4.3-0.4c-1.5-0.4-3-0.8-4.4-1.5c-2.9-1.2-5.6-2.6-8.1-3.5c-2.2-0.8-4.6-1-7-0.7c-1.6,0.3-3.1,1-4.3,2
		c-0.9,0.8-1.2,1.3-1.2,1.3c0.1-0.1,0.1-0.3,0.2-0.4c0.3-0.4,0.5-0.7,0.9-1c1.2-1.1,2.7-1.9,4.4-2.2c2.4-0.4,4.9-0.2,7.3,0.6
		c2.6,0.8,5.3,2.2,8.2,3.5c1.4,0.6,2.8,1.1,4.3,1.4c1.4,0.3,2.8,0.4,4.2,0.4c2.4-0.1,4.7-0.6,6.9-1.7
		C96.3,381.5,98.1,380.2,99.7,378.6z"/>
	<path class="st9" d="M100.1,375.1c-0.1,0.1-0.2,0.2-0.3,0.4c-0.3,0.3-0.6,0.6-1,0.9c-1.3,1-2.7,1.9-4.2,2.6c-2.2,1-4.6,1.6-7.1,1.7
		c-1.4,0.1-2.9,0-4.3-0.3c-1.5-0.3-3-0.7-4.5-1.3c-3-1.1-5.7-2.3-8.3-3.1c-2.3-0.7-4.7-0.9-7.1-0.6c-1.6,0.2-3.1,0.8-4.5,1.7
		c-0.9,0.7-1.4,1.2-1.4,1.1s0.1-0.1,0.3-0.4c0.3-0.3,0.6-0.6,1-0.9c1.3-1,2.9-1.7,4.5-1.9c2.4-0.4,4.9-0.2,7.3,0.5
		c2.7,0.7,5.4,2,8.4,3c1.4,0.5,2.9,0.9,4.4,1.3c1.4,0.3,2.8,0.4,4.2,0.3c2.4-0.1,4.8-0.6,7-1.6C96.5,377.7,98.4,376.5,100.1,375.1z"
		/>
</g>
</svg>
