<svg xmlns="http://www.w3.org/2000/svg" xmlns:xlink="http://www.w3.org/1999/xlink" width="651.002" height="190.525" viewBox="0 0 651.002 190.525">
  <defs>
    <linearGradient id="linear-gradient" y1="0.5" x2="1" y2="0.5" gradientUnits="objectBoundingBox">
      <stop offset="0.307" stop-color="#ccc"/>
      <stop offset="0.885" stop-color="#666"/>
    </linearGradient>
    <linearGradient id="linear-gradient-2" y1="0.5" x2="1" y2="0.5" gradientUnits="objectBoundingBox">
      <stop offset="0.198" stop-color="#666"/>
      <stop offset="0.57" stop-color="#ccc"/>
    </linearGradient>
  </defs>
  <g id="Grupo_952" data-name="Grupo 952" transform="translate(-13.694 -427.419)">
    <ellipse id="Elipse_205" data-name="Elipse 205" cx="47.686" cy="6.514" rx="47.686" ry="6.514" transform="translate(174.37 604.915)" fill="#ccc" opacity="0.5"/>
    <ellipse id="Elipse_206" data-name="Elipse 206" cx="47.686" cy="6.514" rx="47.686" ry="6.514" transform="translate(437.554 604.915)" fill="#ccc" opacity="0.5"/>
    <g id="Grupo_951" data-name="Grupo 951" transform="translate(13.694 427.419)">
      <path id="Trazado_978" data-name="Trazado 978" d="M893.673,445.484s-2.726-3.189.337-7.864c2.06-3.144,4.258-1.809,4.185-.271S896.237,443.286,893.673,445.484Z" transform="translate(-434.531 -431.388)" fill="#0c232b"/>
      <path id="Trazado_979" data-name="Trazado 979" d="M478.492,500.063a17.389,17.389,0,0,0-2.8,1.079c-.08.093-.9.528-.318,2.125.218.6.638,1.192,1.25,1.261a12.253,12.253,0,0,0,2.342-.812,1.358,1.358,0,0,0,.732.555,4.235,4.235,0,0,0,2.437.107c1.151-.2,2.739-.351,3.659-1.074s.372-1.166.372-1.166a.815.815,0,0,0,.516-.647,1.118,1.118,0,0,0-.273-.864,1.658,1.658,0,0,0,.461-.84,1.268,1.268,0,0,0-.329-.817s.661-.279.557-.867-1.307-.791-1.656-.774-1.017.058-1.017.058.426-1.142-.039-1.221a10.887,10.887,0,0,1-2.52.544,2.919,2.919,0,0,0-2.362,1.321A10.493,10.493,0,0,0,478.492,500.063Z" transform="translate(-234.667 -460.338)" fill="#f0a5a6"/>
      <g id="Grupo_941" data-name="Grupo 941" transform="translate(205.792 171.2)">
        <path id="Trazado_980" data-name="Trazado 980" d="M411.015,755.939l-2.446,9.095s2.7,1.856,5.255.347l1.731-8.116A46.176,46.176,0,0,0,411.015,755.939Z" transform="translate(-408.569 -755.92)" fill="#231f20"/>
        <path id="Trazado_981" data-name="Trazado 981" d="M416.866,765.366s-.865,2.526.459,3.431,2.749.7,4.994.38c2.9-.412,7.4,3.629,1.727,3.308-.84-.047-5.486-.412-7.67-2.193-1.064-.867-.911-2.944-.6-3.531Z" transform="translate(-411.91 -760.443)" fill="#231f20"/>
      </g>
      <path id="Trazado_982" data-name="Trazado 982" d="M409.807,571.009c-5.847-5.73-12.333-8.752-18.31-3.926l-1.7,1.37c-8.687,7.015,15.219,42.875,19.966,49.113,6.039,7.937,17.637,18.866,21.053,13.519,3.969-6.212,2.757-12.423,2.757-13.519,0-8.8-3.93-16.73-7.878-23.858C422.417,587.782,416.536,577.6,409.807,571.009Z" transform="translate(-192.888 -493.146)" fill="#0c232b"/>
      <path id="Trazado_983" data-name="Trazado 983" d="M416.189,721.161c4.555-4.976,13.531-16.271,18.863-26.308.014-.026.03-.049.043-.076l6.988-12.43c2.552-6.144.439-9.262-2.742-10.953,0,0-12.2,3.937-12.215,3.963-5.514,10.01-14.55,35.934-16.188,42.405C410.939,717.764,414.074,721.21,416.189,721.161Z" transform="translate(-203.912 -544.246)" fill="#0c232b"/>
      <g id="Grupo_942" data-name="Grupo 942" transform="translate(183.816 172.49)">
        <path id="Trazado_984" data-name="Trazado 984" d="M369.99,758.411l-3.588,8.708s2.441,2.186,5.168,1.016l2.754-7.828A46.151,46.151,0,0,0,369.99,758.411Z" transform="translate(-366.402 -758.394)" fill="#231f20"/>
        <path id="Trazado_985" data-name="Trazado 985" d="M374.727,767.7s-.717,2.571.657,3.4,2.785.537,5.008.089c2.876-.579,7.6,3.194,1.916,3.2-.841,0-5.5-.092-7.785-1.744-1.112-.8-1.08-2.887-.8-3.49Z" transform="translate(-369.829 -762.85)" fill="#231f20"/>
      </g>
      <path id="Trazado_986" data-name="Trazado 986" d="M374.563,725.344c5.263-5.586,15.834-18.242,22.567-29.443.018-.029.036-.055.054-.084l3.17-5.2c3.675-6.025,4.242-12.379,1.268-14.191l-1-.608c-2.974-1.812-11.062-.883-11.08-.855-13.975,22.646-17.279,39.527-19.807,46.715C369.738,721.681,372.427,725.436,374.563,725.344Z" transform="translate(-184.183 -545.829)" fill="#184656"/>
      <path id="Trazado_987" data-name="Trazado 987" d="M395.26,563.4c-3.752-7.276-12.714-5.56-19.9-2.855l-2.041.768c-10.45,3.932-6.522,17.02-2.47,26.666,3.069,7.305,15.509,36.827,20.446,40.813,1.953,1.577,7.428,1.594,8.454,1.208s1.866-1.738,2.295-4.211c1.342-7.729.78-21.327-.052-29.433C401.3,589.627,399.577,571.774,395.26,563.4Z" transform="translate(-182.694 -490.052)" fill="#184656"/>
      <path id="Trazado_988" data-name="Trazado 988" d="M398.286,437.434c2.078,3.6,1.891,10.323.507,10.969-2.912,1.359-9.18-1.163-11.258-4.762s-1.356-7.906,1.612-9.62S396.208,433.835,398.286,437.434Z" transform="translate(-192.138 -430.244)" fill="#f0a5a6"/>
      <path id="Trazado_989" data-name="Trazado 989" d="M397.542,464.166h-5.606v-8.514l6.47.36S396.748,460.482,397.542,464.166Z" transform="translate(-194.813 -440.938)" fill="#f0a5a6"/>
      <path id="Trazado_990" data-name="Trazado 990" d="M407.5,442.192a18.905,18.905,0,0,0,3.412,1.345c.831.09,1.231.411.483,1.338a4.5,4.5,0,0,1-2.04,1.286Z" transform="translate(-202.264 -434.493)" fill="#f0a5a6"/>
      <path id="Trazado_991" data-name="Trazado 991" d="M452.755,500.109a1.09,1.09,0,0,0-1.2-.83c-3.418.445-12.958,2.2-13.9,2.633-.9.408-11.924-7.087-12.555-7.9-4.21-1.095-.007,7.985-1.789,10.429,1.38,2.347,9.551,4.759,9.551,4.759,4.927,1.215,16.324-3.847,19.863-5.76a1.084,1.084,0,0,0,.544-1.206Z" transform="translate(-209.758 -459.265)" fill="#399aaa"/>
      <path id="Trazado_992" data-name="Trazado 992" d="M410.344,492.332c-.813.91-1.9,2.055-2.773,2.9-4.465-2.3-7.066-2.926-12.409-7.439-4.87-4.589-9.508-6.013-8.49-11.133,1.038-3.921,6.636-5.132,6.652-5.116,5.664,2.508,14.524,11.449,19.991,17.676A30.914,30.914,0,0,1,410.344,492.332Z" transform="translate(-192.224 -448.549)" fill="#399aaa"/>
      <path id="Trazado_993" data-name="Trazado 993" d="M376.661,466.236c.846-.525.089-1.22.813-1.223l6.053.691c1.886-.048.946.955,1.253,1.222,8.236,7.158,9.192,28.589,12.2,46.734a8.355,8.355,0,0,1,.108,1.017,3.31,3.31,0,0,1,.29,1.818c-.48,3.811-7.6,7.291-16.487,7.8-7.926.453-14.688-1.578-16.461-4.814l-.016-.028c-.04-.074-.077-.149-.111-.223a6.62,6.62,0,0,1-.551-2.951c.137-7.07-.167-13.8.8-19.765C367.394,469.209,376.35,466.18,376.661,466.236Z" transform="translate(-181.314 -445.421)" fill="#e95f5c"/>
      <path id="Trazado_994" data-name="Trazado 994" d="M381.479,441.7s.841-.129.809-1.618a2.519,2.519,0,0,1,1.381-2.243,2.685,2.685,0,0,0,2.243-2.5c.109-.748-.177-1.873.372-2.5a1.453,1.453,0,0,1,.641-.374c1.657-.564,3.6-.12,5.112-1.141a2.183,2.183,0,0,0-.388-3.839c-1.6-.518-3.58,2.286-5.046,1.941-.747-.176-1.138-.82-1.729-1.231a4.275,4.275,0,0,0-2.509-.626,4.923,4.923,0,0,0-4.449,2.448c-.519.983-.981,2.072-2.133,2.435-.607.192-1.247.259-1.86.432a4.5,4.5,0,0,0-2.656,1.93c-1.323,2.213.37,4.714,2.417,5.718,1.736.852,1.489,2.01,1.423,2.976-.118,1.758,2.071,4.141,5.015,2.265a1.862,1.862,0,0,0,1.682.355l.7-1.952A6.423,6.423,0,0,1,381.479,441.7Z" transform="translate(-184.69 -427.419)" fill="#0c232b"/>
      <path id="Trazado_995" data-name="Trazado 995" d="M391.4,447.158c.408,1.145,1.259,1.888,1.9,1.659s.831-1.342.424-2.487-1.259-1.888-1.9-1.659S391,446.014,391.4,447.158Z" transform="translate(-194.455 -435.66)" fill="#f0a5a6"/>
      <g id="Grupo_944" data-name="Grupo 944" transform="translate(495.006 166.1)">
        <g id="Grupo_943" data-name="Grupo 943">
          <path id="Trazado_996" data-name="Trazado 996" d="M974.772,746.145l3.282,7.109s-1.081,3.025-3.979,3.292l-2.784-7.1A41.654,41.654,0,0,1,974.772,746.145Z" transform="translate(-967.239 -746.133)" fill="#231f20"/>
          <path id="Trazado_997" data-name="Trazado 997" d="M968.669,757.281s1.454,2.335.921,3.814-1.784,2.133-3.752,3.168c-2.545,1.34-3.8,7.133.526,3.621.641-.52,4.125-3.476,4.839-6.146.348-1.3-.966-2.863-1.552-3.149Z" transform="translate(-963.516 -751.471)" fill="#231f20"/>
        </g>
      </g>
      <path id="Trazado_998" data-name="Trazado 998" d="M942.5,718.69c-5.431-4.437-26.623-30.989-26.623-30.989-4.044-5.023-4.318-9.085-1.839-11.08l.831-.669c2.48-1.995,9.918-2.113,9.937-2.089A183.178,183.178,0,0,1,948.988,711.9a2.316,2.316,0,0,1-.111,2.269C947.788,715.886,945.448,718.893,942.5,718.69Z" transform="translate(-444.055 -545.427)" fill="#134e75"/>
      <g id="Grupo_946" data-name="Grupo 946" transform="translate(437.103 173.473)">
        <g id="Grupo_945" data-name="Grupo 945">
          <path id="Trazado_999" data-name="Trazado 999" d="M876.254,760.306l-.934,7.775s-2.508,2.009-5.115.716l1.352-7.5A41.851,41.851,0,0,1,876.254,760.306Z" transform="translate(-860.932 -760.281)" fill="#231f20"/>
          <path id="Trazado_1000" data-name="Trazado 1000" d="M862.667,767.406s.012,2.751-1.217,3.731-2.638.879-4.857.729c-2.87-.194-6.978,4.079-1.451,3.359.818-.106,5.335-.8,7.344-2.694.978-.924.68-2.944.33-3.495Z" transform="translate(-852.411 -763.693)" fill="#231f20"/>
        </g>
      </g>
      <path id="Trazado_1001" data-name="Trazado 1001" d="M865.512,723.387c-4.44-9.941-5.626-39.385-4.8-45.053,0,0,15.686-1.044,15.685-1.017.029,9.732-1.454,35.175-3.05,43.572a2.53,2.53,0,0,1-1.818,1.973C869.687,723.366,866.646,724.041,865.512,723.387Z" transform="translate(-419.167 -547.081)" fill="#134e75"/>
      <path id="Trazado_1002" data-name="Trazado 1002" d="M779.576,514.974a17.379,17.379,0,0,1,2.981-.341c.114.045,1.043.051,1.267,1.735a1.729,1.729,0,0,1-.524,1.7,12.209,12.209,0,0,1-2.45.367,1.358,1.358,0,0,1-.391.831,4.232,4.232,0,0,1-2.109,1.225c-1.115.352-2.59.958-3.74.745s-.87-.86-.87-.86a.815.815,0,0,1-.757-.334,1.117,1.117,0,0,1-.159-.892,1.656,1.656,0,0,1-.8-.53,1.268,1.268,0,0,1-.088-.877s-.716.059-.9-.51.791-1.306,1.108-1.453.928-.42.928-.42-.907-.815-.531-1.1a10.863,10.863,0,0,0,2.485-.687,2.918,2.918,0,0,1,2.7.076A10.486,10.486,0,0,1,779.576,514.974Z" transform="translate(-376.335 -468.523)" fill="#f0a5a6"/>
      <path id="Trazado_1003" data-name="Trazado 1003" d="M912.751,442.66a2.533,2.533,0,0,0-3.25-1.425s1.429-2.928-.688-4.13-3.018.849-4.184.486c-.926-.288-.867-1.057-1.343-1.483a2.539,2.539,0,0,1-.891,1.022c-1.652,1.109-3.589,1.7-5.175,2.916a1.836,1.836,0,0,1-1.112.366l-.017.01a2.392,2.392,0,0,1-1.138.314c.759,1.066,2.015,1.543,4.359,1.072,2.471-.5,3.121.5,3.2,2.346a3.667,3.667,0,0,0,.769,2.483,1.229,1.229,0,0,1,2,.987,2.459,2.459,0,0,1-1.379,2.744,14.174,14.174,0,0,1-.243,2.338c-.268,1.607-.1,1.8,1.234,1.393a7.566,7.566,0,0,0,4.211-2.7c.968-1.369,1.057-2.807.243-3.175C909.352,448.23,913.635,444.755,912.751,442.66Z" transform="translate(-435.68 -431.58)" fill="#0c232b"/>
      <path id="Trazado_1004" data-name="Trazado 1004" d="M900.43,566.672c1.579-8.066,29.3-16.234,24.8,18.058-1.034,7.875-5.057,37.542-8.459,42.853-1.346,2.1-7.645,4.507-8.21,3.686a22,22,0,0,1-2.6-4.331c-3.014-6.92-2.448-18.956-3.639-26.906C901.332,593.432,898.613,575.955,900.43,566.672Z" transform="translate(-438.009 -490.709)" fill="#134e75"/>
      <path id="Trazado_1005" data-name="Trazado 1005" d="M864.444,581.2c2.027-7.925,3.133-14.237,7.556-17.693l24.506,3.758c2.356,10.126-7.181,18.235-14,36.3-1.173,3.108-4.331,15.942-6.082,23.038-1.709,6.927-7.79,8.948-10.689,7.833-4.792-1.843-4.97-7.02-5.068-8.017C859.653,616.1,862.676,588.121,864.444,581.2Z" transform="translate(-419.164 -492.586)" fill="#134e75"/>
      <path id="Trazado_1006" data-name="Trazado 1006" d="M922.58,489.018c-2.431-3.952-.346-14.333-.346-14.333,6.014-3.183,13.213,5.353,15.795,10.935a66.951,66.951,0,0,1,8.64,20.115c.54,2.835-1.641,8.627-2.97,7.965-2.436-1.214-13.469-15.794-20-18.059C923.685,495.622,922.58,489.018,922.58,489.018Z" transform="translate(-448.344 -449.721)" fill="#e95f5c"/>
      <path id="Trazado_1007" data-name="Trazado 1007" d="M867.516,474.854s14.265,5.184,10.926,8.018l-9.487,7.33c-.016.014-.033.025-.049.038-7.527,6.545-20.762,11.435-23.34,11.7-1.407.144-4.325-6.234-.243-9.159C849.2,490.239,862,478.55,867.516,474.854Z" transform="translate(-410.915 -450.133)" fill="#e95f5c"/>
      <path id="Trazado_1008" data-name="Trazado 1008" d="M904.4,477.858a8.507,8.507,0,0,0,3.967-2.147l-.089,1.264-2.78,5.361-2.425-4.384A6.02,6.02,0,0,0,904.4,477.858Z" transform="translate(-439.567 -450.544)" fill="#c080b1"/>
      <path id="Trazado_1009" data-name="Trazado 1009" d="M791.85,514.441l.072-1.49a2.88,2.88,0,0,1,3.058-2.643c19.534.658,25.662-1.531,25.662-1.531,12.264-1.773,4.59,10.249-2.023,9.721,0,0-21.453-.6-24.509-1.243A2.775,2.775,0,0,1,791.85,514.441Z" transform="translate(-386.308 -466.291)" fill="#e95f5c"/>
      <path id="Trazado_1010" data-name="Trazado 1010" d="M889.931,471.345c-1.258.007-6.266,4.121-8.931,12.241-2.288,6.973-3.884,25.227-4.356,37.937-.125,3.367,7.629,3.55,16.325,3.51,8.162-.037,20.7-.4,20.83-3.447.259-6.2-7.047-39.178-8-44.391-4.59-6.21-9.422-5.153-9.957-5.357Z" transform="translate(-426.911 -448.453)" fill="#e95f5c"/>
      <path id="Trazado_1011" data-name="Trazado 1011" d="M900.688,468.26s4.588,3,8.039-.909l-.935-3.175-.072-3.193-8.151,2.631S900.968,464.8,900.688,468.26Z" transform="translate(-437.89 -443.491)" fill="#f0a5a6"/>
      <path id="Trazado_1012" data-name="Trazado 1012" d="M905.213,464.652c-.616,1.052-1.442,2.955-2.625,3.449a2.27,2.27,0,0,1-1.854.035,23.215,23.215,0,0,0-1.163-4.455l7.279-2.556A15.516,15.516,0,0,1,905.213,464.652Z" transform="translate(-437.89 -443.56)" fill="#cc7f7f"/>
      <path id="Trazado_1013" data-name="Trazado 1013" d="M895.252,441.823c-2.57,8.439.406,12.409,1.767,12.761,2.864.742,8.114-2.592,9.392-6.2s-.1-7.384-3.073-8.438S896.367,438.162,895.252,441.823Z" transform="translate(-435.338 -433.008)" fill="#f0a5a6"/>
      <path id="Trazado_1014" data-name="Trazado 1014" d="M258.837,488.25c-2.441,10.441-5.206,22.275-11.775,28.833-17.63,17.6-41.408,17.872-81.883,12.059-24.777-3.56-44.994-.315-61.811,9.917C89.157,547.706,77.5,561.4,67.735,580.938,57.142,602.124,36.949,614.4,13.694,621.166v4.969c24.951-7.013,46.831-20.061,58.327-43.053,20.157-40.315,48.679-55.485,92.477-49.2,17.1,2.456,35.009,4.494,50.18,2.8,15.013-1.68,26.38-6.83,35.771-16.206,7.537-7.526,10.469-20.068,13.055-31.134,3.517-15.048,19.044-12.9,19.7-12.8l.362-2.369.367-2.368C276.84,470.7,262.466,472.723,258.837,488.25Z" transform="translate(-13.694 -448.552)" fill="#e95f5c"/>
      <g id="Grupo_948" data-name="Grupo 948" transform="translate(264.637 8.612)">
        <g id="Grupo_947" data-name="Grupo 947" transform="translate(40.131 6.704)">
          <path id="Trazado_1015" data-name="Trazado 1015" d="M614.866,459.435H599.8a1.317,1.317,0,0,1-1.313-1.313h0a1.317,1.317,0,0,1,1.313-1.313h15.067a1.317,1.317,0,0,1,1.313,1.313h0A1.317,1.317,0,0,1,614.866,459.435Z" transform="translate(-598.486 -456.809)" fill="#e95f5c"/>
          <path id="Trazado_1016" data-name="Trazado 1016" d="M614.866,490.732H599.8a1.317,1.317,0,0,1-1.313-1.313h0a1.317,1.317,0,0,1,1.313-1.313h15.067a1.317,1.317,0,0,1,1.313,1.313h0A1.317,1.317,0,0,1,614.866,490.732Z" transform="translate(-598.486 -471.795)" fill="#e95f5c"/>
        </g>
        <path id="Trazado_1017" data-name="Trazado 1017" d="M532.183,475.914l-9.054-1.237c-.939-.128-1.647-1.427-1.647-2.9h0c0-1.47.708-2.769,1.647-2.9l9.054-1.237a3.867,3.867,0,0,1,4.135,4.135h0A3.867,3.867,0,0,1,532.183,475.914Z" transform="translate(-521.482 -455.279)" fill="#999"/>
        <rect id="Rectángulo_1593" data-name="Rectángulo 1593" width="26.539" height="22.807" rx="9.946" transform="translate(11.519 4.769)" fill="url(#linear-gradient)"/>
        <rect id="Rectángulo_1594" data-name="Rectángulo 1594" width="16.725" height="27.507" rx="5.039" transform="translate(28.52 2.419)" fill="#999"/>
        <rect id="Rectángulo_1595" data-name="Rectángulo 1595" width="4.976" height="32.345" rx="2.488" transform="translate(26.723)" fill="#bbbdbf"/>
      </g>
      <rect id="Rectángulo_1596" data-name="Rectángulo 1596" width="2.618" height="22.807" transform="translate(288.732 13.356)" fill="#e6e7e8" style="mix-blend-mode: multiply;isolation: isolate"/>
      <path id="Trazado_1018" data-name="Trazado 1018" d="M540.723,467.637a3.263,3.263,0,0,0-.774.01l-2.25.307v7.654l2.25.307a3.267,3.267,0,0,0,.774.011Z" transform="translate(-264.61 -446.668)" fill="#ccc" style="mix-blend-mode: multiply;isolation: isolate"/>
      <rect id="Rectángulo_1597" data-name="Rectángulo 1597" width="1.444" height="27.507" transform="translate(296.317 11.082)" fill="gray" style="mix-blend-mode: multiply;isolation: isolate"/>
      <path id="Trazado_1019" data-name="Trazado 1019" d="M911.357,518.575q-.644-5-1.582-9.955c-.653-3.435-.77-4.364-1.594-7.763-2.2-3.113-4.278-6.345-6.1-7.357-3.7-.913-4.513-13.136-3.535-15.644a24.464,24.464,0,0,1,1.628-3.669c.307-.51,1.117-1.06,1.048-1.748-.108-1.076-1.5-1.016-2.463-.963a.6.6,0,0,0-.105-.024c-1.719-.221-2.82.862-3.455,2.367a26.307,26.307,0,0,0-1.283,4.064,47.42,47.42,0,0,1-1.158,5.539c-.606,1.621-1.539,1.808-3.147,2a21.619,21.619,0,0,1-2.7.142c-1.788-.017-5.045.163-5.064-2.29a24.579,24.579,0,0,1,2.845-10.425.586.586,0,0,0-.651-.822,3.052,3.052,0,0,0-1.7-.116,4.17,4.17,0,0,0-1.77.454,2.108,2.108,0,0,0-.734,1.213.646.646,0,0,0-.025.127,26.252,26.252,0,0,0-2.028,4.883c-.255.978-.452,2.592-.608,3.591-.258,1.649.24,10.348-1.754,11.123-1.215.473-2.362,4.253-2.835,10.327-.3,3.9-1.451,23.625-1.586,27-.053,1.332,18.739-1.527,22.631-1.481,5.247.063,17.814,5.906,18.274,3.573C912.847,527.925,911.715,521.353,911.357,518.575Z" transform="translate(-424.208 -448.49)" fill="#134e75"/>
      <path id="Trazado_1020" data-name="Trazado 1020" d="M933.738,552.8c.945-4.792-.188-11.364-.546-14.142q-.644-5-1.582-9.955c-.653-3.436-.77-4.364-1.594-7.763-2.2-3.113-4.278-6.345-6.1-7.357a2.006,2.006,0,0,1-.524-.222c-.223,5.626-.374,11.258-1.522,16.795-.988,4.764-3.072,9.108-5.273,13.4,3.025,2.464,4.43,7.1,5.945,10.444a142.922,142.922,0,0,1,6.581,18.222c.7,2.352,1.274,4.708,1.739,7.066,1.119-7.069,1.995-13.582,2.4-16.694a48.878,48.878,0,0,0,.406-9.628A.56.56,0,0,0,933.738,552.8Z" transform="translate(-446.044 -468.571)" fill="#0c3a5e"/>
      <path id="Trazado_1021" data-name="Trazado 1021" d="M1003.488,621.734c-11.707.356-24.547,1.638-38,2.977-23.807,2.37-48.424,4.822-67.851,2.048-21.468-3.065-32.9-11.881-35.967-27.743-5.662-29.254-16.017-51.207-30.778-65.25-13.85-13.177-28.207-15.949-35.532-16.429-1.146-.075-2.423-.119-3.775-.165-10.9-.374-27.375-.939-35.775-18.493-5.794-14.452-13.229-23.553-22.1-27.052-7-2.76-12.27-.821-12.492-.737l1.7,4.481c.16-.062,16.126-5.706,28.472,25.16l.061.14c9.642,20.249,28.628,20.9,39.971,21.29,1.313.045,2.554.088,3.626.158,6.678.437,19.787,2.983,32.542,15.119,14.024,13.342,23.907,34.434,29.376,62.689,3.465,17.9,16.547,28.229,40,31.577a146.065,146.065,0,0,0,20.478,1.279c15.35,0,32.129-1.67,48.525-3.3,13.311-1.325,26.023-2.6,37.526-2.953Z" transform="translate(-352.486 -447.881)" fill="#46acc3"/>
      <path id="Trazado_1022" data-name="Trazado 1022" d="M903.367,573.281a17.365,17.365,0,0,1,2.825-1.012c.121.018,1.027-.188,1.629,1.4a1.727,1.727,0,0,1-.123,1.771,12.224,12.224,0,0,1-2.3.915,1.362,1.362,0,0,1-.192.9,4.233,4.233,0,0,1-1.775,1.674c-1.005.6-2.3,1.523-3.471,1.578s-1.043-.639-1.043-.639a.815.815,0,0,1-.813-.153,1.117,1.117,0,0,1-.357-.832,1.657,1.657,0,0,1-.9-.334,1.267,1.267,0,0,1-.285-.834s-.683.221-.988-.292.472-1.452.748-1.668.807-.62.807-.62-1.069-.587-.768-.95a10.871,10.871,0,0,0,2.263-1.235,2.919,2.919,0,0,1,2.651-.543A10.5,10.5,0,0,1,903.367,573.281Z" transform="translate(-435.943 -496.779)" fill="#f0a5a6"/>
      <path id="Trazado_1023" data-name="Trazado 1023" d="M473.49,519.833a17.364,17.364,0,0,0-2.929.651c-.093.08-.969.389-.631,2.054a1.729,1.729,0,0,0,1.049,1.432,12.183,12.183,0,0,0,2.436-.454,1.362,1.362,0,0,0,.641.658,4.235,4.235,0,0,0,2.394.469c1.169-.031,2.761.06,3.778-.518s.542-1.1.542-1.1a.814.814,0,0,0,.606-.563,1.114,1.114,0,0,0-.141-.894,1.654,1.654,0,0,0,.58-.762,1.266,1.266,0,0,0-.2-.857s.7-.178.68-.775-1.174-.976-1.522-1.011-1.014-.094-1.014-.094.591-1.067.143-1.213a10.879,10.879,0,0,1-2.573.163,2.922,2.922,0,0,0-2.532.955A10.489,10.489,0,0,0,473.49,519.833Z" transform="translate(-232.123 -470.242)" fill="#f0a5a6"/>
      <path id="Trazado_1024" data-name="Trazado 1024" d="M914.443,557.221l-1.526-2.67a1.7,1.7,0,0,1,.524-2.4,68.788,68.788,0,0,0,8.734-5.311A36.319,36.319,0,0,0,932.619,533.9c1.215-2.565,9.962,1.757,9.855,2.565-.81,6.074-7.962,13.8-12.336,15.911l-3.21,1.551-.048.021a68.484,68.484,0,0,1-10.46,4.206A1.8,1.8,0,0,1,914.443,557.221Z" transform="translate(-444.149 -478.022)" fill="#e95f5c"/>
      <g id="Grupo_950" data-name="Grupo 950" transform="translate(334.148 8.612)">
        <path id="Trazado_1025" data-name="Trazado 1025" d="M717.345,475.284l9.054-1.237c.939-.129,1.648-1.428,1.648-2.9h0c0-1.47-.709-2.769-1.648-2.9l-9.054-1.237a3.867,3.867,0,0,0-4.135,4.135h0A3.867,3.867,0,0,0,717.345,475.284Z" transform="translate(-682.8 -454.977)" fill="#999"/>
        <path id="Trazado_1026" data-name="Trazado 1026" d="M719.184,467.266l-1.839-.251a4.135,4.135,0,1,0,0,8.269l1.839-.251Z" transform="translate(-682.8 -454.977)" fill="#ccc" style="mix-blend-mode: multiply;isolation: isolate"/>
        <rect id="Rectángulo_1598" data-name="Rectángulo 1598" width="26.539" height="22.807" rx="9.946" transform="translate(33.727 27.576) rotate(180)" fill="url(#linear-gradient-2)"/>
        <rect id="Rectángulo_1599" data-name="Rectángulo 1599" width="16.725" height="27.507" rx="5.039" transform="translate(16.725 29.926) rotate(180)" fill="#999"/>
        <path id="Trazado_1027" data-name="Trazado 1027" d="M679.372,448.587h-2.765v27.507h2.765A2.634,2.634,0,0,0,682,473.468V451.213A2.634,2.634,0,0,0,679.372,448.587Z" transform="translate(-665.273 -446.168)" fill="gray" style="mix-blend-mode: multiply;isolation: isolate"/>
        <rect id="Rectángulo_1600" data-name="Rectángulo 1600" width="4.976" height="32.345" rx="2.488" transform="translate(18.522 32.345) rotate(180)" fill="#bbbdbf"/>
        <g id="Grupo_949" data-name="Grupo 949" transform="translate(19.951 9.515)">
          <path id="Trazado_1028" data-name="Trazado 1028" d="M702.057,463.169h-8.432a.485.485,0,0,1-.484-.484h0a.485.485,0,0,1,.484-.484h8.432a.485.485,0,0,1,.484.484h0A.485.485,0,0,1,702.057,463.169Z" transform="translate(-693.141 -462.202)" fill="#999"/>
          <path id="Trazado_1029" data-name="Trazado 1029" d="M702.057,467.908h-8.432a.485.485,0,0,1-.484-.484h0a.485.485,0,0,1,.484-.484h8.432a.485.485,0,0,1,.484.484h0A.485.485,0,0,1,702.057,467.908Z" transform="translate(-693.141 -464.471)" fill="#999"/>
          <path id="Trazado_1030" data-name="Trazado 1030" d="M702.057,472.647h-8.432a.485.485,0,0,1-.484-.484h0a.485.485,0,0,1,.484-.484h8.432a.485.485,0,0,1,.484.484h0A.485.485,0,0,1,702.057,472.647Z" transform="translate(-693.141 -466.74)" fill="#999"/>
          <path id="Trazado_1031" data-name="Trazado 1031" d="M702.057,477.385h-8.432a.485.485,0,0,1-.484-.484h0a.485.485,0,0,1,.484-.484h8.432a.485.485,0,0,1,.484.484h0A.485.485,0,0,1,702.057,477.385Z" transform="translate(-693.141 -469.009)" fill="#999"/>
          <path id="Trazado_1032" data-name="Trazado 1032" d="M702.057,482.124h-8.432a.485.485,0,0,1-.484-.484h0a.485.485,0,0,1,.484-.484h8.432a.485.485,0,0,1,.484.484h0A.485.485,0,0,1,702.057,482.124Z" transform="translate(-693.141 -471.279)" fill="#999"/>
          <path id="Trazado_1033" data-name="Trazado 1033" d="M702.057,486.863h-8.432a.485.485,0,0,1-.484-.484h0a.485.485,0,0,1,.484-.484h8.432a.485.485,0,0,1,.484.484h0A.485.485,0,0,1,702.057,486.863Z" transform="translate(-693.141 -473.547)" fill="#999"/>
        </g>
      </g>
      <path id="Trazado_1034" data-name="Trazado 1034" d="M776.045,520.612a1.4,1.4,0,0,0,.472-1.144.69.69,0,0,0-.737-.634,1.172,1.172,0,0,0,.274-1.253.866.866,0,0,0-1.019-.573.907.907,0,0,0,.119-.637.885.885,0,0,0-.768-.692c-1.291-.237-2.322.945-2.844,1.963a.2.2,0,0,0,.069.259.169.169,0,0,0,.1.112c1.173.561,1.881,1.936,2.532,3.005.367.6.507,1.339,1.312,1.148C776.608,521.916,776.756,520.806,776.045,520.612Z" transform="translate(-376.573 -469.667)" fill="#f0a5a6"/>
      <path id="Trazado_1035" data-name="Trazado 1035" d="M492.194,504.182c.771-.3.466-.985.425-1.69-.074-1.251-.275-2.783.37-3.912a.169.169,0,0,0,.016-.148.2.2,0,0,0-.091-.253c-1.008-.539-2.53-.924-3.456.006a.884.884,0,0,0-.238,1.006.906.906,0,0,0,.461.456.866.866,0,0,0-.512,1.052,1.17,1.17,0,0,0,.939.874.691.691,0,0,0-.245.941,1.4,1.4,0,0,0,1.04.672C490.429,503.75,491.182,504.578,492.194,504.182Z" transform="translate(-241.357 -461.036)" fill="#f0a5a6"/>
      <path id="Trazado_1036" data-name="Trazado 1036" d="M392.944,502.086a95.546,95.546,0,0,1-12.1-13.336c-.016-.02-.032-.039-.047-.059l-2.72-3.718c-3.153-4.309,1.187-10.718,1.187-10.718,3.041-2.238,7.692-2.447,10.846,1.863l2.72,3.718c.015.02.028.042.042.063a88.506,88.506,0,0,1,7.551,12.509A47.436,47.436,0,0,0,392.944,502.086Z" transform="translate(-187.628 -449.097)" fill="#46acc3"/>
      <path id="Trazado_1037" data-name="Trazado 1037" d="M393.2,516.433l2.211-.072c-.365-2.535-.749-5.027-1.175-7.426a81.926,81.926,0,0,1-27.381-.551q-.538,2.842-.967,6.192C374.6,517.356,384.189,516.742,393.2,516.433Z" transform="translate(-182.338 -466.189)" fill="#fcc14b"/>
      <path id="Trazado_1038" data-name="Trazado 1038" d="M384.857,540.379a42.188,42.188,0,0,0,11.071-2.9c-.24-1.714-.475-3.433-.709-5.148q-1.169.042-2.342.081c-9.373.317-19.453.961-28.583-1.784-.206,2.021-.3,4.118-.35,6.274A38.776,38.776,0,0,0,384.857,540.379Z" transform="translate(-181.409 -476.838)" fill="#fcc14b"/>
      <path id="Trazado_1039" data-name="Trazado 1039" d="M407.325,531.611c-1.424-8.606-2.389-17.95-3.888-26.161q-2.341-.349-4.68-.709c-4.415-.681-8.92-1.8-13.4-2.239,3.5,10,8.375,20.151,16.523,26.719a36.7,36.7,0,0,0,5.678,3.742c-.039-.112-.078-.225-.128-.335A8.37,8.37,0,0,0,407.325,531.611Z" transform="translate(-191.664 -463.372)" fill="#c94545" opacity="0.5" style="mix-blend-mode: multiply;isolation: isolate"/>
      <path id="Trazado_1040" data-name="Trazado 1040" d="M428.413,501.389a.838.838,0,0,0-1-.765c-4.264.851-14.914,1.479-16.924,1.986a5.749,5.749,0,0,1-6.678-3.181,100.454,100.454,0,0,0-10.088-17.808c-.015-.021-.027-.042-.042-.063l-2.72-3.718c-1.907-1.863-5.593-2.257-8.634-.019,0,0-4.7,6.266-3.4,8.874l2.72,3.718c.015.02.031.039.047.059,6.133,8.546,16.392,17.5,20.763,20.613,1.856,3.409,9.5,2.383,15.867-.659,0,0,9.342-4.714,10.327-5.569Z" transform="translate(-188.473 -450.82)" fill="#46acc3"/>
      <path id="Trazado_1041" data-name="Trazado 1041" d="M914.593,441.1a7.288,7.288,0,0,0-.972,1.3c-.417.683-.819.26-1.177,1.038.131.11.126,1.425.255,1.529a8.313,8.313,0,0,1,1.218,1.315c.486-2.859,1.878-.458,2,.436s-.933,2.4-.2,2.374,1.421-2.336,1.421-2.336c-.18-3.779-.954-3.689-1.885-5.057A2.51,2.51,0,0,0,914.593,441.1Z" transform="translate(-444.055 -433.968)" fill="#0c232b"/>
      <path id="Trazado_1042" data-name="Trazado 1042" d="M913.17,447.287c-.215.106-1.156-2.408-1.358-2.388.133.495.9,3.786,1.085,4.5.29,1.115,1,1.176,1.027,1.033.053-.279-.132-.519-.2-.776a7.4,7.4,0,0,1-.08-1.679c0-.084-.18-.825-.147-.841C913.386,447.185,913.277,447.234,913.17,447.287Z" transform="translate(-443.752 -435.789)" fill="#0c232b"/>
      <path id="Trazado_1043" data-name="Trazado 1043" d="M895.4,437.792a6.239,6.239,0,0,0,.936.41H911.2a8.321,8.321,0,0,0-3.495-7.041c-2.86-1.873-7.557-1.936-10.277-.937C895.667,430.871,892.308,436.5,895.4,437.792Z" transform="translate(-435.291 -428.455)" fill="#e95f5c"/>
      <path id="Trazado_1044" data-name="Trazado 1044" d="M887.1,441.359l8.521,0c-.057-.832-1.713-1.237-2.479-1.449l-10.828-3a16.585,16.585,0,0,0-3.669-.725,1.308,1.308,0,0,0-.8.151,1.125,1.125,0,0,0-.251,1.37,2.737,2.737,0,0,0,1.032,1.038c2.365,1.585,4.53,2.759,7.317,2.65A9.783,9.783,0,0,1,887.1,441.359Z" transform="translate(-427.31 -431.612)" fill="#134e75"/>
    </g>
  </g>
</svg>
