<?xml version="1.0" encoding="utf-8"?>
<!-- Generator: Adobe Illustrator 24.0.0, SVG Export Plug-In . SVG Version: 6.00 Build 0)  -->
<svg version="1.1" id="Capa_1" xmlns="http://www.w3.org/2000/svg" xmlns:xlink="http://www.w3.org/1999/xlink" x="0px" y="0px"
	 viewBox="0 0 245 391" style="enable-background:new 0 0 245 391;" xml:space="preserve">
<style type="text/css">
	.st0{display:none;}
	.st1{display:inline;opacity:0.4;fill:#E0E0E0;enable-background:new    ;}
	.st2{fill:#F0F0F0;}
	.st3{fill:#FFFFFF;}
	.st4{fill:#E8505B;}
	.st5{fill:#263238;}
	.st6{fill:#455A64;}
	.st7{fill:#E5BAAB;}
	.st8{opacity:0.2;}
	.st9{fill:#D78776;}
	.st10{fill:#FF4545;}
	.st11{display:none;opacity:0.3;}
	.st12{display:inline;}
	.st13{fill:#E0E0E0;}
</style>
<g id="Background_2">
</g>
<g id="Background_1" class="st0">
	<path class="st1" d="M-150.2,113.2c11.2,88.2,55.3,151,184.5,175.1c71.9,13.4,203-29.4,194.3-107.7
		c-9.6-86.9-100.1-50.5-174.8-78.5C9.2,85.4-14.6-5.8-87.1-0.4C-144.4,3.9-156.2,66-150.2,113.2z"/>
</g>
<g id="Floor">
</g>
<g id="Plant">
</g>
<g id="Device">
</g>
<g id="Character">
	<g>
		<g>
			<g>
				<g>
					<g>
						<g>
							<g>
								<g>
									<path class="st2" d="M171.8,350.5l-111-0.5c-13.3-0.1-24.1-10.9-24.1-24.3L38,47.5c0-13.4,10.9-24.1,24.3-24.1l111,0.5
										c13.3,0.1,24.1,10.9,24.1,24.3l-1.2,278.3C196.1,339.8,185.2,350.6,171.8,350.5z"/>
								</g>
							</g>
							<g>
								<g>
									<path class="st3" d="M173.1,33.5l-21.5-0.1c-2.9,0-5.2,2.4-5.2,5.4v3.9c0,3-2.4,5.5-5.2,5.4L99.1,48
										c-2.9,0-5.2-2.5-5.2-5.5v-3.9c0-3-2.3-5.5-5.2-5.5h-7.6L62.3,33c-9.4,0-17,7.5-17,16.9l-1.1,271.6c0,9.3,7.5,17,16.9,17
										l110.8,0.5c9.4,0,17-7.5,17-16.9L190,50.5C190,41.2,182.4,33.6,173.1,33.5z"/>
								</g>
							</g>
						</g>
					</g>
				</g>
			</g>
			<g>
				<polygon class="st4" points="198.3,19.6 196.3,23.3 192.6,25.3 196.3,27.4 198.3,31.1 200.4,27.4 204.1,25.3 200.4,23.3 				"/>
			</g>
			<g>
				<polygon class="st4" points="24.3,115.3 22.3,119 18.6,121 22.3,123.1 24.3,126.8 26.4,123.1 30.1,121 26.4,119 				"/>
			</g>
			<g>
				<polygon class="st4" points="213.1,35.4 211.9,37.6 209.6,38.9 211.9,40.1 213.1,42.4 214.4,40.1 216.7,38.9 214.4,37.6 				"/>
			</g>
			<g>
				<polygon class="st4" points="13.2,93.9 11.9,96.2 9.7,97.4 11.9,98.7 13.2,101 14.4,98.7 16.7,97.4 14.4,96.2 				"/>
			</g>
		</g>
		<g>
			<g>
				<g>
					<g>
						<g>
							<g>
								<path class="st4" d="M195.7,331l-7.4-5.8l10.7-13.9l10.9,8.4l-0.6,0.9c-2.8,4-14.3,20.1-17,22
									C189.2,344.9,195.7,331,195.7,331z"/>
							</g>
						</g>
					</g>
				</g>
				<g>
					<g>
						<g>
							<g>
								<g>
									<path class="st5" d="M191.3,342.5c-0.1-0.1,3.8-5.3,8.8-11.7c5-6.4,9.2-11.4,9.3-11.3s-3.8,5.3-8.8,11.7
										C195.6,337.5,191.5,342.6,191.3,342.5z"/>
								</g>
							</g>
						</g>
					</g>
				</g>
				<g>
					<g>
						<g>
							<g>
								<g>
									<path class="st5" d="M197,332.5c0,0.2-0.5,0.2-1.1,0.2s-1-0.1-1.1-0.2c0-0.2,0.5-0.4,1.1-0.4S197,332.3,197,332.5z"/>
								</g>
							</g>
						</g>
					</g>
				</g>
				<g>
					<g>
						<g>
							<g>
								<g>
									<path class="st5" d="M196.8,333.7c0,0.2-0.6,0.1-1.2,0.1c-0.6-0.1-1.1-0.2-1.1-0.4c0-0.2,0.5-0.3,1.2-0.2
										C196.3,333.3,196.8,333.6,196.8,333.7z"/>
								</g>
							</g>
						</g>
					</g>
				</g>
				<g>
					<g>
						<g>
							<g>
								<g>
									<path class="st5" d="M206.1,323.6c-0.1,0-0.3-0.3-0.5-0.8s-0.4-1.3-0.4-2.3c0-0.9,0.4-1.7,0.8-2.2c0.4-0.5,0.8-0.6,0.8-0.5
										c0.1,0.1-0.2,0.3-0.5,0.8c-0.3,0.4-0.5,1.2-0.6,2c0,0.8,0.1,1.6,0.2,2.1C206.2,323.2,206.2,323.5,206.1,323.6z"/>
								</g>
							</g>
						</g>
					</g>
				</g>
				<g>
					<g>
						<g>
							<g>
								<g>
									<path class="st5" d="M195.6,331.4c-0.1-0.2,0.2-0.4,0.6-0.7c0.4-0.2,0.8-0.4,0.9-0.3c0.1,0.1-0.1,0.5-0.6,0.8
										C196.1,331.5,195.6,331.6,195.6,331.4z"/>
								</g>
							</g>
						</g>
					</g>
				</g>
				<g>
					<g>
						<g>
							<g>
								<g>
									<path class="st5" d="M195,330.6c-0.1-0.1,0.1-0.6,0.4-1c0.4-0.4,0.8-0.7,0.9-0.6c0.1,0.1-0.1,0.5-0.4,1
										S195.2,330.8,195,330.6z"/>
								</g>
							</g>
						</g>
					</g>
				</g>
			</g>
			<g>
				<g>
					<g>
						<path class="st5" d="M146.9,212c0,0-22,58.3-19,69.2c3,10.9,62.2,54.2,62.2,54.2l16.1-23.1c0,0-46.2-36.6-46.3-38.6
							s18.3-50.5,18.3-50.5L146.9,212z"/>
					</g>
				</g>
				<g>
					<g>
						<g>
							<path class="st6" d="M189.1,317.6c0,0-0.1,0-0.2-0.1c-0.2-0.1-0.3-0.2-0.6-0.4c-0.5-0.4-1.3-0.9-2.2-1.5
								c-1.9-1.3-4.6-3.3-8-5.7c-6.7-4.9-15.7-11.9-25.3-20.2c-2.4-2.1-4.7-4.1-7-6.1c-1.1-1-2.2-2-3.3-2.9c-1.1-1-2.1-1.9-2.8-3.2
								c-0.7-1.3-0.7-2.8-0.4-4.1c0.3-1.3,0.6-2.5,0.9-3.7c0.6-2.4,1.3-4.5,1.8-6.5c1.1-3.9,2.1-7.1,2.7-9.4
								c0.3-1.1,0.5-1.9,0.7-2.6c0.1-0.3,0.1-0.5,0.2-0.7c0-0.1,0.1-0.2,0.1-0.2s0,0.1,0,0.2c0,0.2-0.1,0.4-0.1,0.7
								c-0.1,0.6-0.3,1.5-0.6,2.6c-0.6,2.2-1.5,5.5-2.6,9.5c-0.6,2-1.2,4.2-1.8,6.5c-0.3,1.2-0.6,2.4-0.9,3.7
								c-0.2,1.2-0.3,2.6,0.4,3.7c0.6,1.2,1.7,2.1,2.7,3.1c1.1,1,2.2,1.9,3.3,2.9c2.2,2,4.6,4,7,6c9.6,8.2,18.6,15.3,25.2,20.3
								c3.3,2.5,6,4.5,7.9,5.9c0.9,0.7,1.6,1.2,2.1,1.6c0.2,0.2,0.4,0.3,0.5,0.4C189,317.6,189.1,317.6,189.1,317.6z"/>
						</g>
					</g>
				</g>
				<g>
					<g>
						<g>
							<path class="st6" d="M183.7,324.7c-0.1-0.1,2.9-4.3,6.8-9.4c3.9-5.1,7.1-9.2,7.2-9.1s-2.9,4.3-6.8,9.4
								C187.1,320.7,183.8,324.8,183.7,324.7z"/>
						</g>
					</g>
				</g>
			</g>
			<g>
				<g>
					<path class="st5" d="M185.7,101.1c2,3.9,3,7.3,6.9,9.3c1.8,0.9,3.9,1.4,4.9,3.1c1.2,1.8,0.6,4.5,2.1,6c2.1,2.3,6.4,0.4,8.8,2.5
						c2.1,1.8,1.4,5.7,3.7,7.3c1.3,0.9,3,0.7,4.5,1.3c2.4,0.9,3.5,3.7,3.9,6.3c0.3,2,0.1,4.2-0.8,6c-0.9,1.9-2.7,3.4-4.7,3.6
						c-2.7,0.3-5.8-1.6-8,0c-0.8,0.6-1.2,1.5-1.8,2.2c-1.4,1.7-3.6,2.7-5.8,2.6s-4.3-1.4-5.5-3.3c-1.5-2.5-1.4-6-3.6-8
						c-1.2-1-2.7-1.4-4.2-1.9c-1.4-0.5-2.9-1.4-3.4-2.9c-0.4-1.4-1.3-2.4-2.1-3.6c-1.1-1.7-2.6,0.4-4.1-0.5c-1.5-0.8-0.9-2.4-1-4.1"
						/>
				</g>
			</g>
			<g>
				<g>
					<g>
						<g>
							<path class="st7" d="M159.8,157.7l-19-6.3c0,0-8.4,24.2-11,24.4c-14.2,1.3-29.5-3.4-34.8-5.3c-0.5-0.6-1.2-1.3-1.9-2.2
								c-0.6-0.8-1-1.6-1.3-2.6c-0.4-1.1-0.8-2.6-0.8-3.5c0-1.1-1.3-1.7-1.9-0.9s-0.8,3.8,0.6,7.1s-3.6,0.7-5.4-0.2
								s-7.6-3.5-8.4-3.2c-1.1,0.5-0.7,1.7,1.1,2.6c1.9,0.9,7.2,3.9,6.7,4.8c-0.5,0.9-9.8-3.9-9.8-3.9s-1.8-1.3-2.5-0.3
								c-1.2,1.9,9,6.3,10,6.7c0.7,0.3,0.1,1.3-0.6,1s-9.1-5-10.3-3.1c-0.9,1.5,8.4,3.7,9.6,5.6c1.2,1.9-6.9-2.4-7.7-0.9
								c-0.3,0.5-0.5,1,4.5,2.8c2.4,0.9,7,2,11.1,2.8v0.1c0,0,49.9,22.3,60.7,0.8C160.4,161.3,159.8,157.7,159.8,157.7z"/>
						</g>
					</g>
				</g>
			</g>
			<g>
				<g>
					<g>
						<g>
							<g>
								<path class="st4" d="M178.6,137.7L178.6,137.7l8.3,0.1l6.6,18.9l-5.4,21.6c-1.6,6.3,5.5,19,5.4,25.9l-46.5,7.5l-1-31.1v-1
									l-16.1-8l5.3-13c8.2-19.1,22.4-20.3,22.4-20.3L178.6,137.7z"/>
							</g>
						</g>
					</g>
				</g>
				<g class="st8">
					<g>
						<g>
							<g>
								<path class="st3" d="M178.6,137.7L178.6,137.7l8.3,0.1l6.6,18.9l-5.4,21.6c-1.6,6.3,5.5,19,5.4,25.9l-46.5,7.5l-1-31.1v-1
									l-16.1-8l5.3-13c8.2-19.1,22.4-20.3,22.4-20.3L178.6,137.7z"/>
							</g>
						</g>
					</g>
				</g>
				<g>
					<g>
						<g>
							<path class="st6" d="M187.2,137.9c0,0-0.1,0-0.3,0.1s-0.5,0.1-0.8,0.2c-0.7,0.2-1.8,0.2-3.2,0.3l0.1-0.2
								c0.9,1.4,1.9,3.1,3.2,5.1l0.2,0.3l-0.4-0.1c-1.6-0.3-3.5-0.4-5.6-0.2l0.2-0.2c0.2,2,0.2,4.1,0.9,6.3l0.1,0.4l-0.4-0.1
								c-2-0.5-4.1-1.1-6.1-2.2l0.4-0.2c-0.4,1.9-0.8,3.8-1.2,5.8l-0.1,0.4l-0.3-0.3c-0.8-0.6-1.6-1.4-2.4-2.1
								c-0.7-0.8-1.4-1.5-2.1-2.4h0.4c-1.8,1.4-3.6,2.8-5.3,4.2l-0.3,0.3l-0.1-0.4c-0.4-1.9-0.7-3.7-1.1-5.4l0.3,0.2
								c-2,0.7-3.9,1.4-5.7,2l-0.4,0.1l0.1-0.4c0.6-2.3,1.2-4.3,1.6-6.2l0.1,0.2c-1.9-0.3-3.6-0.6-4.9-0.8h-0.2l0.1-0.2
								c0.9-1.3,1.6-2.4,2.2-3.2c0.2-0.3,0.4-0.6,0.6-0.8c0.1-0.2,0.2-0.3,0.2-0.3s0,0.1-0.2,0.3c-0.1,0.2-0.3,0.5-0.5,0.8
								c-0.5,0.8-1.2,1.9-2.1,3.2l-0.1-0.2c1.4,0.2,3,0.5,5,0.8h0.2v0.2c-0.5,1.8-1,3.9-1.6,6.2l-0.3-0.3c1.8-0.6,3.7-1.3,5.7-2
								l0.3-0.1l0.1,0.3c0.4,1.7,0.7,3.5,1.1,5.4l-0.4-0.2c1.7-1.4,3.5-2.8,5.3-4.2l0.2-0.2l0.2,0.2c0.6,0.8,1.3,1.6,2,2.3
								c0.8,0.8,1.6,1.5,2.3,2.1l-0.4,0.2c0.4-2,0.8-3.9,1.2-5.8l0.1-0.4l0.3,0.2c1.9,1.1,4,1.7,5.9,2.2l-0.3,0.3
								c-0.7-2.2-0.7-4.4-0.9-6.4v-0.2h0.2c2.1-0.2,4-0.1,5.7,0.3l-0.2,0.3c-1.2-2-2.2-3.8-3.1-5.2l-0.1-0.2h0.2
								c1.4,0,2.5-0.1,3.2-0.2C186.9,138,187.2,137.9,187.2,137.9z"/>
						</g>
					</g>
				</g>
				<g>
					<g>
						<g>
							<path class="st6" d="M196.4,145.9c0,0-0.3-0.2-1-0.3c-0.6-0.2-1.7-0.4-2.9,0l0.1-0.1c0.2,1.1,0.5,2.4,0.9,3.9
								s0.9,3.2,1.4,5.1l0.1,0.3l-0.3-0.1c-2.4-0.7-5.2-1.2-8.1-2.2l0.3-0.2c0.3,2.9,0.3,6,0.5,9.4v0.3h-0.3
								c-2.6-0.4-5.2-1.2-7.9-2.1c-0.3-0.1-0.7-0.2-0.8-0.1c-0.2,0.1-0.3,0.5-0.4,0.8c-0.3,0.7-0.5,1.3-0.8,2
								c-0.6,1.3-1.1,2.7-1.7,4.1l-0.2,0.4l-0.3-0.3c-1.7-2.1-3.5-4.3-5.3-6.6l-0.4-0.5l0.4,0.1c-2.9,2-5.8,4-8.6,5.9l-0.3,0.2
								l-0.1-0.3c-1-2.8-1.9-5.5-2.8-8.1l0.4,0.1c-3.2,2.1-6.4,3.6-9.5,4.8l-0.4,0.1l0.1-0.4c0.6-4.3,1.2-8.2,1.6-11.6l0.2,0.2
								c-2.9,1.1-5.5,1.4-7.6,1.2h-0.2l0.1-0.2c0.8-2.1,1.4-3.7,1.8-4.8c0.2-0.5,0.4-0.9,0.5-1.2s0.2-0.4,0.2-0.4s0,0.2-0.1,0.4
								c-0.1,0.3-0.2,0.7-0.4,1.3c-0.4,1.1-1,2.8-1.7,4.9l-0.1-0.2c2.1,0.1,4.7-0.2,7.5-1.3l0.3-0.1v0.3c-0.4,3.4-1,7.3-1.5,11.6
								l-0.3-0.2c3.1-1.2,6.3-2.7,9.4-4.8l0.3-0.2l0.1,0.3c0.9,2.6,1.9,5.3,2.8,8l-0.4-0.1c2.8-1.9,5.6-3.9,8.5-5.9l0.2-0.1l0.2,0.2
								l0.4,0.5c1.8,2.3,3.6,4.5,5.3,6.6l-0.5,0.1c0.6-1.4,1.1-2.8,1.7-4.1c0.3-0.7,0.6-1.3,0.8-2c0.1-0.3,0.2-0.7,0.6-1
								c0.1-0.1,0.2-0.1,0.4-0.2c0.1,0,0.2,0,0.3,0c0.2,0,0.4,0.1,0.5,0.1c2.7,0.9,5.2,1.7,7.8,2.1l-0.3,0.2
								c-0.2-3.4-0.1-6.5-0.4-9.4V152l0.3,0.1c2.9,1,5.7,1.6,8.1,2.3l-0.2,0.2c-0.4-1.9-0.9-3.6-1.3-5.1c-0.4-1.5-0.7-2.9-0.8-4
								v-0.1h0.1c1.3-0.3,2.4-0.1,3,0.1C196.1,145.6,196.4,145.9,196.4,145.9z"/>
						</g>
					</g>
				</g>
				<g>
					<g>
						<g>
							<g>
								<g>
									<path class="st6" d="M146.3,179.5c0,0-0.4-0.1-1-0.5s-1.4-1.1-2.1-2.2c-0.7-1.1-1.2-2.7-1.1-4.4c0.1-1.7,0.6-3.7,1.8-5.3
										c0.9-1.3,2.1-2.3,3.3-2.9l-0.1,0.2c0.4-2.9,0.7-5.3,1-7s0.5-2.8,0.5-2.7c0.1,0,0,1-0.2,2.8c-0.2,1.7-0.5,4.2-0.8,7.1v0.1
										l-0.1,0.1c-1.1,0.6-2.2,1.6-3.1,2.8c-1.1,1.6-1.7,3.4-1.8,5c-0.2,1.7,0.3,3.1,0.9,4.2c0.6,1.1,1.4,1.8,2,2.2
										C145.9,179.3,146.3,179.5,146.3,179.5z"/>
								</g>
							</g>
						</g>
					</g>
				</g>
				<g>
					<g>
						<g>
							<g>
								<g>
									<path class="st6" d="M148,158.6c-0.1,0.1-0.6-0.6-1-1.5s-0.7-1.7-0.5-1.7c0.1-0.1,0.6,0.6,1,1.5
										C147.9,157.7,148.1,158.5,148,158.6z"/>
								</g>
							</g>
						</g>
					</g>
				</g>
			</g>
			<g>
				<g>
					<g>
						<g>
							<path class="st7" d="M178.1,138l1.4-32.7l-13-9.8l-11.8,5.8c0,0-0.4,14.8,0,21.2c0.4,6.4,6.9,7.1,6.9,7.1s-0.2,3.8-0.3,7.7
								c-0.2,4.8,3.7,8.8,8.5,8.7l0,0C174.2,146,177.9,142.5,178.1,138z"/>
						</g>
					</g>
				</g>
			</g>
			<g>
				<g>
					<g>
						<g>
							<g>
								<path class="st5" d="M156,112.1c0,0.5,0.4,0.8,0.8,0.8c0.5,0,0.8-0.4,0.8-0.8c0-0.5-0.4-0.8-0.8-0.8
									C156.4,111.2,156,111.6,156,112.1z"/>
							</g>
						</g>
					</g>
				</g>
				<g>
					<g>
						<g>
							<g>
								<g>
									<path class="st5" d="M155.2,111.2c0.1,0.1,0.7-0.4,1.6-0.5c0.9-0.1,1.5,0.4,1.6,0.3c0-0.1-0.1-0.2-0.4-0.4
										c-0.3-0.2-0.8-0.4-1.3-0.3c-0.6,0-1,0.3-1.3,0.5C155.2,110.9,155.1,111.1,155.2,111.2z"/>
								</g>
							</g>
						</g>
					</g>
				</g>
			</g>
			<g>
				<g>
					<g>
						<g>
							<g>
								<path class="st5" d="M165.5,112.1c0,0.5,0.4,0.8,0.8,0.8c0.5,0,0.8-0.4,0.8-0.8c0-0.5-0.4-0.8-0.8-0.8
									C165.9,111.2,165.5,111.6,165.5,112.1z"/>
							</g>
						</g>
					</g>
				</g>
				<g>
					<g>
						<g>
							<g>
								<g>
									<path class="st5" d="M165,111.2c0.1,0.1,0.7-0.4,1.6-0.5c0.9-0.1,1.5,0.4,1.6,0.3c0-0.1-0.1-0.2-0.4-0.4
										c-0.3-0.2-0.8-0.4-1.3-0.3c-0.6,0-1,0.3-1.3,0.5C165,110.9,165,111.1,165,111.2z"/>
								</g>
							</g>
						</g>
					</g>
				</g>
			</g>
			<g>
				<g>
					<g>
						<g>
							<path class="st3" d="M164.7,119.5c-1.1,0.5-3.1,1.3-4.3,1.5c0,0,1.1,1.6,2.9,0.8C165.3,121,164.7,119.5,164.7,119.5z"/>
						</g>
					</g>
				</g>
			</g>
			<g>
				<g>
					<g>
						<g>
							<path class="st9" d="M161.6,129.6c0,0,4.3,0,8.5-2.9c0,0-1.9,4.7-8.4,4.4L161.6,129.6z"/>
						</g>
					</g>
				</g>
			</g>
			<g>
				<g>
					<g>
						<g>
							<path class="st5" d="M198.2,123.8c-0.6,0-1.4-0.1-2.3-0.5c-0.9-0.4-1.8-1.3-2.5-2.5s-1.3-2.6-1.9-4.1c-1.2-3-2.1-5.8-2.7-7.8
								c-0.1-0.3-0.2-0.6-0.3-0.9s-0.1-0.7-0.2-0.9c-3.5-13.4-15.3-15.9-17.6-15.9c-2.5,0-6.9-1.4-13.2,5.2
								c-1.1,1.1-1.8,2.2-2.4,3.3c-1.6,2.1-2.5,4.3-2.8,6c-0.4,2-0.2,3.2-0.1,3.2c0.1,0,0.1-1.2,0.6-3.1c0.2-0.9,0.6-2,1.2-3.2
								c-0.9,4.1,0.7,7.4,0.7,7.4l2.3-0.6l8.2-2.8c-0.7-2.5,0.4-5.7,1-7.1l0.1-0.1c1.9,9.6,10.8,10.5,10.8,10.5l1.5,21
								c10.9-2.3,10.6-16.9,10.6-19.8c0.5,1.7,1.1,3.6,1.9,5.6c0.6,1.5,1.2,2.9,2,4.1s1.8,2.1,2.8,2.5c1,0.5,1.9,0.5,2.5,0.4
								s0.9-0.3,0.9-0.3C199.1,123.6,198.7,123.8,198.2,123.8z"/>
						</g>
					</g>
				</g>
			</g>
			<g>
				<g>
					<g>
						<g>
							<g>
								<path class="st5" d="M161.8,118.6c0,0-0.6-0.1-1.4-0.2c-0.2,0-0.4,0-0.5-0.2s0-0.4,0.1-0.7c0.2-0.6,0.4-1.2,0.6-1.8
									c0.4-1.3,0.8-2.5,1-3.4s0.4-1.4,0.3-1.4c0,0-0.3,0.5-0.6,1.3s-0.7,2-1.1,3.3c-0.2,0.6-0.4,1.3-0.6,1.8
									c-0.1,0.3-0.2,0.6-0.1,0.9c0.1,0.2,0.2,0.3,0.4,0.3c0.1,0,0.3,0,0.4,0C161.3,118.7,161.8,118.7,161.8,118.6z"/>
							</g>
						</g>
					</g>
				</g>
			</g>
			<g>
				<g>
					<g>
						<g>
							<g>
								<path class="st7" d="M180.2,118.4c0-1.1,0-2.2,0.3-3.2c0.4-1,1.2-1.9,2.3-2c1.2-0.1,2.4,0.9,2.6,2.1
									c0.2,1.2-0.5,2.5-1.6,3.1S181.4,119,180.2,118.4"/>
							</g>
						</g>
					</g>
				</g>
				<g>
					<g>
						<g>
							<g>
								<g>
									<path class="st9" d="M182,117.4c0-0.1,0.3,0.1,0.8-0.1c0.5-0.1,0.9-0.6,1-1.4c0-0.4-0.1-0.7-0.2-0.9
										c-0.2-0.2-0.5-0.2-0.7-0.2c-0.5,0-0.8,0.2-0.8,0.1s0.2-0.3,0.8-0.5c0.3-0.1,0.7-0.1,1.1,0.2c0.4,0.3,0.5,0.8,0.4,1.3
										c0,0.5-0.2,0.9-0.5,1.2c-0.3,0.3-0.6,0.5-0.9,0.5C182.3,117.8,182,117.5,182,117.4z"/>
								</g>
							</g>
						</g>
					</g>
				</g>
			</g>
			<g>
				<g>
					<g>
						<g>
							<g>
								<path class="st4" d="M172.2,372.8v-9.4l17.5-0.1l0.1,13.7l-1.1,0.1c-4.8,0.3-24.6,1.2-27.9,0.2
									C157.3,376.3,172.2,372.8,172.2,372.8z"/>
							</g>
						</g>
					</g>
				</g>
				<g>
					<g>
						<g>
							<g>
								<g>
									<path class="st5" d="M160.5,376.5c0-0.2,6.6-0.3,14.6-0.3c8.1,0,14.6,0.1,14.6,0.3c0,0.2-6.6,0.3-14.6,0.3
										S160.5,376.6,160.5,376.5z"/>
								</g>
							</g>
						</g>
					</g>
				</g>
				<g>
					<g>
						<g>
							<g>
								<g>
									<path class="st5" d="M171.9,374.7c-0.1,0.1-0.5-0.3-0.8-0.7c-0.3-0.4-0.6-0.9-0.5-1s0.6,0.1,0.9,0.6
										C171.9,374.1,172,374.7,171.9,374.7z"/>
								</g>
							</g>
						</g>
					</g>
				</g>
				<g>
					<g>
						<g>
							<g>
								<g>
									<path class="st5" d="M170.8,375.3c-0.2,0.1-0.5-0.4-0.8-0.9s-0.5-1-0.4-1.1s0.6,0.2,0.9,0.8
										C170.8,374.7,170.9,375.3,170.8,375.3z"/>
								</g>
							</g>
						</g>
					</g>
				</g>
				<g>
					<g>
						<g>
							<g>
								<g>
									<path class="st5" d="M184.5,376.4c-0.1,0,0.1-0.4,0.4-0.9c0.3-0.5,0.8-1.2,1.5-1.7c0.8-0.6,1.6-0.8,2.2-0.7
										c0.6,0,0.9,0.3,0.9,0.3c0,0.1-0.4,0-0.9,0.1s-1.2,0.3-1.9,0.8s-1.2,1.1-1.6,1.5C184.9,376.2,184.6,376.5,184.5,376.4z"/>
								</g>
							</g>
						</g>
					</g>
				</g>
				<g>
					<g>
						<g>
							<g>
								<g>
									<path class="st5" d="M171.8,373c0.1-0.1,0.5-0.1,0.9,0.1s0.8,0.3,0.8,0.5s-0.5,0.2-1,0.1
										C172.1,373.4,171.7,373.1,171.8,373z"/>
								</g>
							</g>
						</g>
					</g>
				</g>
				<g>
					<g>
						<g>
							<g>
								<g>
									<path class="st5" d="M172.1,372.1c0-0.2,0.5-0.3,1.1-0.3s1,0.1,1,0.3c0,0.2-0.5,0.3-1.1,0.3
										C172.6,372.4,172.1,372.2,172.1,372.1z"/>
								</g>
							</g>
						</g>
					</g>
				</g>
			</g>
			<g>
				<g>
					<g>
						<g>
							<g>
								<path class="st6" d="M156.5,210.4l-9.6,1.6l5.5,6.8c1.6,32,1.2,63.1,2.7,78.5c0.2,2.3,10.1,76,9.2,74.3l29.2,1.2l-8.7-74
									l4.1-65.7c4.5-7.8,5.8-17,3.7-25.7l-0.7-3"/>
							</g>
						</g>
					</g>
				</g>
			</g>
			<g>
				<g>
					<g>
						<g>
							<path class="st10" d="M200,271.7L69.4,233.6c-4.1-1.2-6.5-5.5-5.3-9.6l23.2-79.8c1.2-4.1,5.5-6.5,9.6-5.3L227.6,177
								c4.1,1.2,6.5,5.5,5.3,9.6l-23.2,79.8C208.5,270.6,204.2,272.9,200,271.7z"/>
						</g>
					</g>
					<g class="st11">
						<g class="st12">
							<path d="M200,271.7L69.4,233.6c-4.1-1.2-6.5-5.5-5.3-9.6l23.2-79.8c1.2-4.1,5.5-6.5,9.6-5.3L227.6,177
								c4.1,1.2,6.5,5.5,5.3,9.6l-23.2,79.8C208.5,270.6,204.2,272.9,200,271.7z"/>
						</g>
					</g>
				</g>
				<g>
					<g>
						<path class="st3" d="M207.2,195c-1.6,5.5-7.4,8.7-13,7.1c-5.5-1.6-8.7-7.4-7.1-13c1.6-5.5,7.4-8.7,13-7.1
							C205.7,183.7,208.8,189.5,207.2,195z"/>
					</g>
				</g>
				<g>
					<g>
						<path class="st3" d="M209.3,206.6c-1,0-2.1-0.1-3.1-0.4c-2.8-0.8-5.1-2.7-6.6-5.3c-1.4-2.6-1.7-5.5-0.9-8.4
							c0.8-2.8,2.7-5.1,5.3-6.6c2.6-1.4,5.5-1.7,8.4-0.9c5.8,1.7,9.2,7.8,7.5,13.6c-0.8,2.8-2.7,5.1-5.3,6.6
							C212.9,206.1,211.1,206.6,209.3,206.6z M209.3,185.7c-1.7,0-3.3,0.4-4.8,1.2c-2.3,1.3-4,3.4-4.8,5.9c-0.7,2.6-0.4,5.2,0.8,7.6
							c1.3,2.3,3.4,4,5.9,4.8c2.6,0.7,5.2,0.5,7.6-0.8c2.3-1.3,4-3.4,4.8-5.9c1.5-5.3-1.5-10.8-6.8-12.3
							C211.1,185.8,210.2,185.7,209.3,185.7z"/>
					</g>
				</g>
				<g>
					<g>
						<path class="st3" d="M84.8,201.1l-2.4,8.1l-0.8-0.2l2.1-7.3l-1.9-0.6l0.2-0.7L84.8,201.1z"/>
					</g>
					<g>
						<path class="st3" d="M91,210.9l-0.2,0.7l-5.7-1.7l0.2-0.6l4.3-2.3c1.2-0.6,1.5-1.1,1.7-1.7c0.3-0.9-0.2-1.7-1.5-2.1
							c-0.9-0.3-1.8-0.2-2.5,0.3l-0.4-0.7c0.8-0.6,2-0.7,3.2-0.3c1.6,0.5,2.4,1.6,2,3c-0.2,0.8-0.7,1.4-2.1,2.1l-3.5,1.9L91,210.9z"
							/>
					</g>
					<g>
						<path class="st3" d="M99.9,212l-1.6-0.5l-0.6,2.1l-0.8-0.2l0.6-2.1l-4.6-1.3l0.2-0.6l5.8-4.1l0.9,0.3l-5.7,4l3.5,1l0.5-1.9
							l0.8,0.2l-0.5,1.9l1.6,0.5L99.9,212z"/>
					</g>
					<g>
						<path class="st3" d="M112.2,215.6l-1.6-0.5l-0.6,2.1l-0.8-0.2l0.6-2.1l-4.6-1.3l0.2-0.6l5.8-4.1l0.9,0.3l-5.7,4l3.5,1l0.5-1.9
							l0.8,0.2l-0.5,1.9l1.6,0.5L112.2,215.6z"/>
					</g>
					<g>
						<path class="st3" d="M119.4,217.4c-0.4,1.4-1.7,2.2-3.6,1.6c-1.2-0.3-2.2-1.1-2.6-1.9l0.6-0.5c0.4,0.7,1.2,1.4,2.2,1.7
							c1.4,0.4,2.3-0.1,2.6-1c0.3-1-0.2-1.9-2.2-2.5l-1.7-0.5l1.6-3.9l4.4,1.3l-0.2,0.7l-3.7-1.1l-1,2.5l1,0.3
							C119.2,214.7,119.8,215.9,119.4,217.4z"/>
					</g>
					<g>
						<path class="st3" d="M127.4,219.7c-0.4,1.5-1.9,2.1-3.5,1.7c-2.1-0.6-2.9-2.5-2.1-5c0.8-2.7,2.7-3.7,4.9-3.1
							c0.7,0.2,1.4,0.5,1.8,1l-0.5,0.6c-0.3-0.4-0.9-0.7-1.5-0.8c-1.7-0.5-3.2,0.3-3.8,2.5c-0.1,0.2-0.1,0.4-0.2,0.7
							c0.7-0.8,1.8-1,2.9-0.7C127,216.9,127.8,218.2,127.4,219.7z M126.6,219.4c0.3-1.1-0.3-2-1.5-2.3c-1.2-0.4-2.3,0.2-2.6,1.2
							c-0.3,0.9,0.2,1.9,1.6,2.4C125.2,221,126.2,220.5,126.6,219.4z"/>
					</g>
					<g>
						<path class="st3" d="M138.4,223c-0.4,1.4-1.7,2.1-3.6,1.5c-1.2-0.3-2.2-1.1-2.6-1.9l0.6-0.5c0.4,0.7,1.2,1.4,2.2,1.7
							c1.3,0.4,2.3,0,2.6-1s-0.2-1.8-1.7-2.2l-0.6-0.2l0.2-0.6l3.1-2.2l-4.1-1.2l0.2-0.7l5.2,1.5l-0.2,0.6l-3.1,2.2
							C138.2,220.5,138.8,221.7,138.4,223z"/>
					</g>
					<g>
						<path class="st3" d="M146.5,225.2c-0.4,1.5-1.9,2.1-3.5,1.7c-2.1-0.6-2.9-2.5-2.1-5c0.8-2.7,2.7-3.7,4.9-3.1
							c0.7,0.2,1.4,0.5,1.8,1l-0.5,0.6c-0.3-0.4-0.9-0.7-1.5-0.8c-1.7-0.5-3.2,0.3-3.8,2.5c-0.1,0.2-0.1,0.4-0.2,0.7
							c0.7-0.8,1.8-1,2.9-0.7C146.1,222.5,147,223.8,146.5,225.2z M145.7,225c0.3-1.1-0.3-2-1.5-2.3c-1.2-0.4-2.3,0.2-2.6,1.2
							c-0.3,0.9,0.2,1.9,1.6,2.4C144.4,226.5,145.4,226.1,145.7,225z"/>
					</g>
					<g>
						<path class="st3" d="M155.6,221.7l-0.2,0.6l-5.6,6.5l-0.9-0.3l5.5-6.4l-4.2-1.2l-0.4,1.5l-0.8-0.2l0.7-2.3L155.6,221.7z"/>
					</g>
					<g>
						<path class="st3" d="M167.2,225.1l-0.2,0.6l-5.6,6.5l-0.9-0.3l5.5-6.4l-4.2-1.2l-0.4,1.5l-0.8-0.2l0.7-2.3L167.2,225.1z"/>
					</g>
					<g>
						<path class="st3" d="M173.4,233.3c-0.4,1.4-1.9,2-3.8,1.4c-1.9-0.6-2.9-1.8-2.4-3.2c0.3-1,1-1.5,2.1-1.5
							c-0.7-0.6-1-1.3-0.8-2.1c0.4-1.3,1.7-1.8,3.4-1.3s2.6,1.7,2.2,3c-0.2,0.8-0.9,1.3-1.8,1.4
							C173.3,231.4,173.7,232.3,173.4,233.3z M172.6,233c0.3-1-0.4-1.9-1.8-2.3c-1.4-0.4-2.5,0-2.7,1c-0.3,1,0.4,1.9,1.8,2.3
							C171.2,234.4,172.3,234,172.6,233z M171,230.1c1.3,0.4,2.2,0,2.4-0.9c0.3-0.9-0.4-1.7-1.6-2.1c-1.2-0.4-2.2,0-2.4,0.9
							C169.1,228.9,169.7,229.7,171,230.1z"/>
					</g>
					<g>
						<path class="st3" d="M181.8,233.7c-0.8,2.7-2.7,3.7-4.9,3.1c-0.7-0.2-1.4-0.5-1.8-1l0.5-0.6c0.3,0.4,0.9,0.7,1.5,0.8
							c1.7,0.5,3.2-0.3,3.8-2.5c0.1-0.2,0.1-0.4,0.2-0.7c-0.7,0.8-1.8,1-2.9,0.7c-1.6-0.5-2.4-1.7-2-3.2s1.9-2.1,3.5-1.7
							C181.8,229.3,182.6,231.1,181.8,233.7z M181.1,231.7c0.3-0.9-0.2-1.9-1.6-2.4c-1.2-0.3-2.2,0.1-2.5,1.2
							c-0.3,1.1,0.3,2,1.5,2.3C179.8,233.3,180.8,232.8,181.1,231.7z"/>
					</g>
					<g>
						<path class="st3" d="M191.2,232.1l-2.4,8.1L188,240l2.1-7.3l-1.9-0.6l0.2-0.7L191.2,232.1z"/>
					</g>
					<g>
						<path class="st3" d="M197.3,241.9l-0.2,0.7l-5.7-1.7l0.2-0.6l4.3-2.3c1.2-0.6,1.5-1.1,1.7-1.7c0.3-0.9-0.2-1.7-1.5-2.1
							c-0.9-0.3-1.8-0.2-2.5,0.3l-0.4-0.7c0.8-0.6,2-0.7,3.2-0.3c1.6,0.5,2.4,1.6,2,3c-0.2,0.8-0.7,1.4-2.1,2.1l-3.5,1.9
							L197.3,241.9z"/>
					</g>
					<g>
						<path class="st3" d="M205,242.4c-0.4,1.4-1.7,2.1-3.6,1.5c-1.2-0.3-2.2-1.1-2.6-1.9l0.6-0.5c0.4,0.7,1.2,1.4,2.2,1.7
							c1.3,0.4,2.3,0,2.6-1s-0.2-1.8-1.7-2.2l-0.6-0.2l0.2-0.6l3.1-2.2l-4.1-1.2l0.2-0.7l5.2,1.5l-0.2,0.6l-3.1,2.2
							C204.8,239.9,205.4,241.1,205,242.4z"/>
					</g>
				</g>
				<g>
					<g>
						
							<rect x="170.5" y="210.1" transform="matrix(0.2797 -0.9601 0.9601 0.2797 -109.8803 341.1052)" class="st3" width="3.7" height="67.4"/>
					</g>
				</g>
				<g>
					<g>
						
							<rect x="184.3" y="238.1" transform="matrix(0.2797 -0.9601 0.9601 0.2797 -111.1523 362.6357)" class="st3" width="3.7" height="34.6"/>
					</g>
				</g>
				<g>
					<g>
						<path class="st5" d="M104.3,199.3l-17.6-5.1c-2.6-0.8-4.1-3.5-3.4-6.2l3.1-10.8c0.8-2.6,3.5-4.1,6.2-3.4l17.6,5.1
							c2.6,0.8,4.1,3.5,3.4,6.2l-3.1,10.8C109.7,198.5,106.9,200,104.3,199.3z"/>
					</g>
				</g>
				<g>
					<g>
						<path class="st3" d="M83.5,187.1l0.4-1.3l14,4.1c1.6,0.5,3.3-0.5,3.8-2.1s-0.5-3.3-2.1-3.8l-14-4.1l0.4-1.3l14,4.1
							c2.3,0.7,3.7,3.1,3,5.5c-0.7,2.3-3.1,3.7-5.5,3L83.5,187.1z"/>
					</g>
				</g>
				<g>
					<g>
						
							<rect x="106.4" y="184.4" transform="matrix(0.2807 -0.9598 0.9598 0.2807 -104.7578 239.0234)" class="st3" width="1.4" height="10"/>
					</g>
				</g>
				<g>
					<g>
						
							<rect x="126.8" y="133.4" transform="matrix(0.2798 -0.9601 0.9601 0.2798 -69.4626 246.9524)" class="st3" width="6.2" height="72.7"/>
					</g>
				</g>
			</g>
			<g>
				<g>
					<path class="st5" d="M176.7,94.7c-1.5-0.6-2.6-1.8-3-3.3s0.1-3.2,1.3-4.2s3-1.2,4.4-0.4c1.1,0.7,1.7,1.8,2.2,3
						c0.3,0.8,0.5,1.7,0.3,2.5c-0.3,1.2-1.5,2.1-2.7,2.4s-2.5,0.2-3.8,0.1"/>
				</g>
			</g>
			<g>
				<g>
					<g>
						<path class="st5" d="M202.4,112.6c-0.1,0,0.2-0.5,0.1-1.3c-0.1-0.4-0.3-0.9-0.7-1.3s-1-0.8-1.7-1s-1.6-0.2-2.5-0.2
							c-0.9,0.1-1.9,0.2-2.9,0.2s-2.2-0.1-3.3-0.8c-1.1-0.7-1.6-1.9-1.9-3c-0.7-2.3-1.9-4.2-3.2-5.7s-2.8-2.7-4.1-3.5
							c-2.7-1.6-4.7-1.8-4.6-1.9c0,0,0.1,0,0.4,0c0.2,0,0.6,0.1,1,0.2c0.9,0.2,2.1,0.6,3.5,1.4s2.9,1.9,4.3,3.5
							c1.4,1.6,2.6,3.6,3.3,5.9c0.4,1.1,0.8,2.2,1.7,2.7c0.9,0.6,2,0.7,3,0.7s2-0.2,2.9-0.2s1.8,0,2.6,0.3c0.8,0.2,1.4,0.7,1.8,1.2
							c0.4,0.5,0.6,1,0.7,1.5c0.1,0.5,0,0.8-0.1,1C202.5,112.5,202.4,112.6,202.4,112.6z"/>
					</g>
				</g>
			</g>
			<g>
				<g>
					<g>
						<path class="st13" d="M184,118.3c0,0,0.5,0.3,0.5,1.2c0,0.4-0.2,0.9-0.6,1.3c-0.4,0.4-1.1,0.6-1.7,0.5
							c-0.7-0.1-1.2-0.6-1.5-1.1s-0.3-1.1-0.1-1.5c0.3-0.8,0.8-1,0.8-1c0.1,0.1-0.3,0.4-0.5,1.1c-0.1,0.3,0,0.8,0.2,1.1
							c0.2,0.4,0.6,0.7,1.1,0.8c0.5,0.1,1-0.1,1.3-0.4s0.5-0.7,0.6-1C184.2,118.8,183.9,118.3,184,118.3z"/>
					</g>
				</g>
			</g>
			<g>
				<g>
					<g>
						<path class="st4" d="M181.4,96c-0.1,0.1-1.4-1.5-3.6-2.7c-2.2-1.2-4.3-1.3-4.2-1.5c0-0.1,2.2-0.2,4.5,1
							C180.3,94.1,181.5,95.9,181.4,96z"/>
					</g>
				</g>
			</g>
			<g>
				<g>
					<g>
						<path class="st13" d="M185.1,117.1c0-0.1,0.3-0.1,0.5,0.2c0.1,0.2,0.1,0.4,0,0.6c-0.1,0.3-0.4,0.4-0.7,0.4s-0.6-0.1-0.7-0.3
							c-0.1-0.2-0.2-0.4-0.2-0.6c0-0.3,0.2-0.5,0.3-0.4c0.1,0,0,0.2,0.1,0.4c0.1,0.2,0.2,0.4,0.5,0.4s0.3-0.2,0.3-0.4
							C185.2,117.3,185.1,117.2,185.1,117.1z"/>
					</g>
				</g>
			</g>
			<g>
				<g>
					<g>
						<path class="st6" d="M178.3,137c0,0,0.1,0.4,0.1,1.1c0,0.7-0.1,1.7-0.6,2.9s-1.3,2.5-2.6,3.6s-3.1,1.8-5,1.9
							c-1.9,0.1-3.8-0.4-5.2-1.3c-1.4-0.9-2.4-2.1-3-3.2c-0.6-1.1-0.8-2.1-0.9-2.8c-0.1-0.7,0-1.1,0-1.1c0.1,0,0.1,1.6,1.3,3.7
							c0.6,1,1.6,2.2,2.9,3c1.3,0.8,3.1,1.3,4.9,1.2c1.8-0.1,3.5-0.8,4.8-1.8c1.2-1,2.1-2.2,2.5-3.3
							C178.4,138.6,178.1,137,178.3,137z"/>
					</g>
				</g>
			</g>
			<g>
				<g>
					<g>
						<path class="st5" d="M176.2,366.2c0,0,0-0.1-0.1-0.3c0-0.2-0.1-0.5-0.1-0.8c-0.1-0.7-0.2-1.8-0.4-3.1
							c-0.3-2.7-0.8-6.5-1.3-11.3c-1.1-9.6-2.4-22.8-3.6-37.4c-1.2-14.6-2-27.9-2.5-37.5c-0.2-4.8-0.4-8.7-0.5-11.4
							c0-1.3-0.1-2.3-0.1-3.1c0-0.3,0-0.6,0-0.8c0-0.2,0-0.3,0-0.3s0,0.1,0,0.3c0,0.2,0,0.5,0.1,0.8c0,0.7,0.1,1.8,0.2,3.1
							c0.2,2.7,0.4,6.6,0.7,11.4c0.6,9.6,1.5,22.9,2.6,37.5c1.2,14.6,2.4,27.9,3.4,37.4c0.5,4.8,0.9,8.6,1.2,11.3
							c0.1,1.3,0.2,2.3,0.3,3.1c0,0.3,0,0.6,0.1,0.8C176.2,366.1,176.2,366.2,176.2,366.2z"/>
					</g>
				</g>
			</g>
			<g>
				<g>
					<g>
						<path class="st5" d="M192.5,366.2c0,0-0.4,0.1-1.1,0.2c-0.7,0.1-1.8,0.1-3.1,0.2c-2.6,0.1-6.2,0.2-10.1,0.1
							c-4-0.1-7.5-0.2-10.1-0.3c-1.2-0.1-2.2-0.1-3.1-0.1c-0.7,0-1.1-0.1-1.1-0.1s0.4-0.1,1.1-0.1c0.7,0,1.8,0,3.1,0
							c2.6,0,6.2,0.1,10.1,0.1c3.9,0.1,7.5,0.1,10.1,0c1.2,0,2.2,0,3.1,0C192.1,366.2,192.5,366.2,192.5,366.2z"/>
					</g>
				</g>
			</g>
			<g>
				<g>
					<g>
						<g>
							<path class="st7" d="M198.2,170.9L181,159.6c0,0-8.4,24.2-11,24.4c-14.2,1.3-29.5-3.4-34.8-5.3c-0.5-0.6-1.2-1.3-1.9-2.2
								c-0.6-0.8-1-1.6-1.3-2.6c-0.4-1.1-0.8-2.6-0.8-3.5c0-1.1-1.3-1.7-1.9-0.9c-0.6,0.8-0.8,3.8,0.6,7.1c1.4,3.3-3.6,0.7-5.4-0.2
								s-7.6-3.5-8.4-3.2c-1.1,0.5-0.7,1.7,1.1,2.6c1.9,0.9,7.2,3.9,6.7,4.8c-0.5,0.9-9.8-3.9-9.8-3.9s-1.8-1.3-2.5-0.3
								c-1.2,1.9,9,6.3,10,6.7c0.7,0.3,0.1,1.3-0.6,1s-9.1-5-10.3-3.1c-0.9,1.5,8.4,3.7,9.6,5.6c1.2,1.9-6.9-2.4-7.7-0.9
								c-0.3,0.5-0.5,1,4.5,2.8c2.4,0.9,7,2,11.1,2.8v0.1c0,0,51.1,22.9,60.7,0.8C199.4,168.9,198.2,170.9,198.2,170.9z"/>
						</g>
					</g>
				</g>
			</g>
			<g>
				<g>
					<g>
						<g>
							<g>
								<path class="st4" d="M186.9,137.9c0,0,15.6,1.8,14,20.4c-1.7,18.9-9.5,32.9-9.5,32.9l-20.5-10.7c4.6-9.3,8.1-18.9,10.3-28.9
									L186.9,137.9L186.9,137.9z"/>
							</g>
						</g>
					</g>
				</g>
			</g>
			<g class="st8">
				<g>
					<g>
						<g>
							<g>
								<path class="st3" d="M186.9,137.9c0,0,15.6,1.8,14,20.4c-1.7,18.9-9.5,32.9-9.5,32.9l-20.5-10.7c4.6-9.3,8.1-18.9,10.3-28.9
									L186.9,137.9L186.9,137.9z"/>
							</g>
						</g>
					</g>
				</g>
			</g>
			<g>
				<g>
					<g>
						<path class="st6" d="M187.2,137.9c0,0.1-1.7,0.6-4.3,0.8l0.2-0.4c0.6,1,1.2,2,1.9,3.1c0.4,0.7,0.8,1.4,1.2,2l0.3,0.5l-0.6-0.1
							c-3.2-0.6-5.6-0.3-5.6-0.5c0-0.1,0.6-0.2,1.6-0.3s2.4-0.1,4.1,0.2l-0.3,0.4c-0.4-0.6-0.8-1.3-1.2-2c-0.7-1.1-1.3-2.2-1.9-3.2
							l-0.2-0.3h0.4c1.3-0.1,2.4-0.1,3.1-0.2C186.8,138,187.2,137.9,187.2,137.9z"/>
					</g>
				</g>
			</g>
			<g>
				<g>
					<g>
						<path class="st6" d="M196.4,145.9c0,0.1-1.5-0.3-3.9-0.3l0.2-0.2c0.6,2.3,1.4,5.5,2.3,9.1l0.1,0.4l-0.4-0.1
							c-2-0.5-4.1-1.1-6.4-1.7c-0.6-0.2-1.2-0.3-1.7-0.5l0.3-0.3c0.1,3.4,0.3,6.6,0.4,9.4v0.3l-0.3-0.1c-2.5-0.7-4.5-1.3-6.1-1.7
							c-0.7-0.2-1.2-0.4-1.7-0.5c-0.4-0.1-0.6-0.2-0.6-0.2s0.2,0,0.6,0.1c0.5,0.1,1,0.2,1.7,0.4c1.6,0.4,3.7,0.9,6.1,1.5l-0.3,0.2
							c-0.1-2.7-0.3-5.9-0.5-9.4v-0.4l0.4,0.1c0.6,0.2,1.1,0.3,1.7,0.5c2.2,0.6,4.4,1.2,6.3,1.8l-0.3,0.3c-0.8-3.6-1.6-6.8-2.1-9.1
							v-0.2h0.2c1.3,0.1,2.2,0.2,2.9,0.4C196.1,145.7,196.4,145.8,196.4,145.9z"/>
					</g>
				</g>
			</g>
			<g>
				<g>
					<g>
						<path class="st6" d="M197.7,171.2c0,0-0.3-0.2-0.7-0.7s-0.9-1.4-1.5-2.4h0.3c-1.2,2.3-3,5.5-5.7,9l-0.2,0.3l-0.2-0.3
							c-1-1.3-2-2.6-3-4c-0.8-1-1.6-2-2.3-3h0.4c-1.3,1.1-2.5,2.2-3.7,3.2c-0.6,0.5-1.1,1-1.7,1.4c-0.3,0.2-0.5,0.4-0.8,0.7
							l-0.4,0.3l-0.1,0.1l0,0l0,0c0,0,0,0-0.1,0c0,0.1-0.3-0.1-0.3-0.2c0-0.1,0,0,0,0l0,0l0,0l0,0l0.1,0.2c0.1,0,0,0,0,0l-0.2,0.1
							l-0.1-0.2c-0.6-2-1-3.6-1.3-4.7c-0.2-1.1-0.2-1.8-0.2-1.8s0.1,0.6,0.4,1.7c0.3,1.1,0.8,2.7,1.4,4.6l-0.2-0.1
							c0.1,0,0.1,0,0.2,0c0.1,0,0.2,0.2,0.2,0.2c0,0.1,0,0.1,0,0.1l0,0c0,0-0.2-0.1-0.1-0.1c0,0,0-0.1-0.1-0.1c0,0,0,0-0.1-0.1l0,0
							l0,0l0,0l0,0l0.1-0.1l0.4-0.3c0.2-0.2,0.5-0.4,0.8-0.7c0.5-0.5,1.1-1,1.6-1.5c1.1-1,2.4-2.1,3.7-3.3l0.2-0.2l0.2,0.2
							c0.7,1,1.5,2,2.3,3c1.1,1.4,2.1,2.7,3,4h-0.4c2.6-3.4,4.5-6.6,5.8-8.8l0.1-0.2l0.1,0.2c0.6,1.1,1,2,1.4,2.5
							C197.5,170.9,197.7,171.2,197.7,171.2z"/>
					</g>
				</g>
			</g>
			<g>
				<g>
					<g>
						<path class="st6" d="M180,157c0,0,0,0.4-0.2,1c-0.1,0.6-0.4,1.5-0.7,2.6c-0.6,2.2-1.6,5.1-2.9,8.4c-1.3,3.2-2.6,6.1-3.6,8.1
							c-0.5,1-0.9,1.8-1.3,2.4c-0.3,0.6-0.5,0.8-0.5,0.8c-0.1,0,0.5-1.3,1.4-3.4c0.9-2.1,2.2-4.9,3.4-8.1c1.3-3.2,2.3-6.1,3-8.3
							C179.5,158.3,179.9,156.9,180,157z"/>
					</g>
				</g>
			</g>
			<g>
				<g>
					<g>
						<g>
							<path class="st6" d="M187.2,137.9c0,0.1-1.7,0.6-4.3,0.8l0.2-0.4c0.6,1,1.2,2,1.9,3.1c0.4,0.7,0.8,1.4,1.2,2l0.3,0.5
								l-0.6-0.1c-3.2-0.6-5.6-0.3-5.6-0.5c0-0.1,0.6-0.2,1.6-0.3s2.4-0.1,4.1,0.2l-0.3,0.4c-0.4-0.6-0.8-1.3-1.2-2
								c-0.7-1.1-1.3-2.2-1.9-3.2l-0.2-0.3h0.4c1.3-0.1,2.4-0.1,3.1-0.2C186.8,138,187.2,137.9,187.2,137.9z"/>
						</g>
					</g>
				</g>
				<g>
					<g>
						<g>
							<path class="st6" d="M196.4,145.9c0,0.1-1.5-0.3-3.9-0.3l0.2-0.2c0.6,2.3,1.4,5.5,2.3,9.1l0.1,0.4l-0.4-0.1
								c-2-0.5-4.1-1.1-6.4-1.7c-0.6-0.2-1.2-0.3-1.7-0.5l0.3-0.3c0.1,3.4,0.3,6.6,0.4,9.4v0.3l-0.3-0.1c-2.5-0.7-4.5-1.3-6.1-1.7
								c-0.7-0.2-1.2-0.4-1.7-0.5c-0.4-0.1-0.6-0.2-0.6-0.2s0.2,0,0.6,0.1c0.5,0.1,1,0.2,1.7,0.4c1.6,0.4,3.7,0.9,6.1,1.5l-0.3,0.2
								c-0.1-2.7-0.3-5.9-0.5-9.4v-0.4l0.4,0.1c0.6,0.2,1.1,0.3,1.7,0.5c2.2,0.6,4.4,1.2,6.3,1.8l-0.3,0.3c-0.8-3.6-1.6-6.8-2.1-9.1
								v-0.2h0.2c1.3,0.1,2.2,0.2,2.9,0.4C196.1,145.7,196.4,145.8,196.4,145.9z"/>
						</g>
					</g>
				</g>
				<g>
					<g>
						<g>
							<path class="st6" d="M197.7,171.2c0,0-0.3-0.2-0.7-0.7s-0.9-1.4-1.5-2.4h0.3c-1.2,2.3-3,5.5-5.7,9l-0.2,0.3l-0.2-0.3
								c-1-1.3-2-2.6-3-4c-0.8-1-1.6-2-2.3-3h0.4c-1.3,1.1-2.5,2.2-3.7,3.2c-0.6,0.5-1.1,1-1.7,1.4c-0.3,0.2-0.5,0.4-0.8,0.7
								l-0.4,0.3l-0.1,0.1l0,0l0,0c0,0,0,0-0.1,0c0,0.1-0.3-0.1-0.3-0.2c0-0.1,0,0,0,0l0,0l0,0l0,0l0.1,0.2c0.1,0,0,0,0,0l-0.2,0.1
								l-0.1-0.2c-0.6-2-1-3.6-1.3-4.7c-0.2-1.1-0.2-1.8-0.2-1.8s0.1,0.6,0.4,1.7c0.3,1.1,0.8,2.7,1.4,4.6l-0.2-0.1
								c0.1,0,0.1,0,0.2,0c0.1,0,0.2,0.2,0.2,0.2c0,0.1,0,0.1,0,0.1l0,0c0,0-0.2-0.1-0.1-0.1c0,0,0-0.1-0.1-0.1c0,0,0,0-0.1-0.1l0,0
								l0,0l0,0l0,0l0.1-0.1l0.4-0.3c0.2-0.2,0.5-0.4,0.8-0.7c0.5-0.5,1.1-1,1.6-1.5c1.1-1,2.4-2.1,3.7-3.3l0.2-0.2l0.2,0.2
								c0.7,1,1.5,2,2.3,3c1.1,1.4,2.1,2.7,3,4h-0.4c2.6-3.4,4.5-6.6,5.8-8.8l0.1-0.2l0.1,0.2c0.6,1.1,1,2,1.4,2.5
								C197.5,170.9,197.7,171.2,197.7,171.2z"/>
						</g>
					</g>
				</g>
				<g>
					<g>
						<g>
							<path class="st6" d="M180,157c0,0,0,0.4-0.2,1c-0.1,0.6-0.4,1.5-0.7,2.6c-0.6,2.2-1.6,5.1-2.9,8.4c-1.3,3.2-2.6,6.1-3.6,8.1
								c-0.5,1-0.9,1.8-1.3,2.4c-0.3,0.6-0.5,0.8-0.5,0.8c-0.1,0,0.5-1.3,1.4-3.4c0.9-2.1,2.2-4.9,3.4-8.1c1.3-3.2,2.3-6.1,3-8.3
								C179.5,158.3,179.9,156.9,180,157z"/>
						</g>
					</g>
				</g>
			</g>
		</g>
	</g>
</g>
</svg>
