<?xml version="1.0" encoding="utf-8"?>
<!-- Generator: Adobe Illustrator 22.1.0, SVG Export Plug-In . SVG Version: 6.00 Build 0)  -->
<svg version="1.1" id="Group_530" xmlns="http://www.w3.org/2000/svg" xmlns:xlink="http://www.w3.org/1999/xlink" x="0px" y="0px"
	 viewBox="0 0 116.3 25.2" style="enable-background:new 0 0 116.3 25.2;" xml:space="preserve">
<style type="text/css">
	.st0{fill:#FFFFFF;}
</style>
<path id="Path_672" class="st0" d="M12.4,3.7c3.3,0,5.1,1.4,6,3.8c0.1,0.5,0,0.6-0.4,0.7l-0.9,0.3c-0.5,0.1-0.6,0.1-0.7-0.4
	c-0.6-1.7-1.7-2.5-3.9-2.5c-2.7,0-4,1.4-4,3.7v5.1c0,2.3,1.5,3.7,4,3.7c2.3,0,3.4-0.8,3.9-2.6c0.2-0.5,0.4-0.6,0.7-0.4l0.9,0.4
	c0.5,0.1,0.6,0.4,0.4,0.7c-0.7,2.6-2.6,3.9-6,3.9c-4,0-6.2-2.2-6.2-5.7v-5C6.2,5.9,8.4,3.7,12.4,3.7z"/>
<path id="Path_673" class="st0" d="M24.7,8c3.2,0,5,1.7,5,4.2v3.6c0,2.7-1.8,4.2-5,4.2s-5-1.6-5-4.2v-3.6C19.7,9.6,21.6,8,24.7,8z
	 M24.7,9.8c-1.8,0-3,0.9-3,2.5V16c0,1.6,1.1,2.5,3,2.5s3-0.9,3-2.5v-3.7C27.7,10.7,26.6,9.8,24.7,9.8z"/>
<path id="Path_674" class="st0" d="M33.6,3.9v4.7c1-0.3,2.1-0.5,3.1-0.6c3.1,0,4.5,1.7,4.5,4.4v3.1c0,2.9-1.6,4.6-4.9,4.6
	c-1.3,0-2.6-0.2-3.9-0.7c-0.7-0.4-0.8-0.6-0.8-1.2V3.9c0-0.4,0.1-0.6,0.6-0.6h0.9C33.4,3.4,33.6,3.5,33.6,3.9z M36.4,9.8
	c-1,0-1.9,0.2-2.8,0.6v7.2c0,0.2,0,0.3,0.3,0.5c0.7,0.2,1.5,0.4,2.3,0.4c2.1,0,3-0.9,3-2.8v-2.9c0.2-1.4-0.8-2.6-2.2-2.8
	C36.8,9.8,36.6,9.8,36.4,9.8z"/>
<path id="Path_675" class="st0" d="M48.7,8c0.4,0,0.6,0.1,0.6,0.6v0.7c0,0.4-0.1,0.6-0.6,0.6h-0.8c-0.9,0-1.7,0.1-2.6,0.4
	c-0.3,0.1-0.3,0.3-0.3,0.5v8.6c0,0.4-0.1,0.6-0.6,0.6h-0.9c-0.4,0-0.6-0.1-0.6-0.6V9.9c0-0.7,0.2-0.9,0.8-1.3c1.3-0.4,2.7-0.7,4-0.7
	L48.7,8L48.7,8z"/>
<path id="Path_676" class="st0" d="M54.5,8c3.2,0,5,1.7,5,4.2v3.6c0,2.7-1.8,4.2-5,4.2s-5-1.6-5-4.2v-3.6C49.6,9.6,51.4,8,54.5,8z
	 M54.5,9.8c-1.8,0-3,0.9-3,2.5V16c0,1.6,1.1,2.5,3,2.5s3-0.9,3-2.5v-3.7C57.6,10.7,56.5,9.8,54.5,9.8z"/>
<path id="Path_677" class="st0" d="M73.4,9.9v4c0,3.6-2.3,5.9-6.4,5.9h-4.9c-0.5,0-0.6-0.2-0.6-0.6V4.6c0-0.5,0.2-0.6,0.6-0.6H67
	C71.1,4,73.4,6.2,73.4,9.9z M67,6.1h-3.3v11.8H67c2.8,0,4.3-1.4,4.3-3.9V9.8C71.3,7.4,69.8,6.1,67,6.1z"/>
<path id="Path_678" class="st0" d="M77.6,5.2v0.2c0,0.8-0.3,1.1-1.1,1.1h-0.1c-0.8,0-1.1-0.3-1.1-1.1V5.2c0-0.8,0.3-1.1,1.1-1.1h0.1
	C77.4,4.1,77.6,4.4,77.6,5.2z M77.5,8.9v10.4c0,0.4-0.1,0.6-0.6,0.6H76c-0.4,0-0.6-0.1-0.6-0.6V8.9c0-0.4,0.1-0.6,0.6-0.6h0.9
	C77.3,8.4,77.5,8.4,77.5,8.9z"/>
<path id="Path_679" class="st0" d="M84.3,8c1.3,0,2.6,0.2,3.9,0.7C88.9,9,89,9.2,89,9.9v10.5c0,2.8-1.4,4.8-4.8,4.8
	c-2.4,0-3.8-0.9-4.5-2.3c-0.2-0.2-0.2-0.5,0-0.7c0.1-0.1,0.1-0.1,0.2-0.1l0.6-0.4c0.5-0.2,0.6-0.2,0.8,0.2c0.5,1,1.6,1.6,2.8,1.5
	c1.9,0,2.8-1.1,2.8-2.9v-1.3c-1,0.3-2.1,0.5-3.1,0.6c-3.1,0-4.5-1.7-4.5-4.4v-2.8C79.4,9.6,81,8,84.3,8z M84.4,9.8
	c-2.1,0-3,0.9-3,2.8v2.7c-0.1,1.3,0.9,2.5,2.2,2.7c0.2,0,0.4,0,0.6,0c1,0,1.9-0.2,2.8-0.5v-6.8c0-0.3,0-0.3-0.3-0.5
	C85.9,10,85.2,9.8,84.4,9.8z"/>
<path id="Path_680" class="st0" d="M93.4,5.2v0.2c0,0.8-0.3,1.1-1.1,1.1h-0.1c-0.8,0-1.1-0.3-1.1-1.1V5.2c0-0.8,0.3-1.1,1.1-1.1h0.1
	C93.1,4.1,93.4,4.4,93.4,5.2z M93.2,8.9v10.4c0,0.4-0.1,0.6-0.6,0.6h-0.9c-0.4,0-0.6-0.1-0.6-0.6V8.9c0-0.4,0.1-0.6,0.6-0.6h0.9
	C93.1,8.4,93.2,8.4,93.2,8.9L93.2,8.9z"/>
<path id="Path_681" class="st0" d="M98.6,6.2v2.1h2.9c0.4,0,0.6,0.1,0.6,0.6v0.7c0,0.4-0.1,0.6-0.6,0.6h-2.9v5.1
	c0,2.4,0.7,2.8,2.8,2.8c0.5,0,0.6,0.1,0.6,0.6v0.8c0,0.4-0.1,0.6-0.6,0.6c-3.6,0.1-4.9-1-4.9-4.7v-5.2h-1.8c-0.4,0-0.6-0.1-0.6-0.6
	V8.9c0-0.4,0.1-0.6,0.6-0.6h1.8V6.2c0-0.4,0.1-0.6,0.6-0.6H98C98.5,5.7,98.6,5.8,98.6,6.2z"/>
<path id="Path_682" class="st0" d="M107.6,8c3.6,0,4.6,2,4.6,4.5v5.8c0.1,0.6-0.3,1.1-0.8,1.3c-1.2,0.4-2.5,0.6-3.9,0.6
	c-3.9,0-4.9-1.3-4.9-3.6c0-2.6,1.4-3.5,5-3.5c0.9,0,1.7,0.1,2.6,0.2v-0.8c0-1.6-0.6-2.7-2.7-2.7c-1.1-0.1-2.2,0.4-2.8,1.4
	c-0.3,0.4-0.4,0.5-0.7,0.3l-0.7-0.3c-0.4-0.2-0.5-0.4-0.3-0.7C103.9,8.8,105.7,7.8,107.6,8z M107.4,14.8c-2.1,0-2.8,0.6-2.8,1.8
	s0.5,1.8,2.7,1.8c0.8,0,1.7-0.1,2.5-0.3c0.3-0.1,0.4-0.2,0.4-0.5v-2.8C109.7,14.9,108.5,14.8,107.4,14.8L107.4,14.8z"/>
<path id="Path_683" class="st0" d="M115.8,19.8h-0.9c-0.4,0-0.6-0.1-0.6-0.6V3.9c0-0.4,0.1-0.6,0.6-0.6h0.9c0.4,0,0.6,0.1,0.6,0.6
	v15.3C116.3,19.6,116.2,19.8,115.8,19.8z"/>
</svg>
