<svg id="Group_530" data-name="Group 530" xmlns="http://www.w3.org/2000/svg" viewBox="0 0 153.767 25.153">
  <defs>
    <style>
      .cls-1 {
        fill: #fff;
      }
    </style>
  </defs>
  <path id="Path_672" data-name="Path 672" class="cls-1" d="M53.743,4c3.3,0,5.141,1.377,5.967,3.764.092.459,0,.643-.367.734l-.918.275c-.459.092-.643.092-.734-.367-.551-1.652-1.744-2.479-3.947-2.479C51.08,5.928,49.7,7.3,49.7,9.6v5.141c0,2.3,1.469,3.672,4.039,3.672,2.3,0,3.4-.826,3.947-2.57.184-.459.367-.551.734-.367l.918.367c.459.092.551.367.367.734-.734,2.57-2.57,3.947-5.967,3.947-4.039,0-6.242-2.2-6.242-5.692V9.783C47.5,6.2,49.7,4,53.743,4Z" transform="translate(-3.894 -0.328)"/>
  <path id="Path_673" data-name="Path 673" class="cls-1" d="M67.257,8.7c3.213,0,4.957,1.652,4.957,4.223V16.5c0,2.662-1.836,4.223-4.957,4.223S62.3,19.074,62.3,16.5v-3.58C62.3,10.352,64.136,8.7,67.257,8.7Zm0,1.836c-1.836,0-3.029.918-3.029,2.479v3.672c0,1.561,1.1,2.479,3.029,2.479s3.029-.918,3.029-2.479V13.015C70.287,11.454,69.185,10.536,67.257,10.536Z" transform="translate(-5.108 -0.713)"/>
  <path id="Path_674" data-name="Path 674" class="cls-1" d="M77.228,4.251V8.933a10.627,10.627,0,0,1,3.121-.551c3.121,0,4.5,1.652,4.5,4.406V15.91c0,2.938-1.561,4.59-4.865,4.59a9.161,9.161,0,0,1-3.856-.734c-.734-.367-.826-.551-.826-1.193V4.251c0-.367.092-.551.551-.551h.918C77.044,3.7,77.228,3.792,77.228,4.251Zm2.846,5.875a8.545,8.545,0,0,0-2.846.551v7.161c0,.184,0,.275.275.459a7.483,7.483,0,0,0,2.3.367c2.111,0,3.029-.918,3.029-2.846V12.88A2.472,2.472,0,0,0,80.074,10.126Z" transform="translate(-6.174 -0.303)"/>
  <path id="Path_675" data-name="Path 675" class="cls-1" d="M93.392,8.692c.367,0,.551.092.551.551v.734c0,.367-.092.551-.551.551h-.826A9.019,9.019,0,0,0,90,10.9c-.275.092-.275.275-.275.459v8.629c0,.367-.092.551-.551.551h-.918c-.367,0-.551-.092-.551-.551V10.62c0-.734.184-.918.826-1.285A14.4,14.4,0,0,1,92.565,8.6h.826Z" transform="translate(-7.19 -0.705)"/>
  <path id="Path_676" data-name="Path 676" class="cls-1" d="M99.757,8.7c3.213,0,4.957,1.652,4.957,4.223V16.5c0,2.662-1.836,4.223-4.957,4.223S94.8,19.074,94.8,16.5v-3.58C94.8,10.352,96.636,8.7,99.757,8.7Zm0,1.836c-1.836,0-3.029.918-3.029,2.479v3.672c0,1.561,1.1,2.479,3.029,2.479s3.029-.918,3.029-2.479V13.015C102.787,11.454,101.685,10.536,99.757,10.536Z" transform="translate(-7.772 -0.713)"/>
  <path id="Path_677" data-name="Path 677" class="cls-1" d="M119.742,10.275v4.039c0,3.58-2.3,5.875-6.426,5.875h-4.865c-.459,0-.551-.184-.551-.551V4.951c0-.459.184-.551.551-.551h4.865C117.447,4.4,119.742,6.6,119.742,10.275ZM113.316,6.42h-3.3V18.17h3.3c2.754,0,4.315-1.377,4.315-3.856V10.183C117.631,7.8,116.07,6.42,113.316,6.42Z" transform="translate(-8.846 -0.361)"/>
  <path id="Path_678" data-name="Path 678" class="cls-1" d="M125.1,5.6v.184c0,.826-.275,1.1-1.1,1.1H123.9c-.826,0-1.1-.275-1.1-1.1V5.6c0-.826.275-1.1,1.1-1.1h.092C124.911,4.5,125.1,4.775,125.1,5.6ZM125,9.274V19.647c0,.367-.092.551-.551.551h-.918c-.367,0-.551-.092-.551-.551V9.274c0-.367.092-.551.551-.551h.918C124.82,8.723,125,8.815,125,9.274Z" transform="translate(-10.068 -0.369)"/>
  <path id="Path_679" data-name="Path 679" class="cls-1" d="M132.157,8.7a9.161,9.161,0,0,1,3.856.734c.734.275.826.459.826,1.193V21.093c0,2.846-1.377,4.774-4.774,4.774-2.387,0-3.764-.918-4.5-2.3a.483.483,0,0,1,.184-.826l.643-.367c.459-.184.643-.184.826.184a2.83,2.83,0,0,0,2.754,1.469c1.928,0,2.846-1.1,2.846-2.938V19.808a10.627,10.627,0,0,1-3.121.551c-3.121,0-4.5-1.652-4.5-4.406V13.2C127.292,10.352,128.852,8.7,132.157,8.7Zm.092,1.836c-2.111,0-3.029.918-3.029,2.846v2.662a2.445,2.445,0,0,0,2.754,2.662,12.929,12.929,0,0,0,2.846-.459V11.454c0-.275,0-.275-.275-.459A5.059,5.059,0,0,0,132.249,10.536Z" transform="translate(-10.429 -0.713)"/>
  <path id="Path_680" data-name="Path 680" class="cls-1" d="M142.3,5.6v.184c0,.826-.275,1.1-1.1,1.1H141.1c-.826,0-1.1-.275-1.1-1.1V5.6c0-.826.275-1.1,1.1-1.1h.092C142.02,4.5,142.3,4.775,142.3,5.6Zm-.184,3.672V19.647c0,.367-.092.551-.551.551h-.918c-.367,0-.551-.092-.551-.551V9.274c0-.367.092-.551.551-.551h.918C142.02,8.723,142.111,8.815,142.111,9.274Z" transform="translate(-11.478 -0.369)"/>
  <path id="Path_681" data-name="Path 681" class="cls-1" d="M147.806,6.751V8.862h2.938c.367,0,.551.092.551.551v.734c0,.367-.092.551-.551.551h-2.938v5.141c0,2.387.734,2.846,2.846,2.846.459,0,.551.092.551.551v.826c0,.367-.092.551-.551.551-3.58.092-4.865-1.01-4.865-4.682V10.7h-1.836c-.367,0-.551-.092-.551-.551V9.413c0-.367.092-.551.551-.551h1.836V6.751c0-.367.092-.551.551-.551h.918C147.715,6.2,147.806,6.292,147.806,6.751Z" transform="translate(-11.757 -0.508)"/>
  <path id="Path_682" data-name="Path 682" class="cls-1" d="M157.557,8.7c3.58,0,4.59,2.02,4.59,4.5v5.783a1.134,1.134,0,0,1-.826,1.285,10.068,10.068,0,0,1-3.856.551c-3.947,0-4.865-1.285-4.865-3.58,0-2.57,1.377-3.488,4.957-3.488a15.594,15.594,0,0,1,2.57.184v-.826c0-1.561-.551-2.662-2.662-2.662a2.863,2.863,0,0,0-2.754,1.377c-.275.367-.367.459-.734.275l-.734-.275c-.367-.184-.459-.367-.275-.734A4.844,4.844,0,0,1,157.557,8.7Zm-.184,6.793c-2.111,0-2.754.643-2.754,1.836s.459,1.836,2.662,1.836a7.948,7.948,0,0,0,2.479-.275c.275-.092.367-.184.367-.459V15.585C159.669,15.585,158.475,15.493,157.374,15.493Z" transform="translate(-12.511 -0.713)"/>
  <path id="Path_683" data-name="Path 683" class="cls-1" d="M166.769,20.132h-.918c-.367,0-.551-.092-.551-.551V4.251c0-.367.092-.551.551-.551h.918c.367,0,.551.092.551.551V19.582C167.32,19.949,167.228,20.132,166.769,20.132Z" transform="translate(-13.552 -0.303)"/>
  <path id="Path_684" data-name="Path 684" class="cls-1" d="M7.436,5.967H17.718L19.187,0H2.938C0,0,0,3.029,0,3.029V20.564A2.877,2.877,0,0,0,2.938,23.5H13.219l1.469-5.967H7.344a1.439,1.439,0,0,1-1.469-1.469V7.436A1.548,1.548,0,0,1,7.436,5.967Z" transform="translate(0)"/>
  <path id="Path_685" data-name="Path 685" class="cls-1" d="M39.095,20.472V3.029A2.906,2.906,0,0,0,36.157,0H25.875L24.406,5.967h7.344a1.439,1.439,0,0,1,1.469,1.469v8.629a1.439,1.439,0,0,1-1.469,1.469H21.469L20,23.5H36.157C39.095,23.5,39.095,20.472,39.095,20.472Z" transform="translate(-1.64)"/>
</svg>
