<svg id="LOGO" xmlns="http://www.w3.org/2000/svg" width="140.399" height="22.967" viewBox="0 0 140.399 22.967">
  <path id="Trazado_672" data-name="Trazado 672" d="M53.2,4c3.018,0,4.694,1.257,5.448,3.437.084.419,0,.587-.335.671l-.838.251c-.419.084-.587.084-.671-.335-.5-1.509-1.593-2.263-3.6-2.263-2.431,0-3.688,1.257-3.688,3.353v4.694c0,2.1,1.341,3.353,3.688,3.353,2.1,0,3.1-.754,3.6-2.347.168-.419.335-.5.671-.335l.838.335c.419.084.5.335.335.671-.671,2.347-2.347,3.6-5.448,3.6-3.688,0-5.7-2.012-5.7-5.2V9.281C47.5,6.012,49.512,4,53.2,4Z" transform="translate(-7.685 -0.647)" fill="#fff"/>
  <path id="Trazado_673" data-name="Trazado 673" d="M66.826,8.7c2.934,0,4.526,1.509,4.526,3.856v3.269c0,2.431-1.676,3.856-4.526,3.856S62.3,18.172,62.3,15.825V12.556C62.3,10.209,63.976,8.7,66.826,8.7Zm0,1.676c-1.676,0-2.766.838-2.766,2.263v3.353c0,1.425,1.006,2.263,2.766,2.263s2.766-.838,2.766-2.263V12.64C69.592,11.215,68.587,10.376,66.826,10.376Z" transform="translate(-10.08 -1.408)" fill="#fff"/>
  <path id="Trazado_674" data-name="Trazado 674" d="M77.06,4.2V8.478a9.7,9.7,0,0,1,2.85-.5c2.85,0,4.107,1.509,4.107,4.023v2.85c0,2.682-1.425,4.191-4.442,4.191a8.365,8.365,0,0,1-3.52-.671c-.671-.335-.754-.5-.754-1.09V4.2c0-.335.084-.5.5-.5h.838C76.893,3.7,77.06,3.784,77.06,4.2Zm2.6,5.364a7.8,7.8,0,0,0-2.6.5v6.538c0,.168,0,.251.251.419a6.833,6.833,0,0,0,2.1.335c1.928,0,2.766-.838,2.766-2.6V12.082A2.257,2.257,0,0,0,79.659,9.567Z" transform="translate(-12.183 -0.599)" fill="#fff"/>
  <path id="Trazado_675" data-name="Trazado 675" d="M92.9,8.684c.335,0,.5.084.5.5v.671c0,.335-.084.5-.5.5h-.754A8.235,8.235,0,0,0,89.8,10.7c-.251.084-.251.251-.251.419v7.879c0,.335-.084.5-.5.5H88.2c-.335,0-.5-.084-.5-.5v-8.55c0-.671.168-.838.754-1.173A13.151,13.151,0,0,1,92.142,8.6H92.9Z" transform="translate(-14.19 -1.391)" fill="#fff"/>
  <path id="Trazado_676" data-name="Trazado 676" d="M99.326,8.7c2.934,0,4.526,1.509,4.526,3.856v3.269c0,2.431-1.676,3.856-4.526,3.856S94.8,18.172,94.8,15.825V12.556C94.8,10.209,96.476,8.7,99.326,8.7Zm0,1.676c-1.676,0-2.766.838-2.766,2.263v3.353c0,1.425,1.006,2.263,2.766,2.263s2.766-.838,2.766-2.263V12.64C102.092,11.215,101.087,10.376,99.326,10.376Z" transform="translate(-15.338 -1.408)" fill="#fff"/>
  <path id="Trazado_677" data-name="Trazado 677" d="M118.713,9.764v3.688c0,3.269-2.1,5.364-5.867,5.364H108.4c-.419,0-.5-.168-.5-.5V4.9c0-.419.168-.5.5-.5h4.442C116.617,4.4,118.713,6.412,118.713,9.764Zm-5.867-3.52h-3.018V16.973h3.018c2.515,0,3.94-1.257,3.94-3.52V9.681C116.785,7.5,115.36,6.244,112.845,6.244Z" transform="translate(-17.458 -0.712)" fill="#fff"/>
  <path id="Trazado_678" data-name="Trazado 678" d="M124.9,5.506v.168c0,.754-.251,1.006-1.006,1.006h-.084c-.754,0-1.006-.251-1.006-1.006V5.506c0-.754.251-1.006,1.006-1.006h.084C124.728,4.5,124.9,4.751,124.9,5.506Zm-.084,3.353V18.33c0,.335-.084.5-.5.5h-.838c-.335,0-.5-.084-.5-.5V8.859c0-.335.084-.5.5-.5h.838C124.644,8.356,124.812,8.44,124.812,8.859Z" transform="translate(-19.869 -0.728)" fill="#fff"/>
  <path id="Trazado_679" data-name="Trazado 679" d="M131.726,8.7a8.364,8.364,0,0,1,3.52.671c.671.251.754.419.754,1.09v9.556c0,2.6-1.257,4.359-4.359,4.359-2.179,0-3.437-.838-4.107-2.1a.441.441,0,0,1,.168-.754l.587-.335c.419-.168.587-.168.754.168a2.584,2.584,0,0,0,2.515,1.341,2.368,2.368,0,0,0,2.6-2.682V18.842a9.7,9.7,0,0,1-2.85.5c-2.85,0-4.107-1.509-4.107-4.023V12.807C127.284,10.209,128.709,8.7,131.726,8.7Zm.084,1.676c-1.928,0-2.766.838-2.766,2.6v2.431a2.233,2.233,0,0,0,2.515,2.431,11.806,11.806,0,0,0,2.6-.419v-6.2c0-.251,0-.251-.251-.419A4.619,4.619,0,0,0,131.81,10.376Z" transform="translate(-20.581 -1.408)" fill="#fff"/>
  <path id="Trazado_680" data-name="Trazado 680" d="M142.1,5.506v.168c0,.754-.251,1.006-1.006,1.006h-.084c-.754,0-1.006-.251-1.006-1.006V5.506c0-.754.251-1.006,1.006-1.006h.084C141.844,4.5,142.1,4.751,142.1,5.506Zm-.168,3.353V18.33c0,.335-.084.5-.5.5h-.838c-.335,0-.5-.084-.5-.5V8.859c0-.335.084-.5.5-.5h.838C141.844,8.356,141.928,8.44,141.928,8.859Z" transform="translate(-22.652 -0.728)" fill="#fff"/>
  <path id="Trazado_681" data-name="Trazado 681" d="M147.423,6.7V8.631h2.682c.335,0,.5.084.5.5V9.8c0,.335-.084.5-.5.5h-2.682V15c0,2.179.671,2.6,2.6,2.6.419,0,.5.084.5.5v.754c0,.335-.084.5-.5.5-3.269.084-4.442-.922-4.442-4.275V10.307H143.9c-.335,0-.5-.084-.5-.5V9.134c0-.335.084-.5.5-.5h1.676V6.7c0-.335.084-.5.5-.5h.838C147.34,6.2,147.423,6.284,147.423,6.7Z" transform="translate(-23.202 -1.003)" fill="#fff"/>
  <path id="Trazado_682" data-name="Trazado 682" d="M157.126,8.7c3.269,0,4.191,1.844,4.191,4.107v5.281a1.036,1.036,0,0,1-.754,1.173,9.193,9.193,0,0,1-3.52.5c-3.6,0-4.442-1.173-4.442-3.269,0-2.347,1.257-3.185,4.526-3.185a14.239,14.239,0,0,1,2.347.168v-.754c0-1.425-.5-2.431-2.431-2.431a2.614,2.614,0,0,0-2.515,1.257c-.251.335-.335.419-.671.251l-.671-.251c-.335-.168-.419-.335-.251-.671A4.423,4.423,0,0,1,157.126,8.7Zm-.168,6.2c-1.928,0-2.515.587-2.515,1.676s.419,1.676,2.431,1.676A7.257,7.257,0,0,0,159.138,18c.251-.084.335-.168.335-.419v-2.6C159.054,14.987,157.965,14.9,156.959,14.9Z" transform="translate(-24.69 -1.408)" fill="#fff"/>
  <path id="Trazado_683" data-name="Trazado 683" d="M166.641,18.7H165.8c-.335,0-.5-.084-.5-.5V4.2c0-.335.084-.5.5-.5h.838c.335,0,.5.084.5.5v14C167.144,18.536,167.06,18.7,166.641,18.7Z" transform="translate(-26.745 -0.599)" fill="#fff"/>
  <path id="Trazado_684" data-name="Trazado 684" d="M6.789,5.448h9.388L17.518,0H2.682A2.684,2.684,0,0,0,0,2.766v16.01a2.627,2.627,0,0,0,2.682,2.682H12.07l1.341-5.448H6.706a1.313,1.313,0,0,1-1.341-1.341V6.789A1.414,1.414,0,0,1,6.789,5.448Z" transform="translate(0)" fill="#fff"/>
  <path id="Trazado_685" data-name="Trazado 685" d="M37.435,18.692V2.766A2.654,2.654,0,0,0,34.752,0H25.364L24.023,5.448h6.706A1.313,1.313,0,0,1,32.07,6.789v7.879a1.313,1.313,0,0,1-1.341,1.341H21.341L20,21.458H34.752A2.684,2.684,0,0,0,37.435,18.692Z" transform="translate(-3.236)" fill="#fff"/>
</svg>
