<?xml version="1.0" standalone="no"?>
<!DOCTYPE svg PUBLIC "-//W3C//DTD SVG 20010904//EN"
 "http://www.w3.org/TR/2001/REC-SVG-20010904/DTD/svg10.dtd">
<svg version="1.0" xmlns="http://www.w3.org/2000/svg"
 width="260.000000pt" height="260.000000pt" viewBox="0 0 260.000000 260.000000"
 preserveAspectRatio="xMidYMid meet">
<metadata>
Created by potrace 1.11, written by Peter Selinger 2001-2013
</metadata>
<g transform="translate(0.000000,260.000000) scale(0.100000,-0.100000)"
fill="#000000" stroke="none">
<path d="M165 2121 c-30 -13 -75 -61 -91 -99 -12 -29 -14 -142 -14 -666 0
-595 2 -633 19 -672 25 -56 77 -93 137 -100 27 -3 199 -6 382 -7 l333 -2 9 35
c23 87 83 336 84 350 1 12 -35 15 -249 15 -137 1 -260 4 -273 9 -49 16 -52 41
-52 381 l0 317 29 29 c16 16 40 29 53 30 13 0 170 1 350 1 179 0 330 3 335 7
5 3 29 85 53 181 23 96 45 181 47 188 4 9 -113 12 -563 11 -313 0 -578 -4
-589 -8z"/>
<path d="M1641 2093 c-6 -21 -26 -102 -45 -181 -19 -78 -38 -147 -41 -152 -10
-16 28 -19 265 -18 138 0 246 -4 261 -10 51 -20 54 -43 54 -375 -1 -327 -3
-344 -52 -366 -16 -7 -139 -11 -373 -11 -193 0 -350 -2 -350 -5 0 -2 -18 -77
-41 -167 -23 -90 -43 -174 -45 -187 -3 -14 -7 -28 -10 -33 -3 -4 21 -8 53 -8
593 -2 1046 0 1069 6 47 11 95 53 117 103 20 45 21 63 21 655 1 415 -3 624
-10 653 -6 24 -24 58 -40 74 -55 58 -63 59 -460 59 l-363 0 -10 -37z"/>
</g>
</svg>
