<?xml version="1.0" standalone="no"?>
<!DOCTYPE svg PUBLIC "-//W3C//DTD SVG 20010904//EN"
 "http://www.w3.org/TR/2001/REC-SVG-20010904/DTD/svg10.dtd">
<svg version="1.0" xmlns="http://www.w3.org/2000/svg"
 width="134.000000pt" height="134.000000pt" viewBox="0 0 134.000000 134.000000"
 preserveAspectRatio="xMidYMid meet">
<metadata>
Created by potrace 1.11, written by Peter Selinger 2001-2013
</metadata>
<g transform="translate(0.000000,134.000000) scale(0.100000,-0.100000)"
fill="#000000" stroke="none">
<path d="M120 1034 c-16 -7 -33 -22 -40 -33 -9 -18 -14 -327 -10 -622 0 -24 8
-45 25 -63 l24 -26 189 0 189 0 22 91 c12 50 19 93 17 97 -2 4 -61 6 -130 5
-113 -1 -127 1 -136 17 -6 10 -10 88 -10 173 0 121 3 157 14 166 10 8 72 12
190 13 97 1 176 4 177 7 1 13 8 39 23 97 9 34 16 68 16 76 0 18 -516 20 -560
2z"/>
<path d="M846 1040 c-3 -4 -13 -44 -18 -67 -1 -5 -7 -28 -15 -52 -21 -71 -26
-68 115 -70 107 -1 129 -3 140 -18 15 -20 17 -310 2 -333 -8 -12 -40 -15 -172
-17 -90 -1 -170 -2 -179 -2 -12 -1 -22 -24 -38 -86 -11 -46 -21 -89 -21 -95 0
-14 531 -14 563 1 44 20 47 42 47 375 l0 315 -25 24 c-13 14 -37 26 -52 27
-77 4 -345 3 -347 -2z"/>
</g>
</svg>
