<svg id="Grupo_1" data-name="Grupo 1" xmlns="http://www.w3.org/2000/svg" width="38.403" height="57.94" viewBox="0 0 38.403 57.94">
  <path id="Trazado_1" data-name="Trazado 1" d="M33.755,31.751V4.464A4.447,4.447,0,0,0,28.7.422L3.032,7.5A4.042,4.042,0,0,0,0,11.135V19.22Z" transform="translate(0 -0.378)" fill="#e02a3b"/>
  <path id="Trazado_2" data-name="Trazado 2" d="M34.765,22.434,0,9.7V32.742A5.862,5.862,0,0,0,3.84,37.8l28.5,10.51c3.234,1.415,6.064-.4,6.064-3.032V27.487A5.862,5.862,0,0,0,34.765,22.434Z" transform="translate(0 9.141)" fill="#2da386"/>
  <path id="Trazado_3" data-name="Trazado 3" d="M25.67,23.132V8.983a3.436,3.436,0,0,0-4.245-3.234L0,11.813v2.021Z" transform="translate(0 5.007)" fill="#f2998e"/>
</svg>
