<svg xmlns="http://www.w3.org/2000/svg" width="120.034" height="60.651" viewBox="0 0 120.034 60.651">
  <g id="Ilustración_45" data-name="Ilustración 45" transform="translate(60.017 30.325)">
    <g id="Grupo_2791" data-name="Grupo 2791" transform="translate(-60.017 -30.325)">
      <path id="Trazado_11418" data-name="Trazado 11418" d="M8.57,6.3a7.593,7.593,0,0,1,3.991,1.071,8.275,8.275,0,0,1,2.921,2.921,7.593,7.593,0,0,1,1.071,3.991,9.054,9.054,0,0,1-.1.974,1.558,1.558,0,0,1-.584.974,1.655,1.655,0,0,1-1.071.389H3.507a5.938,5.938,0,0,0,1.071,2.239,6.133,6.133,0,0,0,1.85,1.655,4.673,4.673,0,0,0,2.434.681,4.673,4.673,0,0,0,2.531-.681,5.646,5.646,0,0,0,1.752-1.558l.584-.487.779-.195A1.681,1.681,0,0,1,15.871,20.9a8.956,8.956,0,0,1-2.726,2.531A7.691,7.691,0,0,1,9.056,24.5a8.275,8.275,0,0,1-3.5-.779,8.762,8.762,0,0,1-2.921-2.142A9.346,9.346,0,0,1,.1,15.159a8.859,8.859,0,0,1,.681-3.31A9.346,9.346,0,0,1,2.534,8.928,8.664,8.664,0,0,1,5.26,6.981,7.691,7.691,0,0,1,8.57,6.3Zm4.575,7.107a4.77,4.77,0,0,0-1.558-2.726A4.478,4.478,0,0,0,8.57,9.513a4.673,4.673,0,0,0-3.115,1.168A5.744,5.744,0,0,0,3.6,13.407Z" transform="translate(-0.003 -0.166)" fill="#fff"/>
      <path id="Trazado_11419" data-name="Trazado 11419" d="M18.1,7.9a1.363,1.363,0,0,1,.389-.876,1.168,1.168,0,0,1,.974-.487H21.9V6.338a7.2,7.2,0,0,1,1.168-4.381A4.381,4.381,0,0,1,26.959.4h1.752a1.558,1.558,0,0,1,1.168.487,1.558,1.558,0,0,1,.487,1.168,1.46,1.46,0,0,1-.487,1.168,1.558,1.558,0,0,1-1.168.487l-1.85-.292a2.336,2.336,0,0,0-1.266.292,1.266,1.266,0,0,0-.487.876,10.709,10.709,0,0,0-.1,1.85V6.63h3.31a1.46,1.46,0,0,1,1.071.487,1.417,1.417,0,0,1,.1,2.044,1.266,1.266,0,0,1-.974.487H25.109V22.692h0a1.46,1.46,0,0,1-.487,1.071,1.655,1.655,0,0,1-2.336,0,1.46,1.46,0,0,1-.487-1.071h0V9.55H19.658a1.46,1.46,0,0,1-1.071-.487A1.558,1.558,0,0,1,18.1,7.9Z" transform="translate(-0.48 -0.009)" fill="#fff"/>
      <path id="Trazado_11420" data-name="Trazado 11420" d="M39.67,6.3a7.593,7.593,0,0,1,3.991,1.071,8.275,8.275,0,0,1,2.921,2.921,7.593,7.593,0,0,1,1.071,3.991,9.055,9.055,0,0,1-.1.974,1.558,1.558,0,0,1-.584.974,1.655,1.655,0,0,1-1.071.389H34.607a5.938,5.938,0,0,0,1.071,2.239,6.133,6.133,0,0,0,1.85,1.655,4.868,4.868,0,0,0,4.868-.1,5.646,5.646,0,0,0,1.752-1.558l.584-.487.779-.195a1.681,1.681,0,0,1,1.363,2.628,8.956,8.956,0,0,1-2.726,2.531,7.691,7.691,0,0,1-4.089,1.071,8.275,8.275,0,0,1-3.5-.779,8.762,8.762,0,0,1-2.823-2.044A9.346,9.346,0,0,1,31.2,15.159a8.859,8.859,0,0,1,.681-3.407,9.346,9.346,0,0,1,1.85-2.823,8.664,8.664,0,0,1,2.726-1.947A7.691,7.691,0,0,1,39.67,6.3Zm4.575,7.107a4.77,4.77,0,0,0-1.558-2.726A4.478,4.478,0,0,0,39.67,9.513a4.673,4.673,0,0,0-3.115,1.168,5.744,5.744,0,0,0-1.85,2.726Z" transform="translate(-0.827 -0.166)" fill="#fff"/>
      <path id="Trazado_11421" data-name="Trazado 11421" d="M50.6,15.254a9.346,9.346,0,0,1,.681-3.407,9.248,9.248,0,0,1,1.752-2.921A8.567,8.567,0,0,1,55.76,6.979,7.691,7.691,0,0,1,59.07,6.2a7.5,7.5,0,0,1,3.213.681,8.177,8.177,0,0,1,2.531,1.85,7.788,7.788,0,0,1,1.558,2.434A1.676,1.676,0,0,1,64.813,13.4a1.558,1.558,0,0,1-.876-.292,1.655,1.655,0,0,1-.584-.779A4.77,4.77,0,0,0,61.8,10.289a4.283,4.283,0,0,0-2.726-.876,4.576,4.576,0,0,0-2.628.779,5.841,5.841,0,0,0-1.85,2.142,6.133,6.133,0,0,0-.681,2.823,6.23,6.23,0,0,0,.681,2.921,5.841,5.841,0,0,0,1.947,2.239,4.77,4.77,0,0,0,2.726.876,4.381,4.381,0,0,0,2.628-.779,5.16,5.16,0,0,0,1.558-1.752,1.655,1.655,0,0,1,.584-.584l.876-.292a1.655,1.655,0,0,1,1.46,2.434,8.47,8.47,0,0,1-2.726,2.921A7.5,7.5,0,0,1,59.362,24.4a7.885,7.885,0,0,1-3.407-.779,8.567,8.567,0,0,1-2.726-2.044,9.54,9.54,0,0,1-1.85-2.921,9.443,9.443,0,0,1-.779-3.407Z" transform="translate(-1.341 -0.164)" fill="#fff"/>
      <path id="Trazado_11422" data-name="Trazado 11422" d="M81,7.663a1.168,1.168,0,0,1,.487-.974,1.655,1.655,0,0,1,.974-.389,1.85,1.85,0,0,1,1.266.389,1.363,1.363,0,0,1,.487,1.168h0V22.849a1.46,1.46,0,0,1-.487,1.071,1.655,1.655,0,0,1-1.168.487,1.558,1.558,0,0,1-1.168-.487,1.46,1.46,0,0,1-.487-1.071Z" transform="translate(-2.143 -0.166)" fill="#fff"/>
      <path id="Trazado_11423" data-name="Trazado 11423" d="M101.6,6.2a1.46,1.46,0,0,1,1.071.487,1.46,1.46,0,0,1,.487,1.071,1.85,1.85,0,0,1-.195.876L96.148,23.528a1.558,1.558,0,0,1-1.46.974,1.46,1.46,0,0,1-1.46-.974L87,8.536a1.85,1.85,0,0,1-.1-.779,1.558,1.558,0,0,1,.487-.974A1.363,1.363,0,0,1,88.36,6.3a1.655,1.655,0,0,1,1.655.974l4.77,11.487,5.257-11.585A1.558,1.558,0,0,1,101.6,6.2Z" transform="translate(-2.302 -0.164)" fill="#fff"/>
      <path id="Trazado_11424" data-name="Trazado 11424" d="M0,44.405a9.735,9.735,0,0,1,.681-3.6,8.859,8.859,0,0,1,2.044-3.018,8.47,8.47,0,0,1,2.726-1.752,8.372,8.372,0,0,1,3.213-.681,6.23,6.23,0,0,1,3.018.681,8.275,8.275,0,0,1,2.336,1.947V31.166a1.655,1.655,0,0,1,3.213,0V52a1.655,1.655,0,0,1-1.655,1.655,1.168,1.168,0,0,1-.974-.487A2.628,2.628,0,0,1,14.213,52l-.195-1.363a6.425,6.425,0,0,1-2.434,2.142,6.717,6.717,0,0,1-3.018.779,7.885,7.885,0,0,1-3.407-.779,8.664,8.664,0,0,1-2.726-1.947A9.151,9.151,0,0,1,.681,47.91,9.346,9.346,0,0,1,0,44.405Zm8.47,5.744a5.062,5.062,0,0,0,2.142-.487,5.452,5.452,0,0,0,1.752-1.168,5.744,5.744,0,0,0,1.168-1.947,6.425,6.425,0,0,0,.389-2.239,6.133,6.133,0,0,0-.681-2.921,5.549,5.549,0,0,0-1.85-2.142,4.868,4.868,0,0,0-2.726-.779,4.673,4.673,0,0,0-2.726.876,5.841,5.841,0,0,0-1.947,2.142,6.23,6.23,0,0,0,0,5.646,5.646,5.646,0,0,0,1.85,2.336,4.673,4.673,0,0,0,2.628.779Z" transform="translate(0 -0.792)" fill="#fff"/>
      <path id="Trazado_11425" data-name="Trazado 11425" d="M21.7,36.963a1.168,1.168,0,0,1,.487-.974,1.655,1.655,0,0,1,.974-.389,1.85,1.85,0,0,1,1.266.389,1.363,1.363,0,0,1,.487,1.168h0V52.247a1.46,1.46,0,0,1-.487,1.071,1.655,1.655,0,0,1-1.168.487,1.558,1.558,0,0,1-1.168-.487,1.46,1.46,0,0,1-.487-1.071Z" transform="translate(-0.572 -0.943)" fill="#fff"/>
      <path id="Trazado_11426" data-name="Trazado 11426" d="M23.452,33.986a1.655,1.655,0,0,1-1.266-.487,1.558,1.558,0,0,1-.487-1.168V31.163a1.168,1.168,0,0,1,.584-.974,1.85,1.85,0,0,1,1.071-.389,1.558,1.558,0,0,1,1.168.487,1.655,1.655,0,0,1,.487,1.168v.974a1.752,1.752,0,0,1-.389,1.168A1.363,1.363,0,0,1,23.452,33.986Z" transform="translate(-0.575 -0.789)" fill="#fff"/>
      <path id="Trazado_11427" data-name="Trazado 11427" d="M43.389,35.5a1.655,1.655,0,0,1,1.655,1.655h0V52.731a8.47,8.47,0,0,1-.779,3.407,9.248,9.248,0,0,1-1.947,2.823A9.443,9.443,0,0,1,39.4,60.909a8.762,8.762,0,0,1-3.5.681,9.151,9.151,0,0,1-7.107-3.407,1.661,1.661,0,0,1,1.168-2.726l.681.195.584.487a5.938,5.938,0,0,0,2.044,1.655,5.744,5.744,0,0,0,2.531.584,5.646,5.646,0,0,0,2.921-.779,6.133,6.133,0,0,0,2.142-2.142,5.257,5.257,0,0,0,.779-2.823V50.979A5.062,5.062,0,0,1,39.3,53.023a7.3,7.3,0,0,1-6.036-.195,8.47,8.47,0,0,1-2.628-2.044,9.832,9.832,0,0,1-1.752-2.921,9.54,9.54,0,0,1-.584-3.407,9.151,9.151,0,0,1,.584-3.31,9.346,9.346,0,0,1,1.752-2.823,8.47,8.47,0,0,1,2.628-1.947,7.5,7.5,0,0,1,3.31-.779,6.133,6.133,0,0,1,2.921.681,6.231,6.231,0,0,1,2.336,2.142l.292-1.266a3.5,3.5,0,0,1,.389-1.168A1.071,1.071,0,0,1,43.389,35.5Zm-1.752,8.956a6.133,6.133,0,0,0-.681-2.726A5.744,5.744,0,0,0,39.2,39.589a4.283,4.283,0,0,0-2.531-.779,4.478,4.478,0,0,0-2.628.779,5.646,5.646,0,0,0-1.85,2.142,6.036,6.036,0,0,0-.681,2.726,6.425,6.425,0,0,0,.681,2.823,6.133,6.133,0,0,0,1.752,2.239,4.381,4.381,0,0,0,5.257,0,6.036,6.036,0,0,0,1.85-2.239,6.425,6.425,0,0,0,.584-2.823Z" transform="translate(-0.75 -0.94)" fill="#fff"/>
      <path id="Trazado_11428" data-name="Trazado 11428" d="M49.7,36.963a1.168,1.168,0,0,1,.487-.974,1.655,1.655,0,0,1,.973-.389,1.85,1.85,0,0,1,1.266.389,1.363,1.363,0,0,1,.487,1.168h0V52.149a1.46,1.46,0,0,1-.487,1.071,1.655,1.655,0,0,1-1.168.487,1.558,1.558,0,0,1-1.168-.487,1.46,1.46,0,0,1-.487-1.071Z" transform="translate(-1.314 -0.943)" fill="#fff"/>
      <path id="Trazado_11429" data-name="Trazado 11429" d="M51.352,33.286a1.655,1.655,0,0,1-1.266-.487,1.558,1.558,0,0,1-.487-1.168V30.463a1.168,1.168,0,0,1,.584-.973,1.85,1.85,0,0,1,1.071-.389,1.558,1.558,0,0,1,1.168.487,1.655,1.655,0,0,1,.487,1.168v.974a1.752,1.752,0,0,1-.389,1.168,1.363,1.363,0,0,1-1.168.389Z" transform="translate(-1.314 -0.771)" fill="#fff"/>
      <path id="Trazado_11430" data-name="Trazado 11430" d="M82.752,4.186A1.655,1.655,0,0,1,81.487,3.7,1.558,1.558,0,0,1,81,2.531V1.363a1.168,1.168,0,0,1,.584-.974A1.85,1.85,0,0,1,82.655,0a1.558,1.558,0,0,1,1.168.487,1.655,1.655,0,0,1,.487,1.168v.974A1.752,1.752,0,0,1,83.921,3.8,1.363,1.363,0,0,1,82.752,4.186Z" transform="translate(-2.146 0)" fill="#fff"/>
      <path id="Trazado_11431" data-name="Trazado 11431" d="M76.359,35.5a6.036,6.036,0,0,1,2.336.487,8.47,8.47,0,0,1,2.044,1.168,5.452,5.452,0,0,1,1.363,1.46l.195-1.558a1.752,1.752,0,0,1,.389-1.168,1.266,1.266,0,0,1,1.071-.487,1.655,1.655,0,0,1,1.655,1.655h0V52.144A1.655,1.655,0,0,1,83.758,53.8a1.266,1.266,0,0,1-1.071-.487,1.752,1.752,0,0,1-.389-1.168L82.1,50.879a5.16,5.16,0,0,1-2.434,2.142,8.08,8.08,0,0,1-3.31.681,8.275,8.275,0,0,1-3.407-.681,9.054,9.054,0,0,1-2.823-1.947,9.443,9.443,0,0,1-1.947-2.921,8.859,8.859,0,0,1-.681-3.5,9.054,9.054,0,0,1,.681-3.407,9.54,9.54,0,0,1,1.85-2.921,8.956,8.956,0,0,1,2.823-2.142,8.372,8.372,0,0,1,3.5-.681Zm5.646,9.151a5.938,5.938,0,0,0-2.726-5.062,5.549,5.549,0,0,0-5.744,0,5.938,5.938,0,0,0-2.823,5.062,5.841,5.841,0,0,0,.779,2.921,6.036,6.036,0,0,0,2.044,2.044,5.257,5.257,0,0,0,2.823.779,5.16,5.16,0,0,0,2.823-.779,6.036,6.036,0,0,0,2.044-2.142,5.841,5.841,0,0,0,.779-2.921Z" transform="translate(-1.788 -0.937)" fill="#fff"/>
      <path id="Trazado_11432" data-name="Trazado 11432" d="M91.863,29.5a1.655,1.655,0,0,1,1.266.487,1.558,1.558,0,0,1,.487,1.071V52.085a1.266,1.266,0,0,1-.487,1.071,1.655,1.655,0,0,1-.974.389,1.752,1.752,0,0,1-1.168-.487,1.46,1.46,0,0,1-.487-1.168V31.058a1.655,1.655,0,0,1,.487-1.168A1.363,1.363,0,0,1,91.863,29.5Z" transform="translate(-2.398 -0.781)" fill="#fff"/>
      <path id="Trazado_11433" data-name="Trazado 11433" d="M77.5,20.776a1.558,1.558,0,0,0-1.168-.487h-.487l-.487.195a2.142,2.142,0,0,1-1.266.389.779.779,0,0,1-.779-.292,2.337,2.337,0,0,1-.195-1.071h0V9.483h2.239a1.558,1.558,0,0,0,1.168-2.628,1.46,1.46,0,0,0-1.071-.487H73.212V3.155a1.558,1.558,0,0,0-.487-1.168,1.655,1.655,0,0,0-2.336,0A1.558,1.558,0,0,0,70,3.155V19.8a4.575,4.575,0,0,0,1.071,3.115,3.991,3.991,0,0,0,3.115,1.266,4.673,4.673,0,0,0,1.752-.292l1.46-.779a1.558,1.558,0,0,0,.195-2.434Z" transform="translate(-1.854 -0.039)" fill="#fff"/>
      <path id="Trazado_11434" data-name="Trazado 11434" d="M65.095,50.067a1.558,1.558,0,0,0-1.168-.487h-.584l-.487.195a2.142,2.142,0,0,1-1.266.389.779.779,0,0,1-.779-.292,2.336,2.336,0,0,1-.195-1.071h0v-9.93h2.239a1.558,1.558,0,0,0,0-3.115H60.811V32.544a1.655,1.655,0,1,0-3.213,0c0,5.452,0,10.806,0,16.258v.389a4.575,4.575,0,0,0,1.071,3.115,3.991,3.991,0,0,0,3.115,1.266,4.673,4.673,0,0,0,1.752-.292L65,52.5a1.558,1.558,0,0,0,.195-2.434Z" transform="translate(-1.525 -0.807)" fill="#fff"/>
      <path id="Trazado_11435" data-name="Trazado 11435" d="M113.655,6a8.762,8.762,0,0,1,3.6.779,9.151,9.151,0,0,1,2.921,2.044,9.735,9.735,0,0,1,1.947,3.018,9.151,9.151,0,0,1,.681,3.6,8.956,8.956,0,0,1-.681,3.5,9.443,9.443,0,0,1-4.868,4.965,8.664,8.664,0,0,1-3.5.779,8.761,8.761,0,0,1-3.5-.681,9.248,9.248,0,0,1-2.921-1.947,9.293,9.293,0,0,1-1.947-10.124,9.638,9.638,0,0,1,1.947-3.018,9.443,9.443,0,0,1,2.921-2.044A8.567,8.567,0,0,1,113.655,6Zm-5.744,9.346a5.646,5.646,0,0,0,.779,2.921,5.938,5.938,0,0,0,2.142,2.142,5.549,5.549,0,0,0,2.921.779,5.452,5.452,0,0,0,2.921-.779,6.036,6.036,0,0,0,2.044-2.142,5.744,5.744,0,0,0,.779-2.921,6.036,6.036,0,0,0-2.823-5.16,5.452,5.452,0,0,0-2.921-.779,5.354,5.354,0,0,0-2.921.779,6.036,6.036,0,0,0-2.823,5.16Z" transform="translate(-2.773 -0.159)" fill="#fff"/>
    </g>
  </g>
</svg>
